<?xml version="1.0" encoding="UTF-8" standalone="no"?>
<!DOCTYPE svg PUBLIC "-//W3C//DTD SVG 1.1//EN"
 "http://www.w3.org/Graphics/SVG/1.1/DTD/svg11.dtd">
<!-- Generated by graphviz version 2.44.0 (20200408.0750)
 -->
<!-- Pages: 1 -->
<svg width="877pt" height="232pt"
 viewBox="0.00 0.00 877.00 232.00" xmlns="http://www.w3.org/2000/svg" xmlns:xlink="http://www.w3.org/1999/xlink">
<g id="graph0" class="graph" transform="scale(1 1) rotate(0) translate(4 228)">
<polygon fill="white" stroke="transparent" points="-4,4 -4,-228 873,-228 873,4 -4,4"/>
<!-- X1 -->
<g id="node1" class="node">
<title>X1</title>
<polygon fill="white" stroke="transparent" points="182,-195 0,-195 0,-57 182,-57 182,-195"/>
<polygon fill="none" stroke="black" points="0,-172 0,-195 182,-195 182,-172 0,-172"/>
<text text-anchor="start" x="82.5" y="-179.8" font-family="arial" font-size="14.00">X1</text>
<polygon fill="none" stroke="black" points="0,-149 0,-172 93,-172 93,-149 0,-149"/>
<text text-anchor="start" x="4" y="-156.8" font-family="arial" font-size="14.00">Molex KK 254</text>
<polygon fill="none" stroke="black" points="93,-149 93,-172 143,-172 143,-149 93,-149"/>
<text text-anchor="start" x="97" y="-156.8" font-family="arial" font-size="14.00">female</text>
<polygon fill="none" stroke="black" points="143,-149 143,-172 182,-172 182,-149 143,-149"/>
<text text-anchor="start" x="147" y="-156.8" font-family="arial" font-size="14.00">4&#45;pin</text>
<polygon fill="none" stroke="black" points="0,-126 0,-149 103,-149 103,-126 0,-126"/>
<text text-anchor="start" x="36" y="-133.8" font-family="arial" font-size="14.00">GND</text>
<polygon fill="none" stroke="black" points="103,-126 103,-149 182,-149 182,-126 103,-126"/>
<text text-anchor="start" x="138.5" y="-133.8" font-family="arial" font-size="14.00">1</text>
<polygon fill="none" stroke="black" points="0,-103 0,-126 103,-126 103,-103 0,-103"/>
<text text-anchor="start" x="37" y="-110.8" font-family="arial" font-size="14.00">VCC</text>
<polygon fill="none" stroke="black" points="103,-103 103,-126 182,-126 182,-103 103,-103"/>
<text text-anchor="start" x="138.5" y="-110.8" font-family="arial" font-size="14.00">2</text>
<polygon fill="none" stroke="black" points="0,-80 0,-103 103,-103 103,-80 0,-80"/>
<text text-anchor="start" x="42" y="-87.8" font-family="arial" font-size="14.00">RX</text>
<polygon fill="none" stroke="black" points="103,-80 103,-103 182,-103 182,-80 103,-80"/>
<text text-anchor="start" x="138.5" y="-87.8" font-family="arial" font-size="14.00">3</text>
<polygon fill="none" stroke="black" points="0,-57 0,-80 103,-80 103,-57 0,-57"/>
<text text-anchor="start" x="42.5" y="-64.8" font-family="arial" font-size="14.00">TX</text>
<polygon fill="none" stroke="black" points="103,-57 103,-80 182,-80 182,-57 103,-57"/>
<text text-anchor="start" x="138.5" y="-64.8" font-family="arial" font-size="14.00">4</text>
</g>
<!-- W1 -->
<g id="node3" class="node">
<title>W1</title>
<polygon fill="none" stroke="black" points="543,-224 326,-224 326,0 543,0 543,-224"/>
<polygon fill="none" stroke="black" points="326.5,-201 326.5,-224 543.5,-224 543.5,-201 326.5,-201"/>
<text text-anchor="start" x="424" y="-208.8" font-family="arial" font-size="14.00">W1</text>
<polygon fill="none" stroke="black" points="326.5,-178 326.5,-201 349.5,-201 349.5,-178 326.5,-178"/>
<text text-anchor="start" x="330.5" y="-185.8" font-family="arial" font-size="14.00">4x</text>
<polygon fill="none" stroke="black" points="349.5,-178 349.5,-201 481.5,-201 481.5,-178 349.5,-178"/>
<text text-anchor="start" x="353.5" y="-185.8" font-family="arial" font-size="14.00">0.25 mm² (24 AWG)</text>
<polygon fill="none" stroke="black" points="481.5,-178 481.5,-201 511.5,-201 511.5,-178 481.5,-178"/>
<text text-anchor="start" x="485.5" y="-185.8" font-family="arial" font-size="14.00">+ S</text>
<polygon fill="none" stroke="black" points="511.5,-178 511.5,-201 543.5,-201 543.5,-178 511.5,-178"/>
<text text-anchor="start" x="515.5" y="-185.8" font-family="arial" font-size="14.00">1 m</text>
<text text-anchor="start" x="433" y="-166.8" font-family="arial" font-size="14.00"> </text>
<text text-anchor="start" x="347" y="-149.8" font-family="arial" font-size="14.00">X1:1</text>
<text text-anchor="start" x="423" y="-149.8" font-family="arial" font-size="14.00">WH</text>
<text text-anchor="start" x="495" y="-149.8" font-family="arial" font-size="14.00">X2:1</text>
<polygon fill="#000000" stroke="transparent" points="326.5,-142 326.5,-144 543.5,-144 543.5,-142 326.5,-142"/>
<polygon fill="#ffffff" stroke="transparent" points="326.5,-140 326.5,-142 543.5,-142 543.5,-140 326.5,-140"/>
<polygon fill="#000000" stroke="transparent" points="326.5,-138 326.5,-140 543.5,-140 543.5,-138 326.5,-138"/>
<text text-anchor="start" x="347" y="-124.8" font-family="arial" font-size="14.00">X1:2</text>
<text text-anchor="start" x="425.5" y="-124.8" font-family="arial" font-size="14.00">BN</text>
<text text-anchor="start" x="495" y="-124.8" font-family="arial" font-size="14.00">X2:2</text>
<polygon fill="#000000" stroke="transparent" points="326.5,-117 326.5,-119 543.5,-119 543.5,-117 326.5,-117"/>
<polygon fill="#895956" stroke="transparent" points="326.5,-115 326.5,-117 543.5,-117 543.5,-115 326.5,-115"/>
<polygon fill="#000000" stroke="transparent" points="326.5,-113 326.5,-115 543.5,-115 543.5,-113 326.5,-113"/>
<text text-anchor="start" x="347" y="-99.8" font-family="arial" font-size="14.00">X1:3</text>
<text text-anchor="start" x="424" y="-99.8" font-family="arial" font-size="14.00">GN</text>
<text text-anchor="start" x="495" y="-99.8" font-family="arial" font-size="14.00">X2:4</text>
<polygon fill="#000000" stroke="transparent" points="326.5,-92 326.5,-94 543.5,-94 543.5,-92 326.5,-92"/>
<polygon fill="#00ff00" stroke="transparent" points="326.5,-90 326.5,-92 543.5,-92 543.5,-90 326.5,-90"/>
<polygon fill="#000000" stroke="transparent" points="326.5,-88 326.5,-90 543.5,-90 543.5,-88 326.5,-88"/>
<text text-anchor="start" x="347" y="-74.8" font-family="arial" font-size="14.00">X1:4</text>
<text text-anchor="start" x="425.5" y="-74.8" font-family="arial" font-size="14.00">YE</text>
<text text-anchor="start" x="495" y="-74.8" font-family="arial" font-size="14.00">X2:3</text>
<polygon fill="#000000" stroke="transparent" points="326.5,-67 326.5,-69 543.5,-69 543.5,-67 326.5,-67"/>
<polygon fill="#ffff00" stroke="transparent" points="326.5,-65 326.5,-67 543.5,-67 543.5,-65 326.5,-65"/>
<polygon fill="#000000" stroke="transparent" points="326.5,-63 326.5,-65 543.5,-65 543.5,-63 326.5,-63"/>
<text text-anchor="start" x="359" y="-49.8" font-family="arial" font-size="14.00"> </text>
<text text-anchor="start" x="347" y="-30.8" font-family="arial" font-size="14.00">X1:1</text>
<text text-anchor="start" x="416" y="-30.8" font-family="arial" font-size="14.00">Shield</text>
<polyline fill="none" stroke="black" stroke-width="2" points="327.5,-20 542.5,-20 "/>
<text text-anchor="start" x="359" y="-5.8" font-family="arial" font-size="14.00"> </text>
</g>
<!-- X1&#45;&#45;W1 -->
<g id="edge1" class="edge">
<title>X1:e&#45;&#45;W1:w</title>
<path fill="none" stroke="#000000" stroke-width="2" d="M182,-136C246.38,-136.03 262.36,-139.03 326,-139"/>
<path fill="none" stroke="#ffffff" stroke-width="2" d="M182,-138C246.01,-138 261.99,-141 326,-141"/>
<path fill="none" stroke="#000000" stroke-width="2" d="M182,-140C245.64,-139.97 261.62,-142.97 326,-143"/>
</g>
<!-- X1&#45;&#45;W1 -->
<g id="edge3" class="edge">
<title>X1:e&#45;&#45;W1:w</title>
<path fill="none" stroke="#000000" stroke-width="2" d="M182,-112C246.25,-112.02 262.24,-114.02 326,-114"/>
<path fill="none" stroke="#895956" stroke-width="2" d="M182,-114C246.01,-114 261.99,-116 326,-116"/>
<path fill="none" stroke="#000000" stroke-width="2" d="M182,-116C245.76,-115.98 261.75,-117.98 326,-118"/>
</g>
<!-- X1&#45;&#45;W1 -->
<g id="edge5" class="edge">
<title>X1:e&#45;&#45;W1:w</title>
<path fill="none" stroke="#000000" stroke-width="2" d="M182,-89C246,-89 262,-89 326,-89"/>
<path fill="none" stroke="#00ff00" stroke-width="2" d="M182,-91C246,-91 262,-91 326,-91"/>
<path fill="none" stroke="#000000" stroke-width="2" d="M182,-93C246,-93 262,-93 326,-93"/>
</g>
<!-- X1&#45;&#45;W1 -->
<g id="edge7" class="edge">
<title>X1:e&#45;&#45;W1:w</title>
<path fill="none" stroke="#000000" stroke-width="2" d="M182,-66C245.76,-66.02 261.75,-64.02 326,-64"/>
<path fill="none" stroke="#ffff00" stroke-width="2" d="M182,-68C246.01,-68 261.99,-66 326,-66"/>
<path fill="none" stroke="#000000" stroke-width="2" d="M182,-70C246.25,-69.98 262.24,-67.98 326,-68"/>
</g>
<!-- X1&#45;&#45;W1 -->
<g id="edge9" class="edge">
<title>X1:e&#45;&#45;W1:w</title>
<path fill="none" stroke="#000000" stroke-width="2" d="M182,-136C262.21,-138.35 241.85,-22.35 326,-20"/>
<path fill="none" stroke="#aaaaaa" stroke-width="2" d="M182,-138C264.18,-138 243.82,-22 326,-22"/>
<path fill="none" stroke="#000000" stroke-width="2" d="M182,-140C266.15,-137.65 245.79,-21.65 326,-24"/>
</g>
<!-- X2 -->
<g id="node2" class="node">
<title>X2</title>
<polygon fill="white" stroke="transparent" points="869,-197 687,-197 687,-59 869,-59 869,-197"/>
<polygon fill="none" stroke="black" points="687,-174 687,-197 869,-197 869,-174 687,-174"/>
<text text-anchor="start" x="769.5" y="-181.8" font-family="arial" font-size="14.00">X2</text>
<polygon fill="none" stroke="black" points="687,-151 687,-174 780,-174 780,-151 687,-151"/>
<text text-anchor="start" x="691" y="-158.8" font-family="arial" font-size="14.00">Molex KK 254</text>
<polygon fill="none" stroke="black" points="780,-151 780,-174 830,-174 830,-151 780,-151"/>
<text text-anchor="start" x="784" y="-158.8" font-family="arial" font-size="14.00">female</text>
<polygon fill="none" stroke="black" points="830,-151 830,-174 869,-174 869,-151 830,-151"/>
<text text-anchor="start" x="834" y="-158.8" font-family="arial" font-size="14.00">4&#45;pin</text>
<polygon fill="none" stroke="black" points="687,-128 687,-151 767,-151 767,-128 687,-128"/>
<text text-anchor="start" x="723" y="-135.8" font-family="arial" font-size="14.00">1</text>
<polygon fill="none" stroke="black" points="767,-128 767,-151 869,-151 869,-128 767,-128"/>
<text text-anchor="start" x="802.5" y="-135.8" font-family="arial" font-size="14.00">GND</text>
<polygon fill="none" stroke="black" points="687,-105 687,-128 767,-128 767,-105 687,-105"/>
<text text-anchor="start" x="723" y="-112.8" font-family="arial" font-size="14.00">2</text>
<polygon fill="none" stroke="black" points="767,-105 767,-128 869,-128 869,-105 767,-105"/>
<text text-anchor="start" x="803.5" y="-112.8" font-family="arial" font-size="14.00">VCC</text>
<polygon fill="none" stroke="black" points="687,-82 687,-105 767,-105 767,-82 687,-82"/>
<text text-anchor="start" x="723" y="-89.8" font-family="arial" font-size="14.00">3</text>
<polygon fill="none" stroke="black" points="767,-82 767,-105 869,-105 869,-82 767,-82"/>
<text text-anchor="start" x="808.5" y="-89.8" font-family="arial" font-size="14.00">RX</text>
<polygon fill="none" stroke="black" points="687,-59 687,-82 767,-82 767,-59 687,-59"/>
<text text-anchor="start" x="723" y="-66.8" font-family="arial" font-size="14.00">4</text>
<polygon fill="none" stroke="black" points="767,-59 767,-82 869,-82 869,-59 767,-59"/>
<text text-anchor="start" x="809" y="-66.8" font-family="arial" font-size="14.00">TX</text>
</g>
<!-- W1&#45;&#45;X2 -->
<g id="edge2" class="edge">
<title>W1:e&#45;&#45;X2:w</title>
<path fill="none" stroke="#000000" stroke-width="2" d="M543,-139C606.88,-139 622.87,-138 687,-138"/>
<path fill="none" stroke="#ffffff" stroke-width="2" d="M543,-141C607,-141 623,-140 687,-140"/>
<path fill="none" stroke="#000000" stroke-width="2" d="M543,-143C607.13,-143 623.12,-142 687,-142"/>
</g>
<!-- W1&#45;&#45;X2 -->
<g id="edge4" class="edge">
<title>W1:e&#45;&#45;X2:w</title>
<path fill="none" stroke="#000000" stroke-width="2" d="M543,-114C607,-114 623,-114 687,-114"/>
<path fill="none" stroke="#895956" stroke-width="2" d="M543,-116C607,-116 623,-116 687,-116"/>
<path fill="none" stroke="#000000" stroke-width="2" d="M543,-118C607,-118 623,-118 687,-118"/>
</g>
<!-- W1&#45;&#45;X2 -->
<g id="edge6" class="edge">
<title>W1:e&#45;&#45;X2:w</title>
<path fill="none" stroke="#000000" stroke-width="2" d="M543,-89C606.04,-89.86 620.68,-68.86 687,-68"/>
<path fill="none" stroke="#00ff00" stroke-width="2" d="M543,-91C607.68,-91 622.32,-70 687,-70"/>
<path fill="none" stroke="#000000" stroke-width="2" d="M543,-93C609.32,-92.14 623.96,-71.14 687,-72"/>
</g>
<!-- W1&#45;&#45;X2 -->
<g id="edge8" class="edge">
<title>W1:e&#45;&#45;X2:w</title>
<path fill="none" stroke="#000000" stroke-width="2" d="M543,-64C609.9,-65.09 623.67,-92.09 687,-91"/>
<path fill="none" stroke="#ffff00" stroke-width="2" d="M543,-66C608.12,-66 621.88,-93 687,-93"/>
<path fill="none" stroke="#000000" stroke-width="2" d="M543,-68C606.33,-66.91 620.1,-93.91 687,-95"/>
</g>
</g>
</svg>
