<?xml version="1.0" encoding="UTF-8" standalone="no"?>
<!DOCTYPE svg PUBLIC "-//W3C//DTD SVG 1.1//EN"
 "http://www.w3.org/Graphics/SVG/1.1/DTD/svg11.dtd">
<!-- Generated by graphviz version 11.0.0 (20240428.1522)
 -->
<!-- Pages: 1 -->
<svg width="1015pt" height="336pt"
 viewBox="0.00 0.00 1015.00 335.75" xmlns="http://www.w3.org/2000/svg" xmlns:xlink="http://www.w3.org/1999/xlink">
<g id="graph0" class="graph" transform="scale(1 1) rotate(0) translate(4 331.75)">
<polygon fill="#ffffff" stroke="none" points="-4,4 -4,-331.75 1011,-331.75 1011,4 -4,4"/>
<!-- X1 -->
<g id="node1" class="node">
<title>X1</title>
<polygon fill="#ffffff" stroke="black" points="204.5,-314.5 0,-314.5 0,0 204.5,0 204.5,-314.5"/>
<polygon fill="none" stroke="black" points="0,-290 0,-314.5 204.5,-314.5 204.5,-290 0,-290"/>
<text text-anchor="start" x="93.25" y="-297.2" font-family="arial" font-size="14.00">X1</text>
<polygon fill="none" stroke="black" points="0,-265.5 0,-290 102.67,-290 102.67,-265.5 0,-265.5"/>
<text text-anchor="start" x="6.71" y="-272.7" font-family="arial" font-size="14.00">Molex KK 254</text>
<polygon fill="none" stroke="black" points="102.67,-265.5 102.67,-290 159.58,-290 159.58,-265.5 102.67,-265.5"/>
<text text-anchor="start" x="109.38" y="-272.7" font-family="arial" font-size="14.00">female</text>
<polygon fill="none" stroke="black" points="159.58,-265.5 159.58,-290 204.5,-290 204.5,-265.5 159.58,-265.5"/>
<text text-anchor="start" x="166.29" y="-272.7" font-family="arial" font-size="14.00">7&#45;pin</text>
<polygon fill="none" stroke="black" points="0,-241.5 0,-265.5 58.88,-265.5 58.88,-241.5 0,-241.5"/>
<polygon fill="none" stroke="black" points="58.88,-241.5 58.88,-265.5 113.75,-265.5 113.75,-241.5 58.88,-241.5"/>
<text text-anchor="start" x="72.44" y="-248.2" font-family="arial" font-size="14.00">SH1</text>
<polygon fill="none" stroke="black" points="113.75,-241.5 113.75,-265.5 168.63,-265.5 168.63,-241.5 113.75,-241.5"/>
<text text-anchor="start" x="127.31" y="-248.2" font-family="arial" font-size="14.00">SH2</text>
<polygon fill="none" stroke="black" points="168.63,-241.5 168.63,-265.5 204.5,-265.5 204.5,-241.5 168.63,-241.5"/>
<polygon fill="none" stroke="black" points="0,-217.5 0,-241.5 58.88,-241.5 58.88,-217.5 0,-217.5"/>
<text text-anchor="start" x="13.69" y="-224.2" font-family="arial" font-size="14.00">GND</text>
<polygon fill="none" stroke="black" points="58.88,-217.5 58.88,-241.5 113.75,-241.5 113.75,-217.5 58.88,-217.5"/>
<polygon fill="none" stroke="black" points="113.75,-217.5 113.75,-241.5 168.63,-241.5 168.63,-217.5 113.75,-217.5"/>
<polygon fill="none" stroke="black" points="168.63,-217.5 168.63,-241.5 204.5,-241.5 204.5,-217.5 168.63,-217.5"/>
<text text-anchor="start" x="182.44" y="-224.2" font-family="arial" font-size="14.00">1</text>
<polygon fill="none" stroke="black" points="0,-193.5 0,-217.5 58.88,-217.5 58.88,-193.5 0,-193.5"/>
<text text-anchor="start" x="14.06" y="-200.2" font-family="arial" font-size="14.00">VCC</text>
<polygon fill="none" stroke="black" points="58.88,-193.5 58.88,-217.5 113.75,-217.5 113.75,-193.5 58.88,-193.5"/>
<polygon fill="none" stroke="black" points="113.75,-193.5 113.75,-217.5 168.63,-217.5 168.63,-193.5 113.75,-193.5"/>
<polygon fill="none" stroke="black" points="168.63,-193.5 168.63,-217.5 204.5,-217.5 204.5,-193.5 168.63,-193.5"/>
<text text-anchor="start" x="182.44" y="-200.2" font-family="arial" font-size="14.00">2</text>
<polygon fill="none" stroke="black" points="0,-169.5 0,-193.5 58.88,-193.5 58.88,-169.5 0,-169.5"/>
<text text-anchor="start" x="19.31" y="-176.2" font-family="arial" font-size="14.00">RX</text>
<polygon fill="none" stroke="black" points="58.88,-169.5 58.88,-193.5 113.75,-193.5 113.75,-169.5 58.88,-169.5"/>
<polygon fill="none" stroke="black" points="113.75,-169.5 113.75,-193.5 168.63,-193.5 168.63,-169.5 113.75,-169.5"/>
<polygon fill="none" stroke="black" points="168.63,-169.5 168.63,-193.5 204.5,-193.5 204.5,-169.5 168.63,-169.5"/>
<text text-anchor="start" x="182.44" y="-176.2" font-family="arial" font-size="14.00">3</text>
<polygon fill="none" stroke="black" points="0,-145.5 0,-169.5 58.88,-169.5 58.88,-145.5 0,-145.5"/>
<text text-anchor="start" x="20.06" y="-152.2" font-family="arial" font-size="14.00">TX</text>
<polygon fill="none" stroke="black" points="58.88,-145.5 58.88,-169.5 113.75,-169.5 113.75,-145.5 58.88,-145.5"/>
<polygon fill="none" stroke="black" points="113.75,-145.5 113.75,-169.5 168.63,-169.5 168.63,-145.5 113.75,-145.5"/>
<polygon fill="none" stroke="black" points="168.63,-145.5 168.63,-169.5 204.5,-169.5 204.5,-145.5 168.63,-145.5"/>
<text text-anchor="start" x="182.44" y="-152.2" font-family="arial" font-size="14.00">4</text>
<polygon fill="none" stroke="black" points="0,-121.5 0,-145.5 58.88,-145.5 58.88,-121.5 0,-121.5"/>
<text text-anchor="start" x="13.69" y="-128.2" font-family="arial" font-size="14.00">GND</text>
<polygon fill="none" stroke="black" points="58.88,-121.5 58.88,-145.5 113.75,-145.5 113.75,-121.5 58.88,-121.5"/>
<polygon fill="none" stroke="black" points="113.75,-121.5 113.75,-145.5 168.63,-145.5 168.63,-121.5 113.75,-121.5"/>
<polygon fill="none" stroke="black" points="168.63,-121.5 168.63,-145.5 204.5,-145.5 204.5,-121.5 168.63,-121.5"/>
<text text-anchor="start" x="182.44" y="-128.2" font-family="arial" font-size="14.00">5</text>
<polygon fill="none" stroke="black" points="0,-97.5 0,-121.5 58.88,-121.5 58.88,-97.5 0,-97.5"/>
<text text-anchor="start" x="14.06" y="-104.2" font-family="arial" font-size="14.00">VCC</text>
<polygon fill="none" stroke="black" points="58.88,-97.5 58.88,-121.5 113.75,-121.5 113.75,-97.5 58.88,-97.5"/>
<polygon fill="none" stroke="black" points="113.75,-97.5 113.75,-121.5 168.63,-121.5 168.63,-97.5 113.75,-97.5"/>
<polygon fill="none" stroke="black" points="168.63,-97.5 168.63,-121.5 204.5,-121.5 204.5,-97.5 168.63,-97.5"/>
<text text-anchor="start" x="182.44" y="-104.2" font-family="arial" font-size="14.00">6</text>
<polygon fill="none" stroke="black" points="0,-73.5 0,-97.5 58.88,-97.5 58.88,-73.5 0,-73.5"/>
<text text-anchor="start" x="13.69" y="-80.2" font-family="arial" font-size="14.00">GND</text>
<polygon fill="none" stroke="black" points="58.88,-73.5 58.88,-97.5 113.75,-97.5 113.75,-73.5 58.88,-73.5"/>
<polygon fill="none" stroke="black" points="113.75,-73.5 113.75,-97.5 168.63,-97.5 168.63,-73.5 113.75,-73.5"/>
<polygon fill="none" stroke="black" points="168.63,-73.5 168.63,-97.5 204.5,-97.5 204.5,-73.5 168.63,-73.5"/>
<text text-anchor="start" x="182.44" y="-80.2" font-family="arial" font-size="14.00">7</text>
<polygon fill="none" stroke="black" points="0,-49 0,-73.5 204.5,-73.5 204.5,-49 0,-49"/>
<text text-anchor="start" x="29.88" y="-56.2" font-family="arial" font-size="14.00">Additional components</text>
<polygon fill="none" stroke="black" points="0,-24.5 0,-49 204.5,-49 204.5,-24.5 0,-24.5"/>
<text text-anchor="start" x="4" y="-31.7" font-family="arial" font-size="14.00">42 mm x SH1 x #4 (shortPartA)</text>
<polygon fill="none" stroke="black" points="0,0 0,-24.5 204.5,-24.5 204.5,0 0,0"/>
<text text-anchor="start" x="4" y="-7.2" font-family="arial" font-size="14.00">1 x SH2 x #5 (shortPartB)</text>
</g>
<!-- X1&#45;&#45;X1 -->
<g id="edge1" class="edge">
<title>X1:c&#45;&#45;X1:c</title>
<path fill="none" stroke="#ff66cc" stroke-width="2" d="M86.31,-229.5C86.31,-197.5 86.31,-165.5 86.31,-133.5"/>
</g>
<!-- X1&#45;&#45;X1 -->
<g id="edge2" class="edge">
<title>X1:c&#45;&#45;X1:c</title>
<path fill="none" stroke="#ff66cc" stroke-width="2" d="M86.31,-133.5C86.31,-117.5 86.31,-101.5 86.31,-85.5"/>
</g>
<!-- X1&#45;&#45;X1 -->
<g id="edge3" class="edge">
<title>X1:c&#45;&#45;X1:c</title>
<path fill="none" stroke="#ff0000" stroke-width="2" d="M141.19,-205.5C141.19,-173.5 141.19,-141.5 141.19,-109.5"/>
</g>
<!-- W1 -->
<g id="node2" class="node">
<title>W1</title>
<polygon fill="#ffffff" stroke="black" points="626.26,-327.75 348.51,-327.75 348.51,-92.75 626.26,-92.75 626.26,-327.75"/>
<polygon fill="none" stroke="black" points="348.51,-303.25 348.51,-327.75 626.26,-327.75 626.26,-303.25 348.51,-303.25"/>
<text text-anchor="start" x="476.13" y="-310.45" font-family="arial" font-size="14.00">W1</text>
<polygon fill="none" stroke="black" points="348.51,-278.75 348.51,-303.25 392.51,-303.25 392.51,-278.75 348.51,-278.75"/>
<text text-anchor="start" x="352.51" y="-285.95" font-family="arial" font-size="14.00">Serial</text>
<polygon fill="none" stroke="black" points="392.51,-278.75 392.51,-303.25 415.51,-303.25 415.51,-278.75 392.51,-278.75"/>
<text text-anchor="start" x="396.51" y="-285.95" font-family="arial" font-size="14.00">4x</text>
<polygon fill="none" stroke="black" points="415.51,-278.75 415.51,-303.25 552.51,-303.25 552.51,-278.75 415.51,-278.75"/>
<text text-anchor="start" x="419.51" y="-285.95" font-family="arial" font-size="14.00">0.25 mm² (24 AWG)</text>
<polygon fill="none" stroke="black" points="552.51,-278.75 552.51,-303.25 582.26,-303.25 582.26,-278.75 552.51,-278.75"/>
<text text-anchor="start" x="556.51" y="-285.95" font-family="arial" font-size="14.00">+ S</text>
<polygon fill="none" stroke="black" points="582.26,-278.75 582.26,-303.25 626.26,-303.25 626.26,-278.75 582.26,-278.75"/>
<text text-anchor="start" x="586.26" y="-285.95" font-family="arial" font-size="14.00">0.2 m</text>
<text text-anchor="start" x="392.42" y="-263.45" font-family="arial" font-size="14.00"> </text>
<text text-anchor="start" x="361.67" y="-243.45" font-family="arial" font-size="14.00">X1:1:GND</text>
<text text-anchor="start" x="454.76" y="-243.45" font-family="arial" font-size="14.00"> &#160;&#160;&#160;&#160;1:BN &#160;&#160;&#160;</text>
<text text-anchor="start" x="547.84" y="-243.45" font-family="arial" font-size="14.00">X2:1:GND</text>
<text text-anchor="start" x="362.05" y="-217.45" font-family="arial" font-size="14.00">X1:2:VCC</text>
<text text-anchor="start" x="454.01" y="-217.45" font-family="arial" font-size="14.00"> &#160;&#160;&#160;&#160;2:RD &#160;&#160;&#160;</text>
<text text-anchor="start" x="548.21" y="-217.45" font-family="arial" font-size="14.00">X2:2:VCC</text>
<text text-anchor="start" x="367.3" y="-191.45" font-family="arial" font-size="14.00">X1:3:RX</text>
<text text-anchor="start" x="453.26" y="-191.45" font-family="arial" font-size="14.00"> &#160;&#160;&#160;&#160;3:OG &#160;&#160;&#160;</text>
<text text-anchor="start" x="554.21" y="-191.45" font-family="arial" font-size="14.00">X2:4:TX</text>
<text text-anchor="start" x="368.05" y="-165.45" font-family="arial" font-size="14.00">X1:4:TX</text>
<text text-anchor="start" x="455.13" y="-165.45" font-family="arial" font-size="14.00"> &#160;&#160;&#160;&#160;4:YE &#160;&#160;&#160;</text>
<text text-anchor="start" x="553.46" y="-165.45" font-family="arial" font-size="14.00">X2:3:RX</text>
<text text-anchor="start" x="392.42" y="-139.45" font-family="arial" font-size="14.00"> </text>
<text text-anchor="start" x="361.67" y="-119.45" font-family="arial" font-size="14.00">X1:1:GND</text>
<text text-anchor="start" x="467.51" y="-119.45" font-family="arial" font-size="14.00">Shield</text>
<text text-anchor="start" x="392.42" y="-97.45" font-family="arial" font-size="14.00"> </text>
</g>
<!-- X1&#45;&#45;W1 -->
<g id="edge4" class="edge">
<title>X1:e&#45;&#45;W1:w</title>
<path fill="none" stroke="#000000" stroke-width="2" d="M204.5,-227.5C269.29,-227.64 285.17,-233.89 348.5,-233.75"/>
<path fill="none" stroke="#895956" stroke-width="2" d="M204.5,-229.5C268.56,-229.5 284.44,-235.75 348.5,-235.75"/>
<path fill="none" stroke="#000000" stroke-width="2" d="M204.5,-231.5C267.83,-231.36 283.71,-237.61 348.5,-237.75"/>
</g>
<!-- X1&#45;&#45;W1 -->
<g id="edge5" class="edge">
<title>X1:e&#45;&#45;W1:w</title>
<path fill="none" stroke="#000000" stroke-width="2" d="M204.5,-203.5C269.05,-203.57 284.99,-207.82 348.5,-207.75"/>
<path fill="none" stroke="#ff0000" stroke-width="2" d="M204.5,-205.5C268.53,-205.5 284.47,-209.75 348.5,-209.75"/>
<path fill="none" stroke="#000000" stroke-width="2" d="M204.5,-207.5C268.02,-207.43 283.96,-211.68 348.5,-211.75"/>
</g>
<!-- X1&#45;&#45;W1 -->
<g id="edge6" class="edge">
<title>X1:e&#45;&#45;W1:w</title>
<path fill="none" stroke="#000000" stroke-width="2" d="M204.5,-179.5C268.79,-179.52 284.77,-181.77 348.5,-181.75"/>
<path fill="none" stroke="#ff8000" stroke-width="2" d="M204.5,-181.5C268.51,-181.5 284.49,-183.75 348.5,-183.75"/>
<path fill="none" stroke="#000000" stroke-width="2" d="M204.5,-183.5C268.23,-183.48 284.21,-185.73 348.5,-185.75"/>
</g>
<!-- X1&#45;&#45;W1 -->
<g id="edge7" class="edge">
<title>X1:e&#45;&#45;W1:w</title>
<path fill="none" stroke="#000000" stroke-width="2" d="M204.5,-155.5C268.53,-155.5 284.53,-155.75 348.5,-155.75"/>
<path fill="none" stroke="#ffff00" stroke-width="2" d="M204.5,-157.5C268.5,-157.5 284.5,-157.75 348.5,-157.75"/>
<path fill="none" stroke="#000000" stroke-width="2" d="M204.5,-159.5C268.47,-159.5 284.47,-159.75 348.5,-159.75"/>
</g>
<!-- X1&#45;&#45;W1 -->
<g id="edge8" class="edge">
<title>X1:e&#45;&#45;W1:w</title>
<path fill="none" stroke="#000000" stroke-width="2" d="M204.5,-229.5C286.61,-229.5 266.39,-113.75 348.5,-113.75"/>
</g>
<!-- W1&#45;&#45;W1 -->
<g id="edge9" class="edge">
<title>W1:w&#45;&#45;W1:e</title>
<path fill="none" stroke="#000000" stroke-width="2" d="M348.5,-233.75C441.08,-233.75 533.67,-233.75 626.25,-233.75"/>
<path fill="none" stroke="#895956" stroke-width="2" d="M348.5,-235.75C441.08,-235.75 533.67,-235.75 626.25,-235.75"/>
<path fill="none" stroke="#000000" stroke-width="2" d="M348.5,-237.75C441.08,-237.75 533.67,-237.75 626.25,-237.75"/>
</g>
<!-- W1&#45;&#45;W1 -->
<g id="edge10" class="edge">
<title>W1:w&#45;&#45;W1:e</title>
<path fill="none" stroke="#000000" stroke-width="2" d="M348.5,-207.75C441.08,-207.75 533.67,-207.75 626.25,-207.75"/>
<path fill="none" stroke="#ff0000" stroke-width="2" d="M348.5,-209.75C441.08,-209.75 533.67,-209.75 626.25,-209.75"/>
<path fill="none" stroke="#000000" stroke-width="2" d="M348.5,-211.75C441.08,-211.75 533.67,-211.75 626.25,-211.75"/>
</g>
<!-- W1&#45;&#45;W1 -->
<g id="edge11" class="edge">
<title>W1:w&#45;&#45;W1:e</title>
<path fill="none" stroke="#000000" stroke-width="2" d="M348.5,-181.75C441.08,-181.75 533.67,-181.75 626.25,-181.75"/>
<path fill="none" stroke="#ff8000" stroke-width="2" d="M348.5,-183.75C441.08,-183.75 533.67,-183.75 626.25,-183.75"/>
<path fill="none" stroke="#000000" stroke-width="2" d="M348.5,-185.75C441.08,-185.75 533.67,-185.75 626.25,-185.75"/>
</g>
<!-- W1&#45;&#45;W1 -->
<g id="edge12" class="edge">
<title>W1:w&#45;&#45;W1:e</title>
<path fill="none" stroke="#000000" stroke-width="2" d="M348.5,-155.75C441.08,-155.75 533.67,-155.75 626.25,-155.75"/>
<path fill="none" stroke="#ffff00" stroke-width="2" d="M348.5,-157.75C441.08,-157.75 533.67,-157.75 626.25,-157.75"/>
<path fill="none" stroke="#000000" stroke-width="2" d="M348.5,-159.75C441.08,-159.75 533.67,-159.75 626.25,-159.75"/>
</g>
<!-- W1&#45;&#45;W1 -->
<g id="edge13" class="edge">
<title>W1:w&#45;&#45;W1:e</title>
<path fill="none" stroke="#000000" stroke-width="2" d="M348.5,-113.75C441.08,-113.75 533.67,-113.75 626.25,-113.75"/>
</g>
<!-- X2 -->
<g id="node3" class="node">
<title>X2</title>
<polygon fill="#ffffff" stroke="black" points="1007,-299.25 770.25,-299.25 770.25,-33.25 1007,-33.25 1007,-299.25"/>
<polygon fill="none" stroke="black" points="770.25,-274.75 770.25,-299.25 1007,-299.25 1007,-274.75 770.25,-274.75"/>
<text text-anchor="start" x="879.62" y="-281.95" font-family="arial" font-size="14.00">X2</text>
<polygon fill="none" stroke="black" points="770.25,-250.25 770.25,-274.75 883.66,-274.75 883.66,-250.25 770.25,-250.25"/>
<text text-anchor="start" x="782.33" y="-257.45" font-family="arial" font-size="14.00">Molex KK 254</text>
<polygon fill="none" stroke="black" points="883.66,-250.25 883.66,-274.75 951.33,-274.75 951.33,-250.25 883.66,-250.25"/>
<text text-anchor="start" x="895.75" y="-257.45" font-family="arial" font-size="14.00">female</text>
<polygon fill="none" stroke="black" points="951.33,-250.25 951.33,-274.75 1007,-274.75 1007,-250.25 951.33,-250.25"/>
<text text-anchor="start" x="963.41" y="-257.45" font-family="arial" font-size="14.00">7&#45;pin</text>
<polygon fill="none" stroke="black" points="770.25,-226.25 770.25,-250.25 877.12,-250.25 877.12,-226.25 770.25,-226.25"/>
<text text-anchor="start" x="819.56" y="-232.95" font-family="arial" font-size="14.00">1</text>
<polygon fill="none" stroke="black" points="877.12,-226.25 877.12,-250.25 1007,-250.25 1007,-226.25 877.12,-226.25"/>
<text text-anchor="start" x="926.31" y="-232.95" font-family="arial" font-size="14.00">GND</text>
<polygon fill="none" stroke="black" points="770.25,-202.25 770.25,-226.25 877.12,-226.25 877.12,-202.25 770.25,-202.25"/>
<text text-anchor="start" x="819.56" y="-208.95" font-family="arial" font-size="14.00">2</text>
<polygon fill="none" stroke="black" points="877.12,-202.25 877.12,-226.25 1007,-226.25 1007,-202.25 877.12,-202.25"/>
<text text-anchor="start" x="926.68" y="-208.95" font-family="arial" font-size="14.00">VCC</text>
<polygon fill="none" stroke="black" points="770.25,-178.25 770.25,-202.25 877.12,-202.25 877.12,-178.25 770.25,-178.25"/>
<text text-anchor="start" x="819.56" y="-184.95" font-family="arial" font-size="14.00">3</text>
<polygon fill="none" stroke="black" points="877.12,-178.25 877.12,-202.25 1007,-202.25 1007,-178.25 877.12,-178.25"/>
<text text-anchor="start" x="931.93" y="-184.95" font-family="arial" font-size="14.00">RX</text>
<polygon fill="none" stroke="black" points="770.25,-154.25 770.25,-178.25 877.12,-178.25 877.12,-154.25 770.25,-154.25"/>
<text text-anchor="start" x="819.56" y="-160.95" font-family="arial" font-size="14.00">4</text>
<polygon fill="none" stroke="black" points="877.12,-154.25 877.12,-178.25 1007,-178.25 1007,-154.25 877.12,-154.25"/>
<text text-anchor="start" x="932.68" y="-160.95" font-family="arial" font-size="14.00">TX</text>
<polygon fill="none" stroke="black" points="770.25,-130.25 770.25,-154.25 877.12,-154.25 877.12,-130.25 770.25,-130.25"/>
<text text-anchor="start" x="819.56" y="-136.95" font-family="arial" font-size="14.00">5</text>
<polygon fill="none" stroke="black" points="877.12,-130.25 877.12,-154.25 1007,-154.25 1007,-130.25 877.12,-130.25"/>
<text text-anchor="start" x="926.31" y="-136.95" font-family="arial" font-size="14.00">GND</text>
<polygon fill="none" stroke="black" points="770.25,-106.25 770.25,-130.25 877.12,-130.25 877.12,-106.25 770.25,-106.25"/>
<text text-anchor="start" x="819.56" y="-112.95" font-family="arial" font-size="14.00">6</text>
<polygon fill="none" stroke="black" points="877.12,-106.25 877.12,-130.25 1007,-130.25 1007,-106.25 877.12,-106.25"/>
<text text-anchor="start" x="926.68" y="-112.95" font-family="arial" font-size="14.00">VCC</text>
<polygon fill="none" stroke="black" points="770.25,-82.25 770.25,-106.25 877.12,-106.25 877.12,-82.25 770.25,-82.25"/>
<text text-anchor="start" x="819.56" y="-88.95" font-family="arial" font-size="14.00">7</text>
<polygon fill="none" stroke="black" points="877.12,-82.25 877.12,-106.25 1007,-106.25 1007,-82.25 877.12,-82.25"/>
<text text-anchor="start" x="926.31" y="-88.95" font-family="arial" font-size="14.00">GND</text>
<polygon fill="none" stroke="black" points="770.25,-57.75 770.25,-82.25 1007,-82.25 1007,-57.75 770.25,-57.75"/>
<text text-anchor="start" x="816.25" y="-64.95" font-family="arial" font-size="14.00">Additional components</text>
<polygon fill="none" stroke="black" points="770.25,-33.25 770.25,-57.75 1007,-57.75 1007,-33.25 770.25,-33.25"/>
<text text-anchor="start" x="774.25" y="-40.45" font-family="arial" font-size="14.00">42 mm x LO1; LO2 x #3 (loopPartC)</text>
</g>
<!-- W1&#45;&#45;X2 -->
<g id="edge14" class="edge">
<title>W1:e&#45;&#45;X2:w</title>
<path fill="none" stroke="#000000" stroke-width="2" d="M626.25,-233.75C690.57,-233.78 706.55,-236.28 770.25,-236.25"/>
<path fill="none" stroke="#895956" stroke-width="2" d="M626.25,-235.75C690.26,-235.75 706.24,-238.25 770.25,-238.25"/>
<path fill="none" stroke="#000000" stroke-width="2" d="M626.25,-237.75C689.95,-237.73 705.93,-240.23 770.25,-240.25"/>
</g>
<!-- W1&#45;&#45;X2 -->
<g id="edge15" class="edge">
<title>W1:e&#45;&#45;X2:w</title>
<path fill="none" stroke="#000000" stroke-width="2" d="M626.25,-207.75C690.82,-207.83 706.76,-212.33 770.25,-212.25"/>
<path fill="none" stroke="#ff0000" stroke-width="2" d="M626.25,-209.75C690.28,-209.75 706.22,-214.25 770.25,-214.25"/>
<path fill="none" stroke="#000000" stroke-width="2" d="M626.25,-211.75C689.74,-211.68 705.68,-216.18 770.25,-216.25"/>
</g>
<!-- W1&#45;&#45;X2 -->
<g id="edge16" class="edge">
<title>W1:e&#45;&#45;X2:w</title>
<path fill="none" stroke="#000000" stroke-width="2" d="M626.25,-181.75C689.2,-182.45 704.26,-164.95 770.25,-164.25"/>
<path fill="none" stroke="#ff8000" stroke-width="2" d="M626.25,-183.75C690.72,-183.75 705.78,-166.25 770.25,-166.25"/>
<path fill="none" stroke="#000000" stroke-width="2" d="M626.25,-185.75C692.24,-185.06 707.3,-167.56 770.25,-168.25"/>
</g>
<!-- W1&#45;&#45;X2 -->
<g id="edge17" class="edge">
<title>W1:e&#45;&#45;X2:w</title>
<path fill="none" stroke="#000000" stroke-width="2" d="M626.25,-155.75C693.72,-157.02 706.5,-189.52 770.25,-188.25"/>
<path fill="none" stroke="#ffff00" stroke-width="2" d="M626.25,-157.75C691.86,-157.75 704.64,-190.25 770.25,-190.25"/>
<path fill="none" stroke="#000000" stroke-width="2" d="M626.25,-159.75C690,-158.48 702.78,-190.98 770.25,-192.25"/>
</g>
<!-- X2&#45;&#45;X2 -->
<g id="edge18" class="edge">
<title>X2:w&#45;&#45;X2:w</title>
<path fill="none" stroke="#000000" stroke-width="2" d="M770.96,-240.12C738.52,-252.25 675.06,-252.25 673.06,-190.25 675.06,-128.25 738.52,-128.25 770.96,-140.38"/>
<path fill="none" stroke="#ff66cc" stroke-width="2" d="M770.25,-238.25C738.52,-250.25 675.06,-250.25 675.06,-190.25 675.06,-130.25 738.52,-130.25 770.25,-142.25"/>
<path fill="none" stroke="#000000" stroke-width="2" d="M769.54,-236.38C738.52,-248.25 675.06,-248.25 677.06,-190.25 675.06,-132.25 738.52,-132.25 769.54,-144.12"/>
<text text-anchor="middle" x="673.19" y="-161.2" font-family="arial" font-size="14.00"> </text>
</g>
<!-- X2&#45;&#45;X2 -->
<g id="edge19" class="edge">
<title>X2:w&#45;&#45;X2:w</title>
<path fill="none" stroke="#000000" stroke-width="2" d="M770.96,-144.12C738.52,-156.25 675.06,-156.25 673.06,-118.25 675.06,-80.25 738.52,-80.25 770.96,-92.38"/>
<path fill="none" stroke="#ff66cc" stroke-width="2" d="M770.25,-142.25C738.52,-154.25 675.06,-154.25 675.06,-118.25 675.06,-82.25 738.52,-82.25 770.25,-94.25"/>
<path fill="none" stroke="#000000" stroke-width="2" d="M769.54,-140.38C738.52,-152.25 675.06,-152.25 677.06,-118.25 675.06,-84.25 738.52,-84.25 769.54,-96.12"/>
<text text-anchor="middle" x="673.19" y="-161.2" font-family="arial" font-size="14.00"> </text>
</g>
<!-- X2&#45;&#45;X2 -->
<g id="edge20" class="edge">
<title>X2:w&#45;&#45;X2:w</title>
<path fill="none" stroke="#000000" stroke-width="2" d="M770.96,-216.12C738.52,-228.25 675.06,-228.25 673.06,-166.25 675.06,-104.25 738.52,-104.25 770.96,-116.38"/>
<path fill="none" stroke="#ff66cc" stroke-width="2" d="M770.25,-214.25C738.52,-226.25 675.06,-226.25 675.06,-166.25 675.06,-106.25 738.52,-106.25 770.25,-118.25"/>
<path fill="none" stroke="#000000" stroke-width="2" d="M769.54,-212.38C738.52,-224.25 675.06,-224.25 677.06,-166.25 675.06,-108.25 738.52,-108.25 769.54,-120.12"/>
<text text-anchor="middle" x="673.19" y="-161.2" font-family="arial" font-size="14.00"> </text>
</g>
<!-- __CIRCLE__1 -->
<g id="node4" class="node">
<title>__CIRCLE__1</title>
<ellipse fill="#ff66cc" stroke="#ff66cc" cx="86.31" cy="-229.5" rx="6.48" ry="6.48"/>
</g>
<!-- __CIRCLE__2 -->
<g id="node5" class="node">
<title>__CIRCLE__2</title>
<ellipse fill="#ff66cc" stroke="#ff66cc" cx="86.31" cy="-133.5" rx="6.48" ry="6.48"/>
</g>
<!-- __CIRCLE__3 -->
<g id="node6" class="node">
<title>__CIRCLE__3</title>
<ellipse fill="#ff66cc" stroke="#ff66cc" cx="86.31" cy="-133.5" rx="6.48" ry="6.48"/>
</g>
<!-- __CIRCLE__4 -->
<g id="node7" class="node">
<title>__CIRCLE__4</title>
<ellipse fill="#ff66cc" stroke="#ff66cc" cx="86.31" cy="-85.5" rx="6.48" ry="6.48"/>
</g>
<!-- __CIRCLE__5 -->
<g id="node8" class="node">
<title>__CIRCLE__5</title>
<ellipse fill="#ff0000" stroke="#ff0000" cx="141.19" cy="-205.5" rx="6.48" ry="6.48"/>
</g>
<!-- __CIRCLE__6 -->
<g id="node9" class="node">
<title>__CIRCLE__6</title>
<ellipse fill="#ff0000" stroke="#ff0000" cx="141.19" cy="-109.5" rx="6.48" ry="6.48"/>
</g>
</g>
</svg>
