<?xml version="1.0" encoding="UTF-8" standalone="no"?>
<!DOCTYPE svg PUBLIC "-//W3C//DTD SVG 1.1//EN"
 "http://www.w3.org/Graphics/SVG/1.1/DTD/svg11.dtd">
<!-- Generated by graphviz version 2.44.0 (0)
 -->
<!-- Pages: 1 -->
<svg width="925pt" height="232pt"
 viewBox="0.00 0.00 925.00 232.00" xmlns="http://www.w3.org/2000/svg" xmlns:xlink="http://www.w3.org/1999/xlink">
<g id="graph0" class="graph" transform="scale(1 1) rotate(0) translate(4 228)">
<polygon fill="white" stroke="transparent" points="-4,4 -4,-228 921,-228 921,4 -4,4"/>
<!-- X1 -->
<g id="node1" class="node">
<title>X1</title>
<polygon fill="white" stroke="black" points="0,-57 0,-195 206,-195 206,-57 0,-57"/>
<text text-anchor="middle" x="103" y="-179.8" font-family="arial" font-size="14.00">X1</text>
<polyline fill="none" stroke="black" points="0,-172 206,-172 "/>
<text text-anchor="middle" x="50.5" y="-156.8" font-family="arial" font-size="14.00">Molex KK 254</text>
<polyline fill="none" stroke="black" points="101,-149 101,-172 "/>
<text text-anchor="middle" x="130" y="-156.8" font-family="arial" font-size="14.00">female</text>
<polyline fill="none" stroke="black" points="159,-149 159,-172 "/>
<text text-anchor="middle" x="182.5" y="-156.8" font-family="arial" font-size="14.00">4&#45;pin</text>
<polyline fill="none" stroke="black" points="0,-149 206,-149 "/>
<text text-anchor="middle" x="57" y="-133.8" font-family="arial" font-size="14.00">GND</text>
<polyline fill="none" stroke="black" points="0,-126 114,-126 "/>
<text text-anchor="middle" x="57" y="-110.8" font-family="arial" font-size="14.00">VCC</text>
<polyline fill="none" stroke="black" points="0,-103 114,-103 "/>
<text text-anchor="middle" x="57" y="-87.8" font-family="arial" font-size="14.00">RX</text>
<polyline fill="none" stroke="black" points="0,-80 114,-80 "/>
<text text-anchor="middle" x="57" y="-64.8" font-family="arial" font-size="14.00">TX</text>
<polyline fill="none" stroke="black" points="114,-57 114,-149 "/>
<text text-anchor="middle" x="160" y="-133.8" font-family="arial" font-size="14.00">1</text>
<polyline fill="none" stroke="black" points="114,-126 206,-126 "/>
<text text-anchor="middle" x="160" y="-110.8" font-family="arial" font-size="14.00">2</text>
<polyline fill="none" stroke="black" points="114,-103 206,-103 "/>
<text text-anchor="middle" x="160" y="-87.8" font-family="arial" font-size="14.00">3</text>
<polyline fill="none" stroke="black" points="114,-80 206,-80 "/>
<text text-anchor="middle" x="160" y="-64.8" font-family="arial" font-size="14.00">4</text>
</g>
<!-- W1 -->
<g id="node3" class="node">
<title>W1</title>
<polygon fill="none" stroke="black" points="567,-224 350,-224 350,0 567,0 567,-224"/>
<polygon fill="none" stroke="black" points="350.5,-201 350.5,-224 567.5,-224 567.5,-201 350.5,-201"/>
<text text-anchor="start" x="448" y="-208.8" font-family="arial" font-size="14.00">W1</text>
<polygon fill="none" stroke="black" points="350.5,-178 350.5,-201 373.5,-201 373.5,-178 350.5,-178"/>
<text text-anchor="start" x="354.5" y="-185.8" font-family="arial" font-size="14.00">4x</text>
<polygon fill="none" stroke="black" points="373.5,-178 373.5,-201 505.5,-201 505.5,-178 373.5,-178"/>
<text text-anchor="start" x="377.5" y="-185.8" font-family="arial" font-size="14.00">0.25 mm² (24 AWG)</text>
<polygon fill="none" stroke="black" points="505.5,-178 505.5,-201 535.5,-201 535.5,-178 505.5,-178"/>
<text text-anchor="start" x="509.5" y="-185.8" font-family="arial" font-size="14.00">+ S</text>
<polygon fill="none" stroke="black" points="535.5,-178 535.5,-201 567.5,-201 567.5,-178 535.5,-178"/>
<text text-anchor="start" x="539.5" y="-185.8" font-family="arial" font-size="14.00">1 m</text>
<text text-anchor="start" x="457" y="-166.8" font-family="arial" font-size="14.00"> </text>
<text text-anchor="start" x="371" y="-149.8" font-family="arial" font-size="14.00">X1:1</text>
<text text-anchor="start" x="447" y="-149.8" font-family="arial" font-size="14.00">WH</text>
<text text-anchor="start" x="519" y="-149.8" font-family="arial" font-size="14.00">X2:1</text>
<polygon fill="#ffffff" stroke="transparent" points="350.5,-138 350.5,-144 567.5,-144 567.5,-138 350.5,-138"/>
<polyline fill="none" stroke="black" stroke-width="2" points="351.5,-139 566.5,-139 "/>
<polyline fill="none" stroke="black" stroke-width="2" points="566.5,-143 351.5,-143 "/>
<text text-anchor="start" x="371" y="-124.8" font-family="arial" font-size="14.00">X1:2</text>
<text text-anchor="start" x="449.5" y="-124.8" font-family="arial" font-size="14.00">BN</text>
<text text-anchor="start" x="519" y="-124.8" font-family="arial" font-size="14.00">X2:2</text>
<polygon fill="#666600" stroke="transparent" stroke-width="2" points="350.5,-113 350.5,-119 567.5,-119 567.5,-113 350.5,-113"/>
<polyline fill="none" stroke="black" stroke-width="2" points="351.5,-114 566.5,-114 "/>
<polyline fill="none" stroke="black" stroke-width="2" points="566.5,-118 351.5,-118 "/>
<text text-anchor="start" x="371" y="-99.8" font-family="arial" font-size="14.00">X1:3</text>
<text text-anchor="start" x="448" y="-99.8" font-family="arial" font-size="14.00">GN</text>
<text text-anchor="start" x="519" y="-99.8" font-family="arial" font-size="14.00">X2:4</text>
<polygon fill="#00ff00" stroke="transparent" stroke-width="2" points="350.5,-88 350.5,-94 567.5,-94 567.5,-88 350.5,-88"/>
<polyline fill="none" stroke="black" stroke-width="2" points="351.5,-89 566.5,-89 "/>
<polyline fill="none" stroke="black" stroke-width="2" points="566.5,-93 351.5,-93 "/>
<text text-anchor="start" x="371" y="-74.8" font-family="arial" font-size="14.00">X1:4</text>
<text text-anchor="start" x="449.5" y="-74.8" font-family="arial" font-size="14.00">YE</text>
<text text-anchor="start" x="519" y="-74.8" font-family="arial" font-size="14.00">X2:3</text>
<polygon fill="#ffff00" stroke="transparent" stroke-width="2" points="350.5,-63 350.5,-69 567.5,-69 567.5,-63 350.5,-63"/>
<polyline fill="none" stroke="black" stroke-width="2" points="351.5,-64 566.5,-64 "/>
<polyline fill="none" stroke="black" stroke-width="2" points="566.5,-68 351.5,-68 "/>
<text text-anchor="start" x="383" y="-49.8" font-family="arial" font-size="14.00"> </text>
<text text-anchor="start" x="371" y="-30.8" font-family="arial" font-size="14.00">X1:1</text>
<text text-anchor="start" x="440" y="-30.8" font-family="arial" font-size="14.00">Shield</text>
<polyline fill="none" stroke="black" stroke-width="2" points="351.5,-20 566.5,-20 "/>
<text text-anchor="start" x="383" y="-5.8" font-family="arial" font-size="14.00"> </text>
</g>
<!-- X1&#45;&#45;W1 -->
<g id="edge1" class="edge">
<title>X1:e&#45;&#45;W1:w</title>
<path fill="none" stroke="#000000" stroke-width="2" d="M206,-136C270.38,-136.03 286.36,-139.03 350,-139"/>
<path fill="none" stroke="#ffffff" stroke-width="2" d="M206,-138C270.01,-138 285.99,-141 350,-141"/>
<path fill="none" stroke="#000000" stroke-width="2" d="M206,-140C269.64,-139.97 285.62,-142.97 350,-143"/>
</g>
<!-- X1&#45;&#45;W1 -->
<g id="edge3" class="edge">
<title>X1:e&#45;&#45;W1:w</title>
<path fill="none" stroke="#000000" stroke-width="2" d="M206,-112C270.25,-112.02 286.24,-114.02 350,-114"/>
<path fill="none" stroke="#666600" stroke-width="2" d="M206,-114C270.01,-114 285.99,-116 350,-116"/>
<path fill="none" stroke="#000000" stroke-width="2" d="M206,-116C269.76,-115.98 285.75,-117.98 350,-118"/>
</g>
<!-- X1&#45;&#45;W1 -->
<g id="edge5" class="edge">
<title>X1:e&#45;&#45;W1:w</title>
<path fill="none" stroke="#000000" stroke-width="2" d="M206,-89C270,-89 286,-89 350,-89"/>
<path fill="none" stroke="#00ff00" stroke-width="2" d="M206,-91C270,-91 286,-91 350,-91"/>
<path fill="none" stroke="#000000" stroke-width="2" d="M206,-93C270,-93 286,-93 350,-93"/>
</g>
<!-- X1&#45;&#45;W1 -->
<g id="edge7" class="edge">
<title>X1:e&#45;&#45;W1:w</title>
<path fill="none" stroke="#000000" stroke-width="2" d="M206,-66C269.76,-66.02 285.75,-64.02 350,-64"/>
<path fill="none" stroke="#ffff00" stroke-width="2" d="M206,-68C270.01,-68 285.99,-66 350,-66"/>
<path fill="none" stroke="#000000" stroke-width="2" d="M206,-70C270.25,-69.98 286.24,-67.98 350,-68"/>
</g>
<!-- X1&#45;&#45;W1 -->
<g id="edge9" class="edge">
<title>X1:e&#45;&#45;W1:w</title>
<path fill="none" stroke="#000000" stroke-width="2" d="M206,-138C288.18,-138 267.82,-22 350,-22"/>
</g>
<!-- X2 -->
<g id="node2" class="node">
<title>X2</title>
<polygon fill="white" stroke="black" points="711,-59 711,-197 917,-197 917,-59 711,-59"/>
<text text-anchor="middle" x="814" y="-181.8" font-family="arial" font-size="14.00">X2</text>
<polyline fill="none" stroke="black" points="711,-174 917,-174 "/>
<text text-anchor="middle" x="761.5" y="-158.8" font-family="arial" font-size="14.00">Molex KK 254</text>
<polyline fill="none" stroke="black" points="812,-151 812,-174 "/>
<text text-anchor="middle" x="841" y="-158.8" font-family="arial" font-size="14.00">female</text>
<polyline fill="none" stroke="black" points="870,-151 870,-174 "/>
<text text-anchor="middle" x="893.5" y="-158.8" font-family="arial" font-size="14.00">4&#45;pin</text>
<polyline fill="none" stroke="black" points="711,-151 917,-151 "/>
<text text-anchor="middle" x="756.5" y="-135.8" font-family="arial" font-size="14.00">1</text>
<polyline fill="none" stroke="black" points="711,-128 802,-128 "/>
<text text-anchor="middle" x="756.5" y="-112.8" font-family="arial" font-size="14.00">2</text>
<polyline fill="none" stroke="black" points="711,-105 802,-105 "/>
<text text-anchor="middle" x="756.5" y="-89.8" font-family="arial" font-size="14.00">3</text>
<polyline fill="none" stroke="black" points="711,-82 802,-82 "/>
<text text-anchor="middle" x="756.5" y="-66.8" font-family="arial" font-size="14.00">4</text>
<polyline fill="none" stroke="black" points="802,-59 802,-151 "/>
<text text-anchor="middle" x="859.5" y="-135.8" font-family="arial" font-size="14.00">GND</text>
<polyline fill="none" stroke="black" points="802,-128 917,-128 "/>
<text text-anchor="middle" x="859.5" y="-112.8" font-family="arial" font-size="14.00">VCC</text>
<polyline fill="none" stroke="black" points="802,-105 917,-105 "/>
<text text-anchor="middle" x="859.5" y="-89.8" font-family="arial" font-size="14.00">RX</text>
<polyline fill="none" stroke="black" points="802,-82 917,-82 "/>
<text text-anchor="middle" x="859.5" y="-66.8" font-family="arial" font-size="14.00">TX</text>
</g>
<!-- W1&#45;&#45;X2 -->
<g id="edge2" class="edge">
<title>W1:e&#45;&#45;X2:w</title>
<path fill="none" stroke="#000000" stroke-width="2" d="M567,-139C630.88,-139 646.87,-138 711,-138"/>
<path fill="none" stroke="#ffffff" stroke-width="2" d="M567,-141C631,-141 647,-140 711,-140"/>
<path fill="none" stroke="#000000" stroke-width="2" d="M567,-143C631.13,-143 647.12,-142 711,-142"/>
</g>
<!-- W1&#45;&#45;X2 -->
<g id="edge4" class="edge">
<title>W1:e&#45;&#45;X2:w</title>
<path fill="none" stroke="#000000" stroke-width="2" d="M567,-114C631,-114 647,-114 711,-114"/>
<path fill="none" stroke="#666600" stroke-width="2" d="M567,-116C631,-116 647,-116 711,-116"/>
<path fill="none" stroke="#000000" stroke-width="2" d="M567,-118C631,-118 647,-118 711,-118"/>
</g>
<!-- W1&#45;&#45;X2 -->
<g id="edge6" class="edge">
<title>W1:e&#45;&#45;X2:w</title>
<path fill="none" stroke="#000000" stroke-width="2" d="M567,-89C630.04,-89.86 644.68,-68.86 711,-68"/>
<path fill="none" stroke="#00ff00" stroke-width="2" d="M567,-91C631.68,-91 646.32,-70 711,-70"/>
<path fill="none" stroke="#000000" stroke-width="2" d="M567,-93C633.32,-92.14 647.96,-71.14 711,-72"/>
</g>
<!-- W1&#45;&#45;X2 -->
<g id="edge8" class="edge">
<title>W1:e&#45;&#45;X2:w</title>
<path fill="none" stroke="#000000" stroke-width="2" d="M567,-64C633.9,-65.09 647.67,-92.09 711,-91"/>
<path fill="none" stroke="#ffff00" stroke-width="2" d="M567,-66C632.12,-66 645.88,-93 711,-93"/>
<path fill="none" stroke="#000000" stroke-width="2" d="M567,-68C630.33,-66.91 644.1,-93.91 711,-95"/>
</g>
</g>
</svg>
