<?xml version="1.0" encoding="UTF-8" standalone="no"?>
<!DOCTYPE svg PUBLIC "-//W3C//DTD SVG 1.1//EN"
 "http://www.w3.org/Graphics/SVG/1.1/DTD/svg11.dtd">
<!-- Generated by graphviz version 7.1.0 (20230121.1956)
 -->
<!-- Pages: 1 -->
<svg width="784pt" height="192pt"
 viewBox="0.00 0.00 784.00 192.00" xmlns="http://www.w3.org/2000/svg" xmlns:xlink="http://www.w3.org/1999/xlink">
<g id="graph0" class="graph" transform="scale(1 1) rotate(0) translate(4 188)">
<polygon fill="#ffffff" stroke="none" points="-4,4 -4,-188 780,-188 780,4 -4,4"/>
<!-- __F_05_1 -->
<g id="node1" class="node">
<title>__F_05_1</title>
<polygon fill="#ffffff" stroke="black" points="186,-118.5 0,-118.5 0,-95.5 186,-95.5 186,-118.5"/>
<polygon fill="none" stroke="black" points="0,-95 0,-118 87,-118 87,-95 0,-95"/>
<text text-anchor="start" x="4" y="-102.8" font-family="arial" font-size="14.00">Crimp ferrule</text>
<polygon fill="none" stroke="black" points="87,-95 87,-118 147,-118 147,-95 87,-95"/>
<text text-anchor="start" x="91" y="-102.8" font-family="arial" font-size="14.00">0.5 mm²</text>
<polygon fill="none" stroke="black" points="147,-95 147,-118 178,-118 178,-95 147,-95"/>
<text text-anchor="start" x="151" y="-102.8" font-family="arial" font-size="14.00">OG</text>
<polygon fill="#ff8000" stroke="none" points="178,-95 178,-118 186,-118 186,-95 178,-95"/>
<polygon fill="none" stroke="black" points="178,-95 178,-118 186,-118 186,-95 178,-95"/>
</g>
<!-- W1 -->
<g id="node5" class="node">
<title>W1</title>
<polygon fill="#ffffff" stroke="black" stroke-dasharray="5,2" points="464,-184 330,-184 330,0 464,0 464,-184"/>
<polygon fill="none" stroke="black" points="330,-161 330,-184 464,-184 464,-161 330,-161"/>
<text text-anchor="start" x="386" y="-168.8" font-family="arial" font-size="14.00">W1</text>
<polygon fill="none" stroke="black" points="330,-138 330,-161 356,-161 356,-138 330,-138"/>
<text text-anchor="start" x="335.5" y="-145.8" font-family="arial" font-size="14.00">4x</text>
<polygon fill="none" stroke="black" points="356,-138 356,-161 419,-161 419,-138 356,-138"/>
<text text-anchor="start" x="361.5" y="-145.8" font-family="arial" font-size="14.00">0.5 mm²</text>
<polygon fill="none" stroke="black" points="419,-138 419,-161 464,-161 464,-138 419,-138"/>
<text text-anchor="start" x="424" y="-145.8" font-family="arial" font-size="14.00">0.3 m</text>
<text text-anchor="start" x="332" y="-124.8" font-family="arial" font-size="14.00"> </text>
<text text-anchor="start" x="341" y="-105.8" font-family="arial" font-size="14.00"> &#160;&#160;&#160;&#160;YE &#160;&#160;&#160;</text>
<text text-anchor="start" x="398" y="-105.8" font-family="arial" font-size="14.00">X1:1:+12V</text>
<polygon fill="#000000" stroke="none" points="330,-98 330,-100 464,-100 464,-98 330,-98"/>
<polygon fill="#ffff00" stroke="none" points="330,-96 330,-98 464,-98 464,-96 330,-96"/>
<polygon fill="#000000" stroke="none" points="330,-94 330,-96 464,-96 464,-94 330,-94"/>
<text text-anchor="start" x="341" y="-80.8" font-family="arial" font-size="14.00"> &#160;&#160;&#160;&#160;BK &#160;&#160;&#160;</text>
<text text-anchor="start" x="398.5" y="-80.8" font-family="arial" font-size="14.00">X1:2:GND</text>
<polygon fill="#000000" stroke="none" points="330,-73 330,-75 464,-75 464,-73 330,-73"/>
<polygon fill="#000000" stroke="none" points="330,-71 330,-73 464,-73 464,-71 330,-71"/>
<polygon fill="#000000" stroke="none" points="330,-69 330,-71 464,-71 464,-69 330,-69"/>
<text text-anchor="start" x="341" y="-55.8" font-family="arial" font-size="14.00"> &#160;&#160;&#160;&#160;BK &#160;&#160;&#160;</text>
<text text-anchor="start" x="398.5" y="-55.8" font-family="arial" font-size="14.00">X1:3:GND</text>
<polygon fill="#000000" stroke="none" points="330,-48 330,-50 464,-50 464,-48 330,-48"/>
<polygon fill="#000000" stroke="none" points="330,-46 330,-48 464,-48 464,-46 330,-46"/>
<polygon fill="#000000" stroke="none" points="330,-44 330,-46 464,-46 464,-44 330,-44"/>
<text text-anchor="start" x="340" y="-30.8" font-family="arial" font-size="14.00"> &#160;&#160;&#160;&#160;RD &#160;&#160;&#160;</text>
<text text-anchor="start" x="401.5" y="-30.8" font-family="arial" font-size="14.00">X1:4:+5V</text>
<polygon fill="#000000" stroke="none" points="330,-23 330,-25 464,-25 464,-23 330,-23"/>
<polygon fill="#ff0000" stroke="none" points="330,-21 330,-23 464,-23 464,-21 330,-21"/>
<polygon fill="#000000" stroke="none" points="330,-19 330,-21 464,-21 464,-19 330,-19"/>
<text text-anchor="start" x="332" y="-5.8" font-family="arial" font-size="14.00"> </text>
</g>
<!-- __F_05_1&#45;&#45;W1 -->
<g id="edge1" class="edge">
<title>__F_05_1:e&#45;&#45;W1:w</title>
<path fill="none" stroke="#000000" stroke-width="2" d="M186,-105C249.08,-105.31 264.77,-95.31 330,-95"/>
<path fill="none" stroke="#ffff00" stroke-width="2" d="M186,-107C250.15,-107 265.85,-97 330,-97"/>
<path fill="none" stroke="#000000" stroke-width="2" d="M186,-109C251.23,-108.69 266.92,-98.69 330,-99"/>
</g>
<!-- F1 -->
<g id="node2" class="node">
<title>F1</title>
<polygon fill="#ffffff" stroke="black" points="184,-71.5 2,-71.5 2,-48.5 184,-48.5 184,-71.5"/>
<polygon fill="none" stroke="black" points="2,-48 2,-71 89,-71 89,-48 2,-48"/>
<text text-anchor="start" x="6" y="-55.8" font-family="arial" font-size="14.00">Crimp ferrule</text>
<polygon fill="none" stroke="black" points="89,-48 89,-71 149,-71 149,-48 89,-48"/>
<text text-anchor="start" x="93" y="-55.8" font-family="arial" font-size="14.00">1.0 mm²</text>
<polygon fill="none" stroke="black" points="149,-48 149,-71 176,-71 176,-48 149,-48"/>
<text text-anchor="start" x="153" y="-55.8" font-family="arial" font-size="14.00">YE</text>
<polygon fill="#ffff00" stroke="none" points="176,-48 176,-71 184,-71 184,-48 176,-48"/>
<polygon fill="none" stroke="black" points="176,-48 176,-71 184,-71 184,-48 176,-48"/>
</g>
<!-- F1&#45;&#45;W1 -->
<g id="edge3" class="edge">
<title>F1:e&#45;&#45;W1:w</title>
<path fill="none" stroke="#000000" stroke-width="2" d="M185,-58C250.88,-58.41 266.55,-70.41 330,-70"/>
<path fill="none" stroke="#000000" stroke-width="2" d="M185,-60C249.66,-60 265.34,-72 330,-72"/>
<path fill="none" stroke="#000000" stroke-width="2" d="M185,-62C248.45,-61.59 264.12,-73.59 330,-74"/>
</g>
<!-- F1&#45;&#45;W1 -->
<g id="edge5" class="edge">
<title>F1:e&#45;&#45;W1:w</title>
<path fill="none" stroke="#000000" stroke-width="2" d="M185,-58C248.42,-58.46 264.02,-45.46 330,-45"/>
<path fill="none" stroke="#000000" stroke-width="2" d="M185,-60C249.7,-60 265.3,-47 330,-47"/>
<path fill="none" stroke="#000000" stroke-width="2" d="M185,-62C250.98,-61.54 266.58,-48.54 330,-49"/>
</g>
<!-- __F_05_2 -->
<g id="node3" class="node">
<title>__F_05_2</title>
<polygon fill="#ffffff" stroke="black" points="186,-24.5 0,-24.5 0,-1.5 186,-1.5 186,-24.5"/>
<polygon fill="none" stroke="black" points="0,-1 0,-24 87,-24 87,-1 0,-1"/>
<text text-anchor="start" x="4" y="-8.8" font-family="arial" font-size="14.00">Crimp ferrule</text>
<polygon fill="none" stroke="black" points="87,-1 87,-24 147,-24 147,-1 87,-1"/>
<text text-anchor="start" x="91" y="-8.8" font-family="arial" font-size="14.00">0.5 mm²</text>
<polygon fill="none" stroke="black" points="147,-1 147,-24 178,-24 178,-1 147,-1"/>
<text text-anchor="start" x="151" y="-8.8" font-family="arial" font-size="14.00">OG</text>
<polygon fill="#ff8000" stroke="none" points="178,-1 178,-24 186,-24 186,-1 178,-1"/>
<polygon fill="none" stroke="black" points="178,-1 178,-24 186,-24 186,-1 178,-1"/>
</g>
<!-- __F_05_2&#45;&#45;W1 -->
<g id="edge7" class="edge">
<title>__F_05_2:e&#45;&#45;W1:w</title>
<path fill="none" stroke="#000000" stroke-width="2" d="M186,-11C251.12,-11.26 266.87,-20.26 330,-20"/>
<path fill="none" stroke="#ff0000" stroke-width="2" d="M186,-13C250.12,-13 265.88,-22 330,-22"/>
<path fill="none" stroke="#000000" stroke-width="2" d="M186,-15C249.13,-14.74 264.88,-23.74 330,-24"/>
</g>
<!-- X1 -->
<g id="node4" class="node">
<title>X1</title>
<polygon fill="#ffffff" stroke="black" points="776,-152 608,-152 608,-14 776,-14 776,-152"/>
<polygon fill="none" stroke="black" points="608,-129 608,-152 776,-152 776,-129 608,-129"/>
<text text-anchor="start" x="683.5" y="-136.8" font-family="arial" font-size="14.00">X1</text>
<polygon fill="none" stroke="black" points="608,-106 608,-129 687,-129 687,-106 608,-106"/>
<text text-anchor="start" x="612" y="-113.8" font-family="arial" font-size="14.00">Molex 8981</text>
<polygon fill="none" stroke="black" points="687,-106 687,-129 737,-129 737,-106 687,-106"/>
<text text-anchor="start" x="691" y="-113.8" font-family="arial" font-size="14.00">female</text>
<polygon fill="none" stroke="black" points="737,-106 737,-129 776,-129 776,-106 737,-106"/>
<text text-anchor="start" x="741" y="-113.8" font-family="arial" font-size="14.00">4&#45;pin</text>
<polygon fill="none" stroke="black" points="608,-83 608,-106 680,-106 680,-83 608,-83"/>
<text text-anchor="start" x="640" y="-90.8" font-family="arial" font-size="14.00">1</text>
<polygon fill="none" stroke="black" points="680,-83 680,-106 776,-106 776,-83 680,-83"/>
<text text-anchor="start" x="711.5" y="-90.8" font-family="arial" font-size="14.00">+12V</text>
<polygon fill="none" stroke="black" points="608,-60 608,-83 680,-83 680,-60 608,-60"/>
<text text-anchor="start" x="640" y="-67.8" font-family="arial" font-size="14.00">2</text>
<polygon fill="none" stroke="black" points="680,-60 680,-83 776,-83 776,-60 680,-60"/>
<text text-anchor="start" x="712.5" y="-67.8" font-family="arial" font-size="14.00">GND</text>
<polygon fill="none" stroke="black" points="608,-37 608,-60 680,-60 680,-37 608,-37"/>
<text text-anchor="start" x="640" y="-44.8" font-family="arial" font-size="14.00">3</text>
<polygon fill="none" stroke="black" points="680,-37 680,-60 776,-60 776,-37 680,-37"/>
<text text-anchor="start" x="712.5" y="-44.8" font-family="arial" font-size="14.00">GND</text>
<polygon fill="none" stroke="black" points="608,-14 608,-37 680,-37 680,-14 608,-14"/>
<text text-anchor="start" x="640" y="-21.8" font-family="arial" font-size="14.00">4</text>
<polygon fill="none" stroke="black" points="680,-14 680,-37 776,-37 776,-14 680,-14"/>
<text text-anchor="start" x="715.5" y="-21.8" font-family="arial" font-size="14.00">+5V</text>
</g>
<!-- W1&#45;&#45;X1 -->
<g id="edge2" class="edge">
<title>W1:e&#45;&#45;X1:w</title>
<path fill="none" stroke="#000000" stroke-width="2" d="M464,-95C527.76,-95.02 543.75,-93.02 608,-93"/>
<path fill="none" stroke="#ffff00" stroke-width="2" d="M464,-97C528.01,-97 543.99,-95 608,-95"/>
<path fill="none" stroke="#000000" stroke-width="2" d="M464,-99C528.25,-98.98 544.24,-96.98 608,-97"/>
</g>
<!-- W1&#45;&#45;X1 -->
<g id="edge4" class="edge">
<title>W1:e&#45;&#45;X1:w</title>
<path fill="none" stroke="#000000" stroke-width="2" d="M464,-70C527.88,-70 543.87,-69 608,-69"/>
<path fill="none" stroke="#000000" stroke-width="2" d="M464,-72C528,-72 544,-71 608,-71"/>
<path fill="none" stroke="#000000" stroke-width="2" d="M464,-74C528.13,-74 544.12,-73 608,-73"/>
</g>
<!-- W1&#45;&#45;X1 -->
<g id="edge6" class="edge">
<title>W1:e&#45;&#45;X1:w</title>
<path fill="none" stroke="#000000" stroke-width="2" d="M464,-45C528.13,-45 544.12,-46 608,-46"/>
<path fill="none" stroke="#000000" stroke-width="2" d="M464,-47C528,-47 544,-48 608,-48"/>
<path fill="none" stroke="#000000" stroke-width="2" d="M464,-49C527.88,-49 543.87,-50 608,-50"/>
</g>
<!-- W1&#45;&#45;X1 -->
<g id="edge8" class="edge">
<title>W1:e&#45;&#45;X1:w</title>
<path fill="none" stroke="#000000" stroke-width="2" d="M464,-20C528.38,-20.03 544.36,-23.03 608,-23"/>
<path fill="none" stroke="#ff0000" stroke-width="2" d="M464,-22C528.01,-22 543.99,-25 608,-25"/>
<path fill="none" stroke="#000000" stroke-width="2" d="M464,-24C527.64,-23.97 543.62,-26.97 608,-27"/>
</g>
</g>
</svg>
