<?xml version="1.0" encoding="UTF-8" standalone="no"?>
<!DOCTYPE svg PUBLIC "-//W3C//DTD SVG 1.1//EN"
 "http://www.w3.org/Graphics/SVG/1.1/DTD/svg11.dtd">
<!-- Generated by graphviz version 2.44.0 (20200408.0750)
 -->
<!-- Pages: 1 -->
<svg width="776pt" height="236pt"
 viewBox="0.00 0.00 776.00 236.00" xmlns="http://www.w3.org/2000/svg" xmlns:xlink="http://www.w3.org/1999/xlink">
<g id="graph0" class="graph" transform="scale(1 1) rotate(0) translate(4 232)">
<polygon fill="white" stroke="transparent" points="-4,4 -4,-232 772,-232 772,4 -4,4"/>
<!-- X1 -->
<g id="node1" class="node">
<title>X1</title>
<polygon fill="white" stroke="transparent" points="768,-200 600,-200 600,-62 768,-62 768,-200"/>
<polygon fill="none" stroke="black" points="600,-177 600,-200 768,-200 768,-177 600,-177"/>
<text text-anchor="start" x="675.5" y="-184.8" font-family="arial" font-size="14.00">X1</text>
<polygon fill="none" stroke="black" points="600,-154 600,-177 679,-177 679,-154 600,-154"/>
<text text-anchor="start" x="604" y="-161.8" font-family="arial" font-size="14.00">Molex 8981</text>
<polygon fill="none" stroke="black" points="679,-154 679,-177 729,-177 729,-154 679,-154"/>
<text text-anchor="start" x="683" y="-161.8" font-family="arial" font-size="14.00">female</text>
<polygon fill="none" stroke="black" points="729,-154 729,-177 768,-177 768,-154 729,-154"/>
<text text-anchor="start" x="733" y="-161.8" font-family="arial" font-size="14.00">4&#45;pin</text>
<polygon fill="none" stroke="black" points="600,-131 600,-154 672,-154 672,-131 600,-131"/>
<text text-anchor="start" x="632" y="-138.8" font-family="arial" font-size="14.00">1</text>
<polygon fill="none" stroke="black" points="672,-131 672,-154 768,-154 768,-131 672,-131"/>
<text text-anchor="start" x="703.5" y="-138.8" font-family="arial" font-size="14.00">+12V</text>
<polygon fill="none" stroke="black" points="600,-108 600,-131 672,-131 672,-108 600,-108"/>
<text text-anchor="start" x="632" y="-115.8" font-family="arial" font-size="14.00">2</text>
<polygon fill="none" stroke="black" points="672,-108 672,-131 768,-131 768,-108 672,-108"/>
<text text-anchor="start" x="704.5" y="-115.8" font-family="arial" font-size="14.00">GND</text>
<polygon fill="none" stroke="black" points="600,-85 600,-108 672,-108 672,-85 600,-85"/>
<text text-anchor="start" x="632" y="-92.8" font-family="arial" font-size="14.00">3</text>
<polygon fill="none" stroke="black" points="672,-85 672,-108 768,-108 768,-85 672,-85"/>
<text text-anchor="start" x="704.5" y="-92.8" font-family="arial" font-size="14.00">GND</text>
<polygon fill="none" stroke="black" points="600,-62 600,-85 672,-85 672,-62 600,-62"/>
<text text-anchor="start" x="632" y="-69.8" font-family="arial" font-size="14.00">4</text>
<polygon fill="none" stroke="black" points="672,-62 672,-85 768,-85 768,-62 672,-62"/>
<text text-anchor="start" x="707.5" y="-69.8" font-family="arial" font-size="14.00">+5V</text>
</g>
<!-- _F1_1 -->
<g id="node2" class="node">
<title>_F1_1</title>
<polygon fill="white" stroke="transparent" points="186,-216 0,-216 0,-180 186,-180 186,-216"/>
<polygon fill="none" stroke="black" points="0,-186 0,-209 87,-209 87,-186 0,-186"/>
<text text-anchor="start" x="4" y="-193.8" font-family="arial" font-size="14.00">Crimp ferrule</text>
<polygon fill="none" stroke="black" points="87,-186 87,-209 147,-209 147,-186 87,-186"/>
<text text-anchor="start" x="91" y="-193.8" font-family="arial" font-size="14.00">0.5 mm²</text>
<polygon fill="none" stroke="black" points="147,-186 147,-209 178,-209 178,-186 147,-186"/>
<text text-anchor="start" x="151" y="-193.8" font-family="arial" font-size="14.00">OG</text>
<polygon fill="#ff8000" stroke="transparent" points="178,-186 178,-209 186,-209 186,-186 178,-186"/>
<polygon fill="none" stroke="black" points="178,-186 178,-209 186,-209 186,-186 178,-186"/>
</g>
<!-- W1 -->
<g id="node6" class="node">
<title>W1</title>
<polygon fill="white" stroke="black" stroke-dasharray="5,2" points="456,-228 330,-228 330,-48 456,-48 456,-228"/>
<polygon fill="none" stroke="black" points="330,-205 330,-228 456,-228 456,-205 330,-205"/>
<text text-anchor="start" x="382" y="-212.8" font-family="arial" font-size="14.00">W1</text>
<polygon fill="none" stroke="black" points="330,-182 330,-205 353,-205 353,-182 330,-182"/>
<text text-anchor="start" x="334" y="-189.8" font-family="arial" font-size="14.00">4x</text>
<polygon fill="none" stroke="black" points="353,-182 353,-205 413,-205 413,-182 353,-182"/>
<text text-anchor="start" x="357" y="-189.8" font-family="arial" font-size="14.00">0.5 mm²</text>
<polygon fill="none" stroke="black" points="413,-182 413,-205 456,-205 456,-182 413,-182"/>
<text text-anchor="start" x="417" y="-189.8" font-family="arial" font-size="14.00">0.3 m</text>
<text text-anchor="start" x="391" y="-170.8" font-family="arial" font-size="14.00"> </text>
<text text-anchor="start" x="372" y="-153.8" font-family="arial" font-size="14.00">YE</text>
<text text-anchor="start" x="416" y="-153.8" font-family="arial" font-size="14.00">X1:1</text>
<polygon fill="#000000" stroke="transparent" points="330,-146 330,-148 456,-148 456,-146 330,-146"/>
<polygon fill="#ffff00" stroke="transparent" points="330,-144 330,-146 456,-146 456,-144 330,-144"/>
<polygon fill="#000000" stroke="transparent" points="330,-142 330,-144 456,-144 456,-142 330,-142"/>
<text text-anchor="start" x="372" y="-128.8" font-family="arial" font-size="14.00">BK</text>
<text text-anchor="start" x="416" y="-128.8" font-family="arial" font-size="14.00">X1:2</text>
<polygon fill="#000000" stroke="transparent" points="330,-121 330,-123 456,-123 456,-121 330,-121"/>
<polygon fill="#000000" stroke="transparent" points="330,-119 330,-121 456,-121 456,-119 330,-119"/>
<polygon fill="#000000" stroke="transparent" points="330,-117 330,-119 456,-119 456,-117 330,-117"/>
<text text-anchor="start" x="372" y="-103.8" font-family="arial" font-size="14.00">BK</text>
<text text-anchor="start" x="416" y="-103.8" font-family="arial" font-size="14.00">X1:3</text>
<polygon fill="#000000" stroke="transparent" points="330,-96 330,-98 456,-98 456,-96 330,-96"/>
<polygon fill="#000000" stroke="transparent" points="330,-94 330,-96 456,-96 456,-94 330,-94"/>
<polygon fill="#000000" stroke="transparent" points="330,-92 330,-94 456,-94 456,-92 330,-92"/>
<text text-anchor="start" x="371.5" y="-78.8" font-family="arial" font-size="14.00">RD</text>
<text text-anchor="start" x="416" y="-78.8" font-family="arial" font-size="14.00">X1:4</text>
<polygon fill="#000000" stroke="transparent" points="330,-71 330,-73 456,-73 456,-71 330,-71"/>
<polygon fill="#ff0000" stroke="transparent" points="330,-69 330,-71 456,-71 456,-69 330,-69"/>
<polygon fill="#000000" stroke="transparent" points="330,-67 330,-69 456,-69 456,-67 330,-67"/>
<text text-anchor="start" x="342.5" y="-53.8" font-family="arial" font-size="14.00"> </text>
</g>
<!-- _F1_1&#45;&#45;W1 -->
<g id="edge1" class="edge">
<title>_F1_1:e&#45;&#45;W1:w</title>
<path fill="none" stroke="#000000" stroke-width="2" d="M186,-196C252.22,-197.72 259.82,-144.72 330,-143"/>
<path fill="none" stroke="#ffff00" stroke-width="2" d="M186,-198C254.2,-198 261.8,-145 330,-145"/>
<path fill="none" stroke="#000000" stroke-width="2" d="M186,-200C256.18,-198.28 263.78,-145.28 330,-147"/>
</g>
<!-- _F1_2 -->
<g id="node3" class="node">
<title>_F1_2</title>
<polygon fill="white" stroke="transparent" points="186,-156 0,-156 0,-120 186,-120 186,-156"/>
<polygon fill="none" stroke="black" points="0,-126 0,-149 87,-149 87,-126 0,-126"/>
<text text-anchor="start" x="4" y="-133.8" font-family="arial" font-size="14.00">Crimp ferrule</text>
<polygon fill="none" stroke="black" points="87,-126 87,-149 147,-149 147,-126 87,-126"/>
<text text-anchor="start" x="91" y="-133.8" font-family="arial" font-size="14.00">0.5 mm²</text>
<polygon fill="none" stroke="black" points="147,-126 147,-149 178,-149 178,-126 147,-126"/>
<text text-anchor="start" x="151" y="-133.8" font-family="arial" font-size="14.00">OG</text>
<polygon fill="#ff8000" stroke="transparent" points="178,-126 178,-149 186,-149 186,-126 178,-126"/>
<polygon fill="none" stroke="black" points="178,-126 178,-149 186,-149 186,-126 178,-126"/>
</g>
<!-- _F1_2&#45;&#45;W1 -->
<g id="edge3" class="edge">
<title>_F1_2:e&#45;&#45;W1:w</title>
<path fill="none" stroke="#000000" stroke-width="2" d="M186,-136C248.96,-136.72 263.97,-118.72 330,-118"/>
<path fill="none" stroke="#000000" stroke-width="2" d="M186,-138C250.5,-138 265.5,-120 330,-120"/>
<path fill="none" stroke="#000000" stroke-width="2" d="M186,-140C252.03,-139.28 267.04,-121.28 330,-122"/>
</g>
<!-- _F1_3 -->
<g id="node4" class="node">
<title>_F1_3</title>
<polygon fill="white" stroke="transparent" points="186,-96 0,-96 0,-60 186,-60 186,-96"/>
<polygon fill="none" stroke="black" points="0,-66 0,-89 87,-89 87,-66 0,-66"/>
<text text-anchor="start" x="4" y="-73.8" font-family="arial" font-size="14.00">Crimp ferrule</text>
<polygon fill="none" stroke="black" points="87,-66 87,-89 147,-89 147,-66 87,-66"/>
<text text-anchor="start" x="91" y="-73.8" font-family="arial" font-size="14.00">0.5 mm²</text>
<polygon fill="none" stroke="black" points="147,-66 147,-89 178,-89 178,-66 147,-66"/>
<text text-anchor="start" x="151" y="-73.8" font-family="arial" font-size="14.00">OG</text>
<polygon fill="#ff8000" stroke="transparent" points="178,-66 178,-89 186,-89 186,-66 178,-66"/>
<polygon fill="none" stroke="black" points="178,-66 178,-89 186,-89 186,-66 178,-66"/>
</g>
<!-- _F1_3&#45;&#45;W1 -->
<g id="edge5" class="edge">
<title>_F1_3:e&#45;&#45;W1:w</title>
<path fill="none" stroke="#000000" stroke-width="2" d="M186,-76C251.94,-76.67 267.05,-93.67 330,-93"/>
<path fill="none" stroke="#000000" stroke-width="2" d="M186,-78C250.44,-78 265.56,-95 330,-95"/>
<path fill="none" stroke="#000000" stroke-width="2" d="M186,-80C248.95,-79.33 264.06,-96.33 330,-97"/>
</g>
<!-- _F1_4 -->
<g id="node5" class="node">
<title>_F1_4</title>
<polygon fill="white" stroke="transparent" points="186,-36 0,-36 0,0 186,0 186,-36"/>
<polygon fill="none" stroke="black" points="0,-6 0,-29 87,-29 87,-6 0,-6"/>
<text text-anchor="start" x="4" y="-13.8" font-family="arial" font-size="14.00">Crimp ferrule</text>
<polygon fill="none" stroke="black" points="87,-6 87,-29 147,-29 147,-6 87,-6"/>
<text text-anchor="start" x="91" y="-13.8" font-family="arial" font-size="14.00">0.5 mm²</text>
<polygon fill="none" stroke="black" points="147,-6 147,-29 178,-29 178,-6 147,-6"/>
<text text-anchor="start" x="151" y="-13.8" font-family="arial" font-size="14.00">OG</text>
<polygon fill="#ff8000" stroke="transparent" points="178,-6 178,-29 186,-29 186,-6 178,-6"/>
<polygon fill="none" stroke="black" points="178,-6 178,-29 186,-29 186,-6 178,-6"/>
</g>
<!-- _F1_4&#45;&#45;W1 -->
<g id="edge7" class="edge">
<title>_F1_4:e&#45;&#45;W1:w</title>
<path fill="none" stroke="#000000" stroke-width="2" d="M186,-16C256.02,-17.7 263.93,-69.7 330,-68"/>
<path fill="none" stroke="#ff0000" stroke-width="2" d="M186,-18C254.05,-18 261.95,-70 330,-70"/>
<path fill="none" stroke="#000000" stroke-width="2" d="M186,-20C252.07,-18.3 259.98,-70.3 330,-72"/>
</g>
<!-- W1&#45;&#45;X1 -->
<g id="edge2" class="edge">
<title>W1:e&#45;&#45;X1:w</title>
<path fill="none" stroke="#000000" stroke-width="2" d="M456,-143C519.76,-143.02 535.75,-141.02 600,-141"/>
<path fill="none" stroke="#ffff00" stroke-width="2" d="M456,-145C520.01,-145 535.99,-143 600,-143"/>
<path fill="none" stroke="#000000" stroke-width="2" d="M456,-147C520.25,-146.98 536.24,-144.98 600,-145"/>
</g>
<!-- W1&#45;&#45;X1 -->
<g id="edge4" class="edge">
<title>W1:e&#45;&#45;X1:w</title>
<path fill="none" stroke="#000000" stroke-width="2" d="M456,-118C519.88,-118 535.87,-117 600,-117"/>
<path fill="none" stroke="#000000" stroke-width="2" d="M456,-120C520,-120 536,-119 600,-119"/>
<path fill="none" stroke="#000000" stroke-width="2" d="M456,-122C520.13,-122 536.12,-121 600,-121"/>
</g>
<!-- W1&#45;&#45;X1 -->
<g id="edge6" class="edge">
<title>W1:e&#45;&#45;X1:w</title>
<path fill="none" stroke="#000000" stroke-width="2" d="M456,-93C520.13,-93 536.12,-94 600,-94"/>
<path fill="none" stroke="#000000" stroke-width="2" d="M456,-95C520,-95 536,-96 600,-96"/>
<path fill="none" stroke="#000000" stroke-width="2" d="M456,-97C519.88,-97 535.87,-98 600,-98"/>
</g>
<!-- W1&#45;&#45;X1 -->
<g id="edge8" class="edge">
<title>W1:e&#45;&#45;X1:w</title>
<path fill="none" stroke="#000000" stroke-width="2" d="M456,-68C520.38,-68.03 536.36,-71.03 600,-71"/>
<path fill="none" stroke="#ff0000" stroke-width="2" d="M456,-70C520.01,-70 535.99,-73 600,-73"/>
<path fill="none" stroke="#000000" stroke-width="2" d="M456,-72C519.64,-71.97 535.62,-74.97 600,-75"/>
</g>
</g>
</svg>
