<?xml version="1.0" encoding="UTF-8" standalone="no"?>
<!DOCTYPE svg PUBLIC "-//W3C//DTD SVG 1.1//EN"
 "http://www.w3.org/Graphics/SVG/1.1/DTD/svg11.dtd">
<!-- Generated by graphviz version 11.0.0 (20240428.1522)
 -->
<!-- Pages: 1 -->
<svg width="1556pt" height="226pt"
 viewBox="0.00 0.00 1556.03 225.50" xmlns="http://www.w3.org/2000/svg" xmlns:xlink="http://www.w3.org/1999/xlink">
<g id="graph0" class="graph" transform="scale(1 1) rotate(0) translate(4 221.5)">
<polygon fill="#ffffff" stroke="none" points="-4,4 -4,-221.5 1552.03,-221.5 1552.03,4 -4,4"/>
<!-- X1 -->
<g id="node1" class="node">
<title>X1</title>
<polygon fill="#ffffff" stroke="black" points="175.5,-183.5 0,-183.5 0,-14 175.5,-14 175.5,-183.5"/>
<polygon fill="none" stroke="black" points="0,-159 0,-183.5 175.5,-183.5 175.5,-159 0,-159"/>
<text text-anchor="start" x="78.75" y="-166.2" font-family="arial" font-size="14.00">X1</text>
<polygon fill="none" stroke="black" points="0,-134.5 0,-159 97.25,-159 97.25,-134.5 0,-134.5"/>
<text text-anchor="start" x="4" y="-141.7" font-family="arial" font-size="14.00">Molex KK 254</text>
<polygon fill="none" stroke="black" points="97.25,-134.5 97.25,-159 136,-159 136,-134.5 97.25,-134.5"/>
<text text-anchor="start" x="101.25" y="-141.7" font-family="arial" font-size="14.00">male</text>
<polygon fill="none" stroke="black" points="136,-134.5 136,-159 175.5,-159 175.5,-134.5 136,-134.5"/>
<text text-anchor="start" x="140" y="-141.7" font-family="arial" font-size="14.00">4&#45;pin</text>
<polygon fill="none" stroke="black" points="0,-110.5 0,-134.5 99.25,-134.5 99.25,-110.5 0,-110.5"/>
<text text-anchor="start" x="33.88" y="-117.2" font-family="arial" font-size="14.00">GND</text>
<polygon fill="none" stroke="black" points="99.25,-110.5 99.25,-134.5 175.5,-134.5 175.5,-110.5 99.25,-110.5"/>
<text text-anchor="start" x="133.25" y="-117.2" font-family="arial" font-size="14.00">1</text>
<polygon fill="none" stroke="black" points="0,-86.5 0,-110.5 99.25,-110.5 99.25,-86.5 0,-86.5"/>
<text text-anchor="start" x="34.25" y="-93.2" font-family="arial" font-size="14.00">VCC</text>
<polygon fill="none" stroke="black" points="99.25,-86.5 99.25,-110.5 175.5,-110.5 175.5,-86.5 99.25,-86.5"/>
<text text-anchor="start" x="133.25" y="-93.2" font-family="arial" font-size="14.00">2</text>
<polygon fill="none" stroke="black" points="0,-62.5 0,-86.5 99.25,-86.5 99.25,-62.5 0,-62.5"/>
<text text-anchor="start" x="35.38" y="-69.2" font-family="arial" font-size="14.00">SCL</text>
<polygon fill="none" stroke="black" points="99.25,-62.5 99.25,-86.5 175.5,-86.5 175.5,-62.5 99.25,-62.5"/>
<text text-anchor="start" x="133.25" y="-69.2" font-family="arial" font-size="14.00">3</text>
<polygon fill="none" stroke="black" points="0,-38.5 0,-62.5 99.25,-62.5 99.25,-38.5 0,-38.5"/>
<text text-anchor="start" x="34.62" y="-45.2" font-family="arial" font-size="14.00">SDA</text>
<polygon fill="none" stroke="black" points="99.25,-38.5 99.25,-62.5 175.5,-62.5 175.5,-38.5 99.25,-38.5"/>
<text text-anchor="start" x="133.25" y="-45.2" font-family="arial" font-size="14.00">4</text>
<polygon fill="none" stroke="black" points="0,-14 0,-38.5 175.5,-38.5 175.5,-14 0,-14"/>
<text text-anchor="start" x="33" y="-21.2" font-family="arial" font-size="14.00">to microcontroller</text>
</g>
<!-- W1 -->
<g id="node2" class="node">
<title>W1</title>
<polygon fill="#ffffff" stroke="black" points="529.5,-217.5 319.5,-217.5 319.5,0 529.5,0 529.5,-217.5"/>
<polygon fill="none" stroke="black" points="319.5,-193 319.5,-217.5 529.5,-217.5 529.5,-193 319.5,-193"/>
<text text-anchor="start" x="413.25" y="-200.2" font-family="arial" font-size="14.00">W1</text>
<polygon fill="none" stroke="black" points="319.5,-168.5 319.5,-193 369,-193 369,-168.5 319.5,-168.5"/>
<text text-anchor="start" x="336.75" y="-175.7" font-family="arial" font-size="14.00">4x</text>
<polygon fill="none" stroke="black" points="369,-168.5 369,-193 459,-193 459,-168.5 369,-168.5"/>
<text text-anchor="start" x="386.25" y="-175.7" font-family="arial" font-size="14.00">24 AWG</text>
<polygon fill="none" stroke="black" points="459,-168.5 459,-193 529.5,-193 529.5,-168.5 459,-168.5"/>
<text text-anchor="start" x="476.25" y="-175.7" font-family="arial" font-size="14.00">0.3 m</text>
<text text-anchor="start" x="352.12" y="-153.2" font-family="arial" font-size="14.00"> </text>
<text text-anchor="start" x="321.38" y="-133.2" font-family="arial" font-size="14.00">X1:1:GND</text>
<text text-anchor="start" x="391.88" y="-133.2" font-family="arial" font-size="14.00"> &#160;&#160;&#160;&#160;1:BN &#160;&#160;&#160;</text>
<text text-anchor="start" x="462.38" y="-133.2" font-family="arial" font-size="14.00">X2:1:GND</text>
<text text-anchor="start" x="321.75" y="-107.2" font-family="arial" font-size="14.00">X1:2:VCC</text>
<text text-anchor="start" x="391.12" y="-107.2" font-family="arial" font-size="14.00"> &#160;&#160;&#160;&#160;2:RD &#160;&#160;&#160;</text>
<text text-anchor="start" x="462.75" y="-107.2" font-family="arial" font-size="14.00">X2:2:VCC</text>
<text text-anchor="start" x="322.88" y="-81.2" font-family="arial" font-size="14.00">X1:3:SCL</text>
<text text-anchor="start" x="390.38" y="-81.2" font-family="arial" font-size="14.00"> &#160;&#160;&#160;&#160;3:OG &#160;&#160;&#160;</text>
<text text-anchor="start" x="463.88" y="-81.2" font-family="arial" font-size="14.00">X2:3:SCL</text>
<text text-anchor="start" x="322.12" y="-55.2" font-family="arial" font-size="14.00">X1:4:SDA</text>
<text text-anchor="start" x="392.25" y="-55.2" font-family="arial" font-size="14.00"> &#160;&#160;&#160;&#160;4:YE &#160;&#160;&#160;</text>
<text text-anchor="start" x="463.12" y="-55.2" font-family="arial" font-size="14.00">X2:4:SDA</text>
<text text-anchor="start" x="352.12" y="-29.2" font-family="arial" font-size="14.00"> </text>
<polygon fill="none" stroke="black" points="319.5,0 319.5,-24.5 529.5,-24.5 529.5,0 319.5,0"/>
<text text-anchor="start" x="348" y="-7.2" font-family="arial" font-size="14.00">This cable is a bit longer</text>
</g>
<!-- X1&#45;&#45;W1 -->
<g id="edge1" class="edge">
<title>X1:e&#45;&#45;W1:w</title>
<path fill="none" stroke="#000000" stroke-width="2" d="M175.5,-120.5C239.88,-120.53 255.86,-123.53 319.5,-123.5"/>
<path fill="none" stroke="#895956" stroke-width="2" d="M175.5,-122.5C239.51,-122.5 255.49,-125.5 319.5,-125.5"/>
<path fill="none" stroke="#000000" stroke-width="2" d="M175.5,-124.5C239.14,-124.47 255.12,-127.47 319.5,-127.5"/>
</g>
<!-- X1&#45;&#45;W1 -->
<g id="edge2" class="edge">
<title>X1:e&#45;&#45;W1:w</title>
<path fill="none" stroke="#000000" stroke-width="2" d="M175.5,-96.5C239.62,-96.5 255.62,-97.5 319.5,-97.5"/>
<path fill="none" stroke="#ff0000" stroke-width="2" d="M175.5,-98.5C239.5,-98.5 255.5,-99.5 319.5,-99.5"/>
<path fill="none" stroke="#000000" stroke-width="2" d="M175.5,-100.5C239.38,-100.5 255.38,-101.5 319.5,-101.5"/>
</g>
<!-- X1&#45;&#45;W1 -->
<g id="edge3" class="edge">
<title>X1:e&#45;&#45;W1:w</title>
<path fill="none" stroke="#000000" stroke-width="2" d="M175.5,-72.5C239.38,-72.5 255.38,-71.5 319.5,-71.5"/>
<path fill="none" stroke="#ff8000" stroke-width="2" d="M175.5,-74.5C239.5,-74.5 255.5,-73.5 319.5,-73.5"/>
<path fill="none" stroke="#000000" stroke-width="2" d="M175.5,-76.5C239.62,-76.5 255.62,-75.5 319.5,-75.5"/>
</g>
<!-- X1&#45;&#45;W1 -->
<g id="edge4" class="edge">
<title>X1:e&#45;&#45;W1:w</title>
<path fill="none" stroke="#000000" stroke-width="2" d="M175.5,-48.5C239.14,-48.53 255.12,-45.53 319.5,-45.5"/>
<path fill="none" stroke="#ffff00" stroke-width="2" d="M175.5,-50.5C239.51,-50.5 255.49,-47.5 319.5,-47.5"/>
<path fill="none" stroke="#000000" stroke-width="2" d="M175.5,-52.5C239.88,-52.47 255.86,-49.47 319.5,-49.5"/>
</g>
<!-- W1&#45;&#45;W1 -->
<g id="edge5" class="edge">
<title>W1:w&#45;&#45;W1:e</title>
<path fill="none" stroke="#000000" stroke-width="2" d="M319.5,-123.5C389.5,-123.5 459.5,-123.5 529.5,-123.5"/>
<path fill="none" stroke="#895956" stroke-width="2" d="M319.5,-125.5C389.5,-125.5 459.5,-125.5 529.5,-125.5"/>
<path fill="none" stroke="#000000" stroke-width="2" d="M319.5,-127.5C389.5,-127.5 459.5,-127.5 529.5,-127.5"/>
</g>
<!-- W1&#45;&#45;W1 -->
<g id="edge6" class="edge">
<title>W1:w&#45;&#45;W1:e</title>
<path fill="none" stroke="#000000" stroke-width="2" d="M319.5,-97.5C389.5,-97.5 459.5,-97.5 529.5,-97.5"/>
<path fill="none" stroke="#ff0000" stroke-width="2" d="M319.5,-99.5C389.5,-99.5 459.5,-99.5 529.5,-99.5"/>
<path fill="none" stroke="#000000" stroke-width="2" d="M319.5,-101.5C389.5,-101.5 459.5,-101.5 529.5,-101.5"/>
</g>
<!-- W1&#45;&#45;W1 -->
<g id="edge7" class="edge">
<title>W1:w&#45;&#45;W1:e</title>
<path fill="none" stroke="#000000" stroke-width="2" d="M319.5,-71.5C389.5,-71.5 459.5,-71.5 529.5,-71.5"/>
<path fill="none" stroke="#ff8000" stroke-width="2" d="M319.5,-73.5C389.5,-73.5 459.5,-73.5 529.5,-73.5"/>
<path fill="none" stroke="#000000" stroke-width="2" d="M319.5,-75.5C389.5,-75.5 459.5,-75.5 529.5,-75.5"/>
</g>
<!-- W1&#45;&#45;W1 -->
<g id="edge8" class="edge">
<title>W1:w&#45;&#45;W1:e</title>
<path fill="none" stroke="#000000" stroke-width="2" d="M319.5,-45.5C389.5,-45.5 459.5,-45.5 529.5,-45.5"/>
<path fill="none" stroke="#ffff00" stroke-width="2" d="M319.5,-47.5C389.5,-47.5 459.5,-47.5 529.5,-47.5"/>
<path fill="none" stroke="#000000" stroke-width="2" d="M319.5,-49.5C389.5,-49.5 459.5,-49.5 529.5,-49.5"/>
</g>
<!-- X2 -->
<g id="node3" class="node">
<title>X2</title>
<polygon fill="#ffffff" stroke="black" points="861.75,-183.5 673.49,-183.5 673.49,-14 861.75,-14 861.75,-183.5"/>
<polygon fill="none" stroke="black" points="673.5,-159 673.5,-183.5 861.75,-183.5 861.75,-159 673.5,-159"/>
<text text-anchor="start" x="758.62" y="-166.2" font-family="arial" font-size="14.00">X2</text>
<polygon fill="none" stroke="black" points="673.5,-134.5 673.5,-159 770.75,-159 770.75,-134.5 673.5,-134.5"/>
<text text-anchor="start" x="677.5" y="-141.7" font-family="arial" font-size="14.00">Molex KK 254</text>
<polygon fill="none" stroke="black" points="770.75,-134.5 770.75,-159 822.25,-159 822.25,-134.5 770.75,-134.5"/>
<text text-anchor="start" x="774.75" y="-141.7" font-family="arial" font-size="14.00">female</text>
<polygon fill="none" stroke="black" points="822.25,-134.5 822.25,-159 861.75,-159 861.75,-134.5 822.25,-134.5"/>
<text text-anchor="start" x="826.25" y="-141.7" font-family="arial" font-size="14.00">4&#45;pin</text>
<polygon fill="none" stroke="black" points="673.5,-110.5 673.5,-134.5 728.58,-134.5 728.58,-110.5 673.5,-110.5"/>
<text text-anchor="start" x="696.91" y="-117.2" font-family="arial" font-size="14.00">1</text>
<polygon fill="none" stroke="black" points="728.58,-110.5 728.58,-134.5 806.66,-134.5 806.66,-110.5 728.58,-110.5"/>
<text text-anchor="start" x="751.87" y="-117.2" font-family="arial" font-size="14.00">GND</text>
<polygon fill="none" stroke="black" points="806.66,-110.5 806.66,-134.5 861.75,-134.5 861.75,-110.5 806.66,-110.5"/>
<text text-anchor="start" x="830.08" y="-117.2" font-family="arial" font-size="14.00">1</text>
<polygon fill="none" stroke="black" points="673.5,-86.5 673.5,-110.5 728.58,-110.5 728.58,-86.5 673.5,-86.5"/>
<text text-anchor="start" x="696.91" y="-93.2" font-family="arial" font-size="14.00">2</text>
<polygon fill="none" stroke="black" points="728.58,-86.5 728.58,-110.5 806.66,-110.5 806.66,-86.5 728.58,-86.5"/>
<text text-anchor="start" x="752.25" y="-93.2" font-family="arial" font-size="14.00">VCC</text>
<polygon fill="none" stroke="black" points="806.66,-86.5 806.66,-110.5 861.75,-110.5 861.75,-86.5 806.66,-86.5"/>
<text text-anchor="start" x="830.08" y="-93.2" font-family="arial" font-size="14.00">2</text>
<polygon fill="none" stroke="black" points="673.5,-62.5 673.5,-86.5 728.58,-86.5 728.58,-62.5 673.5,-62.5"/>
<text text-anchor="start" x="696.91" y="-69.2" font-family="arial" font-size="14.00">3</text>
<polygon fill="none" stroke="black" points="728.58,-62.5 728.58,-86.5 806.66,-86.5 806.66,-62.5 728.58,-62.5"/>
<text text-anchor="start" x="753.37" y="-69.2" font-family="arial" font-size="14.00">SCL</text>
<polygon fill="none" stroke="black" points="806.66,-62.5 806.66,-86.5 861.75,-86.5 861.75,-62.5 806.66,-62.5"/>
<text text-anchor="start" x="830.08" y="-69.2" font-family="arial" font-size="14.00">3</text>
<polygon fill="none" stroke="black" points="673.5,-38.5 673.5,-62.5 728.58,-62.5 728.58,-38.5 673.5,-38.5"/>
<text text-anchor="start" x="696.91" y="-45.2" font-family="arial" font-size="14.00">4</text>
<polygon fill="none" stroke="black" points="728.58,-38.5 728.58,-62.5 806.66,-62.5 806.66,-38.5 728.58,-38.5"/>
<text text-anchor="start" x="752.62" y="-45.2" font-family="arial" font-size="14.00">SDA</text>
<polygon fill="none" stroke="black" points="806.66,-38.5 806.66,-62.5 861.75,-62.5 861.75,-38.5 806.66,-38.5"/>
<text text-anchor="start" x="830.08" y="-45.2" font-family="arial" font-size="14.00">4</text>
<polygon fill="none" stroke="black" points="673.5,-14 673.5,-38.5 861.75,-38.5 861.75,-14 673.5,-14"/>
<text text-anchor="start" x="714" y="-21.2" font-family="arial" font-size="14.00">to accelerometer</text>
</g>
<!-- W1&#45;&#45;X2 -->
<g id="edge9" class="edge">
<title>W1:e&#45;&#45;X2:w</title>
<path fill="none" stroke="#000000" stroke-width="2" d="M529.5,-123.5C593.14,-123.53 609.12,-120.53 673.5,-120.5"/>
<path fill="none" stroke="#895956" stroke-width="2" d="M529.5,-125.5C593.51,-125.5 609.49,-122.5 673.5,-122.5"/>
<path fill="none" stroke="#000000" stroke-width="2" d="M529.5,-127.5C593.88,-127.47 609.86,-124.47 673.5,-124.5"/>
</g>
<!-- W1&#45;&#45;X2 -->
<g id="edge10" class="edge">
<title>W1:e&#45;&#45;X2:w</title>
<path fill="none" stroke="#000000" stroke-width="2" d="M529.5,-97.5C593.38,-97.5 609.38,-96.5 673.5,-96.5"/>
<path fill="none" stroke="#ff0000" stroke-width="2" d="M529.5,-99.5C593.5,-99.5 609.5,-98.5 673.5,-98.5"/>
<path fill="none" stroke="#000000" stroke-width="2" d="M529.5,-101.5C593.62,-101.5 609.62,-100.5 673.5,-100.5"/>
</g>
<!-- W1&#45;&#45;X2 -->
<g id="edge11" class="edge">
<title>W1:e&#45;&#45;X2:w</title>
<path fill="none" stroke="#000000" stroke-width="2" d="M529.5,-71.5C593.62,-71.5 609.62,-72.5 673.5,-72.5"/>
<path fill="none" stroke="#ff8000" stroke-width="2" d="M529.5,-73.5C593.5,-73.5 609.5,-74.5 673.5,-74.5"/>
<path fill="none" stroke="#000000" stroke-width="2" d="M529.5,-75.5C593.38,-75.5 609.38,-76.5 673.5,-76.5"/>
</g>
<!-- W1&#45;&#45;X2 -->
<g id="edge12" class="edge">
<title>W1:e&#45;&#45;X2:w</title>
<path fill="none" stroke="#000000" stroke-width="2" d="M529.5,-45.5C593.88,-45.53 609.86,-48.53 673.5,-48.5"/>
<path fill="none" stroke="#ffff00" stroke-width="2" d="M529.5,-47.5C593.51,-47.5 609.49,-50.5 673.5,-50.5"/>
<path fill="none" stroke="#000000" stroke-width="2" d="M529.5,-49.5C593.14,-49.47 609.12,-52.47 673.5,-52.5"/>
</g>
<!-- W2 -->
<g id="node4" class="node">
<title>W2</title>
<polygon fill="#ffffff" stroke="black" points="1215.8,-217.5 1005.8,-217.5 1005.8,0 1215.8,0 1215.8,-217.5"/>
<polygon fill="none" stroke="black" points="1005.8,-193 1005.8,-217.5 1215.8,-217.5 1215.8,-193 1005.8,-193"/>
<text text-anchor="start" x="1099.55" y="-200.2" font-family="arial" font-size="14.00">W2</text>
<polygon fill="none" stroke="black" points="1005.8,-168.5 1005.8,-193 1055.3,-193 1055.3,-168.5 1005.8,-168.5"/>
<text text-anchor="start" x="1023.05" y="-175.7" font-family="arial" font-size="14.00">4x</text>
<polygon fill="none" stroke="black" points="1055.3,-168.5 1055.3,-193 1145.3,-193 1145.3,-168.5 1055.3,-168.5"/>
<text text-anchor="start" x="1072.55" y="-175.7" font-family="arial" font-size="14.00">24 AWG</text>
<polygon fill="none" stroke="black" points="1145.3,-168.5 1145.3,-193 1215.8,-193 1215.8,-168.5 1145.3,-168.5"/>
<text text-anchor="start" x="1162.55" y="-175.7" font-family="arial" font-size="14.00">0.1 m</text>
<text text-anchor="start" x="1038.42" y="-153.2" font-family="arial" font-size="14.00"> </text>
<text text-anchor="start" x="1007.67" y="-133.2" font-family="arial" font-size="14.00">X2:1:GND</text>
<text text-anchor="start" x="1078.17" y="-133.2" font-family="arial" font-size="14.00"> &#160;&#160;&#160;&#160;1:BN &#160;&#160;&#160;</text>
<text text-anchor="start" x="1148.67" y="-133.2" font-family="arial" font-size="14.00">X3:1:GND</text>
<text text-anchor="start" x="1008.05" y="-107.2" font-family="arial" font-size="14.00">X2:2:VCC</text>
<text text-anchor="start" x="1077.42" y="-107.2" font-family="arial" font-size="14.00"> &#160;&#160;&#160;&#160;2:RD &#160;&#160;&#160;</text>
<text text-anchor="start" x="1149.05" y="-107.2" font-family="arial" font-size="14.00">X3:2:VCC</text>
<text text-anchor="start" x="1009.17" y="-81.2" font-family="arial" font-size="14.00">X2:3:SCL</text>
<text text-anchor="start" x="1076.67" y="-81.2" font-family="arial" font-size="14.00"> &#160;&#160;&#160;&#160;3:OG &#160;&#160;&#160;</text>
<text text-anchor="start" x="1150.17" y="-81.2" font-family="arial" font-size="14.00">X3:3:SCL</text>
<text text-anchor="start" x="1008.42" y="-55.2" font-family="arial" font-size="14.00">X2:4:SDA</text>
<text text-anchor="start" x="1078.55" y="-55.2" font-family="arial" font-size="14.00"> &#160;&#160;&#160;&#160;4:YE &#160;&#160;&#160;</text>
<text text-anchor="start" x="1149.42" y="-55.2" font-family="arial" font-size="14.00">X3:4:SDA</text>
<text text-anchor="start" x="1038.42" y="-29.2" font-family="arial" font-size="14.00"> </text>
<polygon fill="none" stroke="black" points="1005.8,0 1005.8,-24.5 1215.8,-24.5 1215.8,0 1005.8,0"/>
<text text-anchor="start" x="1032.05" y="-7.2" font-family="arial" font-size="14.00">This cable is a bit shorter</text>
</g>
<!-- X2&#45;&#45;W2 -->
<g id="edge13" class="edge">
<title>X2:e&#45;&#45;W2:w</title>
<path fill="none" stroke="#000000" stroke-width="2" d="M861.75,-120.5C926.13,-120.53 942.11,-123.53 1005.8,-123.5"/>
<path fill="none" stroke="#895956" stroke-width="2" d="M861.75,-122.5C925.76,-122.5 941.74,-125.5 1005.8,-125.5"/>
<path fill="none" stroke="#000000" stroke-width="2" d="M861.75,-124.5C925.39,-124.47 941.37,-127.47 1005.8,-127.5"/>
</g>
<!-- X2&#45;&#45;W2 -->
<g id="edge14" class="edge">
<title>X2:e&#45;&#45;W2:w</title>
<path fill="none" stroke="#000000" stroke-width="2" d="M861.75,-96.5C925.87,-96.5 941.87,-97.5 1005.8,-97.5"/>
<path fill="none" stroke="#ff0000" stroke-width="2" d="M861.75,-98.5C925.75,-98.5 941.75,-99.5 1005.8,-99.5"/>
<path fill="none" stroke="#000000" stroke-width="2" d="M861.75,-100.5C925.63,-100.5 941.63,-101.5 1005.8,-101.5"/>
</g>
<!-- X2&#45;&#45;W2 -->
<g id="edge15" class="edge">
<title>X2:e&#45;&#45;W2:w</title>
<path fill="none" stroke="#000000" stroke-width="2" d="M861.75,-72.5C925.63,-72.5 941.63,-71.5 1005.8,-71.5"/>
<path fill="none" stroke="#ff8000" stroke-width="2" d="M861.75,-74.5C925.75,-74.5 941.75,-73.5 1005.8,-73.5"/>
<path fill="none" stroke="#000000" stroke-width="2" d="M861.75,-76.5C925.87,-76.5 941.87,-75.5 1005.8,-75.5"/>
</g>
<!-- X2&#45;&#45;W2 -->
<g id="edge16" class="edge">
<title>X2:e&#45;&#45;W2:w</title>
<path fill="none" stroke="#000000" stroke-width="2" d="M861.75,-48.5C925.39,-48.53 941.37,-45.53 1005.8,-45.5"/>
<path fill="none" stroke="#ffff00" stroke-width="2" d="M861.75,-50.5C925.76,-50.5 941.74,-47.5 1005.8,-47.5"/>
<path fill="none" stroke="#000000" stroke-width="2" d="M861.75,-52.5C926.13,-52.47 942.11,-49.47 1005.8,-49.5"/>
</g>
<!-- W2&#45;&#45;W2 -->
<g id="edge17" class="edge">
<title>W2:w&#45;&#45;W2:e</title>
<path fill="none" stroke="#000000" stroke-width="2" d="M1005.8,-123.5C1075.8,-123.5 1145.8,-123.5 1215.8,-123.5"/>
<path fill="none" stroke="#895956" stroke-width="2" d="M1005.8,-125.5C1075.8,-125.5 1145.8,-125.5 1215.8,-125.5"/>
<path fill="none" stroke="#000000" stroke-width="2" d="M1005.8,-127.5C1075.8,-127.5 1145.8,-127.5 1215.8,-127.5"/>
</g>
<!-- W2&#45;&#45;W2 -->
<g id="edge18" class="edge">
<title>W2:w&#45;&#45;W2:e</title>
<path fill="none" stroke="#000000" stroke-width="2" d="M1005.8,-97.5C1075.8,-97.5 1145.8,-97.5 1215.8,-97.5"/>
<path fill="none" stroke="#ff0000" stroke-width="2" d="M1005.8,-99.5C1075.8,-99.5 1145.8,-99.5 1215.8,-99.5"/>
<path fill="none" stroke="#000000" stroke-width="2" d="M1005.8,-101.5C1075.8,-101.5 1145.8,-101.5 1215.8,-101.5"/>
</g>
<!-- W2&#45;&#45;W2 -->
<g id="edge19" class="edge">
<title>W2:w&#45;&#45;W2:e</title>
<path fill="none" stroke="#000000" stroke-width="2" d="M1005.8,-71.5C1075.8,-71.5 1145.8,-71.5 1215.8,-71.5"/>
<path fill="none" stroke="#ff8000" stroke-width="2" d="M1005.8,-73.5C1075.8,-73.5 1145.8,-73.5 1215.8,-73.5"/>
<path fill="none" stroke="#000000" stroke-width="2" d="M1005.8,-75.5C1075.8,-75.5 1145.8,-75.5 1215.8,-75.5"/>
</g>
<!-- W2&#45;&#45;W2 -->
<g id="edge20" class="edge">
<title>W2:w&#45;&#45;W2:e</title>
<path fill="none" stroke="#000000" stroke-width="2" d="M1005.8,-45.5C1075.8,-45.5 1145.8,-45.5 1215.8,-45.5"/>
<path fill="none" stroke="#ffff00" stroke-width="2" d="M1005.8,-47.5C1075.8,-47.5 1145.8,-47.5 1215.8,-47.5"/>
<path fill="none" stroke="#000000" stroke-width="2" d="M1005.8,-49.5C1075.8,-49.5 1145.8,-49.5 1215.8,-49.5"/>
</g>
<!-- X3 -->
<g id="node5" class="node">
<title>X3</title>
<polygon fill="#ffffff" stroke="black" points="1548.03,-183.5 1359.77,-183.5 1359.77,-14 1548.03,-14 1548.03,-183.5"/>
<polygon fill="none" stroke="black" points="1359.78,-159 1359.78,-183.5 1548.03,-183.5 1548.03,-159 1359.78,-159"/>
<text text-anchor="start" x="1444.9" y="-166.2" font-family="arial" font-size="14.00">X3</text>
<polygon fill="none" stroke="black" points="1359.78,-134.5 1359.78,-159 1457.03,-159 1457.03,-134.5 1359.78,-134.5"/>
<text text-anchor="start" x="1363.78" y="-141.7" font-family="arial" font-size="14.00">Molex KK 254</text>
<polygon fill="none" stroke="black" points="1457.03,-134.5 1457.03,-159 1508.53,-159 1508.53,-134.5 1457.03,-134.5"/>
<text text-anchor="start" x="1461.03" y="-141.7" font-family="arial" font-size="14.00">female</text>
<polygon fill="none" stroke="black" points="1508.53,-134.5 1508.53,-159 1548.03,-159 1548.03,-134.5 1508.53,-134.5"/>
<text text-anchor="start" x="1512.53" y="-141.7" font-family="arial" font-size="14.00">4&#45;pin</text>
<polygon fill="none" stroke="black" points="1359.78,-110.5 1359.78,-134.5 1442.4,-134.5 1442.4,-110.5 1359.78,-110.5"/>
<text text-anchor="start" x="1396.96" y="-117.2" font-family="arial" font-size="14.00">1</text>
<polygon fill="none" stroke="black" points="1442.4,-110.5 1442.4,-134.5 1548.03,-134.5 1548.03,-110.5 1442.4,-110.5"/>
<text text-anchor="start" x="1479.46" y="-117.2" font-family="arial" font-size="14.00">GND</text>
<polygon fill="none" stroke="black" points="1359.78,-86.5 1359.78,-110.5 1442.4,-110.5 1442.4,-86.5 1359.78,-86.5"/>
<text text-anchor="start" x="1396.96" y="-93.2" font-family="arial" font-size="14.00">2</text>
<polygon fill="none" stroke="black" points="1442.4,-86.5 1442.4,-110.5 1548.03,-110.5 1548.03,-86.5 1442.4,-86.5"/>
<text text-anchor="start" x="1479.84" y="-93.2" font-family="arial" font-size="14.00">VCC</text>
<polygon fill="none" stroke="black" points="1359.78,-62.5 1359.78,-86.5 1442.4,-86.5 1442.4,-62.5 1359.78,-62.5"/>
<text text-anchor="start" x="1396.96" y="-69.2" font-family="arial" font-size="14.00">3</text>
<polygon fill="none" stroke="black" points="1442.4,-62.5 1442.4,-86.5 1548.03,-86.5 1548.03,-62.5 1442.4,-62.5"/>
<text text-anchor="start" x="1480.96" y="-69.2" font-family="arial" font-size="14.00">SCL</text>
<polygon fill="none" stroke="black" points="1359.78,-38.5 1359.78,-62.5 1442.4,-62.5 1442.4,-38.5 1359.78,-38.5"/>
<text text-anchor="start" x="1396.96" y="-45.2" font-family="arial" font-size="14.00">4</text>
<polygon fill="none" stroke="black" points="1442.4,-38.5 1442.4,-62.5 1548.03,-62.5 1548.03,-38.5 1442.4,-38.5"/>
<text text-anchor="start" x="1480.21" y="-45.2" font-family="arial" font-size="14.00">SDA</text>
<polygon fill="none" stroke="black" points="1359.78,-14 1359.78,-38.5 1548.03,-38.5 1548.03,-14 1359.78,-14"/>
<text text-anchor="start" x="1384.15" y="-21.2" font-family="arial" font-size="14.00">to temperature sensor</text>
</g>
<!-- W2&#45;&#45;X3 -->
<g id="edge21" class="edge">
<title>W2:e&#45;&#45;X3:w</title>
<path fill="none" stroke="#000000" stroke-width="2" d="M1215.8,-123.5C1279.43,-123.53 1295.33,-120.53 1359.8,-120.5"/>
<path fill="none" stroke="#895956" stroke-width="2" d="M1215.8,-125.5C1279.8,-125.5 1295.7,-122.5 1359.8,-122.5"/>
<path fill="none" stroke="#000000" stroke-width="2" d="M1215.8,-127.5C1280.17,-127.47 1296.07,-124.47 1359.8,-124.5"/>
</g>
<!-- W2&#45;&#45;X3 -->
<g id="edge22" class="edge">
<title>W2:e&#45;&#45;X3:w</title>
<path fill="none" stroke="#000000" stroke-width="2" d="M1215.8,-97.5C1279.67,-97.5 1295.57,-96.5 1359.8,-96.5"/>
<path fill="none" stroke="#ff0000" stroke-width="2" d="M1215.8,-99.5C1279.8,-99.5 1295.7,-98.5 1359.8,-98.5"/>
<path fill="none" stroke="#000000" stroke-width="2" d="M1215.8,-101.5C1279.93,-101.5 1295.83,-100.5 1359.8,-100.5"/>
</g>
<!-- W2&#45;&#45;X3 -->
<g id="edge23" class="edge">
<title>W2:e&#45;&#45;X3:w</title>
<path fill="none" stroke="#000000" stroke-width="2" d="M1215.8,-71.5C1279.93,-71.5 1295.83,-72.5 1359.8,-72.5"/>
<path fill="none" stroke="#ff8000" stroke-width="2" d="M1215.8,-73.5C1279.8,-73.5 1295.7,-74.5 1359.8,-74.5"/>
<path fill="none" stroke="#000000" stroke-width="2" d="M1215.8,-75.5C1279.67,-75.5 1295.57,-76.5 1359.8,-76.5"/>
</g>
<!-- W2&#45;&#45;X3 -->
<g id="edge24" class="edge">
<title>W2:e&#45;&#45;X3:w</title>
<path fill="none" stroke="#000000" stroke-width="2" d="M1215.8,-45.5C1280.17,-45.53 1296.07,-48.53 1359.8,-48.5"/>
<path fill="none" stroke="#ffff00" stroke-width="2" d="M1215.8,-47.5C1279.8,-47.5 1295.7,-50.5 1359.8,-50.5"/>
<path fill="none" stroke="#000000" stroke-width="2" d="M1215.8,-49.5C1279.43,-49.47 1295.33,-52.47 1359.8,-52.5"/>
</g>
</g>
</svg>
