<?xml version="1.0" encoding="UTF-8" standalone="no"?>
<!DOCTYPE svg PUBLIC "-//W3C//DTD SVG 1.1//EN"
 "http://www.w3.org/Graphics/SVG/1.1/DTD/svg11.dtd">
<!-- Generated by graphviz version 2.38.0 (20140413.2041)
 -->
<!-- Title: %3 Pages: 1 -->
<svg width="478pt" height="160pt"
 viewBox="0.00 0.00 478.00 159.50" xmlns="http://www.w3.org/2000/svg" xmlns:xlink="http://www.w3.org/1999/xlink">
<g id="graph0" class="graph" transform="scale(1 1) rotate(0) translate(4 155.5)">
<title>%3</title>
<polygon fill="#fffbf8" stroke="none" points="-4,4 -4,-155.5 474,-155.5 474,4 -4,4"/>
<!-- X1 -->
<g id="node1" class="node"><title>X1</title>
<polygon fill="white" stroke="black" points="0,-0.5 0,-138.5 54,-138.5 54,-0.5 0,-0.5"/>
<text text-anchor="middle" x="27" y="-123.3" font-family="arial" font-size="14.00">X1</text>
<polyline fill="none" stroke="black" points="0,-115.5 54,-115.5 "/>
<text text-anchor="middle" x="27" y="-100.3" font-family="arial" font-size="14.00">4&#45;pin</text>
<polyline fill="none" stroke="black" points="0,-92.5 54,-92.5 "/>
<text text-anchor="middle" x="27" y="-77.3" font-family="arial" font-size="14.00">1</text>
<polyline fill="none" stroke="black" points="0,-69.5 54,-69.5 "/>
<text text-anchor="middle" x="27" y="-54.3" font-family="arial" font-size="14.00">2</text>
<polyline fill="none" stroke="black" points="0,-46.5 54,-46.5 "/>
<text text-anchor="middle" x="27" y="-31.3" font-family="arial" font-size="14.00">3</text>
<polyline fill="none" stroke="black" points="0,-23.5 54,-23.5 "/>
<text text-anchor="middle" x="27" y="-8.3" font-family="arial" font-size="14.00">4</text>
</g>
<!-- W1 -->
<g id="node3" class="node"><title>W1</title>
<polygon fill="none" stroke="black" points="272,-151.5 198,-151.5 198,-1.5 272,-1.5 272,-151.5"/>
<polygon fill="none" stroke="black" points="198,-128.5 198,-151.5 272,-151.5 272,-128.5 198,-128.5"/>
<text text-anchor="start" x="223.5" y="-136.3" font-family="arial" font-size="14.00">W1</text>
<polygon fill="none" stroke="black" points="198,-105.5 198,-128.5 231,-128.5 231,-105.5 198,-105.5"/>
<text text-anchor="start" x="206.5" y="-113.3" font-family="arial" font-size="14.00">4x</text>
<polygon fill="none" stroke="black" points="231,-105.5 231,-128.5 272,-128.5 272,-105.5 231,-105.5"/>
<text text-anchor="start" x="239" y="-113.3" font-family="arial" font-size="14.00">1 m</text>
<text text-anchor="start" x="200" y="-92.3" font-family="arial" font-size="14.00">X1:1</text>
<text text-anchor="start" x="239" y="-92.3" font-family="arial" font-size="14.00">X2:1</text>
<polygon fill="#000000" stroke="none" points="198,-84.5 198,-86.5 272,-86.5 272,-84.5 198,-84.5"/>
<polygon fill="#ffffff" stroke="none" points="198,-82.5 198,-84.5 272,-84.5 272,-82.5 198,-82.5"/>
<polygon fill="#000000" stroke="none" points="198,-80.5 198,-82.5 272,-82.5 272,-80.5 198,-80.5"/>
<text text-anchor="start" x="200" y="-67.3" font-family="arial" font-size="14.00">X1:2</text>
<text text-anchor="start" x="239" y="-67.3" font-family="arial" font-size="14.00">X2:2</text>
<polygon fill="#000000" stroke="none" points="198,-59.5 198,-61.5 272,-61.5 272,-59.5 198,-59.5"/>
<polygon fill="#ffffff" stroke="none" points="198,-57.5 198,-59.5 272,-59.5 272,-57.5 198,-57.5"/>
<polygon fill="#000000" stroke="none" points="198,-55.5 198,-57.5 272,-57.5 272,-55.5 198,-55.5"/>
<text text-anchor="start" x="200" y="-42.3" font-family="arial" font-size="14.00">X1:3</text>
<text text-anchor="start" x="239" y="-42.3" font-family="arial" font-size="14.00">X2:3</text>
<polygon fill="#000000" stroke="none" points="198,-34.5 198,-36.5 272,-36.5 272,-34.5 198,-34.5"/>
<polygon fill="#ffffff" stroke="none" points="198,-32.5 198,-34.5 272,-34.5 272,-32.5 198,-32.5"/>
<polygon fill="#000000" stroke="none" points="198,-30.5 198,-32.5 272,-32.5 272,-30.5 198,-30.5"/>
<text text-anchor="start" x="200" y="-17.3" font-family="arial" font-size="14.00">X1:4</text>
<text text-anchor="start" x="239" y="-17.3" font-family="arial" font-size="14.00">X2:4</text>
<polygon fill="#000000" stroke="none" points="198,-9.5 198,-11.5 272,-11.5 272,-9.5 198,-9.5"/>
<polygon fill="#ffffff" stroke="none" points="198,-7.5 198,-9.5 272,-9.5 272,-7.5 198,-7.5"/>
<polygon fill="#000000" stroke="none" points="198,-5.5 198,-7.5 272,-7.5 272,-5.5 198,-5.5"/>
</g>
<!-- X1&#45;&#45;W1 -->
<g id="edge1" class="edge"><title>X1:p1r:e&#45;&#45;W1:w1:w</title>
<path fill="none" stroke="#000000" stroke-width="2" d="M54,-79.5C118.254,-79.5155 134.242,-81.5155 198,-81.5"/>
<path fill="none" stroke="#ffffff" stroke-width="2" d="M54,-81.5C118.006,-81.5 133.994,-83.5 198,-83.5"/>
<path fill="none" stroke="#000000" stroke-width="2" d="M54,-83.5C117.758,-83.4845 133.746,-85.4845 198,-85.5"/>
</g>
<!-- X1&#45;&#45;W1 -->
<g id="edge3" class="edge"><title>X1:p2r:e&#45;&#45;W1:w2:w</title>
<path fill="none" stroke="#000000" stroke-width="2" d="M54,-55.5C118.126,-55.5039 134.123,-56.5039 198,-56.5"/>
<path fill="none" stroke="#ffffff" stroke-width="2" d="M54,-57.5C118.002,-57.5 133.998,-58.5 198,-58.5"/>
<path fill="none" stroke="#000000" stroke-width="2" d="M54,-59.5C117.877,-59.4961 133.874,-60.4961 198,-60.5"/>
</g>
<!-- X1&#45;&#45;W1 -->
<g id="edge5" class="edge"><title>X1:p3r:e&#45;&#45;W1:w3:w</title>
<path fill="none" stroke="#000000" stroke-width="2" d="M54,-32.5C117.877,-32.5039 133.874,-31.5039 198,-31.5"/>
<path fill="none" stroke="#ffffff" stroke-width="2" d="M54,-34.5C118.002,-34.5 133.998,-33.5 198,-33.5"/>
<path fill="none" stroke="#000000" stroke-width="2" d="M54,-36.5C118.126,-36.4961 134.123,-35.4961 198,-35.5"/>
</g>
<!-- X1&#45;&#45;W1 -->
<g id="edge7" class="edge"><title>X1:p4r:e&#45;&#45;W1:w4:w</title>
<path fill="none" stroke="#000000" stroke-width="2" d="M54,-9.5C117.645,-9.53437 133.617,-6.53437 198,-6.5"/>
<path fill="none" stroke="#ffffff" stroke-width="2" d="M54,-11.5C118.014,-11.5 133.986,-8.5 198,-8.5"/>
<path fill="none" stroke="#000000" stroke-width="2" d="M54,-13.5C118.383,-13.4656 134.355,-10.4656 198,-10.5"/>
</g>
<!-- X2 -->
<g id="node2" class="node"><title>X2</title>
<polygon fill="white" stroke="black" points="416,-0.5 416,-138.5 470,-138.5 470,-0.5 416,-0.5"/>
<text text-anchor="middle" x="443" y="-123.3" font-family="arial" font-size="14.00">X2</text>
<polyline fill="none" stroke="black" points="416,-115.5 470,-115.5 "/>
<text text-anchor="middle" x="443" y="-100.3" font-family="arial" font-size="14.00">4&#45;pin</text>
<polyline fill="none" stroke="black" points="416,-92.5 470,-92.5 "/>
<text text-anchor="middle" x="443" y="-77.3" font-family="arial" font-size="14.00">1</text>
<polyline fill="none" stroke="black" points="416,-69.5 470,-69.5 "/>
<text text-anchor="middle" x="443" y="-54.3" font-family="arial" font-size="14.00">2</text>
<polyline fill="none" stroke="black" points="416,-46.5 470,-46.5 "/>
<text text-anchor="middle" x="443" y="-31.3" font-family="arial" font-size="14.00">3</text>
<polyline fill="none" stroke="black" points="416,-23.5 470,-23.5 "/>
<text text-anchor="middle" x="443" y="-8.3" font-family="arial" font-size="14.00">4</text>
</g>
<!-- W1&#45;&#45;X2 -->
<g id="edge2" class="edge"><title>W1:w1:e&#45;&#45;X2:p1l:w</title>
<path fill="none" stroke="#000000" stroke-width="2" d="M272,-81.5C335.758,-81.5155 351.746,-79.5155 416,-79.5"/>
<path fill="none" stroke="#ffffff" stroke-width="2" d="M272,-83.5C336.006,-83.5 351.994,-81.5 416,-81.5"/>
<path fill="none" stroke="#000000" stroke-width="2" d="M272,-85.5C336.254,-85.4845 352.242,-83.4845 416,-83.5"/>
</g>
<!-- W1&#45;&#45;X2 -->
<g id="edge4" class="edge"><title>W1:w2:e&#45;&#45;X2:p2l:w</title>
<path fill="none" stroke="#000000" stroke-width="2" d="M272,-56.5C335.877,-56.5039 351.874,-55.5039 416,-55.5"/>
<path fill="none" stroke="#ffffff" stroke-width="2" d="M272,-58.5C336.002,-58.5 351.998,-57.5 416,-57.5"/>
<path fill="none" stroke="#000000" stroke-width="2" d="M272,-60.5C336.126,-60.4961 352.123,-59.4961 416,-59.5"/>
</g>
<!-- W1&#45;&#45;X2 -->
<g id="edge6" class="edge"><title>W1:w3:e&#45;&#45;X2:p3l:w</title>
<path fill="none" stroke="#000000" stroke-width="2" d="M272,-31.5C336.126,-31.5039 352.123,-32.5039 416,-32.5"/>
<path fill="none" stroke="#ffffff" stroke-width="2" d="M272,-33.5C336.002,-33.5 351.998,-34.5 416,-34.5"/>
<path fill="none" stroke="#000000" stroke-width="2" d="M272,-35.5C335.877,-35.4961 351.874,-36.4961 416,-36.5"/>
</g>
<!-- W1&#45;&#45;X2 -->
<g id="edge8" class="edge"><title>W1:w4:e&#45;&#45;X2:p4l:w</title>
<path fill="none" stroke="#000000" stroke-width="2" d="M272,-6.5C336.383,-6.53437 352.355,-9.53437 416,-9.5"/>
<path fill="none" stroke="#ffffff" stroke-width="2" d="M272,-8.5C336.014,-8.5 351.986,-11.5 416,-11.5"/>
<path fill="none" stroke="#000000" stroke-width="2" d="M272,-10.5C335.645,-10.4656 351.617,-13.4656 416,-13.5"/>
</g>
</g>
</svg>
