<?xml version="1.0" encoding="UTF-8" standalone="no"?>
<!DOCTYPE svg PUBLIC "-//W3C//DTD SVG 1.1//EN"
 "http://www.w3.org/Graphics/SVG/1.1/DTD/svg11.dtd">
<!-- Generated by graphviz version 11.0.0 (20240428.1522)
 -->
<!-- Pages: 1 -->
<svg width="796pt" height="224pt"
 viewBox="0.00 0.00 795.75 223.75" xmlns="http://www.w3.org/2000/svg" xmlns:xlink="http://www.w3.org/1999/xlink">
<g id="graph0" class="graph" transform="scale(1 1) rotate(0) translate(4 219.75)">
<polygon fill="#ffffff" stroke="none" points="-4,4 -4,-219.75 791.75,-219.75 791.75,4 -4,4"/>
<!-- __F1_1 -->
<g id="node1" class="node">
<title>__F1_1</title>
<polygon fill="#ffffff" stroke="black" points="189.5,-171.5 0,-171.5 0,-147 189.5,-147 189.5,-171.5"/>
<polygon fill="none" stroke="black" points="0,-147 0,-171.5 90.5,-171.5 90.5,-147 0,-147"/>
<text text-anchor="start" x="4" y="-154.2" font-family="arial" font-size="14.00">Crimp ferrule</text>
<polygon fill="none" stroke="black" points="90.5,-147 90.5,-171.5 151,-171.5 151,-147 90.5,-147"/>
<text text-anchor="start" x="94.5" y="-154.2" font-family="arial" font-size="14.00">0.5 mm²</text>
<polygon fill="none" stroke="black" points="151,-147 151,-171.5 181.5,-171.5 181.5,-147 151,-147"/>
<text text-anchor="start" x="155" y="-154.2" font-family="arial" font-size="14.00">OG</text>
<polygon fill="#ff8000" stroke="none" points="181.5,-147 181.5,-171.5 189.5,-171.5 189.5,-147 181.5,-147"/>
<polygon fill="none" stroke="black" points="181.5,-147 181.5,-171.5 189.5,-171.5 189.5,-147 181.5,-147"/>
</g>
<!-- W1 -->
<g id="node2" class="node">
<title>W1</title>
<polygon fill="#ffffff" stroke="black" stroke-dasharray="5,2" points="470.5,-215.75 333.5,-215.75 333.5,-22.75 470.5,-22.75 470.5,-215.75"/>
<polygon fill="none" stroke="black" points="333.5,-191.25 333.5,-215.75 470.5,-215.75 470.5,-191.25 333.5,-191.25"/>
<text text-anchor="start" x="390.75" y="-198.45" font-family="arial" font-size="14.00">W1</text>
<polygon fill="none" stroke="black" points="333.5,-166.75 333.5,-191.25 359.67,-191.25 359.67,-166.75 333.5,-166.75"/>
<text text-anchor="start" x="339.08" y="-173.95" font-family="arial" font-size="14.00">4x</text>
<polygon fill="none" stroke="black" points="359.67,-166.75 359.67,-191.25 423.33,-191.25 423.33,-166.75 359.67,-166.75"/>
<text text-anchor="start" x="365.25" y="-173.95" font-family="arial" font-size="14.00">0.5 mm²</text>
<polygon fill="none" stroke="black" points="423.33,-166.75 423.33,-191.25 470.5,-191.25 470.5,-166.75 423.33,-166.75"/>
<text text-anchor="start" x="428.92" y="-173.95" font-family="arial" font-size="14.00">0.3 m</text>
<text text-anchor="start" x="335.12" y="-151.45" font-family="arial" font-size="14.00"> </text>
<text text-anchor="start" x="343.25" y="-131.45" font-family="arial" font-size="14.00"> &#160;&#160;&#160;&#160;YE &#160;&#160;&#160;</text>
<text text-anchor="start" x="400.38" y="-131.45" font-family="arial" font-size="14.00">X1:1:+12V</text>
<text text-anchor="start" x="342.88" y="-105.45" font-family="arial" font-size="14.00"> &#160;&#160;&#160;&#160;BK &#160;&#160;&#160;</text>
<text text-anchor="start" x="401.88" y="-105.45" font-family="arial" font-size="14.00">X1:2:GND</text>
<text text-anchor="start" x="342.88" y="-79.45" font-family="arial" font-size="14.00"> &#160;&#160;&#160;&#160;BK &#160;&#160;&#160;</text>
<text text-anchor="start" x="401.88" y="-79.45" font-family="arial" font-size="14.00">X1:3:GND</text>
<text text-anchor="start" x="342.12" y="-53.45" font-family="arial" font-size="14.00"> &#160;&#160;&#160;&#160;RD &#160;&#160;&#160;</text>
<text text-anchor="start" x="404.5" y="-53.45" font-family="arial" font-size="14.00">X1:4:+5V</text>
<text text-anchor="start" x="335.12" y="-27.45" font-family="arial" font-size="14.00"> </text>
</g>
<!-- __F1_1&#45;&#45;W1 -->
<g id="edge1" class="edge">
<title>__F1_1:e&#45;&#45;W1:w</title>
<path fill="none" stroke="#000000" stroke-width="2" d="M189.5,-157.25C253.53,-158.6 265.69,-123.1 333.5,-121.75"/>
<path fill="none" stroke="#ffff00" stroke-width="2" d="M189.5,-159.25C255.42,-159.25 267.58,-123.75 333.5,-123.75"/>
<path fill="none" stroke="#000000" stroke-width="2" d="M189.5,-161.25C257.31,-159.9 269.47,-124.4 333.5,-125.75"/>
</g>
<!-- W1&#45;&#45;W1 -->
<g id="edge2" class="edge">
<title>W1:w&#45;&#45;W1:e</title>
<path fill="none" stroke="#000000" stroke-width="2" d="M333.5,-121.75C379.17,-121.75 424.83,-121.75 470.5,-121.75"/>
<path fill="none" stroke="#ffff00" stroke-width="2" d="M333.5,-123.75C379.17,-123.75 424.83,-123.75 470.5,-123.75"/>
<path fill="none" stroke="#000000" stroke-width="2" d="M333.5,-125.75C379.17,-125.75 424.83,-125.75 470.5,-125.75"/>
</g>
<!-- W1&#45;&#45;W1 -->
<g id="edge3" class="edge">
<title>W1:w&#45;&#45;W1:e</title>
<path fill="none" stroke="#000000" stroke-width="2" d="M333.5,-95.75C379.17,-95.75 424.83,-95.75 470.5,-95.75"/>
<path fill="none" stroke="#000000" stroke-width="2" d="M333.5,-97.75C379.17,-97.75 424.83,-97.75 470.5,-97.75"/>
<path fill="none" stroke="#000000" stroke-width="2" d="M333.5,-99.75C379.17,-99.75 424.83,-99.75 470.5,-99.75"/>
</g>
<!-- W1&#45;&#45;W1 -->
<g id="edge4" class="edge">
<title>W1:w&#45;&#45;W1:e</title>
<path fill="none" stroke="#000000" stroke-width="2" d="M333.5,-69.75C379.17,-69.75 424.83,-69.75 470.5,-69.75"/>
<path fill="none" stroke="#000000" stroke-width="2" d="M333.5,-71.75C379.17,-71.75 424.83,-71.75 470.5,-71.75"/>
<path fill="none" stroke="#000000" stroke-width="2" d="M333.5,-73.75C379.17,-73.75 424.83,-73.75 470.5,-73.75"/>
</g>
<!-- W1&#45;&#45;W1 -->
<g id="edge5" class="edge">
<title>W1:w&#45;&#45;W1:e</title>
<path fill="none" stroke="#000000" stroke-width="2" d="M333.5,-43.75C379.17,-43.75 424.83,-43.75 470.5,-43.75"/>
<path fill="none" stroke="#ff0000" stroke-width="2" d="M333.5,-45.75C379.17,-45.75 424.83,-45.75 470.5,-45.75"/>
<path fill="none" stroke="#000000" stroke-width="2" d="M333.5,-47.75C379.17,-47.75 424.83,-47.75 470.5,-47.75"/>
</g>
<!-- X1 -->
<g id="node3" class="node">
<title>X1</title>
<polygon fill="#ffffff" stroke="black" points="787.75,-181.75 614.5,-181.75 614.5,-36.75 787.75,-36.75 787.75,-181.75"/>
<polygon fill="none" stroke="black" points="614.5,-157.25 614.5,-181.75 787.75,-181.75 787.75,-157.25 614.5,-157.25"/>
<text text-anchor="start" x="692.12" y="-164.45" font-family="arial" font-size="14.00">X1</text>
<polygon fill="none" stroke="black" points="614.5,-132.75 614.5,-157.25 696.75,-157.25 696.75,-132.75 614.5,-132.75"/>
<text text-anchor="start" x="618.5" y="-139.95" font-family="arial" font-size="14.00">Molex 8981</text>
<polygon fill="none" stroke="black" points="696.75,-132.75 696.75,-157.25 748.25,-157.25 748.25,-132.75 696.75,-132.75"/>
<text text-anchor="start" x="700.75" y="-139.95" font-family="arial" font-size="14.00">female</text>
<polygon fill="none" stroke="black" points="748.25,-132.75 748.25,-157.25 787.75,-157.25 787.75,-132.75 748.25,-132.75"/>
<text text-anchor="start" x="752.25" y="-139.95" font-family="arial" font-size="14.00">4&#45;pin</text>
<polygon fill="none" stroke="black" points="614.5,-108.75 614.5,-132.75 688.12,-132.75 688.12,-108.75 614.5,-108.75"/>
<text text-anchor="start" x="647.18" y="-115.45" font-family="arial" font-size="14.00">1</text>
<polygon fill="none" stroke="black" points="688.12,-108.75 688.12,-132.75 787.75,-132.75 787.75,-108.75 688.12,-108.75"/>
<text text-anchor="start" x="720.68" y="-115.45" font-family="arial" font-size="14.00">+12V</text>
<polygon fill="none" stroke="black" points="614.5,-84.75 614.5,-108.75 688.12,-108.75 688.12,-84.75 614.5,-84.75"/>
<text text-anchor="start" x="647.18" y="-91.45" font-family="arial" font-size="14.00">2</text>
<polygon fill="none" stroke="black" points="688.12,-84.75 688.12,-108.75 787.75,-108.75 787.75,-84.75 688.12,-84.75"/>
<text text-anchor="start" x="722.18" y="-91.45" font-family="arial" font-size="14.00">GND</text>
<polygon fill="none" stroke="black" points="614.5,-60.75 614.5,-84.75 688.12,-84.75 688.12,-60.75 614.5,-60.75"/>
<text text-anchor="start" x="647.18" y="-67.45" font-family="arial" font-size="14.00">3</text>
<polygon fill="none" stroke="black" points="688.12,-60.75 688.12,-84.75 787.75,-84.75 787.75,-60.75 688.12,-60.75"/>
<text text-anchor="start" x="722.18" y="-67.45" font-family="arial" font-size="14.00">GND</text>
<polygon fill="none" stroke="black" points="614.5,-36.75 614.5,-60.75 688.12,-60.75 688.12,-36.75 614.5,-36.75"/>
<text text-anchor="start" x="647.18" y="-43.45" font-family="arial" font-size="14.00">4</text>
<polygon fill="none" stroke="black" points="688.12,-36.75 688.12,-60.75 787.75,-60.75 787.75,-36.75 688.12,-36.75"/>
<text text-anchor="start" x="724.81" y="-43.45" font-family="arial" font-size="14.00">+5V</text>
</g>
<!-- W1&#45;&#45;X1 -->
<g id="edge6" class="edge">
<title>W1:e&#45;&#45;X1:w</title>
<path fill="none" stroke="#000000" stroke-width="2" d="M470.5,-121.75C534.14,-121.78 550.12,-118.78 614.5,-118.75"/>
<path fill="none" stroke="#ffff00" stroke-width="2" d="M470.5,-123.75C534.51,-123.75 550.49,-120.75 614.5,-120.75"/>
<path fill="none" stroke="#000000" stroke-width="2" d="M470.5,-125.75C534.88,-125.72 550.86,-122.72 614.5,-122.75"/>
</g>
<!-- W1&#45;&#45;X1 -->
<g id="edge7" class="edge">
<title>W1:e&#45;&#45;X1:w</title>
<path fill="none" stroke="#000000" stroke-width="2" d="M470.5,-95.75C534.38,-95.75 550.38,-94.75 614.5,-94.75"/>
<path fill="none" stroke="#000000" stroke-width="2" d="M470.5,-97.75C534.5,-97.75 550.5,-96.75 614.5,-96.75"/>
<path fill="none" stroke="#000000" stroke-width="2" d="M470.5,-99.75C534.62,-99.75 550.62,-98.75 614.5,-98.75"/>
</g>
<!-- W1&#45;&#45;X1 -->
<g id="edge8" class="edge">
<title>W1:e&#45;&#45;X1:w</title>
<path fill="none" stroke="#000000" stroke-width="2" d="M470.5,-69.75C534.62,-69.75 550.62,-70.75 614.5,-70.75"/>
<path fill="none" stroke="#000000" stroke-width="2" d="M470.5,-71.75C534.5,-71.75 550.5,-72.75 614.5,-72.75"/>
<path fill="none" stroke="#000000" stroke-width="2" d="M470.5,-73.75C534.38,-73.75 550.38,-74.75 614.5,-74.75"/>
</g>
<!-- W1&#45;&#45;X1 -->
<g id="edge9" class="edge">
<title>W1:e&#45;&#45;X1:w</title>
<path fill="none" stroke="#000000" stroke-width="2" d="M470.5,-43.75C534.88,-43.78 550.86,-46.78 614.5,-46.75"/>
<path fill="none" stroke="#ff0000" stroke-width="2" d="M470.5,-45.75C534.51,-45.75 550.49,-48.75 614.5,-48.75"/>
<path fill="none" stroke="#000000" stroke-width="2" d="M470.5,-47.75C534.14,-47.72 550.12,-50.72 614.5,-50.75"/>
</g>
<!-- __F1_2 -->
<g id="node4" class="node">
<title>__F1_2</title>
<polygon fill="#ffffff" stroke="black" points="189.5,-122.5 0,-122.5 0,-98 189.5,-98 189.5,-122.5"/>
<polygon fill="none" stroke="black" points="0,-98 0,-122.5 90.5,-122.5 90.5,-98 0,-98"/>
<text text-anchor="start" x="4" y="-105.2" font-family="arial" font-size="14.00">Crimp ferrule</text>
<polygon fill="none" stroke="black" points="90.5,-98 90.5,-122.5 151,-122.5 151,-98 90.5,-98"/>
<text text-anchor="start" x="94.5" y="-105.2" font-family="arial" font-size="14.00">0.5 mm²</text>
<polygon fill="none" stroke="black" points="151,-98 151,-122.5 181.5,-122.5 181.5,-98 151,-98"/>
<text text-anchor="start" x="155" y="-105.2" font-family="arial" font-size="14.00">OG</text>
<polygon fill="#ff8000" stroke="none" points="181.5,-98 181.5,-122.5 189.5,-122.5 189.5,-98 181.5,-98"/>
<polygon fill="none" stroke="black" points="181.5,-98 181.5,-122.5 189.5,-122.5 189.5,-98 181.5,-98"/>
</g>
<!-- __F1_2&#45;&#45;W1 -->
<g id="edge10" class="edge">
<title>__F1_2:e&#45;&#45;W1:w</title>
<path fill="none" stroke="#000000" stroke-width="2" d="M189.5,-108.25C252.49,-108.69 268.01,-96.19 333.5,-95.75"/>
<path fill="none" stroke="#000000" stroke-width="2" d="M189.5,-110.25C253.74,-110.25 269.26,-97.75 333.5,-97.75"/>
<path fill="none" stroke="#000000" stroke-width="2" d="M189.5,-112.25C254.99,-111.81 270.51,-99.31 333.5,-99.75"/>
</g>
<!-- __F1_3 -->
<g id="node5" class="node">
<title>__F1_3</title>
<polygon fill="#ffffff" stroke="black" points="189.5,-73.5 0,-73.5 0,-49 189.5,-49 189.5,-73.5"/>
<polygon fill="none" stroke="black" points="0,-49 0,-73.5 90.5,-73.5 90.5,-49 0,-49"/>
<text text-anchor="start" x="4" y="-56.2" font-family="arial" font-size="14.00">Crimp ferrule</text>
<polygon fill="none" stroke="black" points="90.5,-49 90.5,-73.5 151,-73.5 151,-49 90.5,-49"/>
<text text-anchor="start" x="94.5" y="-56.2" font-family="arial" font-size="14.00">0.5 mm²</text>
<polygon fill="none" stroke="black" points="151,-49 151,-73.5 181.5,-73.5 181.5,-49 151,-49"/>
<text text-anchor="start" x="155" y="-56.2" font-family="arial" font-size="14.00">OG</text>
<polygon fill="#ff8000" stroke="none" points="181.5,-49 181.5,-73.5 189.5,-73.5 189.5,-49 181.5,-49"/>
<polygon fill="none" stroke="black" points="181.5,-49 181.5,-73.5 189.5,-73.5 189.5,-49 181.5,-49"/>
</g>
<!-- __F1_3&#45;&#45;W1 -->
<g id="edge11" class="edge">
<title>__F1_3:e&#45;&#45;W1:w</title>
<path fill="none" stroke="#000000" stroke-width="2" d="M189.5,-59.25C254.78,-59.59 270.44,-70.09 333.5,-69.75"/>
<path fill="none" stroke="#000000" stroke-width="2" d="M189.5,-61.25C253.67,-61.25 269.33,-71.75 333.5,-71.75"/>
<path fill="none" stroke="#000000" stroke-width="2" d="M189.5,-63.25C252.56,-62.91 268.22,-73.41 333.5,-73.75"/>
</g>
<!-- __F1_4 -->
<g id="node6" class="node">
<title>__F1_4</title>
<polygon fill="#ffffff" stroke="black" points="189.5,-24.5 0,-24.5 0,0 189.5,0 189.5,-24.5"/>
<polygon fill="none" stroke="black" points="0,0 0,-24.5 90.5,-24.5 90.5,0 0,0"/>
<text text-anchor="start" x="4" y="-7.2" font-family="arial" font-size="14.00">Crimp ferrule</text>
<polygon fill="none" stroke="black" points="90.5,0 90.5,-24.5 151,-24.5 151,0 90.5,0"/>
<text text-anchor="start" x="94.5" y="-7.2" font-family="arial" font-size="14.00">0.5 mm²</text>
<polygon fill="none" stroke="black" points="151,0 151,-24.5 181.5,-24.5 181.5,0 151,0"/>
<text text-anchor="start" x="155" y="-7.2" font-family="arial" font-size="14.00">OG</text>
<polygon fill="#ff8000" stroke="none" points="181.5,0 181.5,-24.5 189.5,-24.5 189.5,0 181.5,0"/>
<polygon fill="none" stroke="black" points="181.5,0 181.5,-24.5 189.5,-24.5 189.5,0 181.5,0"/>
</g>
<!-- __F1_4&#45;&#45;W1 -->
<g id="edge12" class="edge">
<title>__F1_4:e&#45;&#45;W1:w</title>
<path fill="none" stroke="#000000" stroke-width="2" d="M189.5,-10.25C257.08,-11.55 269.66,-45.05 333.5,-43.75"/>
<path fill="none" stroke="#ff0000" stroke-width="2" d="M189.5,-12.25C255.21,-12.25 267.79,-45.75 333.5,-45.75"/>
<path fill="none" stroke="#000000" stroke-width="2" d="M189.5,-14.25C253.34,-12.95 265.92,-46.45 333.5,-47.75"/>
</g>
</g>
</svg>
