<?xml version="1.0" encoding="UTF-8" standalone="no"?>
<!DOCTYPE svg PUBLIC "-//W3C//DTD SVG 1.1//EN"
 "http://www.w3.org/Graphics/SVG/1.1/DTD/svg11.dtd">
<!-- Generated by graphviz version 2.44.0 (20200408.0750)
 -->
<!-- Pages: 1 -->
<svg width="782pt" height="236pt"
 viewBox="0.00 0.00 782.00 236.00" xmlns="http://www.w3.org/2000/svg" xmlns:xlink="http://www.w3.org/1999/xlink">
<g id="graph0" class="graph" transform="scale(1 1) rotate(0) translate(4 232)">
<polygon fill="white" stroke="transparent" points="-4,4 -4,-232 778,-232 778,4 -4,4"/>
<!-- X1 -->
<g id="node1" class="node">
<title>X1</title>
<polygon fill="white" stroke="transparent" points="774,-200 606,-200 606,-62 774,-62 774,-200"/>
<polygon fill="none" stroke="black" points="606,-177 606,-200 774,-200 774,-177 606,-177"/>
<text text-anchor="start" x="681.5" y="-184.8" font-family="arial" font-size="14.00">X1</text>
<polygon fill="none" stroke="black" points="606,-154 606,-177 685,-177 685,-154 606,-154"/>
<text text-anchor="start" x="610" y="-161.8" font-family="arial" font-size="14.00">Molex 8981</text>
<polygon fill="none" stroke="black" points="685,-154 685,-177 735,-177 735,-154 685,-154"/>
<text text-anchor="start" x="689" y="-161.8" font-family="arial" font-size="14.00">female</text>
<polygon fill="none" stroke="black" points="735,-154 735,-177 774,-177 774,-154 735,-154"/>
<text text-anchor="start" x="739" y="-161.8" font-family="arial" font-size="14.00">4&#45;pin</text>
<polygon fill="none" stroke="black" points="606,-131 606,-154 678,-154 678,-131 606,-131"/>
<text text-anchor="start" x="638" y="-138.8" font-family="arial" font-size="14.00">1</text>
<polygon fill="none" stroke="black" points="678,-131 678,-154 774,-154 774,-131 678,-131"/>
<text text-anchor="start" x="709.5" y="-138.8" font-family="arial" font-size="14.00">+12V</text>
<polygon fill="none" stroke="black" points="606,-108 606,-131 678,-131 678,-108 606,-108"/>
<text text-anchor="start" x="638" y="-115.8" font-family="arial" font-size="14.00">2</text>
<polygon fill="none" stroke="black" points="678,-108 678,-131 774,-131 774,-108 678,-108"/>
<text text-anchor="start" x="710.5" y="-115.8" font-family="arial" font-size="14.00">GND</text>
<polygon fill="none" stroke="black" points="606,-85 606,-108 678,-108 678,-85 606,-85"/>
<text text-anchor="start" x="638" y="-92.8" font-family="arial" font-size="14.00">3</text>
<polygon fill="none" stroke="black" points="678,-85 678,-108 774,-108 774,-85 678,-85"/>
<text text-anchor="start" x="710.5" y="-92.8" font-family="arial" font-size="14.00">GND</text>
<polygon fill="none" stroke="black" points="606,-62 606,-85 678,-85 678,-62 606,-62"/>
<text text-anchor="start" x="638" y="-69.8" font-family="arial" font-size="14.00">4</text>
<polygon fill="none" stroke="black" points="678,-62 678,-85 774,-85 774,-62 678,-62"/>
<text text-anchor="start" x="713.5" y="-69.8" font-family="arial" font-size="14.00">+5V</text>
</g>
<!-- _F1_1 -->
<g id="node2" class="node">
<title>_F1_1</title>
<polygon fill="white" stroke="transparent" points="192,-216 0,-216 0,-180 192,-180 192,-216"/>
<polygon fill="none" stroke="black" points="0,-186 0,-209 93,-209 93,-186 0,-186"/>
<text text-anchor="start" x="4" y="-193.8" font-family="arial" font-size="14.00">Ferrule, crimp</text>
<polygon fill="none" stroke="black" points="93,-186 93,-209 153,-209 153,-186 93,-186"/>
<text text-anchor="start" x="97" y="-193.8" font-family="arial" font-size="14.00">0.5 mm²</text>
<polygon fill="none" stroke="black" points="153,-186 153,-209 184,-209 184,-186 153,-186"/>
<text text-anchor="start" x="157" y="-193.8" font-family="arial" font-size="14.00">OG</text>
<polygon fill="#ff8000" stroke="transparent" points="184,-186 184,-209 192,-209 192,-186 184,-186"/>
<polygon fill="none" stroke="black" points="184,-186 184,-209 192,-209 192,-186 184,-186"/>
</g>
<!-- W1 -->
<g id="node6" class="node">
<title>W1</title>
<polygon fill="white" stroke="black" stroke-dasharray="5,2" points="462,-228 336,-228 336,-48 462,-48 462,-228"/>
<polygon fill="none" stroke="black" points="336,-205 336,-228 462,-228 462,-205 336,-205"/>
<text text-anchor="start" x="388" y="-212.8" font-family="arial" font-size="14.00">W1</text>
<polygon fill="none" stroke="black" points="336,-182 336,-205 359,-205 359,-182 336,-182"/>
<text text-anchor="start" x="340" y="-189.8" font-family="arial" font-size="14.00">4x</text>
<polygon fill="none" stroke="black" points="359,-182 359,-205 419,-205 419,-182 359,-182"/>
<text text-anchor="start" x="363" y="-189.8" font-family="arial" font-size="14.00">0.5 mm²</text>
<polygon fill="none" stroke="black" points="419,-182 419,-205 462,-205 462,-182 419,-182"/>
<text text-anchor="start" x="423" y="-189.8" font-family="arial" font-size="14.00">0.3 m</text>
<text text-anchor="start" x="397" y="-170.8" font-family="arial" font-size="14.00"> </text>
<text text-anchor="start" x="378" y="-153.8" font-family="arial" font-size="14.00">YE</text>
<text text-anchor="start" x="422" y="-153.8" font-family="arial" font-size="14.00">X1:1</text>
<polygon fill="#000000" stroke="transparent" points="336,-146 336,-148 462,-148 462,-146 336,-146"/>
<polygon fill="#ffff00" stroke="transparent" points="336,-144 336,-146 462,-146 462,-144 336,-144"/>
<polygon fill="#000000" stroke="transparent" points="336,-142 336,-144 462,-144 462,-142 336,-142"/>
<text text-anchor="start" x="378" y="-128.8" font-family="arial" font-size="14.00">BK</text>
<text text-anchor="start" x="422" y="-128.8" font-family="arial" font-size="14.00">X1:2</text>
<polygon fill="#000000" stroke="transparent" points="336,-121 336,-123 462,-123 462,-121 336,-121"/>
<polygon fill="#000000" stroke="transparent" points="336,-119 336,-121 462,-121 462,-119 336,-119"/>
<polygon fill="#000000" stroke="transparent" points="336,-117 336,-119 462,-119 462,-117 336,-117"/>
<text text-anchor="start" x="378" y="-103.8" font-family="arial" font-size="14.00">BK</text>
<text text-anchor="start" x="422" y="-103.8" font-family="arial" font-size="14.00">X1:3</text>
<polygon fill="#000000" stroke="transparent" points="336,-96 336,-98 462,-98 462,-96 336,-96"/>
<polygon fill="#000000" stroke="transparent" points="336,-94 336,-96 462,-96 462,-94 336,-94"/>
<polygon fill="#000000" stroke="transparent" points="336,-92 336,-94 462,-94 462,-92 336,-92"/>
<text text-anchor="start" x="377.5" y="-78.8" font-family="arial" font-size="14.00">RD</text>
<text text-anchor="start" x="422" y="-78.8" font-family="arial" font-size="14.00">X1:4</text>
<polygon fill="#000000" stroke="transparent" points="336,-71 336,-73 462,-73 462,-71 336,-71"/>
<polygon fill="#ff0000" stroke="transparent" points="336,-69 336,-71 462,-71 462,-69 336,-69"/>
<polygon fill="#000000" stroke="transparent" points="336,-67 336,-69 462,-69 462,-67 336,-67"/>
<text text-anchor="start" x="348.5" y="-53.8" font-family="arial" font-size="14.00"> </text>
</g>
<!-- _F1_1&#45;&#45;W1 -->
<g id="edge1" class="edge">
<title>_F1_1:e&#45;&#45;W1:w</title>
<path fill="none" stroke="#000000" stroke-width="2" d="M192,-196C258.22,-197.72 265.82,-144.72 336,-143"/>
<path fill="none" stroke="#ffff00" stroke-width="2" d="M192,-198C260.2,-198 267.8,-145 336,-145"/>
<path fill="none" stroke="#000000" stroke-width="2" d="M192,-200C262.18,-198.28 269.78,-145.28 336,-147"/>
</g>
<!-- _F1_2 -->
<g id="node3" class="node">
<title>_F1_2</title>
<polygon fill="white" stroke="transparent" points="192,-156 0,-156 0,-120 192,-120 192,-156"/>
<polygon fill="none" stroke="black" points="0,-126 0,-149 93,-149 93,-126 0,-126"/>
<text text-anchor="start" x="4" y="-133.8" font-family="arial" font-size="14.00">Ferrule, crimp</text>
<polygon fill="none" stroke="black" points="93,-126 93,-149 153,-149 153,-126 93,-126"/>
<text text-anchor="start" x="97" y="-133.8" font-family="arial" font-size="14.00">0.5 mm²</text>
<polygon fill="none" stroke="black" points="153,-126 153,-149 184,-149 184,-126 153,-126"/>
<text text-anchor="start" x="157" y="-133.8" font-family="arial" font-size="14.00">OG</text>
<polygon fill="#ff8000" stroke="transparent" points="184,-126 184,-149 192,-149 192,-126 184,-126"/>
<polygon fill="none" stroke="black" points="184,-126 184,-149 192,-149 192,-126 184,-126"/>
</g>
<!-- _F1_2&#45;&#45;W1 -->
<g id="edge2" class="edge">
<title>_F1_2:e&#45;&#45;W1:w</title>
<path fill="none" stroke="#000000" stroke-width="2" d="M192,-136C254.96,-136.72 269.97,-118.72 336,-118"/>
<path fill="none" stroke="#000000" stroke-width="2" d="M192,-138C256.5,-138 271.5,-120 336,-120"/>
<path fill="none" stroke="#000000" stroke-width="2" d="M192,-140C258.03,-139.28 273.04,-121.28 336,-122"/>
</g>
<!-- _F1_3 -->
<g id="node4" class="node">
<title>_F1_3</title>
<polygon fill="white" stroke="transparent" points="192,-96 0,-96 0,-60 192,-60 192,-96"/>
<polygon fill="none" stroke="black" points="0,-66 0,-89 93,-89 93,-66 0,-66"/>
<text text-anchor="start" x="4" y="-73.8" font-family="arial" font-size="14.00">Ferrule, crimp</text>
<polygon fill="none" stroke="black" points="93,-66 93,-89 153,-89 153,-66 93,-66"/>
<text text-anchor="start" x="97" y="-73.8" font-family="arial" font-size="14.00">0.5 mm²</text>
<polygon fill="none" stroke="black" points="153,-66 153,-89 184,-89 184,-66 153,-66"/>
<text text-anchor="start" x="157" y="-73.8" font-family="arial" font-size="14.00">OG</text>
<polygon fill="#ff8000" stroke="transparent" points="184,-66 184,-89 192,-89 192,-66 184,-66"/>
<polygon fill="none" stroke="black" points="184,-66 184,-89 192,-89 192,-66 184,-66"/>
</g>
<!-- _F1_3&#45;&#45;W1 -->
<g id="edge3" class="edge">
<title>_F1_3:e&#45;&#45;W1:w</title>
<path fill="none" stroke="#000000" stroke-width="2" d="M192,-76C257.94,-76.67 273.05,-93.67 336,-93"/>
<path fill="none" stroke="#000000" stroke-width="2" d="M192,-78C256.44,-78 271.56,-95 336,-95"/>
<path fill="none" stroke="#000000" stroke-width="2" d="M192,-80C254.95,-79.33 270.06,-96.33 336,-97"/>
</g>
<!-- _F1_4 -->
<g id="node5" class="node">
<title>_F1_4</title>
<polygon fill="white" stroke="transparent" points="192,-36 0,-36 0,0 192,0 192,-36"/>
<polygon fill="none" stroke="black" points="0,-6 0,-29 93,-29 93,-6 0,-6"/>
<text text-anchor="start" x="4" y="-13.8" font-family="arial" font-size="14.00">Ferrule, crimp</text>
<polygon fill="none" stroke="black" points="93,-6 93,-29 153,-29 153,-6 93,-6"/>
<text text-anchor="start" x="97" y="-13.8" font-family="arial" font-size="14.00">0.5 mm²</text>
<polygon fill="none" stroke="black" points="153,-6 153,-29 184,-29 184,-6 153,-6"/>
<text text-anchor="start" x="157" y="-13.8" font-family="arial" font-size="14.00">OG</text>
<polygon fill="#ff8000" stroke="transparent" points="184,-6 184,-29 192,-29 192,-6 184,-6"/>
<polygon fill="none" stroke="black" points="184,-6 184,-29 192,-29 192,-6 184,-6"/>
</g>
<!-- _F1_4&#45;&#45;W1 -->
<g id="edge4" class="edge">
<title>_F1_4:e&#45;&#45;W1:w</title>
<path fill="none" stroke="#000000" stroke-width="2" d="M192,-16C262.02,-17.7 269.93,-69.7 336,-68"/>
<path fill="none" stroke="#ff0000" stroke-width="2" d="M192,-18C260.05,-18 267.95,-70 336,-70"/>
<path fill="none" stroke="#000000" stroke-width="2" d="M192,-20C258.07,-18.3 265.98,-70.3 336,-72"/>
</g>
<!-- W1&#45;&#45;X1 -->
<g id="edge5" class="edge">
<title>W1:e&#45;&#45;X1:w</title>
<path fill="none" stroke="#000000" stroke-width="2" d="M462,-143C525.76,-143.02 541.75,-141.02 606,-141"/>
<path fill="none" stroke="#ffff00" stroke-width="2" d="M462,-145C526.01,-145 541.99,-143 606,-143"/>
<path fill="none" stroke="#000000" stroke-width="2" d="M462,-147C526.25,-146.98 542.24,-144.98 606,-145"/>
</g>
<!-- W1&#45;&#45;X1 -->
<g id="edge6" class="edge">
<title>W1:e&#45;&#45;X1:w</title>
<path fill="none" stroke="#000000" stroke-width="2" d="M462,-118C525.88,-118 541.87,-117 606,-117"/>
<path fill="none" stroke="#000000" stroke-width="2" d="M462,-120C526,-120 542,-119 606,-119"/>
<path fill="none" stroke="#000000" stroke-width="2" d="M462,-122C526.13,-122 542.12,-121 606,-121"/>
</g>
<!-- W1&#45;&#45;X1 -->
<g id="edge7" class="edge">
<title>W1:e&#45;&#45;X1:w</title>
<path fill="none" stroke="#000000" stroke-width="2" d="M462,-93C526.13,-93 542.12,-94 606,-94"/>
<path fill="none" stroke="#000000" stroke-width="2" d="M462,-95C526,-95 542,-96 606,-96"/>
<path fill="none" stroke="#000000" stroke-width="2" d="M462,-97C525.88,-97 541.87,-98 606,-98"/>
</g>
<!-- W1&#45;&#45;X1 -->
<g id="edge8" class="edge">
<title>W1:e&#45;&#45;X1:w</title>
<path fill="none" stroke="#000000" stroke-width="2" d="M462,-68C526.38,-68.03 542.36,-71.03 606,-71"/>
<path fill="none" stroke="#ff0000" stroke-width="2" d="M462,-70C526.01,-70 541.99,-73 606,-73"/>
<path fill="none" stroke="#000000" stroke-width="2" d="M462,-72C525.64,-71.97 541.62,-74.97 606,-75"/>
</g>
</g>
</svg>
