<?xml version="1.0" encoding="UTF-8" standalone="no"?>
<!DOCTYPE svg PUBLIC "-//W3C//DTD SVG 1.1//EN"
 "http://www.w3.org/Graphics/SVG/1.1/DTD/svg11.dtd">
<!-- Generated by graphviz version 2.44.0 (20200408.0750)
 -->
<!-- Pages: 1 -->
<svg width="472pt" height="188pt"
 viewBox="0.00 0.00 472.00 188.00" xmlns="http://www.w3.org/2000/svg" xmlns:xlink="http://www.w3.org/1999/xlink">
<g id="graph0" class="graph" transform="scale(1 1) rotate(0) translate(4 184)">
<polygon fill="white" stroke="transparent" points="-4,4 -4,-184 468,-184 468,4 -4,4"/>
<!-- X1 -->
<g id="node1" class="node">
<title>X1</title>
<polygon fill="white" stroke="transparent" points="54,-152 0,-152 0,-14 54,-14 54,-152"/>
<polygon fill="none" stroke="black" points="8,-129 8,-152 47,-152 47,-129 8,-129"/>
<text text-anchor="start" x="19" y="-136.8" font-family="arial" font-size="14.00">X1</text>
<polygon fill="none" stroke="black" points="8,-106 8,-129 47,-129 47,-106 8,-106"/>
<text text-anchor="start" x="12" y="-113.8" font-family="arial" font-size="14.00">4&#45;pin</text>
<polygon fill="none" stroke="black" points="8,-83 8,-106 47,-106 47,-83 8,-83"/>
<text text-anchor="start" x="23.5" y="-90.8" font-family="arial" font-size="14.00">1</text>
<polygon fill="none" stroke="black" points="8,-60 8,-83 47,-83 47,-60 8,-60"/>
<text text-anchor="start" x="23.5" y="-67.8" font-family="arial" font-size="14.00">2</text>
<polygon fill="none" stroke="black" points="8,-37 8,-60 47,-60 47,-37 8,-37"/>
<text text-anchor="start" x="23.5" y="-44.8" font-family="arial" font-size="14.00">3</text>
<polygon fill="none" stroke="black" points="8,-14 8,-37 47,-37 47,-14 8,-14"/>
<text text-anchor="start" x="23.5" y="-21.8" font-family="arial" font-size="14.00">4</text>
</g>
<!-- W1 -->
<g id="node3" class="node">
<title>W1</title>
<polygon fill="none" stroke="black" points="266,-180 198,-180 198,0 266,0 266,-180"/>
<polygon fill="none" stroke="black" points="198,-157 198,-180 266,-180 266,-157 198,-157"/>
<text text-anchor="start" x="221" y="-164.8" font-family="arial" font-size="14.00">W1</text>
<polygon fill="none" stroke="black" points="198,-134 198,-157 228,-157 228,-134 198,-134"/>
<text text-anchor="start" x="205.5" y="-141.8" font-family="arial" font-size="14.00">4x</text>
<polygon fill="none" stroke="black" points="228,-134 228,-157 266,-157 266,-134 228,-134"/>
<text text-anchor="start" x="235" y="-141.8" font-family="arial" font-size="14.00">1 m</text>
<text text-anchor="start" x="230" y="-122.8" font-family="arial" font-size="14.00"> </text>
<text text-anchor="start" x="200" y="-105.8" font-family="arial" font-size="14.00">X1:1</text>
<text text-anchor="start" x="236" y="-105.8" font-family="arial" font-size="14.00">X2:1</text>
<polygon fill="#000000" stroke="transparent" points="198,-98 198,-100 266,-100 266,-98 198,-98"/>
<polygon fill="#ffffff" stroke="transparent" points="198,-96 198,-98 266,-98 266,-96 198,-96"/>
<polygon fill="#000000" stroke="transparent" points="198,-94 198,-96 266,-96 266,-94 198,-94"/>
<text text-anchor="start" x="200" y="-80.8" font-family="arial" font-size="14.00">X1:2</text>
<text text-anchor="start" x="236" y="-80.8" font-family="arial" font-size="14.00">X2:2</text>
<polygon fill="#000000" stroke="transparent" points="198,-73 198,-75 266,-75 266,-73 198,-73"/>
<polygon fill="#ffffff" stroke="transparent" points="198,-71 198,-73 266,-73 266,-71 198,-71"/>
<polygon fill="#000000" stroke="transparent" points="198,-69 198,-71 266,-71 266,-69 198,-69"/>
<text text-anchor="start" x="200" y="-55.8" font-family="arial" font-size="14.00">X1:3</text>
<text text-anchor="start" x="236" y="-55.8" font-family="arial" font-size="14.00">X2:3</text>
<polygon fill="#000000" stroke="transparent" points="198,-48 198,-50 266,-50 266,-48 198,-48"/>
<polygon fill="#ffffff" stroke="transparent" points="198,-46 198,-48 266,-48 266,-46 198,-46"/>
<polygon fill="#000000" stroke="transparent" points="198,-44 198,-46 266,-46 266,-44 198,-44"/>
<text text-anchor="start" x="200" y="-30.8" font-family="arial" font-size="14.00">X1:4</text>
<text text-anchor="start" x="236" y="-30.8" font-family="arial" font-size="14.00">X2:4</text>
<polygon fill="#000000" stroke="transparent" points="198,-23 198,-25 266,-25 266,-23 198,-23"/>
<polygon fill="#ffffff" stroke="transparent" points="198,-21 198,-23 266,-23 266,-21 198,-21"/>
<polygon fill="#000000" stroke="transparent" points="198,-19 198,-21 266,-21 266,-19 198,-19"/>
<text text-anchor="start" x="212" y="-5.8" font-family="arial" font-size="14.00"> </text>
</g>
<!-- X1&#45;&#45;W1 -->
<g id="edge1" class="edge">
<title>X1:e&#45;&#45;W1:w</title>
<path fill="none" stroke="#000000" stroke-width="2" d="M48,-93C114.91,-93.01 131.57,-95.01 198,-95"/>
<path fill="none" stroke="#ffffff" stroke-width="2" d="M48,-95C114.67,-95 131.33,-97 198,-97"/>
<path fill="none" stroke="#000000" stroke-width="2" d="M48,-97C114.43,-96.99 131.09,-98.99 198,-99"/>
</g>
<!-- X1&#45;&#45;W1 -->
<g id="edge3" class="edge">
<title>X1:e&#45;&#45;W1:w</title>
<path fill="none" stroke="#000000" stroke-width="2" d="M48,-69C114.79,-69 131.45,-70 198,-70"/>
<path fill="none" stroke="#ffffff" stroke-width="2" d="M48,-71C114.67,-71 131.33,-72 198,-72"/>
<path fill="none" stroke="#000000" stroke-width="2" d="M48,-73C114.55,-73 131.21,-74 198,-74"/>
</g>
<!-- X1&#45;&#45;W1 -->
<g id="edge5" class="edge">
<title>X1:e&#45;&#45;W1:w</title>
<path fill="none" stroke="#000000" stroke-width="2" d="M48,-46C114.55,-46 131.21,-45 198,-45"/>
<path fill="none" stroke="#ffffff" stroke-width="2" d="M48,-48C114.67,-48 131.33,-47 198,-47"/>
<path fill="none" stroke="#000000" stroke-width="2" d="M48,-50C114.79,-50 131.45,-49 198,-49"/>
</g>
<!-- X1&#45;&#45;W1 -->
<g id="edge7" class="edge">
<title>X1:e&#45;&#45;W1:w</title>
<path fill="none" stroke="#000000" stroke-width="2" d="M48,-23C114.33,-23.03 130.97,-20.03 198,-20"/>
<path fill="none" stroke="#ffffff" stroke-width="2" d="M48,-25C114.68,-25 131.32,-22 198,-22"/>
<path fill="none" stroke="#000000" stroke-width="2" d="M48,-27C115.03,-26.97 131.67,-23.97 198,-24"/>
</g>
<!-- X2 -->
<g id="node2" class="node">
<title>X2</title>
<polygon fill="white" stroke="transparent" points="464,-152 410,-152 410,-14 464,-14 464,-152"/>
<polygon fill="none" stroke="black" points="418,-129 418,-152 457,-152 457,-129 418,-129"/>
<text text-anchor="start" x="429" y="-136.8" font-family="arial" font-size="14.00">X2</text>
<polygon fill="none" stroke="black" points="418,-106 418,-129 457,-129 457,-106 418,-106"/>
<text text-anchor="start" x="422" y="-113.8" font-family="arial" font-size="14.00">4&#45;pin</text>
<polygon fill="none" stroke="black" points="418,-83 418,-106 457,-106 457,-83 418,-83"/>
<text text-anchor="start" x="433.5" y="-90.8" font-family="arial" font-size="14.00">1</text>
<polygon fill="none" stroke="black" points="418,-60 418,-83 457,-83 457,-60 418,-60"/>
<text text-anchor="start" x="433.5" y="-67.8" font-family="arial" font-size="14.00">2</text>
<polygon fill="none" stroke="black" points="418,-37 418,-60 457,-60 457,-37 418,-37"/>
<text text-anchor="start" x="433.5" y="-44.8" font-family="arial" font-size="14.00">3</text>
<polygon fill="none" stroke="black" points="418,-14 418,-37 457,-37 457,-14 418,-14"/>
<text text-anchor="start" x="433.5" y="-21.8" font-family="arial" font-size="14.00">4</text>
</g>
<!-- W1&#45;&#45;X2 -->
<g id="edge2" class="edge">
<title>W1:e&#45;&#45;X2:w</title>
<path fill="none" stroke="#000000" stroke-width="2" d="M266,-95C332.88,-95.01 349.65,-93.01 417,-93"/>
<path fill="none" stroke="#ffffff" stroke-width="2" d="M266,-97C333.12,-97 349.88,-95 417,-95"/>
<path fill="none" stroke="#000000" stroke-width="2" d="M266,-99C333.35,-98.99 350.12,-96.99 417,-97"/>
</g>
<!-- W1&#45;&#45;X2 -->
<g id="edge4" class="edge">
<title>W1:e&#45;&#45;X2:w</title>
<path fill="none" stroke="#000000" stroke-width="2" d="M266,-70C332.99,-70 349.77,-69 417,-69"/>
<path fill="none" stroke="#ffffff" stroke-width="2" d="M266,-72C333.11,-72 349.89,-71 417,-71"/>
<path fill="none" stroke="#000000" stroke-width="2" d="M266,-74C333.23,-74 350.01,-73 417,-73"/>
</g>
<!-- W1&#45;&#45;X2 -->
<g id="edge6" class="edge">
<title>W1:e&#45;&#45;X2:w</title>
<path fill="none" stroke="#000000" stroke-width="2" d="M266,-45C333.23,-45 350.01,-46 417,-46"/>
<path fill="none" stroke="#ffffff" stroke-width="2" d="M266,-47C333.11,-47 349.89,-48 417,-48"/>
<path fill="none" stroke="#000000" stroke-width="2" d="M266,-49C332.99,-49 349.77,-50 417,-50"/>
</g>
<!-- W1&#45;&#45;X2 -->
<g id="edge8" class="edge">
<title>W1:e&#45;&#45;X2:w</title>
<path fill="none" stroke="#000000" stroke-width="2" d="M266,-20C333.48,-20.03 350.23,-23.03 417,-23"/>
<path fill="none" stroke="#ffffff" stroke-width="2" d="M266,-22C333.12,-22 349.88,-25 417,-25"/>
<path fill="none" stroke="#000000" stroke-width="2" d="M266,-24C332.77,-23.97 349.52,-26.97 417,-27"/>
</g>
</g>
</svg>
