<?xml version="1.0" encoding="UTF-8" standalone="no"?>
<!DOCTYPE svg PUBLIC "-//W3C//DTD SVG 1.1//EN"
 "http://www.w3.org/Graphics/SVG/1.1/DTD/svg11.dtd">
<!-- Generated by graphviz version 2.40.1 (20161225.0304)
 -->
<!-- Title: %3 Pages: 1 -->
<svg width="1017pt" height="508pt"
 viewBox="0.00 0.00 1017.00 507.50" xmlns="http://www.w3.org/2000/svg" xmlns:xlink="http://www.w3.org/1999/xlink">
<g id="graph0" class="graph" transform="scale(1 1) rotate(0) translate(4 503.5)">
<title>%3</title>
<polygon fill="#ffffff" stroke="transparent" points="-4,4 -4,-503.5 1013,-503.5 1013,4 -4,4"/>
<!-- X1 -->
<g id="node1" class="node">
<title>X1</title>
<polygon fill="#ffffff" stroke="#000000" points="0,-207.5 0,-368.5 216,-368.5 216,-207.5 0,-207.5"/>
<text text-anchor="middle" x="108" y="-353.3" font-family="arial" font-size="14.00" fill="#000000">X1</text>
<polyline fill="none" stroke="#000000" points="0,-345.5 216,-345.5 "/>
<text text-anchor="middle" x="37.5" y="-330.3" font-family="arial" font-size="14.00" fill="#000000">Molex</text>
<polyline fill="none" stroke="#000000" points="75,-322.5 75,-345.5 "/>
<text text-anchor="middle" x="145.5" y="-330.3" font-family="arial" font-size="14.00" fill="#000000">MPN: 22013047</text>
<polyline fill="none" stroke="#000000" points="0,-322.5 216,-322.5 "/>
<text text-anchor="middle" x="53.5" y="-307.3" font-family="arial" font-size="14.00" fill="#000000">Molex KK 254</text>
<polyline fill="none" stroke="#000000" points="107,-299.5 107,-322.5 "/>
<text text-anchor="middle" x="137" y="-307.3" font-family="arial" font-size="14.00" fill="#000000">female</text>
<polyline fill="none" stroke="#000000" points="167,-299.5 167,-322.5 "/>
<text text-anchor="middle" x="191.5" y="-307.3" font-family="arial" font-size="14.00" fill="#000000">4&#45;pin</text>
<polyline fill="none" stroke="#000000" points="0,-299.5 216,-299.5 "/>
<text text-anchor="middle" x="108" y="-284.3" font-family="arial" font-size="14.00" fill="#000000">1</text>
<polyline fill="none" stroke="#000000" points="0,-276.5 216,-276.5 "/>
<text text-anchor="middle" x="108" y="-261.3" font-family="arial" font-size="14.00" fill="#000000">2</text>
<polyline fill="none" stroke="#000000" points="0,-253.5 216,-253.5 "/>
<text text-anchor="middle" x="108" y="-238.3" font-family="arial" font-size="14.00" fill="#000000">3</text>
<polyline fill="none" stroke="#000000" points="0,-230.5 216,-230.5 "/>
<text text-anchor="middle" x="108" y="-215.3" font-family="arial" font-size="14.00" fill="#000000">4</text>
</g>
<!-- W1 -->
<g id="node4" class="node">
<title>W1</title>
<polygon fill="none" stroke="#000000" points="597.5,-499.5 360.5,-499.5 360.5,-296.5 597.5,-296.5 597.5,-499.5"/>
<polygon fill="none" stroke="#000000" points="361,-476 361,-499 598,-499 598,-476 361,-476"/>
<text text-anchor="start" x="468.5" y="-483.8" font-family="arial" font-size="14.00" fill="#000000">W1</text>
<polygon fill="none" stroke="#000000" points="361,-453 361,-476 598,-476 598,-453 361,-453"/>
<text text-anchor="start" x="365" y="-460.8" font-family="arial" font-size="14.00" fill="#000000">CablesCo</text>
<text text-anchor="start" x="430" y="-460.8" font-family="arial" font-size="14.00" fill="#000000">MPN: ABC123</text>
<text text-anchor="start" x="524" y="-460.8" font-family="arial" font-size="14.00" fill="#000000">IPN: CAB1</text>
<polygon fill="none" stroke="#000000" points="361,-430 361,-453 440,-453 440,-430 361,-430"/>
<text text-anchor="start" x="392.5" y="-437.8" font-family="arial" font-size="14.00" fill="#000000">4x</text>
<polygon fill="none" stroke="#000000" points="440,-430 440,-453 537,-453 537,-430 440,-430"/>
<text text-anchor="start" x="458" y="-437.8" font-family="arial" font-size="14.00" fill="#000000">0.25 mm²</text>
<polygon fill="none" stroke="#000000" points="537,-430 537,-453 598,-453 598,-430 537,-430"/>
<text text-anchor="start" x="555" y="-437.8" font-family="arial" font-size="14.00" fill="#000000">1 m</text>
<text text-anchor="start" x="477.5" y="-418.8" font-family="arial" font-size="14.00" fill="#000000"> </text>
<text text-anchor="start" x="386.5" y="-401.8" font-family="arial" font-size="14.00" fill="#000000">X1:1</text>
<text text-anchor="start" x="469.5" y="-401.8" font-family="arial" font-size="14.00" fill="#000000">BN</text>
<text text-anchor="start" x="542" y="-401.8" font-family="arial" font-size="14.00" fill="#000000">X2:1</text>
<polygon fill="#666600" stroke="transparent" points="361,-390 361,-396 598,-396 598,-390 361,-390"/>
<polyline fill="none" stroke="#000000" stroke-width="2" points="362,-391 597,-391 "/>
<polyline fill="none" stroke="#000000" stroke-width="2" points="597,-395 362,-395 "/>
<text text-anchor="start" x="386.5" y="-376.8" font-family="arial" font-size="14.00" fill="#000000">X1:2</text>
<text text-anchor="start" x="469" y="-376.8" font-family="arial" font-size="14.00" fill="#000000">RD</text>
<text text-anchor="start" x="542" y="-376.8" font-family="arial" font-size="14.00" fill="#000000">X2:2</text>
<polygon fill="#ff0000" stroke="transparent" stroke-width="2" points="361,-365 361,-371 598,-371 598,-365 361,-365"/>
<polyline fill="none" stroke="#000000" stroke-width="2" points="362,-366 597,-366 "/>
<polyline fill="none" stroke="#000000" stroke-width="2" points="597,-370 362,-370 "/>
<text text-anchor="start" x="386.5" y="-351.8" font-family="arial" font-size="14.00" fill="#000000">X1:3</text>
<text text-anchor="start" x="468.5" y="-351.8" font-family="arial" font-size="14.00" fill="#000000">OG</text>
<text text-anchor="start" x="542" y="-351.8" font-family="arial" font-size="14.00" fill="#000000">X2:3</text>
<polygon fill="#ff8000" stroke="transparent" stroke-width="2" points="361,-340 361,-346 598,-346 598,-340 361,-340"/>
<polyline fill="none" stroke="#000000" stroke-width="2" points="362,-341 597,-341 "/>
<polyline fill="none" stroke="#000000" stroke-width="2" points="597,-345 362,-345 "/>
<text text-anchor="start" x="386.5" y="-326.8" font-family="arial" font-size="14.00" fill="#000000">X1:4</text>
<text text-anchor="start" x="470" y="-326.8" font-family="arial" font-size="14.00" fill="#000000">YE</text>
<text text-anchor="start" x="542" y="-326.8" font-family="arial" font-size="14.00" fill="#000000">X2:4</text>
<polygon fill="#ffff00" stroke="transparent" stroke-width="2" points="361,-315 361,-321 598,-321 598,-315 361,-315"/>
<polyline fill="none" stroke="#000000" stroke-width="2" points="362,-316 597,-316 "/>
<polyline fill="none" stroke="#000000" stroke-width="2" points="597,-320 362,-320 "/>
<text text-anchor="start" x="400" y="-301.8" font-family="arial" font-size="14.00" fill="#000000"> </text>
</g>
<!-- X1&#45;&#45;W1 -->
<g id="edge1" class="edge">
<title>X1:e&#45;&#45;W1:w</title>
<path fill="none" stroke="#000000" stroke-width="2" d="M216,-286C297.5489,-288.2668 283.4154,-393.2668 361,-391"/>
<path fill="none" stroke="#666600" stroke-width="2" d="M216,-288C295.5667,-288 281.4333,-393 361,-393"/>
<path fill="none" stroke="#000000" stroke-width="2" d="M216,-290C293.5846,-287.7332 279.4511,-392.7332 361,-395"/>
</g>
<!-- X1&#45;&#45;W1 -->
<g id="edge3" class="edge">
<title>X1:e&#45;&#45;W1:w</title>
<path fill="none" stroke="#000000" stroke-width="2" d="M216,-263C297.0327,-265.2523 283.9354,-368.2523 361,-366"/>
<path fill="none" stroke="#ff0000" stroke-width="2" d="M216,-265C295.0487,-265 281.9513,-368 361,-368"/>
<path fill="none" stroke="#000000" stroke-width="2" d="M216,-267C293.0646,-264.7477 279.9673,-367.7477 361,-370"/>
</g>
<!-- X1&#45;&#45;W1 -->
<g id="edge5" class="edge">
<title>X1:e&#45;&#45;W1:w</title>
<path fill="none" stroke="#000000" stroke-width="2" d="M216,-240C296.5231,-242.2374 284.4486,-343.2374 361,-341"/>
<path fill="none" stroke="#ff8000" stroke-width="2" d="M216,-242C294.5372,-242 282.4628,-343 361,-343"/>
<path fill="none" stroke="#000000" stroke-width="2" d="M216,-244C292.5514,-241.7626 280.4769,-342.7626 361,-345"/>
</g>
<!-- X1&#45;&#45;W1 -->
<g id="edge7" class="edge">
<title>X1:e&#45;&#45;W1:w</title>
<path fill="none" stroke="#000000" stroke-width="2" d="M216,-217C296.0202,-219.2222 284.955,-318.2222 361,-316"/>
<path fill="none" stroke="#ffff00" stroke-width="2" d="M216,-219C294.0326,-219 282.9674,-318 361,-318"/>
<path fill="none" stroke="#000000" stroke-width="2" d="M216,-221C292.045,-218.7778 280.9798,-317.7778 361,-320"/>
</g>
<!-- W2 -->
<g id="node5" class="node">
<title>W2</title>
<polygon fill="#ffffff" stroke="#000000" stroke-dasharray="5,2" points="598,-272 360,-272 360,0 598,0 598,-272"/>
<polygon fill="none" stroke="#000000" points="360,-249 360,-272 598,-272 598,-249 360,-249"/>
<text text-anchor="start" x="468" y="-256.8" font-family="arial" font-size="14.00" fill="#000000">W2</text>
<polygon fill="none" stroke="#000000" points="360,-226 360,-249 422,-249 422,-226 360,-226"/>
<text text-anchor="start" x="383" y="-233.8" font-family="arial" font-size="14.00" fill="#000000">4x</text>
<polygon fill="none" stroke="#000000" points="422,-226 422,-249 528,-249 528,-226 422,-226"/>
<text text-anchor="start" x="444.5" y="-233.8" font-family="arial" font-size="14.00" fill="#000000">0.25 mm²</text>
<polygon fill="none" stroke="#000000" points="528,-226 528,-249 598,-249 598,-226 528,-226"/>
<text text-anchor="start" x="550.5" y="-233.8" font-family="arial" font-size="14.00" fill="#000000">1 m</text>
<text text-anchor="start" x="477" y="-214.8" font-family="arial" font-size="14.00" fill="#000000"> </text>
<text text-anchor="start" x="397.5" y="-197.8" font-family="arial" font-size="14.00" fill="#000000">X1:1</text>
<text text-anchor="start" x="486.5" y="-197.8" font-family="arial" font-size="14.00" fill="#000000">YE</text>
<text text-anchor="start" x="547" y="-197.8" font-family="arial" font-size="14.00" fill="#000000">X3:1</text>
<polygon fill="#ffff00" stroke="transparent" points="360,-186 360,-192 598,-192 598,-186 360,-186"/>
<polyline fill="none" stroke="#000000" stroke-width="2" points="361,-187 597,-187 "/>
<polyline fill="none" stroke="#000000" stroke-width="2" points="597,-191 361,-191 "/>
<text text-anchor="start" x="364.5" y="-170.8" font-family="arial" font-size="14.00" fill="#000000">WiresCo</text>
<text text-anchor="start" x="425.5" y="-170.8" font-family="arial" font-size="14.00" fill="#000000">MPN: W1&#45;YE</text>
<text text-anchor="start" x="516" y="-170.8" font-family="arial" font-size="14.00" fill="#000000">IPN: WIRE1</text>
<text text-anchor="start" x="397.5" y="-149.8" font-family="arial" font-size="14.00" fill="#000000">X1:2</text>
<text text-anchor="start" x="486.5" y="-149.8" font-family="arial" font-size="14.00" fill="#000000">BK</text>
<text text-anchor="start" x="547" y="-149.8" font-family="arial" font-size="14.00" fill="#000000">X3:2</text>
<polygon fill="#000000" stroke="transparent" points="360,-138 360,-144 598,-144 598,-138 360,-138"/>
<polyline fill="none" stroke="#000000" stroke-width="2" points="361,-139 597,-139 "/>
<polyline fill="none" stroke="#000000" stroke-width="2" points="597,-143 361,-143 "/>
<text text-anchor="start" x="364.5" y="-122.8" font-family="arial" font-size="14.00" fill="#000000">WiresCo</text>
<text text-anchor="start" x="425.5" y="-122.8" font-family="arial" font-size="14.00" fill="#000000">MPN: W1&#45;BK</text>
<text text-anchor="start" x="516" y="-122.8" font-family="arial" font-size="14.00" fill="#000000">IPN: WIRE2</text>
<text text-anchor="start" x="397.5" y="-101.8" font-family="arial" font-size="14.00" fill="#000000">X1:3</text>
<text text-anchor="start" x="486.5" y="-101.8" font-family="arial" font-size="14.00" fill="#000000">BK</text>
<text text-anchor="start" x="547" y="-101.8" font-family="arial" font-size="14.00" fill="#000000">X3:3</text>
<polygon fill="#000000" stroke="transparent" points="360,-90 360,-96 598,-96 598,-90 360,-90"/>
<polyline fill="none" stroke="#000000" stroke-width="2" points="361,-91 597,-91 "/>
<polyline fill="none" stroke="#000000" stroke-width="2" points="597,-95 361,-95 "/>
<text text-anchor="start" x="364.5" y="-74.8" font-family="arial" font-size="14.00" fill="#000000">WiresCo</text>
<text text-anchor="start" x="425.5" y="-74.8" font-family="arial" font-size="14.00" fill="#000000">MPN: W1&#45;BK</text>
<text text-anchor="start" x="516" y="-74.8" font-family="arial" font-size="14.00" fill="#000000">IPN: WIRE2</text>
<text text-anchor="start" x="397.5" y="-53.8" font-family="arial" font-size="14.00" fill="#000000">X1:4</text>
<text text-anchor="start" x="485.5" y="-53.8" font-family="arial" font-size="14.00" fill="#000000">RD</text>
<text text-anchor="start" x="547" y="-53.8" font-family="arial" font-size="14.00" fill="#000000">X3:4</text>
<polygon fill="#ff0000" stroke="transparent" points="360,-42 360,-48 598,-48 598,-42 360,-42"/>
<polyline fill="none" stroke="#000000" stroke-width="2" points="361,-43 597,-43 "/>
<polyline fill="none" stroke="#000000" stroke-width="2" points="597,-47 361,-47 "/>
<text text-anchor="start" x="364" y="-26.8" font-family="arial" font-size="14.00" fill="#000000">WiresCo</text>
<text text-anchor="start" x="424" y="-26.8" font-family="arial" font-size="14.00" fill="#000000">MPN: W1&#45;RD</text>
<text text-anchor="start" x="516" y="-26.8" font-family="arial" font-size="14.00" fill="#000000">IPN: WIRE3</text>
<text text-anchor="start" x="411" y="-5.8" font-family="arial" font-size="14.00" fill="#000000"> </text>
</g>
<!-- X1&#45;&#45;W2 -->
<g id="edge9" class="edge">
<title>X1:e&#45;&#45;W2:w</title>
<path fill="none" stroke="#000000" stroke-width="2" d="M216,-286C291.6789,-288.2274 280.347,-189.2274 360,-187"/>
<path fill="none" stroke="#ffff00" stroke-width="2" d="M216,-288C293.666,-288 282.334,-189 360,-189"/>
<path fill="none" stroke="#000000" stroke-width="2" d="M216,-290C295.653,-287.7726 284.3211,-188.7726 360,-191"/>
</g>
<!-- X1&#45;&#45;W2 -->
<g id="edge11" class="edge">
<title>X1:e&#45;&#45;W2:w</title>
<path fill="none" stroke="#000000" stroke-width="2" d="M216,-263C298.4977,-265.394 273.5807,-141.394 360,-139"/>
<path fill="none" stroke="#000000" stroke-width="2" d="M216,-265C300.4585,-265 275.5415,-141 360,-141"/>
<path fill="none" stroke="#000000" stroke-width="2" d="M216,-267C302.4193,-264.606 277.5023,-140.606 360,-143"/>
</g>
<!-- X1&#45;&#45;W2 -->
<g id="edge13" class="edge">
<title>X1:e&#45;&#45;W2:w</title>
<path fill="none" stroke="#000000" stroke-width="2" d="M216,-240C306.1634,-242.5208 265.9746,-93.5208 360,-91"/>
<path fill="none" stroke="#000000" stroke-width="2" d="M216,-242C308.0944,-242 267.9056,-93 360,-93"/>
<path fill="none" stroke="#000000" stroke-width="2" d="M216,-244C310.0254,-241.4792 269.8366,-92.4792 360,-95"/>
</g>
<!-- X1&#45;&#45;W2 -->
<g id="edge15" class="edge">
<title>X1:e&#45;&#45;W2:w</title>
<path fill="none" stroke="#000000" stroke-width="2" d="M216,-217C314.4801,-219.6203 257.7171,-45.6203 360,-43"/>
<path fill="none" stroke="#ff0000" stroke-width="2" d="M216,-219C316.3815,-219 259.6185,-45 360,-45"/>
<path fill="none" stroke="#000000" stroke-width="2" d="M216,-221C318.2829,-218.3797 261.5199,-44.3797 360,-47"/>
</g>
<!-- X2 -->
<g id="node2" class="node">
<title>X2</title>
<polygon fill="#ffffff" stroke="#000000" points="742,-309.5 742,-470.5 1009,-470.5 1009,-309.5 742,-309.5"/>
<text text-anchor="middle" x="875.5" y="-455.3" font-family="arial" font-size="14.00" fill="#000000">X2</text>
<polyline fill="none" stroke="#000000" points="742,-447.5 1009,-447.5 "/>
<text text-anchor="middle" x="770" y="-432.3" font-family="arial" font-size="14.00" fill="#000000">Molex</text>
<polyline fill="none" stroke="#000000" points="798,-424.5 798,-447.5 "/>
<text text-anchor="middle" x="859" y="-432.3" font-family="arial" font-size="14.00" fill="#000000">MPN: 22013047</text>
<polyline fill="none" stroke="#000000" points="920,-424.5 920,-447.5 "/>
<text text-anchor="middle" x="964.5" y="-432.3" font-family="arial" font-size="14.00" fill="#000000">IPN: CON4</text>
<polyline fill="none" stroke="#000000" points="742,-424.5 1009,-424.5 "/>
<text text-anchor="middle" x="804" y="-409.3" font-family="arial" font-size="14.00" fill="#000000">Molex KK 254</text>
<polyline fill="none" stroke="#000000" points="866,-401.5 866,-424.5 "/>
<text text-anchor="middle" x="904.5" y="-409.3" font-family="arial" font-size="14.00" fill="#000000">female</text>
<polyline fill="none" stroke="#000000" points="943,-401.5 943,-424.5 "/>
<text text-anchor="middle" x="976" y="-409.3" font-family="arial" font-size="14.00" fill="#000000">4&#45;pin</text>
<polyline fill="none" stroke="#000000" points="742,-401.5 1009,-401.5 "/>
<text text-anchor="middle" x="875.5" y="-386.3" font-family="arial" font-size="14.00" fill="#000000">1</text>
<polyline fill="none" stroke="#000000" points="742,-378.5 1009,-378.5 "/>
<text text-anchor="middle" x="875.5" y="-363.3" font-family="arial" font-size="14.00" fill="#000000">2</text>
<polyline fill="none" stroke="#000000" points="742,-355.5 1009,-355.5 "/>
<text text-anchor="middle" x="875.5" y="-340.3" font-family="arial" font-size="14.00" fill="#000000">3</text>
<polyline fill="none" stroke="#000000" points="742,-332.5 1009,-332.5 "/>
<text text-anchor="middle" x="875.5" y="-317.3" font-family="arial" font-size="14.00" fill="#000000">4</text>
</g>
<!-- X3 -->
<g id="node3" class="node">
<title>X3</title>
<polygon fill="#ffffff" stroke="#000000" points="767.5,-71.5 767.5,-232.5 983.5,-232.5 983.5,-71.5 767.5,-71.5"/>
<text text-anchor="middle" x="875.5" y="-217.3" font-family="arial" font-size="14.00" fill="#000000">X3</text>
<polyline fill="none" stroke="#000000" points="767.5,-209.5 983.5,-209.5 "/>
<text text-anchor="middle" x="805" y="-194.3" font-family="arial" font-size="14.00" fill="#000000">Molex</text>
<polyline fill="none" stroke="#000000" points="842.5,-186.5 842.5,-209.5 "/>
<text text-anchor="middle" x="913" y="-194.3" font-family="arial" font-size="14.00" fill="#000000">MPN: 22013047</text>
<polyline fill="none" stroke="#000000" points="767.5,-186.5 983.5,-186.5 "/>
<text text-anchor="middle" x="821" y="-171.3" font-family="arial" font-size="14.00" fill="#000000">Molex KK 254</text>
<polyline fill="none" stroke="#000000" points="874.5,-163.5 874.5,-186.5 "/>
<text text-anchor="middle" x="904.5" y="-171.3" font-family="arial" font-size="14.00" fill="#000000">female</text>
<polyline fill="none" stroke="#000000" points="934.5,-163.5 934.5,-186.5 "/>
<text text-anchor="middle" x="959" y="-171.3" font-family="arial" font-size="14.00" fill="#000000">4&#45;pin</text>
<polyline fill="none" stroke="#000000" points="767.5,-163.5 983.5,-163.5 "/>
<text text-anchor="middle" x="875.5" y="-148.3" font-family="arial" font-size="14.00" fill="#000000">1</text>
<polyline fill="none" stroke="#000000" points="767.5,-140.5 983.5,-140.5 "/>
<text text-anchor="middle" x="875.5" y="-125.3" font-family="arial" font-size="14.00" fill="#000000">2</text>
<polyline fill="none" stroke="#000000" points="767.5,-117.5 983.5,-117.5 "/>
<text text-anchor="middle" x="875.5" y="-102.3" font-family="arial" font-size="14.00" fill="#000000">3</text>
<polyline fill="none" stroke="#000000" points="767.5,-94.5 983.5,-94.5 "/>
<text text-anchor="middle" x="875.5" y="-79.3" font-family="arial" font-size="14.00" fill="#000000">4</text>
</g>
<!-- W1&#45;&#45;X2 -->
<g id="edge2" class="edge">
<title>W1:e&#45;&#45;X2:w</title>
<path fill="none" stroke="#000000" stroke-width="2" d="M598,-391C661.6447,-391.0344 677.6169,-388.0344 742,-388"/>
<path fill="none" stroke="#666600" stroke-width="2" d="M598,-393C662.0139,-393 677.9861,-390 742,-390"/>
<path fill="none" stroke="#000000" stroke-width="2" d="M598,-395C662.3831,-394.9656 678.3553,-391.9656 742,-392"/>
</g>
<!-- W1&#45;&#45;X2 -->
<g id="edge4" class="edge">
<title>W1:e&#45;&#45;X2:w</title>
<path fill="none" stroke="#000000" stroke-width="2" d="M598,-366C661.8768,-366.0039 677.8737,-365.0039 742,-365"/>
<path fill="none" stroke="#ff0000" stroke-width="2" d="M598,-368C662.0015,-368 677.9985,-367 742,-367"/>
<path fill="none" stroke="#000000" stroke-width="2" d="M598,-370C662.1263,-369.9961 678.1232,-368.9961 742,-369"/>
</g>
<!-- W1&#45;&#45;X2 -->
<g id="edge6" class="edge">
<title>W1:e&#45;&#45;X2:w</title>
<path fill="none" stroke="#000000" stroke-width="2" d="M598,-341C662.1263,-341.0039 678.1232,-342.0039 742,-342"/>
<path fill="none" stroke="#ff8000" stroke-width="2" d="M598,-343C662.0015,-343 677.9985,-344 742,-344"/>
<path fill="none" stroke="#000000" stroke-width="2" d="M598,-345C661.8768,-344.9961 677.8737,-345.9961 742,-346"/>
</g>
<!-- W1&#45;&#45;X2 -->
<g id="edge8" class="edge">
<title>W1:e&#45;&#45;X2:w</title>
<path fill="none" stroke="#000000" stroke-width="2" d="M598,-316C662.3831,-316.0344 678.3553,-319.0344 742,-319"/>
<path fill="none" stroke="#ffff00" stroke-width="2" d="M598,-318C662.0139,-318 677.9861,-321 742,-321"/>
<path fill="none" stroke="#000000" stroke-width="2" d="M598,-320C661.6447,-319.9656 677.6169,-322.9656 742,-323"/>
</g>
<!-- W2&#45;&#45;X3 -->
<g id="edge10" class="edge">
<title>W2:e&#45;&#45;X3:w</title>
<path fill="none" stroke="#000000" stroke-width="2" d="M598,-187C673.2588,-188.2364 688.5443,-151.2364 767.5,-150"/>
<path fill="none" stroke="#ffff00" stroke-width="2" d="M598,-189C675.1073,-189 690.3927,-152 767.5,-152"/>
<path fill="none" stroke="#000000" stroke-width="2" d="M598,-191C676.9557,-189.7636 692.2412,-152.7636 767.5,-154"/>
</g>
<!-- W2&#45;&#45;X3 -->
<g id="edge12" class="edge">
<title>W2:e&#45;&#45;X3:w</title>
<path fill="none" stroke="#000000" stroke-width="2" d="M598,-139C672.4317,-139.3233 690.8879,-127.3233 767.5,-127"/>
<path fill="none" stroke="#000000" stroke-width="2" d="M598,-141C673.5219,-141 691.9781,-129 767.5,-129"/>
<path fill="none" stroke="#000000" stroke-width="2" d="M598,-143C674.6121,-142.6767 693.0683,-130.6767 767.5,-131"/>
</g>
<!-- W2&#45;&#45;X3 -->
<g id="edge14" class="edge">
<title>W2:e&#45;&#45;X3:w</title>
<path fill="none" stroke="#000000" stroke-width="2" d="M598,-91C674.709,-91.3668 693.0999,-104.3668 767.5,-104"/>
<path fill="none" stroke="#000000" stroke-width="2" d="M598,-93C673.5546,-93 691.9454,-106 767.5,-106"/>
<path fill="none" stroke="#000000" stroke-width="2" d="M598,-95C672.4001,-94.6332 690.791,-107.6332 767.5,-108"/>
</g>
<!-- W2&#45;&#45;X3 -->
<g id="edge16" class="edge">
<title>W2:e&#45;&#45;X3:w</title>
<path fill="none" stroke="#000000" stroke-width="2" d="M598,-43C677.062,-44.2617 692.1555,-82.2617 767.5,-81"/>
<path fill="none" stroke="#ff0000" stroke-width="2" d="M598,-45C675.2033,-45 690.2967,-83 767.5,-83"/>
<path fill="none" stroke="#000000" stroke-width="2" d="M598,-47C673.3445,-45.7383 688.438,-83.7383 767.5,-85"/>
</g>
</g>
</svg>
