<?xml version="1.0" encoding="UTF-8" standalone="no"?>
<!DOCTYPE svg PUBLIC "-//W3C//DTD SVG 1.1//EN"
 "http://www.w3.org/Graphics/SVG/1.1/DTD/svg11.dtd">
<!-- Generated by graphviz version 2.49.1 (20210923.0004)
 -->
<!-- Pages: 1 -->
<svg width="793pt" height="192pt"
 viewBox="0.00 0.00 793.00 192.00" xmlns="http://www.w3.org/2000/svg" xmlns:xlink="http://www.w3.org/1999/xlink">
<g id="graph0" class="graph" transform="scale(1 1) rotate(0) translate(4 188)">
<polygon fill="#ffffff" stroke="transparent" points="-4,4 -4,-188 789,-188 789,4 -4,4"/>
<!-- AUTOGENERATED_F_05_1 -->
<g id="node1" class="node">
<title>AUTOGENERATED_F_05_1</title>
<polygon fill="#ffffff" stroke="black" points="187,-118.5 0,-118.5 0,-95.5 187,-95.5 187,-118.5"/>
<polygon fill="none" stroke="black" points="0.5,-95 0.5,-118 89.5,-118 89.5,-95 0.5,-95"/>
<text text-anchor="start" x="4.5" y="-102.8" font-family="arial" font-size="14.00">Crimp ferrule</text>
<polygon fill="none" stroke="black" points="89.5,-95 89.5,-118 149.5,-118 149.5,-95 89.5,-95"/>
<text text-anchor="start" x="93.5" y="-102.8" font-family="arial" font-size="14.00">0.5 mm²</text>
<polygon fill="none" stroke="black" points="149.5,-95 149.5,-118 179.5,-118 179.5,-95 149.5,-95"/>
<text text-anchor="start" x="153.5" y="-102.8" font-family="arial" font-size="14.00">OG</text>
<polygon fill="#ff8000" stroke="transparent" points="179.5,-95 179.5,-118 187.5,-118 187.5,-95 179.5,-95"/>
<polygon fill="none" stroke="black" points="179.5,-95 179.5,-118 187.5,-118 187.5,-95 179.5,-95"/>
</g>
<!-- W1 -->
<g id="node5" class="node">
<title>W1</title>
<polygon fill="#ffffff" stroke="black" stroke-dasharray="5,2" points="469,-184 331,-184 331,0 469,0 469,-184"/>
<polygon fill="none" stroke="black" points="331,-161 331,-184 469,-184 469,-161 331,-161"/>
<text text-anchor="start" x="389.5" y="-168.8" font-family="arial" font-size="14.00">W1</text>
<polygon fill="none" stroke="black" points="331,-138 331,-161 358,-161 358,-138 331,-138"/>
<text text-anchor="start" x="337" y="-145.8" font-family="arial" font-size="14.00">4x</text>
<polygon fill="none" stroke="black" points="358,-138 358,-161 422,-161 422,-138 358,-138"/>
<text text-anchor="start" x="364" y="-145.8" font-family="arial" font-size="14.00">0.5 mm²</text>
<polygon fill="none" stroke="black" points="422,-138 422,-161 469,-161 469,-138 422,-138"/>
<text text-anchor="start" x="427.5" y="-145.8" font-family="arial" font-size="14.00">0.3 m</text>
<text text-anchor="start" x="333" y="-124.8" font-family="arial" font-size="14.00"> </text>
<text text-anchor="start" x="342" y="-105.8" font-family="arial" font-size="14.00"> &#160;&#160;&#160;&#160;YE &#160;&#160;&#160;</text>
<text text-anchor="start" x="401" y="-105.8" font-family="arial" font-size="14.00">X1:1:+12V</text>
<polygon fill="#000000" stroke="transparent" points="331,-98 331,-100 469,-100 469,-98 331,-98"/>
<polygon fill="#ffff00" stroke="transparent" points="331,-96 331,-98 469,-98 469,-96 331,-96"/>
<polygon fill="#000000" stroke="transparent" points="331,-94 331,-96 469,-96 469,-94 331,-94"/>
<text text-anchor="start" x="342" y="-80.8" font-family="arial" font-size="14.00"> &#160;&#160;&#160;&#160;BK &#160;&#160;&#160;</text>
<text text-anchor="start" x="402" y="-80.8" font-family="arial" font-size="14.00">X1:2:GND</text>
<polygon fill="#000000" stroke="transparent" points="331,-73 331,-75 469,-75 469,-73 331,-73"/>
<polygon fill="#000000" stroke="transparent" points="331,-71 331,-73 469,-73 469,-71 331,-71"/>
<polygon fill="#000000" stroke="transparent" points="331,-69 331,-71 469,-71 469,-69 331,-69"/>
<text text-anchor="start" x="342" y="-55.8" font-family="arial" font-size="14.00"> &#160;&#160;&#160;&#160;BK &#160;&#160;&#160;</text>
<text text-anchor="start" x="402" y="-55.8" font-family="arial" font-size="14.00">X1:3:GND</text>
<polygon fill="#000000" stroke="transparent" points="331,-48 331,-50 469,-50 469,-48 331,-48"/>
<polygon fill="#000000" stroke="transparent" points="331,-46 331,-48 469,-48 469,-46 331,-46"/>
<polygon fill="#000000" stroke="transparent" points="331,-44 331,-46 469,-46 469,-44 331,-44"/>
<text text-anchor="start" x="341" y="-30.8" font-family="arial" font-size="14.00"> &#160;&#160;&#160;&#160;RD &#160;&#160;&#160;</text>
<text text-anchor="start" x="405" y="-30.8" font-family="arial" font-size="14.00">X1:4:+5V</text>
<polygon fill="#000000" stroke="transparent" points="331,-23 331,-25 469,-25 469,-23 331,-23"/>
<polygon fill="#ff0000" stroke="transparent" points="331,-21 331,-23 469,-23 469,-21 331,-21"/>
<polygon fill="#000000" stroke="transparent" points="331,-19 331,-21 469,-21 469,-19 331,-19"/>
<text text-anchor="start" x="333" y="-5.8" font-family="arial" font-size="14.00"> </text>
</g>
<!-- AUTOGENERATED_F_05_1&#45;&#45;W1 -->
<g id="edge1" class="edge">
<title>AUTOGENERATED_F_05_1:e&#45;&#45;W1:w</title>
<path fill="none" stroke="#000000" stroke-width="2" d="M187,-105C250.08,-105.31 265.77,-95.31 331,-95"/>
<path fill="none" stroke="#ffff00" stroke-width="2" d="M187,-107C251.15,-107 266.85,-97 331,-97"/>
<path fill="none" stroke="#000000" stroke-width="2" d="M187,-109C252.23,-108.69 267.92,-98.69 331,-99"/>
</g>
<!-- F1 -->
<g id="node2" class="node">
<title>F1</title>
<polygon fill="#ffffff" stroke="black" points="185.5,-71.5 1.5,-71.5 1.5,-48.5 185.5,-48.5 185.5,-71.5"/>
<polygon fill="none" stroke="black" points="1.5,-48 1.5,-71 90.5,-71 90.5,-48 1.5,-48"/>
<text text-anchor="start" x="5.5" y="-55.8" font-family="arial" font-size="14.00">Crimp ferrule</text>
<polygon fill="none" stroke="black" points="90.5,-48 90.5,-71 150.5,-71 150.5,-48 90.5,-48"/>
<text text-anchor="start" x="94.5" y="-55.8" font-family="arial" font-size="14.00">1.0 mm²</text>
<polygon fill="none" stroke="black" points="150.5,-48 150.5,-71 177.5,-71 177.5,-48 150.5,-48"/>
<text text-anchor="start" x="154.5" y="-55.8" font-family="arial" font-size="14.00">YE</text>
<polygon fill="#ffff00" stroke="transparent" points="177.5,-48 177.5,-71 185.5,-71 185.5,-48 177.5,-48"/>
<polygon fill="none" stroke="black" points="177.5,-48 177.5,-71 185.5,-71 185.5,-48 177.5,-48"/>
</g>
<!-- F1&#45;&#45;W1 -->
<g id="edge3" class="edge">
<title>F1:e&#45;&#45;W1:w</title>
<path fill="none" stroke="#000000" stroke-width="2" d="M186.5,-58C252.16,-58.41 267.78,-70.41 331,-70"/>
<path fill="none" stroke="#000000" stroke-width="2" d="M186.5,-60C250.94,-60 266.56,-72 331,-72"/>
<path fill="none" stroke="#000000" stroke-width="2" d="M186.5,-62C249.72,-61.59 265.34,-73.59 331,-74"/>
</g>
<!-- F1&#45;&#45;W1 -->
<g id="edge5" class="edge">
<title>F1:e&#45;&#45;W1:w</title>
<path fill="none" stroke="#000000" stroke-width="2" d="M186.5,-58C249.7,-58.47 265.23,-45.47 331,-45"/>
<path fill="none" stroke="#000000" stroke-width="2" d="M186.5,-60C250.98,-60 266.52,-47 331,-47"/>
<path fill="none" stroke="#000000" stroke-width="2" d="M186.5,-62C252.27,-61.53 267.8,-48.53 331,-49"/>
</g>
<!-- AUTOGENERATED_F_05_2 -->
<g id="node3" class="node">
<title>AUTOGENERATED_F_05_2</title>
<polygon fill="#ffffff" stroke="black" points="187,-24.5 0,-24.5 0,-1.5 187,-1.5 187,-24.5"/>
<polygon fill="none" stroke="black" points="0.5,-1 0.5,-24 89.5,-24 89.5,-1 0.5,-1"/>
<text text-anchor="start" x="4.5" y="-8.8" font-family="arial" font-size="14.00">Crimp ferrule</text>
<polygon fill="none" stroke="black" points="89.5,-1 89.5,-24 149.5,-24 149.5,-1 89.5,-1"/>
<text text-anchor="start" x="93.5" y="-8.8" font-family="arial" font-size="14.00">0.5 mm²</text>
<polygon fill="none" stroke="black" points="149.5,-1 149.5,-24 179.5,-24 179.5,-1 149.5,-1"/>
<text text-anchor="start" x="153.5" y="-8.8" font-family="arial" font-size="14.00">OG</text>
<polygon fill="#ff8000" stroke="transparent" points="179.5,-1 179.5,-24 187.5,-24 187.5,-1 179.5,-1"/>
<polygon fill="none" stroke="black" points="179.5,-1 179.5,-24 187.5,-24 187.5,-1 179.5,-1"/>
</g>
<!-- AUTOGENERATED_F_05_2&#45;&#45;W1 -->
<g id="edge7" class="edge">
<title>AUTOGENERATED_F_05_2:e&#45;&#45;W1:w</title>
<path fill="none" stroke="#000000" stroke-width="2" d="M187,-11C252.12,-11.26 267.87,-20.26 331,-20"/>
<path fill="none" stroke="#ff0000" stroke-width="2" d="M187,-13C251.12,-13 266.88,-22 331,-22"/>
<path fill="none" stroke="#000000" stroke-width="2" d="M187,-15C250.13,-14.74 265.88,-23.74 331,-24"/>
</g>
<!-- X1 -->
<g id="node4" class="node">
<title>X1</title>
<polygon fill="#ffffff" stroke="black" points="785,-152 613,-152 613,-14 785,-14 785,-152"/>
<polygon fill="none" stroke="black" points="613,-129 613,-152 785,-152 785,-129 613,-129"/>
<text text-anchor="start" x="690" y="-136.8" font-family="arial" font-size="14.00">X1</text>
<polygon fill="none" stroke="black" points="613,-106 613,-129 694,-129 694,-106 613,-106"/>
<text text-anchor="start" x="617" y="-113.8" font-family="arial" font-size="14.00">Molex 8981</text>
<polygon fill="none" stroke="black" points="694,-106 694,-129 745,-129 745,-106 694,-106"/>
<text text-anchor="start" x="698" y="-113.8" font-family="arial" font-size="14.00">female</text>
<polygon fill="none" stroke="black" points="745,-106 745,-129 785,-129 785,-106 745,-106"/>
<text text-anchor="start" x="749" y="-113.8" font-family="arial" font-size="14.00">4&#45;pin</text>
<polygon fill="none" stroke="black" points="613,-83 613,-106 686,-106 686,-83 613,-83"/>
<text text-anchor="start" x="645.5" y="-90.8" font-family="arial" font-size="14.00">1</text>
<polygon fill="none" stroke="black" points="686,-83 686,-106 785,-106 785,-83 686,-83"/>
<text text-anchor="start" x="718.5" y="-90.8" font-family="arial" font-size="14.00">+12V</text>
<polygon fill="none" stroke="black" points="613,-60 613,-83 686,-83 686,-60 613,-60"/>
<text text-anchor="start" x="645.5" y="-67.8" font-family="arial" font-size="14.00">2</text>
<polygon fill="none" stroke="black" points="686,-60 686,-83 785,-83 785,-60 686,-60"/>
<text text-anchor="start" x="719.5" y="-67.8" font-family="arial" font-size="14.00">GND</text>
<polygon fill="none" stroke="black" points="613,-37 613,-60 686,-60 686,-37 613,-37"/>
<text text-anchor="start" x="645.5" y="-44.8" font-family="arial" font-size="14.00">3</text>
<polygon fill="none" stroke="black" points="686,-37 686,-60 785,-60 785,-37 686,-37"/>
<text text-anchor="start" x="719.5" y="-44.8" font-family="arial" font-size="14.00">GND</text>
<polygon fill="none" stroke="black" points="613,-14 613,-37 686,-37 686,-14 613,-14"/>
<text text-anchor="start" x="645.5" y="-21.8" font-family="arial" font-size="14.00">4</text>
<polygon fill="none" stroke="black" points="686,-14 686,-37 785,-37 785,-14 686,-14"/>
<text text-anchor="start" x="722.5" y="-21.8" font-family="arial" font-size="14.00">+5V</text>
</g>
<!-- W1&#45;&#45;X1 -->
<g id="edge2" class="edge">
<title>W1:e&#45;&#45;X1:w</title>
<path fill="none" stroke="#000000" stroke-width="2" d="M469,-95C532.76,-95.02 548.75,-93.02 613,-93"/>
<path fill="none" stroke="#ffff00" stroke-width="2" d="M469,-97C533.01,-97 548.99,-95 613,-95"/>
<path fill="none" stroke="#000000" stroke-width="2" d="M469,-99C533.25,-98.98 549.24,-96.98 613,-97"/>
</g>
<!-- W1&#45;&#45;X1 -->
<g id="edge4" class="edge">
<title>W1:e&#45;&#45;X1:w</title>
<path fill="none" stroke="#000000" stroke-width="2" d="M469,-70C532.88,-70 548.87,-69 613,-69"/>
<path fill="none" stroke="#000000" stroke-width="2" d="M469,-72C533,-72 549,-71 613,-71"/>
<path fill="none" stroke="#000000" stroke-width="2" d="M469,-74C533.13,-74 549.12,-73 613,-73"/>
</g>
<!-- W1&#45;&#45;X1 -->
<g id="edge6" class="edge">
<title>W1:e&#45;&#45;X1:w</title>
<path fill="none" stroke="#000000" stroke-width="2" d="M469,-45C533.13,-45 549.12,-46 613,-46"/>
<path fill="none" stroke="#000000" stroke-width="2" d="M469,-47C533,-47 549,-48 613,-48"/>
<path fill="none" stroke="#000000" stroke-width="2" d="M469,-49C532.88,-49 548.87,-50 613,-50"/>
</g>
<!-- W1&#45;&#45;X1 -->
<g id="edge8" class="edge">
<title>W1:e&#45;&#45;X1:w</title>
<path fill="none" stroke="#000000" stroke-width="2" d="M469,-20C533.38,-20.03 549.36,-23.03 613,-23"/>
<path fill="none" stroke="#ff0000" stroke-width="2" d="M469,-22C533.01,-22 548.99,-25 613,-25"/>
<path fill="none" stroke="#000000" stroke-width="2" d="M469,-24C532.64,-23.97 548.62,-26.97 613,-27"/>
</g>
</g>
</svg>
