<?xml version="1.0" encoding="UTF-8" standalone="no"?>
<!DOCTYPE svg PUBLIC "-//W3C//DTD SVG 1.1//EN"
 "http://www.w3.org/Graphics/SVG/1.1/DTD/svg11.dtd">
<!-- Generated by graphviz version 2.38.0 (20140413.2041)
 -->
<!-- Title: %3 Pages: 1 -->
<svg width="1537pt" height="184pt"
 viewBox="0.00 0.00 1537.00 183.50" xmlns="http://www.w3.org/2000/svg" xmlns:xlink="http://www.w3.org/1999/xlink">
<g id="graph0" class="graph" transform="scale(1 1) rotate(0) translate(4 179.5)">
<title>%3</title>
<polygon fill="#fffbf8" stroke="none" points="-4,4 -4,-179.5 1533,-179.5 1533,4 -4,4"/>
<!-- X1 -->
<g id="node1" class="node"><title>X1</title>
<polygon fill="white" stroke="black" points="0,-0.5 0,-161.5 201,-161.5 201,-0.5 0,-0.5"/>
<text text-anchor="middle" x="100.5" y="-146.3" font-family="arial" font-size="14.00">X1</text>
<polyline fill="none" stroke="black" points="0,-138.5 201,-138.5 "/>
<text text-anchor="middle" x="53" y="-123.3" font-family="arial" font-size="14.00">Molex KK 254</text>
<polyline fill="none" stroke="black" points="106,-115.5 106,-138.5 "/>
<text text-anchor="middle" x="129.5" y="-123.3" font-family="arial" font-size="14.00">male</text>
<polyline fill="none" stroke="black" points="153,-115.5 153,-138.5 "/>
<text text-anchor="middle" x="177" y="-123.3" font-family="arial" font-size="14.00">4&#45;pin</text>
<polyline fill="none" stroke="black" points="0,-115.5 201,-115.5 "/>
<text text-anchor="middle" x="56" y="-100.3" font-family="arial" font-size="14.00">GND</text>
<polyline fill="none" stroke="black" points="0,-92.5 112,-92.5 "/>
<text text-anchor="middle" x="56" y="-77.3" font-family="arial" font-size="14.00">VCC</text>
<polyline fill="none" stroke="black" points="0,-69.5 112,-69.5 "/>
<text text-anchor="middle" x="56" y="-54.3" font-family="arial" font-size="14.00">SCL</text>
<polyline fill="none" stroke="black" points="0,-46.5 112,-46.5 "/>
<text text-anchor="middle" x="56" y="-31.3" font-family="arial" font-size="14.00">SDA</text>
<polyline fill="none" stroke="black" points="112,-23.5 112,-115.5 "/>
<text text-anchor="middle" x="156.5" y="-100.3" font-family="arial" font-size="14.00">1</text>
<polyline fill="none" stroke="black" points="112,-92.5 201,-92.5 "/>
<text text-anchor="middle" x="156.5" y="-77.3" font-family="arial" font-size="14.00">2</text>
<polyline fill="none" stroke="black" points="112,-69.5 201,-69.5 "/>
<text text-anchor="middle" x="156.5" y="-54.3" font-family="arial" font-size="14.00">3</text>
<polyline fill="none" stroke="black" points="112,-46.5 201,-46.5 "/>
<text text-anchor="middle" x="156.5" y="-31.3" font-family="arial" font-size="14.00">4</text>
<polyline fill="none" stroke="black" points="0,-23.5 201,-23.5 "/>
<text text-anchor="middle" x="100.5" y="-8.3" font-family="arial" font-size="14.00">to microcontroller</text>
</g>
<!-- W1 -->
<g id="node4" class="node"><title>W1</title>
<polygon fill="none" stroke="black" points="505,-175.5 345,-175.5 345,-4.5 505,-4.5 505,-175.5"/>
<polygon fill="none" stroke="black" points="345,-152 345,-175 505,-175 505,-152 345,-152"/>
<text text-anchor="start" x="413.5" y="-159.8" font-family="arial" font-size="14.00">W1</text>
<polygon fill="none" stroke="black" points="345,-129 345,-152 378,-152 378,-129 345,-129"/>
<text text-anchor="start" x="353.5" y="-136.8" font-family="arial" font-size="14.00">4x</text>
<polygon fill="none" stroke="black" points="378,-129 378,-152 451,-152 451,-129 378,-129"/>
<text text-anchor="start" x="386.5" y="-136.8" font-family="arial" font-size="14.00">24 AWG</text>
<polygon fill="none" stroke="black" points="451,-129 451,-152 505,-152 505,-129 451,-129"/>
<text text-anchor="start" x="459.5" y="-136.8" font-family="arial" font-size="14.00">0.3 m</text>
<text text-anchor="start" x="357.5" y="-115.8" font-family="arial" font-size="14.00">X1:1</text>
<text text-anchor="start" x="415" y="-115.8" font-family="arial" font-size="14.00">BN</text>
<text text-anchor="start" x="461.5" y="-115.8" font-family="arial" font-size="14.00">X2:1</text>
<polygon fill="#000000" stroke="none" points="345,-108 345,-110 505,-110 505,-108 345,-108"/>
<polygon fill="#a52a2a" stroke="none" points="345,-106 345,-108 505,-108 505,-106 345,-106"/>
<polygon fill="#000000" stroke="none" points="345,-104 345,-106 505,-106 505,-104 345,-104"/>
<text text-anchor="start" x="357.5" y="-90.8" font-family="arial" font-size="14.00">X1:2</text>
<text text-anchor="start" x="414" y="-90.8" font-family="arial" font-size="14.00">RD</text>
<text text-anchor="start" x="461.5" y="-90.8" font-family="arial" font-size="14.00">X2:2</text>
<polygon fill="#000000" stroke="none" points="345,-83 345,-85 505,-85 505,-83 345,-83"/>
<polygon fill="#ff0000" stroke="none" points="345,-81 345,-83 505,-83 505,-81 345,-81"/>
<polygon fill="#000000" stroke="none" points="345,-79 345,-81 505,-81 505,-79 345,-79"/>
<text text-anchor="start" x="357.5" y="-65.8" font-family="arial" font-size="14.00">X1:3</text>
<text text-anchor="start" x="413.5" y="-65.8" font-family="arial" font-size="14.00">OG</text>
<text text-anchor="start" x="461.5" y="-65.8" font-family="arial" font-size="14.00">X2:3</text>
<polygon fill="#000000" stroke="none" points="345,-58 345,-60 505,-60 505,-58 345,-58"/>
<polygon fill="#ff8000" stroke="none" points="345,-56 345,-58 505,-58 505,-56 345,-56"/>
<polygon fill="#000000" stroke="none" points="345,-54 345,-56 505,-56 505,-54 345,-54"/>
<text text-anchor="start" x="357.5" y="-40.8" font-family="arial" font-size="14.00">X1:4</text>
<text text-anchor="start" x="415.5" y="-40.8" font-family="arial" font-size="14.00">YE</text>
<text text-anchor="start" x="461.5" y="-40.8" font-family="arial" font-size="14.00">X2:4</text>
<polygon fill="#000000" stroke="none" points="345,-33 345,-35 505,-35 505,-33 345,-33"/>
<polygon fill="#ffff00" stroke="none" points="345,-31 345,-33 505,-33 505,-31 345,-31"/>
<polygon fill="#000000" stroke="none" points="345,-29 345,-31 505,-31 505,-29 345,-29"/>
<text text-anchor="start" x="348" y="-10.8" font-family="arial" font-size="14.00">This cable is a bit longer</text>
</g>
<!-- X1&#45;&#45;W1 -->
<g id="edge1" class="edge"><title>X1:p1r:e&#45;&#45;W1:w1:w</title>
<path fill="none" stroke="#000000" stroke-width="2" d="M201,-102C265.383,-102.034 281.355,-105.034 345,-105"/>
<path fill="none" stroke="#a52a2a" stroke-width="2" d="M201,-104C265.014,-104 280.986,-107 345,-107"/>
<path fill="none" stroke="#000000" stroke-width="2" d="M201,-106C264.645,-105.966 280.617,-108.966 345,-109"/>
</g>
<!-- X1&#45;&#45;W1 -->
<g id="edge3" class="edge"><title>X1:p2r:e&#45;&#45;W1:w2:w</title>
<path fill="none" stroke="#000000" stroke-width="2" d="M201,-79C265.126,-79.0039 281.123,-80.0039 345,-80"/>
<path fill="none" stroke="#ff0000" stroke-width="2" d="M201,-81C265.002,-81 280.998,-82 345,-82"/>
<path fill="none" stroke="#000000" stroke-width="2" d="M201,-83C264.877,-82.9961 280.874,-83.9961 345,-84"/>
</g>
<!-- X1&#45;&#45;W1 -->
<g id="edge5" class="edge"><title>X1:p3r:e&#45;&#45;W1:w3:w</title>
<path fill="none" stroke="#000000" stroke-width="2" d="M201,-56C264.877,-56.0039 280.874,-55.0039 345,-55"/>
<path fill="none" stroke="#ff8000" stroke-width="2" d="M201,-58C265.002,-58 280.998,-57 345,-57"/>
<path fill="none" stroke="#000000" stroke-width="2" d="M201,-60C265.126,-59.9961 281.123,-58.9961 345,-59"/>
</g>
<!-- X1&#45;&#45;W1 -->
<g id="edge7" class="edge"><title>X1:p4r:e&#45;&#45;W1:w4:w</title>
<path fill="none" stroke="#000000" stroke-width="2" d="M201,-33C264.645,-33.0344 280.617,-30.0344 345,-30"/>
<path fill="none" stroke="#ffff00" stroke-width="2" d="M201,-35C265.014,-35 280.986,-32 345,-32"/>
<path fill="none" stroke="#000000" stroke-width="2" d="M201,-37C265.383,-36.9656 281.355,-33.9656 345,-34"/>
</g>
<!-- X2 -->
<g id="node2" class="node"><title>X2</title>
<polygon fill="white" stroke="black" points="649,-0.5 649,-161.5 863,-161.5 863,-0.5 649,-0.5"/>
<text text-anchor="middle" x="756" y="-146.3" font-family="arial" font-size="14.00">X2</text>
<polyline fill="none" stroke="black" points="649,-138.5 863,-138.5 "/>
<text text-anchor="middle" x="702" y="-123.3" font-family="arial" font-size="14.00">Molex KK 254</text>
<polyline fill="none" stroke="black" points="755,-115.5 755,-138.5 "/>
<text text-anchor="middle" x="785" y="-123.3" font-family="arial" font-size="14.00">female</text>
<polyline fill="none" stroke="black" points="815,-115.5 815,-138.5 "/>
<text text-anchor="middle" x="839" y="-123.3" font-family="arial" font-size="14.00">4&#45;pin</text>
<polyline fill="none" stroke="black" points="649,-115.5 863,-115.5 "/>
<text text-anchor="middle" x="680.5" y="-100.3" font-family="arial" font-size="14.00">1</text>
<polyline fill="none" stroke="black" points="649,-92.5 712,-92.5 "/>
<text text-anchor="middle" x="680.5" y="-77.3" font-family="arial" font-size="14.00">2</text>
<polyline fill="none" stroke="black" points="649,-69.5 712,-69.5 "/>
<text text-anchor="middle" x="680.5" y="-54.3" font-family="arial" font-size="14.00">3</text>
<polyline fill="none" stroke="black" points="649,-46.5 712,-46.5 "/>
<text text-anchor="middle" x="680.5" y="-31.3" font-family="arial" font-size="14.00">4</text>
<polyline fill="none" stroke="black" points="712,-23.5 712,-115.5 "/>
<text text-anchor="middle" x="755.5" y="-100.3" font-family="arial" font-size="14.00">GND</text>
<polyline fill="none" stroke="black" points="712,-92.5 799,-92.5 "/>
<text text-anchor="middle" x="755.5" y="-77.3" font-family="arial" font-size="14.00">VCC</text>
<polyline fill="none" stroke="black" points="712,-69.5 799,-69.5 "/>
<text text-anchor="middle" x="755.5" y="-54.3" font-family="arial" font-size="14.00">SCL</text>
<polyline fill="none" stroke="black" points="712,-46.5 799,-46.5 "/>
<text text-anchor="middle" x="755.5" y="-31.3" font-family="arial" font-size="14.00">SDA</text>
<polyline fill="none" stroke="black" points="799,-23.5 799,-115.5 "/>
<text text-anchor="middle" x="831" y="-100.3" font-family="arial" font-size="14.00">1</text>
<polyline fill="none" stroke="black" points="799,-92.5 863,-92.5 "/>
<text text-anchor="middle" x="831" y="-77.3" font-family="arial" font-size="14.00">2</text>
<polyline fill="none" stroke="black" points="799,-69.5 863,-69.5 "/>
<text text-anchor="middle" x="831" y="-54.3" font-family="arial" font-size="14.00">3</text>
<polyline fill="none" stroke="black" points="799,-46.5 863,-46.5 "/>
<text text-anchor="middle" x="831" y="-31.3" font-family="arial" font-size="14.00">4</text>
<polyline fill="none" stroke="black" points="649,-23.5 863,-23.5 "/>
<text text-anchor="middle" x="756" y="-8.3" font-family="arial" font-size="14.00">to accelerometer</text>
</g>
<!-- W2 -->
<g id="node5" class="node"><title>W2</title>
<polygon fill="none" stroke="black" points="1171,-175.5 1007,-175.5 1007,-4.5 1171,-4.5 1171,-175.5"/>
<polygon fill="none" stroke="black" points="1007,-152 1007,-175 1171,-175 1171,-152 1007,-152"/>
<text text-anchor="start" x="1077.5" y="-159.8" font-family="arial" font-size="14.00">W2</text>
<polygon fill="none" stroke="black" points="1007,-129 1007,-152 1042,-152 1042,-129 1007,-129"/>
<text text-anchor="start" x="1016.5" y="-136.8" font-family="arial" font-size="14.00">4x</text>
<polygon fill="none" stroke="black" points="1042,-129 1042,-152 1116,-152 1116,-129 1042,-129"/>
<text text-anchor="start" x="1051" y="-136.8" font-family="arial" font-size="14.00">24 AWG</text>
<polygon fill="none" stroke="black" points="1116,-129 1116,-152 1171,-152 1171,-129 1116,-129"/>
<text text-anchor="start" x="1125" y="-136.8" font-family="arial" font-size="14.00">0.1 m</text>
<text text-anchor="start" x="1020.5" y="-115.8" font-family="arial" font-size="14.00">X2:1</text>
<text text-anchor="start" x="1079.5" y="-115.8" font-family="arial" font-size="14.00">BN</text>
<text text-anchor="start" x="1127" y="-115.8" font-family="arial" font-size="14.00">X3:1</text>
<polygon fill="#000000" stroke="none" points="1007,-108 1007,-110 1171,-110 1171,-108 1007,-108"/>
<polygon fill="#a52a2a" stroke="none" points="1007,-106 1007,-108 1171,-108 1171,-106 1007,-106"/>
<polygon fill="#000000" stroke="none" points="1007,-104 1007,-106 1171,-106 1171,-104 1007,-104"/>
<text text-anchor="start" x="1020.5" y="-90.8" font-family="arial" font-size="14.00">X2:2</text>
<text text-anchor="start" x="1078.5" y="-90.8" font-family="arial" font-size="14.00">RD</text>
<text text-anchor="start" x="1127" y="-90.8" font-family="arial" font-size="14.00">X3:2</text>
<polygon fill="#000000" stroke="none" points="1007,-83 1007,-85 1171,-85 1171,-83 1007,-83"/>
<polygon fill="#ff0000" stroke="none" points="1007,-81 1007,-83 1171,-83 1171,-81 1007,-81"/>
<polygon fill="#000000" stroke="none" points="1007,-79 1007,-81 1171,-81 1171,-79 1007,-79"/>
<text text-anchor="start" x="1020.5" y="-65.8" font-family="arial" font-size="14.00">X2:3</text>
<text text-anchor="start" x="1078" y="-65.8" font-family="arial" font-size="14.00">OG</text>
<text text-anchor="start" x="1127" y="-65.8" font-family="arial" font-size="14.00">X3:3</text>
<polygon fill="#000000" stroke="none" points="1007,-58 1007,-60 1171,-60 1171,-58 1007,-58"/>
<polygon fill="#ff8000" stroke="none" points="1007,-56 1007,-58 1171,-58 1171,-56 1007,-56"/>
<polygon fill="#000000" stroke="none" points="1007,-54 1007,-56 1171,-56 1171,-54 1007,-54"/>
<text text-anchor="start" x="1020.5" y="-40.8" font-family="arial" font-size="14.00">X2:4</text>
<text text-anchor="start" x="1080" y="-40.8" font-family="arial" font-size="14.00">YE</text>
<text text-anchor="start" x="1127" y="-40.8" font-family="arial" font-size="14.00">X3:4</text>
<polygon fill="#000000" stroke="none" points="1007,-33 1007,-35 1171,-35 1171,-33 1007,-33"/>
<polygon fill="#ffff00" stroke="none" points="1007,-31 1007,-33 1171,-33 1171,-31 1007,-31"/>
<polygon fill="#000000" stroke="none" points="1007,-29 1007,-31 1171,-31 1171,-29 1007,-29"/>
<text text-anchor="start" x="1010" y="-10.8" font-family="arial" font-size="14.00">This cable is a bit shorter</text>
</g>
<!-- X2&#45;&#45;W2 -->
<g id="edge9" class="edge"><title>X2:p1r:e&#45;&#45;W2:w1:w</title>
<path fill="none" stroke="#000000" stroke-width="2" d="M863,-102C927.383,-102.034 943.355,-105.034 1007,-105"/>
<path fill="none" stroke="#a52a2a" stroke-width="2" d="M863,-104C927.014,-104 942.986,-107 1007,-107"/>
<path fill="none" stroke="#000000" stroke-width="2" d="M863,-106C926.645,-105.966 942.617,-108.966 1007,-109"/>
</g>
<!-- X2&#45;&#45;W2 -->
<g id="edge11" class="edge"><title>X2:p2r:e&#45;&#45;W2:w2:w</title>
<path fill="none" stroke="#000000" stroke-width="2" d="M863,-79C927.126,-79.0039 943.123,-80.0039 1007,-80"/>
<path fill="none" stroke="#ff0000" stroke-width="2" d="M863,-81C927.002,-81 942.998,-82 1007,-82"/>
<path fill="none" stroke="#000000" stroke-width="2" d="M863,-83C926.877,-82.9961 942.874,-83.9961 1007,-84"/>
</g>
<!-- X2&#45;&#45;W2 -->
<g id="edge13" class="edge"><title>X2:p3r:e&#45;&#45;W2:w3:w</title>
<path fill="none" stroke="#000000" stroke-width="2" d="M863,-56C926.877,-56.0039 942.874,-55.0039 1007,-55"/>
<path fill="none" stroke="#ff8000" stroke-width="2" d="M863,-58C927.002,-58 942.998,-57 1007,-57"/>
<path fill="none" stroke="#000000" stroke-width="2" d="M863,-60C927.126,-59.9961 943.123,-58.9961 1007,-59"/>
</g>
<!-- X2&#45;&#45;W2 -->
<g id="edge15" class="edge"><title>X2:p4r:e&#45;&#45;W2:w4:w</title>
<path fill="none" stroke="#000000" stroke-width="2" d="M863,-33C926.645,-33.0344 942.617,-30.0344 1007,-30"/>
<path fill="none" stroke="#ffff00" stroke-width="2" d="M863,-35C927.014,-35 942.986,-32 1007,-32"/>
<path fill="none" stroke="#000000" stroke-width="2" d="M863,-37C927.383,-36.9656 943.355,-33.9656 1007,-34"/>
</g>
<!-- X3 -->
<g id="node3" class="node"><title>X3</title>
<polygon fill="white" stroke="black" points="1315,-0.5 1315,-161.5 1529,-161.5 1529,-0.5 1315,-0.5"/>
<text text-anchor="middle" x="1422" y="-146.3" font-family="arial" font-size="14.00">X3</text>
<polyline fill="none" stroke="black" points="1315,-138.5 1529,-138.5 "/>
<text text-anchor="middle" x="1368" y="-123.3" font-family="arial" font-size="14.00">Molex KK 254</text>
<polyline fill="none" stroke="black" points="1421,-115.5 1421,-138.5 "/>
<text text-anchor="middle" x="1451" y="-123.3" font-family="arial" font-size="14.00">female</text>
<polyline fill="none" stroke="black" points="1481,-115.5 1481,-138.5 "/>
<text text-anchor="middle" x="1505" y="-123.3" font-family="arial" font-size="14.00">4&#45;pin</text>
<polyline fill="none" stroke="black" points="1315,-115.5 1529,-115.5 "/>
<text text-anchor="middle" x="1362.5" y="-100.3" font-family="arial" font-size="14.00">1</text>
<polyline fill="none" stroke="black" points="1315,-92.5 1410,-92.5 "/>
<text text-anchor="middle" x="1362.5" y="-77.3" font-family="arial" font-size="14.00">2</text>
<polyline fill="none" stroke="black" points="1315,-69.5 1410,-69.5 "/>
<text text-anchor="middle" x="1362.5" y="-54.3" font-family="arial" font-size="14.00">3</text>
<polyline fill="none" stroke="black" points="1315,-46.5 1410,-46.5 "/>
<text text-anchor="middle" x="1362.5" y="-31.3" font-family="arial" font-size="14.00">4</text>
<polyline fill="none" stroke="black" points="1410,-23.5 1410,-115.5 "/>
<text text-anchor="middle" x="1469.5" y="-100.3" font-family="arial" font-size="14.00">GND</text>
<polyline fill="none" stroke="black" points="1410,-92.5 1529,-92.5 "/>
<text text-anchor="middle" x="1469.5" y="-77.3" font-family="arial" font-size="14.00">VCC</text>
<polyline fill="none" stroke="black" points="1410,-69.5 1529,-69.5 "/>
<text text-anchor="middle" x="1469.5" y="-54.3" font-family="arial" font-size="14.00">SCL</text>
<polyline fill="none" stroke="black" points="1410,-46.5 1529,-46.5 "/>
<text text-anchor="middle" x="1469.5" y="-31.3" font-family="arial" font-size="14.00">SDA</text>
<polyline fill="none" stroke="black" points="1315,-23.5 1529,-23.5 "/>
<text text-anchor="middle" x="1422" y="-8.3" font-family="arial" font-size="14.00">to temperature sensor</text>
</g>
<!-- W1&#45;&#45;X2 -->
<g id="edge2" class="edge"><title>W1:w1:e&#45;&#45;X2:p1l:w</title>
<path fill="none" stroke="#000000" stroke-width="2" d="M505,-105C568.645,-105.034 584.617,-102.034 649,-102"/>
<path fill="none" stroke="#a52a2a" stroke-width="2" d="M505,-107C569.014,-107 584.986,-104 649,-104"/>
<path fill="none" stroke="#000000" stroke-width="2" d="M505,-109C569.383,-108.966 585.355,-105.966 649,-106"/>
</g>
<!-- W1&#45;&#45;X2 -->
<g id="edge4" class="edge"><title>W1:w2:e&#45;&#45;X2:p2l:w</title>
<path fill="none" stroke="#000000" stroke-width="2" d="M505,-80C568.877,-80.0039 584.874,-79.0039 649,-79"/>
<path fill="none" stroke="#ff0000" stroke-width="2" d="M505,-82C569.002,-82 584.998,-81 649,-81"/>
<path fill="none" stroke="#000000" stroke-width="2" d="M505,-84C569.126,-83.9961 585.123,-82.9961 649,-83"/>
</g>
<!-- W1&#45;&#45;X2 -->
<g id="edge6" class="edge"><title>W1:w3:e&#45;&#45;X2:p3l:w</title>
<path fill="none" stroke="#000000" stroke-width="2" d="M505,-55C569.126,-55.0039 585.123,-56.0039 649,-56"/>
<path fill="none" stroke="#ff8000" stroke-width="2" d="M505,-57C569.002,-57 584.998,-58 649,-58"/>
<path fill="none" stroke="#000000" stroke-width="2" d="M505,-59C568.877,-58.9961 584.874,-59.9961 649,-60"/>
</g>
<!-- W1&#45;&#45;X2 -->
<g id="edge8" class="edge"><title>W1:w4:e&#45;&#45;X2:p4l:w</title>
<path fill="none" stroke="#000000" stroke-width="2" d="M505,-30C569.383,-30.0344 585.355,-33.0344 649,-33"/>
<path fill="none" stroke="#ffff00" stroke-width="2" d="M505,-32C569.014,-32 584.986,-35 649,-35"/>
<path fill="none" stroke="#000000" stroke-width="2" d="M505,-34C568.645,-33.9656 584.617,-36.9656 649,-37"/>
</g>
<!-- W2&#45;&#45;X3 -->
<g id="edge10" class="edge"><title>W2:w1:e&#45;&#45;X3:p1l:w</title>
<path fill="none" stroke="#000000" stroke-width="2" d="M1171,-105C1234.64,-105.034 1250.62,-102.034 1315,-102"/>
<path fill="none" stroke="#a52a2a" stroke-width="2" d="M1171,-107C1235.01,-107 1250.99,-104 1315,-104"/>
<path fill="none" stroke="#000000" stroke-width="2" d="M1171,-109C1235.38,-108.966 1251.36,-105.966 1315,-106"/>
</g>
<!-- W2&#45;&#45;X3 -->
<g id="edge12" class="edge"><title>W2:w2:e&#45;&#45;X3:p2l:w</title>
<path fill="none" stroke="#000000" stroke-width="2" d="M1171,-80C1234.88,-80.0039 1250.87,-79.0039 1315,-79"/>
<path fill="none" stroke="#ff0000" stroke-width="2" d="M1171,-82C1235,-82 1251,-81 1315,-81"/>
<path fill="none" stroke="#000000" stroke-width="2" d="M1171,-84C1235.13,-83.9961 1251.12,-82.9961 1315,-83"/>
</g>
<!-- W2&#45;&#45;X3 -->
<g id="edge14" class="edge"><title>W2:w3:e&#45;&#45;X3:p3l:w</title>
<path fill="none" stroke="#000000" stroke-width="2" d="M1171,-55C1235.13,-55.0039 1251.12,-56.0039 1315,-56"/>
<path fill="none" stroke="#ff8000" stroke-width="2" d="M1171,-57C1235,-57 1251,-58 1315,-58"/>
<path fill="none" stroke="#000000" stroke-width="2" d="M1171,-59C1234.88,-58.9961 1250.87,-59.9961 1315,-60"/>
</g>
<!-- W2&#45;&#45;X3 -->
<g id="edge16" class="edge"><title>W2:w4:e&#45;&#45;X3:p4l:w</title>
<path fill="none" stroke="#000000" stroke-width="2" d="M1171,-30C1235.38,-30.0344 1251.36,-33.0344 1315,-33"/>
<path fill="none" stroke="#ffff00" stroke-width="2" d="M1171,-32C1235.01,-32 1250.99,-35 1315,-35"/>
<path fill="none" stroke="#000000" stroke-width="2" d="M1171,-34C1234.64,-33.9656 1250.62,-36.9656 1315,-37"/>
</g>
</g>
</svg>
