<?xml version="1.0" encoding="UTF-8" standalone="no"?>
<!DOCTYPE svg PUBLIC "-//W3C//DTD SVG 1.1//EN"
 "http://www.w3.org/Graphics/SVG/1.1/DTD/svg11.dtd">
<!-- Generated by graphviz version 7.1.0 (20230121.1956)
 -->
<!-- Pages: 1 -->
<svg width="1531pt" height="215pt"
 viewBox="0.00 0.00 1531.00 215.00" xmlns="http://www.w3.org/2000/svg" xmlns:xlink="http://www.w3.org/1999/xlink">
<g id="graph0" class="graph" transform="scale(1 1) rotate(0) translate(4 211)">
<polygon fill="#ffffff" stroke="none" points="-4,4 -4,-211 1527,-211 1527,4 -4,4"/>
<!-- X1 -->
<g id="node1" class="node">
<title>X1</title>
<polygon fill="#ffffff" stroke="black" points="171,-175 0,-175 0,-14 171,-14 171,-175"/>
<polygon fill="none" stroke="black" points="0.5,-151.5 0.5,-174.5 171.5,-174.5 171.5,-151.5 0.5,-151.5"/>
<text text-anchor="start" x="77.5" y="-159.3" font-family="arial" font-size="14.00">X1</text>
<polygon fill="none" stroke="black" points="0.5,-128.5 0.5,-151.5 93.5,-151.5 93.5,-128.5 0.5,-128.5"/>
<text text-anchor="start" x="4.5" y="-136.3" font-family="arial" font-size="14.00">Molex KK 254</text>
<polygon fill="none" stroke="black" points="93.5,-128.5 93.5,-151.5 132.5,-151.5 132.5,-128.5 93.5,-128.5"/>
<text text-anchor="start" x="97.5" y="-136.3" font-family="arial" font-size="14.00">male</text>
<polygon fill="none" stroke="black" points="132.5,-128.5 132.5,-151.5 171.5,-151.5 171.5,-128.5 132.5,-128.5"/>
<text text-anchor="start" x="136.5" y="-136.3" font-family="arial" font-size="14.00">4&#45;pin</text>
<polygon fill="none" stroke="black" points="0.5,-105.5 0.5,-128.5 97.5,-128.5 97.5,-105.5 0.5,-105.5"/>
<text text-anchor="start" x="33.5" y="-113.3" font-family="arial" font-size="14.00">GND</text>
<polygon fill="none" stroke="black" points="97.5,-105.5 97.5,-128.5 171.5,-128.5 171.5,-105.5 97.5,-105.5"/>
<text text-anchor="start" x="130.5" y="-113.3" font-family="arial" font-size="14.00">1</text>
<polygon fill="none" stroke="black" points="0.5,-82.5 0.5,-105.5 97.5,-105.5 97.5,-82.5 0.5,-82.5"/>
<text text-anchor="start" x="34.5" y="-90.3" font-family="arial" font-size="14.00">VCC</text>
<polygon fill="none" stroke="black" points="97.5,-82.5 97.5,-105.5 171.5,-105.5 171.5,-82.5 97.5,-82.5"/>
<text text-anchor="start" x="130.5" y="-90.3" font-family="arial" font-size="14.00">2</text>
<polygon fill="none" stroke="black" points="0.5,-59.5 0.5,-82.5 97.5,-82.5 97.5,-59.5 0.5,-59.5"/>
<text text-anchor="start" x="35.5" y="-67.3" font-family="arial" font-size="14.00">SCL</text>
<polygon fill="none" stroke="black" points="97.5,-59.5 97.5,-82.5 171.5,-82.5 171.5,-59.5 97.5,-59.5"/>
<text text-anchor="start" x="130.5" y="-67.3" font-family="arial" font-size="14.00">3</text>
<polygon fill="none" stroke="black" points="0.5,-36.5 0.5,-59.5 97.5,-59.5 97.5,-36.5 0.5,-36.5"/>
<text text-anchor="start" x="35" y="-44.3" font-family="arial" font-size="14.00">SDA</text>
<polygon fill="none" stroke="black" points="97.5,-36.5 97.5,-59.5 171.5,-59.5 171.5,-36.5 97.5,-36.5"/>
<text text-anchor="start" x="130.5" y="-44.3" font-family="arial" font-size="14.00">4</text>
<polygon fill="none" stroke="black" points="0.5,-13.5 0.5,-36.5 171.5,-36.5 171.5,-13.5 0.5,-13.5"/>
<text text-anchor="start" x="33.5" y="-21.3" font-family="arial" font-size="14.00">to microcontroller</text>
</g>
<!-- W1 -->
<g id="node4" class="node">
<title>W1</title>
<polygon fill="#ffffff" stroke="black" points="521,-207 315,-207 315,0 521,0 521,-207"/>
<polygon fill="none" stroke="black" points="315,-183.5 315,-206.5 521,-206.5 521,-183.5 315,-183.5"/>
<text text-anchor="start" x="407" y="-191.3" font-family="arial" font-size="14.00">W1</text>
<polygon fill="none" stroke="black" points="315,-160.5 315,-183.5 365,-183.5 365,-160.5 315,-160.5"/>
<text text-anchor="start" x="332.5" y="-168.3" font-family="arial" font-size="14.00">4x</text>
<polygon fill="none" stroke="black" points="365,-160.5 365,-183.5 452,-183.5 452,-160.5 365,-160.5"/>
<text text-anchor="start" x="382.5" y="-168.3" font-family="arial" font-size="14.00">24 AWG</text>
<polygon fill="none" stroke="black" points="452,-160.5 452,-183.5 521,-183.5 521,-160.5 452,-160.5"/>
<text text-anchor="start" x="469" y="-168.3" font-family="arial" font-size="14.00">0.3 m</text>
<text text-anchor="start" x="346.5" y="-147.3" font-family="arial" font-size="14.00"> </text>
<text text-anchor="start" x="317" y="-128.3" font-family="arial" font-size="14.00">X1:1:GND</text>
<text text-anchor="start" x="386" y="-128.3" font-family="arial" font-size="14.00"> &#160;&#160;&#160;&#160;1:BN &#160;&#160;&#160;</text>
<text text-anchor="start" x="456" y="-128.3" font-family="arial" font-size="14.00">X2:1:GND</text>
<polygon fill="#000000" stroke="none" points="315,-120.5 315,-122.5 521,-122.5 521,-120.5 315,-120.5"/>
<polygon fill="#895956" stroke="none" points="315,-118.5 315,-120.5 521,-120.5 521,-118.5 315,-118.5"/>
<polygon fill="#000000" stroke="none" points="315,-116.5 315,-118.5 521,-118.5 521,-116.5 315,-116.5"/>
<text text-anchor="start" x="318" y="-103.3" font-family="arial" font-size="14.00">X1:2:VCC</text>
<text text-anchor="start" x="385.5" y="-103.3" font-family="arial" font-size="14.00"> &#160;&#160;&#160;&#160;2:RD &#160;&#160;&#160;</text>
<text text-anchor="start" x="457" y="-103.3" font-family="arial" font-size="14.00">X2:2:VCC</text>
<polygon fill="#000000" stroke="none" points="315,-95.5 315,-97.5 521,-97.5 521,-95.5 315,-95.5"/>
<polygon fill="#ff0000" stroke="none" points="315,-93.5 315,-95.5 521,-95.5 521,-93.5 315,-93.5"/>
<polygon fill="#000000" stroke="none" points="315,-91.5 315,-93.5 521,-93.5 521,-91.5 315,-91.5"/>
<text text-anchor="start" x="319.5" y="-78.3" font-family="arial" font-size="14.00">X1:3:SCL</text>
<text text-anchor="start" x="384" y="-78.3" font-family="arial" font-size="14.00"> &#160;&#160;&#160;&#160;3:OG &#160;&#160;&#160;</text>
<text text-anchor="start" x="458.5" y="-78.3" font-family="arial" font-size="14.00">X2:3:SCL</text>
<polygon fill="#000000" stroke="none" points="315,-70.5 315,-72.5 521,-72.5 521,-70.5 315,-70.5"/>
<polygon fill="#ff8000" stroke="none" points="315,-68.5 315,-70.5 521,-70.5 521,-68.5 315,-68.5"/>
<polygon fill="#000000" stroke="none" points="315,-66.5 315,-68.5 521,-68.5 521,-66.5 315,-66.5"/>
<text text-anchor="start" x="318.5" y="-53.3" font-family="arial" font-size="14.00">X1:4:SDA</text>
<text text-anchor="start" x="386" y="-53.3" font-family="arial" font-size="14.00"> &#160;&#160;&#160;&#160;4:YE &#160;&#160;&#160;</text>
<text text-anchor="start" x="457.5" y="-53.3" font-family="arial" font-size="14.00">X2:4:SDA</text>
<polygon fill="#000000" stroke="none" points="315,-45.5 315,-47.5 521,-47.5 521,-45.5 315,-45.5"/>
<polygon fill="#ffff00" stroke="none" points="315,-43.5 315,-45.5 521,-45.5 521,-43.5 315,-43.5"/>
<polygon fill="#000000" stroke="none" points="315,-41.5 315,-43.5 521,-43.5 521,-41.5 315,-41.5"/>
<text text-anchor="start" x="346.5" y="-28.3" font-family="arial" font-size="14.00"> </text>
<polygon fill="none" stroke="black" points="315,0.5 315,-22.5 521,-22.5 521,0.5 315,0.5"/>
<text text-anchor="start" x="345" y="-7.3" font-family="arial" font-size="14.00">This cable is a bit longer</text>
</g>
<!-- X1&#45;&#45;W1 -->
<g id="edge1" class="edge">
<title>X1:e&#45;&#45;W1:w</title>
<path fill="none" stroke="#000000" stroke-width="2" d="M171,-115.5C235.25,-115.52 251.24,-117.52 315,-117.5"/>
<path fill="none" stroke="#895956" stroke-width="2" d="M171,-117.5C235.01,-117.5 250.99,-119.5 315,-119.5"/>
<path fill="none" stroke="#000000" stroke-width="2" d="M171,-119.5C234.76,-119.48 250.75,-121.48 315,-121.5"/>
</g>
<!-- X1&#45;&#45;W1 -->
<g id="edge3" class="edge">
<title>X1:e&#45;&#45;W1:w</title>
<path fill="none" stroke="#000000" stroke-width="2" d="M171,-91.5C235.13,-91.5 251.12,-92.5 315,-92.5"/>
<path fill="none" stroke="#ff0000" stroke-width="2" d="M171,-93.5C235,-93.5 251,-94.5 315,-94.5"/>
<path fill="none" stroke="#000000" stroke-width="2" d="M171,-95.5C234.88,-95.5 250.87,-96.5 315,-96.5"/>
</g>
<!-- X1&#45;&#45;W1 -->
<g id="edge5" class="edge">
<title>X1:e&#45;&#45;W1:w</title>
<path fill="none" stroke="#000000" stroke-width="2" d="M171,-68.5C234.88,-68.5 250.87,-67.5 315,-67.5"/>
<path fill="none" stroke="#ff8000" stroke-width="2" d="M171,-70.5C235,-70.5 251,-69.5 315,-69.5"/>
<path fill="none" stroke="#000000" stroke-width="2" d="M171,-72.5C235.13,-72.5 251.12,-71.5 315,-71.5"/>
</g>
<!-- X1&#45;&#45;W1 -->
<g id="edge7" class="edge">
<title>X1:e&#45;&#45;W1:w</title>
<path fill="none" stroke="#000000" stroke-width="2" d="M171,-45.5C234.64,-45.53 250.62,-42.53 315,-42.5"/>
<path fill="none" stroke="#ffff00" stroke-width="2" d="M171,-47.5C235.01,-47.5 250.99,-44.5 315,-44.5"/>
<path fill="none" stroke="#000000" stroke-width="2" d="M171,-49.5C235.38,-49.47 251.36,-46.47 315,-46.5"/>
</g>
<!-- X2 -->
<g id="node2" class="node">
<title>X2</title>
<polygon fill="#ffffff" stroke="black" points="847,-175 665,-175 665,-14 847,-14 847,-175"/>
<polygon fill="none" stroke="black" points="665,-151.5 665,-174.5 847,-174.5 847,-151.5 665,-151.5"/>
<text text-anchor="start" x="747.5" y="-159.3" font-family="arial" font-size="14.00">X2</text>
<polygon fill="none" stroke="black" points="665,-128.5 665,-151.5 758,-151.5 758,-128.5 665,-128.5"/>
<text text-anchor="start" x="669" y="-136.3" font-family="arial" font-size="14.00">Molex KK 254</text>
<polygon fill="none" stroke="black" points="758,-128.5 758,-151.5 808,-151.5 808,-128.5 758,-128.5"/>
<text text-anchor="start" x="762" y="-136.3" font-family="arial" font-size="14.00">female</text>
<polygon fill="none" stroke="black" points="808,-128.5 808,-151.5 847,-151.5 847,-128.5 808,-128.5"/>
<text text-anchor="start" x="812" y="-136.3" font-family="arial" font-size="14.00">4&#45;pin</text>
<polygon fill="none" stroke="black" points="665,-105.5 665,-128.5 718,-128.5 718,-105.5 665,-105.5"/>
<text text-anchor="start" x="687.5" y="-113.3" font-family="arial" font-size="14.00">1</text>
<polygon fill="none" stroke="black" points="718,-105.5 718,-128.5 794,-128.5 794,-105.5 718,-105.5"/>
<text text-anchor="start" x="740.5" y="-113.3" font-family="arial" font-size="14.00">GND</text>
<polygon fill="none" stroke="black" points="794,-105.5 794,-128.5 847,-128.5 847,-105.5 794,-105.5"/>
<text text-anchor="start" x="816.5" y="-113.3" font-family="arial" font-size="14.00">1</text>
<polygon fill="none" stroke="black" points="665,-82.5 665,-105.5 718,-105.5 718,-82.5 665,-82.5"/>
<text text-anchor="start" x="687.5" y="-90.3" font-family="arial" font-size="14.00">2</text>
<polygon fill="none" stroke="black" points="718,-82.5 718,-105.5 794,-105.5 794,-82.5 718,-82.5"/>
<text text-anchor="start" x="741.5" y="-90.3" font-family="arial" font-size="14.00">VCC</text>
<polygon fill="none" stroke="black" points="794,-82.5 794,-105.5 847,-105.5 847,-82.5 794,-82.5"/>
<text text-anchor="start" x="816.5" y="-90.3" font-family="arial" font-size="14.00">2</text>
<polygon fill="none" stroke="black" points="665,-59.5 665,-82.5 718,-82.5 718,-59.5 665,-59.5"/>
<text text-anchor="start" x="687.5" y="-67.3" font-family="arial" font-size="14.00">3</text>
<polygon fill="none" stroke="black" points="718,-59.5 718,-82.5 794,-82.5 794,-59.5 718,-59.5"/>
<text text-anchor="start" x="742.5" y="-67.3" font-family="arial" font-size="14.00">SCL</text>
<polygon fill="none" stroke="black" points="794,-59.5 794,-82.5 847,-82.5 847,-59.5 794,-59.5"/>
<text text-anchor="start" x="816.5" y="-67.3" font-family="arial" font-size="14.00">3</text>
<polygon fill="none" stroke="black" points="665,-36.5 665,-59.5 718,-59.5 718,-36.5 665,-36.5"/>
<text text-anchor="start" x="687.5" y="-44.3" font-family="arial" font-size="14.00">4</text>
<polygon fill="none" stroke="black" points="718,-36.5 718,-59.5 794,-59.5 794,-36.5 718,-36.5"/>
<text text-anchor="start" x="742" y="-44.3" font-family="arial" font-size="14.00">SDA</text>
<polygon fill="none" stroke="black" points="794,-36.5 794,-59.5 847,-59.5 847,-36.5 794,-36.5"/>
<text text-anchor="start" x="816.5" y="-44.3" font-family="arial" font-size="14.00">4</text>
<polygon fill="none" stroke="black" points="665,-13.5 665,-36.5 847,-36.5 847,-13.5 665,-13.5"/>
<text text-anchor="start" x="705" y="-21.3" font-family="arial" font-size="14.00">to accelerometer</text>
</g>
<!-- W2 -->
<g id="node5" class="node">
<title>W2</title>
<polygon fill="#ffffff" stroke="black" points="1197,-207 991,-207 991,0 1197,0 1197,-207"/>
<polygon fill="none" stroke="black" points="991,-183.5 991,-206.5 1197,-206.5 1197,-183.5 991,-183.5"/>
<text text-anchor="start" x="1083" y="-191.3" font-family="arial" font-size="14.00">W2</text>
<polygon fill="none" stroke="black" points="991,-160.5 991,-183.5 1041,-183.5 1041,-160.5 991,-160.5"/>
<text text-anchor="start" x="1008.5" y="-168.3" font-family="arial" font-size="14.00">4x</text>
<polygon fill="none" stroke="black" points="1041,-160.5 1041,-183.5 1128,-183.5 1128,-160.5 1041,-160.5"/>
<text text-anchor="start" x="1058.5" y="-168.3" font-family="arial" font-size="14.00">24 AWG</text>
<polygon fill="none" stroke="black" points="1128,-160.5 1128,-183.5 1197,-183.5 1197,-160.5 1128,-160.5"/>
<text text-anchor="start" x="1145" y="-168.3" font-family="arial" font-size="14.00">0.1 m</text>
<text text-anchor="start" x="1022.5" y="-147.3" font-family="arial" font-size="14.00"> </text>
<text text-anchor="start" x="993" y="-128.3" font-family="arial" font-size="14.00">X2:1:GND</text>
<text text-anchor="start" x="1062" y="-128.3" font-family="arial" font-size="14.00"> &#160;&#160;&#160;&#160;1:BN &#160;&#160;&#160;</text>
<text text-anchor="start" x="1132" y="-128.3" font-family="arial" font-size="14.00">X3:1:GND</text>
<polygon fill="#000000" stroke="none" points="991,-120.5 991,-122.5 1197,-122.5 1197,-120.5 991,-120.5"/>
<polygon fill="#895956" stroke="none" points="991,-118.5 991,-120.5 1197,-120.5 1197,-118.5 991,-118.5"/>
<polygon fill="#000000" stroke="none" points="991,-116.5 991,-118.5 1197,-118.5 1197,-116.5 991,-116.5"/>
<text text-anchor="start" x="994" y="-103.3" font-family="arial" font-size="14.00">X2:2:VCC</text>
<text text-anchor="start" x="1061.5" y="-103.3" font-family="arial" font-size="14.00"> &#160;&#160;&#160;&#160;2:RD &#160;&#160;&#160;</text>
<text text-anchor="start" x="1133" y="-103.3" font-family="arial" font-size="14.00">X3:2:VCC</text>
<polygon fill="#000000" stroke="none" points="991,-95.5 991,-97.5 1197,-97.5 1197,-95.5 991,-95.5"/>
<polygon fill="#ff0000" stroke="none" points="991,-93.5 991,-95.5 1197,-95.5 1197,-93.5 991,-93.5"/>
<polygon fill="#000000" stroke="none" points="991,-91.5 991,-93.5 1197,-93.5 1197,-91.5 991,-91.5"/>
<text text-anchor="start" x="995.5" y="-78.3" font-family="arial" font-size="14.00">X2:3:SCL</text>
<text text-anchor="start" x="1060" y="-78.3" font-family="arial" font-size="14.00"> &#160;&#160;&#160;&#160;3:OG &#160;&#160;&#160;</text>
<text text-anchor="start" x="1134.5" y="-78.3" font-family="arial" font-size="14.00">X3:3:SCL</text>
<polygon fill="#000000" stroke="none" points="991,-70.5 991,-72.5 1197,-72.5 1197,-70.5 991,-70.5"/>
<polygon fill="#ff8000" stroke="none" points="991,-68.5 991,-70.5 1197,-70.5 1197,-68.5 991,-68.5"/>
<polygon fill="#000000" stroke="none" points="991,-66.5 991,-68.5 1197,-68.5 1197,-66.5 991,-66.5"/>
<text text-anchor="start" x="994.5" y="-53.3" font-family="arial" font-size="14.00">X2:4:SDA</text>
<text text-anchor="start" x="1062" y="-53.3" font-family="arial" font-size="14.00"> &#160;&#160;&#160;&#160;4:YE &#160;&#160;&#160;</text>
<text text-anchor="start" x="1133.5" y="-53.3" font-family="arial" font-size="14.00">X3:4:SDA</text>
<polygon fill="#000000" stroke="none" points="991,-45.5 991,-47.5 1197,-47.5 1197,-45.5 991,-45.5"/>
<polygon fill="#ffff00" stroke="none" points="991,-43.5 991,-45.5 1197,-45.5 1197,-43.5 991,-43.5"/>
<polygon fill="#000000" stroke="none" points="991,-41.5 991,-43.5 1197,-43.5 1197,-41.5 991,-41.5"/>
<text text-anchor="start" x="1022.5" y="-28.3" font-family="arial" font-size="14.00"> </text>
<polygon fill="none" stroke="black" points="991,0.5 991,-22.5 1197,-22.5 1197,0.5 991,0.5"/>
<text text-anchor="start" x="1018.5" y="-7.3" font-family="arial" font-size="14.00">This cable is a bit shorter</text>
</g>
<!-- X2&#45;&#45;W2 -->
<g id="edge9" class="edge">
<title>X2:e&#45;&#45;W2:w</title>
<path fill="none" stroke="#000000" stroke-width="2" d="M847,-115.5C911.25,-115.52 927.24,-117.52 991,-117.5"/>
<path fill="none" stroke="#895956" stroke-width="2" d="M847,-117.5C911.01,-117.5 926.99,-119.5 991,-119.5"/>
<path fill="none" stroke="#000000" stroke-width="2" d="M847,-119.5C910.76,-119.48 926.75,-121.48 991,-121.5"/>
</g>
<!-- X2&#45;&#45;W2 -->
<g id="edge11" class="edge">
<title>X2:e&#45;&#45;W2:w</title>
<path fill="none" stroke="#000000" stroke-width="2" d="M847,-91.5C911.13,-91.5 927.12,-92.5 991,-92.5"/>
<path fill="none" stroke="#ff0000" stroke-width="2" d="M847,-93.5C911,-93.5 927,-94.5 991,-94.5"/>
<path fill="none" stroke="#000000" stroke-width="2" d="M847,-95.5C910.88,-95.5 926.87,-96.5 991,-96.5"/>
</g>
<!-- X2&#45;&#45;W2 -->
<g id="edge13" class="edge">
<title>X2:e&#45;&#45;W2:w</title>
<path fill="none" stroke="#000000" stroke-width="2" d="M847,-68.5C910.88,-68.5 926.87,-67.5 991,-67.5"/>
<path fill="none" stroke="#ff8000" stroke-width="2" d="M847,-70.5C911,-70.5 927,-69.5 991,-69.5"/>
<path fill="none" stroke="#000000" stroke-width="2" d="M847,-72.5C911.13,-72.5 927.12,-71.5 991,-71.5"/>
</g>
<!-- X2&#45;&#45;W2 -->
<g id="edge15" class="edge">
<title>X2:e&#45;&#45;W2:w</title>
<path fill="none" stroke="#000000" stroke-width="2" d="M847,-45.5C910.64,-45.53 926.62,-42.53 991,-42.5"/>
<path fill="none" stroke="#ffff00" stroke-width="2" d="M847,-47.5C911.01,-47.5 926.99,-44.5 991,-44.5"/>
<path fill="none" stroke="#000000" stroke-width="2" d="M847,-49.5C911.38,-49.47 927.36,-46.47 991,-46.5"/>
</g>
<!-- X3 -->
<g id="node3" class="node">
<title>X3</title>
<polygon fill="#ffffff" stroke="black" points="1523,-175 1341,-175 1341,-14 1523,-14 1523,-175"/>
<polygon fill="none" stroke="black" points="1341,-151.5 1341,-174.5 1523,-174.5 1523,-151.5 1341,-151.5"/>
<text text-anchor="start" x="1423.5" y="-159.3" font-family="arial" font-size="14.00">X3</text>
<polygon fill="none" stroke="black" points="1341,-128.5 1341,-151.5 1434,-151.5 1434,-128.5 1341,-128.5"/>
<text text-anchor="start" x="1345" y="-136.3" font-family="arial" font-size="14.00">Molex KK 254</text>
<polygon fill="none" stroke="black" points="1434,-128.5 1434,-151.5 1484,-151.5 1484,-128.5 1434,-128.5"/>
<text text-anchor="start" x="1438" y="-136.3" font-family="arial" font-size="14.00">female</text>
<polygon fill="none" stroke="black" points="1484,-128.5 1484,-151.5 1523,-151.5 1523,-128.5 1484,-128.5"/>
<text text-anchor="start" x="1488" y="-136.3" font-family="arial" font-size="14.00">4&#45;pin</text>
<polygon fill="none" stroke="black" points="1341,-105.5 1341,-128.5 1421,-128.5 1421,-105.5 1341,-105.5"/>
<text text-anchor="start" x="1377" y="-113.3" font-family="arial" font-size="14.00">1</text>
<polygon fill="none" stroke="black" points="1421,-105.5 1421,-128.5 1523,-128.5 1523,-105.5 1421,-105.5"/>
<text text-anchor="start" x="1456.5" y="-113.3" font-family="arial" font-size="14.00">GND</text>
<polygon fill="none" stroke="black" points="1341,-82.5 1341,-105.5 1421,-105.5 1421,-82.5 1341,-82.5"/>
<text text-anchor="start" x="1377" y="-90.3" font-family="arial" font-size="14.00">2</text>
<polygon fill="none" stroke="black" points="1421,-82.5 1421,-105.5 1523,-105.5 1523,-82.5 1421,-82.5"/>
<text text-anchor="start" x="1457.5" y="-90.3" font-family="arial" font-size="14.00">VCC</text>
<polygon fill="none" stroke="black" points="1341,-59.5 1341,-82.5 1421,-82.5 1421,-59.5 1341,-59.5"/>
<text text-anchor="start" x="1377" y="-67.3" font-family="arial" font-size="14.00">3</text>
<polygon fill="none" stroke="black" points="1421,-59.5 1421,-82.5 1523,-82.5 1523,-59.5 1421,-59.5"/>
<text text-anchor="start" x="1458.5" y="-67.3" font-family="arial" font-size="14.00">SCL</text>
<polygon fill="none" stroke="black" points="1341,-36.5 1341,-59.5 1421,-59.5 1421,-36.5 1341,-36.5"/>
<text text-anchor="start" x="1377" y="-44.3" font-family="arial" font-size="14.00">4</text>
<polygon fill="none" stroke="black" points="1421,-36.5 1421,-59.5 1523,-59.5 1523,-36.5 1421,-36.5"/>
<text text-anchor="start" x="1458" y="-44.3" font-family="arial" font-size="14.00">SDA</text>
<polygon fill="none" stroke="black" points="1341,-13.5 1341,-36.5 1523,-36.5 1523,-13.5 1341,-13.5"/>
<text text-anchor="start" x="1365.5" y="-21.3" font-family="arial" font-size="14.00">to temperature sensor</text>
</g>
<!-- W1&#45;&#45;X2 -->
<g id="edge2" class="edge">
<title>W1:e&#45;&#45;X2:w</title>
<path fill="none" stroke="#000000" stroke-width="2" d="M521,-117.5C584.76,-117.52 600.75,-115.52 665,-115.5"/>
<path fill="none" stroke="#895956" stroke-width="2" d="M521,-119.5C585.01,-119.5 600.99,-117.5 665,-117.5"/>
<path fill="none" stroke="#000000" stroke-width="2" d="M521,-121.5C585.25,-121.48 601.24,-119.48 665,-119.5"/>
</g>
<!-- W1&#45;&#45;X2 -->
<g id="edge4" class="edge">
<title>W1:e&#45;&#45;X2:w</title>
<path fill="none" stroke="#000000" stroke-width="2" d="M521,-92.5C584.88,-92.5 600.87,-91.5 665,-91.5"/>
<path fill="none" stroke="#ff0000" stroke-width="2" d="M521,-94.5C585,-94.5 601,-93.5 665,-93.5"/>
<path fill="none" stroke="#000000" stroke-width="2" d="M521,-96.5C585.13,-96.5 601.12,-95.5 665,-95.5"/>
</g>
<!-- W1&#45;&#45;X2 -->
<g id="edge6" class="edge">
<title>W1:e&#45;&#45;X2:w</title>
<path fill="none" stroke="#000000" stroke-width="2" d="M521,-67.5C585.13,-67.5 601.12,-68.5 665,-68.5"/>
<path fill="none" stroke="#ff8000" stroke-width="2" d="M521,-69.5C585,-69.5 601,-70.5 665,-70.5"/>
<path fill="none" stroke="#000000" stroke-width="2" d="M521,-71.5C584.88,-71.5 600.87,-72.5 665,-72.5"/>
</g>
<!-- W1&#45;&#45;X2 -->
<g id="edge8" class="edge">
<title>W1:e&#45;&#45;X2:w</title>
<path fill="none" stroke="#000000" stroke-width="2" d="M521,-42.5C585.38,-42.53 601.36,-45.53 665,-45.5"/>
<path fill="none" stroke="#ffff00" stroke-width="2" d="M521,-44.5C585.01,-44.5 600.99,-47.5 665,-47.5"/>
<path fill="none" stroke="#000000" stroke-width="2" d="M521,-46.5C584.64,-46.47 600.62,-49.47 665,-49.5"/>
</g>
<!-- W2&#45;&#45;X3 -->
<g id="edge10" class="edge">
<title>W2:e&#45;&#45;X3:w</title>
<path fill="none" stroke="#000000" stroke-width="2" d="M1197,-117.5C1260.76,-117.52 1276.75,-115.52 1341,-115.5"/>
<path fill="none" stroke="#895956" stroke-width="2" d="M1197,-119.5C1261.01,-119.5 1276.99,-117.5 1341,-117.5"/>
<path fill="none" stroke="#000000" stroke-width="2" d="M1197,-121.5C1261.25,-121.48 1277.24,-119.48 1341,-119.5"/>
</g>
<!-- W2&#45;&#45;X3 -->
<g id="edge12" class="edge">
<title>W2:e&#45;&#45;X3:w</title>
<path fill="none" stroke="#000000" stroke-width="2" d="M1197,-92.5C1260.88,-92.5 1276.87,-91.5 1341,-91.5"/>
<path fill="none" stroke="#ff0000" stroke-width="2" d="M1197,-94.5C1261,-94.5 1277,-93.5 1341,-93.5"/>
<path fill="none" stroke="#000000" stroke-width="2" d="M1197,-96.5C1261.13,-96.5 1277.12,-95.5 1341,-95.5"/>
</g>
<!-- W2&#45;&#45;X3 -->
<g id="edge14" class="edge">
<title>W2:e&#45;&#45;X3:w</title>
<path fill="none" stroke="#000000" stroke-width="2" d="M1197,-67.5C1261.13,-67.5 1277.12,-68.5 1341,-68.5"/>
<path fill="none" stroke="#ff8000" stroke-width="2" d="M1197,-69.5C1261,-69.5 1277,-70.5 1341,-70.5"/>
<path fill="none" stroke="#000000" stroke-width="2" d="M1197,-71.5C1260.88,-71.5 1276.87,-72.5 1341,-72.5"/>
</g>
<!-- W2&#45;&#45;X3 -->
<g id="edge16" class="edge">
<title>W2:e&#45;&#45;X3:w</title>
<path fill="none" stroke="#000000" stroke-width="2" d="M1197,-42.5C1261.38,-42.53 1277.36,-45.53 1341,-45.5"/>
<path fill="none" stroke="#ffff00" stroke-width="2" d="M1197,-44.5C1261.01,-44.5 1276.99,-47.5 1341,-47.5"/>
<path fill="none" stroke="#000000" stroke-width="2" d="M1197,-46.5C1260.64,-46.47 1276.62,-49.47 1341,-49.5"/>
</g>
</g>
</svg>
