<?xml version="1.0" encoding="UTF-8" standalone="no"?>
<!DOCTYPE svg PUBLIC "-//W3C//DTD SVG 1.1//EN"
 "http://www.w3.org/Graphics/SVG/1.1/DTD/svg11.dtd">
<!-- Generated by graphviz version 2.44.1 (20200629.0846)
 -->
<!-- Pages: 1 -->
<svg width="1432pt" height="215pt"
 viewBox="0.00 0.00 1432.00 215.00" xmlns="http://www.w3.org/2000/svg" xmlns:xlink="http://www.w3.org/1999/xlink">
<g id="graph0" class="graph" transform="scale(1 1) rotate(0) translate(4 211)">
<polygon fill="white" stroke="transparent" points="-4,4 -4,-211 1428,-211 1428,4 -4,4"/>
<!-- X1 -->
<g id="node1" class="node">
<title>X1</title>
<polygon fill="white" stroke="transparent" points="171,-175 0,-175 0,-14 171,-14 171,-175"/>
<polygon fill="none" stroke="black" points="0.5,-151.5 0.5,-174.5 171.5,-174.5 171.5,-151.5 0.5,-151.5"/>
<text text-anchor="start" x="77.5" y="-159.3" font-family="arial" font-size="14.00">X1</text>
<polygon fill="none" stroke="black" points="0.5,-128.5 0.5,-151.5 93.5,-151.5 93.5,-128.5 0.5,-128.5"/>
<text text-anchor="start" x="4.5" y="-136.3" font-family="arial" font-size="14.00">Molex KK 254</text>
<polygon fill="none" stroke="black" points="93.5,-128.5 93.5,-151.5 132.5,-151.5 132.5,-128.5 93.5,-128.5"/>
<text text-anchor="start" x="97.5" y="-136.3" font-family="arial" font-size="14.00">male</text>
<polygon fill="none" stroke="black" points="132.5,-128.5 132.5,-151.5 171.5,-151.5 171.5,-128.5 132.5,-128.5"/>
<text text-anchor="start" x="136.5" y="-136.3" font-family="arial" font-size="14.00">4&#45;pin</text>
<polygon fill="none" stroke="black" points="0.5,-105.5 0.5,-128.5 97.5,-128.5 97.5,-105.5 0.5,-105.5"/>
<text text-anchor="start" x="33.5" y="-113.3" font-family="arial" font-size="14.00">GND</text>
<polygon fill="none" stroke="black" points="97.5,-105.5 97.5,-128.5 171.5,-128.5 171.5,-105.5 97.5,-105.5"/>
<text text-anchor="start" x="130.5" y="-113.3" font-family="arial" font-size="14.00">1</text>
<polygon fill="none" stroke="black" points="0.5,-82.5 0.5,-105.5 97.5,-105.5 97.5,-82.5 0.5,-82.5"/>
<text text-anchor="start" x="34.5" y="-90.3" font-family="arial" font-size="14.00">VCC</text>
<polygon fill="none" stroke="black" points="97.5,-82.5 97.5,-105.5 171.5,-105.5 171.5,-82.5 97.5,-82.5"/>
<text text-anchor="start" x="130.5" y="-90.3" font-family="arial" font-size="14.00">2</text>
<polygon fill="none" stroke="black" points="0.5,-59.5 0.5,-82.5 97.5,-82.5 97.5,-59.5 0.5,-59.5"/>
<text text-anchor="start" x="35.5" y="-67.3" font-family="arial" font-size="14.00">SCL</text>
<polygon fill="none" stroke="black" points="97.5,-59.5 97.5,-82.5 171.5,-82.5 171.5,-59.5 97.5,-59.5"/>
<text text-anchor="start" x="130.5" y="-67.3" font-family="arial" font-size="14.00">3</text>
<polygon fill="none" stroke="black" points="0.5,-36.5 0.5,-59.5 97.5,-59.5 97.5,-36.5 0.5,-36.5"/>
<text text-anchor="start" x="35" y="-44.3" font-family="arial" font-size="14.00">SDA</text>
<polygon fill="none" stroke="black" points="97.5,-36.5 97.5,-59.5 171.5,-59.5 171.5,-36.5 97.5,-36.5"/>
<text text-anchor="start" x="130.5" y="-44.3" font-family="arial" font-size="14.00">4</text>
<polygon fill="none" stroke="black" points="0.5,-13.5 0.5,-36.5 171.5,-36.5 171.5,-13.5 0.5,-13.5"/>
<text text-anchor="start" x="33.5" y="-21.3" font-family="arial" font-size="14.00">to microcontroller</text>
</g>
<!-- W1 -->
<g id="node4" class="node">
<title>W1</title>
<polygon fill="none" stroke="black" points="469,-207 315,-207 315,0 469,0 469,-207"/>
<polygon fill="none" stroke="black" points="315,-183.5 315,-206.5 469,-206.5 469,-183.5 315,-183.5"/>
<text text-anchor="start" x="381" y="-191.3" font-family="arial" font-size="14.00">W1</text>
<polygon fill="none" stroke="black" points="315,-160.5 315,-183.5 348,-183.5 348,-160.5 315,-160.5"/>
<text text-anchor="start" x="324" y="-168.3" font-family="arial" font-size="14.00">4x</text>
<polygon fill="none" stroke="black" points="348,-160.5 348,-183.5 417,-183.5 417,-160.5 348,-160.5"/>
<text text-anchor="start" x="356.5" y="-168.3" font-family="arial" font-size="14.00">24 AWG</text>
<polygon fill="none" stroke="black" points="417,-160.5 417,-183.5 469,-183.5 469,-160.5 417,-160.5"/>
<text text-anchor="start" x="425.5" y="-168.3" font-family="arial" font-size="14.00">0.3 m</text>
<text text-anchor="start" x="339.5" y="-147.3" font-family="arial" font-size="14.00"> </text>
<text text-anchor="start" x="327.5" y="-128.3" font-family="arial" font-size="14.00">X1:1</text>
<text text-anchor="start" x="382.5" y="-128.3" font-family="arial" font-size="14.00">BN</text>
<text text-anchor="start" x="428.5" y="-128.3" font-family="arial" font-size="14.00">X2:1</text>
<polygon fill="#000000" stroke="transparent" points="315,-120.5 315,-122.5 469,-122.5 469,-120.5 315,-120.5"/>
<polygon fill="#895956" stroke="transparent" points="315,-118.5 315,-120.5 469,-120.5 469,-118.5 315,-118.5"/>
<polygon fill="#000000" stroke="transparent" points="315,-116.5 315,-118.5 469,-118.5 469,-116.5 315,-116.5"/>
<text text-anchor="start" x="327.5" y="-103.3" font-family="arial" font-size="14.00">X1:2</text>
<text text-anchor="start" x="382" y="-103.3" font-family="arial" font-size="14.00">RD</text>
<text text-anchor="start" x="428.5" y="-103.3" font-family="arial" font-size="14.00">X2:2</text>
<polygon fill="#000000" stroke="transparent" points="315,-95.5 315,-97.5 469,-97.5 469,-95.5 315,-95.5"/>
<polygon fill="#ff0000" stroke="transparent" points="315,-93.5 315,-95.5 469,-95.5 469,-93.5 315,-93.5"/>
<polygon fill="#000000" stroke="transparent" points="315,-91.5 315,-93.5 469,-93.5 469,-91.5 315,-91.5"/>
<text text-anchor="start" x="327.5" y="-78.3" font-family="arial" font-size="14.00">X1:3</text>
<text text-anchor="start" x="380.5" y="-78.3" font-family="arial" font-size="14.00">OG</text>
<text text-anchor="start" x="428.5" y="-78.3" font-family="arial" font-size="14.00">X2:3</text>
<polygon fill="#000000" stroke="transparent" points="315,-70.5 315,-72.5 469,-72.5 469,-70.5 315,-70.5"/>
<polygon fill="#ff8000" stroke="transparent" points="315,-68.5 315,-70.5 469,-70.5 469,-68.5 315,-68.5"/>
<polygon fill="#000000" stroke="transparent" points="315,-66.5 315,-68.5 469,-68.5 469,-66.5 315,-66.5"/>
<text text-anchor="start" x="327.5" y="-53.3" font-family="arial" font-size="14.00">X1:4</text>
<text text-anchor="start" x="382.5" y="-53.3" font-family="arial" font-size="14.00">YE</text>
<text text-anchor="start" x="428.5" y="-53.3" font-family="arial" font-size="14.00">X2:4</text>
<polygon fill="#000000" stroke="transparent" points="315,-45.5 315,-47.5 469,-47.5 469,-45.5 315,-45.5"/>
<polygon fill="#ffff00" stroke="transparent" points="315,-43.5 315,-45.5 469,-45.5 469,-43.5 315,-43.5"/>
<polygon fill="#000000" stroke="transparent" points="315,-41.5 315,-43.5 469,-43.5 469,-41.5 315,-41.5"/>
<text text-anchor="start" x="339.5" y="-28.3" font-family="arial" font-size="14.00"> </text>
<polygon fill="none" stroke="black" points="315,0.5 315,-22.5 469,-22.5 469,0.5 315,0.5"/>
<text text-anchor="start" x="319" y="-7.3" font-family="arial" font-size="14.00">This cable is a bit longer</text>
</g>
<!-- X1&#45;&#45;W1 -->
<g id="edge1" class="edge">
<title>X1:e&#45;&#45;W1:w</title>
<path fill="none" stroke="#000000" stroke-width="2" d="M171,-115.5C235.25,-115.52 251.24,-117.52 315,-117.5"/>
<path fill="none" stroke="#895956" stroke-width="2" d="M171,-117.5C235.01,-117.5 250.99,-119.5 315,-119.5"/>
<path fill="none" stroke="#000000" stroke-width="2" d="M171,-119.5C234.76,-119.48 250.75,-121.48 315,-121.5"/>
</g>
<!-- X1&#45;&#45;W1 -->
<g id="edge3" class="edge">
<title>X1:e&#45;&#45;W1:w</title>
<path fill="none" stroke="#000000" stroke-width="2" d="M171,-91.5C235.13,-91.5 251.12,-92.5 315,-92.5"/>
<path fill="none" stroke="#ff0000" stroke-width="2" d="M171,-93.5C235,-93.5 251,-94.5 315,-94.5"/>
<path fill="none" stroke="#000000" stroke-width="2" d="M171,-95.5C234.88,-95.5 250.87,-96.5 315,-96.5"/>
</g>
<!-- X1&#45;&#45;W1 -->
<g id="edge5" class="edge">
<title>X1:e&#45;&#45;W1:w</title>
<path fill="none" stroke="#000000" stroke-width="2" d="M171,-68.5C234.88,-68.5 250.87,-67.5 315,-67.5"/>
<path fill="none" stroke="#ff8000" stroke-width="2" d="M171,-70.5C235,-70.5 251,-69.5 315,-69.5"/>
<path fill="none" stroke="#000000" stroke-width="2" d="M171,-72.5C235.13,-72.5 251.12,-71.5 315,-71.5"/>
</g>
<!-- X1&#45;&#45;W1 -->
<g id="edge7" class="edge">
<title>X1:e&#45;&#45;W1:w</title>
<path fill="none" stroke="#000000" stroke-width="2" d="M171,-45.5C234.64,-45.53 250.62,-42.53 315,-42.5"/>
<path fill="none" stroke="#ffff00" stroke-width="2" d="M171,-47.5C235.01,-47.5 250.99,-44.5 315,-44.5"/>
<path fill="none" stroke="#000000" stroke-width="2" d="M171,-49.5C235.38,-49.47 251.36,-46.47 315,-46.5"/>
</g>
<!-- X2 -->
<g id="node2" class="node">
<title>X2</title>
<polygon fill="white" stroke="transparent" points="795,-175 613,-175 613,-14 795,-14 795,-175"/>
<polygon fill="none" stroke="black" points="613,-151.5 613,-174.5 795,-174.5 795,-151.5 613,-151.5"/>
<text text-anchor="start" x="695.5" y="-159.3" font-family="arial" font-size="14.00">X2</text>
<polygon fill="none" stroke="black" points="613,-128.5 613,-151.5 706,-151.5 706,-128.5 613,-128.5"/>
<text text-anchor="start" x="617" y="-136.3" font-family="arial" font-size="14.00">Molex KK 254</text>
<polygon fill="none" stroke="black" points="706,-128.5 706,-151.5 756,-151.5 756,-128.5 706,-128.5"/>
<text text-anchor="start" x="710" y="-136.3" font-family="arial" font-size="14.00">female</text>
<polygon fill="none" stroke="black" points="756,-128.5 756,-151.5 795,-151.5 795,-128.5 756,-128.5"/>
<text text-anchor="start" x="760" y="-136.3" font-family="arial" font-size="14.00">4&#45;pin</text>
<polygon fill="none" stroke="black" points="613,-105.5 613,-128.5 666,-128.5 666,-105.5 613,-105.5"/>
<text text-anchor="start" x="635.5" y="-113.3" font-family="arial" font-size="14.00">1</text>
<polygon fill="none" stroke="black" points="666,-105.5 666,-128.5 742,-128.5 742,-105.5 666,-105.5"/>
<text text-anchor="start" x="688.5" y="-113.3" font-family="arial" font-size="14.00">GND</text>
<polygon fill="none" stroke="black" points="742,-105.5 742,-128.5 795,-128.5 795,-105.5 742,-105.5"/>
<text text-anchor="start" x="764.5" y="-113.3" font-family="arial" font-size="14.00">1</text>
<polygon fill="none" stroke="black" points="613,-82.5 613,-105.5 666,-105.5 666,-82.5 613,-82.5"/>
<text text-anchor="start" x="635.5" y="-90.3" font-family="arial" font-size="14.00">2</text>
<polygon fill="none" stroke="black" points="666,-82.5 666,-105.5 742,-105.5 742,-82.5 666,-82.5"/>
<text text-anchor="start" x="689.5" y="-90.3" font-family="arial" font-size="14.00">VCC</text>
<polygon fill="none" stroke="black" points="742,-82.5 742,-105.5 795,-105.5 795,-82.5 742,-82.5"/>
<text text-anchor="start" x="764.5" y="-90.3" font-family="arial" font-size="14.00">2</text>
<polygon fill="none" stroke="black" points="613,-59.5 613,-82.5 666,-82.5 666,-59.5 613,-59.5"/>
<text text-anchor="start" x="635.5" y="-67.3" font-family="arial" font-size="14.00">3</text>
<polygon fill="none" stroke="black" points="666,-59.5 666,-82.5 742,-82.5 742,-59.5 666,-59.5"/>
<text text-anchor="start" x="690.5" y="-67.3" font-family="arial" font-size="14.00">SCL</text>
<polygon fill="none" stroke="black" points="742,-59.5 742,-82.5 795,-82.5 795,-59.5 742,-59.5"/>
<text text-anchor="start" x="764.5" y="-67.3" font-family="arial" font-size="14.00">3</text>
<polygon fill="none" stroke="black" points="613,-36.5 613,-59.5 666,-59.5 666,-36.5 613,-36.5"/>
<text text-anchor="start" x="635.5" y="-44.3" font-family="arial" font-size="14.00">4</text>
<polygon fill="none" stroke="black" points="666,-36.5 666,-59.5 742,-59.5 742,-36.5 666,-36.5"/>
<text text-anchor="start" x="690" y="-44.3" font-family="arial" font-size="14.00">SDA</text>
<polygon fill="none" stroke="black" points="742,-36.5 742,-59.5 795,-59.5 795,-36.5 742,-36.5"/>
<text text-anchor="start" x="764.5" y="-44.3" font-family="arial" font-size="14.00">4</text>
<polygon fill="none" stroke="black" points="613,-13.5 613,-36.5 795,-36.5 795,-13.5 613,-13.5"/>
<text text-anchor="start" x="653" y="-21.3" font-family="arial" font-size="14.00">to accelerometer</text>
</g>
<!-- W2 -->
<g id="node5" class="node">
<title>W2</title>
<polygon fill="none" stroke="black" points="1098,-207 939,-207 939,0 1098,0 1098,-207"/>
<polygon fill="none" stroke="black" points="939.5,-183.5 939.5,-206.5 1098.5,-206.5 1098.5,-183.5 939.5,-183.5"/>
<text text-anchor="start" x="1008" y="-191.3" font-family="arial" font-size="14.00">W2</text>
<polygon fill="none" stroke="black" points="939.5,-160.5 939.5,-183.5 973.5,-183.5 973.5,-160.5 939.5,-160.5"/>
<text text-anchor="start" x="949" y="-168.3" font-family="arial" font-size="14.00">4x</text>
<polygon fill="none" stroke="black" points="973.5,-160.5 973.5,-183.5 1044.5,-183.5 1044.5,-160.5 973.5,-160.5"/>
<text text-anchor="start" x="983" y="-168.3" font-family="arial" font-size="14.00">24 AWG</text>
<polygon fill="none" stroke="black" points="1044.5,-160.5 1044.5,-183.5 1098.5,-183.5 1098.5,-160.5 1044.5,-160.5"/>
<text text-anchor="start" x="1054" y="-168.3" font-family="arial" font-size="14.00">0.1 m</text>
<text text-anchor="start" x="965" y="-147.3" font-family="arial" font-size="14.00"> </text>
<text text-anchor="start" x="953" y="-128.3" font-family="arial" font-size="14.00">X2:1</text>
<text text-anchor="start" x="1010" y="-128.3" font-family="arial" font-size="14.00">BN</text>
<text text-anchor="start" x="1057.5" y="-128.3" font-family="arial" font-size="14.00">X3:1</text>
<polygon fill="#000000" stroke="transparent" points="939.5,-120.5 939.5,-122.5 1098.5,-122.5 1098.5,-120.5 939.5,-120.5"/>
<polygon fill="#895956" stroke="transparent" points="939.5,-118.5 939.5,-120.5 1098.5,-120.5 1098.5,-118.5 939.5,-118.5"/>
<polygon fill="#000000" stroke="transparent" points="939.5,-116.5 939.5,-118.5 1098.5,-118.5 1098.5,-116.5 939.5,-116.5"/>
<text text-anchor="start" x="953" y="-103.3" font-family="arial" font-size="14.00">X2:2</text>
<text text-anchor="start" x="1009.5" y="-103.3" font-family="arial" font-size="14.00">RD</text>
<text text-anchor="start" x="1057.5" y="-103.3" font-family="arial" font-size="14.00">X3:2</text>
<polygon fill="#000000" stroke="transparent" points="939.5,-95.5 939.5,-97.5 1098.5,-97.5 1098.5,-95.5 939.5,-95.5"/>
<polygon fill="#ff0000" stroke="transparent" points="939.5,-93.5 939.5,-95.5 1098.5,-95.5 1098.5,-93.5 939.5,-93.5"/>
<polygon fill="#000000" stroke="transparent" points="939.5,-91.5 939.5,-93.5 1098.5,-93.5 1098.5,-91.5 939.5,-91.5"/>
<text text-anchor="start" x="953" y="-78.3" font-family="arial" font-size="14.00">X2:3</text>
<text text-anchor="start" x="1008" y="-78.3" font-family="arial" font-size="14.00">OG</text>
<text text-anchor="start" x="1057.5" y="-78.3" font-family="arial" font-size="14.00">X3:3</text>
<polygon fill="#000000" stroke="transparent" points="939.5,-70.5 939.5,-72.5 1098.5,-72.5 1098.5,-70.5 939.5,-70.5"/>
<polygon fill="#ff8000" stroke="transparent" points="939.5,-68.5 939.5,-70.5 1098.5,-70.5 1098.5,-68.5 939.5,-68.5"/>
<polygon fill="#000000" stroke="transparent" points="939.5,-66.5 939.5,-68.5 1098.5,-68.5 1098.5,-66.5 939.5,-66.5"/>
<text text-anchor="start" x="953" y="-53.3" font-family="arial" font-size="14.00">X2:4</text>
<text text-anchor="start" x="1010" y="-53.3" font-family="arial" font-size="14.00">YE</text>
<text text-anchor="start" x="1057.5" y="-53.3" font-family="arial" font-size="14.00">X3:4</text>
<polygon fill="#000000" stroke="transparent" points="939.5,-45.5 939.5,-47.5 1098.5,-47.5 1098.5,-45.5 939.5,-45.5"/>
<polygon fill="#ffff00" stroke="transparent" points="939.5,-43.5 939.5,-45.5 1098.5,-45.5 1098.5,-43.5 939.5,-43.5"/>
<polygon fill="#000000" stroke="transparent" points="939.5,-41.5 939.5,-43.5 1098.5,-43.5 1098.5,-41.5 939.5,-41.5"/>
<text text-anchor="start" x="965" y="-28.3" font-family="arial" font-size="14.00"> </text>
<polygon fill="none" stroke="black" points="939.5,0.5 939.5,-22.5 1098.5,-22.5 1098.5,0.5 939.5,0.5"/>
<text text-anchor="start" x="943.5" y="-7.3" font-family="arial" font-size="14.00">This cable is a bit shorter</text>
</g>
<!-- X2&#45;&#45;W2 -->
<g id="edge9" class="edge">
<title>X2:e&#45;&#45;W2:w</title>
<path fill="none" stroke="#000000" stroke-width="2" d="M795,-115.5C859.25,-115.52 875.24,-117.52 939,-117.5"/>
<path fill="none" stroke="#895956" stroke-width="2" d="M795,-117.5C859.01,-117.5 874.99,-119.5 939,-119.5"/>
<path fill="none" stroke="#000000" stroke-width="2" d="M795,-119.5C858.76,-119.48 874.75,-121.48 939,-121.5"/>
</g>
<!-- X2&#45;&#45;W2 -->
<g id="edge11" class="edge">
<title>X2:e&#45;&#45;W2:w</title>
<path fill="none" stroke="#000000" stroke-width="2" d="M795,-91.5C859.13,-91.5 875.12,-92.5 939,-92.5"/>
<path fill="none" stroke="#ff0000" stroke-width="2" d="M795,-93.5C859,-93.5 875,-94.5 939,-94.5"/>
<path fill="none" stroke="#000000" stroke-width="2" d="M795,-95.5C858.88,-95.5 874.87,-96.5 939,-96.5"/>
</g>
<!-- X2&#45;&#45;W2 -->
<g id="edge13" class="edge">
<title>X2:e&#45;&#45;W2:w</title>
<path fill="none" stroke="#000000" stroke-width="2" d="M795,-68.5C858.88,-68.5 874.87,-67.5 939,-67.5"/>
<path fill="none" stroke="#ff8000" stroke-width="2" d="M795,-70.5C859,-70.5 875,-69.5 939,-69.5"/>
<path fill="none" stroke="#000000" stroke-width="2" d="M795,-72.5C859.13,-72.5 875.12,-71.5 939,-71.5"/>
</g>
<!-- X2&#45;&#45;W2 -->
<g id="edge15" class="edge">
<title>X2:e&#45;&#45;W2:w</title>
<path fill="none" stroke="#000000" stroke-width="2" d="M795,-45.5C858.64,-45.53 874.62,-42.53 939,-42.5"/>
<path fill="none" stroke="#ffff00" stroke-width="2" d="M795,-47.5C859.01,-47.5 874.99,-44.5 939,-44.5"/>
<path fill="none" stroke="#000000" stroke-width="2" d="M795,-49.5C859.38,-49.47 875.36,-46.47 939,-46.5"/>
</g>
<!-- X3 -->
<g id="node3" class="node">
<title>X3</title>
<polygon fill="white" stroke="transparent" points="1424,-175 1242,-175 1242,-14 1424,-14 1424,-175"/>
<polygon fill="none" stroke="black" points="1242,-151.5 1242,-174.5 1424,-174.5 1424,-151.5 1242,-151.5"/>
<text text-anchor="start" x="1324.5" y="-159.3" font-family="arial" font-size="14.00">X3</text>
<polygon fill="none" stroke="black" points="1242,-128.5 1242,-151.5 1335,-151.5 1335,-128.5 1242,-128.5"/>
<text text-anchor="start" x="1246" y="-136.3" font-family="arial" font-size="14.00">Molex KK 254</text>
<polygon fill="none" stroke="black" points="1335,-128.5 1335,-151.5 1385,-151.5 1385,-128.5 1335,-128.5"/>
<text text-anchor="start" x="1339" y="-136.3" font-family="arial" font-size="14.00">female</text>
<polygon fill="none" stroke="black" points="1385,-128.5 1385,-151.5 1424,-151.5 1424,-128.5 1385,-128.5"/>
<text text-anchor="start" x="1389" y="-136.3" font-family="arial" font-size="14.00">4&#45;pin</text>
<polygon fill="none" stroke="black" points="1242,-105.5 1242,-128.5 1322,-128.5 1322,-105.5 1242,-105.5"/>
<text text-anchor="start" x="1278" y="-113.3" font-family="arial" font-size="14.00">1</text>
<polygon fill="none" stroke="black" points="1322,-105.5 1322,-128.5 1424,-128.5 1424,-105.5 1322,-105.5"/>
<text text-anchor="start" x="1357.5" y="-113.3" font-family="arial" font-size="14.00">GND</text>
<polygon fill="none" stroke="black" points="1242,-82.5 1242,-105.5 1322,-105.5 1322,-82.5 1242,-82.5"/>
<text text-anchor="start" x="1278" y="-90.3" font-family="arial" font-size="14.00">2</text>
<polygon fill="none" stroke="black" points="1322,-82.5 1322,-105.5 1424,-105.5 1424,-82.5 1322,-82.5"/>
<text text-anchor="start" x="1358.5" y="-90.3" font-family="arial" font-size="14.00">VCC</text>
<polygon fill="none" stroke="black" points="1242,-59.5 1242,-82.5 1322,-82.5 1322,-59.5 1242,-59.5"/>
<text text-anchor="start" x="1278" y="-67.3" font-family="arial" font-size="14.00">3</text>
<polygon fill="none" stroke="black" points="1322,-59.5 1322,-82.5 1424,-82.5 1424,-59.5 1322,-59.5"/>
<text text-anchor="start" x="1359.5" y="-67.3" font-family="arial" font-size="14.00">SCL</text>
<polygon fill="none" stroke="black" points="1242,-36.5 1242,-59.5 1322,-59.5 1322,-36.5 1242,-36.5"/>
<text text-anchor="start" x="1278" y="-44.3" font-family="arial" font-size="14.00">4</text>
<polygon fill="none" stroke="black" points="1322,-36.5 1322,-59.5 1424,-59.5 1424,-36.5 1322,-36.5"/>
<text text-anchor="start" x="1359" y="-44.3" font-family="arial" font-size="14.00">SDA</text>
<polygon fill="none" stroke="black" points="1242,-13.5 1242,-36.5 1424,-36.5 1424,-13.5 1242,-13.5"/>
<text text-anchor="start" x="1266.5" y="-21.3" font-family="arial" font-size="14.00">to temperature sensor</text>
</g>
<!-- W1&#45;&#45;X2 -->
<g id="edge2" class="edge">
<title>W1:e&#45;&#45;X2:w</title>
<path fill="none" stroke="#000000" stroke-width="2" d="M469,-117.5C532.76,-117.52 548.75,-115.52 613,-115.5"/>
<path fill="none" stroke="#895956" stroke-width="2" d="M469,-119.5C533.01,-119.5 548.99,-117.5 613,-117.5"/>
<path fill="none" stroke="#000000" stroke-width="2" d="M469,-121.5C533.25,-121.48 549.24,-119.48 613,-119.5"/>
</g>
<!-- W1&#45;&#45;X2 -->
<g id="edge4" class="edge">
<title>W1:e&#45;&#45;X2:w</title>
<path fill="none" stroke="#000000" stroke-width="2" d="M469,-92.5C532.88,-92.5 548.87,-91.5 613,-91.5"/>
<path fill="none" stroke="#ff0000" stroke-width="2" d="M469,-94.5C533,-94.5 549,-93.5 613,-93.5"/>
<path fill="none" stroke="#000000" stroke-width="2" d="M469,-96.5C533.13,-96.5 549.12,-95.5 613,-95.5"/>
</g>
<!-- W1&#45;&#45;X2 -->
<g id="edge6" class="edge">
<title>W1:e&#45;&#45;X2:w</title>
<path fill="none" stroke="#000000" stroke-width="2" d="M469,-67.5C533.13,-67.5 549.12,-68.5 613,-68.5"/>
<path fill="none" stroke="#ff8000" stroke-width="2" d="M469,-69.5C533,-69.5 549,-70.5 613,-70.5"/>
<path fill="none" stroke="#000000" stroke-width="2" d="M469,-71.5C532.88,-71.5 548.87,-72.5 613,-72.5"/>
</g>
<!-- W1&#45;&#45;X2 -->
<g id="edge8" class="edge">
<title>W1:e&#45;&#45;X2:w</title>
<path fill="none" stroke="#000000" stroke-width="2" d="M469,-42.5C533.38,-42.53 549.36,-45.53 613,-45.5"/>
<path fill="none" stroke="#ffff00" stroke-width="2" d="M469,-44.5C533.01,-44.5 548.99,-47.5 613,-47.5"/>
<path fill="none" stroke="#000000" stroke-width="2" d="M469,-46.5C532.64,-46.47 548.62,-49.47 613,-49.5"/>
</g>
<!-- W2&#45;&#45;X3 -->
<g id="edge10" class="edge">
<title>W2:e&#45;&#45;X3:w</title>
<path fill="none" stroke="#000000" stroke-width="2" d="M1098,-117.5C1161.76,-117.52 1177.75,-115.52 1242,-115.5"/>
<path fill="none" stroke="#895956" stroke-width="2" d="M1098,-119.5C1162.01,-119.5 1177.99,-117.5 1242,-117.5"/>
<path fill="none" stroke="#000000" stroke-width="2" d="M1098,-121.5C1162.25,-121.48 1178.24,-119.48 1242,-119.5"/>
</g>
<!-- W2&#45;&#45;X3 -->
<g id="edge12" class="edge">
<title>W2:e&#45;&#45;X3:w</title>
<path fill="none" stroke="#000000" stroke-width="2" d="M1098,-92.5C1161.88,-92.5 1177.87,-91.5 1242,-91.5"/>
<path fill="none" stroke="#ff0000" stroke-width="2" d="M1098,-94.5C1162,-94.5 1178,-93.5 1242,-93.5"/>
<path fill="none" stroke="#000000" stroke-width="2" d="M1098,-96.5C1162.13,-96.5 1178.12,-95.5 1242,-95.5"/>
</g>
<!-- W2&#45;&#45;X3 -->
<g id="edge14" class="edge">
<title>W2:e&#45;&#45;X3:w</title>
<path fill="none" stroke="#000000" stroke-width="2" d="M1098,-67.5C1162.13,-67.5 1178.12,-68.5 1242,-68.5"/>
<path fill="none" stroke="#ff8000" stroke-width="2" d="M1098,-69.5C1162,-69.5 1178,-70.5 1242,-70.5"/>
<path fill="none" stroke="#000000" stroke-width="2" d="M1098,-71.5C1161.88,-71.5 1177.87,-72.5 1242,-72.5"/>
</g>
<!-- W2&#45;&#45;X3 -->
<g id="edge16" class="edge">
<title>W2:e&#45;&#45;X3:w</title>
<path fill="none" stroke="#000000" stroke-width="2" d="M1098,-42.5C1162.38,-42.53 1178.36,-45.53 1242,-45.5"/>
<path fill="none" stroke="#ffff00" stroke-width="2" d="M1098,-44.5C1162.01,-44.5 1177.99,-47.5 1242,-47.5"/>
<path fill="none" stroke="#000000" stroke-width="2" d="M1098,-46.5C1161.64,-46.47 1177.62,-49.47 1242,-49.5"/>
</g>
</g>
</svg>
