<?xml version="1.0" encoding="UTF-8" standalone="no"?>
<!DOCTYPE svg PUBLIC "-//W3C//DTD SVG 1.1//EN"
 "http://www.w3.org/Graphics/SVG/1.1/DTD/svg11.dtd">
<!-- Generated by graphviz version 2.44.0 (20200408.0750)
 -->
<!-- Pages: 1 -->
<svg width="503pt" height="188pt"
 viewBox="0.00 0.00 503.00 188.00" xmlns="http://www.w3.org/2000/svg" xmlns:xlink="http://www.w3.org/1999/xlink">
<g id="graph0" class="graph" transform="scale(1 1) rotate(0) translate(4 184)">
<polygon fill="white" stroke="transparent" points="-4,4 -4,-184 499,-184 499,4 -4,4"/>
<!-- X1 -->
<g id="node1" class="node">
<title>X1</title>
<polygon fill="white" stroke="transparent" points="54,-152 0,-152 0,-14 54,-14 54,-152"/>
<polygon fill="none" stroke="black" points="8,-129 8,-152 47,-152 47,-129 8,-129"/>
<text text-anchor="start" x="19" y="-136.8" font-family="arial" font-size="14.00">X1</text>
<polygon fill="none" stroke="black" points="8,-106 8,-129 47,-129 47,-106 8,-106"/>
<text text-anchor="start" x="12" y="-113.8" font-family="arial" font-size="14.00">4&#45;pin</text>
<polygon fill="none" stroke="black" points="8,-83 8,-106 47,-106 47,-83 8,-83"/>
<text text-anchor="start" x="23.5" y="-90.8" font-family="arial" font-size="14.00">1</text>
<polygon fill="none" stroke="black" points="8,-60 8,-83 47,-83 47,-60 8,-60"/>
<text text-anchor="start" x="23.5" y="-67.8" font-family="arial" font-size="14.00">2</text>
<polygon fill="none" stroke="black" points="8,-37 8,-60 47,-60 47,-37 8,-37"/>
<text text-anchor="start" x="23.5" y="-44.8" font-family="arial" font-size="14.00">3</text>
<polygon fill="none" stroke="black" points="8,-14 8,-37 47,-37 47,-14 8,-14"/>
<text text-anchor="start" x="23.5" y="-21.8" font-family="arial" font-size="14.00">4</text>
</g>
<!-- W1 -->
<g id="node3" class="node">
<title>W1</title>
<polygon fill="none" stroke="black" points="297,-180 198,-180 198,0 297,0 297,-180"/>
<polygon fill="none" stroke="black" points="198.5,-157 198.5,-180 297.5,-180 297.5,-157 198.5,-157"/>
<text text-anchor="start" x="237" y="-164.8" font-family="arial" font-size="14.00">W1</text>
<polygon fill="none" stroke="black" points="198.5,-134 198.5,-157 243.5,-157 243.5,-134 198.5,-134"/>
<text text-anchor="start" x="213.5" y="-141.8" font-family="arial" font-size="14.00">4x</text>
<polygon fill="none" stroke="black" points="243.5,-134 243.5,-157 297.5,-157 297.5,-134 243.5,-134"/>
<text text-anchor="start" x="258.5" y="-141.8" font-family="arial" font-size="14.00">1 m</text>
<text text-anchor="start" x="246" y="-122.8" font-family="arial" font-size="14.00"> </text>
<text text-anchor="start" x="200.5" y="-105.8" font-family="arial" font-size="14.00">X1:1</text>
<text text-anchor="start" x="232.5" y="-105.8" font-family="arial" font-size="14.00">#ffffff</text>
<text text-anchor="start" x="267.5" y="-105.8" font-family="arial" font-size="14.00">X2:1</text>
<polygon fill="#000000" stroke="transparent" points="198.5,-98 198.5,-100 297.5,-100 297.5,-98 198.5,-98"/>
<polygon fill="#ffffff" stroke="transparent" points="198.5,-96 198.5,-98 297.5,-98 297.5,-96 198.5,-96"/>
<polygon fill="#000000" stroke="transparent" points="198.5,-94 198.5,-96 297.5,-96 297.5,-94 198.5,-94"/>
<text text-anchor="start" x="200.5" y="-80.8" font-family="arial" font-size="14.00">X1:2</text>
<text text-anchor="start" x="232.5" y="-80.8" font-family="arial" font-size="14.00">#ffffff</text>
<text text-anchor="start" x="267.5" y="-80.8" font-family="arial" font-size="14.00">X2:2</text>
<polygon fill="#000000" stroke="transparent" points="198.5,-73 198.5,-75 297.5,-75 297.5,-73 198.5,-73"/>
<polygon fill="#ffffff" stroke="transparent" points="198.5,-71 198.5,-73 297.5,-73 297.5,-71 198.5,-71"/>
<polygon fill="#000000" stroke="transparent" points="198.5,-69 198.5,-71 297.5,-71 297.5,-69 198.5,-69"/>
<text text-anchor="start" x="200.5" y="-55.8" font-family="arial" font-size="14.00">X1:3</text>
<text text-anchor="start" x="232.5" y="-55.8" font-family="arial" font-size="14.00">#ffffff</text>
<text text-anchor="start" x="267.5" y="-55.8" font-family="arial" font-size="14.00">X2:3</text>
<polygon fill="#000000" stroke="transparent" points="198.5,-48 198.5,-50 297.5,-50 297.5,-48 198.5,-48"/>
<polygon fill="#ffffff" stroke="transparent" points="198.5,-46 198.5,-48 297.5,-48 297.5,-46 198.5,-46"/>
<polygon fill="#000000" stroke="transparent" points="198.5,-44 198.5,-46 297.5,-46 297.5,-44 198.5,-44"/>
<text text-anchor="start" x="200.5" y="-30.8" font-family="arial" font-size="14.00">X1:4</text>
<text text-anchor="start" x="232.5" y="-30.8" font-family="arial" font-size="14.00">#ffffff</text>
<text text-anchor="start" x="267.5" y="-30.8" font-family="arial" font-size="14.00">X2:4</text>
<polygon fill="#000000" stroke="transparent" points="198.5,-23 198.5,-25 297.5,-25 297.5,-23 198.5,-23"/>
<polygon fill="#ffffff" stroke="transparent" points="198.5,-21 198.5,-23 297.5,-23 297.5,-21 198.5,-21"/>
<polygon fill="#000000" stroke="transparent" points="198.5,-19 198.5,-21 297.5,-21 297.5,-19 198.5,-19"/>
<text text-anchor="start" x="212.5" y="-5.8" font-family="arial" font-size="14.00"> </text>
</g>
<!-- X1&#45;&#45;W1 -->
<g id="edge1" class="edge">
<title>X1:e&#45;&#45;W1:w</title>
<path fill="none" stroke="#000000" stroke-width="2" d="M48,-93C114.91,-93.01 131.57,-95.01 198,-95"/>
<path fill="none" stroke="#ffffff" stroke-width="2" d="M48,-95C114.67,-95 131.33,-97 198,-97"/>
<path fill="none" stroke="#000000" stroke-width="2" d="M48,-97C114.43,-96.99 131.09,-98.99 198,-99"/>
</g>
<!-- X1&#45;&#45;W1 -->
<g id="edge3" class="edge">
<title>X1:e&#45;&#45;W1:w</title>
<path fill="none" stroke="#000000" stroke-width="2" d="M48,-69C114.79,-69 131.45,-70 198,-70"/>
<path fill="none" stroke="#ffffff" stroke-width="2" d="M48,-71C114.67,-71 131.33,-72 198,-72"/>
<path fill="none" stroke="#000000" stroke-width="2" d="M48,-73C114.55,-73 131.21,-74 198,-74"/>
</g>
<!-- X1&#45;&#45;W1 -->
<g id="edge5" class="edge">
<title>X1:e&#45;&#45;W1:w</title>
<path fill="none" stroke="#000000" stroke-width="2" d="M48,-46C114.55,-46 131.21,-45 198,-45"/>
<path fill="none" stroke="#ffffff" stroke-width="2" d="M48,-48C114.67,-48 131.33,-47 198,-47"/>
<path fill="none" stroke="#000000" stroke-width="2" d="M48,-50C114.79,-50 131.45,-49 198,-49"/>
</g>
<!-- X1&#45;&#45;W1 -->
<g id="edge7" class="edge">
<title>X1:e&#45;&#45;W1:w</title>
<path fill="none" stroke="#000000" stroke-width="2" d="M48,-23C114.33,-23.03 130.97,-20.03 198,-20"/>
<path fill="none" stroke="#ffffff" stroke-width="2" d="M48,-25C114.68,-25 131.32,-22 198,-22"/>
<path fill="none" stroke="#000000" stroke-width="2" d="M48,-27C115.03,-26.97 131.67,-23.97 198,-24"/>
</g>
<!-- X2 -->
<g id="node2" class="node">
<title>X2</title>
<polygon fill="white" stroke="transparent" points="495,-152 441,-152 441,-14 495,-14 495,-152"/>
<polygon fill="none" stroke="black" points="449,-129 449,-152 488,-152 488,-129 449,-129"/>
<text text-anchor="start" x="460" y="-136.8" font-family="arial" font-size="14.00">X2</text>
<polygon fill="none" stroke="black" points="449,-106 449,-129 488,-129 488,-106 449,-106"/>
<text text-anchor="start" x="453" y="-113.8" font-family="arial" font-size="14.00">4&#45;pin</text>
<polygon fill="none" stroke="black" points="449,-83 449,-106 488,-106 488,-83 449,-83"/>
<text text-anchor="start" x="464.5" y="-90.8" font-family="arial" font-size="14.00">1</text>
<polygon fill="none" stroke="black" points="449,-60 449,-83 488,-83 488,-60 449,-60"/>
<text text-anchor="start" x="464.5" y="-67.8" font-family="arial" font-size="14.00">2</text>
<polygon fill="none" stroke="black" points="449,-37 449,-60 488,-60 488,-37 449,-37"/>
<text text-anchor="start" x="464.5" y="-44.8" font-family="arial" font-size="14.00">3</text>
<polygon fill="none" stroke="black" points="449,-14 449,-37 488,-37 488,-14 449,-14"/>
<text text-anchor="start" x="464.5" y="-21.8" font-family="arial" font-size="14.00">4</text>
</g>
<!-- W1&#45;&#45;X2 -->
<g id="edge2" class="edge">
<title>W1:e&#45;&#45;X2:w</title>
<path fill="none" stroke="#000000" stroke-width="2" d="M297,-95C363.88,-95.01 380.65,-93.01 448,-93"/>
<path fill="none" stroke="#ffffff" stroke-width="2" d="M297,-97C364.12,-97 380.88,-95 448,-95"/>
<path fill="none" stroke="#000000" stroke-width="2" d="M297,-99C364.35,-98.99 381.12,-96.99 448,-97"/>
</g>
<!-- W1&#45;&#45;X2 -->
<g id="edge4" class="edge">
<title>W1:e&#45;&#45;X2:w</title>
<path fill="none" stroke="#000000" stroke-width="2" d="M297,-70C363.99,-70 380.77,-69 448,-69"/>
<path fill="none" stroke="#ffffff" stroke-width="2" d="M297,-72C364.11,-72 380.89,-71 448,-71"/>
<path fill="none" stroke="#000000" stroke-width="2" d="M297,-74C364.23,-74 381.01,-73 448,-73"/>
</g>
<!-- W1&#45;&#45;X2 -->
<g id="edge6" class="edge">
<title>W1:e&#45;&#45;X2:w</title>
<path fill="none" stroke="#000000" stroke-width="2" d="M297,-45C364.23,-45 381.01,-46 448,-46"/>
<path fill="none" stroke="#ffffff" stroke-width="2" d="M297,-47C364.11,-47 380.89,-48 448,-48"/>
<path fill="none" stroke="#000000" stroke-width="2" d="M297,-49C363.99,-49 380.77,-50 448,-50"/>
</g>
<!-- W1&#45;&#45;X2 -->
<g id="edge8" class="edge">
<title>W1:e&#45;&#45;X2:w</title>
<path fill="none" stroke="#000000" stroke-width="2" d="M297,-20C364.48,-20.03 381.23,-23.03 448,-23"/>
<path fill="none" stroke="#ffffff" stroke-width="2" d="M297,-22C364.12,-22 380.88,-25 448,-25"/>
<path fill="none" stroke="#000000" stroke-width="2" d="M297,-24C363.77,-23.97 380.52,-26.97 448,-27"/>
</g>
</g>
</svg>
