<?xml version="1.0" encoding="UTF-8" standalone="no"?>
<!DOCTYPE svg PUBLIC "-//W3C//DTD SVG 1.1//EN"
 "http://www.w3.org/Graphics/SVG/1.1/DTD/svg11.dtd">
<!-- Generated by graphviz version 2.44.0 (20200408.0750)
 -->
<!-- Pages: 1 -->
<svg width="993pt" height="510pt"
 viewBox="0.00 0.00 993.00 509.50" xmlns="http://www.w3.org/2000/svg" xmlns:xlink="http://www.w3.org/1999/xlink">
<g id="graph0" class="graph" transform="scale(1 1) rotate(0) translate(4 505.5)">
<polygon fill="white" stroke="transparent" points="-4,4 -4,-505.5 989,-505.5 989,4 -4,4"/>
<!-- X1 -->
<g id="node1" class="node">
<title>X1</title>
<polygon fill="white" stroke="black" points="0,-207.5 0,-368.5 206,-368.5 206,-207.5 0,-207.5"/>
<text text-anchor="middle" x="103" y="-353.3" font-family="arial" font-size="14.00">X1</text>
<polyline fill="none" stroke="black" points="0,-345.5 206,-345.5 "/>
<text text-anchor="middle" x="36" y="-330.3" font-family="arial" font-size="14.00">Molex</text>
<polyline fill="none" stroke="black" points="72,-322.5 72,-345.5 "/>
<text text-anchor="middle" x="139" y="-330.3" font-family="arial" font-size="14.00">MPN: 22013047</text>
<polyline fill="none" stroke="black" points="0,-322.5 206,-322.5 "/>
<text text-anchor="middle" x="50.5" y="-307.3" font-family="arial" font-size="14.00">Molex KK 254</text>
<polyline fill="none" stroke="black" points="101,-299.5 101,-322.5 "/>
<text text-anchor="middle" x="130" y="-307.3" font-family="arial" font-size="14.00">female</text>
<polyline fill="none" stroke="black" points="159,-299.5 159,-322.5 "/>
<text text-anchor="middle" x="182.5" y="-307.3" font-family="arial" font-size="14.00">4&#45;pin</text>
<polyline fill="none" stroke="black" points="0,-299.5 206,-299.5 "/>
<text text-anchor="middle" x="103" y="-284.3" font-family="arial" font-size="14.00">1</text>
<polyline fill="none" stroke="black" points="0,-276.5 206,-276.5 "/>
<text text-anchor="middle" x="103" y="-261.3" font-family="arial" font-size="14.00">2</text>
<polyline fill="none" stroke="black" points="0,-253.5 206,-253.5 "/>
<text text-anchor="middle" x="103" y="-238.3" font-family="arial" font-size="14.00">3</text>
<polyline fill="none" stroke="black" points="0,-230.5 206,-230.5 "/>
<text text-anchor="middle" x="103" y="-215.3" font-family="arial" font-size="14.00">4</text>
</g>
<!-- W1 -->
<g id="node4" class="node">
<title>W1</title>
<polygon fill="none" stroke="black" points="588,-501.5 350,-501.5 350,-296.5 588,-296.5 588,-501.5"/>
<polygon fill="none" stroke="black" points="350,-478 350,-501 588,-501 588,-478 350,-478"/>
<text text-anchor="start" x="458" y="-485.8" font-family="arial" font-size="14.00">W1</text>
<polygon fill="none" stroke="black" points="350,-453 350,-478 588,-478 588,-453 350,-453"/>
<polyline fill="none" stroke="black" points="419,-454 419,-477 "/>
<text text-anchor="start" x="355" y="-461.8" font-family="arial" font-size="14.00">CablesCo</text>
<polyline fill="none" stroke="black" points="515,-454 515,-477 "/>
<text text-anchor="start" x="423" y="-461.8" font-family="arial" font-size="14.00">MPN: ABC123</text>
<text text-anchor="start" x="518" y="-461.8" font-family="arial" font-size="14.00">IPN: CAB1</text>
<polygon fill="none" stroke="black" points="350,-430 350,-453 431,-453 431,-430 350,-430"/>
<text text-anchor="start" x="383" y="-437.8" font-family="arial" font-size="14.00">4x</text>
<polygon fill="none" stroke="black" points="431,-430 431,-453 527,-453 527,-430 431,-430"/>
<text text-anchor="start" x="449.5" y="-437.8" font-family="arial" font-size="14.00">0.25 mm²</text>
<polygon fill="none" stroke="black" points="527,-430 527,-453 588,-453 588,-430 527,-430"/>
<text text-anchor="start" x="545.5" y="-437.8" font-family="arial" font-size="14.00">1 m</text>
<text text-anchor="start" x="467" y="-418.8" font-family="arial" font-size="14.00"> </text>
<text text-anchor="start" x="376.5" y="-401.8" font-family="arial" font-size="14.00">X1:1</text>
<text text-anchor="start" x="459.5" y="-401.8" font-family="arial" font-size="14.00">BN</text>
<text text-anchor="start" x="533.5" y="-401.8" font-family="arial" font-size="14.00">X2:1</text>
<polygon fill="#666600" stroke="transparent" points="350,-390 350,-396 588,-396 588,-390 350,-390"/>
<polyline fill="none" stroke="black" stroke-width="2" points="351,-391 587,-391 "/>
<polyline fill="none" stroke="black" stroke-width="2" points="587,-395 351,-395 "/>
<text text-anchor="start" x="376.5" y="-376.8" font-family="arial" font-size="14.00">X1:2</text>
<text text-anchor="start" x="459" y="-376.8" font-family="arial" font-size="14.00">RD</text>
<text text-anchor="start" x="533.5" y="-376.8" font-family="arial" font-size="14.00">X2:2</text>
<polygon fill="#ff0000" stroke="transparent" stroke-width="2" points="350,-365 350,-371 588,-371 588,-365 350,-365"/>
<polyline fill="none" stroke="black" stroke-width="2" points="351,-366 587,-366 "/>
<polyline fill="none" stroke="black" stroke-width="2" points="587,-370 351,-370 "/>
<text text-anchor="start" x="376.5" y="-351.8" font-family="arial" font-size="14.00">X1:3</text>
<text text-anchor="start" x="457.5" y="-351.8" font-family="arial" font-size="14.00">OG</text>
<text text-anchor="start" x="533.5" y="-351.8" font-family="arial" font-size="14.00">X2:3</text>
<polygon fill="#ff8000" stroke="transparent" stroke-width="2" points="350,-340 350,-346 588,-346 588,-340 350,-340"/>
<polyline fill="none" stroke="black" stroke-width="2" points="351,-341 587,-341 "/>
<polyline fill="none" stroke="black" stroke-width="2" points="587,-345 351,-345 "/>
<text text-anchor="start" x="376.5" y="-326.8" font-family="arial" font-size="14.00">X1:4</text>
<text text-anchor="start" x="459.5" y="-326.8" font-family="arial" font-size="14.00">YE</text>
<text text-anchor="start" x="533.5" y="-326.8" font-family="arial" font-size="14.00">X2:4</text>
<polygon fill="#ffff00" stroke="transparent" stroke-width="2" points="350,-315 350,-321 588,-321 588,-315 350,-315"/>
<polyline fill="none" stroke="black" stroke-width="2" points="351,-316 587,-316 "/>
<polyline fill="none" stroke="black" stroke-width="2" points="587,-320 351,-320 "/>
<text text-anchor="start" x="388.5" y="-301.8" font-family="arial" font-size="14.00"> </text>
</g>
<!-- X1&#45;&#45;W1 -->
<g id="edge1" class="edge">
<title>X1:e&#45;&#45;W1:w</title>
<path fill="none" stroke="#000000" stroke-width="2" d="M206,-286C287.19,-288.27 272.77,-393.27 350,-391"/>
<path fill="none" stroke="#666600" stroke-width="2" d="M206,-288C285.21,-288 270.79,-393 350,-393"/>
<path fill="none" stroke="#000000" stroke-width="2" d="M206,-290C283.23,-287.73 268.81,-392.73 350,-395"/>
</g>
<!-- X1&#45;&#45;W1 -->
<g id="edge3" class="edge">
<title>X1:e&#45;&#45;W1:w</title>
<path fill="none" stroke="#000000" stroke-width="2" d="M206,-263C286.67,-265.26 273.3,-368.26 350,-366"/>
<path fill="none" stroke="#ff0000" stroke-width="2" d="M206,-265C284.69,-265 271.31,-368 350,-368"/>
<path fill="none" stroke="#000000" stroke-width="2" d="M206,-267C282.7,-264.74 269.33,-367.74 350,-370"/>
</g>
<!-- X1&#45;&#45;W1 -->
<g id="edge5" class="edge">
<title>X1:e&#45;&#45;W1:w</title>
<path fill="none" stroke="#000000" stroke-width="2" d="M206,-240C286.16,-242.24 273.81,-343.24 350,-341"/>
<path fill="none" stroke="#ff8000" stroke-width="2" d="M206,-242C284.17,-242 271.83,-343 350,-343"/>
<path fill="none" stroke="#000000" stroke-width="2" d="M206,-244C282.19,-241.76 269.84,-342.76 350,-345"/>
</g>
<!-- X1&#45;&#45;W1 -->
<g id="edge7" class="edge">
<title>X1:e&#45;&#45;W1:w</title>
<path fill="none" stroke="#000000" stroke-width="2" d="M206,-217C285.65,-219.23 274.32,-318.23 350,-316"/>
<path fill="none" stroke="#ffff00" stroke-width="2" d="M206,-219C283.67,-219 272.33,-318 350,-318"/>
<path fill="none" stroke="#000000" stroke-width="2" d="M206,-221C281.68,-218.77 270.35,-317.77 350,-320"/>
</g>
<!-- W2 -->
<g id="node5" class="node">
<title>W2</title>
<polygon fill="white" stroke="black" stroke-dasharray="5,2" points="582.5,-272 355.5,-272 355.5,0 582.5,0 582.5,-272"/>
<polygon fill="none" stroke="black" points="356,-249 356,-272 583,-272 583,-249 356,-249"/>
<text text-anchor="start" x="458.5" y="-256.8" font-family="arial" font-size="14.00">W2</text>
<polygon fill="none" stroke="black" points="356,-226 356,-249 414,-249 414,-226 356,-226"/>
<text text-anchor="start" x="377.5" y="-233.8" font-family="arial" font-size="14.00">4x</text>
<polygon fill="none" stroke="black" points="414,-226 414,-249 516,-249 516,-226 414,-226"/>
<text text-anchor="start" x="435.5" y="-233.8" font-family="arial" font-size="14.00">0.25 mm²</text>
<polygon fill="none" stroke="black" points="516,-226 516,-249 583,-249 583,-226 516,-226"/>
<text text-anchor="start" x="537.5" y="-233.8" font-family="arial" font-size="14.00">1 m</text>
<text text-anchor="start" x="467.5" y="-214.8" font-family="arial" font-size="14.00"> </text>
<text text-anchor="start" x="392.5" y="-197.8" font-family="arial" font-size="14.00">X1:1</text>
<text text-anchor="start" x="477" y="-197.8" font-family="arial" font-size="14.00">YE</text>
<text text-anchor="start" x="535.5" y="-197.8" font-family="arial" font-size="14.00">X3:1</text>
<polygon fill="#ffff00" stroke="transparent" points="356,-186 356,-192 583,-192 583,-186 356,-186"/>
<polyline fill="none" stroke="black" stroke-width="2" points="357,-187 582,-187 "/>
<polyline fill="none" stroke="black" stroke-width="2" points="582,-191 357,-191 "/>
<text text-anchor="start" x="360.5" y="-170.8" font-family="arial" font-size="14.00">WiresCo</text>
<text text-anchor="start" x="418.5" y="-170.8" font-family="arial" font-size="14.00">MPN: W1&#45;YE</text>
<text text-anchor="start" x="505" y="-170.8" font-family="arial" font-size="14.00">IPN: WIRE1</text>
<text text-anchor="start" x="392.5" y="-149.8" font-family="arial" font-size="14.00">X1:2</text>
<text text-anchor="start" x="477" y="-149.8" font-family="arial" font-size="14.00">BK</text>
<text text-anchor="start" x="535.5" y="-149.8" font-family="arial" font-size="14.00">X3:2</text>
<polygon fill="#000000" stroke="transparent" points="356,-138 356,-144 583,-144 583,-138 356,-138"/>
<polyline fill="none" stroke="black" stroke-width="2" points="357,-139 582,-139 "/>
<polyline fill="none" stroke="black" stroke-width="2" points="582,-143 357,-143 "/>
<text text-anchor="start" x="360.5" y="-122.8" font-family="arial" font-size="14.00">WiresCo</text>
<text text-anchor="start" x="418.5" y="-122.8" font-family="arial" font-size="14.00">MPN: W1&#45;BK</text>
<text text-anchor="start" x="505" y="-122.8" font-family="arial" font-size="14.00">IPN: WIRE2</text>
<text text-anchor="start" x="392.5" y="-101.8" font-family="arial" font-size="14.00">X1:3</text>
<text text-anchor="start" x="477" y="-101.8" font-family="arial" font-size="14.00">BK</text>
<text text-anchor="start" x="535.5" y="-101.8" font-family="arial" font-size="14.00">X3:3</text>
<polygon fill="#000000" stroke="transparent" points="356,-90 356,-96 583,-96 583,-90 356,-90"/>
<polyline fill="none" stroke="black" stroke-width="2" points="357,-91 582,-91 "/>
<polyline fill="none" stroke="black" stroke-width="2" points="582,-95 357,-95 "/>
<text text-anchor="start" x="360.5" y="-74.8" font-family="arial" font-size="14.00">WiresCo</text>
<text text-anchor="start" x="418.5" y="-74.8" font-family="arial" font-size="14.00">MPN: W1&#45;BK</text>
<text text-anchor="start" x="505" y="-74.8" font-family="arial" font-size="14.00">IPN: WIRE2</text>
<text text-anchor="start" x="392.5" y="-53.8" font-family="arial" font-size="14.00">X1:4</text>
<text text-anchor="start" x="476.5" y="-53.8" font-family="arial" font-size="14.00">RD</text>
<text text-anchor="start" x="535.5" y="-53.8" font-family="arial" font-size="14.00">X3:4</text>
<polygon fill="#ff0000" stroke="transparent" points="356,-42 356,-48 583,-48 583,-42 356,-42"/>
<polyline fill="none" stroke="black" stroke-width="2" points="357,-43 582,-43 "/>
<polyline fill="none" stroke="black" stroke-width="2" points="582,-47 357,-47 "/>
<text text-anchor="start" x="360" y="-26.8" font-family="arial" font-size="14.00">WiresCo</text>
<text text-anchor="start" x="417" y="-26.8" font-family="arial" font-size="14.00">MPN: W1&#45;RD</text>
<text text-anchor="start" x="505" y="-26.8" font-family="arial" font-size="14.00">IPN: WIRE3</text>
<text text-anchor="start" x="404.5" y="-5.8" font-family="arial" font-size="14.00"> </text>
</g>
<!-- X1&#45;&#45;W2 -->
<g id="edge9" class="edge">
<title>X1:e&#45;&#45;W2:w</title>
<path fill="none" stroke="#000000" stroke-width="2" d="M206,-286C283.52,-288.2 273.5,-189.2 355,-187"/>
<path fill="none" stroke="#ffff00" stroke-width="2" d="M206,-288C285.51,-288 275.49,-189 355,-189"/>
<path fill="none" stroke="#000000" stroke-width="2" d="M206,-290C287.5,-287.8 277.48,-188.8 355,-191"/>
</g>
<!-- X1&#45;&#45;W2 -->
<g id="edge11" class="edge">
<title>X1:e&#45;&#45;W2:w</title>
<path fill="none" stroke="#000000" stroke-width="2" d="M206,-263C290.19,-265.37 266.88,-141.37 355,-139"/>
<path fill="none" stroke="#000000" stroke-width="2" d="M206,-265C292.15,-265 268.85,-141 355,-141"/>
<path fill="none" stroke="#000000" stroke-width="2" d="M206,-267C294.12,-264.63 270.81,-140.63 355,-143"/>
</g>
<!-- X1&#45;&#45;W2 -->
<g id="edge13" class="edge">
<title>X1:e&#45;&#45;W2:w</title>
<path fill="none" stroke="#000000" stroke-width="2" d="M206,-240C297.72,-242.5 259.41,-93.5 355,-91"/>
<path fill="none" stroke="#000000" stroke-width="2" d="M206,-242C299.65,-242 261.35,-93 355,-93"/>
<path fill="none" stroke="#000000" stroke-width="2" d="M206,-244C301.59,-241.5 263.28,-92.5 355,-95"/>
</g>
<!-- X1&#45;&#45;W2 -->
<g id="edge15" class="edge">
<title>X1:e&#45;&#45;W2:w</title>
<path fill="none" stroke="#000000" stroke-width="2" d="M206,-217C305.9,-219.6 251.28,-45.6 355,-43"/>
<path fill="none" stroke="#ff0000" stroke-width="2" d="M206,-219C307.81,-219 253.19,-45 355,-45"/>
<path fill="none" stroke="#000000" stroke-width="2" d="M206,-221C309.72,-218.4 255.1,-44.4 355,-47"/>
</g>
<!-- X2 -->
<g id="node2" class="node">
<title>X2</title>
<polygon fill="white" stroke="black" points="732,-309.5 732,-470.5 985,-470.5 985,-309.5 732,-309.5"/>
<text text-anchor="middle" x="858.5" y="-455.3" font-family="arial" font-size="14.00">X2</text>
<polyline fill="none" stroke="black" points="732,-447.5 985,-447.5 "/>
<text text-anchor="middle" x="758.5" y="-432.3" font-family="arial" font-size="14.00">Molex</text>
<polyline fill="none" stroke="black" points="785,-424.5 785,-447.5 "/>
<text text-anchor="middle" x="842.5" y="-432.3" font-family="arial" font-size="14.00">MPN: 22013047</text>
<polyline fill="none" stroke="black" points="900,-424.5 900,-447.5 "/>
<text text-anchor="middle" x="942.5" y="-432.3" font-family="arial" font-size="14.00">IPN: CON4</text>
<polyline fill="none" stroke="black" points="732,-424.5 985,-424.5 "/>
<text text-anchor="middle" x="790" y="-409.3" font-family="arial" font-size="14.00">Molex KK 254</text>
<polyline fill="none" stroke="black" points="848,-401.5 848,-424.5 "/>
<text text-anchor="middle" x="885" y="-409.3" font-family="arial" font-size="14.00">female</text>
<polyline fill="none" stroke="black" points="922,-401.5 922,-424.5 "/>
<text text-anchor="middle" x="953.5" y="-409.3" font-family="arial" font-size="14.00">4&#45;pin</text>
<polyline fill="none" stroke="black" points="732,-401.5 985,-401.5 "/>
<text text-anchor="middle" x="858.5" y="-386.3" font-family="arial" font-size="14.00">1</text>
<polyline fill="none" stroke="black" points="732,-378.5 985,-378.5 "/>
<text text-anchor="middle" x="858.5" y="-363.3" font-family="arial" font-size="14.00">2</text>
<polyline fill="none" stroke="black" points="732,-355.5 985,-355.5 "/>
<text text-anchor="middle" x="858.5" y="-340.3" font-family="arial" font-size="14.00">3</text>
<polyline fill="none" stroke="black" points="732,-332.5 985,-332.5 "/>
<text text-anchor="middle" x="858.5" y="-317.3" font-family="arial" font-size="14.00">4</text>
</g>
<!-- X3 -->
<g id="node3" class="node">
<title>X3</title>
<polygon fill="white" stroke="black" points="755.5,-71.5 755.5,-232.5 961.5,-232.5 961.5,-71.5 755.5,-71.5"/>
<text text-anchor="middle" x="858.5" y="-217.3" font-family="arial" font-size="14.00">X3</text>
<polyline fill="none" stroke="black" points="755.5,-209.5 961.5,-209.5 "/>
<text text-anchor="middle" x="791.5" y="-194.3" font-family="arial" font-size="14.00">Molex</text>
<polyline fill="none" stroke="black" points="827.5,-186.5 827.5,-209.5 "/>
<text text-anchor="middle" x="894.5" y="-194.3" font-family="arial" font-size="14.00">MPN: 22013047</text>
<polyline fill="none" stroke="black" points="755.5,-186.5 961.5,-186.5 "/>
<text text-anchor="middle" x="806" y="-171.3" font-family="arial" font-size="14.00">Molex KK 254</text>
<polyline fill="none" stroke="black" points="856.5,-163.5 856.5,-186.5 "/>
<text text-anchor="middle" x="885.5" y="-171.3" font-family="arial" font-size="14.00">female</text>
<polyline fill="none" stroke="black" points="914.5,-163.5 914.5,-186.5 "/>
<text text-anchor="middle" x="938" y="-171.3" font-family="arial" font-size="14.00">4&#45;pin</text>
<polyline fill="none" stroke="black" points="755.5,-163.5 961.5,-163.5 "/>
<text text-anchor="middle" x="858.5" y="-148.3" font-family="arial" font-size="14.00">1</text>
<polyline fill="none" stroke="black" points="755.5,-140.5 961.5,-140.5 "/>
<text text-anchor="middle" x="858.5" y="-125.3" font-family="arial" font-size="14.00">2</text>
<polyline fill="none" stroke="black" points="755.5,-117.5 961.5,-117.5 "/>
<text text-anchor="middle" x="858.5" y="-102.3" font-family="arial" font-size="14.00">3</text>
<polyline fill="none" stroke="black" points="755.5,-94.5 961.5,-94.5 "/>
<text text-anchor="middle" x="858.5" y="-79.3" font-family="arial" font-size="14.00">4</text>
</g>
<!-- W1&#45;&#45;X2 -->
<g id="edge2" class="edge">
<title>W1:e&#45;&#45;X2:w</title>
<path fill="none" stroke="#000000" stroke-width="2" d="M588,-391C651.64,-391.03 667.62,-388.03 732,-388"/>
<path fill="none" stroke="#666600" stroke-width="2" d="M588,-393C652.01,-393 667.99,-390 732,-390"/>
<path fill="none" stroke="#000000" stroke-width="2" d="M588,-395C652.38,-394.97 668.36,-391.97 732,-392"/>
</g>
<!-- W1&#45;&#45;X2 -->
<g id="edge4" class="edge">
<title>W1:e&#45;&#45;X2:w</title>
<path fill="none" stroke="#000000" stroke-width="2" d="M588,-366C651.88,-366 667.87,-365 732,-365"/>
<path fill="none" stroke="#ff0000" stroke-width="2" d="M588,-368C652,-368 668,-367 732,-367"/>
<path fill="none" stroke="#000000" stroke-width="2" d="M588,-370C652.13,-370 668.12,-369 732,-369"/>
</g>
<!-- W1&#45;&#45;X2 -->
<g id="edge6" class="edge">
<title>W1:e&#45;&#45;X2:w</title>
<path fill="none" stroke="#000000" stroke-width="2" d="M588,-341C652.13,-341 668.12,-342 732,-342"/>
<path fill="none" stroke="#ff8000" stroke-width="2" d="M588,-343C652,-343 668,-344 732,-344"/>
<path fill="none" stroke="#000000" stroke-width="2" d="M588,-345C651.88,-345 667.87,-346 732,-346"/>
</g>
<!-- W1&#45;&#45;X2 -->
<g id="edge8" class="edge">
<title>W1:e&#45;&#45;X2:w</title>
<path fill="none" stroke="#000000" stroke-width="2" d="M588,-316C652.38,-316.03 668.36,-319.03 732,-319"/>
<path fill="none" stroke="#ffff00" stroke-width="2" d="M588,-318C652.01,-318 667.99,-321 732,-321"/>
<path fill="none" stroke="#000000" stroke-width="2" d="M588,-320C651.64,-319.97 667.62,-322.97 732,-323"/>
</g>
<!-- W2&#45;&#45;X3 -->
<g id="edge10" class="edge">
<title>W2:e&#45;&#45;X3:w</title>
<path fill="none" stroke="#000000" stroke-width="2" d="M584,-187C659.7,-188.23 675.11,-151.23 754.5,-150"/>
<path fill="none" stroke="#ffff00" stroke-width="2" d="M584,-189C661.54,-189 676.96,-152 754.5,-152"/>
<path fill="none" stroke="#000000" stroke-width="2" d="M584,-191C663.39,-189.77 678.8,-152.77 754.5,-154"/>
</g>
<!-- W2&#45;&#45;X3 -->
<g id="edge12" class="edge">
<title>W2:e&#45;&#45;X3:w</title>
<path fill="none" stroke="#000000" stroke-width="2" d="M584,-139C658.88,-139.32 677.45,-127.32 754.5,-127"/>
<path fill="none" stroke="#000000" stroke-width="2" d="M584,-141C659.97,-141 678.53,-129 754.5,-129"/>
<path fill="none" stroke="#000000" stroke-width="2" d="M584,-143C661.05,-142.68 679.62,-130.68 754.5,-131"/>
</g>
<!-- W2&#45;&#45;X3 -->
<g id="edge14" class="edge">
<title>W2:e&#45;&#45;X3:w</title>
<path fill="none" stroke="#000000" stroke-width="2" d="M584,-91C661.15,-91.36 679.65,-104.36 754.5,-104"/>
<path fill="none" stroke="#000000" stroke-width="2" d="M584,-93C660,-93 678.5,-106 754.5,-106"/>
<path fill="none" stroke="#000000" stroke-width="2" d="M584,-95C658.85,-94.64 677.35,-107.64 754.5,-108"/>
</g>
<!-- W2&#45;&#45;X3 -->
<g id="edge16" class="edge">
<title>W2:e&#45;&#45;X3:w</title>
<path fill="none" stroke="#000000" stroke-width="2" d="M584,-43C663.49,-44.26 678.72,-82.26 754.5,-81"/>
<path fill="none" stroke="#ff0000" stroke-width="2" d="M584,-45C661.64,-45 676.86,-83 754.5,-83"/>
<path fill="none" stroke="#000000" stroke-width="2" d="M584,-47C659.78,-45.74 675.01,-83.74 754.5,-85"/>
</g>
</g>
</svg>
