<?xml version="1.0" encoding="UTF-8" standalone="no"?>
<!DOCTYPE svg PUBLIC "-//W3C//DTD SVG 1.1//EN"
 "http://www.w3.org/Graphics/SVG/1.1/DTD/svg11.dtd">
<!-- Generated by graphviz version 11.0.0 (20240428.1522)
 -->
<!-- Pages: 1 -->
<svg width="803pt" height="201pt"
 viewBox="0.00 0.00 802.75 201.00" xmlns="http://www.w3.org/2000/svg" xmlns:xlink="http://www.w3.org/1999/xlink">
<g id="graph0" class="graph" transform="scale(1 1) rotate(0) translate(4 197)">
<polygon fill="#ffffff" stroke="none" points="-4,4 -4,-197 798.75,-197 798.75,4 -4,4"/>
<!-- AUTOGENERATED_F_05_1 -->
<g id="node1" class="node">
<title>AUTOGENERATED_F_05_1</title>
<polygon fill="#ffffff" stroke="black" points="189.5,-123.75 0,-123.75 0,-99.25 189.5,-99.25 189.5,-123.75"/>
<polygon fill="#ffffff" stroke="none" points="0,-99.25 0,-123.75 189.5,-123.75 189.5,-99.25 0,-99.25"/>
<polygon fill="none" stroke="black" points="0,-99.25 0,-123.75 90.5,-123.75 90.5,-99.25 0,-99.25"/>
<text text-anchor="start" x="4" y="-106.45" font-family="arial" font-size="14.00">Crimp ferrule</text>
<polygon fill="none" stroke="black" points="90.5,-99.25 90.5,-123.75 151,-123.75 151,-99.25 90.5,-99.25"/>
<text text-anchor="start" x="94.5" y="-106.45" font-family="arial" font-size="14.00">0.5 mm²</text>
<polygon fill="none" stroke="black" points="151,-99.25 151,-123.75 181.5,-123.75 181.5,-99.25 151,-99.25"/>
<text text-anchor="start" x="155" y="-106.45" font-family="arial" font-size="14.00">OG</text>
<polygon fill="#ff8000" stroke="none" points="181.5,-99.25 181.5,-123.75 189.5,-123.75 189.5,-99.25 181.5,-99.25"/>
<polygon fill="none" stroke="black" points="181.5,-99.25 181.5,-123.75 189.5,-123.75 189.5,-99.25 181.5,-99.25"/>
</g>
<!-- W1 -->
<g id="node2" class="node">
<title>W1</title>
<polygon fill="#ffffff" stroke="black" stroke-dasharray="5,2" points="477.5,-193 333.5,-193 333.5,0 477.5,0 477.5,-193"/>
<polygon fill="#ffffff" stroke="none" points="333.5,0 333.5,-193 477.5,-193 477.5,0 333.5,0"/>
<polygon fill="none" stroke="black" points="333.5,-168.5 333.5,-193 477.5,-193 477.5,-168.5 333.5,-168.5"/>
<text text-anchor="start" x="394.25" y="-175.7" font-family="arial" font-size="14.00">W1</text>
<polygon fill="none" stroke="black" points="333.5,-144 333.5,-168.5 362,-168.5 362,-144 333.5,-144"/>
<text text-anchor="start" x="340.25" y="-151.2" font-family="arial" font-size="14.00">4x</text>
<polygon fill="none" stroke="black" points="362,-144 362,-168.5 428,-168.5 428,-144 362,-144"/>
<text text-anchor="start" x="368.75" y="-151.2" font-family="arial" font-size="14.00">0.5 mm²</text>
<polygon fill="none" stroke="black" points="428,-144 428,-168.5 477.5,-168.5 477.5,-144 428,-144"/>
<text text-anchor="start" x="434.75" y="-151.2" font-family="arial" font-size="14.00">0.3 m</text>
<text text-anchor="start" x="344.12" y="-128.7" font-family="arial" font-size="14.00"> </text>
<text text-anchor="start" x="335.5" y="-108.7" font-family="arial" font-size="14.00"> </text>
<text text-anchor="start" x="360.12" y="-108.7" font-family="arial" font-size="14.00"> </text>
<text text-anchor="start" x="372.62" y="-108.7" font-family="arial" font-size="14.00">YE</text>
<text text-anchor="start" x="396.12" y="-108.7" font-family="arial" font-size="14.00"> </text>
<text text-anchor="start" x="403.5" y="-108.7" font-family="arial" font-size="14.00">X1:1:+12V </text>
<polygon fill="#ffffff" stroke="none" points="333.5,-102 333.5,-104 477.5,-104 477.5,-102 333.5,-102"/>
<polygon fill="#ffffff" stroke="none" points="333.5,-100 333.5,-102 477.5,-102 477.5,-100 333.5,-100"/>
<polygon fill="#ffffff" stroke="none" points="333.5,-98 333.5,-100 477.5,-100 477.5,-98 333.5,-98"/>
<text text-anchor="start" x="335.5" y="-82.7" font-family="arial" font-size="14.00"> F1</text>
<text text-anchor="start" x="360.12" y="-82.7" font-family="arial" font-size="14.00"> </text>
<text text-anchor="start" x="372.25" y="-82.7" font-family="arial" font-size="14.00">BK</text>
<text text-anchor="start" x="396.12" y="-82.7" font-family="arial" font-size="14.00"> </text>
<text text-anchor="start" x="406.5" y="-82.7" font-family="arial" font-size="14.00">X1:2:GND </text>
<polygon fill="#ffffff" stroke="none" points="333.5,-76 333.5,-78 477.5,-78 477.5,-76 333.5,-76"/>
<polygon fill="#ffffff" stroke="none" points="333.5,-74 333.5,-76 477.5,-76 477.5,-74 333.5,-74"/>
<polygon fill="#ffffff" stroke="none" points="333.5,-72 333.5,-74 477.5,-74 477.5,-72 333.5,-72"/>
<text text-anchor="start" x="335.5" y="-56.7" font-family="arial" font-size="14.00"> F1</text>
<text text-anchor="start" x="360.12" y="-56.7" font-family="arial" font-size="14.00"> </text>
<text text-anchor="start" x="372.25" y="-56.7" font-family="arial" font-size="14.00">BK</text>
<text text-anchor="start" x="396.12" y="-56.7" font-family="arial" font-size="14.00"> </text>
<text text-anchor="start" x="406.5" y="-56.7" font-family="arial" font-size="14.00">X1:3:GND </text>
<polygon fill="#ffffff" stroke="none" points="333.5,-50 333.5,-52 477.5,-52 477.5,-50 333.5,-50"/>
<polygon fill="#ffffff" stroke="none" points="333.5,-48 333.5,-50 477.5,-50 477.5,-48 333.5,-48"/>
<polygon fill="#ffffff" stroke="none" points="333.5,-46 333.5,-48 477.5,-48 477.5,-46 333.5,-46"/>
<text text-anchor="start" x="335.5" y="-30.7" font-family="arial" font-size="14.00"> </text>
<text text-anchor="start" x="360.12" y="-30.7" font-family="arial" font-size="14.00"> </text>
<text text-anchor="start" x="371.5" y="-30.7" font-family="arial" font-size="14.00">RD</text>
<text text-anchor="start" x="396.12" y="-30.7" font-family="arial" font-size="14.00"> </text>
<text text-anchor="start" x="411.75" y="-30.7" font-family="arial" font-size="14.00">X1:4:+5V </text>
<polygon fill="#ffffff" stroke="none" points="333.5,-24 333.5,-26 477.5,-26 477.5,-24 333.5,-24"/>
<polygon fill="#ffffff" stroke="none" points="333.5,-22 333.5,-24 477.5,-24 477.5,-22 333.5,-22"/>
<polygon fill="#ffffff" stroke="none" points="333.5,-20 333.5,-22 477.5,-22 477.5,-20 333.5,-20"/>
<text text-anchor="start" x="344.12" y="-4.7" font-family="arial" font-size="14.00"> </text>
</g>
<!-- AUTOGENERATED_F_05_1&#45;&#45;W1 -->
<g id="edge1" class="edge">
<title>AUTOGENERATED_F_05_1:e&#45;&#45;W1:w</title>
<path fill="none" stroke="#000000" stroke-width="2" d="M189.5,-109.5C252.56,-109.84 268.22,-99.34 333.5,-99"/>
<path fill="none" stroke="#ffff00" stroke-width="2" d="M189.5,-111.5C253.67,-111.5 269.33,-101 333.5,-101"/>
<path fill="none" stroke="#000000" stroke-width="2" d="M189.5,-113.5C254.78,-113.16 270.44,-102.66 333.5,-103"/>
</g>
<!-- W1&#45;&#45;W1 -->
<g id="edge2" class="edge">
<title>W1:e&#45;&#45;W1:w</title>
<path fill="none" stroke="#000000" stroke-width="2" d="M477.5,-103C429.5,-103 381.5,-103 333.5,-103"/>
<path fill="none" stroke="#ffff00" stroke-width="2" d="M477.5,-101C429.5,-101 381.5,-101 333.5,-101"/>
<path fill="none" stroke="#000000" stroke-width="2" d="M477.5,-99C429.5,-99 381.5,-99 333.5,-99"/>
</g>
<!-- W1&#45;&#45;W1 -->
<g id="edge3" class="edge">
<title>W1:e&#45;&#45;W1:w</title>
<path fill="none" stroke="#000000" stroke-width="2" d="M477.5,-77C429.5,-77 381.5,-77 333.5,-77"/>
<path fill="none" stroke="#000000" stroke-width="2" d="M477.5,-75C429.5,-75 381.5,-75 333.5,-75"/>
<path fill="none" stroke="#000000" stroke-width="2" d="M477.5,-73C429.5,-73 381.5,-73 333.5,-73"/>
</g>
<!-- W1&#45;&#45;W1 -->
<g id="edge4" class="edge">
<title>W1:e&#45;&#45;W1:w</title>
<path fill="none" stroke="#000000" stroke-width="2" d="M477.5,-51C429.5,-51 381.5,-51 333.5,-51"/>
<path fill="none" stroke="#000000" stroke-width="2" d="M477.5,-49C429.5,-49 381.5,-49 333.5,-49"/>
<path fill="none" stroke="#000000" stroke-width="2" d="M477.5,-47C429.5,-47 381.5,-47 333.5,-47"/>
</g>
<!-- W1&#45;&#45;W1 -->
<g id="edge5" class="edge">
<title>W1:e&#45;&#45;W1:w</title>
<path fill="none" stroke="#000000" stroke-width="2" d="M477.5,-25C429.5,-25 381.5,-25 333.5,-25"/>
<path fill="none" stroke="#ff0000" stroke-width="2" d="M477.5,-23C429.5,-23 381.5,-23 333.5,-23"/>
<path fill="none" stroke="#000000" stroke-width="2" d="M477.5,-21C429.5,-21 381.5,-21 333.5,-21"/>
</g>
<!-- X1 -->
<g id="node3" class="node">
<title>X1</title>
<polygon fill="#ffffff" stroke="black" points="794.75,-159 621.5,-159 621.5,-14 794.75,-14 794.75,-159"/>
<polygon fill="#ffffff" stroke="none" points="621.5,-14 621.5,-159 794.75,-159 794.75,-14 621.5,-14"/>
<polygon fill="none" stroke="black" points="621.5,-134.5 621.5,-159 794.75,-159 794.75,-134.5 621.5,-134.5"/>
<text text-anchor="start" x="699.12" y="-141.7" font-family="arial" font-size="14.00">X1</text>
<polygon fill="none" stroke="black" points="621.5,-110 621.5,-134.5 703.75,-134.5 703.75,-110 621.5,-110"/>
<text text-anchor="start" x="625.5" y="-117.2" font-family="arial" font-size="14.00">Molex 8981</text>
<polygon fill="none" stroke="black" points="703.75,-110 703.75,-134.5 755.25,-134.5 755.25,-110 703.75,-110"/>
<text text-anchor="start" x="707.75" y="-117.2" font-family="arial" font-size="14.00">female</text>
<polygon fill="none" stroke="black" points="755.25,-110 755.25,-134.5 794.75,-134.5 794.75,-110 755.25,-110"/>
<text text-anchor="start" x="759.25" y="-117.2" font-family="arial" font-size="14.00">4&#45;pin</text>
<polygon fill="none" stroke="black" points="621.5,-86 621.5,-110 695.12,-110 695.12,-86 621.5,-86"/>
<text text-anchor="start" x="654.18" y="-92.7" font-family="arial" font-size="14.00">1</text>
<polygon fill="none" stroke="black" points="695.12,-86 695.12,-110 794.75,-110 794.75,-86 695.12,-86"/>
<text text-anchor="start" x="727.68" y="-92.7" font-family="arial" font-size="14.00">+12V</text>
<polygon fill="none" stroke="black" points="621.5,-62 621.5,-86 695.12,-86 695.12,-62 621.5,-62"/>
<text text-anchor="start" x="654.18" y="-68.7" font-family="arial" font-size="14.00">2</text>
<polygon fill="none" stroke="black" points="695.12,-62 695.12,-86 794.75,-86 794.75,-62 695.12,-62"/>
<text text-anchor="start" x="729.18" y="-68.7" font-family="arial" font-size="14.00">GND</text>
<polygon fill="none" stroke="black" points="621.5,-38 621.5,-62 695.12,-62 695.12,-38 621.5,-38"/>
<text text-anchor="start" x="654.18" y="-44.7" font-family="arial" font-size="14.00">3</text>
<polygon fill="none" stroke="black" points="695.12,-38 695.12,-62 794.75,-62 794.75,-38 695.12,-38"/>
<text text-anchor="start" x="729.18" y="-44.7" font-family="arial" font-size="14.00">GND</text>
<polygon fill="none" stroke="black" points="621.5,-14 621.5,-38 695.12,-38 695.12,-14 621.5,-14"/>
<text text-anchor="start" x="654.18" y="-20.7" font-family="arial" font-size="14.00">4</text>
<polygon fill="none" stroke="black" points="695.12,-14 695.12,-38 794.75,-38 794.75,-14 695.12,-14"/>
<text text-anchor="start" x="731.81" y="-20.7" font-family="arial" font-size="14.00">+5V</text>
</g>
<!-- W1&#45;&#45;X1 -->
<g id="edge6" class="edge">
<title>W1:e&#45;&#45;X1:w</title>
<path fill="none" stroke="#000000" stroke-width="2" d="M477.5,-99C541.14,-99.04 557.12,-96.04 621.5,-96"/>
<path fill="none" stroke="#ffff00" stroke-width="2" d="M477.5,-101C541.51,-101 557.49,-98 621.5,-98"/>
<path fill="none" stroke="#000000" stroke-width="2" d="M477.5,-103C541.88,-102.97 557.86,-99.97 621.5,-100"/>
</g>
<!-- W1&#45;&#45;X1 -->
<g id="edge7" class="edge">
<title>W1:e&#45;&#45;X1:w</title>
<path fill="none" stroke="#000000" stroke-width="2" d="M477.5,-73C541.38,-73.01 557.38,-72.01 621.5,-72"/>
<path fill="none" stroke="#000000" stroke-width="2" d="M477.5,-75C541.5,-75 557.5,-74 621.5,-74"/>
<path fill="none" stroke="#000000" stroke-width="2" d="M477.5,-77C541.62,-77 557.62,-76 621.5,-76"/>
</g>
<!-- W1&#45;&#45;X1 -->
<g id="edge8" class="edge">
<title>W1:e&#45;&#45;X1:w</title>
<path fill="none" stroke="#000000" stroke-width="2" d="M477.5,-47C541.62,-47.01 557.62,-48.01 621.5,-48"/>
<path fill="none" stroke="#000000" stroke-width="2" d="M477.5,-49C541.5,-49 557.5,-50 621.5,-50"/>
<path fill="none" stroke="#000000" stroke-width="2" d="M477.5,-51C541.38,-51 557.38,-52 621.5,-52"/>
</g>
<!-- W1&#45;&#45;X1 -->
<g id="edge9" class="edge">
<title>W1:e&#45;&#45;X1:w</title>
<path fill="none" stroke="#000000" stroke-width="2" d="M477.5,-21C541.88,-21.04 557.86,-24.04 621.5,-24"/>
<path fill="none" stroke="#ff0000" stroke-width="2" d="M477.5,-23C541.51,-23 557.49,-26 621.5,-26"/>
<path fill="none" stroke="#000000" stroke-width="2" d="M477.5,-25C541.14,-24.97 557.12,-27.97 621.5,-28"/>
</g>
<!-- F1 -->
<g id="node4" class="node">
<title>F1</title>
<polygon fill="#ffffff" stroke="black" points="187.63,-74.75 1.87,-74.75 1.87,-50.25 187.63,-50.25 187.63,-74.75"/>
<polygon fill="#ffffff" stroke="none" points="1.88,-50.25 1.88,-74.75 187.62,-74.75 187.62,-50.25 1.88,-50.25"/>
<polygon fill="none" stroke="black" points="1.88,-50.25 1.88,-74.75 92.38,-74.75 92.38,-50.25 1.88,-50.25"/>
<text text-anchor="start" x="5.88" y="-57.45" font-family="arial" font-size="14.00">Crimp ferrule</text>
<polygon fill="none" stroke="black" points="92.38,-50.25 92.38,-74.75 152.88,-74.75 152.88,-50.25 92.38,-50.25"/>
<text text-anchor="start" x="96.38" y="-57.45" font-family="arial" font-size="14.00">1.0 mm²</text>
<polygon fill="none" stroke="black" points="152.88,-50.25 152.88,-74.75 179.62,-74.75 179.62,-50.25 152.88,-50.25"/>
<text text-anchor="start" x="156.88" y="-57.45" font-family="arial" font-size="14.00">YE</text>
<polygon fill="#ffff00" stroke="none" points="179.62,-50.25 179.62,-74.75 187.62,-74.75 187.62,-50.25 179.62,-50.25"/>
<polygon fill="none" stroke="black" points="179.62,-50.25 179.62,-74.75 187.62,-74.75 187.62,-50.25 179.62,-50.25"/>
</g>
<!-- F1&#45;&#45;W1 -->
<g id="edge10" class="edge">
<title>F1:e&#45;&#45;W1:w</title>
<path fill="none" stroke="#000000" stroke-width="2" d="M188.62,-60.5C254.5,-60.94 270.12,-73.44 333.5,-73"/>
<path fill="none" stroke="#000000" stroke-width="2" d="M188.62,-62.5C253.25,-62.5 268.87,-75 333.5,-75"/>
<path fill="none" stroke="#000000" stroke-width="2" d="M188.62,-64.5C252,-64.06 267.62,-76.56 333.5,-77"/>
</g>
<!-- F1&#45;&#45;W1 -->
<g id="edge11" class="edge">
<title>F1:e&#45;&#45;W1:w</title>
<path fill="none" stroke="#000000" stroke-width="2" d="M188.62,-60.5C251.98,-60.99 267.52,-47.49 333.5,-47"/>
<path fill="none" stroke="#000000" stroke-width="2" d="M188.62,-62.5C253.29,-62.5 268.83,-49 333.5,-49"/>
<path fill="none" stroke="#000000" stroke-width="2" d="M188.62,-64.5C254.6,-64.01 270.14,-50.51 333.5,-51"/>
</g>
<!-- AUTOGENERATED_F_05_2 -->
<g id="node5" class="node">
<title>AUTOGENERATED_F_05_2</title>
<polygon fill="#ffffff" stroke="black" points="189.5,-25.75 0,-25.75 0,-1.25 189.5,-1.25 189.5,-25.75"/>
<polygon fill="#ffffff" stroke="none" points="0,-1.25 0,-25.75 189.5,-25.75 189.5,-1.25 0,-1.25"/>
<polygon fill="none" stroke="black" points="0,-1.25 0,-25.75 90.5,-25.75 90.5,-1.25 0,-1.25"/>
<text text-anchor="start" x="4" y="-8.45" font-family="arial" font-size="14.00">Crimp ferrule</text>
<polygon fill="none" stroke="black" points="90.5,-1.25 90.5,-25.75 151,-25.75 151,-1.25 90.5,-1.25"/>
<text text-anchor="start" x="94.5" y="-8.45" font-family="arial" font-size="14.00">0.5 mm²</text>
<polygon fill="none" stroke="black" points="151,-1.25 151,-25.75 181.5,-25.75 181.5,-1.25 151,-1.25"/>
<text text-anchor="start" x="155" y="-8.45" font-family="arial" font-size="14.00">OG</text>
<polygon fill="#ff8000" stroke="none" points="181.5,-1.25 181.5,-25.75 189.5,-25.75 189.5,-1.25 181.5,-1.25"/>
<polygon fill="none" stroke="black" points="181.5,-1.25 181.5,-25.75 189.5,-25.75 189.5,-1.25 181.5,-1.25"/>
</g>
<!-- AUTOGENERATED_F_05_2&#45;&#45;W1 -->
<g id="edge12" class="edge">
<title>AUTOGENERATED_F_05_2:e&#45;&#45;W1:w</title>
<path fill="none" stroke="#000000" stroke-width="2" d="M189.5,-11.5C254.67,-11.79 270.39,-21.29 333.5,-21"/>
<path fill="none" stroke="#ff0000" stroke-width="2" d="M189.5,-13.5C253.64,-13.5 269.36,-23 333.5,-23"/>
<path fill="none" stroke="#000000" stroke-width="2" d="M189.5,-15.5C252.61,-15.21 268.33,-24.71 333.5,-25"/>
</g>
</g>
</svg>
