<?xml version="1.0" encoding="UTF-8" standalone="no"?>
<!DOCTYPE svg PUBLIC "-//W3C//DTD SVG 1.1//EN"
 "http://www.w3.org/Graphics/SVG/1.1/DTD/svg11.dtd">
<!-- Generated by graphviz version 12.1.2 (0)
 -->
<!-- Pages: 1 -->
<svg width="1254pt" height="634pt"
 viewBox="0.00 0.00 1253.75 634.38" xmlns="http://www.w3.org/2000/svg" xmlns:xlink="http://www.w3.org/1999/xlink">
<g id="graph0" class="graph" transform="scale(1 1) rotate(0) translate(4 630.38)">
<polygon fill="#ffffff" stroke="none" points="-4,4 -4,-630.38 1249.75,-630.38 1249.75,4 -4,4"/>
<!-- X1 -->
<g id="node1" class="node">
<title>X1</title>
<polygon fill="#ffffff" stroke="black" points="294,-454.88 0,-454.88 0,-202.62 294,-202.62 294,-454.88"/>
<polygon fill="#ffffff" stroke="none" points="0,-202.63 0,-454.88 294,-454.88 294,-202.63 0,-202.63"/>
<polygon fill="none" stroke="black" points="0,-431.13 0,-454.88 294,-454.88 294,-431.13 0,-431.13"/>
<text text-anchor="start" x="138.75" y="-437.58" font-family="arial" font-size="14.00">X1</text>
<polygon fill="none" stroke="black" points="0,-407.38 0,-431.13 148.12,-431.13 148.12,-407.38 0,-407.38"/>
<text text-anchor="start" x="21.94" y="-413.83" font-family="arial" font-size="14.00">Molex: 22013047</text>
<polygon fill="none" stroke="black" points="148.12,-407.38 148.12,-431.13 294,-431.13 294,-407.38 148.12,-407.38"/>
<text text-anchor="start" x="170.06" y="-413.83" font-family="arial" font-size="14.00">Digimouse: 1234</text>
<polygon fill="none" stroke="black" points="0,-383.63 0,-407.38 130.75,-407.38 130.75,-383.63 0,-383.63"/>
<text text-anchor="start" x="23" y="-390.08" font-family="arial" font-size="14.00">Molex KK 254</text>
<polygon fill="none" stroke="black" points="130.75,-383.63 130.75,-407.38 218,-407.38 218,-383.63 130.75,-383.63"/>
<text text-anchor="start" x="153.75" y="-390.08" font-family="arial" font-size="14.00">female</text>
<polygon fill="none" stroke="black" points="218,-383.63 218,-407.38 294,-407.38 294,-383.63 218,-383.63"/>
<text text-anchor="start" x="241" y="-390.08" font-family="arial" font-size="14.00">4&#45;pin</text>
<polygon fill="none" stroke="black" points="0,-359.88 0,-383.63 294,-383.63 294,-359.88 0,-359.88"/>
<text text-anchor="start" x="143.25" y="-366.33" font-family="arial" font-size="14.00">1</text>
<polygon fill="none" stroke="black" points="0,-336.13 0,-359.88 294,-359.88 294,-336.13 0,-336.13"/>
<text text-anchor="start" x="143.25" y="-342.58" font-family="arial" font-size="14.00">2</text>
<polygon fill="none" stroke="black" points="0,-312.38 0,-336.13 294,-336.13 294,-312.38 0,-312.38"/>
<text text-anchor="start" x="143.25" y="-318.83" font-family="arial" font-size="14.00">3</text>
<polygon fill="none" stroke="black" points="0,-288.63 0,-312.38 294,-312.38 294,-288.63 0,-288.63"/>
<text text-anchor="start" x="143.25" y="-295.08" font-family="arial" font-size="14.00">4</text>
<text text-anchor="start" x="9.75" y="-271.33" font-family="arial" font-size="14.00">4</text>
<text text-anchor="start" x="22.62" y="-271.33" font-family="arial" font-size="14.00">x</text>
<text text-anchor="start" x="35" y="-271.33" font-family="arial" font-size="14.00">Crimp, Molex KK 254, 22&#45;30 AWG</text>
<text text-anchor="start" x="35" y="-250.33" font-family="arial" font-size="14.00">Molex: 08500030</text>
<text text-anchor="start" x="9.75" y="-229.33" font-family="arial" font-size="14.00">1</text>
<text text-anchor="start" x="22.62" y="-229.33" font-family="arial" font-size="14.00">x</text>
<text text-anchor="start" x="35" y="-229.33" font-family="arial" font-size="14.00">Test</text>
<text text-anchor="start" x="35" y="-208.33" font-family="arial" font-size="14.00">P/N: ABC, Molex: 45454, Mousikey: 9999</text>
<polygon fill="none" stroke="black" points="0,-202.63 0,-288.63 294,-288.63 294,-202.63 0,-202.63"/>
</g>
<!-- W1 -->
<g id="node2" class="node">
<title>W1</title>
<polygon fill="#ffffff" stroke="black" points="803.25,-626.38 438,-626.38 438,-417.13 803.25,-417.13 803.25,-626.38"/>
<polygon fill="#ffffff" stroke="none" points="438,-417.13 438,-626.38 803.25,-626.38 803.25,-417.13 438,-417.13"/>
<polygon fill="none" stroke="black" points="438,-602.63 438,-626.38 803.25,-626.38 803.25,-602.63 438,-602.63"/>
<text text-anchor="start" x="610.12" y="-609.08" font-family="arial" font-size="14.00">W1</text>
<polygon fill="none" stroke="black" points="438,-578.88 438,-602.63 511.25,-602.63 511.25,-578.88 438,-578.88"/>
<text text-anchor="start" x="442" y="-585.33" font-family="arial" font-size="14.00">P/N: CAB1</text>
<polygon fill="none" stroke="black" points="511.25,-578.88 511.25,-602.63 635.5,-602.63 635.5,-578.88 511.25,-578.88"/>
<text text-anchor="start" x="515.25" y="-585.33" font-family="arial" font-size="14.00">CablesCo: ABC123</text>
<polygon fill="none" stroke="black" points="635.5,-578.88 635.5,-602.63 803.25,-602.63 803.25,-578.88 635.5,-578.88"/>
<text text-anchor="start" x="639.5" y="-585.33" font-family="arial" font-size="14.00">Cables R Us: 999&#45;888&#45;777</text>
<polygon fill="none" stroke="black" points="438,-555.13 438,-578.88 542,-578.88 542,-555.13 438,-555.13"/>
<text text-anchor="start" x="482.87" y="-561.58" font-family="arial" font-size="14.00">4x</text>
<polygon fill="none" stroke="black" points="542,-555.13 542,-578.88 690.25,-578.88 690.25,-555.13 542,-555.13"/>
<text text-anchor="start" x="586.87" y="-561.58" font-family="arial" font-size="14.00">0.25 mm²</text>
<polygon fill="none" stroke="black" points="690.25,-555.13 690.25,-578.88 803.25,-578.88 803.25,-555.13 690.25,-555.13"/>
<text text-anchor="start" x="735.12" y="-561.58" font-family="arial" font-size="14.00">1 m</text>
<text text-anchor="start" x="478.05" y="-539.83" font-family="arial" font-size="14.00"> </text>
<text text-anchor="start" x="440" y="-520.83" font-family="arial" font-size="14.00"> X1:1</text>
<text text-anchor="start" x="547.89" y="-520.83" font-family="arial" font-size="14.00"> </text>
<text text-anchor="start" x="605.62" y="-520.83" font-family="arial" font-size="14.00">1:BN</text>
<text text-anchor="start" x="689.6" y="-520.83" font-family="arial" font-size="14.00"> </text>
<text text-anchor="start" x="769.75" y="-520.83" font-family="arial" font-size="14.00">X2:1 </text>
<text text-anchor="start" x="440" y="-495.83" font-family="arial" font-size="14.00"> X1:2</text>
<text text-anchor="start" x="547.89" y="-495.83" font-family="arial" font-size="14.00"> </text>
<text text-anchor="start" x="605.25" y="-495.83" font-family="arial" font-size="14.00">2:RD</text>
<text text-anchor="start" x="689.6" y="-495.83" font-family="arial" font-size="14.00"> </text>
<text text-anchor="start" x="769.75" y="-495.83" font-family="arial" font-size="14.00">X2:2 </text>
<text text-anchor="start" x="440" y="-470.83" font-family="arial" font-size="14.00"> X1:3</text>
<text text-anchor="start" x="547.89" y="-470.83" font-family="arial" font-size="14.00"> </text>
<text text-anchor="start" x="603.75" y="-470.83" font-family="arial" font-size="14.00">3:OG</text>
<text text-anchor="start" x="689.6" y="-470.83" font-family="arial" font-size="14.00"> </text>
<text text-anchor="start" x="769.75" y="-470.83" font-family="arial" font-size="14.00">X2:3 </text>
<text text-anchor="start" x="440" y="-445.83" font-family="arial" font-size="14.00"> X1:4</text>
<text text-anchor="start" x="547.89" y="-445.83" font-family="arial" font-size="14.00"> </text>
<text text-anchor="start" x="606" y="-445.83" font-family="arial" font-size="14.00">4:YE</text>
<text text-anchor="start" x="689.6" y="-445.83" font-family="arial" font-size="14.00"> </text>
<text text-anchor="start" x="769.75" y="-445.83" font-family="arial" font-size="14.00">X2:4 </text>
<text text-anchor="start" x="478.05" y="-420.83" font-family="arial" font-size="14.00"> </text>
</g>
<!-- X1&#45;&#45;W1 -->
<g id="edge1" class="edge">
<title>X1:e&#45;&#45;W1:w</title>
<path fill="none" stroke="#000000" stroke-width="2" d="M294,-369.75C385.94,-372.24 349.94,-514.61 438,-512.12"/>
<path fill="none" stroke="#895956" stroke-width="2" d="M294,-371.75C384,-371.75 348,-514.12 438,-514.12"/>
<path fill="none" stroke="#000000" stroke-width="2" d="M294,-373.75C382.06,-371.26 346.06,-513.63 438,-516.12"/>
</g>
<!-- X1&#45;&#45;W1 -->
<g id="edge2" class="edge">
<title>X1:e&#45;&#45;W1:w</title>
<path fill="none" stroke="#000000" stroke-width="2" d="M294,-346C385.55,-348.49 350.33,-489.61 438,-487.12"/>
<path fill="none" stroke="#ff0000" stroke-width="2" d="M294,-348C383.61,-348 348.39,-489.12 438,-489.12"/>
<path fill="none" stroke="#000000" stroke-width="2" d="M294,-350C381.67,-347.52 346.45,-488.64 438,-491.12"/>
</g>
<!-- X1&#45;&#45;W1 -->
<g id="edge3" class="edge">
<title>X1:e&#45;&#45;W1:w</title>
<path fill="none" stroke="#000000" stroke-width="2" d="M294,-322.25C385.16,-324.73 350.72,-464.6 438,-462.12"/>
<path fill="none" stroke="#ff8000" stroke-width="2" d="M294,-324.25C383.22,-324.25 348.78,-464.12 438,-464.12"/>
<path fill="none" stroke="#000000" stroke-width="2" d="M294,-326.25C381.28,-323.77 346.84,-463.64 438,-466.12"/>
</g>
<!-- X1&#45;&#45;W1 -->
<g id="edge4" class="edge">
<title>X1:e&#45;&#45;W1:w</title>
<path fill="none" stroke="#000000" stroke-width="2" d="M294,-298.5C384.78,-300.97 351.1,-439.59 438,-437.12"/>
<path fill="none" stroke="#ffff00" stroke-width="2" d="M294,-300.5C382.84,-300.5 349.16,-439.12 438,-439.12"/>
<path fill="none" stroke="#000000" stroke-width="2" d="M294,-302.5C380.9,-300.03 347.22,-438.65 438,-441.12"/>
</g>
<!-- W2 -->
<g id="node3" class="node">
<title>W2</title>
<polygon fill="#ffffff" stroke="black" stroke-dasharray="5,2" points="769.62,-321.5 471.62,-321.5 471.62,0 769.62,0 769.62,-321.5"/>
<polygon fill="#ffffff" stroke="none" points="471.62,0 471.62,-321.5 769.62,-321.5 769.62,0 471.62,0"/>
<polygon fill="none" stroke="black" points="471.62,-297.75 471.62,-321.5 769.62,-321.5 769.62,-297.75 471.62,-297.75"/>
<text text-anchor="start" x="610.12" y="-304.2" font-family="arial" font-size="14.00">W2</text>
<polygon fill="none" stroke="black" points="471.62,-274 471.62,-297.75 553.2,-297.75 553.2,-274 471.62,-274"/>
<text text-anchor="start" x="505.29" y="-280.45" font-family="arial" font-size="14.00">4x</text>
<polygon fill="none" stroke="black" points="553.2,-274 553.2,-297.75 679.04,-297.75 679.04,-274 553.2,-274"/>
<text text-anchor="start" x="586.87" y="-280.45" font-family="arial" font-size="14.00">0.25 mm²</text>
<polygon fill="none" stroke="black" points="679.04,-274 679.04,-297.75 769.62,-297.75 769.62,-274 679.04,-274"/>
<text text-anchor="start" x="712.7" y="-280.45" font-family="arial" font-size="14.00">1 m</text>
<text text-anchor="start" x="533.75" y="-258.7" font-family="arial" font-size="14.00"> </text>
<text text-anchor="start" x="473.62" y="-239.7" font-family="arial" font-size="14.00"> X1:1</text>
<text text-anchor="start" x="624.75" y="-239.7" font-family="arial" font-size="14.00"> </text>
<text text-anchor="start" x="689.12" y="-239.7" font-family="arial" font-size="14.00">YE</text>
<text text-anchor="start" x="720.25" y="-239.7" font-family="arial" font-size="14.00"> </text>
<text text-anchor="start" x="736.12" y="-239.7" font-family="arial" font-size="14.00">X3:1 </text>
<text text-anchor="start" x="475.87" y="-212.7" font-family="arial" font-size="14.00">P/N: WIRE1</text>
<text text-anchor="start" x="553.87" y="-212.7" font-family="arial" font-size="14.00">WiresCo: W1&#45;YE</text>
<text text-anchor="start" x="661.87" y="-212.7" font-family="arial" font-size="14.00">WireShack: 1001</text>
<text text-anchor="start" x="473.62" y="-191.7" font-family="arial" font-size="14.00"> X1:2</text>
<text text-anchor="start" x="624.75" y="-191.7" font-family="arial" font-size="14.00"> </text>
<text text-anchor="start" x="689.12" y="-191.7" font-family="arial" font-size="14.00">BK</text>
<text text-anchor="start" x="720.25" y="-191.7" font-family="arial" font-size="14.00"> </text>
<text text-anchor="start" x="736.12" y="-191.7" font-family="arial" font-size="14.00">X3:2 </text>
<text text-anchor="start" x="475.87" y="-164.7" font-family="arial" font-size="14.00">P/N: WIRE2</text>
<text text-anchor="start" x="553.87" y="-164.7" font-family="arial" font-size="14.00">WiresCo: W1&#45;BK</text>
<text text-anchor="start" x="661.87" y="-164.7" font-family="arial" font-size="14.00">WireShack: 1002</text>
<text text-anchor="start" x="473.62" y="-143.7" font-family="arial" font-size="14.00"> X1:3</text>
<text text-anchor="start" x="624.75" y="-143.7" font-family="arial" font-size="14.00"> </text>
<text text-anchor="start" x="689.12" y="-143.7" font-family="arial" font-size="14.00">BK</text>
<text text-anchor="start" x="720.25" y="-143.7" font-family="arial" font-size="14.00"> </text>
<text text-anchor="start" x="736.12" y="-143.7" font-family="arial" font-size="14.00">X3:3 </text>
<text text-anchor="start" x="475.87" y="-116.7" font-family="arial" font-size="14.00">P/N: WIRE2</text>
<text text-anchor="start" x="553.87" y="-116.7" font-family="arial" font-size="14.00">WiresCo: W1&#45;BK</text>
<text text-anchor="start" x="661.87" y="-116.7" font-family="arial" font-size="14.00">WireShack: 1002</text>
<text text-anchor="start" x="473.62" y="-95.7" font-family="arial" font-size="14.00"> X1:4</text>
<text text-anchor="start" x="624.75" y="-95.7" font-family="arial" font-size="14.00"> </text>
<text text-anchor="start" x="688.37" y="-95.7" font-family="arial" font-size="14.00">RD</text>
<text text-anchor="start" x="720.25" y="-95.7" font-family="arial" font-size="14.00"> </text>
<text text-anchor="start" x="736.12" y="-95.7" font-family="arial" font-size="14.00">X3:4 </text>
<text text-anchor="start" x="475.62" y="-68.7" font-family="arial" font-size="14.00">P/N: WIRE3</text>
<text text-anchor="start" x="553.12" y="-68.7" font-family="arial" font-size="14.00">WiresCo: W1&#45;RD</text>
<text text-anchor="start" x="662.12" y="-68.7" font-family="arial" font-size="14.00">WireShack: 1009</text>
<text text-anchor="start" x="533.75" y="-47.7" font-family="arial" font-size="14.00"> </text>
<text text-anchor="start" x="496.32" y="-26.7" font-family="arial" font-size="14.00">1</text>
<text text-anchor="start" x="509.82" y="-26.7" font-family="arial" font-size="14.00">m</text>
<text text-anchor="start" x="535.42" y="-26.7" font-family="arial" font-size="14.00">Sleeve, Braided nylon, black, 3mm</text>
<text text-anchor="start" x="535.42" y="-5.7" font-family="arial" font-size="14.00">P/N: SLV&#45;1</text>
<polygon fill="none" stroke="black" points="471.62,0 471.62,-44 769.62,-44 769.62,0 471.62,0"/>
</g>
<!-- X1&#45;&#45;W2 -->
<g id="edge5" class="edge">
<title>X1:e&#45;&#45;W2:w</title>
<path fill="none" stroke="#000000" stroke-width="2" d="M294,-369.75C391.85,-372.08 368.83,-233.33 470.62,-231"/>
<path fill="none" stroke="#ffff00" stroke-width="2" d="M294,-371.75C393.82,-371.75 370.8,-233 470.62,-233"/>
<path fill="none" stroke="#000000" stroke-width="2" d="M294,-373.75C395.79,-371.42 372.77,-232.67 470.62,-235"/>
</g>
<!-- X1&#45;&#45;W2 -->
<g id="edge6" class="edge">
<title>X1:e&#45;&#45;W2:w</title>
<path fill="none" stroke="#000000" stroke-width="2" d="M294,-346C398.87,-348.44 361.86,-185.44 470.62,-183"/>
<path fill="none" stroke="#000000" stroke-width="2" d="M294,-348C400.82,-348 363.81,-185 470.62,-185"/>
<path fill="none" stroke="#000000" stroke-width="2" d="M294,-350C402.77,-347.56 365.76,-184.56 470.62,-187"/>
</g>
<!-- X1&#45;&#45;W2 -->
<g id="edge7" class="edge">
<title>X1:e&#45;&#45;W2:w</title>
<path fill="none" stroke="#000000" stroke-width="2" d="M294,-322.25C406.47,-324.79 354.29,-137.54 470.62,-135"/>
<path fill="none" stroke="#000000" stroke-width="2" d="M294,-324.25C408.4,-324.25 356.22,-137 470.62,-137"/>
<path fill="none" stroke="#000000" stroke-width="2" d="M294,-326.25C410.33,-323.71 358.15,-136.46 470.62,-139"/>
</g>
<!-- X1&#45;&#45;W2 -->
<g id="edge8" class="edge">
<title>X1:e&#45;&#45;W2:w</title>
<path fill="none" stroke="#000000" stroke-width="2" d="M294,-298.5C414.57,-301.12 346.26,-89.62 470.62,-87"/>
<path fill="none" stroke="#ff0000" stroke-width="2" d="M294,-300.5C416.47,-300.5 348.16,-89 470.62,-89"/>
<path fill="none" stroke="#000000" stroke-width="2" d="M294,-302.5C418.37,-299.89 350.06,-88.39 470.62,-91"/>
</g>
<!-- W1&#45;&#45;W1 -->
<g id="edge9" class="edge">
<title>W1:e&#45;&#45;W1:w</title>
<path fill="none" stroke="#000000" stroke-width="2" d="M803.25,-516.12C681.5,-516.12 559.75,-516.12 438,-516.12"/>
<path fill="none" stroke="#895956" stroke-width="2" d="M803.25,-514.12C681.5,-514.12 559.75,-514.12 438,-514.12"/>
<path fill="none" stroke="#000000" stroke-width="2" d="M803.25,-512.12C681.5,-512.12 559.75,-512.12 438,-512.12"/>
</g>
<!-- W1&#45;&#45;W1 -->
<g id="edge10" class="edge">
<title>W1:e&#45;&#45;W1:w</title>
<path fill="none" stroke="#000000" stroke-width="2" d="M803.25,-491.12C681.5,-491.12 559.75,-491.12 438,-491.12"/>
<path fill="none" stroke="#ff0000" stroke-width="2" d="M803.25,-489.12C681.5,-489.12 559.75,-489.12 438,-489.12"/>
<path fill="none" stroke="#000000" stroke-width="2" d="M803.25,-487.12C681.5,-487.12 559.75,-487.12 438,-487.12"/>
</g>
<!-- W1&#45;&#45;W1 -->
<g id="edge11" class="edge">
<title>W1:e&#45;&#45;W1:w</title>
<path fill="none" stroke="#000000" stroke-width="2" d="M803.25,-466.12C681.5,-466.12 559.75,-466.12 438,-466.12"/>
<path fill="none" stroke="#ff8000" stroke-width="2" d="M803.25,-464.12C681.5,-464.12 559.75,-464.12 438,-464.12"/>
<path fill="none" stroke="#000000" stroke-width="2" d="M803.25,-462.12C681.5,-462.12 559.75,-462.12 438,-462.12"/>
</g>
<!-- W1&#45;&#45;W1 -->
<g id="edge12" class="edge">
<title>W1:e&#45;&#45;W1:w</title>
<path fill="none" stroke="#000000" stroke-width="2" d="M803.25,-441.12C681.5,-441.12 559.75,-441.12 438,-441.12"/>
<path fill="none" stroke="#ffff00" stroke-width="2" d="M803.25,-439.12C681.5,-439.12 559.75,-439.12 438,-439.12"/>
<path fill="none" stroke="#000000" stroke-width="2" d="M803.25,-437.12C681.5,-437.12 559.75,-437.12 438,-437.12"/>
</g>
<!-- X2 -->
<g id="node4" class="node">
<title>X2</title>
<polygon fill="#ffffff" stroke="black" points="1245.75,-595.88 947.25,-595.88 947.25,-343.62 1245.75,-343.62 1245.75,-595.88"/>
<polygon fill="#ffffff" stroke="none" points="947.25,-343.63 947.25,-595.88 1245.75,-595.88 1245.75,-343.63 947.25,-343.63"/>
<polygon fill="none" stroke="black" points="947.25,-572.13 947.25,-595.88 1245.75,-595.88 1245.75,-572.13 947.25,-572.13"/>
<text text-anchor="start" x="1088.25" y="-578.58" font-family="arial" font-size="14.00">X2</text>
<polygon fill="none" stroke="black" points="947.25,-548.38 947.25,-572.13 1023.5,-572.13 1023.5,-548.38 947.25,-548.38"/>
<text text-anchor="start" x="951.25" y="-554.83" font-family="arial" font-size="14.00">P/N: CON4</text>
<polygon fill="none" stroke="black" points="1023.5,-548.38 1023.5,-572.13 1135.75,-572.13 1135.75,-548.38 1023.5,-548.38"/>
<text text-anchor="start" x="1027.5" y="-554.83" font-family="arial" font-size="14.00">Molex: 22013047</text>
<polygon fill="none" stroke="black" points="1135.75,-548.38 1135.75,-572.13 1245.75,-572.13 1245.75,-548.38 1135.75,-548.38"/>
<text text-anchor="start" x="1139.75" y="-554.83" font-family="arial" font-size="14.00">Digimouse: 1234</text>
<polygon fill="none" stroke="black" points="947.25,-524.63 947.25,-548.38 1079.5,-548.38 1079.5,-524.63 947.25,-524.63"/>
<text text-anchor="start" x="971" y="-531.08" font-family="arial" font-size="14.00">Molex KK 254</text>
<polygon fill="none" stroke="black" points="1079.5,-524.63 1079.5,-548.38 1168.25,-548.38 1168.25,-524.63 1079.5,-524.63"/>
<text text-anchor="start" x="1103.25" y="-531.08" font-family="arial" font-size="14.00">female</text>
<polygon fill="none" stroke="black" points="1168.25,-524.63 1168.25,-548.38 1245.75,-548.38 1245.75,-524.63 1168.25,-524.63"/>
<text text-anchor="start" x="1192" y="-531.08" font-family="arial" font-size="14.00">4&#45;pin</text>
<polygon fill="none" stroke="black" points="947.25,-500.88 947.25,-524.63 1245.75,-524.63 1245.75,-500.88 947.25,-500.88"/>
<text text-anchor="start" x="1092.75" y="-507.33" font-family="arial" font-size="14.00">1</text>
<polygon fill="none" stroke="black" points="947.25,-477.13 947.25,-500.88 1245.75,-500.88 1245.75,-477.13 947.25,-477.13"/>
<text text-anchor="start" x="1092.75" y="-483.58" font-family="arial" font-size="14.00">2</text>
<polygon fill="none" stroke="black" points="947.25,-453.38 947.25,-477.13 1245.75,-477.13 1245.75,-453.38 947.25,-453.38"/>
<text text-anchor="start" x="1092.75" y="-459.83" font-family="arial" font-size="14.00">3</text>
<polygon fill="none" stroke="black" points="947.25,-429.63 947.25,-453.38 1245.75,-453.38 1245.75,-429.63 947.25,-429.63"/>
<text text-anchor="start" x="1092.75" y="-436.08" font-family="arial" font-size="14.00">4</text>
<text text-anchor="start" x="958.55" y="-412.33" font-family="arial" font-size="14.00">4</text>
<text text-anchor="start" x="972.05" y="-412.33" font-family="arial" font-size="14.00">x</text>
<text text-anchor="start" x="984.95" y="-412.33" font-family="arial" font-size="14.00">Crimp, Molex KK 254, 22&#45;30 AWG</text>
<text text-anchor="start" x="984.95" y="-391.33" font-family="arial" font-size="14.00">Molex: 08500030</text>
<text text-anchor="start" x="958.55" y="-370.33" font-family="arial" font-size="14.00">1</text>
<text text-anchor="start" x="972.05" y="-370.33" font-family="arial" font-size="14.00">x</text>
<text text-anchor="start" x="984.95" y="-370.33" font-family="arial" font-size="14.00">Test</text>
<text text-anchor="start" x="984.95" y="-349.33" font-family="arial" font-size="14.00">P/N: ABC, Molex: 45454, Mousikey: 9999</text>
<polygon fill="none" stroke="black" points="947.25,-343.63 947.25,-429.63 1245.75,-429.63 1245.75,-343.63 947.25,-343.63"/>
</g>
<!-- W1&#45;&#45;X2 -->
<g id="edge13" class="edge">
<title>W1:e&#45;&#45;X2:w</title>
<path fill="none" stroke="#000000" stroke-width="2" d="M803.25,-512.12C867.08,-512.13 883.08,-510.76 947.25,-510.75"/>
<path fill="none" stroke="#895956" stroke-width="2" d="M803.25,-514.12C867.25,-514.12 883.25,-512.75 947.25,-512.75"/>
<path fill="none" stroke="#000000" stroke-width="2" d="M803.25,-516.12C867.42,-516.11 883.42,-514.74 947.25,-514.75"/>
</g>
<!-- W1&#45;&#45;X2 -->
<g id="edge14" class="edge">
<title>W1:e&#45;&#45;X2:w</title>
<path fill="none" stroke="#000000" stroke-width="2" d="M803.25,-487.12C867.24,-487.12 883.24,-487 947.25,-487"/>
<path fill="none" stroke="#ff0000" stroke-width="2" d="M803.25,-489.12C867.25,-489.12 883.25,-489 947.25,-489"/>
<path fill="none" stroke="#000000" stroke-width="2" d="M803.25,-491.12C867.26,-491.12 883.26,-491 947.25,-491"/>
</g>
<!-- W1&#45;&#45;X2 -->
<g id="edge15" class="edge">
<title>W1:e&#45;&#45;X2:w</title>
<path fill="none" stroke="#000000" stroke-width="2" d="M803.25,-462.12C867.39,-462.13 883.39,-463.26 947.25,-463.25"/>
<path fill="none" stroke="#ff8000" stroke-width="2" d="M803.25,-464.12C867.25,-464.12 883.25,-465.25 947.25,-465.25"/>
<path fill="none" stroke="#000000" stroke-width="2" d="M803.25,-466.12C867.11,-466.12 883.11,-467.25 947.25,-467.25"/>
</g>
<!-- W1&#45;&#45;X2 -->
<g id="edge16" class="edge">
<title>W1:e&#45;&#45;X2:w</title>
<path fill="none" stroke="#000000" stroke-width="2" d="M803.25,-437.12C867.55,-437.14 883.53,-439.52 947.25,-439.5"/>
<path fill="none" stroke="#ffff00" stroke-width="2" d="M803.25,-439.12C867.26,-439.12 883.24,-441.5 947.25,-441.5"/>
<path fill="none" stroke="#000000" stroke-width="2" d="M803.25,-441.12C866.97,-441.1 882.95,-443.48 947.25,-443.5"/>
</g>
<!-- W2&#45;&#45;W2 -->
<g id="edge17" class="edge">
<title>W2:e&#45;&#45;W2:w</title>
<path fill="none" stroke="#000000" stroke-width="2" d="M769.62,-235C670.29,-235 570.95,-235 471.62,-235"/>
<path fill="none" stroke="#ffff00" stroke-width="2" d="M769.62,-233C670.29,-233 570.95,-233 471.62,-233"/>
<path fill="none" stroke="#000000" stroke-width="2" d="M769.62,-231C670.29,-231 570.95,-231 471.62,-231"/>
</g>
<!-- W2&#45;&#45;W2 -->
<g id="edge18" class="edge">
<title>W2:e&#45;&#45;W2:w</title>
<path fill="none" stroke="#000000" stroke-width="2" d="M769.62,-187C670.29,-187 570.95,-187 471.62,-187"/>
<path fill="none" stroke="#000000" stroke-width="2" d="M769.62,-185C670.29,-185 570.95,-185 471.62,-185"/>
<path fill="none" stroke="#000000" stroke-width="2" d="M769.62,-183C670.29,-183 570.95,-183 471.62,-183"/>
</g>
<!-- W2&#45;&#45;W2 -->
<g id="edge19" class="edge">
<title>W2:e&#45;&#45;W2:w</title>
<path fill="none" stroke="#000000" stroke-width="2" d="M769.62,-139C670.29,-139 570.95,-139 471.62,-139"/>
<path fill="none" stroke="#000000" stroke-width="2" d="M769.62,-137C670.29,-137 570.95,-137 471.62,-137"/>
<path fill="none" stroke="#000000" stroke-width="2" d="M769.62,-135C670.29,-135 570.95,-135 471.62,-135"/>
</g>
<!-- W2&#45;&#45;W2 -->
<g id="edge20" class="edge">
<title>W2:e&#45;&#45;W2:w</title>
<path fill="none" stroke="#000000" stroke-width="2" d="M769.62,-91C670.29,-91 570.95,-91 471.62,-91"/>
<path fill="none" stroke="#ff0000" stroke-width="2" d="M769.62,-89C670.29,-89 570.95,-89 471.62,-89"/>
<path fill="none" stroke="#000000" stroke-width="2" d="M769.62,-87C670.29,-87 570.95,-87 471.62,-87"/>
</g>
<!-- X3 -->
<g id="node5" class="node">
<title>X3</title>
<polygon fill="#ffffff" stroke="black" points="1243.5,-279.88 949.5,-279.88 949.5,-27.62 1243.5,-27.62 1243.5,-279.88"/>
<polygon fill="#ffffff" stroke="none" points="949.5,-27.63 949.5,-279.88 1243.5,-279.88 1243.5,-27.63 949.5,-27.63"/>
<polygon fill="none" stroke="black" points="949.5,-256.13 949.5,-279.88 1243.5,-279.88 1243.5,-256.13 949.5,-256.13"/>
<text text-anchor="start" x="1088.25" y="-262.58" font-family="arial" font-size="14.00">X3</text>
<polygon fill="none" stroke="black" points="949.5,-232.38 949.5,-256.13 1097.62,-256.13 1097.62,-232.38 949.5,-232.38"/>
<text text-anchor="start" x="971.44" y="-238.83" font-family="arial" font-size="14.00">Molex: 22013047</text>
<polygon fill="none" stroke="black" points="1097.62,-232.38 1097.62,-256.13 1243.5,-256.13 1243.5,-232.38 1097.62,-232.38"/>
<text text-anchor="start" x="1119.56" y="-238.83" font-family="arial" font-size="14.00">Digimouse: 1234</text>
<polygon fill="none" stroke="black" points="949.5,-208.63 949.5,-232.38 1080.25,-232.38 1080.25,-208.63 949.5,-208.63"/>
<text text-anchor="start" x="972.5" y="-215.08" font-family="arial" font-size="14.00">Molex KK 254</text>
<polygon fill="none" stroke="black" points="1080.25,-208.63 1080.25,-232.38 1167.5,-232.38 1167.5,-208.63 1080.25,-208.63"/>
<text text-anchor="start" x="1103.25" y="-215.08" font-family="arial" font-size="14.00">female</text>
<polygon fill="none" stroke="black" points="1167.5,-208.63 1167.5,-232.38 1243.5,-232.38 1243.5,-208.63 1167.5,-208.63"/>
<text text-anchor="start" x="1190.5" y="-215.08" font-family="arial" font-size="14.00">4&#45;pin</text>
<polygon fill="none" stroke="black" points="949.5,-184.88 949.5,-208.63 1243.5,-208.63 1243.5,-184.88 949.5,-184.88"/>
<text text-anchor="start" x="1092.75" y="-191.33" font-family="arial" font-size="14.00">1</text>
<polygon fill="none" stroke="black" points="949.5,-161.13 949.5,-184.88 1243.5,-184.88 1243.5,-161.13 949.5,-161.13"/>
<text text-anchor="start" x="1092.75" y="-167.58" font-family="arial" font-size="14.00">2</text>
<polygon fill="none" stroke="black" points="949.5,-137.38 949.5,-161.13 1243.5,-161.13 1243.5,-137.38 949.5,-137.38"/>
<text text-anchor="start" x="1092.75" y="-143.83" font-family="arial" font-size="14.00">3</text>
<polygon fill="none" stroke="black" points="949.5,-113.63 949.5,-137.38 1243.5,-137.38 1243.5,-113.63 949.5,-113.63"/>
<text text-anchor="start" x="1092.75" y="-120.08" font-family="arial" font-size="14.00">4</text>
<text text-anchor="start" x="959.25" y="-96.33" font-family="arial" font-size="14.00">4</text>
<text text-anchor="start" x="972.12" y="-96.33" font-family="arial" font-size="14.00">x</text>
<text text-anchor="start" x="984.5" y="-96.33" font-family="arial" font-size="14.00">Crimp, Molex KK 254, 22&#45;30 AWG</text>
<text text-anchor="start" x="984.5" y="-75.33" font-family="arial" font-size="14.00">Molex: 08500030</text>
<text text-anchor="start" x="959.25" y="-54.33" font-family="arial" font-size="14.00">1</text>
<text text-anchor="start" x="972.12" y="-54.33" font-family="arial" font-size="14.00">x</text>
<text text-anchor="start" x="984.5" y="-54.33" font-family="arial" font-size="14.00">Test</text>
<text text-anchor="start" x="984.5" y="-33.33" font-family="arial" font-size="14.00">P/N: ABC, Molex: 45454, Mousikey: 9999</text>
<polygon fill="none" stroke="black" points="949.5,-27.63 949.5,-113.63 1243.5,-113.63 1243.5,-27.63 949.5,-27.63"/>
</g>
<!-- W2&#45;&#45;X3 -->
<g id="edge21" class="edge">
<title>W2:e&#45;&#45;X3:w</title>
<path fill="none" stroke="#000000" stroke-width="2" d="M770.62,-231C849.49,-232.17 866,-195.92 948.5,-194.75"/>
<path fill="none" stroke="#ffff00" stroke-width="2" d="M770.62,-233C851.31,-233 867.82,-196.75 948.5,-196.75"/>
<path fill="none" stroke="#000000" stroke-width="2" d="M770.62,-235C853.13,-233.83 869.64,-197.58 948.5,-198.75"/>
</g>
<!-- W2&#45;&#45;X3 -->
<g id="edge22" class="edge">
<title>W2:e&#45;&#45;X3:w</title>
<path fill="none" stroke="#000000" stroke-width="2" d="M770.62,-183C848.81,-183.3 868.21,-171.3 948.5,-171"/>
<path fill="none" stroke="#000000" stroke-width="2" d="M770.62,-185C849.86,-185 869.26,-173 948.5,-173"/>
<path fill="none" stroke="#000000" stroke-width="2" d="M770.62,-187C850.91,-186.7 870.31,-174.7 948.5,-175"/>
</g>
<!-- W2&#45;&#45;X3 -->
<g id="edge23" class="edge">
<title>W2:e&#45;&#45;X3:w</title>
<path fill="none" stroke="#000000" stroke-width="2" d="M770.62,-135C850.94,-135.31 870.33,-147.56 948.5,-147.25"/>
<path fill="none" stroke="#000000" stroke-width="2" d="M770.62,-137C849.87,-137 869.26,-149.25 948.5,-149.25"/>
<path fill="none" stroke="#000000" stroke-width="2" d="M770.62,-139C848.8,-138.69 868.19,-150.94 948.5,-151.25"/>
</g>
<!-- W2&#45;&#45;X3 -->
<g id="edge24" class="edge">
<title>W2:e&#45;&#45;X3:w</title>
<path fill="none" stroke="#000000" stroke-width="2" d="M770.62,-87C853.15,-88.18 869.62,-124.68 948.5,-123.5"/>
<path fill="none" stroke="#ff0000" stroke-width="2" d="M770.62,-89C851.33,-89 867.8,-125.5 948.5,-125.5"/>
<path fill="none" stroke="#000000" stroke-width="2" d="M770.62,-91C849.51,-89.82 865.98,-126.32 948.5,-127.5"/>
</g>
</g>
</svg>
