<?xml version="1.0" encoding="UTF-8" standalone="no"?>
<!DOCTYPE svg PUBLIC "-//W3C//DTD SVG 1.1//EN"
 "http://www.w3.org/Graphics/SVG/1.1/DTD/svg11.dtd">
<!-- Generated by graphviz version 2.49.1 (20210923.0004)
 -->
<!-- Pages: 1 -->
<svg width="1551pt" height="215pt"
 viewBox="0.00 0.00 1551.00 215.00" xmlns="http://www.w3.org/2000/svg" xmlns:xlink="http://www.w3.org/1999/xlink">
<g id="graph0" class="graph" transform="scale(1 1) rotate(0) translate(4 211)">
<polygon fill="#ffffff" stroke="transparent" points="-4,4 -4,-211 1547,-211 1547,4 -4,4"/>
<!-- X1 -->
<g id="node1" class="node">
<title>X1</title>
<polygon fill="#ffffff" stroke="black" points="175,-175 0,-175 0,-14 175,-14 175,-175"/>
<polygon fill="none" stroke="black" points="0.5,-151.5 0.5,-174.5 175.5,-174.5 175.5,-151.5 0.5,-151.5"/>
<text text-anchor="start" x="79" y="-159.3" font-family="arial" font-size="14.00">X1</text>
<polygon fill="none" stroke="black" points="0.5,-128.5 0.5,-151.5 96.5,-151.5 96.5,-128.5 0.5,-128.5"/>
<text text-anchor="start" x="4.5" y="-136.3" font-family="arial" font-size="14.00">Molex KK 254</text>
<polygon fill="none" stroke="black" points="96.5,-128.5 96.5,-151.5 135.5,-151.5 135.5,-128.5 96.5,-128.5"/>
<text text-anchor="start" x="100.5" y="-136.3" font-family="arial" font-size="14.00">male</text>
<polygon fill="none" stroke="black" points="135.5,-128.5 135.5,-151.5 175.5,-151.5 175.5,-128.5 135.5,-128.5"/>
<text text-anchor="start" x="139.5" y="-136.3" font-family="arial" font-size="14.00">4&#45;pin</text>
<polygon fill="none" stroke="black" points="0.5,-105.5 0.5,-128.5 100.5,-128.5 100.5,-105.5 0.5,-105.5"/>
<text text-anchor="start" x="34.5" y="-113.3" font-family="arial" font-size="14.00">GND</text>
<polygon fill="none" stroke="black" points="100.5,-105.5 100.5,-128.5 175.5,-128.5 175.5,-105.5 100.5,-105.5"/>
<text text-anchor="start" x="134" y="-113.3" font-family="arial" font-size="14.00">1</text>
<polygon fill="none" stroke="black" points="0.5,-82.5 0.5,-105.5 100.5,-105.5 100.5,-82.5 0.5,-82.5"/>
<text text-anchor="start" x="35.5" y="-90.3" font-family="arial" font-size="14.00">VCC</text>
<polygon fill="none" stroke="black" points="100.5,-82.5 100.5,-105.5 175.5,-105.5 175.5,-82.5 100.5,-82.5"/>
<text text-anchor="start" x="134" y="-90.3" font-family="arial" font-size="14.00">2</text>
<polygon fill="none" stroke="black" points="0.5,-59.5 0.5,-82.5 100.5,-82.5 100.5,-59.5 0.5,-59.5"/>
<text text-anchor="start" x="36.5" y="-67.3" font-family="arial" font-size="14.00">SCL</text>
<polygon fill="none" stroke="black" points="100.5,-59.5 100.5,-82.5 175.5,-82.5 175.5,-59.5 100.5,-59.5"/>
<text text-anchor="start" x="134" y="-67.3" font-family="arial" font-size="14.00">3</text>
<polygon fill="none" stroke="black" points="0.5,-36.5 0.5,-59.5 100.5,-59.5 100.5,-36.5 0.5,-36.5"/>
<text text-anchor="start" x="36" y="-44.3" font-family="arial" font-size="14.00">SDA</text>
<polygon fill="none" stroke="black" points="100.5,-36.5 100.5,-59.5 175.5,-59.5 175.5,-36.5 100.5,-36.5"/>
<text text-anchor="start" x="134" y="-44.3" font-family="arial" font-size="14.00">4</text>
<polygon fill="none" stroke="black" points="0.5,-13.5 0.5,-36.5 175.5,-36.5 175.5,-13.5 0.5,-13.5"/>
<text text-anchor="start" x="34" y="-21.3" font-family="arial" font-size="14.00">to microcontroller</text>
</g>
<!-- W1 -->
<g id="node4" class="node">
<title>W1</title>
<polygon fill="#ffffff" stroke="black" points="528,-207 319,-207 319,0 528,0 528,-207"/>
<polygon fill="none" stroke="black" points="319.5,-183.5 319.5,-206.5 528.5,-206.5 528.5,-183.5 319.5,-183.5"/>
<text text-anchor="start" x="413.5" y="-191.3" font-family="arial" font-size="14.00">W1</text>
<polygon fill="none" stroke="black" points="319.5,-160.5 319.5,-183.5 370.5,-183.5 370.5,-160.5 319.5,-160.5"/>
<text text-anchor="start" x="337.5" y="-168.3" font-family="arial" font-size="14.00">4x</text>
<polygon fill="none" stroke="black" points="370.5,-160.5 370.5,-183.5 457.5,-183.5 457.5,-160.5 370.5,-160.5"/>
<text text-anchor="start" x="388" y="-168.3" font-family="arial" font-size="14.00">24 AWG</text>
<polygon fill="none" stroke="black" points="457.5,-160.5 457.5,-183.5 528.5,-183.5 528.5,-160.5 457.5,-160.5"/>
<text text-anchor="start" x="475" y="-168.3" font-family="arial" font-size="14.00">0.3 m</text>
<text text-anchor="start" x="351.5" y="-147.3" font-family="arial" font-size="14.00"> </text>
<text text-anchor="start" x="321.5" y="-128.3" font-family="arial" font-size="14.00">X1:1:GND</text>
<text text-anchor="start" x="390.5" y="-128.3" font-family="arial" font-size="14.00"> &#160;&#160;&#160;&#160;1:BN &#160;&#160;&#160;</text>
<text text-anchor="start" x="462.5" y="-128.3" font-family="arial" font-size="14.00">X2:1:GND</text>
<polygon fill="#000000" stroke="transparent" points="319.5,-120.5 319.5,-122.5 528.5,-122.5 528.5,-120.5 319.5,-120.5"/>
<polygon fill="#895956" stroke="transparent" points="319.5,-118.5 319.5,-120.5 528.5,-120.5 528.5,-118.5 319.5,-118.5"/>
<polygon fill="#000000" stroke="transparent" points="319.5,-116.5 319.5,-118.5 528.5,-118.5 528.5,-116.5 319.5,-116.5"/>
<text text-anchor="start" x="322" y="-103.3" font-family="arial" font-size="14.00">X1:2:VCC</text>
<text text-anchor="start" x="390.5" y="-103.3" font-family="arial" font-size="14.00"> &#160;&#160;&#160;&#160;2:RD &#160;&#160;&#160;</text>
<text text-anchor="start" x="463" y="-103.3" font-family="arial" font-size="14.00">X2:2:VCC</text>
<polygon fill="#000000" stroke="transparent" points="319.5,-95.5 319.5,-97.5 528.5,-97.5 528.5,-95.5 319.5,-95.5"/>
<polygon fill="#ff0000" stroke="transparent" points="319.5,-93.5 319.5,-95.5 528.5,-95.5 528.5,-93.5 319.5,-93.5"/>
<polygon fill="#000000" stroke="transparent" points="319.5,-91.5 319.5,-93.5 528.5,-93.5 528.5,-91.5 319.5,-91.5"/>
<text text-anchor="start" x="323.5" y="-78.3" font-family="arial" font-size="14.00">X1:3:SCL</text>
<text text-anchor="start" x="389.5" y="-78.3" font-family="arial" font-size="14.00"> &#160;&#160;&#160;&#160;3:OG &#160;&#160;&#160;</text>
<text text-anchor="start" x="464.5" y="-78.3" font-family="arial" font-size="14.00">X2:3:SCL</text>
<polygon fill="#000000" stroke="transparent" points="319.5,-70.5 319.5,-72.5 528.5,-72.5 528.5,-70.5 319.5,-70.5"/>
<polygon fill="#ff8000" stroke="transparent" points="319.5,-68.5 319.5,-70.5 528.5,-70.5 528.5,-68.5 319.5,-68.5"/>
<polygon fill="#000000" stroke="transparent" points="319.5,-66.5 319.5,-68.5 528.5,-68.5 528.5,-66.5 319.5,-66.5"/>
<text text-anchor="start" x="322.5" y="-53.3" font-family="arial" font-size="14.00">X1:4:SDA</text>
<text text-anchor="start" x="391" y="-53.3" font-family="arial" font-size="14.00"> &#160;&#160;&#160;&#160;4:YE &#160;&#160;&#160;</text>
<text text-anchor="start" x="463.5" y="-53.3" font-family="arial" font-size="14.00">X2:4:SDA</text>
<polygon fill="#000000" stroke="transparent" points="319.5,-45.5 319.5,-47.5 528.5,-47.5 528.5,-45.5 319.5,-45.5"/>
<polygon fill="#ffff00" stroke="transparent" points="319.5,-43.5 319.5,-45.5 528.5,-45.5 528.5,-43.5 319.5,-43.5"/>
<polygon fill="#000000" stroke="transparent" points="319.5,-41.5 319.5,-43.5 528.5,-43.5 528.5,-41.5 319.5,-41.5"/>
<text text-anchor="start" x="351.5" y="-28.3" font-family="arial" font-size="14.00"> </text>
<polygon fill="none" stroke="black" points="319.5,0.5 319.5,-22.5 528.5,-22.5 528.5,0.5 319.5,0.5"/>
<text text-anchor="start" x="348.5" y="-7.3" font-family="arial" font-size="14.00">This cable is a bit longer</text>
</g>
<!-- X1&#45;&#45;W1 -->
<g id="edge1" class="edge">
<title>X1:e&#45;&#45;W1:w</title>
<path fill="none" stroke="#000000" stroke-width="2" d="M175,-115.5C239.25,-115.52 255.24,-117.52 319,-117.5"/>
<path fill="none" stroke="#895956" stroke-width="2" d="M175,-117.5C239.01,-117.5 254.99,-119.5 319,-119.5"/>
<path fill="none" stroke="#000000" stroke-width="2" d="M175,-119.5C238.76,-119.48 254.75,-121.48 319,-121.5"/>
</g>
<!-- X1&#45;&#45;W1 -->
<g id="edge3" class="edge">
<title>X1:e&#45;&#45;W1:w</title>
<path fill="none" stroke="#000000" stroke-width="2" d="M175,-91.5C239.13,-91.5 255.12,-92.5 319,-92.5"/>
<path fill="none" stroke="#ff0000" stroke-width="2" d="M175,-93.5C239,-93.5 255,-94.5 319,-94.5"/>
<path fill="none" stroke="#000000" stroke-width="2" d="M175,-95.5C238.88,-95.5 254.87,-96.5 319,-96.5"/>
</g>
<!-- X1&#45;&#45;W1 -->
<g id="edge5" class="edge">
<title>X1:e&#45;&#45;W1:w</title>
<path fill="none" stroke="#000000" stroke-width="2" d="M175,-68.5C238.88,-68.5 254.87,-67.5 319,-67.5"/>
<path fill="none" stroke="#ff8000" stroke-width="2" d="M175,-70.5C239,-70.5 255,-69.5 319,-69.5"/>
<path fill="none" stroke="#000000" stroke-width="2" d="M175,-72.5C239.13,-72.5 255.12,-71.5 319,-71.5"/>
</g>
<!-- X1&#45;&#45;W1 -->
<g id="edge7" class="edge">
<title>X1:e&#45;&#45;W1:w</title>
<path fill="none" stroke="#000000" stroke-width="2" d="M175,-45.5C238.64,-45.53 254.62,-42.53 319,-42.5"/>
<path fill="none" stroke="#ffff00" stroke-width="2" d="M175,-47.5C239.01,-47.5 254.99,-44.5 319,-44.5"/>
<path fill="none" stroke="#000000" stroke-width="2" d="M175,-49.5C239.38,-49.47 255.36,-46.47 319,-46.5"/>
</g>
<!-- X2 -->
<g id="node2" class="node">
<title>X2</title>
<polygon fill="#ffffff" stroke="black" points="859,-175 672,-175 672,-14 859,-14 859,-175"/>
<polygon fill="none" stroke="black" points="672.5,-151.5 672.5,-174.5 859.5,-174.5 859.5,-151.5 672.5,-151.5"/>
<text text-anchor="start" x="757" y="-159.3" font-family="arial" font-size="14.00">X2</text>
<polygon fill="none" stroke="black" points="672.5,-128.5 672.5,-151.5 768.5,-151.5 768.5,-128.5 672.5,-128.5"/>
<text text-anchor="start" x="676.5" y="-136.3" font-family="arial" font-size="14.00">Molex KK 254</text>
<polygon fill="none" stroke="black" points="768.5,-128.5 768.5,-151.5 819.5,-151.5 819.5,-128.5 768.5,-128.5"/>
<text text-anchor="start" x="772.5" y="-136.3" font-family="arial" font-size="14.00">female</text>
<polygon fill="none" stroke="black" points="819.5,-128.5 819.5,-151.5 859.5,-151.5 859.5,-128.5 819.5,-128.5"/>
<text text-anchor="start" x="823.5" y="-136.3" font-family="arial" font-size="14.00">4&#45;pin</text>
<polygon fill="none" stroke="black" points="672.5,-105.5 672.5,-128.5 727.5,-128.5 727.5,-105.5 672.5,-105.5"/>
<text text-anchor="start" x="696" y="-113.3" font-family="arial" font-size="14.00">1</text>
<polygon fill="none" stroke="black" points="727.5,-105.5 727.5,-128.5 805.5,-128.5 805.5,-105.5 727.5,-105.5"/>
<text text-anchor="start" x="750.5" y="-113.3" font-family="arial" font-size="14.00">GND</text>
<polygon fill="none" stroke="black" points="805.5,-105.5 805.5,-128.5 859.5,-128.5 859.5,-105.5 805.5,-105.5"/>
<text text-anchor="start" x="828.5" y="-113.3" font-family="arial" font-size="14.00">1</text>
<polygon fill="none" stroke="black" points="672.5,-82.5 672.5,-105.5 727.5,-105.5 727.5,-82.5 672.5,-82.5"/>
<text text-anchor="start" x="696" y="-90.3" font-family="arial" font-size="14.00">2</text>
<polygon fill="none" stroke="black" points="727.5,-82.5 727.5,-105.5 805.5,-105.5 805.5,-82.5 727.5,-82.5"/>
<text text-anchor="start" x="751.5" y="-90.3" font-family="arial" font-size="14.00">VCC</text>
<polygon fill="none" stroke="black" points="805.5,-82.5 805.5,-105.5 859.5,-105.5 859.5,-82.5 805.5,-82.5"/>
<text text-anchor="start" x="828.5" y="-90.3" font-family="arial" font-size="14.00">2</text>
<polygon fill="none" stroke="black" points="672.5,-59.5 672.5,-82.5 727.5,-82.5 727.5,-59.5 672.5,-59.5"/>
<text text-anchor="start" x="696" y="-67.3" font-family="arial" font-size="14.00">3</text>
<polygon fill="none" stroke="black" points="727.5,-59.5 727.5,-82.5 805.5,-82.5 805.5,-59.5 727.5,-59.5"/>
<text text-anchor="start" x="752.5" y="-67.3" font-family="arial" font-size="14.00">SCL</text>
<polygon fill="none" stroke="black" points="805.5,-59.5 805.5,-82.5 859.5,-82.5 859.5,-59.5 805.5,-59.5"/>
<text text-anchor="start" x="828.5" y="-67.3" font-family="arial" font-size="14.00">3</text>
<polygon fill="none" stroke="black" points="672.5,-36.5 672.5,-59.5 727.5,-59.5 727.5,-36.5 672.5,-36.5"/>
<text text-anchor="start" x="696" y="-44.3" font-family="arial" font-size="14.00">4</text>
<polygon fill="none" stroke="black" points="727.5,-36.5 727.5,-59.5 805.5,-59.5 805.5,-36.5 727.5,-36.5"/>
<text text-anchor="start" x="752" y="-44.3" font-family="arial" font-size="14.00">SDA</text>
<polygon fill="none" stroke="black" points="805.5,-36.5 805.5,-59.5 859.5,-59.5 859.5,-36.5 805.5,-36.5"/>
<text text-anchor="start" x="828.5" y="-44.3" font-family="arial" font-size="14.00">4</text>
<polygon fill="none" stroke="black" points="672.5,-13.5 672.5,-36.5 859.5,-36.5 859.5,-13.5 672.5,-13.5"/>
<text text-anchor="start" x="713.5" y="-21.3" font-family="arial" font-size="14.00">to accelerometer</text>
</g>
<!-- W2 -->
<g id="node5" class="node">
<title>W2</title>
<polygon fill="#ffffff" stroke="black" points="1212,-207 1003,-207 1003,0 1212,0 1212,-207"/>
<polygon fill="none" stroke="black" points="1003.5,-183.5 1003.5,-206.5 1212.5,-206.5 1212.5,-183.5 1003.5,-183.5"/>
<text text-anchor="start" x="1097.5" y="-191.3" font-family="arial" font-size="14.00">W2</text>
<polygon fill="none" stroke="black" points="1003.5,-160.5 1003.5,-183.5 1054.5,-183.5 1054.5,-160.5 1003.5,-160.5"/>
<text text-anchor="start" x="1021.5" y="-168.3" font-family="arial" font-size="14.00">4x</text>
<polygon fill="none" stroke="black" points="1054.5,-160.5 1054.5,-183.5 1141.5,-183.5 1141.5,-160.5 1054.5,-160.5"/>
<text text-anchor="start" x="1072" y="-168.3" font-family="arial" font-size="14.00">24 AWG</text>
<polygon fill="none" stroke="black" points="1141.5,-160.5 1141.5,-183.5 1212.5,-183.5 1212.5,-160.5 1141.5,-160.5"/>
<text text-anchor="start" x="1159" y="-168.3" font-family="arial" font-size="14.00">0.1 m</text>
<text text-anchor="start" x="1035.5" y="-147.3" font-family="arial" font-size="14.00"> </text>
<text text-anchor="start" x="1005.5" y="-128.3" font-family="arial" font-size="14.00">X2:1:GND</text>
<text text-anchor="start" x="1074.5" y="-128.3" font-family="arial" font-size="14.00"> &#160;&#160;&#160;&#160;1:BN &#160;&#160;&#160;</text>
<text text-anchor="start" x="1146.5" y="-128.3" font-family="arial" font-size="14.00">X3:1:GND</text>
<polygon fill="#000000" stroke="transparent" points="1003.5,-120.5 1003.5,-122.5 1212.5,-122.5 1212.5,-120.5 1003.5,-120.5"/>
<polygon fill="#895956" stroke="transparent" points="1003.5,-118.5 1003.5,-120.5 1212.5,-120.5 1212.5,-118.5 1003.5,-118.5"/>
<polygon fill="#000000" stroke="transparent" points="1003.5,-116.5 1003.5,-118.5 1212.5,-118.5 1212.5,-116.5 1003.5,-116.5"/>
<text text-anchor="start" x="1006" y="-103.3" font-family="arial" font-size="14.00">X2:2:VCC</text>
<text text-anchor="start" x="1074.5" y="-103.3" font-family="arial" font-size="14.00"> &#160;&#160;&#160;&#160;2:RD &#160;&#160;&#160;</text>
<text text-anchor="start" x="1147" y="-103.3" font-family="arial" font-size="14.00">X3:2:VCC</text>
<polygon fill="#000000" stroke="transparent" points="1003.5,-95.5 1003.5,-97.5 1212.5,-97.5 1212.5,-95.5 1003.5,-95.5"/>
<polygon fill="#ff0000" stroke="transparent" points="1003.5,-93.5 1003.5,-95.5 1212.5,-95.5 1212.5,-93.5 1003.5,-93.5"/>
<polygon fill="#000000" stroke="transparent" points="1003.5,-91.5 1003.5,-93.5 1212.5,-93.5 1212.5,-91.5 1003.5,-91.5"/>
<text text-anchor="start" x="1007.5" y="-78.3" font-family="arial" font-size="14.00">X2:3:SCL</text>
<text text-anchor="start" x="1073.5" y="-78.3" font-family="arial" font-size="14.00"> &#160;&#160;&#160;&#160;3:OG &#160;&#160;&#160;</text>
<text text-anchor="start" x="1148.5" y="-78.3" font-family="arial" font-size="14.00">X3:3:SCL</text>
<polygon fill="#000000" stroke="transparent" points="1003.5,-70.5 1003.5,-72.5 1212.5,-72.5 1212.5,-70.5 1003.5,-70.5"/>
<polygon fill="#ff8000" stroke="transparent" points="1003.5,-68.5 1003.5,-70.5 1212.5,-70.5 1212.5,-68.5 1003.5,-68.5"/>
<polygon fill="#000000" stroke="transparent" points="1003.5,-66.5 1003.5,-68.5 1212.5,-68.5 1212.5,-66.5 1003.5,-66.5"/>
<text text-anchor="start" x="1006.5" y="-53.3" font-family="arial" font-size="14.00">X2:4:SDA</text>
<text text-anchor="start" x="1075" y="-53.3" font-family="arial" font-size="14.00"> &#160;&#160;&#160;&#160;4:YE &#160;&#160;&#160;</text>
<text text-anchor="start" x="1147.5" y="-53.3" font-family="arial" font-size="14.00">X3:4:SDA</text>
<polygon fill="#000000" stroke="transparent" points="1003.5,-45.5 1003.5,-47.5 1212.5,-47.5 1212.5,-45.5 1003.5,-45.5"/>
<polygon fill="#ffff00" stroke="transparent" points="1003.5,-43.5 1003.5,-45.5 1212.5,-45.5 1212.5,-43.5 1003.5,-43.5"/>
<polygon fill="#000000" stroke="transparent" points="1003.5,-41.5 1003.5,-43.5 1212.5,-43.5 1212.5,-41.5 1003.5,-41.5"/>
<text text-anchor="start" x="1035.5" y="-28.3" font-family="arial" font-size="14.00"> </text>
<polygon fill="none" stroke="black" points="1003.5,0.5 1003.5,-22.5 1212.5,-22.5 1212.5,0.5 1003.5,0.5"/>
<text text-anchor="start" x="1030" y="-7.3" font-family="arial" font-size="14.00">This cable is a bit shorter</text>
</g>
<!-- X2&#45;&#45;W2 -->
<g id="edge9" class="edge">
<title>X2:e&#45;&#45;W2:w</title>
<path fill="none" stroke="#000000" stroke-width="2" d="M859,-115.5C923.25,-115.52 939.24,-117.52 1003,-117.5"/>
<path fill="none" stroke="#895956" stroke-width="2" d="M859,-117.5C923.01,-117.5 938.99,-119.5 1003,-119.5"/>
<path fill="none" stroke="#000000" stroke-width="2" d="M859,-119.5C922.76,-119.48 938.75,-121.48 1003,-121.5"/>
</g>
<!-- X2&#45;&#45;W2 -->
<g id="edge11" class="edge">
<title>X2:e&#45;&#45;W2:w</title>
<path fill="none" stroke="#000000" stroke-width="2" d="M859,-91.5C923.13,-91.5 939.12,-92.5 1003,-92.5"/>
<path fill="none" stroke="#ff0000" stroke-width="2" d="M859,-93.5C923,-93.5 939,-94.5 1003,-94.5"/>
<path fill="none" stroke="#000000" stroke-width="2" d="M859,-95.5C922.88,-95.5 938.87,-96.5 1003,-96.5"/>
</g>
<!-- X2&#45;&#45;W2 -->
<g id="edge13" class="edge">
<title>X2:e&#45;&#45;W2:w</title>
<path fill="none" stroke="#000000" stroke-width="2" d="M859,-68.5C922.88,-68.5 938.87,-67.5 1003,-67.5"/>
<path fill="none" stroke="#ff8000" stroke-width="2" d="M859,-70.5C923,-70.5 939,-69.5 1003,-69.5"/>
<path fill="none" stroke="#000000" stroke-width="2" d="M859,-72.5C923.13,-72.5 939.12,-71.5 1003,-71.5"/>
</g>
<!-- X2&#45;&#45;W2 -->
<g id="edge15" class="edge">
<title>X2:e&#45;&#45;W2:w</title>
<path fill="none" stroke="#000000" stroke-width="2" d="M859,-45.5C922.64,-45.53 938.62,-42.53 1003,-42.5"/>
<path fill="none" stroke="#ffff00" stroke-width="2" d="M859,-47.5C923.01,-47.5 938.99,-44.5 1003,-44.5"/>
<path fill="none" stroke="#000000" stroke-width="2" d="M859,-49.5C923.38,-49.47 939.36,-46.47 1003,-46.5"/>
</g>
<!-- X3 -->
<g id="node3" class="node">
<title>X3</title>
<polygon fill="#ffffff" stroke="black" points="1543,-175 1356,-175 1356,-14 1543,-14 1543,-175"/>
<polygon fill="none" stroke="black" points="1356.5,-151.5 1356.5,-174.5 1543.5,-174.5 1543.5,-151.5 1356.5,-151.5"/>
<text text-anchor="start" x="1441" y="-159.3" font-family="arial" font-size="14.00">X3</text>
<polygon fill="none" stroke="black" points="1356.5,-128.5 1356.5,-151.5 1452.5,-151.5 1452.5,-128.5 1356.5,-128.5"/>
<text text-anchor="start" x="1360.5" y="-136.3" font-family="arial" font-size="14.00">Molex KK 254</text>
<polygon fill="none" stroke="black" points="1452.5,-128.5 1452.5,-151.5 1503.5,-151.5 1503.5,-128.5 1452.5,-128.5"/>
<text text-anchor="start" x="1456.5" y="-136.3" font-family="arial" font-size="14.00">female</text>
<polygon fill="none" stroke="black" points="1503.5,-128.5 1503.5,-151.5 1543.5,-151.5 1543.5,-128.5 1503.5,-128.5"/>
<text text-anchor="start" x="1507.5" y="-136.3" font-family="arial" font-size="14.00">4&#45;pin</text>
<polygon fill="none" stroke="black" points="1356.5,-105.5 1356.5,-128.5 1438.5,-128.5 1438.5,-105.5 1356.5,-105.5"/>
<text text-anchor="start" x="1393.5" y="-113.3" font-family="arial" font-size="14.00">1</text>
<polygon fill="none" stroke="black" points="1438.5,-105.5 1438.5,-128.5 1543.5,-128.5 1543.5,-105.5 1438.5,-105.5"/>
<text text-anchor="start" x="1475" y="-113.3" font-family="arial" font-size="14.00">GND</text>
<polygon fill="none" stroke="black" points="1356.5,-82.5 1356.5,-105.5 1438.5,-105.5 1438.5,-82.5 1356.5,-82.5"/>
<text text-anchor="start" x="1393.5" y="-90.3" font-family="arial" font-size="14.00">2</text>
<polygon fill="none" stroke="black" points="1438.5,-82.5 1438.5,-105.5 1543.5,-105.5 1543.5,-82.5 1438.5,-82.5"/>
<text text-anchor="start" x="1476" y="-90.3" font-family="arial" font-size="14.00">VCC</text>
<polygon fill="none" stroke="black" points="1356.5,-59.5 1356.5,-82.5 1438.5,-82.5 1438.5,-59.5 1356.5,-59.5"/>
<text text-anchor="start" x="1393.5" y="-67.3" font-family="arial" font-size="14.00">3</text>
<polygon fill="none" stroke="black" points="1438.5,-59.5 1438.5,-82.5 1543.5,-82.5 1543.5,-59.5 1438.5,-59.5"/>
<text text-anchor="start" x="1477" y="-67.3" font-family="arial" font-size="14.00">SCL</text>
<polygon fill="none" stroke="black" points="1356.5,-36.5 1356.5,-59.5 1438.5,-59.5 1438.5,-36.5 1356.5,-36.5"/>
<text text-anchor="start" x="1393.5" y="-44.3" font-family="arial" font-size="14.00">4</text>
<polygon fill="none" stroke="black" points="1438.5,-36.5 1438.5,-59.5 1543.5,-59.5 1543.5,-36.5 1438.5,-36.5"/>
<text text-anchor="start" x="1476.5" y="-44.3" font-family="arial" font-size="14.00">SDA</text>
<polygon fill="none" stroke="black" points="1356.5,-13.5 1356.5,-36.5 1543.5,-36.5 1543.5,-13.5 1356.5,-13.5"/>
<text text-anchor="start" x="1381.5" y="-21.3" font-family="arial" font-size="14.00">to temperature sensor</text>
</g>
<!-- W1&#45;&#45;X2 -->
<g id="edge2" class="edge">
<title>W1:e&#45;&#45;X2:w</title>
<path fill="none" stroke="#000000" stroke-width="2" d="M528,-117.5C591.76,-117.52 607.75,-115.52 672,-115.5"/>
<path fill="none" stroke="#895956" stroke-width="2" d="M528,-119.5C592.01,-119.5 607.99,-117.5 672,-117.5"/>
<path fill="none" stroke="#000000" stroke-width="2" d="M528,-121.5C592.25,-121.48 608.24,-119.48 672,-119.5"/>
</g>
<!-- W1&#45;&#45;X2 -->
<g id="edge4" class="edge">
<title>W1:e&#45;&#45;X2:w</title>
<path fill="none" stroke="#000000" stroke-width="2" d="M528,-92.5C591.88,-92.5 607.87,-91.5 672,-91.5"/>
<path fill="none" stroke="#ff0000" stroke-width="2" d="M528,-94.5C592,-94.5 608,-93.5 672,-93.5"/>
<path fill="none" stroke="#000000" stroke-width="2" d="M528,-96.5C592.13,-96.5 608.12,-95.5 672,-95.5"/>
</g>
<!-- W1&#45;&#45;X2 -->
<g id="edge6" class="edge">
<title>W1:e&#45;&#45;X2:w</title>
<path fill="none" stroke="#000000" stroke-width="2" d="M528,-67.5C592.13,-67.5 608.12,-68.5 672,-68.5"/>
<path fill="none" stroke="#ff8000" stroke-width="2" d="M528,-69.5C592,-69.5 608,-70.5 672,-70.5"/>
<path fill="none" stroke="#000000" stroke-width="2" d="M528,-71.5C591.88,-71.5 607.87,-72.5 672,-72.5"/>
</g>
<!-- W1&#45;&#45;X2 -->
<g id="edge8" class="edge">
<title>W1:e&#45;&#45;X2:w</title>
<path fill="none" stroke="#000000" stroke-width="2" d="M528,-42.5C592.38,-42.53 608.36,-45.53 672,-45.5"/>
<path fill="none" stroke="#ffff00" stroke-width="2" d="M528,-44.5C592.01,-44.5 607.99,-47.5 672,-47.5"/>
<path fill="none" stroke="#000000" stroke-width="2" d="M528,-46.5C591.64,-46.47 607.62,-49.47 672,-49.5"/>
</g>
<!-- W2&#45;&#45;X3 -->
<g id="edge10" class="edge">
<title>W2:e&#45;&#45;X3:w</title>
<path fill="none" stroke="#000000" stroke-width="2" d="M1212,-117.5C1275.76,-117.52 1291.75,-115.52 1356,-115.5"/>
<path fill="none" stroke="#895956" stroke-width="2" d="M1212,-119.5C1276.01,-119.5 1291.99,-117.5 1356,-117.5"/>
<path fill="none" stroke="#000000" stroke-width="2" d="M1212,-121.5C1276.25,-121.48 1292.24,-119.48 1356,-119.5"/>
</g>
<!-- W2&#45;&#45;X3 -->
<g id="edge12" class="edge">
<title>W2:e&#45;&#45;X3:w</title>
<path fill="none" stroke="#000000" stroke-width="2" d="M1212,-92.5C1275.88,-92.5 1291.87,-91.5 1356,-91.5"/>
<path fill="none" stroke="#ff0000" stroke-width="2" d="M1212,-94.5C1276,-94.5 1292,-93.5 1356,-93.5"/>
<path fill="none" stroke="#000000" stroke-width="2" d="M1212,-96.5C1276.13,-96.5 1292.12,-95.5 1356,-95.5"/>
</g>
<!-- W2&#45;&#45;X3 -->
<g id="edge14" class="edge">
<title>W2:e&#45;&#45;X3:w</title>
<path fill="none" stroke="#000000" stroke-width="2" d="M1212,-67.5C1276.13,-67.5 1292.12,-68.5 1356,-68.5"/>
<path fill="none" stroke="#ff8000" stroke-width="2" d="M1212,-69.5C1276,-69.5 1292,-70.5 1356,-70.5"/>
<path fill="none" stroke="#000000" stroke-width="2" d="M1212,-71.5C1275.88,-71.5 1291.87,-72.5 1356,-72.5"/>
</g>
<!-- W2&#45;&#45;X3 -->
<g id="edge16" class="edge">
<title>W2:e&#45;&#45;X3:w</title>
<path fill="none" stroke="#000000" stroke-width="2" d="M1212,-42.5C1276.38,-42.53 1292.36,-45.53 1356,-45.5"/>
<path fill="none" stroke="#ffff00" stroke-width="2" d="M1212,-44.5C1276.01,-44.5 1291.99,-47.5 1356,-47.5"/>
<path fill="none" stroke="#000000" stroke-width="2" d="M1212,-46.5C1275.64,-46.47 1291.62,-49.47 1356,-49.5"/>
</g>
</g>
</svg>
