<?xml version="1.0" encoding="UTF-8" standalone="no"?>
<!DOCTYPE svg PUBLIC "-//W3C//DTD SVG 1.1//EN"
 "http://www.w3.org/Graphics/SVG/1.1/DTD/svg11.dtd">
<!-- Generated by graphviz version 11.0.0 (20240428.1522)
 -->
<!-- Pages: 1 -->
<svg width="1307pt" height="656pt"
 viewBox="0.00 0.00 1307.23 656.25" xmlns="http://www.w3.org/2000/svg" xmlns:xlink="http://www.w3.org/1999/xlink">
<g id="graph0" class="graph" transform="scale(1 1) rotate(0) translate(4 652.25)">
<polygon fill="#ffffff" stroke="none" points="-4,4 -4,-652.25 1303.23,-652.25 1303.23,4 -4,4"/>
<!-- X1 -->
<g id="node1" class="node">
<title>X1</title>
<polygon fill="#ffffff" stroke="black" points="307,-470.25 0,-470.25 0,-208.75 307,-208.75 307,-470.25"/>
<polygon fill="#ffffff" stroke="none" points="0,-208.75 0,-470.25 307,-470.25 307,-208.75 0,-208.75"/>
<polygon fill="none" stroke="black" points="0,-445.75 0,-470.25 307,-470.25 307,-445.75 0,-445.75"/>
<text text-anchor="start" x="144.5" y="-452.95" font-family="arial" font-size="14.00">X1</text>
<polygon fill="none" stroke="black" points="0,-421.25 0,-445.75 154.63,-445.75 154.63,-421.25 0,-421.25"/>
<text text-anchor="start" x="21.81" y="-428.45" font-family="arial" font-size="14.00">Molex: 22013047</text>
<polygon fill="none" stroke="black" points="154.63,-421.25 154.63,-445.75 307,-445.75 307,-421.25 154.63,-421.25"/>
<text text-anchor="start" x="176.44" y="-428.45" font-family="arial" font-size="14.00">Digimouse: 1234</text>
<polygon fill="none" stroke="black" points="0,-396.75 0,-421.25 136.83,-421.25 136.83,-396.75 0,-396.75"/>
<text text-anchor="start" x="23.79" y="-403.95" font-family="arial" font-size="14.00">Molex KK 254</text>
<polygon fill="none" stroke="black" points="136.83,-396.75 136.83,-421.25 227.92,-421.25 227.92,-396.75 136.83,-396.75"/>
<text text-anchor="start" x="160.63" y="-403.95" font-family="arial" font-size="14.00">female</text>
<polygon fill="none" stroke="black" points="227.92,-396.75 227.92,-421.25 307,-421.25 307,-396.75 227.92,-396.75"/>
<text text-anchor="start" x="251.71" y="-403.95" font-family="arial" font-size="14.00">4&#45;pin</text>
<polygon fill="none" stroke="black" points="0,-372.25 0,-396.75 307,-396.75 307,-372.25 0,-372.25"/>
<text text-anchor="start" x="149.38" y="-379.45" font-family="arial" font-size="14.00">1</text>
<polygon fill="none" stroke="black" points="0,-347.75 0,-372.25 307,-372.25 307,-347.75 0,-347.75"/>
<text text-anchor="start" x="149.38" y="-354.95" font-family="arial" font-size="14.00">2</text>
<polygon fill="none" stroke="black" points="0,-323.25 0,-347.75 307,-347.75 307,-323.25 0,-323.25"/>
<text text-anchor="start" x="149.38" y="-330.45" font-family="arial" font-size="14.00">3</text>
<polygon fill="none" stroke="black" points="0,-298.75 0,-323.25 307,-323.25 307,-298.75 0,-298.75"/>
<text text-anchor="start" x="149.38" y="-305.95" font-family="arial" font-size="14.00">4</text>
<text text-anchor="start" x="9.88" y="-281.45" font-family="arial" font-size="14.00">4</text>
<text text-anchor="start" x="23.63" y="-281.45" font-family="arial" font-size="14.00">x</text>
<text text-anchor="start" x="36" y="-281.45" font-family="arial" font-size="14.00">Crimp, Molex KK 254, 22&#45;30 AWG</text>
<text text-anchor="start" x="36" y="-259.45" font-family="arial" font-size="14.00">Molex: 08500030</text>
<text text-anchor="start" x="9.88" y="-237.45" font-family="arial" font-size="14.00">1</text>
<text text-anchor="start" x="23.63" y="-237.45" font-family="arial" font-size="14.00">x</text>
<text text-anchor="start" x="36" y="-237.45" font-family="arial" font-size="14.00">Test</text>
<text text-anchor="start" x="35.63" y="-215.45" font-family="arial" font-size="14.00">P/N: ABC, Molex: 45454, Mousikey: 9999</text>
<polygon fill="none" stroke="black" points="0,-208.75 0,-298.75 307,-298.75 307,-208.75 0,-208.75"/>
</g>
<!-- W1 -->
<g id="node2" class="node">
<title>W1</title>
<polygon fill="#ffffff" stroke="black" points="841,-648.25 451,-648.25 451,-430.75 841,-430.75 841,-648.25"/>
<polygon fill="#ffffff" stroke="none" points="451,-430.75 451,-648.25 841,-648.25 841,-430.75 451,-430.75"/>
<polygon fill="none" stroke="black" points="451,-623.75 451,-648.25 841,-648.25 841,-623.75 451,-623.75"/>
<text text-anchor="start" x="634.75" y="-630.95" font-family="arial" font-size="14.00">W1</text>
<polygon fill="none" stroke="black" points="451,-599.25 451,-623.75 528,-623.75 528,-599.25 451,-599.25"/>
<text text-anchor="start" x="455" y="-606.45" font-family="arial" font-size="14.00">P/N: CAB1</text>
<polygon fill="none" stroke="black" points="528,-599.25 528,-623.75 662,-623.75 662,-599.25 528,-599.25"/>
<text text-anchor="start" x="532" y="-606.45" font-family="arial" font-size="14.00">CablesCo: ABC123</text>
<polygon fill="none" stroke="black" points="662,-599.25 662,-623.75 841,-623.75 841,-599.25 662,-599.25"/>
<text text-anchor="start" x="666" y="-606.45" font-family="arial" font-size="14.00">Cables R Us: 999&#45;888&#45;777</text>
<polygon fill="none" stroke="black" points="451,-574.75 451,-599.25 562.75,-599.25 562.75,-574.75 451,-574.75"/>
<text text-anchor="start" x="499.38" y="-581.95" font-family="arial" font-size="14.00">4x</text>
<polygon fill="none" stroke="black" points="562.75,-574.75 562.75,-599.25 720.25,-599.25 720.25,-574.75 562.75,-574.75"/>
<text text-anchor="start" x="611.13" y="-581.95" font-family="arial" font-size="14.00">0.25 mm²</text>
<polygon fill="none" stroke="black" points="720.25,-574.75 720.25,-599.25 841,-599.25 841,-574.75 720.25,-574.75"/>
<text text-anchor="start" x="768.63" y="-581.95" font-family="arial" font-size="14.00">1 m</text>
<text text-anchor="start" x="494.03" y="-559.45" font-family="arial" font-size="14.00"> </text>
<text text-anchor="start" x="453" y="-539.45" font-family="arial" font-size="14.00"> X1:1</text>
<text text-anchor="start" x="568.83" y="-539.45" font-family="arial" font-size="14.00"> </text>
<text text-anchor="start" x="630.25" y="-539.45" font-family="arial" font-size="14.00">1:BN</text>
<text text-anchor="start" x="719.43" y="-539.45" font-family="arial" font-size="14.00"> </text>
<text text-anchor="start" x="805.25" y="-539.45" font-family="arial" font-size="14.00">X2:1 </text>
<polygon fill="#ffffff" stroke="none" points="451,-532.75 451,-534.75 841,-534.75 841,-532.75 451,-532.75"/>
<polygon fill="#ffffff" stroke="none" points="451,-530.75 451,-532.75 841,-532.75 841,-530.75 451,-530.75"/>
<polygon fill="#ffffff" stroke="none" points="451,-528.75 451,-530.75 841,-530.75 841,-528.75 451,-528.75"/>
<text text-anchor="start" x="453" y="-513.45" font-family="arial" font-size="14.00"> X1:2</text>
<text text-anchor="start" x="568.83" y="-513.45" font-family="arial" font-size="14.00"> </text>
<text text-anchor="start" x="629.5" y="-513.45" font-family="arial" font-size="14.00">2:RD</text>
<text text-anchor="start" x="719.43" y="-513.45" font-family="arial" font-size="14.00"> </text>
<text text-anchor="start" x="805.25" y="-513.45" font-family="arial" font-size="14.00">X2:2 </text>
<polygon fill="#ffffff" stroke="none" points="451,-506.75 451,-508.75 841,-508.75 841,-506.75 451,-506.75"/>
<polygon fill="#ffffff" stroke="none" points="451,-504.75 451,-506.75 841,-506.75 841,-504.75 451,-504.75"/>
<polygon fill="#ffffff" stroke="none" points="451,-502.75 451,-504.75 841,-504.75 841,-502.75 451,-502.75"/>
<text text-anchor="start" x="453" y="-487.45" font-family="arial" font-size="14.00"> X1:3</text>
<text text-anchor="start" x="568.83" y="-487.45" font-family="arial" font-size="14.00"> </text>
<text text-anchor="start" x="628.75" y="-487.45" font-family="arial" font-size="14.00">3:OG</text>
<text text-anchor="start" x="719.43" y="-487.45" font-family="arial" font-size="14.00"> </text>
<text text-anchor="start" x="805.25" y="-487.45" font-family="arial" font-size="14.00">X2:3 </text>
<polygon fill="#ffffff" stroke="none" points="451,-480.75 451,-482.75 841,-482.75 841,-480.75 451,-480.75"/>
<polygon fill="#ffffff" stroke="none" points="451,-478.75 451,-480.75 841,-480.75 841,-478.75 451,-478.75"/>
<polygon fill="#ffffff" stroke="none" points="451,-476.75 451,-478.75 841,-478.75 841,-476.75 451,-476.75"/>
<text text-anchor="start" x="453" y="-461.45" font-family="arial" font-size="14.00"> X1:4</text>
<text text-anchor="start" x="568.83" y="-461.45" font-family="arial" font-size="14.00"> </text>
<text text-anchor="start" x="630.63" y="-461.45" font-family="arial" font-size="14.00">4:YE</text>
<text text-anchor="start" x="719.43" y="-461.45" font-family="arial" font-size="14.00"> </text>
<text text-anchor="start" x="805.25" y="-461.45" font-family="arial" font-size="14.00">X2:4 </text>
<polygon fill="#ffffff" stroke="none" points="451,-454.75 451,-456.75 841,-456.75 841,-454.75 451,-454.75"/>
<polygon fill="#ffffff" stroke="none" points="451,-452.75 451,-454.75 841,-454.75 841,-452.75 451,-452.75"/>
<polygon fill="#ffffff" stroke="none" points="451,-450.75 451,-452.75 841,-452.75 841,-450.75 451,-450.75"/>
<text text-anchor="start" x="494.03" y="-435.45" font-family="arial" font-size="14.00"> </text>
</g>
<!-- X1&#45;&#45;W1 -->
<g id="edge1" class="edge">
<title>X1:e&#45;&#45;W1:w</title>
<path fill="none" stroke="#000000" stroke-width="2" d="M307,-382.5C400.47,-385.01 361.39,-532.26 451,-529.75"/>
<path fill="none" stroke="#895956" stroke-width="2" d="M307,-384.5C398.54,-384.5 359.46,-531.75 451,-531.75"/>
<path fill="none" stroke="#000000" stroke-width="2" d="M307,-386.5C396.61,-383.99 357.53,-531.24 451,-533.75"/>
</g>
<!-- X1&#45;&#45;W1 -->
<g id="edge2" class="edge">
<title>X1:e&#45;&#45;W1:w</title>
<path fill="none" stroke="#000000" stroke-width="2" d="M307,-358C400,-360.51 361.88,-506.26 451,-503.75"/>
<path fill="none" stroke="#ff0000" stroke-width="2" d="M307,-360C398.06,-360 359.94,-505.75 451,-505.75"/>
<path fill="none" stroke="#000000" stroke-width="2" d="M307,-362C396.13,-359.49 358.01,-505.24 451,-507.75"/>
</g>
<!-- X1&#45;&#45;W1 -->
<g id="edge3" class="edge">
<title>X1:e&#45;&#45;W1:w</title>
<path fill="none" stroke="#000000" stroke-width="2" d="M307,-333.5C399.53,-336 362.35,-480.25 451,-477.75"/>
<path fill="none" stroke="#ff8000" stroke-width="2" d="M307,-335.5C397.59,-335.5 360.41,-479.75 451,-479.75"/>
<path fill="none" stroke="#000000" stroke-width="2" d="M307,-337.5C395.65,-335 358.47,-479.25 451,-481.75"/>
</g>
<!-- X1&#45;&#45;W1 -->
<g id="edge4" class="edge">
<title>X1:e&#45;&#45;W1:w</title>
<path fill="none" stroke="#000000" stroke-width="2" d="M307,-309C399.06,-311.49 362.82,-454.24 451,-451.75"/>
<path fill="none" stroke="#ffff00" stroke-width="2" d="M307,-311C397.12,-311 360.88,-453.75 451,-453.75"/>
<path fill="none" stroke="#000000" stroke-width="2" d="M307,-313C395.18,-310.51 358.94,-453.26 451,-455.75"/>
</g>
<!-- W2 -->
<g id="node3" class="node">
<title>W2</title>
<polygon fill="#ffffff" stroke="black" stroke-dasharray="5,2" points="803.5,-335 488.5,-335 488.5,0 803.5,0 803.5,-335"/>
<polygon fill="#ffffff" stroke="none" points="488.5,0 488.5,-335 803.5,-335 803.5,0 488.5,0"/>
<polygon fill="none" stroke="black" points="488.5,-310.5 488.5,-335 803.5,-335 803.5,-310.5 488.5,-310.5"/>
<text text-anchor="start" x="634.75" y="-317.7" font-family="arial" font-size="14.00">W2</text>
<polygon fill="none" stroke="black" points="488.5,-286 488.5,-310.5 575.25,-310.5 575.25,-286 488.5,-286"/>
<text text-anchor="start" x="524.38" y="-293.2" font-family="arial" font-size="14.00">4x</text>
<polygon fill="none" stroke="black" points="575.25,-286 575.25,-310.5 707.75,-310.5 707.75,-286 575.25,-286"/>
<text text-anchor="start" x="611.13" y="-293.2" font-family="arial" font-size="14.00">0.25 mm²</text>
<polygon fill="none" stroke="black" points="707.75,-286 707.75,-310.5 803.5,-310.5 803.5,-286 707.75,-286"/>
<text text-anchor="start" x="743.63" y="-293.2" font-family="arial" font-size="14.00">1 m</text>
<text text-anchor="start" x="554.63" y="-270.7" font-family="arial" font-size="14.00"> </text>
<text text-anchor="start" x="490.5" y="-250.7" font-family="arial" font-size="14.00"> X1:1</text>
<text text-anchor="start" x="650.63" y="-250.7" font-family="arial" font-size="14.00"> </text>
<text text-anchor="start" x="718.63" y="-250.7" font-family="arial" font-size="14.00">YE</text>
<text text-anchor="start" x="751.13" y="-250.7" font-family="arial" font-size="14.00"> </text>
<text text-anchor="start" x="767.75" y="-250.7" font-family="arial" font-size="14.00">X3:1 </text>
<polygon fill="#ffffff" stroke="none" points="488.5,-244 488.5,-246 803.5,-246 803.5,-244 488.5,-244"/>
<polygon fill="#ffffff" stroke="none" points="488.5,-242 488.5,-244 803.5,-244 803.5,-242 488.5,-242"/>
<polygon fill="#ffffff" stroke="none" points="488.5,-240 488.5,-242 803.5,-242 803.5,-240 488.5,-240"/>
<text text-anchor="start" x="492.83" y="-222.7" font-family="arial" font-size="14.00">P/N: WIRE1</text>
<text text-anchor="start" x="575.5" y="-222.7" font-family="arial" font-size="14.00">WiresCo: W1&#45;YE</text>
<text text-anchor="start" x="689.67" y="-222.7" font-family="arial" font-size="14.00">WireShack: 1001</text>
<text text-anchor="start" x="490.5" y="-200.7" font-family="arial" font-size="14.00"> X1:2</text>
<text text-anchor="start" x="650.63" y="-200.7" font-family="arial" font-size="14.00"> </text>
<text text-anchor="start" x="718.25" y="-200.7" font-family="arial" font-size="14.00">BK</text>
<text text-anchor="start" x="751.13" y="-200.7" font-family="arial" font-size="14.00"> </text>
<text text-anchor="start" x="767.75" y="-200.7" font-family="arial" font-size="14.00">X3:2 </text>
<polygon fill="#ffffff" stroke="none" points="488.5,-194 488.5,-196 803.5,-196 803.5,-194 488.5,-194"/>
<polygon fill="#ffffff" stroke="none" points="488.5,-192 488.5,-194 803.5,-194 803.5,-192 488.5,-192"/>
<polygon fill="#ffffff" stroke="none" points="488.5,-190 488.5,-192 803.5,-192 803.5,-190 488.5,-190"/>
<text text-anchor="start" x="492.71" y="-172.7" font-family="arial" font-size="14.00">P/N: WIRE2</text>
<text text-anchor="start" x="575.13" y="-172.7" font-family="arial" font-size="14.00">WiresCo: W1&#45;BK</text>
<text text-anchor="start" x="689.79" y="-172.7" font-family="arial" font-size="14.00">WireShack: 1002</text>
<text text-anchor="start" x="490.5" y="-150.7" font-family="arial" font-size="14.00"> X1:3</text>
<text text-anchor="start" x="650.63" y="-150.7" font-family="arial" font-size="14.00"> </text>
<text text-anchor="start" x="718.25" y="-150.7" font-family="arial" font-size="14.00">BK</text>
<text text-anchor="start" x="751.13" y="-150.7" font-family="arial" font-size="14.00"> </text>
<text text-anchor="start" x="767.75" y="-150.7" font-family="arial" font-size="14.00">X3:3 </text>
<polygon fill="#ffffff" stroke="none" points="488.5,-144 488.5,-146 803.5,-146 803.5,-144 488.5,-144"/>
<polygon fill="#ffffff" stroke="none" points="488.5,-142 488.5,-144 803.5,-144 803.5,-142 488.5,-142"/>
<polygon fill="#ffffff" stroke="none" points="488.5,-140 488.5,-142 803.5,-142 803.5,-140 488.5,-140"/>
<text text-anchor="start" x="492.71" y="-122.7" font-family="arial" font-size="14.00">P/N: WIRE2</text>
<text text-anchor="start" x="575.13" y="-122.7" font-family="arial" font-size="14.00">WiresCo: W1&#45;BK</text>
<text text-anchor="start" x="689.79" y="-122.7" font-family="arial" font-size="14.00">WireShack: 1002</text>
<text text-anchor="start" x="490.5" y="-100.7" font-family="arial" font-size="14.00"> X1:4</text>
<text text-anchor="start" x="650.63" y="-100.7" font-family="arial" font-size="14.00"> </text>
<text text-anchor="start" x="717.5" y="-100.7" font-family="arial" font-size="14.00">RD</text>
<text text-anchor="start" x="751.13" y="-100.7" font-family="arial" font-size="14.00"> </text>
<text text-anchor="start" x="767.75" y="-100.7" font-family="arial" font-size="14.00">X3:4 </text>
<polygon fill="#ffffff" stroke="none" points="488.5,-94 488.5,-96 803.5,-96 803.5,-94 488.5,-94"/>
<polygon fill="#ffffff" stroke="none" points="488.5,-92 488.5,-94 803.5,-94 803.5,-92 488.5,-92"/>
<polygon fill="#ffffff" stroke="none" points="488.5,-90 488.5,-92 803.5,-92 803.5,-90 488.5,-90"/>
<text text-anchor="start" x="492.5" y="-72.7" font-family="arial" font-size="14.00">P/N: WIRE3</text>
<text text-anchor="start" x="574.5" y="-72.7" font-family="arial" font-size="14.00">WiresCo: W1&#45;RD</text>
<text text-anchor="start" x="690.25" y="-72.7" font-family="arial" font-size="14.00">WireShack: 1009</text>
<text text-anchor="start" x="554.63" y="-50.7" font-family="arial" font-size="14.00"> </text>
<text text-anchor="start" x="516.25" y="-28.7" font-family="arial" font-size="14.00">1</text>
<text text-anchor="start" x="530.5" y="-28.7" font-family="arial" font-size="14.00">m</text>
<text text-anchor="start" x="557.5" y="-28.7" font-family="arial" font-size="14.00">Sleeve, Braided nylon, black, 3mm</text>
<text text-anchor="start" x="557.5" y="-6.7" font-family="arial" font-size="14.00">P/N: SLV&#45;1</text>
<polygon fill="none" stroke="black" points="488.5,0 488.5,-46 803.5,-46 803.5,0 488.5,0"/>
</g>
<!-- X1&#45;&#45;W2 -->
<g id="edge5" class="edge">
<title>X1:e&#45;&#45;W2:w</title>
<path fill="none" stroke="#000000" stroke-width="2" d="M307,-382.5C406.96,-384.83 383.6,-243.33 487.5,-241"/>
<path fill="none" stroke="#ffff00" stroke-width="2" d="M307,-384.5C408.93,-384.5 385.57,-243 487.5,-243"/>
<path fill="none" stroke="#000000" stroke-width="2" d="M307,-386.5C410.9,-384.18 387.54,-242.68 487.5,-245"/>
</g>
<!-- X1&#45;&#45;W2 -->
<g id="edge6" class="edge">
<title>X1:e&#45;&#45;W2:w</title>
<path fill="none" stroke="#000000" stroke-width="2" d="M307,-358C414.34,-360.45 376.26,-193.45 487.5,-191"/>
<path fill="none" stroke="#000000" stroke-width="2" d="M307,-360C416.29,-360 378.21,-193 487.5,-193"/>
<path fill="none" stroke="#000000" stroke-width="2" d="M307,-362C418.24,-359.56 380.16,-192.56 487.5,-195"/>
</g>
<!-- X1&#45;&#45;W2 -->
<g id="edge7" class="edge">
<title>X1:e&#45;&#45;W2:w</title>
<path fill="none" stroke="#000000" stroke-width="2" d="M307,-333.5C422.35,-336.04 368.29,-143.54 487.5,-141"/>
<path fill="none" stroke="#000000" stroke-width="2" d="M307,-335.5C424.28,-335.5 370.22,-143 487.5,-143"/>
<path fill="none" stroke="#000000" stroke-width="2" d="M307,-337.5C426.21,-334.96 372.15,-142.46 487.5,-145"/>
</g>
<!-- X1&#45;&#45;W2 -->
<g id="edge8" class="edge">
<title>X1:e&#45;&#45;W2:w</title>
<path fill="none" stroke="#000000" stroke-width="2" d="M307,-309C430.89,-311.62 359.81,-93.62 487.5,-91"/>
<path fill="none" stroke="#ff0000" stroke-width="2" d="M307,-311C432.79,-311 361.71,-93 487.5,-93"/>
<path fill="none" stroke="#000000" stroke-width="2" d="M307,-313C434.69,-310.38 363.61,-92.38 487.5,-95"/>
</g>
<!-- W1&#45;&#45;W1 -->
<g id="edge9" class="edge">
<title>W1:e&#45;&#45;W1:w</title>
<path fill="none" stroke="#000000" stroke-width="2" d="M841,-533.75C711,-533.75 581,-533.75 451,-533.75"/>
<path fill="none" stroke="#895956" stroke-width="2" d="M841,-531.75C711,-531.75 581,-531.75 451,-531.75"/>
<path fill="none" stroke="#000000" stroke-width="2" d="M841,-529.75C711,-529.75 581,-529.75 451,-529.75"/>
</g>
<!-- W1&#45;&#45;W1 -->
<g id="edge10" class="edge">
<title>W1:e&#45;&#45;W1:w</title>
<path fill="none" stroke="#000000" stroke-width="2" d="M841,-507.75C711,-507.75 581,-507.75 451,-507.75"/>
<path fill="none" stroke="#ff0000" stroke-width="2" d="M841,-505.75C711,-505.75 581,-505.75 451,-505.75"/>
<path fill="none" stroke="#000000" stroke-width="2" d="M841,-503.75C711,-503.75 581,-503.75 451,-503.75"/>
</g>
<!-- W1&#45;&#45;W1 -->
<g id="edge11" class="edge">
<title>W1:e&#45;&#45;W1:w</title>
<path fill="none" stroke="#000000" stroke-width="2" d="M841,-481.75C711,-481.75 581,-481.75 451,-481.75"/>
<path fill="none" stroke="#ff8000" stroke-width="2" d="M841,-479.75C711,-479.75 581,-479.75 451,-479.75"/>
<path fill="none" stroke="#000000" stroke-width="2" d="M841,-477.75C711,-477.75 581,-477.75 451,-477.75"/>
</g>
<!-- W1&#45;&#45;W1 -->
<g id="edge12" class="edge">
<title>W1:e&#45;&#45;W1:w</title>
<path fill="none" stroke="#000000" stroke-width="2" d="M841,-455.75C711,-455.75 581,-455.75 451,-455.75"/>
<path fill="none" stroke="#ffff00" stroke-width="2" d="M841,-453.75C711,-453.75 581,-453.75 451,-453.75"/>
<path fill="none" stroke="#000000" stroke-width="2" d="M841,-451.75C711,-451.75 581,-451.75 451,-451.75"/>
</g>
<!-- X2 -->
<g id="node4" class="node">
<title>X2</title>
<polygon fill="#ffffff" stroke="black" points="1299.23,-615.25 984.97,-615.25 984.97,-353.75 1299.23,-353.75 1299.23,-615.25"/>
<polygon fill="#ffffff" stroke="none" points="984.98,-353.75 984.98,-615.25 1299.23,-615.25 1299.23,-353.75 984.98,-353.75"/>
<polygon fill="none" stroke="black" points="984.98,-590.75 984.98,-615.25 1299.23,-615.25 1299.23,-590.75 984.98,-590.75"/>
<text text-anchor="start" x="1133.1" y="-597.95" font-family="arial" font-size="14.00">X2</text>
<polygon fill="none" stroke="black" points="984.98,-566.25 984.98,-590.75 1063.48,-590.75 1063.48,-566.25 984.98,-566.25"/>
<text text-anchor="start" x="988.98" y="-573.45" font-family="arial" font-size="14.00">P/N: CON4</text>
<polygon fill="none" stroke="black" points="1063.48,-566.25 1063.48,-590.75 1182.48,-590.75 1182.48,-566.25 1063.48,-566.25"/>
<text text-anchor="start" x="1067.48" y="-573.45" font-family="arial" font-size="14.00">Molex: 22013047</text>
<polygon fill="none" stroke="black" points="1182.48,-566.25 1182.48,-590.75 1299.23,-590.75 1299.23,-566.25 1182.48,-566.25"/>
<text text-anchor="start" x="1186.48" y="-573.45" font-family="arial" font-size="14.00">Digimouse: 1234</text>
<polygon fill="none" stroke="black" points="984.98,-541.75 984.98,-566.25 1124.23,-566.25 1124.23,-541.75 984.98,-541.75"/>
<text text-anchor="start" x="1009.98" y="-548.95" font-family="arial" font-size="14.00">Molex KK 254</text>
<polygon fill="none" stroke="black" points="1124.23,-541.75 1124.23,-566.25 1217.73,-566.25 1217.73,-541.75 1124.23,-541.75"/>
<text text-anchor="start" x="1149.23" y="-548.95" font-family="arial" font-size="14.00">female</text>
<polygon fill="none" stroke="black" points="1217.73,-541.75 1217.73,-566.25 1299.23,-566.25 1299.23,-541.75 1217.73,-541.75"/>
<text text-anchor="start" x="1242.73" y="-548.95" font-family="arial" font-size="14.00">4&#45;pin</text>
<polygon fill="none" stroke="black" points="984.98,-517.25 984.98,-541.75 1299.23,-541.75 1299.23,-517.25 984.98,-517.25"/>
<text text-anchor="start" x="1137.98" y="-524.45" font-family="arial" font-size="14.00">1</text>
<polygon fill="none" stroke="black" points="984.98,-492.75 984.98,-517.25 1299.23,-517.25 1299.23,-492.75 984.98,-492.75"/>
<text text-anchor="start" x="1137.98" y="-499.95" font-family="arial" font-size="14.00">2</text>
<polygon fill="none" stroke="black" points="984.98,-468.25 984.98,-492.75 1299.23,-492.75 1299.23,-468.25 984.98,-468.25"/>
<text text-anchor="start" x="1137.98" y="-475.45" font-family="arial" font-size="14.00">3</text>
<polygon fill="none" stroke="black" points="984.98,-443.75 984.98,-468.25 1299.23,-468.25 1299.23,-443.75 984.98,-443.75"/>
<text text-anchor="start" x="1137.98" y="-450.95" font-family="arial" font-size="14.00">4</text>
<text text-anchor="start" x="997.63" y="-426.45" font-family="arial" font-size="14.00">4</text>
<text text-anchor="start" x="1011.88" y="-426.45" font-family="arial" font-size="14.00">x</text>
<text text-anchor="start" x="1025.33" y="-426.45" font-family="arial" font-size="14.00">Crimp, Molex KK 254, 22&#45;30 AWG</text>
<text text-anchor="start" x="1025.33" y="-404.45" font-family="arial" font-size="14.00">Molex: 08500030</text>
<text text-anchor="start" x="997.63" y="-382.45" font-family="arial" font-size="14.00">1</text>
<text text-anchor="start" x="1011.88" y="-382.45" font-family="arial" font-size="14.00">x</text>
<text text-anchor="start" x="1025.33" y="-382.45" font-family="arial" font-size="14.00">Test</text>
<text text-anchor="start" x="1025.33" y="-360.45" font-family="arial" font-size="14.00">P/N: ABC, Molex: 45454, Mousikey: 9999</text>
<polygon fill="none" stroke="black" points="984.98,-353.75 984.98,-443.75 1299.23,-443.75 1299.23,-353.75 984.98,-353.75"/>
</g>
<!-- W1&#45;&#45;X2 -->
<g id="edge13" class="edge">
<title>W1:e&#45;&#45;X2:w</title>
<path fill="none" stroke="#000000" stroke-width="2" d="M841,-529.75C904.73,-529.77 920.71,-527.52 985,-527.5"/>
<path fill="none" stroke="#895956" stroke-width="2" d="M841,-531.75C905.01,-531.75 920.99,-529.5 985,-529.5"/>
<path fill="none" stroke="#000000" stroke-width="2" d="M841,-533.75C905.29,-533.73 921.27,-531.48 985,-531.5"/>
</g>
<!-- W1&#45;&#45;X2 -->
<g id="edge14" class="edge">
<title>W1:e&#45;&#45;X2:w</title>
<path fill="none" stroke="#000000" stroke-width="2" d="M841,-503.75C904.91,-503.75 920.91,-503 985,-503"/>
<path fill="none" stroke="#ff0000" stroke-width="2" d="M841,-505.75C905,-505.75 921,-505 985,-505"/>
<path fill="none" stroke="#000000" stroke-width="2" d="M841,-507.75C905.09,-507.75 921.09,-507 985,-507"/>
</g>
<!-- W1&#45;&#45;X2 -->
<g id="edge15" class="edge">
<title>W1:e&#45;&#45;X2:w</title>
<path fill="none" stroke="#000000" stroke-width="2" d="M841,-477.75C905.09,-477.75 921.09,-478.5 985,-478.5"/>
<path fill="none" stroke="#ff8000" stroke-width="2" d="M841,-479.75C905,-479.75 921,-480.5 985,-480.5"/>
<path fill="none" stroke="#000000" stroke-width="2" d="M841,-481.75C904.91,-481.75 920.91,-482.5 985,-482.5"/>
</g>
<!-- W1&#45;&#45;X2 -->
<g id="edge16" class="edge">
<title>W1:e&#45;&#45;X2:w</title>
<path fill="none" stroke="#000000" stroke-width="2" d="M841,-451.75C905.29,-451.77 921.27,-454.02 985,-454"/>
<path fill="none" stroke="#ffff00" stroke-width="2" d="M841,-453.75C905.01,-453.75 920.99,-456 985,-456"/>
<path fill="none" stroke="#000000" stroke-width="2" d="M841,-455.75C904.73,-455.73 920.71,-457.98 985,-458"/>
</g>
<!-- W2&#45;&#45;W2 -->
<g id="edge17" class="edge">
<title>W2:e&#45;&#45;W2:w</title>
<path fill="none" stroke="#000000" stroke-width="2" d="M803.5,-245C698.5,-245 593.5,-245 488.5,-245"/>
<path fill="none" stroke="#ffff00" stroke-width="2" d="M803.5,-243C698.5,-243 593.5,-243 488.5,-243"/>
<path fill="none" stroke="#000000" stroke-width="2" d="M803.5,-241C698.5,-241 593.5,-241 488.5,-241"/>
</g>
<!-- W2&#45;&#45;W2 -->
<g id="edge18" class="edge">
<title>W2:e&#45;&#45;W2:w</title>
<path fill="none" stroke="#000000" stroke-width="2" d="M803.5,-195C698.5,-195 593.5,-195 488.5,-195"/>
<path fill="none" stroke="#000000" stroke-width="2" d="M803.5,-193C698.5,-193 593.5,-193 488.5,-193"/>
<path fill="none" stroke="#000000" stroke-width="2" d="M803.5,-191C698.5,-191 593.5,-191 488.5,-191"/>
</g>
<!-- W2&#45;&#45;W2 -->
<g id="edge19" class="edge">
<title>W2:e&#45;&#45;W2:w</title>
<path fill="none" stroke="#000000" stroke-width="2" d="M803.5,-145C698.5,-145 593.5,-145 488.5,-145"/>
<path fill="none" stroke="#000000" stroke-width="2" d="M803.5,-143C698.5,-143 593.5,-143 488.5,-143"/>
<path fill="none" stroke="#000000" stroke-width="2" d="M803.5,-141C698.5,-141 593.5,-141 488.5,-141"/>
</g>
<!-- W2&#45;&#45;W2 -->
<g id="edge20" class="edge">
<title>W2:e&#45;&#45;W2:w</title>
<path fill="none" stroke="#000000" stroke-width="2" d="M803.5,-95C698.5,-95 593.5,-95 488.5,-95"/>
<path fill="none" stroke="#ff0000" stroke-width="2" d="M803.5,-93C698.5,-93 593.5,-93 488.5,-93"/>
<path fill="none" stroke="#000000" stroke-width="2" d="M803.5,-91C698.5,-91 593.5,-91 488.5,-91"/>
</g>
<!-- X3 -->
<g id="node5" class="node">
<title>X3</title>
<polygon fill="#ffffff" stroke="black" points="1295.6,-290.25 988.6,-290.25 988.6,-28.75 1295.6,-28.75 1295.6,-290.25"/>
<polygon fill="#ffffff" stroke="none" points="988.6,-28.75 988.6,-290.25 1295.6,-290.25 1295.6,-28.75 988.6,-28.75"/>
<polygon fill="none" stroke="black" points="988.6,-265.75 988.6,-290.25 1295.6,-290.25 1295.6,-265.75 988.6,-265.75"/>
<text text-anchor="start" x="1133.1" y="-272.95" font-family="arial" font-size="14.00">X3</text>
<polygon fill="none" stroke="black" points="988.6,-241.25 988.6,-265.75 1143.23,-265.75 1143.23,-241.25 988.6,-241.25"/>
<text text-anchor="start" x="1010.41" y="-248.45" font-family="arial" font-size="14.00">Molex: 22013047</text>
<polygon fill="none" stroke="black" points="1143.23,-241.25 1143.23,-265.75 1295.6,-265.75 1295.6,-241.25 1143.23,-241.25"/>
<text text-anchor="start" x="1165.04" y="-248.45" font-family="arial" font-size="14.00">Digimouse: 1234</text>
<polygon fill="none" stroke="black" points="988.6,-216.75 988.6,-241.25 1125.43,-241.25 1125.43,-216.75 988.6,-216.75"/>
<text text-anchor="start" x="1012.39" y="-223.95" font-family="arial" font-size="14.00">Molex KK 254</text>
<polygon fill="none" stroke="black" points="1125.43,-216.75 1125.43,-241.25 1216.52,-241.25 1216.52,-216.75 1125.43,-216.75"/>
<text text-anchor="start" x="1149.23" y="-223.95" font-family="arial" font-size="14.00">female</text>
<polygon fill="none" stroke="black" points="1216.52,-216.75 1216.52,-241.25 1295.6,-241.25 1295.6,-216.75 1216.52,-216.75"/>
<text text-anchor="start" x="1240.31" y="-223.95" font-family="arial" font-size="14.00">4&#45;pin</text>
<polygon fill="none" stroke="black" points="988.6,-192.25 988.6,-216.75 1295.6,-216.75 1295.6,-192.25 988.6,-192.25"/>
<text text-anchor="start" x="1137.98" y="-199.45" font-family="arial" font-size="14.00">1</text>
<polygon fill="none" stroke="black" points="988.6,-167.75 988.6,-192.25 1295.6,-192.25 1295.6,-167.75 988.6,-167.75"/>
<text text-anchor="start" x="1137.98" y="-174.95" font-family="arial" font-size="14.00">2</text>
<polygon fill="none" stroke="black" points="988.6,-143.25 988.6,-167.75 1295.6,-167.75 1295.6,-143.25 988.6,-143.25"/>
<text text-anchor="start" x="1137.98" y="-150.45" font-family="arial" font-size="14.00">3</text>
<polygon fill="none" stroke="black" points="988.6,-118.75 988.6,-143.25 1295.6,-143.25 1295.6,-118.75 988.6,-118.75"/>
<text text-anchor="start" x="1137.98" y="-125.95" font-family="arial" font-size="14.00">4</text>
<text text-anchor="start" x="998.48" y="-101.45" font-family="arial" font-size="14.00">4</text>
<text text-anchor="start" x="1012.23" y="-101.45" font-family="arial" font-size="14.00">x</text>
<text text-anchor="start" x="1024.6" y="-101.45" font-family="arial" font-size="14.00">Crimp, Molex KK 254, 22&#45;30 AWG</text>
<text text-anchor="start" x="1024.6" y="-79.45" font-family="arial" font-size="14.00">Molex: 08500030</text>
<text text-anchor="start" x="998.48" y="-57.45" font-family="arial" font-size="14.00">1</text>
<text text-anchor="start" x="1012.23" y="-57.45" font-family="arial" font-size="14.00">x</text>
<text text-anchor="start" x="1024.6" y="-57.45" font-family="arial" font-size="14.00">Test</text>
<text text-anchor="start" x="1024.23" y="-35.45" font-family="arial" font-size="14.00">P/N: ABC, Molex: 45454, Mousikey: 9999</text>
<polygon fill="none" stroke="black" points="988.6,-28.75 988.6,-118.75 1295.6,-118.75 1295.6,-28.75 988.6,-28.75"/>
</g>
<!-- W2&#45;&#45;X3 -->
<g id="edge21" class="edge">
<title>W2:e&#45;&#45;X3:w</title>
<path fill="none" stroke="#000000" stroke-width="2" d="M804.5,-241C885.84,-242.2 902.63,-203.7 987.62,-202.5"/>
<path fill="none" stroke="#ffff00" stroke-width="2" d="M804.5,-243C887.67,-243 904.46,-204.5 987.62,-204.5"/>
<path fill="none" stroke="#000000" stroke-width="2" d="M804.5,-245C889.5,-243.8 906.29,-205.3 987.62,-206.5"/>
</g>
<!-- W2&#45;&#45;X3 -->
<g id="edge22" class="edge">
<title>W2:e&#45;&#45;X3:w</title>
<path fill="none" stroke="#000000" stroke-width="2" d="M804.5,-191C885,-191.33 904.94,-178.33 987.62,-178"/>
<path fill="none" stroke="#000000" stroke-width="2" d="M804.5,-193C886.09,-193 906.03,-180 987.62,-180"/>
<path fill="none" stroke="#000000" stroke-width="2" d="M804.5,-195C887.18,-194.68 907.12,-181.68 987.62,-182"/>
</g>
<!-- W2&#45;&#45;X3 -->
<g id="edge23" class="edge">
<title>W2:e&#45;&#45;X3:w</title>
<path fill="none" stroke="#000000" stroke-width="2" d="M804.5,-141C887.14,-141.31 907.11,-153.81 987.62,-153.5"/>
<path fill="none" stroke="#000000" stroke-width="2" d="M804.5,-143C886.08,-143 906.05,-155.5 987.62,-155.5"/>
<path fill="none" stroke="#000000" stroke-width="2" d="M804.5,-145C885.02,-144.7 904.99,-157.2 987.62,-157.5"/>
</g>
<!-- W2&#45;&#45;X3 -->
<g id="edge24" class="edge">
<title>W2:e&#45;&#45;X3:w</title>
<path fill="none" stroke="#000000" stroke-width="2" d="M804.5,-91C889.45,-92.19 906.33,-130.19 987.62,-129"/>
<path fill="none" stroke="#ff0000" stroke-width="2" d="M804.5,-93C887.62,-93 904.5,-131 987.62,-131"/>
<path fill="none" stroke="#000000" stroke-width="2" d="M804.5,-95C885.79,-93.81 902.67,-131.81 987.62,-133"/>
</g>
</g>
</svg>
