<?xml version="1.0" encoding="UTF-8" standalone="no"?>
<!DOCTYPE svg PUBLIC "-//W3C//DTD SVG 1.1//EN"
 "http://www.w3.org/Graphics/SVG/1.1/DTD/svg11.dtd">
<!-- Generated by graphviz version 2.44.0 (20200408.0750)
 -->
<!-- Pages: 1 -->
<svg width="810pt" height="206pt"
 viewBox="0.00 0.00 810.00 206.00" xmlns="http://www.w3.org/2000/svg" xmlns:xlink="http://www.w3.org/1999/xlink">
<g id="graph0" class="graph" transform="scale(1 1) rotate(0) translate(4 202)">
<polygon fill="white" stroke="transparent" points="-4,4 -4,-202 806,-202 806,4 -4,4"/>
<!-- X1 -->
<g id="node1" class="node">
<title>X1</title>
<polygon fill="white" stroke="black" points="610,-32 610,-170 802,-170 802,-32 610,-32"/>
<text text-anchor="middle" x="706" y="-154.8" font-family="arial" font-size="14.00">X1</text>
<polyline fill="none" stroke="black" points="610,-147 802,-147 "/>
<text text-anchor="middle" x="653.5" y="-131.8" font-family="arial" font-size="14.00">Molex 8981</text>
<polyline fill="none" stroke="black" points="697,-124 697,-147 "/>
<text text-anchor="middle" x="726" y="-131.8" font-family="arial" font-size="14.00">female</text>
<polyline fill="none" stroke="black" points="755,-124 755,-147 "/>
<text text-anchor="middle" x="778.5" y="-131.8" font-family="arial" font-size="14.00">4&#45;pin</text>
<polyline fill="none" stroke="black" points="610,-124 802,-124 "/>
<text text-anchor="middle" x="651.5" y="-108.8" font-family="arial" font-size="14.00">1</text>
<polyline fill="none" stroke="black" points="610,-101 693,-101 "/>
<text text-anchor="middle" x="651.5" y="-85.8" font-family="arial" font-size="14.00">2</text>
<polyline fill="none" stroke="black" points="610,-78 693,-78 "/>
<text text-anchor="middle" x="651.5" y="-62.8" font-family="arial" font-size="14.00">3</text>
<polyline fill="none" stroke="black" points="610,-55 693,-55 "/>
<text text-anchor="middle" x="651.5" y="-39.8" font-family="arial" font-size="14.00">4</text>
<polyline fill="none" stroke="black" points="693,-32 693,-124 "/>
<text text-anchor="middle" x="747.5" y="-108.8" font-family="arial" font-size="14.00">+12V</text>
<polyline fill="none" stroke="black" points="693,-101 802,-101 "/>
<text text-anchor="middle" x="747.5" y="-85.8" font-family="arial" font-size="14.00">GND</text>
<polyline fill="none" stroke="black" points="693,-78 802,-78 "/>
<text text-anchor="middle" x="747.5" y="-62.8" font-family="arial" font-size="14.00">GND</text>
<polyline fill="none" stroke="black" points="693,-55 802,-55 "/>
<text text-anchor="middle" x="747.5" y="-39.8" font-family="arial" font-size="14.00">+5V</text>
</g>
<!-- F_10_1 -->
<g id="node2" class="node">
<title>F_10_1</title>
<polygon fill="white" stroke="transparent" points="2.5,-60 198.5,-60 198.5,-96 2.5,-96 2.5,-60"/>
<text text-anchor="start" x="5.5" y="-73.8" font-family="arial" font-size="14.00"> Ferrule, crimp, 1.0 mm² YE </text>
<polygon fill="#ffff00" stroke="transparent" points="179.5,-68 179.5,-87 185.5,-87 185.5,-68 179.5,-68"/>
<polyline fill="none" stroke="black" points="179.5,-87 179.5,-68 "/>
<polyline fill="none" stroke="black" points="185.5,-68 185.5,-87 "/>
<text text-anchor="start" x="187.5" y="-73.8" font-family="arial" font-size="14.00"> &#160;</text>
<polygon fill="none" stroke="black" points="2.5,-67.5 2.5,-88.5 198.5,-88.5 198.5,-67.5 2.5,-67.5"/>
</g>
<!-- W1 -->
<g id="node5" class="node">
<title>W1</title>
<polygon fill="white" stroke="black" stroke-dasharray="5,2" points="466,-198 345,-198 345,-18 466,-18 466,-198"/>
<polygon fill="none" stroke="black" points="345.5,-175 345.5,-198 466.5,-198 466.5,-175 345.5,-175"/>
<text text-anchor="start" x="395" y="-182.8" font-family="arial" font-size="14.00">W1</text>
<polygon fill="none" stroke="black" points="345.5,-152 345.5,-175 368.5,-175 368.5,-152 345.5,-152"/>
<text text-anchor="start" x="349.5" y="-159.8" font-family="arial" font-size="14.00">4x</text>
<polygon fill="none" stroke="black" points="368.5,-152 368.5,-175 423.5,-175 423.5,-152 368.5,-152"/>
<text text-anchor="start" x="372.5" y="-159.8" font-family="arial" font-size="14.00">0.5 mm</text>
<polygon fill="none" stroke="black" points="423.5,-152 423.5,-175 466.5,-175 466.5,-152 423.5,-152"/>
<text text-anchor="start" x="427.5" y="-159.8" font-family="arial" font-size="14.00">0.3 m</text>
<text text-anchor="start" x="404" y="-140.8" font-family="arial" font-size="14.00"> </text>
<text text-anchor="start" x="384.5" y="-123.8" font-family="arial" font-size="14.00">YE</text>
<text text-anchor="start" x="427" y="-123.8" font-family="arial" font-size="14.00">X1:1</text>
<polygon fill="#ffff00" stroke="transparent" points="345.5,-112 345.5,-118 466.5,-118 466.5,-112 345.5,-112"/>
<polyline fill="none" stroke="black" stroke-width="2" points="346.5,-113 465.5,-113 "/>
<polyline fill="none" stroke="black" stroke-width="2" points="465.5,-117 346.5,-117 "/>
<text text-anchor="start" x="384.5" y="-98.8" font-family="arial" font-size="14.00">BK</text>
<text text-anchor="start" x="427" y="-98.8" font-family="arial" font-size="14.00">X1:2</text>
<polygon fill="#000000" stroke="transparent" stroke-width="2" points="345.5,-87 345.5,-93 466.5,-93 466.5,-87 345.5,-87"/>
<polyline fill="none" stroke="black" stroke-width="2" points="346.5,-88 465.5,-88 "/>
<polyline fill="none" stroke="black" stroke-width="2" points="465.5,-92 346.5,-92 "/>
<text text-anchor="start" x="384.5" y="-73.8" font-family="arial" font-size="14.00">BK</text>
<text text-anchor="start" x="427" y="-73.8" font-family="arial" font-size="14.00">X1:3</text>
<polygon fill="#000000" stroke="transparent" stroke-width="2" points="345.5,-62 345.5,-68 466.5,-68 466.5,-62 345.5,-62"/>
<polyline fill="none" stroke="black" stroke-width="2" points="346.5,-63 465.5,-63 "/>
<polyline fill="none" stroke="black" stroke-width="2" points="465.5,-67 346.5,-67 "/>
<text text-anchor="start" x="384" y="-48.8" font-family="arial" font-size="14.00">RD</text>
<text text-anchor="start" x="427" y="-48.8" font-family="arial" font-size="14.00">X1:4</text>
<polygon fill="#ff0000" stroke="transparent" stroke-width="2" points="345.5,-37 345.5,-43 466.5,-43 466.5,-37 345.5,-37"/>
<polyline fill="none" stroke="black" stroke-width="2" points="346.5,-38 465.5,-38 "/>
<polyline fill="none" stroke="black" stroke-width="2" points="465.5,-42 346.5,-42 "/>
<text text-anchor="start" x="357" y="-23.8" font-family="arial" font-size="14.00"> </text>
</g>
<!-- F_10_1&#45;&#45;W1 -->
<g id="edge7" class="edge">
<title>F_10_1:e&#45;&#45;W1:w</title>
<path fill="none" stroke="#000000" stroke-width="2" d="M199.5,-76C265.6,-76.41 281.33,-88.41 345,-88"/>
<path fill="none" stroke="#000000" stroke-width="2" d="M199.5,-78C264.39,-78 280.11,-90 345,-90"/>
<path fill="none" stroke="#000000" stroke-width="2" d="M199.5,-80C263.17,-79.59 278.9,-91.59 345,-92"/>
</g>
<!-- F_10_1&#45;&#45;W1 -->
<g id="edge8" class="edge">
<title>F_10_1:e&#45;&#45;W1:w</title>
<path fill="none" stroke="#000000" stroke-width="2" d="M199.5,-76C263.15,-76.46 278.8,-63.46 345,-63"/>
<path fill="none" stroke="#000000" stroke-width="2" d="M199.5,-78C264.42,-78 280.08,-65 345,-65"/>
<path fill="none" stroke="#000000" stroke-width="2" d="M199.5,-80C265.7,-79.54 281.35,-66.54 345,-67"/>
</g>
<!-- _F1 -->
<g id="node3" class="node">
<title>_F1</title>
<polygon fill="white" stroke="transparent" points="0,-120 201,-120 201,-156 0,-156 0,-120"/>
<text text-anchor="start" x="3.5" y="-133.8" font-family="arial" font-size="14.00"> Ferrule, crimp, 0.5 mm² OG </text>
<polygon fill="#ff8000" stroke="transparent" points="182.5,-128 182.5,-147 188.5,-147 188.5,-128 182.5,-128"/>
<polyline fill="none" stroke="black" points="182.5,-147 182.5,-128 "/>
<polyline fill="none" stroke="black" points="188.5,-128 188.5,-147 "/>
<text text-anchor="start" x="190.5" y="-133.8" font-family="arial" font-size="14.00"> &#160;</text>
<polygon fill="none" stroke="black" points="0,-127.5 0,-148.5 201,-148.5 201,-127.5 0,-127.5"/>
</g>
<!-- _F1&#45;&#45;W1 -->
<g id="edge1" class="edge">
<title>_F1:e&#45;&#45;W1:w</title>
<path fill="none" stroke="#000000" stroke-width="2" d="M201,-136C264.12,-136.94 278.49,-113.94 345,-113"/>
<path fill="none" stroke="#ffff00" stroke-width="2" d="M201,-138C265.81,-138 280.19,-115 345,-115"/>
<path fill="none" stroke="#000000" stroke-width="2" d="M201,-140C267.51,-139.06 281.88,-116.06 345,-117"/>
</g>
<!-- _F2 -->
<g id="node4" class="node">
<title>_F2</title>
<polygon fill="white" stroke="transparent" points="0,0 201,0 201,-36 0,-36 0,0"/>
<text text-anchor="start" x="3.5" y="-13.8" font-family="arial" font-size="14.00"> Ferrule, crimp, 0.5 mm² OG </text>
<polygon fill="#ff8000" stroke="transparent" points="182.5,-8 182.5,-27 188.5,-27 188.5,-8 182.5,-8"/>
<polyline fill="none" stroke="black" points="182.5,-27 182.5,-8 "/>
<polyline fill="none" stroke="black" points="188.5,-8 188.5,-27 "/>
<text text-anchor="start" x="190.5" y="-13.8" font-family="arial" font-size="14.00"> &#160;</text>
<polygon fill="none" stroke="black" points="0,-7.5 0,-28.5 201,-28.5 201,-7.5 0,-7.5"/>
</g>
<!-- _F2&#45;&#45;W1 -->
<g id="edge2" class="edge">
<title>_F2:e&#45;&#45;W1:w</title>
<path fill="none" stroke="#000000" stroke-width="2" d="M201,-16C267.41,-16.9 281.93,-38.9 345,-38"/>
<path fill="none" stroke="#ff0000" stroke-width="2" d="M201,-18C265.74,-18 280.26,-40 345,-40"/>
<path fill="none" stroke="#000000" stroke-width="2" d="M201,-20C264.07,-19.1 278.59,-41.1 345,-42"/>
</g>
<!-- W1&#45;&#45;X1 -->
<g id="edge3" class="edge">
<title>W1:e&#45;&#45;X1:w</title>
<path fill="none" stroke="#000000" stroke-width="2" d="M466,-113C529.76,-113.02 545.75,-111.02 610,-111"/>
<path fill="none" stroke="#ffff00" stroke-width="2" d="M466,-115C530.01,-115 545.99,-113 610,-113"/>
<path fill="none" stroke="#000000" stroke-width="2" d="M466,-117C530.25,-116.98 546.24,-114.98 610,-115"/>
</g>
<!-- W1&#45;&#45;X1 -->
<g id="edge4" class="edge">
<title>W1:e&#45;&#45;X1:w</title>
<path fill="none" stroke="#000000" stroke-width="2" d="M466,-88C529.88,-88 545.87,-87 610,-87"/>
<path fill="none" stroke="#000000" stroke-width="2" d="M466,-90C530,-90 546,-89 610,-89"/>
<path fill="none" stroke="#000000" stroke-width="2" d="M466,-92C530.13,-92 546.12,-91 610,-91"/>
</g>
<!-- W1&#45;&#45;X1 -->
<g id="edge5" class="edge">
<title>W1:e&#45;&#45;X1:w</title>
<path fill="none" stroke="#000000" stroke-width="2" d="M466,-63C530.13,-63 546.12,-64 610,-64"/>
<path fill="none" stroke="#000000" stroke-width="2" d="M466,-65C530,-65 546,-66 610,-66"/>
<path fill="none" stroke="#000000" stroke-width="2" d="M466,-67C529.88,-67 545.87,-68 610,-68"/>
</g>
<!-- W1&#45;&#45;X1 -->
<g id="edge6" class="edge">
<title>W1:e&#45;&#45;X1:w</title>
<path fill="none" stroke="#000000" stroke-width="2" d="M466,-38C530.38,-38.03 546.36,-41.03 610,-41"/>
<path fill="none" stroke="#ff0000" stroke-width="2" d="M466,-40C530.01,-40 545.99,-43 610,-43"/>
<path fill="none" stroke="#000000" stroke-width="2" d="M466,-42C529.64,-41.97 545.62,-44.97 610,-45"/>
</g>
</g>
</svg>
