<?xml version="1.0" encoding="UTF-8" standalone="no"?>
<!DOCTYPE svg PUBLIC "-//W3C//DTD SVG 1.1//EN"
 "http://www.w3.org/Graphics/SVG/1.1/DTD/svg11.dtd">
<!-- Generated by graphviz version 2.44.0 (20200408.0750)
 -->
<!-- Pages: 1 -->
<svg width="945pt" height="510pt"
 viewBox="0.00 0.00 945.00 509.50" xmlns="http://www.w3.org/2000/svg" xmlns:xlink="http://www.w3.org/1999/xlink">
<g id="graph0" class="graph" transform="scale(1 1) rotate(0) translate(4 505.5)">
<polygon fill="white" stroke="transparent" points="-4,4 -4,-505.5 941,-505.5 941,4 -4,4"/>
<!-- X1 -->
<g id="node1" class="node">
<title>X1</title>
<polygon fill="white" stroke="transparent" points="182,-369.5 0,-369.5 0,-208.5 182,-208.5 182,-369.5"/>
<polygon fill="none" stroke="black" points="0,-346 0,-369 182,-369 182,-346 0,-346"/>
<text text-anchor="start" x="82.5" y="-353.8" font-family="arial" font-size="14.00">X1</text>
<polygon fill="none" stroke="black" points="0,-323 0,-346 60,-346 60,-323 0,-323"/>
<text text-anchor="start" x="11.5" y="-330.8" font-family="arial" font-size="14.00">Molex</text>
<polygon fill="none" stroke="black" points="60,-323 60,-346 182,-346 182,-323 60,-323"/>
<text text-anchor="start" x="71.5" y="-330.8" font-family="arial" font-size="14.00">MPN: 22013047</text>
<polygon fill="none" stroke="black" points="0,-300 0,-323 93,-323 93,-300 0,-300"/>
<text text-anchor="start" x="4" y="-307.8" font-family="arial" font-size="14.00">Molex KK 254</text>
<polygon fill="none" stroke="black" points="93,-300 93,-323 143,-323 143,-300 93,-300"/>
<text text-anchor="start" x="97" y="-307.8" font-family="arial" font-size="14.00">female</text>
<polygon fill="none" stroke="black" points="143,-300 143,-323 182,-323 182,-300 143,-300"/>
<text text-anchor="start" x="147" y="-307.8" font-family="arial" font-size="14.00">4&#45;pin</text>
<polygon fill="none" stroke="black" points="0,-277 0,-300 182,-300 182,-277 0,-277"/>
<text text-anchor="start" x="87" y="-284.8" font-family="arial" font-size="14.00">1</text>
<polygon fill="none" stroke="black" points="0,-254 0,-277 182,-277 182,-254 0,-254"/>
<text text-anchor="start" x="87" y="-261.8" font-family="arial" font-size="14.00">2</text>
<polygon fill="none" stroke="black" points="0,-231 0,-254 182,-254 182,-231 0,-231"/>
<text text-anchor="start" x="87" y="-238.8" font-family="arial" font-size="14.00">3</text>
<polygon fill="none" stroke="black" points="0,-208 0,-231 182,-231 182,-208 0,-208"/>
<text text-anchor="start" x="87" y="-215.8" font-family="arial" font-size="14.00">4</text>
</g>
<!-- W1 -->
<g id="node4" class="node">
<title>W1</title>
<polygon fill="none" stroke="black" points="564,-501.5 326,-501.5 326,-296.5 564,-296.5 564,-501.5"/>
<polygon fill="none" stroke="black" points="326,-478 326,-501 564,-501 564,-478 326,-478"/>
<text text-anchor="start" x="434" y="-485.8" font-family="arial" font-size="14.00">W1</text>
<polygon fill="none" stroke="black" points="326,-453 326,-478 564,-478 564,-453 326,-453"/>
<polyline fill="none" stroke="black" points="395,-454 395,-477 "/>
<text text-anchor="start" x="331" y="-461.8" font-family="arial" font-size="14.00">CablesCo</text>
<polyline fill="none" stroke="black" points="491,-454 491,-477 "/>
<text text-anchor="start" x="399" y="-461.8" font-family="arial" font-size="14.00">MPN: ABC123</text>
<text text-anchor="start" x="494" y="-461.8" font-family="arial" font-size="14.00">IPN: CAB1</text>
<polygon fill="none" stroke="black" points="326,-430 326,-453 407,-453 407,-430 326,-430"/>
<text text-anchor="start" x="359" y="-437.8" font-family="arial" font-size="14.00">4x</text>
<polygon fill="none" stroke="black" points="407,-430 407,-453 503,-453 503,-430 407,-430"/>
<text text-anchor="start" x="425.5" y="-437.8" font-family="arial" font-size="14.00">0.25 mm²</text>
<polygon fill="none" stroke="black" points="503,-430 503,-453 564,-453 564,-430 503,-430"/>
<text text-anchor="start" x="521.5" y="-437.8" font-family="arial" font-size="14.00">1 m</text>
<text text-anchor="start" x="443" y="-418.8" font-family="arial" font-size="14.00"> </text>
<text text-anchor="start" x="352.5" y="-401.8" font-family="arial" font-size="14.00">X1:1</text>
<text text-anchor="start" x="435.5" y="-401.8" font-family="arial" font-size="14.00">BN</text>
<text text-anchor="start" x="509.5" y="-401.8" font-family="arial" font-size="14.00">X2:1</text>
<polygon fill="#000000" stroke="transparent" points="326,-394 326,-396 564,-396 564,-394 326,-394"/>
<polygon fill="#895956" stroke="transparent" points="326,-392 326,-394 564,-394 564,-392 326,-392"/>
<polygon fill="#000000" stroke="transparent" points="326,-390 326,-392 564,-392 564,-390 326,-390"/>
<text text-anchor="start" x="352.5" y="-376.8" font-family="arial" font-size="14.00">X1:2</text>
<text text-anchor="start" x="435" y="-376.8" font-family="arial" font-size="14.00">RD</text>
<text text-anchor="start" x="509.5" y="-376.8" font-family="arial" font-size="14.00">X2:2</text>
<polygon fill="#000000" stroke="transparent" points="326,-369 326,-371 564,-371 564,-369 326,-369"/>
<polygon fill="#ff0000" stroke="transparent" points="326,-367 326,-369 564,-369 564,-367 326,-367"/>
<polygon fill="#000000" stroke="transparent" points="326,-365 326,-367 564,-367 564,-365 326,-365"/>
<text text-anchor="start" x="352.5" y="-351.8" font-family="arial" font-size="14.00">X1:3</text>
<text text-anchor="start" x="433.5" y="-351.8" font-family="arial" font-size="14.00">OG</text>
<text text-anchor="start" x="509.5" y="-351.8" font-family="arial" font-size="14.00">X2:3</text>
<polygon fill="#000000" stroke="transparent" points="326,-344 326,-346 564,-346 564,-344 326,-344"/>
<polygon fill="#ff8000" stroke="transparent" points="326,-342 326,-344 564,-344 564,-342 326,-342"/>
<polygon fill="#000000" stroke="transparent" points="326,-340 326,-342 564,-342 564,-340 326,-340"/>
<text text-anchor="start" x="352.5" y="-326.8" font-family="arial" font-size="14.00">X1:4</text>
<text text-anchor="start" x="435.5" y="-326.8" font-family="arial" font-size="14.00">YE</text>
<text text-anchor="start" x="509.5" y="-326.8" font-family="arial" font-size="14.00">X2:4</text>
<polygon fill="#000000" stroke="transparent" points="326,-319 326,-321 564,-321 564,-319 326,-319"/>
<polygon fill="#ffff00" stroke="transparent" points="326,-317 326,-319 564,-319 564,-317 326,-317"/>
<polygon fill="#000000" stroke="transparent" points="326,-315 326,-317 564,-317 564,-315 326,-315"/>
<text text-anchor="start" x="364.5" y="-301.8" font-family="arial" font-size="14.00"> </text>
</g>
<!-- X1&#45;&#45;W1 -->
<g id="edge1" class="edge">
<title>X1:e&#45;&#45;W1:w</title>
<path fill="none" stroke="#000000" stroke-width="2" d="M182,-286C263.19,-288.27 248.77,-393.27 326,-391"/>
<path fill="none" stroke="#895956" stroke-width="2" d="M182,-288C261.21,-288 246.79,-393 326,-393"/>
<path fill="none" stroke="#000000" stroke-width="2" d="M182,-290C259.23,-287.73 244.81,-392.73 326,-395"/>
</g>
<!-- X1&#45;&#45;W1 -->
<g id="edge3" class="edge">
<title>X1:e&#45;&#45;W1:w</title>
<path fill="none" stroke="#000000" stroke-width="2" d="M182,-263C262.67,-265.26 249.3,-368.26 326,-366"/>
<path fill="none" stroke="#ff0000" stroke-width="2" d="M182,-265C260.69,-265 247.31,-368 326,-368"/>
<path fill="none" stroke="#000000" stroke-width="2" d="M182,-267C258.7,-264.74 245.33,-367.74 326,-370"/>
</g>
<!-- X1&#45;&#45;W1 -->
<g id="edge5" class="edge">
<title>X1:e&#45;&#45;W1:w</title>
<path fill="none" stroke="#000000" stroke-width="2" d="M182,-240C262.16,-242.24 249.81,-343.24 326,-341"/>
<path fill="none" stroke="#ff8000" stroke-width="2" d="M182,-242C260.17,-242 247.83,-343 326,-343"/>
<path fill="none" stroke="#000000" stroke-width="2" d="M182,-244C258.19,-241.76 245.84,-342.76 326,-345"/>
</g>
<!-- X1&#45;&#45;W1 -->
<g id="edge7" class="edge">
<title>X1:e&#45;&#45;W1:w</title>
<path fill="none" stroke="#000000" stroke-width="2" d="M182,-217C261.65,-219.23 250.32,-318.23 326,-316"/>
<path fill="none" stroke="#ffff00" stroke-width="2" d="M182,-219C259.67,-219 248.33,-318 326,-318"/>
<path fill="none" stroke="#000000" stroke-width="2" d="M182,-221C257.68,-218.77 246.35,-317.77 326,-320"/>
</g>
<!-- W2 -->
<g id="node5" class="node">
<title>W2</title>
<polygon fill="white" stroke="black" stroke-dasharray="5,2" points="558.5,-272 331.5,-272 331.5,0 558.5,0 558.5,-272"/>
<polygon fill="none" stroke="black" points="332,-249 332,-272 559,-272 559,-249 332,-249"/>
<text text-anchor="start" x="434.5" y="-256.8" font-family="arial" font-size="14.00">W2</text>
<polygon fill="none" stroke="black" points="332,-226 332,-249 390,-249 390,-226 332,-226"/>
<text text-anchor="start" x="353.5" y="-233.8" font-family="arial" font-size="14.00">4x</text>
<polygon fill="none" stroke="black" points="390,-226 390,-249 492,-249 492,-226 390,-226"/>
<text text-anchor="start" x="411.5" y="-233.8" font-family="arial" font-size="14.00">0.25 mm²</text>
<polygon fill="none" stroke="black" points="492,-226 492,-249 559,-249 559,-226 492,-226"/>
<text text-anchor="start" x="513.5" y="-233.8" font-family="arial" font-size="14.00">1 m</text>
<text text-anchor="start" x="443.5" y="-214.8" font-family="arial" font-size="14.00"> </text>
<text text-anchor="start" x="368.5" y="-197.8" font-family="arial" font-size="14.00">X1:1</text>
<text text-anchor="start" x="453" y="-197.8" font-family="arial" font-size="14.00">YE</text>
<text text-anchor="start" x="511.5" y="-197.8" font-family="arial" font-size="14.00">X3:1</text>
<polygon fill="#000000" stroke="transparent" points="332,-190 332,-192 559,-192 559,-190 332,-190"/>
<polygon fill="#ffff00" stroke="transparent" points="332,-188 332,-190 559,-190 559,-188 332,-188"/>
<polygon fill="#000000" stroke="transparent" points="332,-186 332,-188 559,-188 559,-186 332,-186"/>
<text text-anchor="start" x="336.5" y="-170.8" font-family="arial" font-size="14.00">WiresCo</text>
<text text-anchor="start" x="394.5" y="-170.8" font-family="arial" font-size="14.00">MPN: W1&#45;YE</text>
<text text-anchor="start" x="481" y="-170.8" font-family="arial" font-size="14.00">IPN: WIRE1</text>
<text text-anchor="start" x="368.5" y="-149.8" font-family="arial" font-size="14.00">X1:2</text>
<text text-anchor="start" x="453" y="-149.8" font-family="arial" font-size="14.00">BK</text>
<text text-anchor="start" x="511.5" y="-149.8" font-family="arial" font-size="14.00">X3:2</text>
<polygon fill="#000000" stroke="transparent" points="332,-142 332,-144 559,-144 559,-142 332,-142"/>
<polygon fill="#000000" stroke="transparent" points="332,-140 332,-142 559,-142 559,-140 332,-140"/>
<polygon fill="#000000" stroke="transparent" points="332,-138 332,-140 559,-140 559,-138 332,-138"/>
<text text-anchor="start" x="336.5" y="-122.8" font-family="arial" font-size="14.00">WiresCo</text>
<text text-anchor="start" x="394.5" y="-122.8" font-family="arial" font-size="14.00">MPN: W1&#45;BK</text>
<text text-anchor="start" x="481" y="-122.8" font-family="arial" font-size="14.00">IPN: WIRE2</text>
<text text-anchor="start" x="368.5" y="-101.8" font-family="arial" font-size="14.00">X1:3</text>
<text text-anchor="start" x="453" y="-101.8" font-family="arial" font-size="14.00">BK</text>
<text text-anchor="start" x="511.5" y="-101.8" font-family="arial" font-size="14.00">X3:3</text>
<polygon fill="#000000" stroke="transparent" points="332,-94 332,-96 559,-96 559,-94 332,-94"/>
<polygon fill="#000000" stroke="transparent" points="332,-92 332,-94 559,-94 559,-92 332,-92"/>
<polygon fill="#000000" stroke="transparent" points="332,-90 332,-92 559,-92 559,-90 332,-90"/>
<text text-anchor="start" x="336.5" y="-74.8" font-family="arial" font-size="14.00">WiresCo</text>
<text text-anchor="start" x="394.5" y="-74.8" font-family="arial" font-size="14.00">MPN: W1&#45;BK</text>
<text text-anchor="start" x="481" y="-74.8" font-family="arial" font-size="14.00">IPN: WIRE2</text>
<text text-anchor="start" x="368.5" y="-53.8" font-family="arial" font-size="14.00">X1:4</text>
<text text-anchor="start" x="452.5" y="-53.8" font-family="arial" font-size="14.00">RD</text>
<text text-anchor="start" x="511.5" y="-53.8" font-family="arial" font-size="14.00">X3:4</text>
<polygon fill="#000000" stroke="transparent" points="332,-46 332,-48 559,-48 559,-46 332,-46"/>
<polygon fill="#ff0000" stroke="transparent" points="332,-44 332,-46 559,-46 559,-44 332,-44"/>
<polygon fill="#000000" stroke="transparent" points="332,-42 332,-44 559,-44 559,-42 332,-42"/>
<text text-anchor="start" x="336" y="-26.8" font-family="arial" font-size="14.00">WiresCo</text>
<text text-anchor="start" x="393" y="-26.8" font-family="arial" font-size="14.00">MPN: W1&#45;RD</text>
<text text-anchor="start" x="481" y="-26.8" font-family="arial" font-size="14.00">IPN: WIRE3</text>
<text text-anchor="start" x="380.5" y="-5.8" font-family="arial" font-size="14.00"> </text>
</g>
<!-- X1&#45;&#45;W2 -->
<g id="edge9" class="edge">
<title>X1:e&#45;&#45;W2:w</title>
<path fill="none" stroke="#000000" stroke-width="2" d="M182,-286C259.52,-288.2 249.5,-189.2 331,-187"/>
<path fill="none" stroke="#ffff00" stroke-width="2" d="M182,-288C261.51,-288 251.49,-189 331,-189"/>
<path fill="none" stroke="#000000" stroke-width="2" d="M182,-290C263.5,-287.8 253.48,-188.8 331,-191"/>
</g>
<!-- X1&#45;&#45;W2 -->
<g id="edge11" class="edge">
<title>X1:e&#45;&#45;W2:w</title>
<path fill="none" stroke="#000000" stroke-width="2" d="M182,-263C266.19,-265.37 242.88,-141.37 331,-139"/>
<path fill="none" stroke="#000000" stroke-width="2" d="M182,-265C268.15,-265 244.85,-141 331,-141"/>
<path fill="none" stroke="#000000" stroke-width="2" d="M182,-267C270.12,-264.63 246.81,-140.63 331,-143"/>
</g>
<!-- X1&#45;&#45;W2 -->
<g id="edge13" class="edge">
<title>X1:e&#45;&#45;W2:w</title>
<path fill="none" stroke="#000000" stroke-width="2" d="M182,-240C273.72,-242.5 235.41,-93.5 331,-91"/>
<path fill="none" stroke="#000000" stroke-width="2" d="M182,-242C275.65,-242 237.35,-93 331,-93"/>
<path fill="none" stroke="#000000" stroke-width="2" d="M182,-244C277.59,-241.5 239.28,-92.5 331,-95"/>
</g>
<!-- X1&#45;&#45;W2 -->
<g id="edge15" class="edge">
<title>X1:e&#45;&#45;W2:w</title>
<path fill="none" stroke="#000000" stroke-width="2" d="M182,-217C281.9,-219.6 227.28,-45.6 331,-43"/>
<path fill="none" stroke="#ff0000" stroke-width="2" d="M182,-219C283.81,-219 229.19,-45 331,-45"/>
<path fill="none" stroke="#000000" stroke-width="2" d="M182,-221C285.72,-218.4 231.1,-44.4 331,-47"/>
</g>
<!-- X2 -->
<g id="node2" class="node">
<title>X2</title>
<polygon fill="white" stroke="transparent" points="937,-471.5 708,-471.5 708,-310.5 937,-310.5 937,-471.5"/>
<polygon fill="none" stroke="black" points="708.5,-448 708.5,-471 937.5,-471 937.5,-448 708.5,-448"/>
<text text-anchor="start" x="814.5" y="-455.8" font-family="arial" font-size="14.00">X2</text>
<polygon fill="none" stroke="black" points="708.5,-425 708.5,-448 753.5,-448 753.5,-425 708.5,-425"/>
<text text-anchor="start" x="712.5" y="-432.8" font-family="arial" font-size="14.00">Molex</text>
<polygon fill="none" stroke="black" points="753.5,-425 753.5,-448 860.5,-448 860.5,-425 753.5,-425"/>
<text text-anchor="start" x="757.5" y="-432.8" font-family="arial" font-size="14.00">MPN: 22013047</text>
<polygon fill="none" stroke="black" points="860.5,-425 860.5,-448 937.5,-448 937.5,-425 860.5,-425"/>
<text text-anchor="start" x="864.5" y="-432.8" font-family="arial" font-size="14.00">IPN: CON4</text>
<polygon fill="none" stroke="black" points="708.5,-402 708.5,-425 817.5,-425 817.5,-402 708.5,-402"/>
<text text-anchor="start" x="720.5" y="-409.8" font-family="arial" font-size="14.00">Molex KK 254</text>
<polygon fill="none" stroke="black" points="817.5,-402 817.5,-425 883.5,-425 883.5,-402 817.5,-402"/>
<text text-anchor="start" x="829.5" y="-409.8" font-family="arial" font-size="14.00">female</text>
<polygon fill="none" stroke="black" points="883.5,-402 883.5,-425 937.5,-425 937.5,-402 883.5,-402"/>
<text text-anchor="start" x="895" y="-409.8" font-family="arial" font-size="14.00">4&#45;pin</text>
<polygon fill="none" stroke="black" points="708.5,-379 708.5,-402 937.5,-402 937.5,-379 708.5,-379"/>
<text text-anchor="start" x="819" y="-386.8" font-family="arial" font-size="14.00">1</text>
<polygon fill="none" stroke="black" points="708.5,-356 708.5,-379 937.5,-379 937.5,-356 708.5,-356"/>
<text text-anchor="start" x="819" y="-363.8" font-family="arial" font-size="14.00">2</text>
<polygon fill="none" stroke="black" points="708.5,-333 708.5,-356 937.5,-356 937.5,-333 708.5,-333"/>
<text text-anchor="start" x="819" y="-340.8" font-family="arial" font-size="14.00">3</text>
<polygon fill="none" stroke="black" points="708.5,-310 708.5,-333 937.5,-333 937.5,-310 708.5,-310"/>
<text text-anchor="start" x="819" y="-317.8" font-family="arial" font-size="14.00">4</text>
</g>
<!-- X3 -->
<g id="node3" class="node">
<title>X3</title>
<polygon fill="white" stroke="transparent" points="913.5,-233.5 731.5,-233.5 731.5,-72.5 913.5,-72.5 913.5,-233.5"/>
<polygon fill="none" stroke="black" points="731.5,-210 731.5,-233 913.5,-233 913.5,-210 731.5,-210"/>
<text text-anchor="start" x="814" y="-217.8" font-family="arial" font-size="14.00">X3</text>
<polygon fill="none" stroke="black" points="731.5,-187 731.5,-210 791.5,-210 791.5,-187 731.5,-187"/>
<text text-anchor="start" x="743" y="-194.8" font-family="arial" font-size="14.00">Molex</text>
<polygon fill="none" stroke="black" points="791.5,-187 791.5,-210 913.5,-210 913.5,-187 791.5,-187"/>
<text text-anchor="start" x="803" y="-194.8" font-family="arial" font-size="14.00">MPN: 22013047</text>
<polygon fill="none" stroke="black" points="731.5,-164 731.5,-187 824.5,-187 824.5,-164 731.5,-164"/>
<text text-anchor="start" x="735.5" y="-171.8" font-family="arial" font-size="14.00">Molex KK 254</text>
<polygon fill="none" stroke="black" points="824.5,-164 824.5,-187 874.5,-187 874.5,-164 824.5,-164"/>
<text text-anchor="start" x="828.5" y="-171.8" font-family="arial" font-size="14.00">female</text>
<polygon fill="none" stroke="black" points="874.5,-164 874.5,-187 913.5,-187 913.5,-164 874.5,-164"/>
<text text-anchor="start" x="878.5" y="-171.8" font-family="arial" font-size="14.00">4&#45;pin</text>
<polygon fill="none" stroke="black" points="731.5,-141 731.5,-164 913.5,-164 913.5,-141 731.5,-141"/>
<text text-anchor="start" x="818.5" y="-148.8" font-family="arial" font-size="14.00">1</text>
<polygon fill="none" stroke="black" points="731.5,-118 731.5,-141 913.5,-141 913.5,-118 731.5,-118"/>
<text text-anchor="start" x="818.5" y="-125.8" font-family="arial" font-size="14.00">2</text>
<polygon fill="none" stroke="black" points="731.5,-95 731.5,-118 913.5,-118 913.5,-95 731.5,-95"/>
<text text-anchor="start" x="818.5" y="-102.8" font-family="arial" font-size="14.00">3</text>
<polygon fill="none" stroke="black" points="731.5,-72 731.5,-95 913.5,-95 913.5,-72 731.5,-72"/>
<text text-anchor="start" x="818.5" y="-79.8" font-family="arial" font-size="14.00">4</text>
</g>
<!-- W1&#45;&#45;X2 -->
<g id="edge2" class="edge">
<title>W1:e&#45;&#45;X2:w</title>
<path fill="none" stroke="#000000" stroke-width="2" d="M564,-391C627.64,-391.03 643.62,-388.03 708,-388"/>
<path fill="none" stroke="#895956" stroke-width="2" d="M564,-393C628.01,-393 643.99,-390 708,-390"/>
<path fill="none" stroke="#000000" stroke-width="2" d="M564,-395C628.38,-394.97 644.36,-391.97 708,-392"/>
</g>
<!-- W1&#45;&#45;X2 -->
<g id="edge4" class="edge">
<title>W1:e&#45;&#45;X2:w</title>
<path fill="none" stroke="#000000" stroke-width="2" d="M564,-366C627.88,-366 643.87,-365 708,-365"/>
<path fill="none" stroke="#ff0000" stroke-width="2" d="M564,-368C628,-368 644,-367 708,-367"/>
<path fill="none" stroke="#000000" stroke-width="2" d="M564,-370C628.13,-370 644.12,-369 708,-369"/>
</g>
<!-- W1&#45;&#45;X2 -->
<g id="edge6" class="edge">
<title>W1:e&#45;&#45;X2:w</title>
<path fill="none" stroke="#000000" stroke-width="2" d="M564,-341C628.13,-341 644.12,-342 708,-342"/>
<path fill="none" stroke="#ff8000" stroke-width="2" d="M564,-343C628,-343 644,-344 708,-344"/>
<path fill="none" stroke="#000000" stroke-width="2" d="M564,-345C627.88,-345 643.87,-346 708,-346"/>
</g>
<!-- W1&#45;&#45;X2 -->
<g id="edge8" class="edge">
<title>W1:e&#45;&#45;X2:w</title>
<path fill="none" stroke="#000000" stroke-width="2" d="M564,-316C628.38,-316.03 644.36,-319.03 708,-319"/>
<path fill="none" stroke="#ffff00" stroke-width="2" d="M564,-318C628.01,-318 643.99,-321 708,-321"/>
<path fill="none" stroke="#000000" stroke-width="2" d="M564,-320C627.64,-319.97 643.62,-322.97 708,-323"/>
</g>
<!-- W2&#45;&#45;X3 -->
<g id="edge10" class="edge">
<title>W2:e&#45;&#45;X3:w</title>
<path fill="none" stroke="#000000" stroke-width="2" d="M560,-187C635.7,-188.23 651.11,-151.23 730.5,-150"/>
<path fill="none" stroke="#ffff00" stroke-width="2" d="M560,-189C637.54,-189 652.96,-152 730.5,-152"/>
<path fill="none" stroke="#000000" stroke-width="2" d="M560,-191C639.39,-189.77 654.8,-152.77 730.5,-154"/>
</g>
<!-- W2&#45;&#45;X3 -->
<g id="edge12" class="edge">
<title>W2:e&#45;&#45;X3:w</title>
<path fill="none" stroke="#000000" stroke-width="2" d="M560,-139C634.88,-139.32 653.45,-127.32 730.5,-127"/>
<path fill="none" stroke="#000000" stroke-width="2" d="M560,-141C635.97,-141 654.53,-129 730.5,-129"/>
<path fill="none" stroke="#000000" stroke-width="2" d="M560,-143C637.05,-142.68 655.62,-130.68 730.5,-131"/>
</g>
<!-- W2&#45;&#45;X3 -->
<g id="edge14" class="edge">
<title>W2:e&#45;&#45;X3:w</title>
<path fill="none" stroke="#000000" stroke-width="2" d="M560,-91C637.15,-91.36 655.65,-104.36 730.5,-104"/>
<path fill="none" stroke="#000000" stroke-width="2" d="M560,-93C636,-93 654.5,-106 730.5,-106"/>
<path fill="none" stroke="#000000" stroke-width="2" d="M560,-95C634.85,-94.64 653.35,-107.64 730.5,-108"/>
</g>
<!-- W2&#45;&#45;X3 -->
<g id="edge16" class="edge">
<title>W2:e&#45;&#45;X3:w</title>
<path fill="none" stroke="#000000" stroke-width="2" d="M560,-43C639.49,-44.26 654.72,-82.26 730.5,-81"/>
<path fill="none" stroke="#ff0000" stroke-width="2" d="M560,-45C637.64,-45 652.86,-83 730.5,-83"/>
<path fill="none" stroke="#000000" stroke-width="2" d="M560,-47C635.78,-45.74 651.01,-83.74 730.5,-85"/>
</g>
</g>
</svg>
