<?xml version="1.0" encoding="UTF-8" standalone="no"?>
<!DOCTYPE svg PUBLIC "-//W3C//DTD SVG 1.1//EN"
 "http://www.w3.org/Graphics/SVG/1.1/DTD/svg11.dtd">
<!-- Generated by graphviz version 2.44.1 (20200629.0846)
 -->
<!-- Pages: 1 -->
<svg width="793pt" height="1024pt"
 viewBox="0.00 0.00 793.00 1024.00" xmlns="http://www.w3.org/2000/svg" xmlns:xlink="http://www.w3.org/1999/xlink">
<g id="graph0" class="graph" transform="scale(1 1) rotate(0) translate(4 1020)">
<polygon fill="white" stroke="transparent" points="-4,4 -4,-1020 789,-1020 789,4 -4,4"/>
<!-- X1 -->
<g id="node1" class="node">
<title>X1</title>
<polygon fill="white" stroke="transparent" points="182,-984 0,-984 0,-846 182,-846 182,-984"/>
<polygon fill="none" stroke="black" points="0,-961 0,-984 182,-984 182,-961 0,-961"/>
<text text-anchor="start" x="82.5" y="-968.8" font-family="arial" font-size="14.00">X1</text>
<polygon fill="none" stroke="black" points="0,-938 0,-961 93,-961 93,-938 0,-938"/>
<text text-anchor="start" x="4" y="-945.8" font-family="arial" font-size="14.00">Molex KK 254</text>
<polygon fill="none" stroke="black" points="93,-938 93,-961 143,-961 143,-938 93,-938"/>
<text text-anchor="start" x="97" y="-945.8" font-family="arial" font-size="14.00">female</text>
<polygon fill="none" stroke="black" points="143,-938 143,-961 182,-961 182,-938 143,-938"/>
<text text-anchor="start" x="147" y="-945.8" font-family="arial" font-size="14.00">4&#45;pin</text>
<polygon fill="none" stroke="black" points="0,-915 0,-938 103,-938 103,-915 0,-915"/>
<text text-anchor="start" x="36" y="-922.8" font-family="arial" font-size="14.00">GND</text>
<polygon fill="none" stroke="black" points="103,-915 103,-938 182,-938 182,-915 103,-915"/>
<text text-anchor="start" x="138.5" y="-922.8" font-family="arial" font-size="14.00">1</text>
<polygon fill="none" stroke="black" points="0,-892 0,-915 103,-915 103,-892 0,-892"/>
<text text-anchor="start" x="37" y="-899.8" font-family="arial" font-size="14.00">VCC</text>
<polygon fill="none" stroke="black" points="103,-892 103,-915 182,-915 182,-892 103,-892"/>
<text text-anchor="start" x="138.5" y="-899.8" font-family="arial" font-size="14.00">2</text>
<polygon fill="none" stroke="black" points="0,-869 0,-892 103,-892 103,-869 0,-869"/>
<text text-anchor="start" x="38" y="-876.8" font-family="arial" font-size="14.00">SCL</text>
<polygon fill="none" stroke="black" points="103,-869 103,-892 182,-892 182,-869 103,-869"/>
<text text-anchor="start" x="138.5" y="-876.8" font-family="arial" font-size="14.00">3</text>
<polygon fill="none" stroke="black" points="0,-846 0,-869 103,-869 103,-846 0,-846"/>
<text text-anchor="start" x="37.5" y="-853.8" font-family="arial" font-size="14.00">SDA</text>
<polygon fill="none" stroke="black" points="103,-846 103,-869 182,-869 182,-846 103,-846"/>
<text text-anchor="start" x="138.5" y="-853.8" font-family="arial" font-size="14.00">4</text>
</g>
<!-- W1 -->
<g id="node7" class="node">
<title>W1</title>
<polygon fill="white" stroke="black" stroke-dasharray="5,2" points="459,-1016 326,-1016 326,-832 459,-832 459,-1016"/>
<polygon fill="none" stroke="black" points="326.5,-993 326.5,-1016 459.5,-1016 459.5,-993 326.5,-993"/>
<text text-anchor="start" x="382" y="-1000.8" font-family="arial" font-size="14.00">W1</text>
<polygon fill="none" stroke="black" points="326.5,-970 326.5,-993 349.5,-993 349.5,-970 326.5,-970"/>
<text text-anchor="start" x="330.5" y="-977.8" font-family="arial" font-size="14.00">4x</text>
<polygon fill="none" stroke="black" points="349.5,-970 349.5,-993 416.5,-993 416.5,-970 349.5,-970"/>
<text text-anchor="start" x="353.5" y="-977.8" font-family="arial" font-size="14.00">0.25 mm²</text>
<polygon fill="none" stroke="black" points="416.5,-970 416.5,-993 459.5,-993 459.5,-970 416.5,-970"/>
<text text-anchor="start" x="420.5" y="-977.8" font-family="arial" font-size="14.00">0.2 m</text>
<text text-anchor="start" x="348" y="-956.8" font-family="arial" font-size="14.00"> </text>
<text text-anchor="start" x="336" y="-937.8" font-family="arial" font-size="14.00">X1:1</text>
<text text-anchor="start" x="383" y="-937.8" font-family="arial" font-size="14.00">TQ</text>
<text text-anchor="start" x="422" y="-937.8" font-family="arial" font-size="14.00">X2:1</text>
<polygon fill="#000000" stroke="transparent" points="326.5,-930 326.5,-932 459.5,-932 459.5,-930 326.5,-930"/>
<polygon fill="#00ffff" stroke="transparent" points="326.5,-928 326.5,-930 459.5,-930 459.5,-928 326.5,-928"/>
<polygon fill="#000000" stroke="transparent" points="326.5,-926 326.5,-928 459.5,-928 459.5,-926 326.5,-926"/>
<text text-anchor="start" x="336" y="-912.8" font-family="arial" font-size="14.00">X1:2</text>
<text text-anchor="start" x="383.5" y="-912.8" font-family="arial" font-size="14.00">PK</text>
<text text-anchor="start" x="422" y="-912.8" font-family="arial" font-size="14.00">X2:2</text>
<polygon fill="#000000" stroke="transparent" points="326.5,-905 326.5,-907 459.5,-907 459.5,-905 326.5,-905"/>
<polygon fill="#ff66cc" stroke="transparent" points="326.5,-903 326.5,-905 459.5,-905 459.5,-903 326.5,-903"/>
<polygon fill="#000000" stroke="transparent" points="326.5,-901 326.5,-903 459.5,-903 459.5,-901 326.5,-901"/>
<text text-anchor="start" x="336" y="-887.8" font-family="arial" font-size="14.00">X1:3</text>
<text text-anchor="start" x="383.5" y="-887.8" font-family="arial" font-size="14.00">YE</text>
<text text-anchor="start" x="422" y="-887.8" font-family="arial" font-size="14.00">X2:3</text>
<polygon fill="#000000" stroke="transparent" points="326.5,-880 326.5,-882 459.5,-882 459.5,-880 326.5,-880"/>
<polygon fill="#ffff00" stroke="transparent" points="326.5,-878 326.5,-880 459.5,-880 459.5,-878 326.5,-878"/>
<polygon fill="#000000" stroke="transparent" points="326.5,-876 326.5,-878 459.5,-878 459.5,-876 326.5,-876"/>
<text text-anchor="start" x="336" y="-862.8" font-family="arial" font-size="14.00">X1:4</text>
<text text-anchor="start" x="384" y="-862.8" font-family="arial" font-size="14.00">VT</text>
<text text-anchor="start" x="422" y="-862.8" font-family="arial" font-size="14.00">X2:4</text>
<polygon fill="#000000" stroke="transparent" points="326.5,-855 326.5,-857 459.5,-857 459.5,-855 326.5,-855"/>
<polygon fill="#8000ff" stroke="transparent" points="326.5,-853 326.5,-855 459.5,-855 459.5,-853 326.5,-853"/>
<polygon fill="#000000" stroke="transparent" points="326.5,-851 326.5,-853 459.5,-853 459.5,-851 326.5,-851"/>
<text text-anchor="start" x="348" y="-837.8" font-family="arial" font-size="14.00"> </text>
</g>
<!-- X1&#45;&#45;W1 -->
<g id="edge1" class="edge">
<title>X1:e&#45;&#45;W1:w</title>
<path fill="none" stroke="#000000" stroke-width="2" d="M182,-925C246.25,-925.02 262.24,-927.02 326,-927"/>
<path fill="none" stroke="#00ffff" stroke-width="2" d="M182,-927C246.01,-927 261.99,-929 326,-929"/>
<path fill="none" stroke="#000000" stroke-width="2" d="M182,-929C245.76,-928.98 261.75,-930.98 326,-931"/>
</g>
<!-- X1&#45;&#45;W1 -->
<g id="edge3" class="edge">
<title>X1:e&#45;&#45;W1:w</title>
<path fill="none" stroke="#000000" stroke-width="2" d="M182,-901C246.13,-901 262.12,-902 326,-902"/>
<path fill="none" stroke="#ff66cc" stroke-width="2" d="M182,-903C246,-903 262,-904 326,-904"/>
<path fill="none" stroke="#000000" stroke-width="2" d="M182,-905C245.88,-905 261.87,-906 326,-906"/>
</g>
<!-- X1&#45;&#45;W1 -->
<g id="edge5" class="edge">
<title>X1:e&#45;&#45;W1:w</title>
<path fill="none" stroke="#000000" stroke-width="2" d="M182,-878C245.88,-878 261.87,-877 326,-877"/>
<path fill="none" stroke="#ffff00" stroke-width="2" d="M182,-880C246,-880 262,-879 326,-879"/>
<path fill="none" stroke="#000000" stroke-width="2" d="M182,-882C246.13,-882 262.12,-881 326,-881"/>
</g>
<!-- X1&#45;&#45;W1 -->
<g id="edge7" class="edge">
<title>X1:e&#45;&#45;W1:w</title>
<path fill="none" stroke="#000000" stroke-width="2" d="M182,-855C245.64,-855.03 261.62,-852.03 326,-852"/>
<path fill="none" stroke="#8000ff" stroke-width="2" d="M182,-857C246.01,-857 261.99,-854 326,-854"/>
<path fill="none" stroke="#000000" stroke-width="2" d="M182,-859C246.38,-858.97 262.36,-855.97 326,-856"/>
</g>
<!-- X2 -->
<g id="node2" class="node">
<title>X2</title>
<polygon fill="white" stroke="transparent" points="785,-879 603,-879 603,-741 785,-741 785,-879"/>
<polygon fill="none" stroke="black" points="603,-856 603,-879 785,-879 785,-856 603,-856"/>
<text text-anchor="start" x="685.5" y="-863.8" font-family="arial" font-size="14.00">X2</text>
<polygon fill="none" stroke="black" points="603,-833 603,-856 696,-856 696,-833 603,-833"/>
<text text-anchor="start" x="607" y="-840.8" font-family="arial" font-size="14.00">Molex KK 254</text>
<polygon fill="none" stroke="black" points="696,-833 696,-856 746,-856 746,-833 696,-833"/>
<text text-anchor="start" x="700" y="-840.8" font-family="arial" font-size="14.00">female</text>
<polygon fill="none" stroke="black" points="746,-833 746,-856 785,-856 785,-833 746,-833"/>
<text text-anchor="start" x="750" y="-840.8" font-family="arial" font-size="14.00">4&#45;pin</text>
<polygon fill="none" stroke="black" points="603,-810 603,-833 683,-833 683,-810 603,-810"/>
<text text-anchor="start" x="639" y="-817.8" font-family="arial" font-size="14.00">1</text>
<polygon fill="none" stroke="black" points="683,-810 683,-833 785,-833 785,-810 683,-810"/>
<text text-anchor="start" x="718.5" y="-817.8" font-family="arial" font-size="14.00">GND</text>
<polygon fill="none" stroke="black" points="603,-787 603,-810 683,-810 683,-787 603,-787"/>
<text text-anchor="start" x="639" y="-794.8" font-family="arial" font-size="14.00">2</text>
<polygon fill="none" stroke="black" points="683,-787 683,-810 785,-810 785,-787 683,-787"/>
<text text-anchor="start" x="719.5" y="-794.8" font-family="arial" font-size="14.00">VCC</text>
<polygon fill="none" stroke="black" points="603,-764 603,-787 683,-787 683,-764 603,-764"/>
<text text-anchor="start" x="639" y="-771.8" font-family="arial" font-size="14.00">3</text>
<polygon fill="none" stroke="black" points="683,-764 683,-787 785,-787 785,-764 683,-764"/>
<text text-anchor="start" x="720.5" y="-771.8" font-family="arial" font-size="14.00">SCL</text>
<polygon fill="none" stroke="black" points="603,-741 603,-764 683,-764 683,-741 603,-741"/>
<text text-anchor="start" x="639" y="-748.8" font-family="arial" font-size="14.00">4</text>
<polygon fill="none" stroke="black" points="683,-741 683,-764 785,-764 785,-741 683,-741"/>
<text text-anchor="start" x="720" y="-748.8" font-family="arial" font-size="14.00">SDA</text>
</g>
<!-- X3 -->
<g id="node3" class="node">
<title>X3</title>
<polygon fill="white" stroke="transparent" points="182,-672 0,-672 0,-534 182,-534 182,-672"/>
<polygon fill="none" stroke="black" points="0,-649 0,-672 182,-672 182,-649 0,-649"/>
<text text-anchor="start" x="82.5" y="-656.8" font-family="arial" font-size="14.00">X3</text>
<polygon fill="none" stroke="black" points="0,-626 0,-649 93,-649 93,-626 0,-626"/>
<text text-anchor="start" x="4" y="-633.8" font-family="arial" font-size="14.00">Molex KK 254</text>
<polygon fill="none" stroke="black" points="93,-626 93,-649 143,-649 143,-626 93,-626"/>
<text text-anchor="start" x="97" y="-633.8" font-family="arial" font-size="14.00">female</text>
<polygon fill="none" stroke="black" points="143,-626 143,-649 182,-649 182,-626 143,-626"/>
<text text-anchor="start" x="147" y="-633.8" font-family="arial" font-size="14.00">4&#45;pin</text>
<polygon fill="none" stroke="black" points="0,-603 0,-626 103,-626 103,-603 0,-603"/>
<text text-anchor="start" x="36" y="-610.8" font-family="arial" font-size="14.00">GND</text>
<polygon fill="none" stroke="black" points="103,-603 103,-626 182,-626 182,-603 103,-603"/>
<text text-anchor="start" x="138.5" y="-610.8" font-family="arial" font-size="14.00">1</text>
<polygon fill="none" stroke="black" points="0,-580 0,-603 103,-603 103,-580 0,-580"/>
<text text-anchor="start" x="37" y="-587.8" font-family="arial" font-size="14.00">VCC</text>
<polygon fill="none" stroke="black" points="103,-580 103,-603 182,-603 182,-580 103,-580"/>
<text text-anchor="start" x="138.5" y="-587.8" font-family="arial" font-size="14.00">2</text>
<polygon fill="none" stroke="black" points="0,-557 0,-580 103,-580 103,-557 0,-557"/>
<text text-anchor="start" x="38" y="-564.8" font-family="arial" font-size="14.00">SCL</text>
<polygon fill="none" stroke="black" points="103,-557 103,-580 182,-580 182,-557 103,-557"/>
<text text-anchor="start" x="138.5" y="-564.8" font-family="arial" font-size="14.00">3</text>
<polygon fill="none" stroke="black" points="0,-534 0,-557 103,-557 103,-534 0,-534"/>
<text text-anchor="start" x="37.5" y="-541.8" font-family="arial" font-size="14.00">SDA</text>
<polygon fill="none" stroke="black" points="103,-534 103,-557 182,-557 182,-534 103,-534"/>
<text text-anchor="start" x="138.5" y="-541.8" font-family="arial" font-size="14.00">4</text>
</g>
<!-- W2 -->
<g id="node8" class="node">
<title>W2</title>
<polygon fill="white" stroke="black" stroke-dasharray="5,2" points="459,-808 326,-808 326,-624 459,-624 459,-808"/>
<polygon fill="none" stroke="black" points="326.5,-785 326.5,-808 459.5,-808 459.5,-785 326.5,-785"/>
<text text-anchor="start" x="382" y="-792.8" font-family="arial" font-size="14.00">W2</text>
<polygon fill="none" stroke="black" points="326.5,-762 326.5,-785 349.5,-785 349.5,-762 326.5,-762"/>
<text text-anchor="start" x="330.5" y="-769.8" font-family="arial" font-size="14.00">4x</text>
<polygon fill="none" stroke="black" points="349.5,-762 349.5,-785 416.5,-785 416.5,-762 349.5,-762"/>
<text text-anchor="start" x="353.5" y="-769.8" font-family="arial" font-size="14.00">0.25 mm²</text>
<polygon fill="none" stroke="black" points="416.5,-762 416.5,-785 459.5,-785 459.5,-762 416.5,-762"/>
<text text-anchor="start" x="420.5" y="-769.8" font-family="arial" font-size="14.00">0.2 m</text>
<text text-anchor="start" x="348" y="-748.8" font-family="arial" font-size="14.00"> </text>
<text text-anchor="start" x="336" y="-729.8" font-family="arial" font-size="14.00">X3:1</text>
<text text-anchor="start" x="383" y="-729.8" font-family="arial" font-size="14.00">TQ</text>
<text text-anchor="start" x="422" y="-729.8" font-family="arial" font-size="14.00">X2:1</text>
<polygon fill="#000000" stroke="transparent" points="326.5,-722 326.5,-724 459.5,-724 459.5,-722 326.5,-722"/>
<polygon fill="#00ffff" stroke="transparent" points="326.5,-720 326.5,-722 459.5,-722 459.5,-720 326.5,-720"/>
<polygon fill="#000000" stroke="transparent" points="326.5,-718 326.5,-720 459.5,-720 459.5,-718 326.5,-718"/>
<text text-anchor="start" x="336" y="-704.8" font-family="arial" font-size="14.00">X3:2</text>
<text text-anchor="start" x="383.5" y="-704.8" font-family="arial" font-size="14.00">PK</text>
<text text-anchor="start" x="422" y="-704.8" font-family="arial" font-size="14.00">X2:2</text>
<polygon fill="#000000" stroke="transparent" points="326.5,-697 326.5,-699 459.5,-699 459.5,-697 326.5,-697"/>
<polygon fill="#ff66cc" stroke="transparent" points="326.5,-695 326.5,-697 459.5,-697 459.5,-695 326.5,-695"/>
<polygon fill="#000000" stroke="transparent" points="326.5,-693 326.5,-695 459.5,-695 459.5,-693 326.5,-693"/>
<text text-anchor="start" x="336" y="-679.8" font-family="arial" font-size="14.00">X3:3</text>
<text text-anchor="start" x="383.5" y="-679.8" font-family="arial" font-size="14.00">YE</text>
<text text-anchor="start" x="422" y="-679.8" font-family="arial" font-size="14.00">X2:3</text>
<polygon fill="#000000" stroke="transparent" points="326.5,-672 326.5,-674 459.5,-674 459.5,-672 326.5,-672"/>
<polygon fill="#ffff00" stroke="transparent" points="326.5,-670 326.5,-672 459.5,-672 459.5,-670 326.5,-670"/>
<polygon fill="#000000" stroke="transparent" points="326.5,-668 326.5,-670 459.5,-670 459.5,-668 326.5,-668"/>
<text text-anchor="start" x="336" y="-654.8" font-family="arial" font-size="14.00">X3:4</text>
<text text-anchor="start" x="384" y="-654.8" font-family="arial" font-size="14.00">VT</text>
<text text-anchor="start" x="422" y="-654.8" font-family="arial" font-size="14.00">X2:4</text>
<polygon fill="#000000" stroke="transparent" points="326.5,-647 326.5,-649 459.5,-649 459.5,-647 326.5,-647"/>
<polygon fill="#8000ff" stroke="transparent" points="326.5,-645 326.5,-647 459.5,-647 459.5,-645 326.5,-645"/>
<polygon fill="#000000" stroke="transparent" points="326.5,-643 326.5,-645 459.5,-645 459.5,-643 326.5,-643"/>
<text text-anchor="start" x="348" y="-629.8" font-family="arial" font-size="14.00"> </text>
</g>
<!-- X3&#45;&#45;W2 -->
<g id="edge9" class="edge">
<title>X3:e&#45;&#45;W2:w</title>
<path fill="none" stroke="#000000" stroke-width="2" d="M182,-613C263.45,-615.28 248.51,-721.28 326,-719"/>
<path fill="none" stroke="#00ffff" stroke-width="2" d="M182,-615C261.47,-615 246.53,-721 326,-721"/>
<path fill="none" stroke="#000000" stroke-width="2" d="M182,-617C259.49,-614.72 244.55,-720.72 326,-723"/>
</g>
<!-- X3&#45;&#45;W2 -->
<g id="edge11" class="edge">
<title>X3:e&#45;&#45;W2:w</title>
<path fill="none" stroke="#000000" stroke-width="2" d="M182,-589C263.19,-591.27 248.77,-696.27 326,-694"/>
<path fill="none" stroke="#ff66cc" stroke-width="2" d="M182,-591C261.21,-591 246.79,-696 326,-696"/>
<path fill="none" stroke="#000000" stroke-width="2" d="M182,-593C259.23,-590.73 244.81,-695.73 326,-698"/>
</g>
<!-- X3&#45;&#45;W2 -->
<g id="edge13" class="edge">
<title>X3:e&#45;&#45;W2:w</title>
<path fill="none" stroke="#000000" stroke-width="2" d="M182,-566C262.67,-568.26 249.3,-671.26 326,-669"/>
<path fill="none" stroke="#ffff00" stroke-width="2" d="M182,-568C260.69,-568 247.31,-671 326,-671"/>
<path fill="none" stroke="#000000" stroke-width="2" d="M182,-570C258.7,-567.74 245.33,-670.74 326,-673"/>
</g>
<!-- X3&#45;&#45;W2 -->
<g id="edge15" class="edge">
<title>X3:e&#45;&#45;W2:w</title>
<path fill="none" stroke="#000000" stroke-width="2" d="M182,-543C262.16,-545.24 249.81,-646.24 326,-644"/>
<path fill="none" stroke="#8000ff" stroke-width="2" d="M182,-545C260.17,-545 247.83,-646 326,-646"/>
<path fill="none" stroke="#000000" stroke-width="2" d="M182,-547C258.19,-544.76 245.84,-645.76 326,-648"/>
</g>
<!-- W3 -->
<g id="node9" class="node">
<title>W3</title>
<polygon fill="white" stroke="black" stroke-dasharray="5,2" points="459,-600 326,-600 326,-416 459,-416 459,-600"/>
<polygon fill="none" stroke="black" points="326.5,-577 326.5,-600 459.5,-600 459.5,-577 326.5,-577"/>
<text text-anchor="start" x="382" y="-584.8" font-family="arial" font-size="14.00">W3</text>
<polygon fill="none" stroke="black" points="326.5,-554 326.5,-577 349.5,-577 349.5,-554 326.5,-554"/>
<text text-anchor="start" x="330.5" y="-561.8" font-family="arial" font-size="14.00">4x</text>
<polygon fill="none" stroke="black" points="349.5,-554 349.5,-577 416.5,-577 416.5,-554 349.5,-554"/>
<text text-anchor="start" x="353.5" y="-561.8" font-family="arial" font-size="14.00">0.25 mm²</text>
<polygon fill="none" stroke="black" points="416.5,-554 416.5,-577 459.5,-577 459.5,-554 416.5,-554"/>
<text text-anchor="start" x="420.5" y="-561.8" font-family="arial" font-size="14.00">0.2 m</text>
<text text-anchor="start" x="348" y="-540.8" font-family="arial" font-size="14.00"> </text>
<text text-anchor="start" x="336" y="-521.8" font-family="arial" font-size="14.00">X3:1</text>
<text text-anchor="start" x="383" y="-521.8" font-family="arial" font-size="14.00">TQ</text>
<text text-anchor="start" x="422" y="-521.8" font-family="arial" font-size="14.00">X4:1</text>
<polygon fill="#000000" stroke="transparent" points="326.5,-514 326.5,-516 459.5,-516 459.5,-514 326.5,-514"/>
<polygon fill="#00ffff" stroke="transparent" points="326.5,-512 326.5,-514 459.5,-514 459.5,-512 326.5,-512"/>
<polygon fill="#000000" stroke="transparent" points="326.5,-510 326.5,-512 459.5,-512 459.5,-510 326.5,-510"/>
<text text-anchor="start" x="336" y="-496.8" font-family="arial" font-size="14.00">X3:2</text>
<text text-anchor="start" x="383.5" y="-496.8" font-family="arial" font-size="14.00">PK</text>
<text text-anchor="start" x="422" y="-496.8" font-family="arial" font-size="14.00">X4:2</text>
<polygon fill="#000000" stroke="transparent" points="326.5,-489 326.5,-491 459.5,-491 459.5,-489 326.5,-489"/>
<polygon fill="#ff66cc" stroke="transparent" points="326.5,-487 326.5,-489 459.5,-489 459.5,-487 326.5,-487"/>
<polygon fill="#000000" stroke="transparent" points="326.5,-485 326.5,-487 459.5,-487 459.5,-485 326.5,-485"/>
<text text-anchor="start" x="336" y="-471.8" font-family="arial" font-size="14.00">X3:3</text>
<text text-anchor="start" x="383.5" y="-471.8" font-family="arial" font-size="14.00">YE</text>
<text text-anchor="start" x="422" y="-471.8" font-family="arial" font-size="14.00">X4:3</text>
<polygon fill="#000000" stroke="transparent" points="326.5,-464 326.5,-466 459.5,-466 459.5,-464 326.5,-464"/>
<polygon fill="#ffff00" stroke="transparent" points="326.5,-462 326.5,-464 459.5,-464 459.5,-462 326.5,-462"/>
<polygon fill="#000000" stroke="transparent" points="326.5,-460 326.5,-462 459.5,-462 459.5,-460 326.5,-460"/>
<text text-anchor="start" x="336" y="-446.8" font-family="arial" font-size="14.00">X3:4</text>
<text text-anchor="start" x="384" y="-446.8" font-family="arial" font-size="14.00">VT</text>
<text text-anchor="start" x="422" y="-446.8" font-family="arial" font-size="14.00">X4:4</text>
<polygon fill="#000000" stroke="transparent" points="326.5,-439 326.5,-441 459.5,-441 459.5,-439 326.5,-439"/>
<polygon fill="#8000ff" stroke="transparent" points="326.5,-437 326.5,-439 459.5,-439 459.5,-437 326.5,-437"/>
<polygon fill="#000000" stroke="transparent" points="326.5,-435 326.5,-437 459.5,-437 459.5,-435 326.5,-435"/>
<text text-anchor="start" x="348" y="-421.8" font-family="arial" font-size="14.00"> </text>
</g>
<!-- X3&#45;&#45;W3 -->
<g id="edge17" class="edge">
<title>X3:e&#45;&#45;W3:w</title>
<path fill="none" stroke="#000000" stroke-width="2" d="M182,-613C258.44,-615.25 245.59,-513.25 326,-511"/>
<path fill="none" stroke="#00ffff" stroke-width="2" d="M182,-615C260.43,-615 247.57,-513 326,-513"/>
<path fill="none" stroke="#000000" stroke-width="2" d="M182,-617C262.41,-614.75 249.56,-512.75 326,-515"/>
</g>
<!-- X3&#45;&#45;W3 -->
<g id="edge19" class="edge">
<title>X3:e&#45;&#45;W3:w</title>
<path fill="none" stroke="#000000" stroke-width="2" d="M182,-589C258.7,-591.26 245.33,-488.26 326,-486"/>
<path fill="none" stroke="#ff66cc" stroke-width="2" d="M182,-591C260.69,-591 247.31,-488 326,-488"/>
<path fill="none" stroke="#000000" stroke-width="2" d="M182,-593C262.67,-590.74 249.3,-487.74 326,-490"/>
</g>
<!-- X3&#45;&#45;W3 -->
<g id="edge21" class="edge">
<title>X3:e&#45;&#45;W3:w</title>
<path fill="none" stroke="#000000" stroke-width="2" d="M182,-566C259.23,-568.27 244.81,-463.27 326,-461"/>
<path fill="none" stroke="#ffff00" stroke-width="2" d="M182,-568C261.21,-568 246.79,-463 326,-463"/>
<path fill="none" stroke="#000000" stroke-width="2" d="M182,-570C263.19,-567.73 248.77,-462.73 326,-465"/>
</g>
<!-- X3&#45;&#45;W3 -->
<g id="edge23" class="edge">
<title>X3:e&#45;&#45;W3:w</title>
<path fill="none" stroke="#000000" stroke-width="2" d="M182,-543C259.75,-545.29 244.29,-438.29 326,-436"/>
<path fill="none" stroke="#8000ff" stroke-width="2" d="M182,-545C261.73,-545 246.27,-438 326,-438"/>
<path fill="none" stroke="#000000" stroke-width="2" d="M182,-547C263.71,-544.71 248.25,-437.71 326,-440"/>
</g>
<!-- X4 -->
<g id="node4" class="node">
<title>X4</title>
<polygon fill="white" stroke="transparent" points="785,-464 603,-464 603,-326 785,-326 785,-464"/>
<polygon fill="none" stroke="black" points="603,-441 603,-464 785,-464 785,-441 603,-441"/>
<text text-anchor="start" x="685.5" y="-448.8" font-family="arial" font-size="14.00">X4</text>
<polygon fill="none" stroke="black" points="603,-418 603,-441 696,-441 696,-418 603,-418"/>
<text text-anchor="start" x="607" y="-425.8" font-family="arial" font-size="14.00">Molex KK 254</text>
<polygon fill="none" stroke="black" points="696,-418 696,-441 746,-441 746,-418 696,-418"/>
<text text-anchor="start" x="700" y="-425.8" font-family="arial" font-size="14.00">female</text>
<polygon fill="none" stroke="black" points="746,-418 746,-441 785,-441 785,-418 746,-418"/>
<text text-anchor="start" x="750" y="-425.8" font-family="arial" font-size="14.00">4&#45;pin</text>
<polygon fill="none" stroke="black" points="603,-395 603,-418 683,-418 683,-395 603,-395"/>
<text text-anchor="start" x="639" y="-402.8" font-family="arial" font-size="14.00">1</text>
<polygon fill="none" stroke="black" points="683,-395 683,-418 785,-418 785,-395 683,-395"/>
<text text-anchor="start" x="718.5" y="-402.8" font-family="arial" font-size="14.00">GND</text>
<polygon fill="none" stroke="black" points="603,-372 603,-395 683,-395 683,-372 603,-372"/>
<text text-anchor="start" x="639" y="-379.8" font-family="arial" font-size="14.00">2</text>
<polygon fill="none" stroke="black" points="683,-372 683,-395 785,-395 785,-372 683,-372"/>
<text text-anchor="start" x="719.5" y="-379.8" font-family="arial" font-size="14.00">VCC</text>
<polygon fill="none" stroke="black" points="603,-349 603,-372 683,-372 683,-349 603,-349"/>
<text text-anchor="start" x="639" y="-356.8" font-family="arial" font-size="14.00">3</text>
<polygon fill="none" stroke="black" points="683,-349 683,-372 785,-372 785,-349 683,-349"/>
<text text-anchor="start" x="720.5" y="-356.8" font-family="arial" font-size="14.00">SCL</text>
<polygon fill="none" stroke="black" points="603,-326 603,-349 683,-349 683,-326 603,-326"/>
<text text-anchor="start" x="639" y="-333.8" font-family="arial" font-size="14.00">4</text>
<polygon fill="none" stroke="black" points="683,-326 683,-349 785,-349 785,-326 683,-326"/>
<text text-anchor="start" x="720" y="-333.8" font-family="arial" font-size="14.00">SDA</text>
</g>
<!-- X5 -->
<g id="node5" class="node">
<title>X5</title>
<polygon fill="white" stroke="transparent" points="182,-255 0,-255 0,-117 182,-117 182,-255"/>
<polygon fill="none" stroke="black" points="0,-232 0,-255 182,-255 182,-232 0,-232"/>
<text text-anchor="start" x="82.5" y="-239.8" font-family="arial" font-size="14.00">X5</text>
<polygon fill="none" stroke="black" points="0,-209 0,-232 93,-232 93,-209 0,-209"/>
<text text-anchor="start" x="4" y="-216.8" font-family="arial" font-size="14.00">Molex KK 254</text>
<polygon fill="none" stroke="black" points="93,-209 93,-232 143,-232 143,-209 93,-209"/>
<text text-anchor="start" x="97" y="-216.8" font-family="arial" font-size="14.00">female</text>
<polygon fill="none" stroke="black" points="143,-209 143,-232 182,-232 182,-209 143,-209"/>
<text text-anchor="start" x="147" y="-216.8" font-family="arial" font-size="14.00">4&#45;pin</text>
<polygon fill="none" stroke="black" points="0,-186 0,-209 103,-209 103,-186 0,-186"/>
<text text-anchor="start" x="36" y="-193.8" font-family="arial" font-size="14.00">GND</text>
<polygon fill="none" stroke="black" points="103,-186 103,-209 182,-209 182,-186 103,-186"/>
<text text-anchor="start" x="138.5" y="-193.8" font-family="arial" font-size="14.00">1</text>
<polygon fill="none" stroke="black" points="0,-163 0,-186 103,-186 103,-163 0,-163"/>
<text text-anchor="start" x="37" y="-170.8" font-family="arial" font-size="14.00">VCC</text>
<polygon fill="none" stroke="black" points="103,-163 103,-186 182,-186 182,-163 103,-163"/>
<text text-anchor="start" x="138.5" y="-170.8" font-family="arial" font-size="14.00">2</text>
<polygon fill="none" stroke="black" points="0,-140 0,-163 103,-163 103,-140 0,-140"/>
<text text-anchor="start" x="38" y="-147.8" font-family="arial" font-size="14.00">SCL</text>
<polygon fill="none" stroke="black" points="103,-140 103,-163 182,-163 182,-140 103,-140"/>
<text text-anchor="start" x="138.5" y="-147.8" font-family="arial" font-size="14.00">3</text>
<polygon fill="none" stroke="black" points="0,-117 0,-140 103,-140 103,-117 0,-117"/>
<text text-anchor="start" x="37.5" y="-124.8" font-family="arial" font-size="14.00">SDA</text>
<polygon fill="none" stroke="black" points="103,-117 103,-140 182,-140 182,-117 103,-117"/>
<text text-anchor="start" x="138.5" y="-124.8" font-family="arial" font-size="14.00">4</text>
</g>
<!-- W4 -->
<g id="node10" class="node">
<title>W4</title>
<polygon fill="white" stroke="black" stroke-dasharray="5,2" points="459,-392 326,-392 326,-208 459,-208 459,-392"/>
<polygon fill="none" stroke="black" points="326.5,-369 326.5,-392 459.5,-392 459.5,-369 326.5,-369"/>
<text text-anchor="start" x="382" y="-376.8" font-family="arial" font-size="14.00">W4</text>
<polygon fill="none" stroke="black" points="326.5,-346 326.5,-369 349.5,-369 349.5,-346 326.5,-346"/>
<text text-anchor="start" x="330.5" y="-353.8" font-family="arial" font-size="14.00">4x</text>
<polygon fill="none" stroke="black" points="349.5,-346 349.5,-369 416.5,-369 416.5,-346 349.5,-346"/>
<text text-anchor="start" x="353.5" y="-353.8" font-family="arial" font-size="14.00">0.25 mm²</text>
<polygon fill="none" stroke="black" points="416.5,-346 416.5,-369 459.5,-369 459.5,-346 416.5,-346"/>
<text text-anchor="start" x="420.5" y="-353.8" font-family="arial" font-size="14.00">0.2 m</text>
<text text-anchor="start" x="348" y="-332.8" font-family="arial" font-size="14.00"> </text>
<text text-anchor="start" x="336" y="-313.8" font-family="arial" font-size="14.00">X5:1</text>
<text text-anchor="start" x="383" y="-313.8" font-family="arial" font-size="14.00">TQ</text>
<text text-anchor="start" x="422" y="-313.8" font-family="arial" font-size="14.00">X4:1</text>
<polygon fill="#000000" stroke="transparent" points="326.5,-306 326.5,-308 459.5,-308 459.5,-306 326.5,-306"/>
<polygon fill="#00ffff" stroke="transparent" points="326.5,-304 326.5,-306 459.5,-306 459.5,-304 326.5,-304"/>
<polygon fill="#000000" stroke="transparent" points="326.5,-302 326.5,-304 459.5,-304 459.5,-302 326.5,-302"/>
<text text-anchor="start" x="336" y="-288.8" font-family="arial" font-size="14.00">X5:2</text>
<text text-anchor="start" x="383.5" y="-288.8" font-family="arial" font-size="14.00">PK</text>
<text text-anchor="start" x="422" y="-288.8" font-family="arial" font-size="14.00">X4:2</text>
<polygon fill="#000000" stroke="transparent" points="326.5,-281 326.5,-283 459.5,-283 459.5,-281 326.5,-281"/>
<polygon fill="#ff66cc" stroke="transparent" points="326.5,-279 326.5,-281 459.5,-281 459.5,-279 326.5,-279"/>
<polygon fill="#000000" stroke="transparent" points="326.5,-277 326.5,-279 459.5,-279 459.5,-277 326.5,-277"/>
<text text-anchor="start" x="336" y="-263.8" font-family="arial" font-size="14.00">X5:3</text>
<text text-anchor="start" x="383.5" y="-263.8" font-family="arial" font-size="14.00">YE</text>
<text text-anchor="start" x="422" y="-263.8" font-family="arial" font-size="14.00">X4:3</text>
<polygon fill="#000000" stroke="transparent" points="326.5,-256 326.5,-258 459.5,-258 459.5,-256 326.5,-256"/>
<polygon fill="#ffff00" stroke="transparent" points="326.5,-254 326.5,-256 459.5,-256 459.5,-254 326.5,-254"/>
<polygon fill="#000000" stroke="transparent" points="326.5,-252 326.5,-254 459.5,-254 459.5,-252 326.5,-252"/>
<text text-anchor="start" x="336" y="-238.8" font-family="arial" font-size="14.00">X5:4</text>
<text text-anchor="start" x="384" y="-238.8" font-family="arial" font-size="14.00">VT</text>
<text text-anchor="start" x="422" y="-238.8" font-family="arial" font-size="14.00">X4:4</text>
<polygon fill="#000000" stroke="transparent" points="326.5,-231 326.5,-233 459.5,-233 459.5,-231 326.5,-231"/>
<polygon fill="#8000ff" stroke="transparent" points="326.5,-229 326.5,-231 459.5,-231 459.5,-229 326.5,-229"/>
<polygon fill="#000000" stroke="transparent" points="326.5,-227 326.5,-229 459.5,-229 459.5,-227 326.5,-227"/>
<text text-anchor="start" x="348" y="-213.8" font-family="arial" font-size="14.00"> </text>
</g>
<!-- X5&#45;&#45;W4 -->
<g id="edge25" class="edge">
<title>X5:e&#45;&#45;W4:w</title>
<path fill="none" stroke="#000000" stroke-width="2" d="M182,-196C263.71,-198.29 248.25,-305.29 326,-303"/>
<path fill="none" stroke="#00ffff" stroke-width="2" d="M182,-198C261.73,-198 246.27,-305 326,-305"/>
<path fill="none" stroke="#000000" stroke-width="2" d="M182,-200C259.75,-197.71 244.29,-304.71 326,-307"/>
</g>
<!-- X5&#45;&#45;W4 -->
<g id="edge27" class="edge">
<title>X5:e&#45;&#45;W4:w</title>
<path fill="none" stroke="#000000" stroke-width="2" d="M182,-172C263.45,-174.28 248.51,-280.28 326,-278"/>
<path fill="none" stroke="#ff66cc" stroke-width="2" d="M182,-174C261.47,-174 246.53,-280 326,-280"/>
<path fill="none" stroke="#000000" stroke-width="2" d="M182,-176C259.49,-173.72 244.55,-279.72 326,-282"/>
</g>
<!-- X5&#45;&#45;W4 -->
<g id="edge29" class="edge">
<title>X5:e&#45;&#45;W4:w</title>
<path fill="none" stroke="#000000" stroke-width="2" d="M182,-149C262.93,-151.26 249.04,-255.26 326,-253"/>
<path fill="none" stroke="#ffff00" stroke-width="2" d="M182,-151C260.95,-151 247.05,-255 326,-255"/>
<path fill="none" stroke="#000000" stroke-width="2" d="M182,-153C258.96,-150.74 245.07,-254.74 326,-257"/>
</g>
<!-- X5&#45;&#45;W4 -->
<g id="edge31" class="edge">
<title>X5:e&#45;&#45;W4:w</title>
<path fill="none" stroke="#000000" stroke-width="2" d="M182,-126C262.41,-128.25 249.56,-230.25 326,-228"/>
<path fill="none" stroke="#8000ff" stroke-width="2" d="M182,-128C260.43,-128 247.57,-230 326,-230"/>
<path fill="none" stroke="#000000" stroke-width="2" d="M182,-130C258.44,-127.75 245.59,-229.75 326,-232"/>
</g>
<!-- W5 -->
<g id="node11" class="node">
<title>W5</title>
<polygon fill="white" stroke="black" stroke-dasharray="5,2" points="459,-184 326,-184 326,0 459,0 459,-184"/>
<polygon fill="none" stroke="black" points="326.5,-161 326.5,-184 459.5,-184 459.5,-161 326.5,-161"/>
<text text-anchor="start" x="382" y="-168.8" font-family="arial" font-size="14.00">W5</text>
<polygon fill="none" stroke="black" points="326.5,-138 326.5,-161 349.5,-161 349.5,-138 326.5,-138"/>
<text text-anchor="start" x="330.5" y="-145.8" font-family="arial" font-size="14.00">4x</text>
<polygon fill="none" stroke="black" points="349.5,-138 349.5,-161 416.5,-161 416.5,-138 349.5,-138"/>
<text text-anchor="start" x="353.5" y="-145.8" font-family="arial" font-size="14.00">0.25 mm²</text>
<polygon fill="none" stroke="black" points="416.5,-138 416.5,-161 459.5,-161 459.5,-138 416.5,-138"/>
<text text-anchor="start" x="420.5" y="-145.8" font-family="arial" font-size="14.00">0.2 m</text>
<text text-anchor="start" x="348" y="-124.8" font-family="arial" font-size="14.00"> </text>
<text text-anchor="start" x="336" y="-105.8" font-family="arial" font-size="14.00">X5:1</text>
<text text-anchor="start" x="383" y="-105.8" font-family="arial" font-size="14.00">TQ</text>
<text text-anchor="start" x="422" y="-105.8" font-family="arial" font-size="14.00">X6:1</text>
<polygon fill="#000000" stroke="transparent" points="326.5,-98 326.5,-100 459.5,-100 459.5,-98 326.5,-98"/>
<polygon fill="#00ffff" stroke="transparent" points="326.5,-96 326.5,-98 459.5,-98 459.5,-96 326.5,-96"/>
<polygon fill="#000000" stroke="transparent" points="326.5,-94 326.5,-96 459.5,-96 459.5,-94 326.5,-94"/>
<text text-anchor="start" x="336" y="-80.8" font-family="arial" font-size="14.00">X5:2</text>
<text text-anchor="start" x="383.5" y="-80.8" font-family="arial" font-size="14.00">PK</text>
<text text-anchor="start" x="422" y="-80.8" font-family="arial" font-size="14.00">X6:2</text>
<polygon fill="#000000" stroke="transparent" points="326.5,-73 326.5,-75 459.5,-75 459.5,-73 326.5,-73"/>
<polygon fill="#ff66cc" stroke="transparent" points="326.5,-71 326.5,-73 459.5,-73 459.5,-71 326.5,-71"/>
<polygon fill="#000000" stroke="transparent" points="326.5,-69 326.5,-71 459.5,-71 459.5,-69 326.5,-69"/>
<text text-anchor="start" x="336" y="-55.8" font-family="arial" font-size="14.00">X5:3</text>
<text text-anchor="start" x="383.5" y="-55.8" font-family="arial" font-size="14.00">YE</text>
<text text-anchor="start" x="422" y="-55.8" font-family="arial" font-size="14.00">X6:3</text>
<polygon fill="#000000" stroke="transparent" points="326.5,-48 326.5,-50 459.5,-50 459.5,-48 326.5,-48"/>
<polygon fill="#ffff00" stroke="transparent" points="326.5,-46 326.5,-48 459.5,-48 459.5,-46 326.5,-46"/>
<polygon fill="#000000" stroke="transparent" points="326.5,-44 326.5,-46 459.5,-46 459.5,-44 326.5,-44"/>
<text text-anchor="start" x="336" y="-30.8" font-family="arial" font-size="14.00">X5:4</text>
<text text-anchor="start" x="384" y="-30.8" font-family="arial" font-size="14.00">VT</text>
<text text-anchor="start" x="422" y="-30.8" font-family="arial" font-size="14.00">X6:4</text>
<polygon fill="#000000" stroke="transparent" points="326.5,-23 326.5,-25 459.5,-25 459.5,-23 326.5,-23"/>
<polygon fill="#8000ff" stroke="transparent" points="326.5,-21 326.5,-23 459.5,-23 459.5,-21 326.5,-21"/>
<polygon fill="#000000" stroke="transparent" points="326.5,-19 326.5,-21 459.5,-21 459.5,-19 326.5,-19"/>
<text text-anchor="start" x="348" y="-5.8" font-family="arial" font-size="14.00"> </text>
</g>
<!-- X5&#45;&#45;W5 -->
<g id="edge33" class="edge">
<title>X5:e&#45;&#45;W5:w</title>
<path fill="none" stroke="#000000" stroke-width="2" d="M182,-196C258.19,-198.24 245.84,-97.24 326,-95"/>
<path fill="none" stroke="#00ffff" stroke-width="2" d="M182,-198C260.17,-198 247.83,-97 326,-97"/>
<path fill="none" stroke="#000000" stroke-width="2" d="M182,-200C262.16,-197.76 249.81,-96.76 326,-99"/>
</g>
<!-- X5&#45;&#45;W5 -->
<g id="edge35" class="edge">
<title>X5:e&#45;&#45;W5:w</title>
<path fill="none" stroke="#000000" stroke-width="2" d="M182,-172C258.44,-174.25 245.59,-72.25 326,-70"/>
<path fill="none" stroke="#ff66cc" stroke-width="2" d="M182,-174C260.43,-174 247.57,-72 326,-72"/>
<path fill="none" stroke="#000000" stroke-width="2" d="M182,-176C262.41,-173.75 249.56,-71.75 326,-74"/>
</g>
<!-- X5&#45;&#45;W5 -->
<g id="edge37" class="edge">
<title>X5:e&#45;&#45;W5:w</title>
<path fill="none" stroke="#000000" stroke-width="2" d="M182,-149C258.96,-151.26 245.07,-47.26 326,-45"/>
<path fill="none" stroke="#ffff00" stroke-width="2" d="M182,-151C260.95,-151 247.05,-47 326,-47"/>
<path fill="none" stroke="#000000" stroke-width="2" d="M182,-153C262.93,-150.74 249.04,-46.74 326,-49"/>
</g>
<!-- X5&#45;&#45;W5 -->
<g id="edge39" class="edge">
<title>X5:e&#45;&#45;W5:w</title>
<path fill="none" stroke="#000000" stroke-width="2" d="M182,-126C259.49,-128.28 244.55,-22.28 326,-20"/>
<path fill="none" stroke="#8000ff" stroke-width="2" d="M182,-128C261.47,-128 246.53,-22 326,-22"/>
<path fill="none" stroke="#000000" stroke-width="2" d="M182,-130C263.45,-127.72 248.51,-21.72 326,-24"/>
</g>
<!-- X6 -->
<g id="node6" class="node">
<title>X6</title>
<polygon fill="white" stroke="transparent" points="785,-152 603,-152 603,-14 785,-14 785,-152"/>
<polygon fill="none" stroke="black" points="603,-129 603,-152 785,-152 785,-129 603,-129"/>
<text text-anchor="start" x="685.5" y="-136.8" font-family="arial" font-size="14.00">X6</text>
<polygon fill="none" stroke="black" points="603,-106 603,-129 696,-129 696,-106 603,-106"/>
<text text-anchor="start" x="607" y="-113.8" font-family="arial" font-size="14.00">Molex KK 254</text>
<polygon fill="none" stroke="black" points="696,-106 696,-129 746,-129 746,-106 696,-106"/>
<text text-anchor="start" x="700" y="-113.8" font-family="arial" font-size="14.00">female</text>
<polygon fill="none" stroke="black" points="746,-106 746,-129 785,-129 785,-106 746,-106"/>
<text text-anchor="start" x="750" y="-113.8" font-family="arial" font-size="14.00">4&#45;pin</text>
<polygon fill="none" stroke="black" points="603,-83 603,-106 683,-106 683,-83 603,-83"/>
<text text-anchor="start" x="639" y="-90.8" font-family="arial" font-size="14.00">1</text>
<polygon fill="none" stroke="black" points="683,-83 683,-106 785,-106 785,-83 683,-83"/>
<text text-anchor="start" x="718.5" y="-90.8" font-family="arial" font-size="14.00">GND</text>
<polygon fill="none" stroke="black" points="603,-60 603,-83 683,-83 683,-60 603,-60"/>
<text text-anchor="start" x="639" y="-67.8" font-family="arial" font-size="14.00">2</text>
<polygon fill="none" stroke="black" points="683,-60 683,-83 785,-83 785,-60 683,-60"/>
<text text-anchor="start" x="719.5" y="-67.8" font-family="arial" font-size="14.00">VCC</text>
<polygon fill="none" stroke="black" points="603,-37 603,-60 683,-60 683,-37 603,-37"/>
<text text-anchor="start" x="639" y="-44.8" font-family="arial" font-size="14.00">3</text>
<polygon fill="none" stroke="black" points="683,-37 683,-60 785,-60 785,-37 683,-37"/>
<text text-anchor="start" x="720.5" y="-44.8" font-family="arial" font-size="14.00">SCL</text>
<polygon fill="none" stroke="black" points="603,-14 603,-37 683,-37 683,-14 603,-14"/>
<text text-anchor="start" x="639" y="-21.8" font-family="arial" font-size="14.00">4</text>
<polygon fill="none" stroke="black" points="683,-14 683,-37 785,-37 785,-14 683,-14"/>
<text text-anchor="start" x="720" y="-21.8" font-family="arial" font-size="14.00">SDA</text>
</g>
<!-- W1&#45;&#45;X2 -->
<g id="edge2" class="edge">
<title>W1:e&#45;&#45;X2:w</title>
<path fill="none" stroke="#000000" stroke-width="2" d="M459,-927C536.75,-929.29 521.29,-822.29 603,-820"/>
<path fill="none" stroke="#00ffff" stroke-width="2" d="M459,-929C538.73,-929 523.27,-822 603,-822"/>
<path fill="none" stroke="#000000" stroke-width="2" d="M459,-931C540.71,-928.71 525.25,-821.71 603,-824"/>
</g>
<!-- W1&#45;&#45;X2 -->
<g id="edge4" class="edge">
<title>W1:e&#45;&#45;X2:w</title>
<path fill="none" stroke="#000000" stroke-width="2" d="M459,-902C536.49,-904.28 521.55,-798.28 603,-796"/>
<path fill="none" stroke="#ff66cc" stroke-width="2" d="M459,-904C538.47,-904 523.53,-798 603,-798"/>
<path fill="none" stroke="#000000" stroke-width="2" d="M459,-906C540.45,-903.72 525.51,-797.72 603,-800"/>
</g>
<!-- W1&#45;&#45;X2 -->
<g id="edge6" class="edge">
<title>W1:e&#45;&#45;X2:w</title>
<path fill="none" stroke="#000000" stroke-width="2" d="M459,-877C535.96,-879.26 522.07,-775.26 603,-773"/>
<path fill="none" stroke="#ffff00" stroke-width="2" d="M459,-879C537.95,-879 524.05,-775 603,-775"/>
<path fill="none" stroke="#000000" stroke-width="2" d="M459,-881C539.93,-878.74 526.04,-774.74 603,-777"/>
</g>
<!-- W1&#45;&#45;X2 -->
<g id="edge8" class="edge">
<title>W1:e&#45;&#45;X2:w</title>
<path fill="none" stroke="#000000" stroke-width="2" d="M459,-852C535.44,-854.25 522.59,-752.25 603,-750"/>
<path fill="none" stroke="#8000ff" stroke-width="2" d="M459,-854C537.43,-854 524.57,-752 603,-752"/>
<path fill="none" stroke="#000000" stroke-width="2" d="M459,-856C539.41,-853.75 526.56,-751.75 603,-754"/>
</g>
<!-- W2&#45;&#45;X2 -->
<g id="edge10" class="edge">
<title>W2:e&#45;&#45;X2:w</title>
<path fill="none" stroke="#000000" stroke-width="2" d="M459,-719C539.16,-721.24 526.81,-822.24 603,-820"/>
<path fill="none" stroke="#00ffff" stroke-width="2" d="M459,-721C537.17,-721 524.83,-822 603,-822"/>
<path fill="none" stroke="#000000" stroke-width="2" d="M459,-723C535.19,-720.76 522.84,-821.76 603,-824"/>
</g>
<!-- W2&#45;&#45;X2 -->
<g id="edge12" class="edge">
<title>W2:e&#45;&#45;X2:w</title>
<path fill="none" stroke="#000000" stroke-width="2" d="M459,-694C539.41,-696.25 526.56,-798.25 603,-796"/>
<path fill="none" stroke="#ff66cc" stroke-width="2" d="M459,-696C537.43,-696 524.57,-798 603,-798"/>
<path fill="none" stroke="#000000" stroke-width="2" d="M459,-698C535.44,-695.75 522.59,-797.75 603,-800"/>
</g>
<!-- W2&#45;&#45;X2 -->
<g id="edge14" class="edge">
<title>W2:e&#45;&#45;X2:w</title>
<path fill="none" stroke="#000000" stroke-width="2" d="M459,-669C539.93,-671.26 526.04,-775.26 603,-773"/>
<path fill="none" stroke="#ffff00" stroke-width="2" d="M459,-671C537.95,-671 524.05,-775 603,-775"/>
<path fill="none" stroke="#000000" stroke-width="2" d="M459,-673C535.96,-670.74 522.07,-774.74 603,-777"/>
</g>
<!-- W2&#45;&#45;X2 -->
<g id="edge16" class="edge">
<title>W2:e&#45;&#45;X2:w</title>
<path fill="none" stroke="#000000" stroke-width="2" d="M459,-644C540.45,-646.28 525.51,-752.28 603,-750"/>
<path fill="none" stroke="#8000ff" stroke-width="2" d="M459,-646C538.47,-646 523.53,-752 603,-752"/>
<path fill="none" stroke="#000000" stroke-width="2" d="M459,-648C536.49,-645.72 521.55,-751.72 603,-754"/>
</g>
<!-- W3&#45;&#45;X4 -->
<g id="edge18" class="edge">
<title>W3:e&#45;&#45;X4:w</title>
<path fill="none" stroke="#000000" stroke-width="2" d="M459,-511C536.49,-513.28 521.55,-407.28 603,-405"/>
<path fill="none" stroke="#00ffff" stroke-width="2" d="M459,-513C538.47,-513 523.53,-407 603,-407"/>
<path fill="none" stroke="#000000" stroke-width="2" d="M459,-515C540.45,-512.72 525.51,-406.72 603,-409"/>
</g>
<!-- W3&#45;&#45;X4 -->
<g id="edge20" class="edge">
<title>W3:e&#45;&#45;X4:w</title>
<path fill="none" stroke="#000000" stroke-width="2" d="M459,-486C536.23,-488.27 521.81,-383.27 603,-381"/>
<path fill="none" stroke="#ff66cc" stroke-width="2" d="M459,-488C538.21,-488 523.79,-383 603,-383"/>
<path fill="none" stroke="#000000" stroke-width="2" d="M459,-490C540.19,-487.73 525.77,-382.73 603,-385"/>
</g>
<!-- W3&#45;&#45;X4 -->
<g id="edge22" class="edge">
<title>W3:e&#45;&#45;X4:w</title>
<path fill="none" stroke="#000000" stroke-width="2" d="M459,-461C535.7,-463.26 522.33,-360.26 603,-358"/>
<path fill="none" stroke="#ffff00" stroke-width="2" d="M459,-463C537.69,-463 524.31,-360 603,-360"/>
<path fill="none" stroke="#000000" stroke-width="2" d="M459,-465C539.67,-462.74 526.3,-359.74 603,-362"/>
</g>
<!-- W3&#45;&#45;X4 -->
<g id="edge24" class="edge">
<title>W3:e&#45;&#45;X4:w</title>
<path fill="none" stroke="#000000" stroke-width="2" d="M459,-436C535.19,-438.24 522.84,-337.24 603,-335"/>
<path fill="none" stroke="#8000ff" stroke-width="2" d="M459,-438C537.17,-438 524.83,-337 603,-337"/>
<path fill="none" stroke="#000000" stroke-width="2" d="M459,-440C539.16,-437.76 526.81,-336.76 603,-339"/>
</g>
<!-- W4&#45;&#45;X4 -->
<g id="edge26" class="edge">
<title>W4:e&#45;&#45;X4:w</title>
<path fill="none" stroke="#000000" stroke-width="2" d="M459,-303C539.41,-305.25 526.56,-407.25 603,-405"/>
<path fill="none" stroke="#00ffff" stroke-width="2" d="M459,-305C537.43,-305 524.57,-407 603,-407"/>
<path fill="none" stroke="#000000" stroke-width="2" d="M459,-307C535.44,-304.75 522.59,-406.75 603,-409"/>
</g>
<!-- W4&#45;&#45;X4 -->
<g id="edge28" class="edge">
<title>W4:e&#45;&#45;X4:w</title>
<path fill="none" stroke="#000000" stroke-width="2" d="M459,-278C539.67,-280.26 526.3,-383.26 603,-381"/>
<path fill="none" stroke="#ff66cc" stroke-width="2" d="M459,-280C537.69,-280 524.31,-383 603,-383"/>
<path fill="none" stroke="#000000" stroke-width="2" d="M459,-282C535.7,-279.74 522.33,-382.74 603,-385"/>
</g>
<!-- W4&#45;&#45;X4 -->
<g id="edge30" class="edge">
<title>W4:e&#45;&#45;X4:w</title>
<path fill="none" stroke="#000000" stroke-width="2" d="M459,-253C540.19,-255.27 525.77,-360.27 603,-358"/>
<path fill="none" stroke="#ffff00" stroke-width="2" d="M459,-255C538.21,-255 523.79,-360 603,-360"/>
<path fill="none" stroke="#000000" stroke-width="2" d="M459,-257C536.23,-254.73 521.81,-359.73 603,-362"/>
</g>
<!-- W4&#45;&#45;X4 -->
<g id="edge32" class="edge">
<title>W4:e&#45;&#45;X4:w</title>
<path fill="none" stroke="#000000" stroke-width="2" d="M459,-228C540.71,-230.29 525.25,-337.29 603,-335"/>
<path fill="none" stroke="#8000ff" stroke-width="2" d="M459,-230C538.73,-230 523.27,-337 603,-337"/>
<path fill="none" stroke="#000000" stroke-width="2" d="M459,-232C536.75,-229.71 521.29,-336.71 603,-339"/>
</g>
<!-- W5&#45;&#45;X6 -->
<g id="edge34" class="edge">
<title>W5:e&#45;&#45;X6:w</title>
<path fill="none" stroke="#000000" stroke-width="2" d="M459,-95C522.76,-95.02 538.75,-93.02 603,-93"/>
<path fill="none" stroke="#00ffff" stroke-width="2" d="M459,-97C523.01,-97 538.99,-95 603,-95"/>
<path fill="none" stroke="#000000" stroke-width="2" d="M459,-99C523.25,-98.98 539.24,-96.98 603,-97"/>
</g>
<!-- W5&#45;&#45;X6 -->
<g id="edge36" class="edge">
<title>W5:e&#45;&#45;X6:w</title>
<path fill="none" stroke="#000000" stroke-width="2" d="M459,-70C522.88,-70 538.87,-69 603,-69"/>
<path fill="none" stroke="#ff66cc" stroke-width="2" d="M459,-72C523,-72 539,-71 603,-71"/>
<path fill="none" stroke="#000000" stroke-width="2" d="M459,-74C523.13,-74 539.12,-73 603,-73"/>
</g>
<!-- W5&#45;&#45;X6 -->
<g id="edge38" class="edge">
<title>W5:e&#45;&#45;X6:w</title>
<path fill="none" stroke="#000000" stroke-width="2" d="M459,-45C523.13,-45 539.12,-46 603,-46"/>
<path fill="none" stroke="#ffff00" stroke-width="2" d="M459,-47C523,-47 539,-48 603,-48"/>
<path fill="none" stroke="#000000" stroke-width="2" d="M459,-49C522.88,-49 538.87,-50 603,-50"/>
</g>
<!-- W5&#45;&#45;X6 -->
<g id="edge40" class="edge">
<title>W5:e&#45;&#45;X6:w</title>
<path fill="none" stroke="#000000" stroke-width="2" d="M459,-20C523.38,-20.03 539.36,-23.03 603,-23"/>
<path fill="none" stroke="#8000ff" stroke-width="2" d="M459,-22C523.01,-22 538.99,-25 603,-25"/>
<path fill="none" stroke="#000000" stroke-width="2" d="M459,-24C522.64,-23.97 538.62,-26.97 603,-27"/>
</g>
</g>
</svg>
