<?xml version="1.0" encoding="UTF-8" standalone="no"?>
<!DOCTYPE svg PUBLIC "-//W3C//DTD SVG 1.1//EN"
 "http://www.w3.org/Graphics/SVG/1.1/DTD/svg11.dtd">
<!-- Generated by graphviz version 2.44.0 (20200408.0750)
 -->
<!-- Pages: 1 -->
<svg width="857pt" height="262pt"
 viewBox="0.00 0.00 857.00 262.00" xmlns="http://www.w3.org/2000/svg" xmlns:xlink="http://www.w3.org/1999/xlink">
<g id="graph0" class="graph" transform="scale(1 1) rotate(0) translate(4 258)">
<!-- X1 -->
<g id="node1" class="node">
<title>X1</title>
<polygon fill="white" stroke="black" points="0,-0.5 0,-253.5 160,-253.5 160,-0.5 0,-0.5"/>
<text text-anchor="middle" x="80" y="-238.3" font-family="arial" font-size="14.00">X1</text>
<polyline fill="none" stroke="black" points="0,-230.5 160,-230.5 "/>
<text text-anchor="middle" x="27.5" y="-215.3" font-family="arial" font-size="14.00">D&#45;Sub</text>
<polyline fill="none" stroke="black" points="55,-207.5 55,-230.5 "/>
<text text-anchor="middle" x="84" y="-215.3" font-family="arial" font-size="14.00">female</text>
<polyline fill="none" stroke="black" points="113,-207.5 113,-230.5 "/>
<text text-anchor="middle" x="136.5" y="-215.3" font-family="arial" font-size="14.00">9&#45;pin</text>
<polyline fill="none" stroke="black" points="0,-207.5 160,-207.5 "/>
<text text-anchor="middle" x="45.5" y="-192.3" font-family="arial" font-size="14.00">DCD</text>
<polyline fill="none" stroke="black" points="0,-184.5 91,-184.5 "/>
<text text-anchor="middle" x="45.5" y="-169.3" font-family="arial" font-size="14.00">RX</text>
<polyline fill="none" stroke="black" points="0,-161.5 91,-161.5 "/>
<text text-anchor="middle" x="45.5" y="-146.3" font-family="arial" font-size="14.00">TX</text>
<polyline fill="none" stroke="black" points="0,-138.5 91,-138.5 "/>
<text text-anchor="middle" x="45.5" y="-123.3" font-family="arial" font-size="14.00">DTR</text>
<polyline fill="none" stroke="black" points="0,-115.5 91,-115.5 "/>
<text text-anchor="middle" x="45.5" y="-100.3" font-family="arial" font-size="14.00">GND</text>
<polyline fill="none" stroke="black" points="0,-92.5 91,-92.5 "/>
<text text-anchor="middle" x="45.5" y="-77.3" font-family="arial" font-size="14.00">DSR</text>
<polyline fill="none" stroke="black" points="0,-69.5 91,-69.5 "/>
<text text-anchor="middle" x="45.5" y="-54.3" font-family="arial" font-size="14.00">RTS</text>
<polyline fill="none" stroke="black" points="0,-46.5 91,-46.5 "/>
<text text-anchor="middle" x="45.5" y="-31.3" font-family="arial" font-size="14.00">CTS</text>
<polyline fill="none" stroke="black" points="0,-23.5 91,-23.5 "/>
<text text-anchor="middle" x="45.5" y="-8.3" font-family="arial" font-size="14.00">RI</text>
<polyline fill="none" stroke="black" points="91,-0.5 91,-207.5 "/>
<text text-anchor="middle" x="125.5" y="-192.3" font-family="arial" font-size="14.00">1</text>
<polyline fill="none" stroke="black" points="91,-184.5 160,-184.5 "/>
<text text-anchor="middle" x="125.5" y="-169.3" font-family="arial" font-size="14.00">2</text>
<polyline fill="none" stroke="black" points="91,-161.5 160,-161.5 "/>
<text text-anchor="middle" x="125.5" y="-146.3" font-family="arial" font-size="14.00">3</text>
<polyline fill="none" stroke="black" points="91,-138.5 160,-138.5 "/>
<text text-anchor="middle" x="125.5" y="-123.3" font-family="arial" font-size="14.00">4</text>
<polyline fill="none" stroke="black" points="91,-115.5 160,-115.5 "/>
<text text-anchor="middle" x="125.5" y="-100.3" font-family="arial" font-size="14.00">5</text>
<polyline fill="none" stroke="black" points="91,-92.5 160,-92.5 "/>
<text text-anchor="middle" x="125.5" y="-77.3" font-family="arial" font-size="14.00">6</text>
<polyline fill="none" stroke="black" points="91,-69.5 160,-69.5 "/>
<text text-anchor="middle" x="125.5" y="-54.3" font-family="arial" font-size="14.00">7</text>
<polyline fill="none" stroke="black" points="91,-46.5 160,-46.5 "/>
<text text-anchor="middle" x="125.5" y="-31.3" font-family="arial" font-size="14.00">8</text>
<polyline fill="none" stroke="black" points="91,-23.5 160,-23.5 "/>
<text text-anchor="middle" x="125.5" y="-8.3" font-family="arial" font-size="14.00">9</text>
</g>
<!-- W1 -->
<g id="node3" class="node">
<title>W1</title>
<polygon fill="white" stroke="black" points="304,-104 304,-242 499,-242 499,-104 304,-104"/>
<text text-anchor="middle" x="401.5" y="-226.8" font-family="arial" font-size="14.00">W1</text>
<polyline fill="none" stroke="black" points="304,-219 499,-219 "/>
<text text-anchor="middle" x="319.5" y="-203.8" font-family="arial" font-size="14.00">3x</text>
<polyline fill="none" stroke="black" points="335,-196 335,-219 "/>
<text text-anchor="middle" x="372.5" y="-203.8" font-family="arial" font-size="14.00">0.25 mm²</text>
<polyline fill="none" stroke="black" points="410,-196 410,-219 "/>
<text text-anchor="middle" x="429" y="-203.8" font-family="arial" font-size="14.00">+ S</text>
<polyline fill="none" stroke="black" points="448,-196 448,-219 "/>
<text text-anchor="middle" x="473.5" y="-203.8" font-family="arial" font-size="14.00">0.2 m</text>
<polyline fill="none" stroke="black" points="304,-196 499,-196 "/>
<text text-anchor="middle" x="401.5" y="-180.8" font-family="arial" font-size="14.00">WH</text>
<polyline fill="none" stroke="black" points="304,-173 499,-173 "/>
<text text-anchor="middle" x="401.5" y="-157.8" font-family="arial" font-size="14.00">BN</text>
<polyline fill="none" stroke="black" points="304,-150 499,-150 "/>
<text text-anchor="middle" x="401.5" y="-134.8" font-family="arial" font-size="14.00">GN</text>
<polyline fill="none" stroke="black" points="304,-127 499,-127 "/>
<text text-anchor="middle" x="401.5" y="-111.8" font-family="arial" font-size="14.00">Shield</text>
</g>
<!-- X1&#45;&#45;W1 -->
<g id="edge2" class="edge">
<title>X1:p5r&#45;&#45;W1:w1</title>
<path fill="none" stroke="#000000" stroke-width="2" d="M160,-102C235.43,-104.07 232.57,-185.07 304,-183"/>
<path fill="none" stroke="#ffffff" stroke-width="2" d="M160,-104C233.43,-104 230.57,-185 304,-185"/>
<path fill="none" stroke="#000000" stroke-width="2" d="M160,-106C231.43,-103.93 228.57,-184.93 304,-187"/>
</g>
<!-- X1&#45;&#45;W1 -->
<g id="edge4" class="edge">
<title>X1:p2r&#45;&#45;W1:w2</title>
<path fill="none" stroke="#000000" stroke-width="2" d="M160,-171C223,-171.42 238.56,-159.42 304,-159"/>
<path fill="none" stroke="#666600" stroke-width="2" d="M160,-173C224.22,-173 239.78,-161 304,-161"/>
<path fill="none" stroke="#000000" stroke-width="2" d="M160,-175C225.44,-174.58 241,-162.58 304,-163"/>
</g>
<!-- X1&#45;&#45;W1 -->
<g id="edge6" class="edge">
<title>X1:p1r&#45;&#45;W1:w3</title>
<path fill="none" stroke="#000000" stroke-width="2" d="M160,-194C227.01,-195.79 233.01,-137.79 304,-136"/>
<path fill="none" stroke="#00ff00" stroke-width="2" d="M160,-196C229,-196 235,-138 304,-138"/>
<path fill="none" stroke="#000000" stroke-width="2" d="M160,-198C230.99,-196.21 236.99,-138.21 304,-140"/>
</g>
<!-- X1&#45;&#45;W1 -->
<g id="edge8" class="edge">
<title>X1:p5r&#45;&#45;W1:ws</title>
<path fill="none" stroke="#000000" stroke-width="2" d="M160,-104C224.19,-104 239.81,-115 304,-115"/>
</g>
<!-- X2 -->
<g id="node2" class="node">
<title>X2</title>
<polygon fill="white" stroke="black" points="643,-58 643,-242 849,-242 849,-58 643,-58"/>
<text text-anchor="middle" x="746" y="-226.8" font-family="arial" font-size="14.00">X2</text>
<polyline fill="none" stroke="black" points="643,-219 849,-219 "/>
<text text-anchor="middle" x="693.5" y="-203.8" font-family="arial" font-size="14.00">Molex KK 254</text>
<polyline fill="none" stroke="black" points="744,-196 744,-219 "/>
<text text-anchor="middle" x="773" y="-203.8" font-family="arial" font-size="14.00">female</text>
<polyline fill="none" stroke="black" points="802,-196 802,-219 "/>
<text text-anchor="middle" x="825.5" y="-203.8" font-family="arial" font-size="14.00">6&#45;pin</text>
<polyline fill="none" stroke="black" points="643,-196 849,-196 "/>
<text text-anchor="middle" x="688.5" y="-180.8" font-family="arial" font-size="14.00">1</text>
<polyline fill="none" stroke="black" points="643,-173 734,-173 "/>
<text text-anchor="middle" x="688.5" y="-157.8" font-family="arial" font-size="14.00">2</text>
<polyline fill="none" stroke="black" points="643,-150 734,-150 "/>
<text text-anchor="middle" x="688.5" y="-134.8" font-family="arial" font-size="14.00">3</text>
<polyline fill="none" stroke="black" points="643,-127 734,-127 "/>
<text text-anchor="middle" x="688.5" y="-111.8" font-family="arial" font-size="14.00">4</text>
<polyline fill="none" stroke="black" points="643,-104 734,-104 "/>
<text text-anchor="middle" x="688.5" y="-88.8" font-family="arial" font-size="14.00">5</text>
<polyline fill="none" stroke="black" points="643,-81 734,-81 "/>
<text text-anchor="middle" x="688.5" y="-65.8" font-family="arial" font-size="14.00">6</text>
<polyline fill="none" stroke="black" points="734,-58 734,-196 "/>
<text text-anchor="middle" x="791.5" y="-180.8" font-family="arial" font-size="14.00">GND</text>
<polyline fill="none" stroke="black" points="734,-173 849,-173 "/>
<text text-anchor="middle" x="791.5" y="-157.8" font-family="arial" font-size="14.00">RX</text>
<polyline fill="none" stroke="black" points="734,-150 849,-150 "/>
<text text-anchor="middle" x="791.5" y="-134.8" font-family="arial" font-size="14.00">TX</text>
<polyline fill="none" stroke="black" points="734,-127 849,-127 "/>
<text text-anchor="middle" x="791.5" y="-111.8" font-family="arial" font-size="14.00">N/C</text>
<polyline fill="none" stroke="black" points="734,-104 849,-104 "/>
<text text-anchor="middle" x="791.5" y="-88.8" font-family="arial" font-size="14.00">OUT</text>
<polyline fill="none" stroke="black" points="734,-81 849,-81 "/>
<text text-anchor="middle" x="791.5" y="-65.8" font-family="arial" font-size="14.00">IN</text>
</g>
<!-- X2&#45;&#45;X2 -->
<g id="edge1" class="edge">
<title>X2:w&#45;&#45;X2:w</title>
<path fill="none" stroke="#000000" stroke-width="2" d="M643,-92C585.67,-104 471,-104 471,-80.5 471,-57 585.67,-57 643,-69"/>
</g>
<!-- W1&#45;&#45;X2 -->
<g id="edge3" class="edge">
<title>W1:w1&#45;&#45;X2:p1l</title>
<path fill="none" stroke="#000000" stroke-width="2" d="M499,-183C563,-183 579,-183 643,-183"/>
<path fill="none" stroke="#ffffff" stroke-width="2" d="M499,-185C563,-185 579,-185 643,-185"/>
<path fill="none" stroke="#000000" stroke-width="2" d="M499,-187C563,-187 579,-187 643,-187"/>
</g>
<!-- W1&#45;&#45;X2 -->
<g id="edge5" class="edge">
<title>W1:w2&#45;&#45;X2:p3l</title>
<path fill="none" stroke="#000000" stroke-width="2" d="M499,-159C562.12,-159.94 576.49,-136.94 643,-136"/>
<path fill="none" stroke="#666600" stroke-width="2" d="M499,-161C563.81,-161 578.19,-138 643,-138"/>
<path fill="none" stroke="#000000" stroke-width="2" d="M499,-163C565.51,-162.06 579.88,-139.06 643,-140"/>
</g>
<!-- W1&#45;&#45;X2 -->
<g id="edge7" class="edge">
<title>W1:w3&#45;&#45;X2:p2l</title>
<path fill="none" stroke="#000000" stroke-width="2" d="M499,-136C565.6,-136.98 579.84,-160.98 643,-160"/>
<path fill="none" stroke="#00ff00" stroke-width="2" d="M499,-138C563.88,-138 578.12,-162 643,-162"/>
<path fill="none" stroke="#000000" stroke-width="2" d="M499,-140C562.16,-139.02 576.4,-163.02 643,-164"/>
</g>
</g>
</svg>
