<?xml version="1.0" encoding="UTF-8" standalone="no"?>
<!DOCTYPE svg PUBLIC "-//W3C//DTD SVG 1.1//EN"
 "http://www.w3.org/Graphics/SVG/1.1/DTD/svg11.dtd">
<!-- Generated by graphviz version 2.44.0 (20200408.0750)
 -->
<!-- Pages: 1 -->
<svg width="918pt" height="536pt"
 viewBox="0.00 0.00 918.00 535.50" xmlns="http://www.w3.org/2000/svg" xmlns:xlink="http://www.w3.org/1999/xlink">
<g id="graph0" class="graph" transform="scale(1 1) rotate(0) translate(4 531.5)">
<g id="clust1" class="cluster">
<title>cluster_W1</title>
<polygon fill="white" stroke="black" stroke-dasharray="5,2" points="342,-376 342,-502 568,-502 568,-376 342,-376"/>
<text text-anchor="middle" x="455" y="-486.8" font-family="arial" font-size="14.00">4x &#160;| &#160;0.14 mm² (26 AWG) &#160;| &#160;0.2 m</text>
<text text-anchor="middle" x="455" y="-471.8" font-family="arial" font-size="14.00"> </text>
</g>
<g id="clust2" class="cluster">
<title>cluster_W2</title>
<polygon fill="white" stroke="black" stroke-dasharray="5,2" points="342,-228 342,-354 568,-354 568,-228 342,-228"/>
<text text-anchor="middle" x="455" y="-338.8" font-family="arial" font-size="14.00">4x &#160;| &#160;0.14 mm² (26 AWG) &#160;| &#160;0.2 m</text>
<text text-anchor="middle" x="455" y="-323.8" font-family="arial" font-size="14.00"> </text>
</g>
<g id="clust3" class="cluster">
<title>cluster_W3</title>
<polygon fill="white" stroke="black" stroke-dasharray="5,2" points="342,-94 342,-220 568,-220 568,-94 342,-94"/>
<text text-anchor="middle" x="455" y="-204.8" font-family="arial" font-size="14.00">4x &#160;| &#160;0.14 mm² (26 AWG) &#160;| &#160;0.2 m</text>
<text text-anchor="middle" x="455" y="-189.8" font-family="arial" font-size="14.00"> </text>
</g>
<g id="clust4" class="cluster">
<title>cluster_W4</title>
<polygon fill="white" stroke="black" stroke-dasharray="5,2" points="342,-8 342,-86 568,-86 568,-8 342,-8"/>
<text text-anchor="middle" x="455" y="-70.8" font-family="arial" font-size="14.00">2x &#160;| &#160;0.5 mm² (21 AWG) &#160;| &#160;0.35 m</text>
<text text-anchor="middle" x="455" y="-55.8" font-family="arial" font-size="14.00"> </text>
</g>
<!-- X1 -->
<g id="node1" class="node">
<title>X1</title>
<polygon fill="white" stroke="black" points="0,-133 0,-363 206,-363 206,-133 0,-133"/>
<text text-anchor="middle" x="103" y="-347.8" font-family="arial" font-size="14.00">X1</text>
<polyline fill="none" stroke="black" points="0,-340 206,-340 "/>
<text text-anchor="middle" x="50.5" y="-324.8" font-family="arial" font-size="14.00">Molex KK 254</text>
<polyline fill="none" stroke="black" points="101,-317 101,-340 "/>
<text text-anchor="middle" x="130" y="-324.8" font-family="arial" font-size="14.00">female</text>
<polyline fill="none" stroke="black" points="159,-317 159,-340 "/>
<text text-anchor="middle" x="182.5" y="-324.8" font-family="arial" font-size="14.00">8&#45;pin</text>
<polyline fill="none" stroke="black" points="0,-317 206,-317 "/>
<text text-anchor="middle" x="58.5" y="-301.8" font-family="arial" font-size="14.00">GND</text>
<polyline fill="none" stroke="black" points="0,-294 117,-294 "/>
<text text-anchor="middle" x="58.5" y="-278.8" font-family="arial" font-size="14.00">+5V</text>
<polyline fill="none" stroke="black" points="0,-271 117,-271 "/>
<text text-anchor="middle" x="58.5" y="-255.8" font-family="arial" font-size="14.00">SCL</text>
<polyline fill="none" stroke="black" points="0,-248 117,-248 "/>
<text text-anchor="middle" x="58.5" y="-232.8" font-family="arial" font-size="14.00">SDA</text>
<polyline fill="none" stroke="black" points="0,-225 117,-225 "/>
<text text-anchor="middle" x="58.5" y="-209.8" font-family="arial" font-size="14.00">MISO</text>
<polyline fill="none" stroke="black" points="0,-202 117,-202 "/>
<text text-anchor="middle" x="58.5" y="-186.8" font-family="arial" font-size="14.00">MOSI</text>
<polyline fill="none" stroke="black" points="0,-179 117,-179 "/>
<text text-anchor="middle" x="58.5" y="-163.8" font-family="arial" font-size="14.00">SCK</text>
<polyline fill="none" stroke="black" points="0,-156 117,-156 "/>
<text text-anchor="middle" x="58.5" y="-140.8" font-family="arial" font-size="14.00">N/C</text>
<polyline fill="none" stroke="black" points="117,-133 117,-317 "/>
<text text-anchor="middle" x="161.5" y="-301.8" font-family="arial" font-size="14.00">1</text>
<polyline fill="none" stroke="black" points="117,-294 206,-294 "/>
<text text-anchor="middle" x="161.5" y="-278.8" font-family="arial" font-size="14.00">2</text>
<polyline fill="none" stroke="black" points="117,-271 206,-271 "/>
<text text-anchor="middle" x="161.5" y="-255.8" font-family="arial" font-size="14.00">3</text>
<polyline fill="none" stroke="black" points="117,-248 206,-248 "/>
<text text-anchor="middle" x="161.5" y="-232.8" font-family="arial" font-size="14.00">4</text>
<polyline fill="none" stroke="black" points="117,-225 206,-225 "/>
<text text-anchor="middle" x="161.5" y="-209.8" font-family="arial" font-size="14.00">5</text>
<polyline fill="none" stroke="black" points="117,-202 206,-202 "/>
<text text-anchor="middle" x="161.5" y="-186.8" font-family="arial" font-size="14.00">6</text>
<polyline fill="none" stroke="black" points="117,-179 206,-179 "/>
<text text-anchor="middle" x="161.5" y="-163.8" font-family="arial" font-size="14.00">7</text>
<polyline fill="none" stroke="black" points="117,-156 206,-156 "/>
<text text-anchor="middle" x="161.5" y="-140.8" font-family="arial" font-size="14.00">8</text>
</g>
<!-- W1_w1l -->
<g id="node6" class="node">
<title>W1_w1l</title>
<ellipse fill="white" stroke="black" cx="383" cy="-456" rx="0" ry="0"/>
</g>
<!-- X1&#45;&#45;W1_w1l -->
<g id="edge2" class="edge">
<title>X1:p1r&#45;&#45;W1_w1l:w</title>
<path fill="none" stroke="#000000" stroke-width="2" d="M206,-304C310.74,-306.39 281.19,-456.39 382,-454"/>
<path fill="none" stroke="#000000" stroke-width="2" d="M206,-306C308.78,-306 279.22,-456 382,-456"/>
<path fill="none" stroke="#000000" stroke-width="2" d="M206,-308C306.81,-305.61 277.26,-455.61 382,-458"/>
<text text-anchor="middle" x="375.73" y="-460.09" font-family="arial" font-size="14.00"> &#160;&#160;&#160;&#160;&#160;&#160;&#160;&#160;&#160;&#160;&#160;X1:1</text>
</g>
<!-- W1_w2l -->
<g id="node8" class="node">
<title>W1_w2l</title>
<ellipse fill="white" stroke="black" cx="383" cy="-432" rx="0" ry="0"/>
</g>
<!-- X1&#45;&#45;W1_w2l -->
<g id="edge5" class="edge">
<title>X1:p2r&#45;&#45;W1_w2l:w</title>
<path fill="none" stroke="#000000" stroke-width="2" d="M206,-281C310.45,-283.38 281.47,-432.38 382,-430"/>
<path fill="none" stroke="#ff0000" stroke-width="2" d="M206,-283C308.49,-283 279.51,-432 382,-432"/>
<path fill="none" stroke="#000000" stroke-width="2" d="M206,-285C306.53,-282.62 277.55,-431.62 382,-434"/>
<text text-anchor="middle" x="375.74" y="-436.1" font-family="arial" font-size="14.00"> &#160;&#160;&#160;&#160;&#160;&#160;&#160;&#160;&#160;&#160;&#160;X1:2</text>
</g>
<!-- W1_w3l -->
<g id="node10" class="node">
<title>W1_w3l</title>
<ellipse fill="white" stroke="black" cx="383" cy="-408" rx="0" ry="0"/>
</g>
<!-- X1&#45;&#45;W1_w3l -->
<g id="edge8" class="edge">
<title>X1:p3r&#45;&#45;W1_w3l:w</title>
<path fill="none" stroke="#000000" stroke-width="2" d="M206,-258C310.17,-260.38 281.76,-408.38 382,-406"/>
<path fill="none" stroke="#ffff00" stroke-width="2" d="M206,-260C308.2,-260 279.8,-408 382,-408"/>
<path fill="none" stroke="#000000" stroke-width="2" d="M206,-262C306.24,-259.62 277.83,-407.62 382,-410"/>
<text text-anchor="middle" x="375.74" y="-412.1" font-family="arial" font-size="14.00"> &#160;&#160;&#160;&#160;&#160;&#160;&#160;&#160;&#160;&#160;&#160;X1:3</text>
</g>
<!-- W1_w4l -->
<g id="node12" class="node">
<title>W1_w4l</title>
<ellipse fill="white" stroke="black" cx="383" cy="-384" rx="0" ry="0"/>
</g>
<!-- X1&#45;&#45;W1_w4l -->
<g id="edge11" class="edge">
<title>X1:p4r&#45;&#45;W1_w4l:w</title>
<path fill="none" stroke="#000000" stroke-width="2" d="M206,-234C310.17,-236.38 281.76,-384.38 382,-382"/>
<path fill="none" stroke="#00ff00" stroke-width="2" d="M206,-236C308.2,-236 279.8,-384 382,-384"/>
<path fill="none" stroke="#000000" stroke-width="2" d="M206,-238C306.24,-235.62 277.83,-383.62 382,-386"/>
<text text-anchor="middle" x="375.74" y="-388.1" font-family="arial" font-size="14.00"> &#160;&#160;&#160;&#160;&#160;&#160;&#160;&#160;&#160;&#160;&#160;X1:4</text>
</g>
<!-- W2_w1l -->
<g id="node14" class="node">
<title>W2_w1l</title>
<ellipse fill="white" stroke="black" cx="383" cy="-308" rx="0" ry="0"/>
</g>
<!-- X1&#45;&#45;W2_w1l -->
<g id="edge14" class="edge">
<title>X1:p1r&#45;&#45;W2_w1l:w</title>
<path fill="none" stroke="#000000" stroke-width="2" d="M206,-304C284.43,-304.01 303.98,-306.01 382,-306"/>
<path fill="none" stroke="#000000" stroke-width="2" d="M206,-306C284.23,-306 303.77,-308 382,-308"/>
<path fill="none" stroke="#000000" stroke-width="2" d="M206,-308C284.02,-307.99 303.57,-309.99 382,-310"/>
<text text-anchor="middle" x="376.98" y="-312.95" font-family="arial" font-size="14.00"> &#160;&#160;&#160;&#160;&#160;&#160;&#160;&#160;&#160;&#160;&#160;X1:1</text>
</g>
<!-- W2_w2l -->
<g id="node16" class="node">
<title>W2_w2l</title>
<ellipse fill="white" stroke="black" cx="383" cy="-284" rx="0" ry="0"/>
</g>
<!-- X1&#45;&#45;W2_w2l -->
<g id="edge17" class="edge">
<title>X1:p2r&#45;&#45;W2_w2l:w</title>
<path fill="none" stroke="#000000" stroke-width="2" d="M206,-281C284.33,-281 303.88,-282 382,-282"/>
<path fill="none" stroke="#ff0000" stroke-width="2" d="M206,-283C284.22,-283 303.78,-284 382,-284"/>
<path fill="none" stroke="#000000" stroke-width="2" d="M206,-285C284.12,-285 303.67,-286 382,-286"/>
<text text-anchor="middle" x="376.99" y="-288.95" font-family="arial" font-size="14.00"> &#160;&#160;&#160;&#160;&#160;&#160;&#160;&#160;&#160;&#160;&#160;X1:2</text>
</g>
<!-- W2_w3l -->
<g id="node18" class="node">
<title>W2_w3l</title>
<ellipse fill="white" stroke="black" cx="383" cy="-260" rx="0" ry="0"/>
</g>
<!-- X1&#45;&#45;W2_w3l -->
<g id="edge20" class="edge">
<title>X1:p3r&#45;&#45;W2_w3l:w</title>
<path fill="none" stroke="#000000" stroke-width="2" d="M206,-258C284.22,-258 303.78,-258 382,-258"/>
<path fill="none" stroke="#ffff00" stroke-width="2" d="M206,-260C284.22,-260 303.78,-260 382,-260"/>
<path fill="none" stroke="#000000" stroke-width="2" d="M206,-262C284.22,-262 303.78,-262 382,-262"/>
<text text-anchor="middle" x="377" y="-264.96" font-family="arial" font-size="14.00"> &#160;&#160;&#160;&#160;&#160;&#160;&#160;&#160;&#160;&#160;&#160;X1:3</text>
</g>
<!-- W2_w4l -->
<g id="node20" class="node">
<title>W2_w4l</title>
<ellipse fill="white" stroke="black" cx="383" cy="-236" rx="0" ry="0"/>
</g>
<!-- X1&#45;&#45;W2_w4l -->
<g id="edge23" class="edge">
<title>X1:p4r&#45;&#45;W2_w4l:w</title>
<path fill="none" stroke="#000000" stroke-width="2" d="M206,-234C284.22,-234 303.78,-234 382,-234"/>
<path fill="none" stroke="#00ff00" stroke-width="2" d="M206,-236C284.22,-236 303.78,-236 382,-236"/>
<path fill="none" stroke="#000000" stroke-width="2" d="M206,-238C284.22,-238 303.78,-238 382,-238"/>
<text text-anchor="middle" x="377" y="-240.96" font-family="arial" font-size="14.00"> &#160;&#160;&#160;&#160;&#160;&#160;&#160;&#160;&#160;&#160;&#160;X1:4</text>
</g>
<!-- W3_w1l -->
<g id="node22" class="node">
<title>W3_w1l</title>
<ellipse fill="white" stroke="black" cx="383" cy="-174" rx="0" ry="0"/>
</g>
<!-- X1&#45;&#45;W3_w1l -->
<g id="edge26" class="edge">
<title>X1:p1r&#45;&#45;W3_w1l:w</title>
<path fill="none" stroke="#000000" stroke-width="2" d="M206,-304C301.8,-306.29 282.24,-174.29 382,-172"/>
<path fill="none" stroke="#000000" stroke-width="2" d="M206,-306C303.78,-306 284.22,-174 382,-174"/>
<path fill="none" stroke="#000000" stroke-width="2" d="M206,-308C305.76,-305.71 286.2,-173.71 382,-176"/>
<text text-anchor="middle" x="378.27" y="-179.58" font-family="arial" font-size="14.00"> &#160;&#160;&#160;&#160;&#160;&#160;&#160;&#160;&#160;&#160;&#160;X1:1</text>
</g>
<!-- W3_w2l -->
<g id="node24" class="node">
<title>W3_w2l</title>
<ellipse fill="white" stroke="black" cx="383" cy="-150" rx="0" ry="0"/>
</g>
<!-- X1&#45;&#45;W3_w2l -->
<g id="edge29" class="edge">
<title>X1:p5r&#45;&#45;W3_w2l:w</title>
<path fill="none" stroke="#000000" stroke-width="2" d="M206,-211C287.11,-212.69 296.94,-149.69 382,-148"/>
<path fill="none" stroke="#0066ff" stroke-width="2" d="M206,-213C289.08,-213 298.92,-150 382,-150"/>
<path fill="none" stroke="#000000" stroke-width="2" d="M206,-215C291.06,-213.31 300.89,-150.31 382,-152"/>
<text text-anchor="middle" x="377.68" y="-155.32" font-family="arial" font-size="14.00"> &#160;&#160;&#160;&#160;&#160;&#160;&#160;&#160;&#160;&#160;&#160;X1:5</text>
</g>
<!-- W3_w3l -->
<g id="node26" class="node">
<title>W3_w3l</title>
<ellipse fill="white" stroke="black" cx="383" cy="-126" rx="0" ry="0"/>
</g>
<!-- X1&#45;&#45;W3_w3l -->
<g id="edge32" class="edge">
<title>X1:p6r&#45;&#45;W3_w3l:w</title>
<path fill="none" stroke="#000000" stroke-width="2" d="M206,-188C287.26,-189.71 296.79,-125.71 382,-124"/>
<path fill="none" stroke="#ff8000" stroke-width="2" d="M206,-190C289.23,-190 298.77,-126 382,-126"/>
<path fill="none" stroke="#000000" stroke-width="2" d="M206,-192C291.21,-190.29 300.74,-126.29 382,-128"/>
<text text-anchor="middle" x="377.69" y="-131.32" font-family="arial" font-size="14.00"> &#160;&#160;&#160;&#160;&#160;&#160;&#160;&#160;&#160;&#160;&#160;X1:6</text>
</g>
<!-- W3_w4l -->
<g id="node28" class="node">
<title>W3_w4l</title>
<ellipse fill="white" stroke="black" cx="383" cy="-102" rx="0" ry="0"/>
</g>
<!-- X1&#45;&#45;W3_w4l -->
<g id="edge35" class="edge">
<title>X1:p7r&#45;&#45;W3_w4l:w</title>
<path fill="none" stroke="#000000" stroke-width="2" d="M206,-165C287.41,-166.72 296.63,-101.72 382,-100"/>
<path fill="none" stroke="#8000ff" stroke-width="2" d="M206,-167C289.39,-167 298.61,-102 382,-102"/>
<path fill="none" stroke="#000000" stroke-width="2" d="M206,-169C291.37,-167.28 300.59,-102.28 382,-104"/>
<text text-anchor="middle" x="377.7" y="-107.33" font-family="arial" font-size="14.00"> &#160;&#160;&#160;&#160;&#160;&#160;&#160;&#160;&#160;&#160;&#160;X1:7</text>
</g>
<!-- X2 -->
<g id="node2" class="node">
<title>X2</title>
<polygon fill="white" stroke="black" points="704,-389 704,-527 910,-527 910,-389 704,-389"/>
<text text-anchor="middle" x="807" y="-511.8" font-family="arial" font-size="14.00">X2</text>
<polyline fill="none" stroke="black" points="704,-504 910,-504 "/>
<text text-anchor="middle" x="754.5" y="-488.8" font-family="arial" font-size="14.00">Molex KK 254</text>
<polyline fill="none" stroke="black" points="805,-481 805,-504 "/>
<text text-anchor="middle" x="834" y="-488.8" font-family="arial" font-size="14.00">female</text>
<polyline fill="none" stroke="black" points="863,-481 863,-504 "/>
<text text-anchor="middle" x="886.5" y="-488.8" font-family="arial" font-size="14.00">4&#45;pin</text>
<polyline fill="none" stroke="black" points="704,-481 910,-481 "/>
<text text-anchor="middle" x="749.5" y="-465.8" font-family="arial" font-size="14.00">1</text>
<polyline fill="none" stroke="black" points="704,-458 795,-458 "/>
<text text-anchor="middle" x="749.5" y="-442.8" font-family="arial" font-size="14.00">2</text>
<polyline fill="none" stroke="black" points="704,-435 795,-435 "/>
<text text-anchor="middle" x="749.5" y="-419.8" font-family="arial" font-size="14.00">3</text>
<polyline fill="none" stroke="black" points="704,-412 795,-412 "/>
<text text-anchor="middle" x="749.5" y="-396.8" font-family="arial" font-size="14.00">4</text>
<polyline fill="none" stroke="black" points="795,-389 795,-481 "/>
<text text-anchor="middle" x="852.5" y="-465.8" font-family="arial" font-size="14.00">GND</text>
<polyline fill="none" stroke="black" points="795,-458 910,-458 "/>
<text text-anchor="middle" x="852.5" y="-442.8" font-family="arial" font-size="14.00">+5V</text>
<polyline fill="none" stroke="black" points="795,-435 910,-435 "/>
<text text-anchor="middle" x="852.5" y="-419.8" font-family="arial" font-size="14.00">SCL</text>
<polyline fill="none" stroke="black" points="795,-412 910,-412 "/>
<text text-anchor="middle" x="852.5" y="-396.8" font-family="arial" font-size="14.00">SDA</text>
</g>
<!-- X3 -->
<g id="node3" class="node">
<title>X3</title>
<polygon fill="white" stroke="black" points="704,-226 704,-364 910,-364 910,-226 704,-226"/>
<text text-anchor="middle" x="807" y="-348.8" font-family="arial" font-size="14.00">X3</text>
<polyline fill="none" stroke="black" points="704,-341 910,-341 "/>
<text text-anchor="middle" x="754.5" y="-325.8" font-family="arial" font-size="14.00">Molex KK 254</text>
<polyline fill="none" stroke="black" points="805,-318 805,-341 "/>
<text text-anchor="middle" x="834" y="-325.8" font-family="arial" font-size="14.00">female</text>
<polyline fill="none" stroke="black" points="863,-318 863,-341 "/>
<text text-anchor="middle" x="886.5" y="-325.8" font-family="arial" font-size="14.00">4&#45;pin</text>
<polyline fill="none" stroke="black" points="704,-318 910,-318 "/>
<text text-anchor="middle" x="749.5" y="-302.8" font-family="arial" font-size="14.00">1</text>
<polyline fill="none" stroke="black" points="704,-295 795,-295 "/>
<text text-anchor="middle" x="749.5" y="-279.8" font-family="arial" font-size="14.00">2</text>
<polyline fill="none" stroke="black" points="704,-272 795,-272 "/>
<text text-anchor="middle" x="749.5" y="-256.8" font-family="arial" font-size="14.00">3</text>
<polyline fill="none" stroke="black" points="704,-249 795,-249 "/>
<text text-anchor="middle" x="749.5" y="-233.8" font-family="arial" font-size="14.00">4</text>
<polyline fill="none" stroke="black" points="795,-226 795,-318 "/>
<text text-anchor="middle" x="852.5" y="-302.8" font-family="arial" font-size="14.00">GND</text>
<polyline fill="none" stroke="black" points="795,-295 910,-295 "/>
<text text-anchor="middle" x="852.5" y="-279.8" font-family="arial" font-size="14.00">+5V</text>
<polyline fill="none" stroke="black" points="795,-272 910,-272 "/>
<text text-anchor="middle" x="852.5" y="-256.8" font-family="arial" font-size="14.00">SCL</text>
<polyline fill="none" stroke="black" points="795,-249 910,-249 "/>
<text text-anchor="middle" x="852.5" y="-233.8" font-family="arial" font-size="14.00">SDA</text>
</g>
<!-- X4 -->
<g id="node4" class="node">
<title>X4</title>
<polygon fill="white" stroke="black" points="704,-39.5 704,-200.5 910,-200.5 910,-39.5 704,-39.5"/>
<text text-anchor="middle" x="807" y="-185.3" font-family="arial" font-size="14.00">X4</text>
<polyline fill="none" stroke="black" points="704,-177.5 910,-177.5 "/>
<text text-anchor="middle" x="754.5" y="-162.3" font-family="arial" font-size="14.00">Molex KK 254</text>
<polyline fill="none" stroke="black" points="805,-154.5 805,-177.5 "/>
<text text-anchor="middle" x="834" y="-162.3" font-family="arial" font-size="14.00">female</text>
<polyline fill="none" stroke="black" points="863,-154.5 863,-177.5 "/>
<text text-anchor="middle" x="886.5" y="-162.3" font-family="arial" font-size="14.00">5&#45;pin</text>
<polyline fill="none" stroke="black" points="704,-154.5 910,-154.5 "/>
<text text-anchor="middle" x="748" y="-139.3" font-family="arial" font-size="14.00">1</text>
<polyline fill="none" stroke="black" points="704,-131.5 792,-131.5 "/>
<text text-anchor="middle" x="748" y="-116.3" font-family="arial" font-size="14.00">2</text>
<polyline fill="none" stroke="black" points="704,-108.5 792,-108.5 "/>
<text text-anchor="middle" x="748" y="-93.3" font-family="arial" font-size="14.00">3</text>
<polyline fill="none" stroke="black" points="704,-85.5 792,-85.5 "/>
<text text-anchor="middle" x="748" y="-70.3" font-family="arial" font-size="14.00">4</text>
<polyline fill="none" stroke="black" points="704,-62.5 792,-62.5 "/>
<text text-anchor="middle" x="748" y="-47.3" font-family="arial" font-size="14.00">5</text>
<polyline fill="none" stroke="black" points="792,-39.5 792,-154.5 "/>
<text text-anchor="middle" x="851" y="-139.3" font-family="arial" font-size="14.00">GND</text>
<polyline fill="none" stroke="black" points="792,-131.5 910,-131.5 "/>
<text text-anchor="middle" x="851" y="-116.3" font-family="arial" font-size="14.00">+12V</text>
<polyline fill="none" stroke="black" points="792,-108.5 910,-108.5 "/>
<text text-anchor="middle" x="851" y="-93.3" font-family="arial" font-size="14.00">MISO</text>
<polyline fill="none" stroke="black" points="792,-85.5 910,-85.5 "/>
<text text-anchor="middle" x="851" y="-70.3" font-family="arial" font-size="14.00">MOSI</text>
<polyline fill="none" stroke="black" points="792,-62.5 910,-62.5 "/>
<text text-anchor="middle" x="851" y="-47.3" font-family="arial" font-size="14.00">SCK</text>
</g>
<!-- X5 -->
<g id="node5" class="node">
<title>X5</title>
<polygon fill="white" stroke="black" points="1,-6 1,-98 205,-98 205,-6 1,-6"/>
<text text-anchor="middle" x="103" y="-82.8" font-family="arial" font-size="14.00">X5</text>
<polyline fill="none" stroke="black" points="1,-75 205,-75 "/>
<text text-anchor="middle" x="56" y="-59.8" font-family="arial" font-size="14.00">Molex Micro&#45;Fit</text>
<polyline fill="none" stroke="black" points="111,-52 111,-75 "/>
<text text-anchor="middle" x="134.5" y="-59.8" font-family="arial" font-size="14.00">male</text>
<polyline fill="none" stroke="black" points="158,-52 158,-75 "/>
<text text-anchor="middle" x="181.5" y="-59.8" font-family="arial" font-size="14.00">2&#45;pin</text>
<polyline fill="none" stroke="black" points="1,-52 205,-52 "/>
<text text-anchor="middle" x="58" y="-36.8" font-family="arial" font-size="14.00">GND</text>
<polyline fill="none" stroke="black" points="1,-29 115,-29 "/>
<text text-anchor="middle" x="58" y="-13.8" font-family="arial" font-size="14.00">+12V</text>
<polyline fill="none" stroke="black" points="115,-6 115,-52 "/>
<text text-anchor="middle" x="160" y="-36.8" font-family="arial" font-size="14.00">1</text>
<polyline fill="none" stroke="black" points="115,-29 205,-29 "/>
<text text-anchor="middle" x="160" y="-13.8" font-family="arial" font-size="14.00">2</text>
</g>
<!-- W4_w1l -->
<g id="node30" class="node">
<title>W4_w1l</title>
<ellipse fill="white" stroke="black" cx="383" cy="-40" rx="0" ry="0"/>
</g>
<!-- X5&#45;&#45;W4_w1l -->
<g id="edge38" class="edge">
<title>X5:p1r&#45;&#45;W4_w1l:w</title>
<path fill="none" stroke="#000000" stroke-width="2" d="M206,-38C284.22,-38 303.78,-38 382,-38"/>
<path fill="none" stroke="#000000" stroke-width="2" d="M206,-40C284.22,-40 303.78,-40 382,-40"/>
<path fill="none" stroke="#000000" stroke-width="2" d="M206,-42C284.22,-42 303.78,-42 382,-42"/>
<text text-anchor="middle" x="377" y="-44.96" font-family="arial" font-size="14.00"> &#160;&#160;&#160;&#160;&#160;&#160;&#160;&#160;&#160;&#160;&#160;X5:1</text>
</g>
<!-- W4_w2l -->
<g id="node32" class="node">
<title>W4_w2l</title>
<ellipse fill="white" stroke="black" cx="383" cy="-16" rx="0" ry="0"/>
</g>
<!-- X5&#45;&#45;W4_w2l -->
<g id="edge41" class="edge">
<title>X5:p2r&#45;&#45;W4_w2l:w</title>
<path fill="none" stroke="#000000" stroke-width="2" d="M206,-15C284.12,-15 303.67,-14 382,-14"/>
<path fill="none" stroke="#ff0000" stroke-width="2" d="M206,-17C284.22,-17 303.78,-16 382,-16"/>
<path fill="none" stroke="#000000" stroke-width="2" d="M206,-19C284.33,-19 303.88,-18 382,-18"/>
<text text-anchor="middle" x="377.01" y="-20.97" font-family="arial" font-size="14.00"> &#160;&#160;&#160;&#160;&#160;&#160;&#160;&#160;&#160;&#160;&#160;X5:2</text>
</g>
<!-- W1_w1r -->
<g id="node7" class="node">
<title>W1_w1r</title>
<ellipse fill="white" stroke="black" cx="527" cy="-456" rx="0" ry="0"/>
</g>
<!-- W1_w1l&#45;&#45;W1_w1r -->
<g id="edge1" class="edge">
<title>W1_w1l&#45;&#45;W1_w1r</title>
<path fill="none" stroke="#000000" stroke-width="2" d="M384.1,-454C388.34,-454 521.73,-454 525.9,-454"/>
<path fill="none" stroke="#000000" stroke-width="2" d="M384.1,-456C388.34,-456 521.73,-456 525.9,-456"/>
<path fill="none" stroke="#000000" stroke-width="2" d="M384.1,-458C388.34,-458 521.73,-458 525.9,-458"/>
<text text-anchor="middle" x="389.1" y="-460.96" font-family="arial" font-size="14.00"> &#160;&#160;&#160;&#160;&#160;&#160;&#160;&#160;&#160;&#160;&#160;&#160;&#160;&#160;&#160;&#160;&#160;&#160;&#160;&#160;&#160;&#160;&#160;&#160;&#160;&#160;&#160;&#160;&#160;&#160;&#160;&#160;&#160;&#160;BK</text>
</g>
<!-- W1_w1r&#45;&#45;X2 -->
<g id="edge3" class="edge">
<title>W1_w1r:e&#45;&#45;X2:p1l</title>
<path fill="none" stroke="#000000" stroke-width="2" d="M528,-454C607.65,-454.39 626.71,-468.39 704,-468"/>
<path fill="none" stroke="#000000" stroke-width="2" d="M528,-456C606.47,-456 625.53,-470 704,-470"/>
<path fill="none" stroke="#000000" stroke-width="2" d="M528,-458C605.29,-457.61 624.35,-471.61 704,-472"/>
<text text-anchor="middle" x="532.84" y="-461.05" font-family="arial" font-size="14.00">X2:1 &#160;&#160;&#160;&#160;&#160;&#160;&#160;&#160;&#160;&#160;&#160;</text>
</g>
<!-- W1_w2r -->
<g id="node9" class="node">
<title>W1_w2r</title>
<ellipse fill="white" stroke="black" cx="527" cy="-432" rx="0" ry="0"/>
</g>
<!-- W1_w2l&#45;&#45;W1_w2r -->
<g id="edge4" class="edge">
<title>W1_w2l&#45;&#45;W1_w2r</title>
<path fill="none" stroke="#000000" stroke-width="2" d="M384.1,-430C388.34,-430 521.73,-430 525.9,-430"/>
<path fill="none" stroke="#ff0000" stroke-width="2" d="M384.1,-432C388.34,-432 521.73,-432 525.9,-432"/>
<path fill="none" stroke="#000000" stroke-width="2" d="M384.1,-434C388.34,-434 521.73,-434 525.9,-434"/>
<text text-anchor="middle" x="389.1" y="-436.96" font-family="arial" font-size="14.00"> &#160;&#160;&#160;&#160;&#160;&#160;&#160;&#160;&#160;&#160;&#160;&#160;&#160;&#160;&#160;&#160;&#160;&#160;&#160;&#160;&#160;&#160;&#160;&#160;&#160;&#160;&#160;&#160;&#160;&#160;&#160;&#160;&#160;&#160;RD</text>
</g>
<!-- W1_w2r&#45;&#45;X2 -->
<g id="edge6" class="edge">
<title>W1_w2r:e&#45;&#45;X2:p2l</title>
<path fill="none" stroke="#000000" stroke-width="2" d="M528,-430C607.65,-430.39 626.71,-444.39 704,-444"/>
<path fill="none" stroke="#ff0000" stroke-width="2" d="M528,-432C606.47,-432 625.53,-446 704,-446"/>
<path fill="none" stroke="#000000" stroke-width="2" d="M528,-434C605.29,-433.61 624.35,-447.61 704,-448"/>
<text text-anchor="middle" x="532.84" y="-437.05" font-family="arial" font-size="14.00">X2:2 &#160;&#160;&#160;&#160;&#160;&#160;&#160;&#160;&#160;&#160;&#160;</text>
</g>
<!-- W1_w3r -->
<g id="node11" class="node">
<title>W1_w3r</title>
<ellipse fill="white" stroke="black" cx="527" cy="-408" rx="0" ry="0"/>
</g>
<!-- W1_w3l&#45;&#45;W1_w3r -->
<g id="edge7" class="edge">
<title>W1_w3l&#45;&#45;W1_w3r</title>
<path fill="none" stroke="#000000" stroke-width="2" d="M384.1,-406C388.34,-406 521.73,-406 525.9,-406"/>
<path fill="none" stroke="#ffff00" stroke-width="2" d="M384.1,-408C388.34,-408 521.73,-408 525.9,-408"/>
<path fill="none" stroke="#000000" stroke-width="2" d="M384.1,-410C388.34,-410 521.73,-410 525.9,-410"/>
<text text-anchor="middle" x="389.1" y="-412.96" font-family="arial" font-size="14.00"> &#160;&#160;&#160;&#160;&#160;&#160;&#160;&#160;&#160;&#160;&#160;&#160;&#160;&#160;&#160;&#160;&#160;&#160;&#160;&#160;&#160;&#160;&#160;&#160;&#160;&#160;&#160;&#160;&#160;&#160;&#160;&#160;&#160;&#160;YE</text>
</g>
<!-- W1_w3r&#45;&#45;X2 -->
<g id="edge9" class="edge">
<title>W1_w3r:e&#45;&#45;X2:p3l</title>
<path fill="none" stroke="#000000" stroke-width="2" d="M528,-406C607.75,-406.43 626.73,-421.43 704,-421"/>
<path fill="none" stroke="#ffff00" stroke-width="2" d="M528,-408C606.51,-408 625.49,-423 704,-423"/>
<path fill="none" stroke="#000000" stroke-width="2" d="M528,-410C605.27,-409.57 624.25,-424.57 704,-425"/>
<text text-anchor="middle" x="532.83" y="-413.05" font-family="arial" font-size="14.00">X2:3 &#160;&#160;&#160;&#160;&#160;&#160;&#160;&#160;&#160;&#160;&#160;</text>
</g>
<!-- W1_w4r -->
<g id="node13" class="node">
<title>W1_w4r</title>
<ellipse fill="white" stroke="black" cx="527" cy="-384" rx="0" ry="0"/>
</g>
<!-- W1_w4l&#45;&#45;W1_w4r -->
<g id="edge10" class="edge">
<title>W1_w4l&#45;&#45;W1_w4r</title>
<path fill="none" stroke="#000000" stroke-width="2" d="M384.1,-382C388.34,-382 521.73,-382 525.9,-382"/>
<path fill="none" stroke="#00ff00" stroke-width="2" d="M384.1,-384C388.34,-384 521.73,-384 525.9,-384"/>
<path fill="none" stroke="#000000" stroke-width="2" d="M384.1,-386C388.34,-386 521.73,-386 525.9,-386"/>
<text text-anchor="middle" x="389.1" y="-388.96" font-family="arial" font-size="14.00"> &#160;&#160;&#160;&#160;&#160;&#160;&#160;&#160;&#160;&#160;&#160;&#160;&#160;&#160;&#160;&#160;&#160;&#160;&#160;&#160;&#160;&#160;&#160;&#160;&#160;&#160;&#160;&#160;&#160;&#160;&#160;&#160;&#160;&#160;GN</text>
</g>
<!-- W1_w4r&#45;&#45;X2 -->
<g id="edge12" class="edge">
<title>W1_w4r:e&#45;&#45;X2:p4l</title>
<path fill="none" stroke="#000000" stroke-width="2" d="M528,-382C607.84,-382.47 626.75,-398.47 704,-398"/>
<path fill="none" stroke="#00ff00" stroke-width="2" d="M528,-384C606.54,-384 625.46,-400 704,-400"/>
<path fill="none" stroke="#000000" stroke-width="2" d="M528,-386C605.25,-385.53 624.16,-401.53 704,-402"/>
<text text-anchor="middle" x="532.82" y="-389.06" font-family="arial" font-size="14.00">X2:4 &#160;&#160;&#160;&#160;&#160;&#160;&#160;&#160;&#160;&#160;&#160;</text>
</g>
<!-- W2_w1r -->
<g id="node15" class="node">
<title>W2_w1r</title>
<ellipse fill="white" stroke="black" cx="527" cy="-308" rx="0" ry="0"/>
</g>
<!-- W2_w1l&#45;&#45;W2_w1r -->
<g id="edge13" class="edge">
<title>W2_w1l&#45;&#45;W2_w1r</title>
<path fill="none" stroke="#000000" stroke-width="2" d="M384.1,-306C388.34,-306 521.73,-306 525.9,-306"/>
<path fill="none" stroke="#000000" stroke-width="2" d="M384.1,-308C388.34,-308 521.73,-308 525.9,-308"/>
<path fill="none" stroke="#000000" stroke-width="2" d="M384.1,-310C388.34,-310 521.73,-310 525.9,-310"/>
<text text-anchor="middle" x="389.1" y="-312.96" font-family="arial" font-size="14.00"> &#160;&#160;&#160;&#160;&#160;&#160;&#160;&#160;&#160;&#160;&#160;&#160;&#160;&#160;&#160;&#160;&#160;&#160;&#160;&#160;&#160;&#160;&#160;&#160;&#160;&#160;&#160;&#160;&#160;&#160;&#160;&#160;&#160;&#160;BK</text>
</g>
<!-- W2_w1r&#45;&#45;X3 -->
<g id="edge15" class="edge">
<title>W2_w1r:e&#45;&#45;X3:p1l</title>
<path fill="none" stroke="#000000" stroke-width="2" d="M528,-306C606.12,-306 625.67,-305 704,-305"/>
<path fill="none" stroke="#000000" stroke-width="2" d="M528,-308C606.22,-308 625.78,-307 704,-307"/>
<path fill="none" stroke="#000000" stroke-width="2" d="M528,-310C606.33,-310 625.88,-309 704,-309"/>
<text text-anchor="middle" x="533.01" y="-312.95" font-family="arial" font-size="14.00">X3:1 &#160;&#160;&#160;&#160;&#160;&#160;&#160;&#160;&#160;&#160;&#160;</text>
</g>
<!-- W2_w2r -->
<g id="node17" class="node">
<title>W2_w2r</title>
<ellipse fill="white" stroke="black" cx="527" cy="-284" rx="0" ry="0"/>
</g>
<!-- W2_w2l&#45;&#45;W2_w2r -->
<g id="edge16" class="edge">
<title>W2_w2l&#45;&#45;W2_w2r</title>
<path fill="none" stroke="#000000" stroke-width="2" d="M384.1,-282C388.34,-282 521.73,-282 525.9,-282"/>
<path fill="none" stroke="#ff0000" stroke-width="2" d="M384.1,-284C388.34,-284 521.73,-284 525.9,-284"/>
<path fill="none" stroke="#000000" stroke-width="2" d="M384.1,-286C388.34,-286 521.73,-286 525.9,-286"/>
<text text-anchor="middle" x="389.1" y="-288.96" font-family="arial" font-size="14.00"> &#160;&#160;&#160;&#160;&#160;&#160;&#160;&#160;&#160;&#160;&#160;&#160;&#160;&#160;&#160;&#160;&#160;&#160;&#160;&#160;&#160;&#160;&#160;&#160;&#160;&#160;&#160;&#160;&#160;&#160;&#160;&#160;&#160;&#160;RD</text>
</g>
<!-- W2_w2r&#45;&#45;X3 -->
<g id="edge18" class="edge">
<title>W2_w2r:e&#45;&#45;X3:p2l</title>
<path fill="none" stroke="#000000" stroke-width="2" d="M528,-282C606.12,-282 625.67,-281 704,-281"/>
<path fill="none" stroke="#ff0000" stroke-width="2" d="M528,-284C606.22,-284 625.78,-283 704,-283"/>
<path fill="none" stroke="#000000" stroke-width="2" d="M528,-286C606.33,-286 625.88,-285 704,-285"/>
<text text-anchor="middle" x="533.01" y="-288.95" font-family="arial" font-size="14.00">X3:2 &#160;&#160;&#160;&#160;&#160;&#160;&#160;&#160;&#160;&#160;&#160;</text>
</g>
<!-- W2_w3r -->
<g id="node19" class="node">
<title>W2_w3r</title>
<ellipse fill="white" stroke="black" cx="527" cy="-260" rx="0" ry="0"/>
</g>
<!-- W2_w3l&#45;&#45;W2_w3r -->
<g id="edge19" class="edge">
<title>W2_w3l&#45;&#45;W2_w3r</title>
<path fill="none" stroke="#000000" stroke-width="2" d="M384.1,-258C388.34,-258 521.73,-258 525.9,-258"/>
<path fill="none" stroke="#ffff00" stroke-width="2" d="M384.1,-260C388.34,-260 521.73,-260 525.9,-260"/>
<path fill="none" stroke="#000000" stroke-width="2" d="M384.1,-262C388.34,-262 521.73,-262 525.9,-262"/>
<text text-anchor="middle" x="389.1" y="-264.96" font-family="arial" font-size="14.00"> &#160;&#160;&#160;&#160;&#160;&#160;&#160;&#160;&#160;&#160;&#160;&#160;&#160;&#160;&#160;&#160;&#160;&#160;&#160;&#160;&#160;&#160;&#160;&#160;&#160;&#160;&#160;&#160;&#160;&#160;&#160;&#160;&#160;&#160;YE</text>
</g>
<!-- W2_w3r&#45;&#45;X3 -->
<g id="edge21" class="edge">
<title>W2_w3r:e&#45;&#45;X3:p3l</title>
<path fill="none" stroke="#000000" stroke-width="2" d="M528,-258C606.22,-258 625.78,-258 704,-258"/>
<path fill="none" stroke="#ffff00" stroke-width="2" d="M528,-260C606.22,-260 625.78,-260 704,-260"/>
<path fill="none" stroke="#000000" stroke-width="2" d="M528,-262C606.22,-262 625.78,-262 704,-262"/>
<text text-anchor="middle" x="533" y="-264.96" font-family="arial" font-size="14.00">X3:3 &#160;&#160;&#160;&#160;&#160;&#160;&#160;&#160;&#160;&#160;&#160;</text>
</g>
<!-- W2_w4r -->
<g id="node21" class="node">
<title>W2_w4r</title>
<ellipse fill="white" stroke="black" cx="527" cy="-236" rx="0" ry="0"/>
</g>
<!-- W2_w4l&#45;&#45;W2_w4r -->
<g id="edge22" class="edge">
<title>W2_w4l&#45;&#45;W2_w4r</title>
<path fill="none" stroke="#000000" stroke-width="2" d="M384.1,-234C388.34,-234 521.73,-234 525.9,-234"/>
<path fill="none" stroke="#00ff00" stroke-width="2" d="M384.1,-236C388.34,-236 521.73,-236 525.9,-236"/>
<path fill="none" stroke="#000000" stroke-width="2" d="M384.1,-238C388.34,-238 521.73,-238 525.9,-238"/>
<text text-anchor="middle" x="389.1" y="-240.96" font-family="arial" font-size="14.00"> &#160;&#160;&#160;&#160;&#160;&#160;&#160;&#160;&#160;&#160;&#160;&#160;&#160;&#160;&#160;&#160;&#160;&#160;&#160;&#160;&#160;&#160;&#160;&#160;&#160;&#160;&#160;&#160;&#160;&#160;&#160;&#160;&#160;&#160;GN</text>
</g>
<!-- W2_w4r&#45;&#45;X3 -->
<g id="edge24" class="edge">
<title>W2_w4r:e&#45;&#45;X3:p4l</title>
<path fill="none" stroke="#000000" stroke-width="2" d="M528,-234C606.33,-234 625.88,-235 704,-235"/>
<path fill="none" stroke="#00ff00" stroke-width="2" d="M528,-236C606.22,-236 625.78,-237 704,-237"/>
<path fill="none" stroke="#000000" stroke-width="2" d="M528,-238C606.12,-238 625.67,-239 704,-239"/>
<text text-anchor="middle" x="532.99" y="-240.97" font-family="arial" font-size="14.00">X3:4 &#160;&#160;&#160;&#160;&#160;&#160;&#160;&#160;&#160;&#160;&#160;</text>
</g>
<!-- W3_w1r -->
<g id="node23" class="node">
<title>W3_w1r</title>
<ellipse fill="white" stroke="black" cx="527" cy="-174" rx="0" ry="0"/>
</g>
<!-- W3_w1l&#45;&#45;W3_w1r -->
<g id="edge25" class="edge">
<title>W3_w1l&#45;&#45;W3_w1r</title>
<path fill="none" stroke="#000000" stroke-width="2" d="M384.1,-172C388.34,-172 521.73,-172 525.9,-172"/>
<path fill="none" stroke="#000000" stroke-width="2" d="M384.1,-174C388.34,-174 521.73,-174 525.9,-174"/>
<path fill="none" stroke="#000000" stroke-width="2" d="M384.1,-176C388.34,-176 521.73,-176 525.9,-176"/>
<text text-anchor="middle" x="389.1" y="-178.96" font-family="arial" font-size="14.00"> &#160;&#160;&#160;&#160;&#160;&#160;&#160;&#160;&#160;&#160;&#160;&#160;&#160;&#160;&#160;&#160;&#160;&#160;&#160;&#160;&#160;&#160;&#160;&#160;&#160;&#160;&#160;&#160;&#160;&#160;&#160;&#160;&#160;&#160;BK</text>
</g>
<!-- W3_w1r&#45;&#45;X4 -->
<g id="edge27" class="edge">
<title>W3_w1r:e&#45;&#45;X4:p1l</title>
<path fill="none" stroke="#000000" stroke-width="2" d="M528,-172C605.68,-173.03 622.82,-142.03 704,-141"/>
<path fill="none" stroke="#000000" stroke-width="2" d="M528,-174C607.43,-174 624.57,-143 704,-143"/>
<path fill="none" stroke="#000000" stroke-width="2" d="M528,-176C609.18,-174.97 626.32,-143.97 704,-145"/>
<text text-anchor="middle" x="533.34" y="-178.76" font-family="arial" font-size="14.00">X4:1 &#160;&#160;&#160;&#160;&#160;&#160;&#160;&#160;&#160;&#160;&#160;</text>
</g>
<!-- W3_w2r -->
<g id="node25" class="node">
<title>W3_w2r</title>
<ellipse fill="white" stroke="black" cx="527" cy="-150" rx="0" ry="0"/>
</g>
<!-- W3_w2l&#45;&#45;W3_w2r -->
<g id="edge28" class="edge">
<title>W3_w2l&#45;&#45;W3_w2r</title>
<path fill="none" stroke="#000000" stroke-width="2" d="M384.1,-148C388.34,-148 521.73,-148 525.9,-148"/>
<path fill="none" stroke="#0066ff" stroke-width="2" d="M384.1,-150C388.34,-150 521.73,-150 525.9,-150"/>
<path fill="none" stroke="#000000" stroke-width="2" d="M384.1,-152C388.34,-152 521.73,-152 525.9,-152"/>
<text text-anchor="middle" x="389.1" y="-154.96" font-family="arial" font-size="14.00"> &#160;&#160;&#160;&#160;&#160;&#160;&#160;&#160;&#160;&#160;&#160;&#160;&#160;&#160;&#160;&#160;&#160;&#160;&#160;&#160;&#160;&#160;&#160;&#160;&#160;&#160;&#160;&#160;&#160;&#160;&#160;&#160;&#160;&#160;BU</text>
</g>
<!-- W3_w2r&#45;&#45;X4 -->
<g id="edge30" class="edge">
<title>W3_w2r:e&#45;&#45;X4:p3l</title>
<path fill="none" stroke="#000000" stroke-width="2" d="M528,-148C607.75,-149.54 620.36,-96.54 704,-95"/>
<path fill="none" stroke="#0066ff" stroke-width="2" d="M528,-150C609.69,-150 622.31,-97 704,-97"/>
<path fill="none" stroke="#000000" stroke-width="2" d="M528,-152C611.64,-150.46 624.25,-97.46 704,-99"/>
<text text-anchor="middle" x="533.56" y="-154.61" font-family="arial" font-size="14.00">X4:3 &#160;&#160;&#160;&#160;&#160;&#160;&#160;&#160;&#160;&#160;&#160;</text>
</g>
<!-- W3_w3r -->
<g id="node27" class="node">
<title>W3_w3r</title>
<ellipse fill="white" stroke="black" cx="527" cy="-126" rx="0" ry="0"/>
</g>
<!-- W3_w3l&#45;&#45;W3_w3r -->
<g id="edge31" class="edge">
<title>W3_w3l&#45;&#45;W3_w3r</title>
<path fill="none" stroke="#000000" stroke-width="2" d="M384.1,-124C388.34,-124 521.73,-124 525.9,-124"/>
<path fill="none" stroke="#ff8000" stroke-width="2" d="M384.1,-126C388.34,-126 521.73,-126 525.9,-126"/>
<path fill="none" stroke="#000000" stroke-width="2" d="M384.1,-128C388.34,-128 521.73,-128 525.9,-128"/>
<text text-anchor="middle" x="389.1" y="-130.96" font-family="arial" font-size="14.00"> &#160;&#160;&#160;&#160;&#160;&#160;&#160;&#160;&#160;&#160;&#160;&#160;&#160;&#160;&#160;&#160;&#160;&#160;&#160;&#160;&#160;&#160;&#160;&#160;&#160;&#160;&#160;&#160;&#160;&#160;&#160;&#160;&#160;&#160;OG</text>
</g>
<!-- W3_w3r&#45;&#45;X4 -->
<g id="edge33" class="edge">
<title>W3_w3r:e&#45;&#45;X4:p4l</title>
<path fill="none" stroke="#000000" stroke-width="2" d="M528,-124C607.62,-125.52 620.49,-73.52 704,-72"/>
<path fill="none" stroke="#ff8000" stroke-width="2" d="M528,-126C609.56,-126 622.44,-74 704,-74"/>
<path fill="none" stroke="#000000" stroke-width="2" d="M528,-128C611.51,-126.48 624.38,-74.48 704,-76"/>
<text text-anchor="middle" x="533.55" y="-130.62" font-family="arial" font-size="14.00">X4:4 &#160;&#160;&#160;&#160;&#160;&#160;&#160;&#160;&#160;&#160;&#160;</text>
</g>
<!-- W3_w4r -->
<g id="node29" class="node">
<title>W3_w4r</title>
<ellipse fill="white" stroke="black" cx="527" cy="-102" rx="0" ry="0"/>
</g>
<!-- W3_w4l&#45;&#45;W3_w4r -->
<g id="edge34" class="edge">
<title>W3_w4l&#45;&#45;W3_w4r</title>
<path fill="none" stroke="#000000" stroke-width="2" d="M384.1,-100C388.34,-100 521.73,-100 525.9,-100"/>
<path fill="none" stroke="#8000ff" stroke-width="2" d="M384.1,-102C388.34,-102 521.73,-102 525.9,-102"/>
<path fill="none" stroke="#000000" stroke-width="2" d="M384.1,-104C388.34,-104 521.73,-104 525.9,-104"/>
<text text-anchor="middle" x="389.1" y="-106.96" font-family="arial" font-size="14.00"> &#160;&#160;&#160;&#160;&#160;&#160;&#160;&#160;&#160;&#160;&#160;&#160;&#160;&#160;&#160;&#160;&#160;&#160;&#160;&#160;&#160;&#160;&#160;&#160;&#160;&#160;&#160;&#160;&#160;&#160;&#160;&#160;&#160;&#160;VT</text>
</g>
<!-- W3_w4r&#45;&#45;X4 -->
<g id="edge36" class="edge">
<title>W3_w4r:e&#45;&#45;X4:p5l</title>
<path fill="none" stroke="#000000" stroke-width="2" d="M528,-100C607.5,-101.5 620.62,-50.5 704,-49"/>
<path fill="none" stroke="#8000ff" stroke-width="2" d="M528,-102C609.44,-102 622.56,-51 704,-51"/>
<path fill="none" stroke="#000000" stroke-width="2" d="M528,-104C611.38,-102.5 624.5,-51.5 704,-53"/>
<text text-anchor="middle" x="533.54" y="-106.63" font-family="arial" font-size="14.00">X4:5 &#160;&#160;&#160;&#160;&#160;&#160;&#160;&#160;&#160;&#160;&#160;</text>
</g>
<!-- W4_w1r -->
<g id="node31" class="node">
<title>W4_w1r</title>
<ellipse fill="white" stroke="black" cx="527" cy="-40" rx="0" ry="0"/>
</g>
<!-- W4_w1l&#45;&#45;W4_w1r -->
<g id="edge37" class="edge">
<title>W4_w1l&#45;&#45;W4_w1r</title>
<path fill="none" stroke="#000000" stroke-width="2" d="M384.1,-38C388.34,-38 521.73,-38 525.9,-38"/>
<path fill="none" stroke="#000000" stroke-width="2" d="M384.1,-40C388.34,-40 521.73,-40 525.9,-40"/>
<path fill="none" stroke="#000000" stroke-width="2" d="M384.1,-42C388.34,-42 521.73,-42 525.9,-42"/>
<text text-anchor="middle" x="389.1" y="-44.96" font-family="arial" font-size="14.00"> &#160;&#160;&#160;&#160;&#160;&#160;&#160;&#160;&#160;&#160;&#160;&#160;&#160;&#160;&#160;&#160;&#160;&#160;&#160;&#160;&#160;&#160;&#160;&#160;&#160;&#160;&#160;&#160;&#160;&#160;&#160;&#160;&#160;&#160;BK</text>
</g>
<!-- W4_w1r&#45;&#45;X4 -->
<g id="edge39" class="edge">
<title>W4_w1r:e&#45;&#45;X4:p1l</title>
<path fill="none" stroke="#000000" stroke-width="2" d="M528,-38C620.63,-40.1 615.36,-143.1 704,-141"/>
<path fill="none" stroke="#000000" stroke-width="2" d="M528,-40C618.63,-40 613.37,-143 704,-143"/>
<path fill="none" stroke="#000000" stroke-width="2" d="M528,-42C616.64,-39.9 611.37,-142.9 704,-145"/>
<text text-anchor="middle" x="531.95" y="-45.49" font-family="arial" font-size="14.00">X4:1 &#160;&#160;&#160;&#160;&#160;&#160;&#160;&#160;&#160;&#160;&#160;</text>
</g>
<!-- W4_w2r -->
<g id="node33" class="node">
<title>W4_w2r</title>
<ellipse fill="white" stroke="black" cx="527" cy="-16" rx="0" ry="0"/>
</g>
<!-- W4_w2l&#45;&#45;W4_w2r -->
<g id="edge40" class="edge">
<title>W4_w2l&#45;&#45;W4_w2r</title>
<path fill="none" stroke="#000000" stroke-width="2" d="M384.1,-14C388.34,-14 521.73,-14 525.9,-14"/>
<path fill="none" stroke="#ff0000" stroke-width="2" d="M384.1,-16C388.34,-16 521.73,-16 525.9,-16"/>
<path fill="none" stroke="#000000" stroke-width="2" d="M384.1,-18C388.34,-18 521.73,-18 525.9,-18"/>
<text text-anchor="middle" x="389.1" y="-20.96" font-family="arial" font-size="14.00"> &#160;&#160;&#160;&#160;&#160;&#160;&#160;&#160;&#160;&#160;&#160;&#160;&#160;&#160;&#160;&#160;&#160;&#160;&#160;&#160;&#160;&#160;&#160;&#160;&#160;&#160;&#160;&#160;&#160;&#160;&#160;&#160;&#160;&#160;RD</text>
</g>
<!-- W4_w2r&#45;&#45;X4 -->
<g id="edge42" class="edge">
<title>W4_w2r:e&#45;&#45;X4:p2l</title>
<path fill="none" stroke="#000000" stroke-width="2" d="M528,-14C620.86,-16.11 615.14,-120.11 704,-118"/>
<path fill="none" stroke="#ff0000" stroke-width="2" d="M528,-16C618.86,-16 613.14,-120 704,-120"/>
<path fill="none" stroke="#000000" stroke-width="2" d="M528,-18C616.86,-15.89 611.14,-119.89 704,-122"/>
<text text-anchor="middle" x="531.95" y="-21.49" font-family="arial" font-size="14.00">X4:2 &#160;&#160;&#160;&#160;&#160;&#160;&#160;&#160;&#160;&#160;&#160;</text>
</g>
</g>
</svg>
