<?xml version="1.0" encoding="UTF-8" standalone="no"?>
<!DOCTYPE svg PUBLIC "-//W3C//DTD SVG 1.1//EN"
 "http://www.w3.org/Graphics/SVG/1.1/DTD/svg11.dtd">
<!-- Generated by graphviz version 2.44.0 (20200408.0750)
 -->
<!-- Pages: 1 -->
<svg width="906pt" height="658pt"
 viewBox="0.00 0.00 906.00 658.00" xmlns="http://www.w3.org/2000/svg" xmlns:xlink="http://www.w3.org/1999/xlink">
<g id="graph0" class="graph" transform="scale(1 1) rotate(0) translate(4 654)">
<polygon fill="white" stroke="transparent" points="-4,4 -4,-654 902,-654 902,4 -4,4"/>
<!-- X1 -->
<g id="node1" class="node">
<title>X1</title>
<polygon fill="white" stroke="black" points="0,-232.5 0,-462.5 206,-462.5 206,-232.5 0,-232.5"/>
<text text-anchor="middle" x="103" y="-447.3" font-family="arial" font-size="14.00">X1</text>
<polyline fill="none" stroke="black" points="0,-439.5 206,-439.5 "/>
<text text-anchor="middle" x="50.5" y="-424.3" font-family="arial" font-size="14.00">Molex KK 254</text>
<polyline fill="none" stroke="black" points="101,-416.5 101,-439.5 "/>
<text text-anchor="middle" x="130" y="-424.3" font-family="arial" font-size="14.00">female</text>
<polyline fill="none" stroke="black" points="159,-416.5 159,-439.5 "/>
<text text-anchor="middle" x="182.5" y="-424.3" font-family="arial" font-size="14.00">8&#45;pin</text>
<polyline fill="none" stroke="black" points="0,-416.5 206,-416.5 "/>
<text text-anchor="middle" x="58.5" y="-401.3" font-family="arial" font-size="14.00">GND</text>
<polyline fill="none" stroke="black" points="0,-393.5 117,-393.5 "/>
<text text-anchor="middle" x="58.5" y="-378.3" font-family="arial" font-size="14.00">+5V</text>
<polyline fill="none" stroke="black" points="0,-370.5 117,-370.5 "/>
<text text-anchor="middle" x="58.5" y="-355.3" font-family="arial" font-size="14.00">SCL</text>
<polyline fill="none" stroke="black" points="0,-347.5 117,-347.5 "/>
<text text-anchor="middle" x="58.5" y="-332.3" font-family="arial" font-size="14.00">SDA</text>
<polyline fill="none" stroke="black" points="0,-324.5 117,-324.5 "/>
<text text-anchor="middle" x="58.5" y="-309.3" font-family="arial" font-size="14.00">MISO</text>
<polyline fill="none" stroke="black" points="0,-301.5 117,-301.5 "/>
<text text-anchor="middle" x="58.5" y="-286.3" font-family="arial" font-size="14.00">MOSI</text>
<polyline fill="none" stroke="black" points="0,-278.5 117,-278.5 "/>
<text text-anchor="middle" x="58.5" y="-263.3" font-family="arial" font-size="14.00">SCK</text>
<polyline fill="none" stroke="black" points="0,-255.5 117,-255.5 "/>
<text text-anchor="middle" x="58.5" y="-240.3" font-family="arial" font-size="14.00">N/C</text>
<polyline fill="none" stroke="black" points="117,-232.5 117,-416.5 "/>
<text text-anchor="middle" x="161.5" y="-401.3" font-family="arial" font-size="14.00">1</text>
<polyline fill="none" stroke="black" points="117,-393.5 206,-393.5 "/>
<text text-anchor="middle" x="161.5" y="-378.3" font-family="arial" font-size="14.00">2</text>
<polyline fill="none" stroke="black" points="117,-370.5 206,-370.5 "/>
<text text-anchor="middle" x="161.5" y="-355.3" font-family="arial" font-size="14.00">3</text>
<polyline fill="none" stroke="black" points="117,-347.5 206,-347.5 "/>
<text text-anchor="middle" x="161.5" y="-332.3" font-family="arial" font-size="14.00">4</text>
<polyline fill="none" stroke="black" points="117,-324.5 206,-324.5 "/>
<text text-anchor="middle" x="161.5" y="-309.3" font-family="arial" font-size="14.00">5</text>
<polyline fill="none" stroke="black" points="117,-301.5 206,-301.5 "/>
<text text-anchor="middle" x="161.5" y="-286.3" font-family="arial" font-size="14.00">6</text>
<polyline fill="none" stroke="black" points="117,-278.5 206,-278.5 "/>
<text text-anchor="middle" x="161.5" y="-263.3" font-family="arial" font-size="14.00">7</text>
<polyline fill="none" stroke="black" points="117,-255.5 206,-255.5 "/>
<text text-anchor="middle" x="161.5" y="-240.3" font-family="arial" font-size="14.00">8</text>
</g>
<!-- W1 -->
<g id="node6" class="node">
<title>W1</title>
<polygon fill="white" stroke="black" stroke-dasharray="5,2" points="548,-650 350,-650 350,-493 548,-493 548,-650"/>
<polygon fill="none" stroke="black" points="350,-626.5 350,-649.5 373,-649.5 373,-626.5 350,-626.5"/>
<text text-anchor="start" x="354" y="-634.3" font-family="arial" font-size="14.00">4x</text>
<polygon fill="none" stroke="black" points="373,-626.5 373,-649.5 505,-649.5 505,-626.5 373,-626.5"/>
<text text-anchor="start" x="377" y="-634.3" font-family="arial" font-size="14.00">0.14 mm² (26 AWG)</text>
<polygon fill="none" stroke="black" points="505,-626.5 505,-649.5 548,-649.5 548,-626.5 505,-626.5"/>
<text text-anchor="start" x="509" y="-634.3" font-family="arial" font-size="14.00">0.2 m</text>
<text text-anchor="start" x="447" y="-615.3" font-family="arial" font-size="14.00"> </text>
<text text-anchor="start" x="370" y="-598.3" font-family="arial" font-size="14.00">X1:1</text>
<text text-anchor="start" x="439.5" y="-598.3" font-family="arial" font-size="14.00">BK</text>
<text text-anchor="start" x="500" y="-598.3" font-family="arial" font-size="14.00">X2:1</text>
<polygon fill="#000000" stroke="transparent" points="350,-586.5 350,-592.5 548,-592.5 548,-586.5 350,-586.5"/>
<polyline fill="none" stroke="black" stroke-width="2" points="351,-587.5 547,-587.5 "/>
<polyline fill="none" stroke="black" stroke-width="2" points="547,-591.5 351,-591.5 "/>
<text text-anchor="start" x="370" y="-573.3" font-family="arial" font-size="14.00">X1:2</text>
<text text-anchor="start" x="439" y="-573.3" font-family="arial" font-size="14.00">RD</text>
<text text-anchor="start" x="500" y="-573.3" font-family="arial" font-size="14.00">X2:2</text>
<polygon fill="#ff0000" stroke="transparent" stroke-width="2" points="350,-561.5 350,-567.5 548,-567.5 548,-561.5 350,-561.5"/>
<polyline fill="none" stroke="black" stroke-width="2" points="351,-562.5 547,-562.5 "/>
<polyline fill="none" stroke="black" stroke-width="2" points="547,-566.5 351,-566.5 "/>
<text text-anchor="start" x="370" y="-548.3" font-family="arial" font-size="14.00">X1:3</text>
<text text-anchor="start" x="439.5" y="-548.3" font-family="arial" font-size="14.00">YE</text>
<text text-anchor="start" x="500" y="-548.3" font-family="arial" font-size="14.00">X2:3</text>
<polygon fill="#ffff00" stroke="transparent" stroke-width="2" points="350,-536.5 350,-542.5 548,-542.5 548,-536.5 350,-536.5"/>
<polyline fill="none" stroke="black" stroke-width="2" points="351,-537.5 547,-537.5 "/>
<polyline fill="none" stroke="black" stroke-width="2" points="547,-541.5 351,-541.5 "/>
<text text-anchor="start" x="370" y="-523.3" font-family="arial" font-size="14.00">X1:4</text>
<text text-anchor="start" x="438" y="-523.3" font-family="arial" font-size="14.00">GN</text>
<text text-anchor="start" x="500" y="-523.3" font-family="arial" font-size="14.00">X2:4</text>
<polygon fill="#00ff00" stroke="transparent" stroke-width="2" points="350,-511.5 350,-517.5 548,-517.5 548,-511.5 350,-511.5"/>
<polyline fill="none" stroke="black" stroke-width="2" points="351,-512.5 547,-512.5 "/>
<polyline fill="none" stroke="black" stroke-width="2" points="547,-516.5 351,-516.5 "/>
<text text-anchor="start" x="382" y="-498.3" font-family="arial" font-size="14.00"> </text>
</g>
<!-- X1&#45;&#45;W1 -->
<g id="edge1" class="edge">
<title>X1:e&#45;&#45;W1:w</title>
<path fill="none" stroke="#000000" stroke-width="2" d="M206,-403.5C311.73,-406.15 248.05,-590.15 350,-587.5"/>
<path fill="none" stroke="#000000" stroke-width="2" d="M206,-405.5C309.84,-405.5 246.16,-589.5 350,-589.5"/>
<path fill="none" stroke="#000000" stroke-width="2" d="M206,-407.5C307.95,-404.85 244.27,-588.85 350,-591.5"/>
</g>
<!-- X1&#45;&#45;W1 -->
<g id="edge3" class="edge">
<title>X1:e&#45;&#45;W1:w</title>
<path fill="none" stroke="#000000" stroke-width="2" d="M206,-380.5C311.04,-383.15 248.75,-565.15 350,-562.5"/>
<path fill="none" stroke="#ff0000" stroke-width="2" d="M206,-382.5C309.15,-382.5 246.85,-564.5 350,-564.5"/>
<path fill="none" stroke="#000000" stroke-width="2" d="M206,-384.5C307.25,-381.85 244.96,-563.85 350,-566.5"/>
</g>
<!-- X1&#45;&#45;W1 -->
<g id="edge5" class="edge">
<title>X1:e&#45;&#45;W1:w</title>
<path fill="none" stroke="#000000" stroke-width="2" d="M206,-357.5C310.34,-360.14 249.44,-540.14 350,-537.5"/>
<path fill="none" stroke="#ffff00" stroke-width="2" d="M206,-359.5C308.45,-359.5 247.55,-539.5 350,-539.5"/>
<path fill="none" stroke="#000000" stroke-width="2" d="M206,-361.5C306.56,-358.86 245.66,-538.86 350,-541.5"/>
</g>
<!-- X1&#45;&#45;W1 -->
<g id="edge7" class="edge">
<title>X1:e&#45;&#45;W1:w</title>
<path fill="none" stroke="#000000" stroke-width="2" d="M206,-333.5C310,-336.14 249.79,-515.14 350,-512.5"/>
<path fill="none" stroke="#00ff00" stroke-width="2" d="M206,-335.5C308.1,-335.5 247.9,-514.5 350,-514.5"/>
<path fill="none" stroke="#000000" stroke-width="2" d="M206,-337.5C306.21,-334.86 246,-513.86 350,-516.5"/>
</g>
<!-- W2 -->
<g id="node7" class="node">
<title>W2</title>
<polygon fill="white" stroke="black" stroke-dasharray="5,2" points="548,-469 350,-469 350,-312 548,-312 548,-469"/>
<polygon fill="none" stroke="black" points="350,-445.5 350,-468.5 373,-468.5 373,-445.5 350,-445.5"/>
<text text-anchor="start" x="354" y="-453.3" font-family="arial" font-size="14.00">4x</text>
<polygon fill="none" stroke="black" points="373,-445.5 373,-468.5 505,-468.5 505,-445.5 373,-445.5"/>
<text text-anchor="start" x="377" y="-453.3" font-family="arial" font-size="14.00">0.14 mm² (26 AWG)</text>
<polygon fill="none" stroke="black" points="505,-445.5 505,-468.5 548,-468.5 548,-445.5 505,-445.5"/>
<text text-anchor="start" x="509" y="-453.3" font-family="arial" font-size="14.00">0.2 m</text>
<text text-anchor="start" x="447" y="-434.3" font-family="arial" font-size="14.00"> </text>
<text text-anchor="start" x="370" y="-417.3" font-family="arial" font-size="14.00">X1:1</text>
<text text-anchor="start" x="439.5" y="-417.3" font-family="arial" font-size="14.00">BK</text>
<text text-anchor="start" x="500" y="-417.3" font-family="arial" font-size="14.00">X3:1</text>
<polygon fill="#000000" stroke="transparent" points="350,-405.5 350,-411.5 548,-411.5 548,-405.5 350,-405.5"/>
<polyline fill="none" stroke="black" stroke-width="2" points="351,-406.5 547,-406.5 "/>
<polyline fill="none" stroke="black" stroke-width="2" points="547,-410.5 351,-410.5 "/>
<text text-anchor="start" x="370" y="-392.3" font-family="arial" font-size="14.00">X1:2</text>
<text text-anchor="start" x="439" y="-392.3" font-family="arial" font-size="14.00">RD</text>
<text text-anchor="start" x="500" y="-392.3" font-family="arial" font-size="14.00">X3:2</text>
<polygon fill="#ff0000" stroke="transparent" stroke-width="2" points="350,-380.5 350,-386.5 548,-386.5 548,-380.5 350,-380.5"/>
<polyline fill="none" stroke="black" stroke-width="2" points="351,-381.5 547,-381.5 "/>
<polyline fill="none" stroke="black" stroke-width="2" points="547,-385.5 351,-385.5 "/>
<text text-anchor="start" x="370" y="-367.3" font-family="arial" font-size="14.00">X1:3</text>
<text text-anchor="start" x="439.5" y="-367.3" font-family="arial" font-size="14.00">YE</text>
<text text-anchor="start" x="500" y="-367.3" font-family="arial" font-size="14.00">X3:3</text>
<polygon fill="#ffff00" stroke="transparent" stroke-width="2" points="350,-355.5 350,-361.5 548,-361.5 548,-355.5 350,-355.5"/>
<polyline fill="none" stroke="black" stroke-width="2" points="351,-356.5 547,-356.5 "/>
<polyline fill="none" stroke="black" stroke-width="2" points="547,-360.5 351,-360.5 "/>
<text text-anchor="start" x="370" y="-342.3" font-family="arial" font-size="14.00">X1:4</text>
<text text-anchor="start" x="438" y="-342.3" font-family="arial" font-size="14.00">GN</text>
<text text-anchor="start" x="500" y="-342.3" font-family="arial" font-size="14.00">X3:4</text>
<polygon fill="#00ff00" stroke="transparent" stroke-width="2" points="350,-330.5 350,-336.5 548,-336.5 548,-330.5 350,-330.5"/>
<polyline fill="none" stroke="black" stroke-width="2" points="351,-331.5 547,-331.5 "/>
<polyline fill="none" stroke="black" stroke-width="2" points="547,-335.5 351,-335.5 "/>
<text text-anchor="start" x="382" y="-317.3" font-family="arial" font-size="14.00"> </text>
</g>
<!-- X1&#45;&#45;W2 -->
<g id="edge9" class="edge">
<title>X1:e&#45;&#45;W2:w</title>
<path fill="none" stroke="#000000" stroke-width="2" d="M206,-403.5C270.38,-403.53 286.36,-406.53 350,-406.5"/>
<path fill="none" stroke="#000000" stroke-width="2" d="M206,-405.5C270.01,-405.5 285.99,-408.5 350,-408.5"/>
<path fill="none" stroke="#000000" stroke-width="2" d="M206,-407.5C269.64,-407.47 285.62,-410.47 350,-410.5"/>
</g>
<!-- X1&#45;&#45;W2 -->
<g id="edge11" class="edge">
<title>X1:e&#45;&#45;W2:w</title>
<path fill="none" stroke="#000000" stroke-width="2" d="M206,-380.5C270.13,-380.5 286.12,-381.5 350,-381.5"/>
<path fill="none" stroke="#ff0000" stroke-width="2" d="M206,-382.5C270,-382.5 286,-383.5 350,-383.5"/>
<path fill="none" stroke="#000000" stroke-width="2" d="M206,-384.5C269.88,-384.5 285.87,-385.5 350,-385.5"/>
</g>
<!-- X1&#45;&#45;W2 -->
<g id="edge13" class="edge">
<title>X1:e&#45;&#45;W2:w</title>
<path fill="none" stroke="#000000" stroke-width="2" d="M206,-357.5C269.88,-357.5 285.87,-356.5 350,-356.5"/>
<path fill="none" stroke="#ffff00" stroke-width="2" d="M206,-359.5C270,-359.5 286,-358.5 350,-358.5"/>
<path fill="none" stroke="#000000" stroke-width="2" d="M206,-361.5C270.13,-361.5 286.12,-360.5 350,-360.5"/>
</g>
<!-- X1&#45;&#45;W2 -->
<g id="edge15" class="edge">
<title>X1:e&#45;&#45;W2:w</title>
<path fill="none" stroke="#000000" stroke-width="2" d="M206,-333.5C269.76,-333.52 285.75,-331.52 350,-331.5"/>
<path fill="none" stroke="#00ff00" stroke-width="2" d="M206,-335.5C270.01,-335.5 285.99,-333.5 350,-333.5"/>
<path fill="none" stroke="#000000" stroke-width="2" d="M206,-337.5C270.25,-337.48 286.24,-335.48 350,-335.5"/>
</g>
<!-- W3 -->
<g id="node8" class="node">
<title>W3</title>
<polygon fill="white" stroke="black" stroke-dasharray="5,2" points="548,-288 350,-288 350,-131 548,-131 548,-288"/>
<polygon fill="none" stroke="black" points="350,-264.5 350,-287.5 373,-287.5 373,-264.5 350,-264.5"/>
<text text-anchor="start" x="354" y="-272.3" font-family="arial" font-size="14.00">4x</text>
<polygon fill="none" stroke="black" points="373,-264.5 373,-287.5 505,-287.5 505,-264.5 373,-264.5"/>
<text text-anchor="start" x="377" y="-272.3" font-family="arial" font-size="14.00">0.14 mm² (26 AWG)</text>
<polygon fill="none" stroke="black" points="505,-264.5 505,-287.5 548,-287.5 548,-264.5 505,-264.5"/>
<text text-anchor="start" x="509" y="-272.3" font-family="arial" font-size="14.00">0.2 m</text>
<text text-anchor="start" x="447" y="-253.3" font-family="arial" font-size="14.00"> </text>
<text text-anchor="start" x="370" y="-236.3" font-family="arial" font-size="14.00">X1:1</text>
<text text-anchor="start" x="440" y="-236.3" font-family="arial" font-size="14.00">BK</text>
<text text-anchor="start" x="500.5" y="-236.3" font-family="arial" font-size="14.00">X4:1</text>
<polygon fill="#000000" stroke="transparent" points="350,-224.5 350,-230.5 548,-230.5 548,-224.5 350,-224.5"/>
<polyline fill="none" stroke="black" stroke-width="2" points="351,-225.5 547,-225.5 "/>
<polyline fill="none" stroke="black" stroke-width="2" points="547,-229.5 351,-229.5 "/>
<text text-anchor="start" x="370" y="-211.3" font-family="arial" font-size="14.00">X1:5</text>
<text text-anchor="start" x="440" y="-211.3" font-family="arial" font-size="14.00">BU</text>
<text text-anchor="start" x="500.5" y="-211.3" font-family="arial" font-size="14.00">X4:3</text>
<polygon fill="#0066ff" stroke="transparent" stroke-width="2" points="350,-199.5 350,-205.5 548,-205.5 548,-199.5 350,-199.5"/>
<polyline fill="none" stroke="black" stroke-width="2" points="351,-200.5 547,-200.5 "/>
<polyline fill="none" stroke="black" stroke-width="2" points="547,-204.5 351,-204.5 "/>
<text text-anchor="start" x="370" y="-186.3" font-family="arial" font-size="14.00">X1:6</text>
<text text-anchor="start" x="438" y="-186.3" font-family="arial" font-size="14.00">OG</text>
<text text-anchor="start" x="500.5" y="-186.3" font-family="arial" font-size="14.00">X4:4</text>
<polygon fill="#ff8000" stroke="transparent" stroke-width="2" points="350,-174.5 350,-180.5 548,-180.5 548,-174.5 350,-174.5"/>
<polyline fill="none" stroke="black" stroke-width="2" points="351,-175.5 547,-175.5 "/>
<polyline fill="none" stroke="black" stroke-width="2" points="547,-179.5 351,-179.5 "/>
<text text-anchor="start" x="370" y="-161.3" font-family="arial" font-size="14.00">X1:7</text>
<text text-anchor="start" x="440.5" y="-161.3" font-family="arial" font-size="14.00">VT</text>
<text text-anchor="start" x="500.5" y="-161.3" font-family="arial" font-size="14.00">X4:5</text>
<polygon fill="#8000ff" stroke="transparent" stroke-width="2" points="350,-149.5 350,-155.5 548,-155.5 548,-149.5 350,-149.5"/>
<polyline fill="none" stroke="black" stroke-width="2" points="351,-150.5 547,-150.5 "/>
<polyline fill="none" stroke="black" stroke-width="2" points="547,-154.5 351,-154.5 "/>
<text text-anchor="start" x="382" y="-136.3" font-family="arial" font-size="14.00"> </text>
</g>
<!-- X1&#45;&#45;W3 -->
<g id="edge17" class="edge">
<title>X1:e&#45;&#45;W3:w</title>
<path fill="none" stroke="#000000" stroke-width="2" d="M206,-403.5C305.86,-406.13 246.35,-228.13 350,-225.5"/>
<path fill="none" stroke="#000000" stroke-width="2" d="M206,-405.5C307.76,-405.5 248.24,-227.5 350,-227.5"/>
<path fill="none" stroke="#000000" stroke-width="2" d="M206,-407.5C309.65,-404.87 250.14,-226.87 350,-229.5"/>
</g>
<!-- X1&#45;&#45;W3 -->
<g id="edge19" class="edge">
<title>X1:e&#45;&#45;W3:w</title>
<path fill="none" stroke="#000000" stroke-width="2" d="M206,-310.5C284.56,-312.81 267.49,-202.81 350,-200.5"/>
<path fill="none" stroke="#0066ff" stroke-width="2" d="M206,-312.5C286.54,-312.5 269.46,-202.5 350,-202.5"/>
<path fill="none" stroke="#000000" stroke-width="2" d="M206,-314.5C288.51,-312.19 271.44,-202.19 350,-204.5"/>
</g>
<!-- X1&#45;&#45;W3 -->
<g id="edge21" class="edge">
<title>X1:e&#45;&#45;W3:w</title>
<path fill="none" stroke="#000000" stroke-width="2" d="M206,-287.5C285.1,-289.82 266.95,-177.82 350,-175.5"/>
<path fill="none" stroke="#ff8000" stroke-width="2" d="M206,-289.5C287.08,-289.5 268.92,-177.5 350,-177.5"/>
<path fill="none" stroke="#000000" stroke-width="2" d="M206,-291.5C289.05,-289.18 270.9,-177.18 350,-179.5"/>
</g>
<!-- X1&#45;&#45;W3 -->
<g id="edge23" class="edge">
<title>X1:e&#45;&#45;W3:w</title>
<path fill="none" stroke="#000000" stroke-width="2" d="M206,-264.5C285.66,-266.83 266.4,-152.83 350,-150.5"/>
<path fill="none" stroke="#8000ff" stroke-width="2" d="M206,-266.5C287.63,-266.5 268.37,-152.5 350,-152.5"/>
<path fill="none" stroke="#000000" stroke-width="2" d="M206,-268.5C289.6,-266.17 270.34,-152.17 350,-154.5"/>
</g>
<!-- X2 -->
<g id="node2" class="node">
<title>X2</title>
<polygon fill="white" stroke="black" points="692,-506.5 692,-644.5 898,-644.5 898,-506.5 692,-506.5"/>
<text text-anchor="middle" x="795" y="-629.3" font-family="arial" font-size="14.00">X2</text>
<polyline fill="none" stroke="black" points="692,-621.5 898,-621.5 "/>
<text text-anchor="middle" x="742.5" y="-606.3" font-family="arial" font-size="14.00">Molex KK 254</text>
<polyline fill="none" stroke="black" points="793,-598.5 793,-621.5 "/>
<text text-anchor="middle" x="822" y="-606.3" font-family="arial" font-size="14.00">female</text>
<polyline fill="none" stroke="black" points="851,-598.5 851,-621.5 "/>
<text text-anchor="middle" x="874.5" y="-606.3" font-family="arial" font-size="14.00">4&#45;pin</text>
<polyline fill="none" stroke="black" points="692,-598.5 898,-598.5 "/>
<text text-anchor="middle" x="737.5" y="-583.3" font-family="arial" font-size="14.00">1</text>
<polyline fill="none" stroke="black" points="692,-575.5 783,-575.5 "/>
<text text-anchor="middle" x="737.5" y="-560.3" font-family="arial" font-size="14.00">2</text>
<polyline fill="none" stroke="black" points="692,-552.5 783,-552.5 "/>
<text text-anchor="middle" x="737.5" y="-537.3" font-family="arial" font-size="14.00">3</text>
<polyline fill="none" stroke="black" points="692,-529.5 783,-529.5 "/>
<text text-anchor="middle" x="737.5" y="-514.3" font-family="arial" font-size="14.00">4</text>
<polyline fill="none" stroke="black" points="783,-506.5 783,-598.5 "/>
<text text-anchor="middle" x="840.5" y="-583.3" font-family="arial" font-size="14.00">GND</text>
<polyline fill="none" stroke="black" points="783,-575.5 898,-575.5 "/>
<text text-anchor="middle" x="840.5" y="-560.3" font-family="arial" font-size="14.00">+5V</text>
<polyline fill="none" stroke="black" points="783,-552.5 898,-552.5 "/>
<text text-anchor="middle" x="840.5" y="-537.3" font-family="arial" font-size="14.00">SCL</text>
<polyline fill="none" stroke="black" points="783,-529.5 898,-529.5 "/>
<text text-anchor="middle" x="840.5" y="-514.3" font-family="arial" font-size="14.00">SDA</text>
</g>
<!-- X3 -->
<g id="node3" class="node">
<title>X3</title>
<polygon fill="white" stroke="black" points="692,-325.5 692,-463.5 898,-463.5 898,-325.5 692,-325.5"/>
<text text-anchor="middle" x="795" y="-448.3" font-family="arial" font-size="14.00">X3</text>
<polyline fill="none" stroke="black" points="692,-440.5 898,-440.5 "/>
<text text-anchor="middle" x="742.5" y="-425.3" font-family="arial" font-size="14.00">Molex KK 254</text>
<polyline fill="none" stroke="black" points="793,-417.5 793,-440.5 "/>
<text text-anchor="middle" x="822" y="-425.3" font-family="arial" font-size="14.00">female</text>
<polyline fill="none" stroke="black" points="851,-417.5 851,-440.5 "/>
<text text-anchor="middle" x="874.5" y="-425.3" font-family="arial" font-size="14.00">4&#45;pin</text>
<polyline fill="none" stroke="black" points="692,-417.5 898,-417.5 "/>
<text text-anchor="middle" x="737.5" y="-402.3" font-family="arial" font-size="14.00">1</text>
<polyline fill="none" stroke="black" points="692,-394.5 783,-394.5 "/>
<text text-anchor="middle" x="737.5" y="-379.3" font-family="arial" font-size="14.00">2</text>
<polyline fill="none" stroke="black" points="692,-371.5 783,-371.5 "/>
<text text-anchor="middle" x="737.5" y="-356.3" font-family="arial" font-size="14.00">3</text>
<polyline fill="none" stroke="black" points="692,-348.5 783,-348.5 "/>
<text text-anchor="middle" x="737.5" y="-333.3" font-family="arial" font-size="14.00">4</text>
<polyline fill="none" stroke="black" points="783,-325.5 783,-417.5 "/>
<text text-anchor="middle" x="840.5" y="-402.3" font-family="arial" font-size="14.00">GND</text>
<polyline fill="none" stroke="black" points="783,-394.5 898,-394.5 "/>
<text text-anchor="middle" x="840.5" y="-379.3" font-family="arial" font-size="14.00">+5V</text>
<polyline fill="none" stroke="black" points="783,-371.5 898,-371.5 "/>
<text text-anchor="middle" x="840.5" y="-356.3" font-family="arial" font-size="14.00">SCL</text>
<polyline fill="none" stroke="black" points="783,-348.5 898,-348.5 "/>
<text text-anchor="middle" x="840.5" y="-333.3" font-family="arial" font-size="14.00">SDA</text>
</g>
<!-- X4 -->
<g id="node4" class="node">
<title>X4</title>
<polygon fill="white" stroke="black" points="692,-131 692,-292 898,-292 898,-131 692,-131"/>
<text text-anchor="middle" x="795" y="-276.8" font-family="arial" font-size="14.00">X4</text>
<polyline fill="none" stroke="black" points="692,-269 898,-269 "/>
<text text-anchor="middle" x="742.5" y="-253.8" font-family="arial" font-size="14.00">Molex KK 254</text>
<polyline fill="none" stroke="black" points="793,-246 793,-269 "/>
<text text-anchor="middle" x="822" y="-253.8" font-family="arial" font-size="14.00">female</text>
<polyline fill="none" stroke="black" points="851,-246 851,-269 "/>
<text text-anchor="middle" x="874.5" y="-253.8" font-family="arial" font-size="14.00">5&#45;pin</text>
<polyline fill="none" stroke="black" points="692,-246 898,-246 "/>
<text text-anchor="middle" x="736" y="-230.8" font-family="arial" font-size="14.00">1</text>
<polyline fill="none" stroke="black" points="692,-223 780,-223 "/>
<text text-anchor="middle" x="736" y="-207.8" font-family="arial" font-size="14.00">2</text>
<polyline fill="none" stroke="black" points="692,-200 780,-200 "/>
<text text-anchor="middle" x="736" y="-184.8" font-family="arial" font-size="14.00">3</text>
<polyline fill="none" stroke="black" points="692,-177 780,-177 "/>
<text text-anchor="middle" x="736" y="-161.8" font-family="arial" font-size="14.00">4</text>
<polyline fill="none" stroke="black" points="692,-154 780,-154 "/>
<text text-anchor="middle" x="736" y="-138.8" font-family="arial" font-size="14.00">5</text>
<polyline fill="none" stroke="black" points="780,-131 780,-246 "/>
<text text-anchor="middle" x="839" y="-230.8" font-family="arial" font-size="14.00">GND</text>
<polyline fill="none" stroke="black" points="780,-223 898,-223 "/>
<text text-anchor="middle" x="839" y="-207.8" font-family="arial" font-size="14.00">+12V</text>
<polyline fill="none" stroke="black" points="780,-200 898,-200 "/>
<text text-anchor="middle" x="839" y="-184.8" font-family="arial" font-size="14.00">MISO</text>
<polyline fill="none" stroke="black" points="780,-177 898,-177 "/>
<text text-anchor="middle" x="839" y="-161.8" font-family="arial" font-size="14.00">MOSI</text>
<polyline fill="none" stroke="black" points="780,-154 898,-154 "/>
<text text-anchor="middle" x="839" y="-138.8" font-family="arial" font-size="14.00">SCK</text>
</g>
<!-- X5 -->
<g id="node5" class="node">
<title>X5</title>
<polygon fill="white" stroke="black" points="1,-11.5 1,-103.5 205,-103.5 205,-11.5 1,-11.5"/>
<text text-anchor="middle" x="103" y="-88.3" font-family="arial" font-size="14.00">X5</text>
<polyline fill="none" stroke="black" points="1,-80.5 205,-80.5 "/>
<text text-anchor="middle" x="56" y="-65.3" font-family="arial" font-size="14.00">Molex Micro&#45;Fit</text>
<polyline fill="none" stroke="black" points="111,-57.5 111,-80.5 "/>
<text text-anchor="middle" x="134.5" y="-65.3" font-family="arial" font-size="14.00">male</text>
<polyline fill="none" stroke="black" points="158,-57.5 158,-80.5 "/>
<text text-anchor="middle" x="181.5" y="-65.3" font-family="arial" font-size="14.00">2&#45;pin</text>
<polyline fill="none" stroke="black" points="1,-57.5 205,-57.5 "/>
<text text-anchor="middle" x="58" y="-42.3" font-family="arial" font-size="14.00">GND</text>
<polyline fill="none" stroke="black" points="1,-34.5 115,-34.5 "/>
<text text-anchor="middle" x="58" y="-19.3" font-family="arial" font-size="14.00">+12V</text>
<polyline fill="none" stroke="black" points="115,-11.5 115,-57.5 "/>
<text text-anchor="middle" x="160" y="-42.3" font-family="arial" font-size="14.00">1</text>
<polyline fill="none" stroke="black" points="115,-34.5 205,-34.5 "/>
<text text-anchor="middle" x="160" y="-19.3" font-family="arial" font-size="14.00">2</text>
</g>
<!-- W4 -->
<g id="node9" class="node">
<title>W4</title>
<polygon fill="white" stroke="black" stroke-dasharray="5,2" points="548,-107 350,-107 350,0 548,0 548,-107"/>
<polygon fill="none" stroke="black" points="350,-83.5 350,-106.5 373,-106.5 373,-83.5 350,-83.5"/>
<text text-anchor="start" x="354" y="-91.3" font-family="arial" font-size="14.00">2x</text>
<polygon fill="none" stroke="black" points="373,-83.5 373,-106.5 497,-106.5 497,-83.5 373,-83.5"/>
<text text-anchor="start" x="377" y="-91.3" font-family="arial" font-size="14.00">0.5 mm² (21 AWG)</text>
<polygon fill="none" stroke="black" points="497,-83.5 497,-106.5 548,-106.5 548,-83.5 497,-83.5"/>
<text text-anchor="start" x="501" y="-91.3" font-family="arial" font-size="14.00">0.35 m</text>
<text text-anchor="start" x="447" y="-72.3" font-family="arial" font-size="14.00"> </text>
<text text-anchor="start" x="370.5" y="-55.3" font-family="arial" font-size="14.00">X5:1</text>
<text text-anchor="start" x="440" y="-55.3" font-family="arial" font-size="14.00">BK</text>
<text text-anchor="start" x="500" y="-55.3" font-family="arial" font-size="14.00">X4:1</text>
<polygon fill="#000000" stroke="transparent" points="350,-43.5 350,-49.5 548,-49.5 548,-43.5 350,-43.5"/>
<polyline fill="none" stroke="black" stroke-width="2" points="351,-44.5 547,-44.5 "/>
<polyline fill="none" stroke="black" stroke-width="2" points="547,-48.5 351,-48.5 "/>
<text text-anchor="start" x="370.5" y="-30.3" font-family="arial" font-size="14.00">X5:2</text>
<text text-anchor="start" x="439.5" y="-30.3" font-family="arial" font-size="14.00">RD</text>
<text text-anchor="start" x="500" y="-30.3" font-family="arial" font-size="14.00">X4:2</text>
<polygon fill="#ff0000" stroke="transparent" stroke-width="2" points="350,-18.5 350,-24.5 548,-24.5 548,-18.5 350,-18.5"/>
<polyline fill="none" stroke="black" stroke-width="2" points="351,-19.5 547,-19.5 "/>
<polyline fill="none" stroke="black" stroke-width="2" points="547,-23.5 351,-23.5 "/>
<text text-anchor="start" x="382.5" y="-5.3" font-family="arial" font-size="14.00"> </text>
</g>
<!-- X5&#45;&#45;W4 -->
<g id="edge25" class="edge">
<title>X5:e&#45;&#45;W4:w</title>
<path fill="none" stroke="#000000" stroke-width="2" d="M206,-43.5C270.13,-43.5 286.12,-44.5 350,-44.5"/>
<path fill="none" stroke="#000000" stroke-width="2" d="M206,-45.5C270,-45.5 286,-46.5 350,-46.5"/>
<path fill="none" stroke="#000000" stroke-width="2" d="M206,-47.5C269.88,-47.5 285.87,-48.5 350,-48.5"/>
</g>
<!-- X5&#45;&#45;W4 -->
<g id="edge27" class="edge">
<title>X5:e&#45;&#45;W4:w</title>
<path fill="none" stroke="#000000" stroke-width="2" d="M206,-20.5C269.88,-20.5 285.87,-19.5 350,-19.5"/>
<path fill="none" stroke="#ff0000" stroke-width="2" d="M206,-22.5C270,-22.5 286,-21.5 350,-21.5"/>
<path fill="none" stroke="#000000" stroke-width="2" d="M206,-24.5C270.13,-24.5 286.12,-23.5 350,-23.5"/>
</g>
<!-- W1&#45;&#45;X2 -->
<g id="edge2" class="edge">
<title>W1:e&#45;&#45;X2:w</title>
<path fill="none" stroke="#000000" stroke-width="2" d="M548,-587.5C611.76,-587.52 627.75,-585.52 692,-585.5"/>
<path fill="none" stroke="#000000" stroke-width="2" d="M548,-589.5C612.01,-589.5 627.99,-587.5 692,-587.5"/>
<path fill="none" stroke="#000000" stroke-width="2" d="M548,-591.5C612.25,-591.48 628.24,-589.48 692,-589.5"/>
</g>
<!-- W1&#45;&#45;X2 -->
<g id="edge4" class="edge">
<title>W1:e&#45;&#45;X2:w</title>
<path fill="none" stroke="#000000" stroke-width="2" d="M548,-562.5C611.88,-562.5 627.87,-561.5 692,-561.5"/>
<path fill="none" stroke="#ff0000" stroke-width="2" d="M548,-564.5C612,-564.5 628,-563.5 692,-563.5"/>
<path fill="none" stroke="#000000" stroke-width="2" d="M548,-566.5C612.13,-566.5 628.12,-565.5 692,-565.5"/>
</g>
<!-- W1&#45;&#45;X2 -->
<g id="edge6" class="edge">
<title>W1:e&#45;&#45;X2:w</title>
<path fill="none" stroke="#000000" stroke-width="2" d="M548,-537.5C612.13,-537.5 628.12,-538.5 692,-538.5"/>
<path fill="none" stroke="#ffff00" stroke-width="2" d="M548,-539.5C612,-539.5 628,-540.5 692,-540.5"/>
<path fill="none" stroke="#000000" stroke-width="2" d="M548,-541.5C611.88,-541.5 627.87,-542.5 692,-542.5"/>
</g>
<!-- W1&#45;&#45;X2 -->
<g id="edge8" class="edge">
<title>W1:e&#45;&#45;X2:w</title>
<path fill="none" stroke="#000000" stroke-width="2" d="M548,-512.5C612.38,-512.53 628.36,-515.53 692,-515.5"/>
<path fill="none" stroke="#00ff00" stroke-width="2" d="M548,-514.5C612.01,-514.5 627.99,-517.5 692,-517.5"/>
<path fill="none" stroke="#000000" stroke-width="2" d="M548,-516.5C611.64,-516.47 627.62,-519.47 692,-519.5"/>
</g>
<!-- W2&#45;&#45;X3 -->
<g id="edge10" class="edge">
<title>W2:e&#45;&#45;X3:w</title>
<path fill="none" stroke="#000000" stroke-width="2" d="M548,-406.5C611.76,-406.52 627.75,-404.52 692,-404.5"/>
<path fill="none" stroke="#000000" stroke-width="2" d="M548,-408.5C612.01,-408.5 627.99,-406.5 692,-406.5"/>
<path fill="none" stroke="#000000" stroke-width="2" d="M548,-410.5C612.25,-410.48 628.24,-408.48 692,-408.5"/>
</g>
<!-- W2&#45;&#45;X3 -->
<g id="edge12" class="edge">
<title>W2:e&#45;&#45;X3:w</title>
<path fill="none" stroke="#000000" stroke-width="2" d="M548,-381.5C611.88,-381.5 627.87,-380.5 692,-380.5"/>
<path fill="none" stroke="#ff0000" stroke-width="2" d="M548,-383.5C612,-383.5 628,-382.5 692,-382.5"/>
<path fill="none" stroke="#000000" stroke-width="2" d="M548,-385.5C612.13,-385.5 628.12,-384.5 692,-384.5"/>
</g>
<!-- W2&#45;&#45;X3 -->
<g id="edge14" class="edge">
<title>W2:e&#45;&#45;X3:w</title>
<path fill="none" stroke="#000000" stroke-width="2" d="M548,-356.5C612.13,-356.5 628.12,-357.5 692,-357.5"/>
<path fill="none" stroke="#ffff00" stroke-width="2" d="M548,-358.5C612,-358.5 628,-359.5 692,-359.5"/>
<path fill="none" stroke="#000000" stroke-width="2" d="M548,-360.5C611.88,-360.5 627.87,-361.5 692,-361.5"/>
</g>
<!-- W2&#45;&#45;X3 -->
<g id="edge16" class="edge">
<title>W2:e&#45;&#45;X3:w</title>
<path fill="none" stroke="#000000" stroke-width="2" d="M548,-331.5C612.38,-331.53 628.36,-334.53 692,-334.5"/>
<path fill="none" stroke="#00ff00" stroke-width="2" d="M548,-333.5C612.01,-333.5 627.99,-336.5 692,-336.5"/>
<path fill="none" stroke="#000000" stroke-width="2" d="M548,-335.5C611.64,-335.47 627.62,-338.47 692,-338.5"/>
</g>
<!-- W3&#45;&#45;X4 -->
<g id="edge18" class="edge">
<title>W3:e&#45;&#45;X4:w</title>
<path fill="none" stroke="#000000" stroke-width="2" d="M548,-225.5C612.88,-225.67 628.73,-232.67 692,-232.5"/>
<path fill="none" stroke="#000000" stroke-width="2" d="M548,-227.5C612.08,-227.5 627.92,-234.5 692,-234.5"/>
<path fill="none" stroke="#000000" stroke-width="2" d="M548,-229.5C611.27,-229.33 627.12,-236.33 692,-236.5"/>
</g>
<!-- W3&#45;&#45;X4 -->
<g id="edge20" class="edge">
<title>W3:e&#45;&#45;X4:w</title>
<path fill="none" stroke="#000000" stroke-width="2" d="M548,-200.5C610.96,-201.02 626.35,-187.02 692,-186.5"/>
<path fill="none" stroke="#0066ff" stroke-width="2" d="M548,-202.5C612.3,-202.5 627.7,-188.5 692,-188.5"/>
<path fill="none" stroke="#000000" stroke-width="2" d="M548,-204.5C613.65,-203.98 629.04,-189.98 692,-190.5"/>
</g>
<!-- W3&#45;&#45;X4 -->
<g id="edge22" class="edge">
<title>W3:e&#45;&#45;X4:w</title>
<path fill="none" stroke="#000000" stroke-width="2" d="M548,-175.5C611,-175.92 626.56,-163.92 692,-163.5"/>
<path fill="none" stroke="#ff8000" stroke-width="2" d="M548,-177.5C612.22,-177.5 627.78,-165.5 692,-165.5"/>
<path fill="none" stroke="#000000" stroke-width="2" d="M548,-179.5C613.44,-179.08 629,-167.08 692,-167.5"/>
</g>
<!-- W3&#45;&#45;X4 -->
<g id="edge24" class="edge">
<title>W3:e&#45;&#45;X4:w</title>
<path fill="none" stroke="#000000" stroke-width="2" d="M548,-150.5C611.08,-150.81 626.77,-140.81 692,-140.5"/>
<path fill="none" stroke="#8000ff" stroke-width="2" d="M548,-152.5C612.15,-152.5 627.85,-142.5 692,-142.5"/>
<path fill="none" stroke="#000000" stroke-width="2" d="M548,-154.5C613.23,-154.19 628.92,-144.19 692,-144.5"/>
</g>
<!-- W4&#45;&#45;X4 -->
<g id="edge26" class="edge">
<title>W4:e&#45;&#45;X4:w</title>
<path fill="none" stroke="#000000" stroke-width="2" d="M548,-44.5C655.14,-47.17 588.64,-235.17 692,-232.5"/>
<path fill="none" stroke="#000000" stroke-width="2" d="M548,-46.5C653.25,-46.5 586.75,-234.5 692,-234.5"/>
<path fill="none" stroke="#000000" stroke-width="2" d="M548,-48.5C651.36,-45.83 584.86,-233.83 692,-236.5"/>
</g>
<!-- W4&#45;&#45;X4 -->
<g id="edge28" class="edge">
<title>W4:e&#45;&#45;X4:w</title>
<path fill="none" stroke="#000000" stroke-width="2" d="M548,-19.5C655.84,-22.17 587.93,-212.17 692,-209.5"/>
<path fill="none" stroke="#ff0000" stroke-width="2" d="M548,-21.5C653.96,-21.5 586.04,-211.5 692,-211.5"/>
<path fill="none" stroke="#000000" stroke-width="2" d="M548,-23.5C652.07,-20.83 584.16,-210.83 692,-213.5"/>
</g>
</g>
</svg>
