<?xml version="1.0" encoding="UTF-8" standalone="no"?>
<!DOCTYPE svg PUBLIC "-//W3C//DTD SVG 1.1//EN"
 "http://www.w3.org/Graphics/SVG/1.1/DTD/svg11.dtd">
<!-- Generated by graphviz version 12.1.2 (0)
 -->
<!-- Pages: 1 -->
<svg width="807pt" height="294pt"
 viewBox="0.00 0.00 806.50 293.50" xmlns="http://www.w3.org/2000/svg" xmlns:xlink="http://www.w3.org/1999/xlink">
<g id="graph0" class="graph" transform="scale(1 1) rotate(0) translate(4 289.5)">
<polygon fill="#ffffff" stroke="none" points="-4,4 -4,-289.5 802.5,-289.5 802.5,4 -4,4"/>
<!-- X1 -->
<g id="node1" class="node">
<title>X1</title>
<polygon fill="#ffffff" stroke="black" points="133.5,-254.5 0,-254.5 0,0 133.5,0 133.5,-254.5"/>
<polygon fill="#ffffff" stroke="none" points="0,0 0,-254.5 133.5,-254.5 133.5,0 0,0"/>
<polygon fill="none" stroke="black" points="0,-230.75 0,-254.5 133.5,-254.5 133.5,-230.75 0,-230.75"/>
<text text-anchor="start" x="58.5" y="-237.2" font-family="arial" font-size="14.00">X1</text>
<polygon fill="none" stroke="black" points="0,-207 0,-230.75 46.25,-230.75 46.25,-207 0,-207"/>
<text text-anchor="start" x="4" y="-213.45" font-family="arial" font-size="14.00">D&#45;Sub</text>
<polygon fill="none" stroke="black" points="46.25,-207 46.25,-230.75 95.5,-230.75 95.5,-207 46.25,-207"/>
<text text-anchor="start" x="50.25" y="-213.45" font-family="arial" font-size="14.00">female</text>
<polygon fill="none" stroke="black" points="95.5,-207 95.5,-230.75 133.5,-230.75 133.5,-207 95.5,-207"/>
<text text-anchor="start" x="99.5" y="-213.45" font-family="arial" font-size="14.00">9&#45;pin</text>
<polygon fill="none" stroke="black" points="0,-184 0,-207 78.25,-207 78.25,-184 0,-184"/>
<text text-anchor="start" x="24.5" y="-189.7" font-family="arial" font-size="14.00">DCD</text>
<polygon fill="none" stroke="black" points="78.25,-184 78.25,-207 133.5,-207 133.5,-184 78.25,-184"/>
<text text-anchor="start" x="102.13" y="-189.7" font-family="arial" font-size="14.00">1</text>
<polygon fill="none" stroke="black" points="0,-161 0,-184 78.25,-184 78.25,-161 0,-161"/>
<text text-anchor="start" x="29.75" y="-166.7" font-family="arial" font-size="14.00">RX</text>
<polygon fill="none" stroke="black" points="78.25,-161 78.25,-184 133.5,-184 133.5,-161 78.25,-161"/>
<text text-anchor="start" x="102.13" y="-166.7" font-family="arial" font-size="14.00">2</text>
<polygon fill="none" stroke="black" points="0,-138 0,-161 78.25,-161 78.25,-138 0,-138"/>
<text text-anchor="start" x="30.5" y="-143.7" font-family="arial" font-size="14.00">TX</text>
<polygon fill="none" stroke="black" points="78.25,-138 78.25,-161 133.5,-161 133.5,-138 78.25,-138"/>
<text text-anchor="start" x="102.13" y="-143.7" font-family="arial" font-size="14.00">3</text>
<polygon fill="none" stroke="black" points="0,-115 0,-138 78.25,-138 78.25,-115 0,-115"/>
<text text-anchor="start" x="25.25" y="-120.7" font-family="arial" font-size="14.00">DTR</text>
<polygon fill="none" stroke="black" points="78.25,-115 78.25,-138 133.5,-138 133.5,-115 78.25,-115"/>
<text text-anchor="start" x="102.13" y="-120.7" font-family="arial" font-size="14.00">4</text>
<polygon fill="none" stroke="black" points="0,-92 0,-115 78.25,-115 78.25,-92 0,-92"/>
<text text-anchor="start" x="23.75" y="-97.7" font-family="arial" font-size="14.00">GND</text>
<polygon fill="none" stroke="black" points="78.25,-92 78.25,-115 133.5,-115 133.5,-92 78.25,-92"/>
<text text-anchor="start" x="102.13" y="-97.7" font-family="arial" font-size="14.00">5</text>
<polygon fill="none" stroke="black" points="0,-69 0,-92 78.25,-92 78.25,-69 0,-69"/>
<text text-anchor="start" x="24.88" y="-74.7" font-family="arial" font-size="14.00">DSR</text>
<polygon fill="none" stroke="black" points="78.25,-69 78.25,-92 133.5,-92 133.5,-69 78.25,-69"/>
<text text-anchor="start" x="102.13" y="-74.7" font-family="arial" font-size="14.00">6</text>
<polygon fill="none" stroke="black" points="0,-46 0,-69 78.25,-69 78.25,-46 0,-46"/>
<text text-anchor="start" x="25.63" y="-51.7" font-family="arial" font-size="14.00">RTS</text>
<polygon fill="none" stroke="black" points="78.25,-46 78.25,-69 133.5,-69 133.5,-46 78.25,-46"/>
<text text-anchor="start" x="102.13" y="-51.7" font-family="arial" font-size="14.00">7</text>
<polygon fill="none" stroke="black" points="0,-23 0,-46 78.25,-46 78.25,-23 0,-23"/>
<text text-anchor="start" x="25.63" y="-28.7" font-family="arial" font-size="14.00">CTS</text>
<polygon fill="none" stroke="black" points="78.25,-23 78.25,-46 133.5,-46 133.5,-23 78.25,-23"/>
<text text-anchor="start" x="102.13" y="-28.7" font-family="arial" font-size="14.00">8</text>
<polygon fill="none" stroke="black" points="0,0 0,-23 78.25,-23 78.25,0 0,0"/>
<text text-anchor="start" x="32.38" y="-5.7" font-family="arial" font-size="14.00">RI</text>
<polygon fill="none" stroke="black" points="78.25,0 78.25,-23 133.5,-23 133.5,0 78.25,0"/>
<text text-anchor="start" x="102.13" y="-5.7" font-family="arial" font-size="14.00">9</text>
</g>
<!-- X1&#45;&#45;X1 -->
<g id="edge1" class="edge">
<title>X1:e&#45;&#45;X1:e</title>
<path fill="none" stroke="#000000" stroke-width="2" d="M133.5,-57.5C156.71,-69.5 203.12,-69.5 203.12,-46 203.12,-22.5 156.71,-22.5 133.5,-34.5"/>
</g>
<!-- W1 -->
<g id="node2" class="node">
<title>W1</title>
<polygon fill="#ffffff" stroke="black" points="473.5,-285.5 278.5,-285.5 278.5,-81 473.5,-81 473.5,-285.5"/>
<polygon fill="#ffffff" stroke="none" points="278.5,-81 278.5,-285.5 473.5,-285.5 473.5,-81 278.5,-81"/>
<polygon fill="none" stroke="black" points="278.5,-261.75 278.5,-285.5 473.5,-285.5 473.5,-261.75 278.5,-261.75"/>
<text text-anchor="start" x="365.5" y="-268.2" font-family="arial" font-size="14.00">W1</text>
<polygon fill="none" stroke="black" points="278.5,-238 278.5,-261.75 309.44,-261.75 309.44,-238 278.5,-238"/>
<text text-anchor="start" x="286.84" y="-244.45" font-family="arial" font-size="14.00">3x</text>
<polygon fill="none" stroke="black" points="309.44,-238 309.44,-261.75 384.63,-261.75 384.63,-238 309.44,-238"/>
<text text-anchor="start" x="317.78" y="-244.45" font-family="arial" font-size="14.00">0.25 mm²</text>
<polygon fill="none" stroke="black" points="384.63,-238 384.63,-261.75 422.31,-261.75 422.31,-238 384.63,-238"/>
<text text-anchor="start" x="392.97" y="-244.45" font-family="arial" font-size="14.00">+ S</text>
<polygon fill="none" stroke="black" points="422.31,-238 422.31,-261.75 473.5,-261.75 473.5,-238 422.31,-238"/>
<text text-anchor="start" x="430.66" y="-244.45" font-family="arial" font-size="14.00">0.2 m</text>
<text text-anchor="start" x="311.63" y="-222.7" font-family="arial" font-size="14.00"> </text>
<text text-anchor="start" x="280.5" y="-203.7" font-family="arial" font-size="14.00"> X1:5:GND</text>
<text text-anchor="start" x="350.13" y="-203.7" font-family="arial" font-size="14.00"> </text>
<text text-anchor="start" x="358.75" y="-203.7" font-family="arial" font-size="14.00">1:WH</text>
<text text-anchor="start" x="398.13" y="-203.7" font-family="arial" font-size="14.00"> </text>
<text text-anchor="start" x="405.5" y="-203.7" font-family="arial" font-size="14.00">X2:1:GND </text>
<text text-anchor="start" x="280.5" y="-178.7" font-family="arial" font-size="14.00"> X1:2:RX</text>
<text text-anchor="start" x="350.13" y="-178.7" font-family="arial" font-size="14.00"> </text>
<text text-anchor="start" x="361" y="-178.7" font-family="arial" font-size="14.00">2:BN</text>
<text text-anchor="start" x="398.13" y="-178.7" font-family="arial" font-size="14.00"> </text>
<text text-anchor="start" x="419" y="-178.7" font-family="arial" font-size="14.00">X2:3:TX </text>
<text text-anchor="start" x="280.5" y="-153.7" font-family="arial" font-size="14.00"> X1:3:TX</text>
<text text-anchor="start" x="350.13" y="-153.7" font-family="arial" font-size="14.00"> </text>
<text text-anchor="start" x="359.88" y="-153.7" font-family="arial" font-size="14.00">3:GN</text>
<text text-anchor="start" x="398.13" y="-153.7" font-family="arial" font-size="14.00"> </text>
<text text-anchor="start" x="417.5" y="-153.7" font-family="arial" font-size="14.00">X2:2:RX </text>
<text text-anchor="start" x="311.63" y="-128.7" font-family="arial" font-size="14.00"> </text>
<text text-anchor="start" x="280.5" y="-109.7" font-family="arial" font-size="14.00"> X1:5:GND</text>
<text text-anchor="start" x="350.13" y="-109.7" font-family="arial" font-size="14.00"> </text>
<text text-anchor="start" x="357.25" y="-109.7" font-family="arial" font-size="14.00">Shield</text>
<text text-anchor="start" x="398.13" y="-109.7" font-family="arial" font-size="14.00"> </text>
<text text-anchor="start" x="467.75" y="-109.7" font-family="arial" font-size="14.00"> </text>
<text text-anchor="start" x="311.63" y="-84.7" font-family="arial" font-size="14.00"> </text>
</g>
<!-- X1&#45;&#45;W1 -->
<g id="edge2" class="edge">
<title>X1:e&#45;&#45;W1:w</title>
<path fill="none" stroke="#000000" stroke-width="2" d="M133.5,-101.5C184.15,-104.12 164.63,-163.48 206.46,-184.5 233.47,-200.16 244.91,-195.17 278.5,-195"/>
<path fill="none" stroke="#ffffff" stroke-width="2" d="M133.5,-103.5C182.25,-103.5 162.73,-162.86 205.5,-186.25 234.27,-201.99 245.71,-197 278.5,-197"/>
<path fill="none" stroke="#000000" stroke-width="2" d="M133.5,-105.5C180.35,-102.88 160.83,-162.24 204.54,-188 235.07,-203.82 246.51,-198.83 278.5,-199"/>
</g>
<!-- X1&#45;&#45;W1 -->
<g id="edge3" class="edge">
<title>X1:e&#45;&#45;W1:w</title>
<path fill="none" stroke="#000000" stroke-width="2" d="M133.5,-170.5C197.88,-170.5 214,-170 278.5,-170"/>
<path fill="none" stroke="#895956" stroke-width="2" d="M133.5,-172.5C197.94,-172.5 214.06,-172 278.5,-172"/>
<path fill="none" stroke="#000000" stroke-width="2" d="M133.5,-174.5C198,-174.5 214.12,-174 278.5,-174"/>
</g>
<!-- X1&#45;&#45;W1 -->
<g id="edge4" class="edge">
<title>X1:e&#45;&#45;W1:w</title>
<path fill="none" stroke="#000000" stroke-width="2" d="M133.5,-147.5C197.64,-147.52 213.74,-145.02 278.5,-145"/>
<path fill="none" stroke="#00aa00" stroke-width="2" d="M133.5,-149.5C197.95,-149.5 214.05,-147 278.5,-147"/>
<path fill="none" stroke="#000000" stroke-width="2" d="M133.5,-151.5C198.26,-151.48 214.36,-148.98 278.5,-149"/>
</g>
<!-- X1&#45;&#45;W1 -->
<g id="edge5" class="edge">
<title>X1:e&#45;&#45;W1:w</title>
<path fill="none" stroke="#000000" stroke-width="2" d="M133.5,-103.5C197.94,-103.5 214.06,-103 278.5,-103"/>
</g>
<!-- W1&#45;&#45;W1 -->
<g id="edge6" class="edge">
<title>W1:e&#45;&#45;W1:w</title>
<path fill="none" stroke="#000000" stroke-width="2" d="M473.5,-199C408.5,-199 343.5,-199 278.5,-199"/>
<path fill="none" stroke="#ffffff" stroke-width="2" d="M473.5,-197C408.5,-197 343.5,-197 278.5,-197"/>
<path fill="none" stroke="#000000" stroke-width="2" d="M473.5,-195C408.5,-195 343.5,-195 278.5,-195"/>
</g>
<!-- W1&#45;&#45;W1 -->
<g id="edge7" class="edge">
<title>W1:e&#45;&#45;W1:w</title>
<path fill="none" stroke="#000000" stroke-width="2" d="M473.5,-174C408.5,-174 343.5,-174 278.5,-174"/>
<path fill="none" stroke="#895956" stroke-width="2" d="M473.5,-172C408.5,-172 343.5,-172 278.5,-172"/>
<path fill="none" stroke="#000000" stroke-width="2" d="M473.5,-170C408.5,-170 343.5,-170 278.5,-170"/>
</g>
<!-- W1&#45;&#45;W1 -->
<g id="edge8" class="edge">
<title>W1:e&#45;&#45;W1:w</title>
<path fill="none" stroke="#000000" stroke-width="2" d="M473.5,-149C408.5,-149 343.5,-149 278.5,-149"/>
<path fill="none" stroke="#00aa00" stroke-width="2" d="M473.5,-147C408.5,-147 343.5,-147 278.5,-147"/>
<path fill="none" stroke="#000000" stroke-width="2" d="M473.5,-145C408.5,-145 343.5,-145 278.5,-145"/>
</g>
<!-- W1&#45;&#45;W1 -->
<g id="edge9" class="edge">
<title>W1:e&#45;&#45;W1:w</title>
<path fill="none" stroke="#000000" stroke-width="2" d="M473.5,-103C408.5,-103 343.5,-103 278.5,-103"/>
</g>
<!-- X2 -->
<g id="node3" class="node">
<title>X2</title>
<polygon fill="#ffffff" stroke="black" points="798.5,-261.5 618.5,-261.5 618.5,-145 798.5,-145 798.5,-261.5"/>
<polygon fill="#ffffff" stroke="none" points="618.5,-145 618.5,-261.5 798.5,-261.5 798.5,-145 618.5,-145"/>
<polygon fill="none" stroke="black" points="618.5,-237.75 618.5,-261.5 798.5,-261.5 798.5,-237.75 618.5,-237.75"/>
<text text-anchor="start" x="700.25" y="-244.2" font-family="arial" font-size="14.00">X2</text>
<polygon fill="none" stroke="black" points="618.5,-214 618.5,-237.75 711.25,-237.75 711.25,-214 618.5,-214"/>
<text text-anchor="start" x="622.5" y="-220.45" font-family="arial" font-size="14.00">Molex KK 254</text>
<polygon fill="none" stroke="black" points="711.25,-214 711.25,-237.75 760.5,-237.75 760.5,-214 711.25,-214"/>
<text text-anchor="start" x="715.25" y="-220.45" font-family="arial" font-size="14.00">female</text>
<polygon fill="none" stroke="black" points="760.5,-214 760.5,-237.75 798.5,-237.75 798.5,-214 760.5,-214"/>
<text text-anchor="start" x="764.5" y="-220.45" font-family="arial" font-size="14.00">3&#45;pin</text>
<polygon fill="none" stroke="black" points="618.5,-191 618.5,-214 697,-214 697,-191 618.5,-191"/>
<text text-anchor="start" x="654" y="-196.7" font-family="arial" font-size="14.00">1</text>
<polygon fill="none" stroke="black" points="697,-191 697,-214 798.5,-214 798.5,-191 697,-191"/>
<text text-anchor="start" x="732.38" y="-196.7" font-family="arial" font-size="14.00">GND</text>
<polygon fill="none" stroke="black" points="618.5,-168 618.5,-191 697,-191 697,-168 618.5,-168"/>
<text text-anchor="start" x="654" y="-173.7" font-family="arial" font-size="14.00">2</text>
<polygon fill="none" stroke="black" points="697,-168 697,-191 798.5,-191 798.5,-168 697,-168"/>
<text text-anchor="start" x="738.38" y="-173.7" font-family="arial" font-size="14.00">RX</text>
<polygon fill="none" stroke="black" points="618.5,-145 618.5,-168 697,-168 697,-145 618.5,-145"/>
<text text-anchor="start" x="654" y="-150.7" font-family="arial" font-size="14.00">3</text>
<polygon fill="none" stroke="black" points="697,-145 697,-168 798.5,-168 798.5,-145 697,-145"/>
<text text-anchor="start" x="739.13" y="-150.7" font-family="arial" font-size="14.00">TX</text>
</g>
<!-- W1&#45;&#45;X2 -->
<g id="edge10" class="edge">
<title>W1:e&#45;&#45;X2:w</title>
<path fill="none" stroke="#000000" stroke-width="2" d="M473.5,-195C538.64,-195.11 554.66,-200.61 618.5,-200.5"/>
<path fill="none" stroke="#ffffff" stroke-width="2" d="M473.5,-197C537.99,-197 554.01,-202.5 618.5,-202.5"/>
<path fill="none" stroke="#000000" stroke-width="2" d="M473.5,-199C537.34,-198.89 553.36,-204.39 618.5,-204.5"/>
</g>
<!-- W1&#45;&#45;X2 -->
<g id="edge11" class="edge">
<title>W1:e&#45;&#45;X2:w</title>
<path fill="none" stroke="#000000" stroke-width="2" d="M473.5,-170C536.89,-170.59 552.27,-155.09 618.5,-154.5"/>
<path fill="none" stroke="#895956" stroke-width="2" d="M473.5,-172C538.31,-172 553.69,-156.5 618.5,-156.5"/>
<path fill="none" stroke="#000000" stroke-width="2" d="M473.5,-174C539.73,-173.41 555.11,-157.91 618.5,-158.5"/>
</g>
<!-- W1&#45;&#45;X2 -->
<g id="edge12" class="edge">
<title>W1:e&#45;&#45;X2:w</title>
<path fill="none" stroke="#000000" stroke-width="2" d="M473.5,-145C507.23,-145.21 515.36,-149.3 546.94,-156.3 580.9,-164.73 586.98,-178.7 618.5,-177.5"/>
<path fill="none" stroke="#00aa00" stroke-width="2" d="M473.5,-147C506.33,-147 514.46,-151.09 546.5,-158.25 579.06,-165.53 585.14,-179.5 618.5,-179.5"/>
<path fill="none" stroke="#000000" stroke-width="2" d="M473.5,-149C505.43,-148.79 513.56,-152.88 546.06,-160.2 577.23,-166.33 583.31,-180.3 618.5,-181.5"/>
</g>
</g>
</svg>
