<?xml version="1.0" encoding="UTF-8" standalone="no"?>
<!DOCTYPE svg PUBLIC "-//W3C//DTD SVG 1.1//EN"
 "http://www.w3.org/Graphics/SVG/1.1/DTD/svg11.dtd">
<!-- Generated by graphviz version 12.1.2 (0)
 -->
<!-- Pages: 1 -->
<svg width="859pt" height="954pt"
 viewBox="0.00 0.00 859.00 953.63" xmlns="http://www.w3.org/2000/svg" xmlns:xlink="http://www.w3.org/1999/xlink">
<g id="graph0" class="graph" transform="scale(1 1) rotate(0) translate(4 949.63)">
<polygon fill="#ffffff" stroke="none" points="-4,4 -4,-949.63 855,-949.63 855,4 -4,4"/>
<!-- X1 -->
<g id="node1" class="node">
<title>X1</title>
<polygon fill="#ffffff" stroke="black" points="183.63,-631.63 3.63,-631.63 3.63,-400.13 183.63,-400.13 183.63,-631.63"/>
<polygon fill="#ffffff" stroke="none" points="3.63,-400.13 3.63,-631.63 183.63,-631.63 183.63,-400.13 3.63,-400.13"/>
<polygon fill="none" stroke="black" points="3.63,-607.88 3.63,-631.63 183.63,-631.63 183.63,-607.88 3.63,-607.88"/>
<text text-anchor="start" x="85.38" y="-614.33" font-family="arial" font-size="14.00">X1</text>
<polygon fill="none" stroke="black" points="3.63,-584.13 3.63,-607.88 96.38,-607.88 96.38,-584.13 3.63,-584.13"/>
<text text-anchor="start" x="7.63" y="-590.58" font-family="arial" font-size="14.00">Molex KK 254</text>
<polygon fill="none" stroke="black" points="96.38,-584.13 96.38,-607.88 145.63,-607.88 145.63,-584.13 96.38,-584.13"/>
<text text-anchor="start" x="100.38" y="-590.58" font-family="arial" font-size="14.00">female</text>
<polygon fill="none" stroke="black" points="145.63,-584.13 145.63,-607.88 183.63,-607.88 183.63,-584.13 145.63,-584.13"/>
<text text-anchor="start" x="149.63" y="-590.58" font-family="arial" font-size="14.00">8&#45;pin</text>
<polygon fill="none" stroke="black" points="3.63,-561.13 3.63,-584.13 108.13,-584.13 108.13,-561.13 3.63,-561.13"/>
<text text-anchor="start" x="40.5" y="-566.83" font-family="arial" font-size="14.00">GND</text>
<polygon fill="none" stroke="black" points="108.13,-561.13 108.13,-584.13 183.63,-584.13 183.63,-561.13 108.13,-561.13"/>
<text text-anchor="start" x="142.13" y="-566.83" font-family="arial" font-size="14.00">1</text>
<polygon fill="none" stroke="black" points="3.63,-538.13 3.63,-561.13 108.13,-561.13 108.13,-538.13 3.63,-538.13"/>
<text text-anchor="start" x="43.5" y="-543.83" font-family="arial" font-size="14.00">+5V</text>
<polygon fill="none" stroke="black" points="108.13,-538.13 108.13,-561.13 183.63,-561.13 183.63,-538.13 108.13,-538.13"/>
<text text-anchor="start" x="142.13" y="-543.83" font-family="arial" font-size="14.00">2</text>
<polygon fill="none" stroke="black" points="3.63,-515.13 3.63,-538.13 108.13,-538.13 108.13,-515.13 3.63,-515.13"/>
<text text-anchor="start" x="42.75" y="-520.83" font-family="arial" font-size="14.00">SCL</text>
<polygon fill="none" stroke="black" points="108.13,-515.13 108.13,-538.13 183.63,-538.13 183.63,-515.13 108.13,-515.13"/>
<text text-anchor="start" x="142.13" y="-520.83" font-family="arial" font-size="14.00">3</text>
<polygon fill="none" stroke="black" points="3.63,-492.13 3.63,-515.13 108.13,-515.13 108.13,-492.13 3.63,-492.13"/>
<text text-anchor="start" x="42" y="-497.83" font-family="arial" font-size="14.00">SDA</text>
<polygon fill="none" stroke="black" points="108.13,-492.13 108.13,-515.13 183.63,-515.13 183.63,-492.13 108.13,-492.13"/>
<text text-anchor="start" x="142.13" y="-497.83" font-family="arial" font-size="14.00">4</text>
<polygon fill="none" stroke="black" points="3.63,-469.13 3.63,-492.13 108.13,-492.13 108.13,-469.13 3.63,-469.13"/>
<text text-anchor="start" x="37.88" y="-474.83" font-family="arial" font-size="14.00">MISO</text>
<polygon fill="none" stroke="black" points="108.13,-469.13 108.13,-492.13 183.63,-492.13 183.63,-469.13 108.13,-469.13"/>
<text text-anchor="start" x="142.13" y="-474.83" font-family="arial" font-size="14.00">5</text>
<polygon fill="none" stroke="black" points="3.63,-446.13 3.63,-469.13 108.13,-469.13 108.13,-446.13 3.63,-446.13"/>
<text text-anchor="start" x="37.88" y="-451.83" font-family="arial" font-size="14.00">MOSI</text>
<polygon fill="none" stroke="black" points="108.13,-446.13 108.13,-469.13 183.63,-469.13 183.63,-446.13 108.13,-446.13"/>
<text text-anchor="start" x="142.13" y="-451.83" font-family="arial" font-size="14.00">6</text>
<polygon fill="none" stroke="black" points="3.63,-423.13 3.63,-446.13 108.13,-446.13 108.13,-423.13 3.63,-423.13"/>
<text text-anchor="start" x="42" y="-428.83" font-family="arial" font-size="14.00">SCK</text>
<polygon fill="none" stroke="black" points="108.13,-423.13 108.13,-446.13 183.63,-446.13 183.63,-423.13 108.13,-423.13"/>
<text text-anchor="start" x="142.13" y="-428.83" font-family="arial" font-size="14.00">7</text>
<polygon fill="none" stroke="black" points="3.63,-400.13 3.63,-423.13 108.13,-423.13 108.13,-400.13 3.63,-400.13"/>
<text text-anchor="start" x="44.25" y="-405.83" font-family="arial" font-size="14.00">N/C</text>
<polygon fill="none" stroke="black" points="108.13,-400.13 108.13,-423.13 183.63,-423.13 183.63,-400.13 108.13,-400.13"/>
<text text-anchor="start" x="142.13" y="-405.83" font-family="arial" font-size="14.00">8</text>
</g>
<!-- W1 -->
<g id="node2" class="node">
<title>W1</title>
<polygon fill="#ffffff" stroke="black" stroke-dasharray="5,2" points="527,-945.63 331.24,-945.63 331.24,-760.13 527,-760.13 527,-945.63"/>
<polygon fill="#ffffff" stroke="none" points="331.25,-760.13 331.25,-945.63 527,-945.63 527,-760.13 331.25,-760.13"/>
<polygon fill="none" stroke="black" points="331.25,-921.88 331.25,-945.63 527,-945.63 527,-921.88 331.25,-921.88"/>
<text text-anchor="start" x="418.62" y="-928.33" font-family="arial" font-size="14.00">W1</text>
<polygon fill="none" stroke="black" points="331.25,-898.13 331.25,-921.88 353.5,-921.88 353.5,-898.13 331.25,-898.13"/>
<text text-anchor="start" x="335.25" y="-904.58" font-family="arial" font-size="14.00">4x</text>
<polygon fill="none" stroke="black" points="353.5,-898.13 353.5,-921.88 484.5,-921.88 484.5,-898.13 353.5,-898.13"/>
<text text-anchor="start" x="357.5" y="-904.58" font-family="arial" font-size="14.00">0.14 mm² (26 AWG)</text>
<polygon fill="none" stroke="black" points="484.5,-898.13 484.5,-921.88 527,-921.88 527,-898.13 484.5,-898.13"/>
<text text-anchor="start" x="488.5" y="-904.58" font-family="arial" font-size="14.00">0.2 m</text>
<text text-anchor="start" x="365.43" y="-882.83" font-family="arial" font-size="14.00"> </text>
<text text-anchor="start" x="333.25" y="-863.83" font-family="arial" font-size="14.00"> X1:1:GND</text>
<text text-anchor="start" x="406.06" y="-863.83" font-family="arial" font-size="14.00"> </text>
<text text-anchor="start" x="423.18" y="-863.83" font-family="arial" font-size="14.00">BK</text>
<text text-anchor="start" x="448.43" y="-863.83" font-family="arial" font-size="14.00"> </text>
<text text-anchor="start" x="459" y="-863.83" font-family="arial" font-size="14.00">X2:1:GND </text>
<text text-anchor="start" x="333.25" y="-838.83" font-family="arial" font-size="14.00"> X1:2:+5V</text>
<text text-anchor="start" x="406.06" y="-838.83" font-family="arial" font-size="14.00"> </text>
<text text-anchor="start" x="422.43" y="-838.83" font-family="arial" font-size="14.00">RD</text>
<text text-anchor="start" x="448.43" y="-838.83" font-family="arial" font-size="14.00"> </text>
<text text-anchor="start" x="465" y="-838.83" font-family="arial" font-size="14.00">X2:2:+5V </text>
<text text-anchor="start" x="333.25" y="-813.83" font-family="arial" font-size="14.00"> X1:3:SCL</text>
<text text-anchor="start" x="406.06" y="-813.83" font-family="arial" font-size="14.00"> </text>
<text text-anchor="start" x="423.18" y="-813.83" font-family="arial" font-size="14.00">YE</text>
<text text-anchor="start" x="448.43" y="-813.83" font-family="arial" font-size="14.00"> </text>
<text text-anchor="start" x="463.5" y="-813.83" font-family="arial" font-size="14.00">X2:3:SCL </text>
<text text-anchor="start" x="333.25" y="-788.83" font-family="arial" font-size="14.00"> X1:4:SDA</text>
<text text-anchor="start" x="406.06" y="-788.83" font-family="arial" font-size="14.00"> </text>
<text text-anchor="start" x="421.68" y="-788.83" font-family="arial" font-size="14.00">GN</text>
<text text-anchor="start" x="448.43" y="-788.83" font-family="arial" font-size="14.00"> </text>
<text text-anchor="start" x="462.75" y="-788.83" font-family="arial" font-size="14.00">X2:4:SDA </text>
<text text-anchor="start" x="365.43" y="-763.83" font-family="arial" font-size="14.00"> </text>
</g>
<!-- X1&#45;&#45;W1 -->
<g id="edge1" class="edge">
<title>X1:e&#45;&#45;W1:w</title>
<path fill="none" stroke="#000000" stroke-width="2" d="M184.62,-570.62C328.67,-573.49 190.8,-857.99 331.25,-855.12"/>
<path fill="none" stroke="#000000" stroke-width="2" d="M184.62,-572.62C326.87,-572.62 189,-857.12 331.25,-857.12"/>
<path fill="none" stroke="#000000" stroke-width="2" d="M184.62,-574.62C325.07,-571.75 187.2,-856.25 331.25,-859.12"/>
</g>
<!-- X1&#45;&#45;W1 -->
<g id="edge2" class="edge">
<title>X1:e&#45;&#45;W1:w</title>
<path fill="none" stroke="#000000" stroke-width="2" d="M184.62,-547.62C327.88,-550.49 191.59,-832.99 331.25,-830.12"/>
<path fill="none" stroke="#ff0000" stroke-width="2" d="M184.62,-549.62C326.08,-549.62 189.79,-832.12 331.25,-832.12"/>
<path fill="none" stroke="#000000" stroke-width="2" d="M184.62,-551.62C324.28,-548.75 187.99,-831.25 331.25,-834.12"/>
</g>
<!-- X1&#45;&#45;W1 -->
<g id="edge3" class="edge">
<title>X1:e&#45;&#45;W1:w</title>
<path fill="none" stroke="#000000" stroke-width="2" d="M184.62,-524.62C327.1,-527.49 192.38,-807.99 331.25,-805.12"/>
<path fill="none" stroke="#ffff00" stroke-width="2" d="M184.62,-526.62C325.3,-526.62 190.58,-807.12 331.25,-807.12"/>
<path fill="none" stroke="#000000" stroke-width="2" d="M184.62,-528.62C323.5,-525.75 188.78,-806.25 331.25,-809.12"/>
</g>
<!-- X1&#45;&#45;W1 -->
<g id="edge4" class="edge">
<title>X1:e&#45;&#45;W1:w</title>
<path fill="none" stroke="#000000" stroke-width="2" d="M184.62,-501.62C326.31,-504.48 193.17,-782.98 331.25,-780.12"/>
<path fill="none" stroke="#00aa00" stroke-width="2" d="M184.62,-503.62C324.51,-503.62 191.37,-782.12 331.25,-782.12"/>
<path fill="none" stroke="#000000" stroke-width="2" d="M184.62,-505.62C322.71,-502.76 189.57,-781.26 331.25,-784.12"/>
</g>
<!-- W2 -->
<g id="node3" class="node">
<title>W2</title>
<polygon fill="#ffffff" stroke="black" stroke-dasharray="5,2" points="527,-663.63 331.24,-663.63 331.24,-478.13 527,-478.13 527,-663.63"/>
<polygon fill="#ffffff" stroke="none" points="331.25,-478.13 331.25,-663.63 527,-663.63 527,-478.13 331.25,-478.13"/>
<polygon fill="none" stroke="black" points="331.25,-639.88 331.25,-663.63 527,-663.63 527,-639.88 331.25,-639.88"/>
<text text-anchor="start" x="418.62" y="-646.33" font-family="arial" font-size="14.00">W2</text>
<polygon fill="none" stroke="black" points="331.25,-616.13 331.25,-639.88 353.5,-639.88 353.5,-616.13 331.25,-616.13"/>
<text text-anchor="start" x="335.25" y="-622.58" font-family="arial" font-size="14.00">4x</text>
<polygon fill="none" stroke="black" points="353.5,-616.13 353.5,-639.88 484.5,-639.88 484.5,-616.13 353.5,-616.13"/>
<text text-anchor="start" x="357.5" y="-622.58" font-family="arial" font-size="14.00">0.14 mm² (26 AWG)</text>
<polygon fill="none" stroke="black" points="484.5,-616.13 484.5,-639.88 527,-639.88 527,-616.13 484.5,-616.13"/>
<text text-anchor="start" x="488.5" y="-622.58" font-family="arial" font-size="14.00">0.4 m</text>
<text text-anchor="start" x="365.43" y="-600.83" font-family="arial" font-size="14.00"> </text>
<text text-anchor="start" x="333.25" y="-581.83" font-family="arial" font-size="14.00"> X1:1:GND</text>
<text text-anchor="start" x="406.06" y="-581.83" font-family="arial" font-size="14.00"> </text>
<text text-anchor="start" x="423.18" y="-581.83" font-family="arial" font-size="14.00">BK</text>
<text text-anchor="start" x="448.43" y="-581.83" font-family="arial" font-size="14.00"> </text>
<text text-anchor="start" x="459" y="-581.83" font-family="arial" font-size="14.00">X3:1:GND </text>
<text text-anchor="start" x="333.25" y="-556.83" font-family="arial" font-size="14.00"> X1:2:+5V</text>
<text text-anchor="start" x="406.06" y="-556.83" font-family="arial" font-size="14.00"> </text>
<text text-anchor="start" x="422.43" y="-556.83" font-family="arial" font-size="14.00">RD</text>
<text text-anchor="start" x="448.43" y="-556.83" font-family="arial" font-size="14.00"> </text>
<text text-anchor="start" x="465" y="-556.83" font-family="arial" font-size="14.00">X3:2:+5V </text>
<text text-anchor="start" x="333.25" y="-531.83" font-family="arial" font-size="14.00"> X1:3:SCL</text>
<text text-anchor="start" x="406.06" y="-531.83" font-family="arial" font-size="14.00"> </text>
<text text-anchor="start" x="423.18" y="-531.83" font-family="arial" font-size="14.00">YE</text>
<text text-anchor="start" x="448.43" y="-531.83" font-family="arial" font-size="14.00"> </text>
<text text-anchor="start" x="463.5" y="-531.83" font-family="arial" font-size="14.00">X3:3:SCL </text>
<text text-anchor="start" x="333.25" y="-506.83" font-family="arial" font-size="14.00"> X1:4:SDA</text>
<text text-anchor="start" x="406.06" y="-506.83" font-family="arial" font-size="14.00"> </text>
<text text-anchor="start" x="421.68" y="-506.83" font-family="arial" font-size="14.00">GN</text>
<text text-anchor="start" x="448.43" y="-506.83" font-family="arial" font-size="14.00"> </text>
<text text-anchor="start" x="462.75" y="-506.83" font-family="arial" font-size="14.00">X3:4:SDA </text>
<text text-anchor="start" x="365.43" y="-481.83" font-family="arial" font-size="14.00"> </text>
</g>
<!-- X1&#45;&#45;W2 -->
<g id="edge5" class="edge">
<title>X1:e&#45;&#45;W2:w</title>
<path fill="none" stroke="#000000" stroke-width="2" d="M184.62,-570.62C250.1,-570.64 266.37,-573.14 331.25,-573.12"/>
<path fill="none" stroke="#000000" stroke-width="2" d="M184.62,-572.62C249.8,-572.62 266.07,-575.12 331.25,-575.12"/>
<path fill="none" stroke="#000000" stroke-width="2" d="M184.62,-574.62C249.5,-574.6 265.77,-577.1 331.25,-577.12"/>
</g>
<!-- X1&#45;&#45;W2 -->
<g id="edge6" class="edge">
<title>X1:e&#45;&#45;W2:w</title>
<path fill="none" stroke="#000000" stroke-width="2" d="M184.62,-547.62C249.85,-547.62 266.14,-548.12 331.25,-548.12"/>
<path fill="none" stroke="#ff0000" stroke-width="2" d="M184.62,-549.62C249.79,-549.62 266.08,-550.12 331.25,-550.12"/>
<path fill="none" stroke="#000000" stroke-width="2" d="M184.62,-551.62C249.73,-551.62 266.02,-552.12 331.25,-552.12"/>
</g>
<!-- X1&#45;&#45;W2 -->
<g id="edge7" class="edge">
<title>X1:e&#45;&#45;W2:w</title>
<path fill="none" stroke="#000000" stroke-width="2" d="M184.62,-524.62C249.62,-524.63 265.9,-523.13 331.25,-523.12"/>
<path fill="none" stroke="#ffff00" stroke-width="2" d="M184.62,-526.62C249.8,-526.62 266.08,-525.12 331.25,-525.12"/>
<path fill="none" stroke="#000000" stroke-width="2" d="M184.62,-528.62C249.98,-528.61 266.26,-527.11 331.25,-527.12"/>
</g>
<!-- X1&#45;&#45;W2 -->
<g id="edge8" class="edge">
<title>X1:e&#45;&#45;W2:w</title>
<path fill="none" stroke="#000000" stroke-width="2" d="M184.62,-501.62C249.39,-501.66 265.64,-498.16 331.25,-498.12"/>
<path fill="none" stroke="#00aa00" stroke-width="2" d="M184.62,-503.62C249.81,-503.62 266.06,-500.12 331.25,-500.12"/>
<path fill="none" stroke="#000000" stroke-width="2" d="M184.62,-505.62C250.23,-505.58 266.48,-502.08 331.25,-502.12"/>
</g>
<!-- W3 -->
<g id="node4" class="node">
<title>W3</title>
<polygon fill="#ffffff" stroke="black" stroke-dasharray="5,2" points="527,-381.63 331.24,-381.63 331.24,-196.13 527,-196.13 527,-381.63"/>
<polygon fill="#ffffff" stroke="none" points="331.25,-196.13 331.25,-381.63 527,-381.63 527,-196.13 331.25,-196.13"/>
<polygon fill="none" stroke="black" points="331.25,-357.88 331.25,-381.63 527,-381.63 527,-357.88 331.25,-357.88"/>
<text text-anchor="start" x="418.62" y="-364.33" font-family="arial" font-size="14.00">W3</text>
<polygon fill="none" stroke="black" points="331.25,-334.13 331.25,-357.88 353.5,-357.88 353.5,-334.13 331.25,-334.13"/>
<text text-anchor="start" x="335.25" y="-340.58" font-family="arial" font-size="14.00">4x</text>
<polygon fill="none" stroke="black" points="353.5,-334.13 353.5,-357.88 484.5,-357.88 484.5,-334.13 353.5,-334.13"/>
<text text-anchor="start" x="357.5" y="-340.58" font-family="arial" font-size="14.00">0.14 mm² (26 AWG)</text>
<polygon fill="none" stroke="black" points="484.5,-334.13 484.5,-357.88 527,-357.88 527,-334.13 484.5,-334.13"/>
<text text-anchor="start" x="488.5" y="-340.58" font-family="arial" font-size="14.00">0.3 m</text>
<text text-anchor="start" x="367.02" y="-318.83" font-family="arial" font-size="14.00"> </text>
<text text-anchor="start" x="333.25" y="-299.83" font-family="arial" font-size="14.00"> X1:1:GND</text>
<text text-anchor="start" x="408.31" y="-299.83" font-family="arial" font-size="14.00"> </text>
<text text-anchor="start" x="422.27" y="-299.83" font-family="arial" font-size="14.00">BK</text>
<text text-anchor="start" x="446.18" y="-299.83" font-family="arial" font-size="14.00"> </text>
<text text-anchor="start" x="459" y="-299.83" font-family="arial" font-size="14.00">X4:1:GND </text>
<text text-anchor="start" x="333.25" y="-274.83" font-family="arial" font-size="14.00"> X1:5:MISO</text>
<text text-anchor="start" x="408.31" y="-274.83" font-family="arial" font-size="14.00"> </text>
<text text-anchor="start" x="421.89" y="-274.83" font-family="arial" font-size="14.00">BU</text>
<text text-anchor="start" x="446.18" y="-274.83" font-family="arial" font-size="14.00"> </text>
<text text-anchor="start" x="453.75" y="-274.83" font-family="arial" font-size="14.00">X4:3:MISO </text>
<text text-anchor="start" x="333.25" y="-249.83" font-family="arial" font-size="14.00"> X1:6:MOSI</text>
<text text-anchor="start" x="408.31" y="-249.83" font-family="arial" font-size="14.00"> </text>
<text text-anchor="start" x="420.02" y="-249.83" font-family="arial" font-size="14.00">OG</text>
<text text-anchor="start" x="446.18" y="-249.83" font-family="arial" font-size="14.00"> </text>
<text text-anchor="start" x="453.75" y="-249.83" font-family="arial" font-size="14.00">X4:4:MOSI </text>
<text text-anchor="start" x="333.25" y="-224.83" font-family="arial" font-size="14.00"> X1:7:SCK</text>
<text text-anchor="start" x="408.31" y="-224.83" font-family="arial" font-size="14.00"> </text>
<text text-anchor="start" x="422.64" y="-224.83" font-family="arial" font-size="14.00">VT</text>
<text text-anchor="start" x="446.18" y="-224.83" font-family="arial" font-size="14.00"> </text>
<text text-anchor="start" x="462" y="-224.83" font-family="arial" font-size="14.00">X4:5:SCK </text>
<text text-anchor="start" x="367.02" y="-199.83" font-family="arial" font-size="14.00"> </text>
</g>
<!-- X1&#45;&#45;W3 -->
<g id="edge9" class="edge">
<title>X1:e&#45;&#45;W3:w</title>
<path fill="none" stroke="#000000" stroke-width="2" d="M184.62,-570.62C323.1,-573.48 189.17,-293.98 331.25,-291.12"/>
<path fill="none" stroke="#000000" stroke-width="2" d="M184.62,-572.62C324.9,-572.62 190.97,-293.12 331.25,-293.12"/>
<path fill="none" stroke="#000000" stroke-width="2" d="M184.62,-574.62C326.7,-571.76 192.77,-292.26 331.25,-295.12"/>
</g>
<!-- X1&#45;&#45;W3 -->
<g id="edge10" class="edge">
<title>X1:e&#45;&#45;W3:w</title>
<path fill="none" stroke="#000000" stroke-width="2" d="M184.62,-478.62C297.51,-481.35 214.64,-268.85 331.25,-266.12"/>
<path fill="none" stroke="#0066ff" stroke-width="2" d="M184.62,-480.62C299.37,-480.62 216.5,-268.12 331.25,-268.12"/>
<path fill="none" stroke="#000000" stroke-width="2" d="M184.62,-482.62C301.23,-479.89 218.36,-267.39 331.25,-270.12"/>
</g>
<!-- X1&#45;&#45;W3 -->
<g id="edge11" class="edge">
<title>X1:e&#45;&#45;W3:w</title>
<path fill="none" stroke="#000000" stroke-width="2" d="M184.62,-455.62C298.24,-458.35 213.91,-243.85 331.25,-241.12"/>
<path fill="none" stroke="#ff8000" stroke-width="2" d="M184.62,-457.62C300.1,-457.62 215.77,-243.12 331.25,-243.12"/>
<path fill="none" stroke="#000000" stroke-width="2" d="M184.62,-459.62C301.96,-456.89 217.63,-242.39 331.25,-245.12"/>
</g>
<!-- X1&#45;&#45;W3 -->
<g id="edge12" class="edge">
<title>X1:e&#45;&#45;W3:w</title>
<path fill="none" stroke="#000000" stroke-width="2" d="M184.62,-432.62C298.98,-435.36 213.18,-218.86 331.25,-216.12"/>
<path fill="none" stroke="#8000ff" stroke-width="2" d="M184.62,-434.62C300.84,-434.62 215.04,-218.12 331.25,-218.12"/>
<path fill="none" stroke="#000000" stroke-width="2" d="M184.62,-436.62C302.7,-433.88 216.9,-217.38 331.25,-220.12"/>
</g>
<!-- W1&#45;&#45;W1 -->
<g id="edge13" class="edge">
<title>W1:e&#45;&#45;W1:w</title>
<path fill="none" stroke="#000000" stroke-width="2" d="M527,-859.12C461.75,-859.12 396.5,-859.12 331.25,-859.12"/>
<path fill="none" stroke="#000000" stroke-width="2" d="M527,-857.12C461.75,-857.12 396.5,-857.12 331.25,-857.12"/>
<path fill="none" stroke="#000000" stroke-width="2" d="M527,-855.12C461.75,-855.12 396.5,-855.12 331.25,-855.12"/>
</g>
<!-- W1&#45;&#45;W1 -->
<g id="edge14" class="edge">
<title>W1:e&#45;&#45;W1:w</title>
<path fill="none" stroke="#000000" stroke-width="2" d="M527,-834.12C461.75,-834.12 396.5,-834.12 331.25,-834.12"/>
<path fill="none" stroke="#ff0000" stroke-width="2" d="M527,-832.12C461.75,-832.12 396.5,-832.12 331.25,-832.12"/>
<path fill="none" stroke="#000000" stroke-width="2" d="M527,-830.12C461.75,-830.12 396.5,-830.12 331.25,-830.12"/>
</g>
<!-- W1&#45;&#45;W1 -->
<g id="edge15" class="edge">
<title>W1:e&#45;&#45;W1:w</title>
<path fill="none" stroke="#000000" stroke-width="2" d="M527,-809.12C461.75,-809.12 396.5,-809.12 331.25,-809.12"/>
<path fill="none" stroke="#ffff00" stroke-width="2" d="M527,-807.12C461.75,-807.12 396.5,-807.12 331.25,-807.12"/>
<path fill="none" stroke="#000000" stroke-width="2" d="M527,-805.12C461.75,-805.12 396.5,-805.12 331.25,-805.12"/>
</g>
<!-- W1&#45;&#45;W1 -->
<g id="edge16" class="edge">
<title>W1:e&#45;&#45;W1:w</title>
<path fill="none" stroke="#000000" stroke-width="2" d="M527,-784.12C461.75,-784.12 396.5,-784.12 331.25,-784.12"/>
<path fill="none" stroke="#00aa00" stroke-width="2" d="M527,-782.12C461.75,-782.12 396.5,-782.12 331.25,-782.12"/>
<path fill="none" stroke="#000000" stroke-width="2" d="M527,-780.12C461.75,-780.12 396.5,-780.12 331.25,-780.12"/>
</g>
<!-- X2 -->
<g id="node5" class="node">
<title>X2</title>
<polygon fill="#ffffff" stroke="black" points="851,-913.63 671,-913.63 671,-774.13 851,-774.13 851,-913.63"/>
<polygon fill="#ffffff" stroke="none" points="671,-774.13 671,-913.63 851,-913.63 851,-774.13 671,-774.13"/>
<polygon fill="none" stroke="black" points="671,-889.88 671,-913.63 851,-913.63 851,-889.88 671,-889.88"/>
<text text-anchor="start" x="752.75" y="-896.33" font-family="arial" font-size="14.00">X2</text>
<polygon fill="none" stroke="black" points="671,-866.13 671,-889.88 763.75,-889.88 763.75,-866.13 671,-866.13"/>
<text text-anchor="start" x="675" y="-872.58" font-family="arial" font-size="14.00">Molex KK 254</text>
<polygon fill="none" stroke="black" points="763.75,-866.13 763.75,-889.88 813,-889.88 813,-866.13 763.75,-866.13"/>
<text text-anchor="start" x="767.75" y="-872.58" font-family="arial" font-size="14.00">female</text>
<polygon fill="none" stroke="black" points="813,-866.13 813,-889.88 851,-889.88 851,-866.13 813,-866.13"/>
<text text-anchor="start" x="817" y="-872.58" font-family="arial" font-size="14.00">4&#45;pin</text>
<polygon fill="none" stroke="black" points="671,-843.13 671,-866.13 749.5,-866.13 749.5,-843.13 671,-843.13"/>
<text text-anchor="start" x="706.5" y="-848.83" font-family="arial" font-size="14.00">1</text>
<polygon fill="none" stroke="black" points="749.5,-843.13 749.5,-866.13 851,-866.13 851,-843.13 749.5,-843.13"/>
<text text-anchor="start" x="784.88" y="-848.83" font-family="arial" font-size="14.00">GND</text>
<polygon fill="none" stroke="black" points="671,-820.13 671,-843.13 749.5,-843.13 749.5,-820.13 671,-820.13"/>
<text text-anchor="start" x="706.5" y="-825.83" font-family="arial" font-size="14.00">2</text>
<polygon fill="none" stroke="black" points="749.5,-820.13 749.5,-843.13 851,-843.13 851,-820.13 749.5,-820.13"/>
<text text-anchor="start" x="787.88" y="-825.83" font-family="arial" font-size="14.00">+5V</text>
<polygon fill="none" stroke="black" points="671,-797.13 671,-820.13 749.5,-820.13 749.5,-797.13 671,-797.13"/>
<text text-anchor="start" x="706.5" y="-802.83" font-family="arial" font-size="14.00">3</text>
<polygon fill="none" stroke="black" points="749.5,-797.13 749.5,-820.13 851,-820.13 851,-797.13 749.5,-797.13"/>
<text text-anchor="start" x="787.13" y="-802.83" font-family="arial" font-size="14.00">SCL</text>
<polygon fill="none" stroke="black" points="671,-774.13 671,-797.13 749.5,-797.13 749.5,-774.13 671,-774.13"/>
<text text-anchor="start" x="706.5" y="-779.83" font-family="arial" font-size="14.00">4</text>
<polygon fill="none" stroke="black" points="749.5,-774.13 749.5,-797.13 851,-797.13 851,-774.13 749.5,-774.13"/>
<text text-anchor="start" x="786.38" y="-779.83" font-family="arial" font-size="14.00">SDA</text>
</g>
<!-- W1&#45;&#45;X2 -->
<g id="edge17" class="edge">
<title>W1:e&#45;&#45;X2:w</title>
<path fill="none" stroke="#000000" stroke-width="2" d="M527,-855.12C590.7,-855.14 606.68,-852.64 671,-852.62"/>
<path fill="none" stroke="#000000" stroke-width="2" d="M527,-857.12C591.01,-857.12 606.99,-854.62 671,-854.62"/>
<path fill="none" stroke="#000000" stroke-width="2" d="M527,-859.12C591.32,-859.1 607.3,-856.6 671,-856.62"/>
</g>
<!-- W1&#45;&#45;X2 -->
<g id="edge18" class="edge">
<title>W1:e&#45;&#45;X2:w</title>
<path fill="none" stroke="#000000" stroke-width="2" d="M527,-830.12C590.94,-830.12 606.94,-829.62 671,-829.62"/>
<path fill="none" stroke="#ff0000" stroke-width="2" d="M527,-832.12C591,-832.12 607,-831.62 671,-831.62"/>
<path fill="none" stroke="#000000" stroke-width="2" d="M527,-834.12C591.06,-834.12 607.06,-833.62 671,-833.62"/>
</g>
<!-- W1&#45;&#45;X2 -->
<g id="edge19" class="edge">
<title>W1:e&#45;&#45;X2:w</title>
<path fill="none" stroke="#000000" stroke-width="2" d="M527,-805.12C591.19,-805.13 607.19,-806.63 671,-806.62"/>
<path fill="none" stroke="#ffff00" stroke-width="2" d="M527,-807.12C591,-807.12 607,-808.62 671,-808.62"/>
<path fill="none" stroke="#000000" stroke-width="2" d="M527,-809.12C590.81,-809.11 606.81,-810.61 671,-810.62"/>
</g>
<!-- W1&#45;&#45;X2 -->
<g id="edge20" class="edge">
<title>W1:e&#45;&#45;X2:w</title>
<path fill="none" stroke="#000000" stroke-width="2" d="M527,-780.12C591.45,-780.17 607.41,-783.67 671,-783.62"/>
<path fill="none" stroke="#00aa00" stroke-width="2" d="M527,-782.12C591.02,-782.12 606.98,-785.62 671,-785.62"/>
<path fill="none" stroke="#000000" stroke-width="2" d="M527,-784.12C590.59,-784.07 606.55,-787.57 671,-787.62"/>
</g>
<!-- W2&#45;&#45;W2 -->
<g id="edge21" class="edge">
<title>W2:e&#45;&#45;W2:w</title>
<path fill="none" stroke="#000000" stroke-width="2" d="M527,-577.12C461.75,-577.12 396.5,-577.12 331.25,-577.12"/>
<path fill="none" stroke="#000000" stroke-width="2" d="M527,-575.12C461.75,-575.12 396.5,-575.12 331.25,-575.12"/>
<path fill="none" stroke="#000000" stroke-width="2" d="M527,-573.12C461.75,-573.12 396.5,-573.12 331.25,-573.12"/>
</g>
<!-- W2&#45;&#45;W2 -->
<g id="edge22" class="edge">
<title>W2:e&#45;&#45;W2:w</title>
<path fill="none" stroke="#000000" stroke-width="2" d="M527,-552.12C461.75,-552.12 396.5,-552.12 331.25,-552.12"/>
<path fill="none" stroke="#ff0000" stroke-width="2" d="M527,-550.12C461.75,-550.12 396.5,-550.12 331.25,-550.12"/>
<path fill="none" stroke="#000000" stroke-width="2" d="M527,-548.12C461.75,-548.12 396.5,-548.12 331.25,-548.12"/>
</g>
<!-- W2&#45;&#45;W2 -->
<g id="edge23" class="edge">
<title>W2:e&#45;&#45;W2:w</title>
<path fill="none" stroke="#000000" stroke-width="2" d="M527,-527.12C461.75,-527.12 396.5,-527.12 331.25,-527.12"/>
<path fill="none" stroke="#ffff00" stroke-width="2" d="M527,-525.12C461.75,-525.12 396.5,-525.12 331.25,-525.12"/>
<path fill="none" stroke="#000000" stroke-width="2" d="M527,-523.12C461.75,-523.12 396.5,-523.12 331.25,-523.12"/>
</g>
<!-- W2&#45;&#45;W2 -->
<g id="edge24" class="edge">
<title>W2:e&#45;&#45;W2:w</title>
<path fill="none" stroke="#000000" stroke-width="2" d="M527,-502.12C461.75,-502.12 396.5,-502.12 331.25,-502.12"/>
<path fill="none" stroke="#00aa00" stroke-width="2" d="M527,-500.12C461.75,-500.12 396.5,-500.12 331.25,-500.12"/>
<path fill="none" stroke="#000000" stroke-width="2" d="M527,-498.12C461.75,-498.12 396.5,-498.12 331.25,-498.12"/>
</g>
<!-- X3 -->
<g id="node6" class="node">
<title>X3</title>
<polygon fill="#ffffff" stroke="black" points="851,-631.63 671,-631.63 671,-492.13 851,-492.13 851,-631.63"/>
<polygon fill="#ffffff" stroke="none" points="671,-492.13 671,-631.63 851,-631.63 851,-492.13 671,-492.13"/>
<polygon fill="none" stroke="black" points="671,-607.88 671,-631.63 851,-631.63 851,-607.88 671,-607.88"/>
<text text-anchor="start" x="752.75" y="-614.33" font-family="arial" font-size="14.00">X3</text>
<polygon fill="none" stroke="black" points="671,-584.13 671,-607.88 763.75,-607.88 763.75,-584.13 671,-584.13"/>
<text text-anchor="start" x="675" y="-590.58" font-family="arial" font-size="14.00">Molex KK 254</text>
<polygon fill="none" stroke="black" points="763.75,-584.13 763.75,-607.88 813,-607.88 813,-584.13 763.75,-584.13"/>
<text text-anchor="start" x="767.75" y="-590.58" font-family="arial" font-size="14.00">female</text>
<polygon fill="none" stroke="black" points="813,-584.13 813,-607.88 851,-607.88 851,-584.13 813,-584.13"/>
<text text-anchor="start" x="817" y="-590.58" font-family="arial" font-size="14.00">4&#45;pin</text>
<polygon fill="none" stroke="black" points="671,-561.13 671,-584.13 749.5,-584.13 749.5,-561.13 671,-561.13"/>
<text text-anchor="start" x="706.5" y="-566.83" font-family="arial" font-size="14.00">1</text>
<polygon fill="none" stroke="black" points="749.5,-561.13 749.5,-584.13 851,-584.13 851,-561.13 749.5,-561.13"/>
<text text-anchor="start" x="784.88" y="-566.83" font-family="arial" font-size="14.00">GND</text>
<polygon fill="none" stroke="black" points="671,-538.13 671,-561.13 749.5,-561.13 749.5,-538.13 671,-538.13"/>
<text text-anchor="start" x="706.5" y="-543.83" font-family="arial" font-size="14.00">2</text>
<polygon fill="none" stroke="black" points="749.5,-538.13 749.5,-561.13 851,-561.13 851,-538.13 749.5,-538.13"/>
<text text-anchor="start" x="787.88" y="-543.83" font-family="arial" font-size="14.00">+5V</text>
<polygon fill="none" stroke="black" points="671,-515.13 671,-538.13 749.5,-538.13 749.5,-515.13 671,-515.13"/>
<text text-anchor="start" x="706.5" y="-520.83" font-family="arial" font-size="14.00">3</text>
<polygon fill="none" stroke="black" points="749.5,-515.13 749.5,-538.13 851,-538.13 851,-515.13 749.5,-515.13"/>
<text text-anchor="start" x="787.13" y="-520.83" font-family="arial" font-size="14.00">SCL</text>
<polygon fill="none" stroke="black" points="671,-492.13 671,-515.13 749.5,-515.13 749.5,-492.13 671,-492.13"/>
<text text-anchor="start" x="706.5" y="-497.83" font-family="arial" font-size="14.00">4</text>
<polygon fill="none" stroke="black" points="749.5,-492.13 749.5,-515.13 851,-515.13 851,-492.13 749.5,-492.13"/>
<text text-anchor="start" x="786.38" y="-497.83" font-family="arial" font-size="14.00">SDA</text>
</g>
<!-- W2&#45;&#45;X3 -->
<g id="edge25" class="edge">
<title>W2:e&#45;&#45;X3:w</title>
<path fill="none" stroke="#000000" stroke-width="2" d="M527,-573.12C590.7,-573.14 606.68,-570.64 671,-570.62"/>
<path fill="none" stroke="#000000" stroke-width="2" d="M527,-575.12C591.01,-575.12 606.99,-572.62 671,-572.62"/>
<path fill="none" stroke="#000000" stroke-width="2" d="M527,-577.12C591.32,-577.1 607.3,-574.6 671,-574.62"/>
</g>
<!-- W2&#45;&#45;X3 -->
<g id="edge26" class="edge">
<title>W2:e&#45;&#45;X3:w</title>
<path fill="none" stroke="#000000" stroke-width="2" d="M527,-548.12C590.94,-548.12 606.94,-547.62 671,-547.62"/>
<path fill="none" stroke="#ff0000" stroke-width="2" d="M527,-550.12C591,-550.12 607,-549.62 671,-549.62"/>
<path fill="none" stroke="#000000" stroke-width="2" d="M527,-552.12C591.06,-552.12 607.06,-551.62 671,-551.62"/>
</g>
<!-- W2&#45;&#45;X3 -->
<g id="edge27" class="edge">
<title>W2:e&#45;&#45;X3:w</title>
<path fill="none" stroke="#000000" stroke-width="2" d="M527,-523.12C591.19,-523.13 607.19,-524.63 671,-524.62"/>
<path fill="none" stroke="#ffff00" stroke-width="2" d="M527,-525.12C591,-525.12 607,-526.62 671,-526.62"/>
<path fill="none" stroke="#000000" stroke-width="2" d="M527,-527.12C590.81,-527.11 606.81,-528.61 671,-528.62"/>
</g>
<!-- W2&#45;&#45;X3 -->
<g id="edge28" class="edge">
<title>W2:e&#45;&#45;X3:w</title>
<path fill="none" stroke="#000000" stroke-width="2" d="M527,-498.12C591.45,-498.17 607.41,-501.67 671,-501.62"/>
<path fill="none" stroke="#00aa00" stroke-width="2" d="M527,-500.12C591.02,-500.12 606.98,-503.62 671,-503.62"/>
<path fill="none" stroke="#000000" stroke-width="2" d="M527,-502.12C590.59,-502.07 606.55,-505.57 671,-505.62"/>
</g>
<!-- W3&#45;&#45;W3 -->
<g id="edge29" class="edge">
<title>W3:e&#45;&#45;W3:w</title>
<path fill="none" stroke="#000000" stroke-width="2" d="M527,-295.12C461.75,-295.12 396.5,-295.12 331.25,-295.12"/>
<path fill="none" stroke="#000000" stroke-width="2" d="M527,-293.12C461.75,-293.12 396.5,-293.12 331.25,-293.12"/>
<path fill="none" stroke="#000000" stroke-width="2" d="M527,-291.12C461.75,-291.12 396.5,-291.12 331.25,-291.12"/>
</g>
<!-- W3&#45;&#45;W3 -->
<g id="edge30" class="edge">
<title>W3:e&#45;&#45;W3:w</title>
<path fill="none" stroke="#000000" stroke-width="2" d="M527,-270.12C461.75,-270.12 396.5,-270.12 331.25,-270.12"/>
<path fill="none" stroke="#0066ff" stroke-width="2" d="M527,-268.12C461.75,-268.12 396.5,-268.12 331.25,-268.12"/>
<path fill="none" stroke="#000000" stroke-width="2" d="M527,-266.12C461.75,-266.12 396.5,-266.12 331.25,-266.12"/>
</g>
<!-- W3&#45;&#45;W3 -->
<g id="edge31" class="edge">
<title>W3:e&#45;&#45;W3:w</title>
<path fill="none" stroke="#000000" stroke-width="2" d="M527,-245.12C461.75,-245.12 396.5,-245.12 331.25,-245.12"/>
<path fill="none" stroke="#ff8000" stroke-width="2" d="M527,-243.12C461.75,-243.12 396.5,-243.12 331.25,-243.12"/>
<path fill="none" stroke="#000000" stroke-width="2" d="M527,-241.12C461.75,-241.12 396.5,-241.12 331.25,-241.12"/>
</g>
<!-- W3&#45;&#45;W3 -->
<g id="edge32" class="edge">
<title>W3:e&#45;&#45;W3:w</title>
<path fill="none" stroke="#000000" stroke-width="2" d="M527,-220.12C461.75,-220.12 396.5,-220.12 331.25,-220.12"/>
<path fill="none" stroke="#8000ff" stroke-width="2" d="M527,-218.12C461.75,-218.12 396.5,-218.12 331.25,-218.12"/>
<path fill="none" stroke="#000000" stroke-width="2" d="M527,-216.12C461.75,-216.12 396.5,-216.12 331.25,-216.12"/>
</g>
<!-- X4 -->
<g id="node7" class="node">
<title>X4</title>
<polygon fill="#ffffff" stroke="black" points="851,-360.13 671,-360.13 671,-197.63 851,-197.63 851,-360.13"/>
<polygon fill="#ffffff" stroke="none" points="671,-197.63 671,-360.13 851,-360.13 851,-197.63 671,-197.63"/>
<polygon fill="none" stroke="black" points="671,-336.38 671,-360.13 851,-360.13 851,-336.38 671,-336.38"/>
<text text-anchor="start" x="752.75" y="-342.83" font-family="arial" font-size="14.00">X4</text>
<polygon fill="none" stroke="black" points="671,-312.63 671,-336.38 763.75,-336.38 763.75,-312.63 671,-312.63"/>
<text text-anchor="start" x="675" y="-319.08" font-family="arial" font-size="14.00">Molex KK 254</text>
<polygon fill="none" stroke="black" points="763.75,-312.63 763.75,-336.38 813,-336.38 813,-312.63 763.75,-312.63"/>
<text text-anchor="start" x="767.75" y="-319.08" font-family="arial" font-size="14.00">female</text>
<polygon fill="none" stroke="black" points="813,-312.63 813,-336.38 851,-336.38 851,-312.63 813,-312.63"/>
<text text-anchor="start" x="817" y="-319.08" font-family="arial" font-size="14.00">5&#45;pin</text>
<polygon fill="none" stroke="black" points="671,-289.63 671,-312.63 746.5,-312.63 746.5,-289.63 671,-289.63"/>
<text text-anchor="start" x="705" y="-295.33" font-family="arial" font-size="14.00">1</text>
<polygon fill="none" stroke="black" points="746.5,-289.63 746.5,-312.63 851,-312.63 851,-289.63 746.5,-289.63"/>
<text text-anchor="start" x="783.38" y="-295.33" font-family="arial" font-size="14.00">GND</text>
<polygon fill="none" stroke="black" points="671,-266.63 671,-289.63 746.5,-289.63 746.5,-266.63 671,-266.63"/>
<text text-anchor="start" x="705" y="-272.33" font-family="arial" font-size="14.00">2</text>
<polygon fill="none" stroke="black" points="746.5,-266.63 746.5,-289.63 851,-289.63 851,-266.63 746.5,-266.63"/>
<text text-anchor="start" x="782.63" y="-272.33" font-family="arial" font-size="14.00">+12V</text>
<polygon fill="none" stroke="black" points="671,-243.63 671,-266.63 746.5,-266.63 746.5,-243.63 671,-243.63"/>
<text text-anchor="start" x="705" y="-249.33" font-family="arial" font-size="14.00">3</text>
<polygon fill="none" stroke="black" points="746.5,-243.63 746.5,-266.63 851,-266.63 851,-243.63 746.5,-243.63"/>
<text text-anchor="start" x="780.75" y="-249.33" font-family="arial" font-size="14.00">MISO</text>
<polygon fill="none" stroke="black" points="671,-220.63 671,-243.63 746.5,-243.63 746.5,-220.63 671,-220.63"/>
<text text-anchor="start" x="705" y="-226.33" font-family="arial" font-size="14.00">4</text>
<polygon fill="none" stroke="black" points="746.5,-220.63 746.5,-243.63 851,-243.63 851,-220.63 746.5,-220.63"/>
<text text-anchor="start" x="780.75" y="-226.33" font-family="arial" font-size="14.00">MOSI</text>
<polygon fill="none" stroke="black" points="671,-197.63 671,-220.63 746.5,-220.63 746.5,-197.63 671,-197.63"/>
<text text-anchor="start" x="705" y="-203.33" font-family="arial" font-size="14.00">5</text>
<polygon fill="none" stroke="black" points="746.5,-197.63 746.5,-220.63 851,-220.63 851,-197.63 746.5,-197.63"/>
<text text-anchor="start" x="784.88" y="-203.33" font-family="arial" font-size="14.00">SCK</text>
</g>
<!-- W3&#45;&#45;X4 -->
<g id="edge33" class="edge">
<title>W3:e&#45;&#45;X4:w</title>
<path fill="none" stroke="#000000" stroke-width="2" d="M527,-291.12C592,-291.34 607.8,-299.34 671,-299.12"/>
<path fill="none" stroke="#000000" stroke-width="2" d="M527,-293.12C591.1,-293.12 606.9,-301.12 671,-301.12"/>
<path fill="none" stroke="#000000" stroke-width="2" d="M527,-295.12C590.2,-294.9 606,-302.9 671,-303.12"/>
</g>
<!-- W3&#45;&#45;X4 -->
<g id="edge34" class="edge">
<title>W3:e&#45;&#45;X4:w</title>
<path fill="none" stroke="#000000" stroke-width="2" d="M527,-266.12C589.97,-266.59 605.45,-253.59 671,-253.12"/>
<path fill="none" stroke="#0066ff" stroke-width="2" d="M527,-268.12C591.26,-268.12 606.74,-255.12 671,-255.12"/>
<path fill="none" stroke="#000000" stroke-width="2" d="M527,-270.12C592.55,-269.65 608.03,-256.65 671,-257.12"/>
</g>
<!-- W3&#45;&#45;X4 -->
<g id="edge35" class="edge">
<title>W3:e&#45;&#45;X4:w</title>
<path fill="none" stroke="#000000" stroke-width="2" d="M527,-241.12C590.04,-241.48 605.66,-230.48 671,-230.12"/>
<path fill="none" stroke="#ff8000" stroke-width="2" d="M527,-243.12C591.19,-243.12 606.81,-232.12 671,-232.12"/>
<path fill="none" stroke="#000000" stroke-width="2" d="M527,-245.12C592.34,-244.76 607.96,-233.76 671,-234.12"/>
</g>
<!-- W3&#45;&#45;X4 -->
<g id="edge36" class="edge">
<title>W3:e&#45;&#45;X4:w</title>
<path fill="none" stroke="#000000" stroke-width="2" d="M527,-216.12C590.13,-216.38 605.89,-207.38 671,-207.12"/>
<path fill="none" stroke="#8000ff" stroke-width="2" d="M527,-218.12C591.12,-218.12 606.88,-209.12 671,-209.12"/>
<path fill="none" stroke="#000000" stroke-width="2" d="M527,-220.12C592.11,-219.86 607.87,-210.86 671,-211.12"/>
</g>
<!-- AUTOGENERATED_F_1 -->
<g id="node8" class="node">
<title>AUTOGENERATED_F_1</title>
<polygon fill="#ffffff" stroke="black" points="187.25,-71.75 0,-71.75 0,-48 187.25,-48 187.25,-71.75"/>
<polygon fill="#ffffff" stroke="none" points="0,-48 0,-71.75 187.25,-71.75 187.25,-48 0,-48"/>
<polygon fill="none" stroke="black" points="0,-48 0,-71.75 86.75,-71.75 86.75,-48 0,-48"/>
<text text-anchor="start" x="4" y="-54.45" font-family="arial" font-size="14.00">Crimp ferrule</text>
<polygon fill="none" stroke="black" points="86.75,-48 86.75,-71.75 153.25,-71.75 153.25,-48 86.75,-48"/>
<text text-anchor="start" x="90.75" y="-54.45" font-family="arial" font-size="14.00">0.25 mm²</text>
<polygon fill="none" stroke="black" points="153.25,-48 153.25,-71.75 179.25,-71.75 179.25,-48 153.25,-48"/>
<text text-anchor="start" x="157.25" y="-54.45" font-family="arial" font-size="14.00">YE</text>
<polygon fill="#ffff00" stroke="none" points="179.25,-48 179.25,-71.75 187.25,-71.75 187.25,-48 179.25,-48"/>
<polygon fill="none" stroke="black" points="179.25,-48 179.25,-71.75 187.25,-71.75 187.25,-48 179.25,-48"/>
</g>
<!-- W4 -->
<g id="node9" class="node">
<title>W4</title>
<polygon fill="#ffffff" stroke="black" points="527,-135.62 331.24,-135.62 331.24,-0.12 527,-0.12 527,-135.62"/>
<polygon fill="#ffffff" stroke="none" points="331.25,-0.12 331.25,-135.62 527,-135.62 527,-0.12 331.25,-0.12"/>
<polygon fill="none" stroke="black" points="331.25,-111.88 331.25,-135.62 527,-135.62 527,-111.88 331.25,-111.88"/>
<text text-anchor="start" x="418.62" y="-118.33" font-family="arial" font-size="14.00">W4</text>
<polygon fill="none" stroke="black" points="331.25,-88.12 331.25,-111.88 353.5,-111.88 353.5,-88.12 331.25,-88.12"/>
<text text-anchor="start" x="335.25" y="-94.58" font-family="arial" font-size="14.00">2x</text>
<polygon fill="none" stroke="black" points="353.5,-88.12 353.5,-111.88 484.5,-111.88 484.5,-88.12 353.5,-88.12"/>
<text text-anchor="start" x="357.5" y="-94.58" font-family="arial" font-size="14.00">0.25 mm² (24 AWG)</text>
<polygon fill="none" stroke="black" points="484.5,-88.12 484.5,-111.88 527,-111.88 527,-88.12 484.5,-88.12"/>
<text text-anchor="start" x="488.5" y="-94.58" font-family="arial" font-size="14.00">0.3 m</text>
<text text-anchor="start" x="339.85" y="-72.83" font-family="arial" font-size="14.00"> </text>
<text text-anchor="start" x="333.25" y="-53.83" font-family="arial" font-size="14.00"> </text>
<text text-anchor="start" x="360.8" y="-53.83" font-family="arial" font-size="14.00"> </text>
<text text-anchor="start" x="382.5" y="-53.83" font-family="arial" font-size="14.00">1:BK</text>
<text text-anchor="start" x="429.7" y="-53.83" font-family="arial" font-size="14.00"> </text>
<text text-anchor="start" x="459" y="-53.83" font-family="arial" font-size="14.00">X4:1:GND </text>
<text text-anchor="start" x="333.25" y="-28.82" font-family="arial" font-size="14.00"> </text>
<text text-anchor="start" x="360.8" y="-28.82" font-family="arial" font-size="14.00"> </text>
<text text-anchor="start" x="381.75" y="-28.82" font-family="arial" font-size="14.00">2:RD</text>
<text text-anchor="start" x="429.7" y="-28.82" font-family="arial" font-size="14.00"> </text>
<text text-anchor="start" x="457.5" y="-28.82" font-family="arial" font-size="14.00">X4:2:+12V </text>
<text text-anchor="start" x="339.85" y="-3.83" font-family="arial" font-size="14.00"> </text>
</g>
<!-- AUTOGENERATED_F_1&#45;&#45;W4 -->
<g id="edge37" class="edge">
<title>AUTOGENERATED_F_1:e&#45;&#45;W4:w</title>
<path fill="none" stroke="#000000" stroke-width="2" d="M187.25,-57.88C250.23,-58.33 265.73,-45.58 331.25,-45.13"/>
<path fill="none" stroke="#000000" stroke-width="2" d="M187.25,-59.87C251.5,-59.88 267,-47.13 331.25,-47.12"/>
<path fill="none" stroke="#000000" stroke-width="2" d="M187.25,-61.87C252.77,-61.42 268.27,-48.67 331.25,-49.12"/>
</g>
<!-- W4&#45;&#45;X4 -->
<g id="edge38" class="edge">
<title>W4:e&#45;&#45;X4:w</title>
<path fill="none" stroke="#000000" stroke-width="2" d="M527,-45.13C658.59,-47.95 543.05,-301.95 671,-299.12"/>
<path fill="none" stroke="#000000" stroke-width="2" d="M527,-47.12C656.77,-47.12 541.23,-301.12 671,-301.12"/>
<path fill="none" stroke="#000000" stroke-width="2" d="M527,-49.12C654.95,-46.3 539.41,-300.29 671,-303.12"/>
</g>
<!-- W4&#45;&#45;X4 -->
<g id="edge39" class="edge">
<title>W4:e&#45;&#45;X4:w</title>
<path fill="none" stroke="#000000" stroke-width="2" d="M527,-20.13C659.36,-22.96 542.28,-278.95 671,-276.12"/>
<path fill="none" stroke="#ff0000" stroke-width="2" d="M527,-22.12C657.54,-22.12 540.46,-278.12 671,-278.12"/>
<path fill="none" stroke="#000000" stroke-width="2" d="M527,-24.12C655.72,-21.29 538.64,-277.29 671,-280.12"/>
</g>
<!-- W4&#45;&#45;W4 -->
<g id="edge40" class="edge">
<title>W4:e&#45;&#45;W4:w</title>
<path fill="none" stroke="#000000" stroke-width="2" d="M527,-49.12C461.75,-49.12 396.5,-49.12 331.25,-49.12"/>
<path fill="none" stroke="#000000" stroke-width="2" d="M527,-47.12C461.75,-47.12 396.5,-47.12 331.25,-47.12"/>
<path fill="none" stroke="#000000" stroke-width="2" d="M527,-45.13C461.75,-45.12 396.5,-45.12 331.25,-45.13"/>
</g>
<!-- W4&#45;&#45;W4 -->
<g id="edge41" class="edge">
<title>W4:e&#45;&#45;W4:w</title>
<path fill="none" stroke="#000000" stroke-width="2" d="M527,-24.12C461.75,-24.12 396.5,-24.12 331.25,-24.12"/>
<path fill="none" stroke="#ff0000" stroke-width="2" d="M527,-22.12C461.75,-22.12 396.5,-22.12 331.25,-22.12"/>
<path fill="none" stroke="#000000" stroke-width="2" d="M527,-20.13C461.75,-20.12 396.5,-20.12 331.25,-20.13"/>
</g>
<!-- AUTOGENERATED_F_2 -->
<g id="node10" class="node">
<title>AUTOGENERATED_F_2</title>
<polygon fill="#ffffff" stroke="black" points="187.25,-23.75 0,-23.75 0,0 187.25,0 187.25,-23.75"/>
<polygon fill="#ffffff" stroke="none" points="0,0 0,-23.75 187.25,-23.75 187.25,0 0,0"/>
<polygon fill="none" stroke="black" points="0,0 0,-23.75 86.75,-23.75 86.75,0 0,0"/>
<text text-anchor="start" x="4" y="-6.45" font-family="arial" font-size="14.00">Crimp ferrule</text>
<polygon fill="none" stroke="black" points="86.75,0 86.75,-23.75 153.25,-23.75 153.25,0 86.75,0"/>
<text text-anchor="start" x="90.75" y="-6.45" font-family="arial" font-size="14.00">0.25 mm²</text>
<polygon fill="none" stroke="black" points="153.25,0 153.25,-23.75 179.25,-23.75 179.25,0 153.25,0"/>
<text text-anchor="start" x="157.25" y="-6.45" font-family="arial" font-size="14.00">YE</text>
<polygon fill="#ffff00" stroke="none" points="179.25,0 179.25,-23.75 187.25,-23.75 187.25,0 179.25,0"/>
<polygon fill="none" stroke="black" points="179.25,0 179.25,-23.75 187.25,-23.75 187.25,0 179.25,0"/>
</g>
<!-- AUTOGENERATED_F_2&#45;&#45;W4 -->
<g id="edge42" class="edge">
<title>AUTOGENERATED_F_2:e&#45;&#45;W4:w</title>
<path fill="none" stroke="#000000" stroke-width="2" d="M187.25,-9.88C252.5,-10.2 268.18,-20.45 331.25,-20.13"/>
<path fill="none" stroke="#ff0000" stroke-width="2" d="M187.25,-11.88C251.41,-11.88 267.09,-22.12 331.25,-22.12"/>
<path fill="none" stroke="#000000" stroke-width="2" d="M187.25,-13.87C250.32,-13.55 266,-23.8 331.25,-24.12"/>
</g>
</g>
</svg>
