<?xml version="1.0" encoding="UTF-8" standalone="no"?>
<!DOCTYPE svg PUBLIC "-//W3C//DTD SVG 1.1//EN"
 "http://www.w3.org/Graphics/SVG/1.1/DTD/svg11.dtd">
<!-- Generated by graphviz version 7.1.0 (20230121.1956)
 -->
<!-- Pages: 1 -->
<svg width="872pt" height="767pt"
 viewBox="0.00 0.00 872.00 766.50" xmlns="http://www.w3.org/2000/svg" xmlns:xlink="http://www.w3.org/1999/xlink">
<g id="graph0" class="graph" transform="scale(1 1) rotate(0) translate(4 762.5)">
<polygon fill="#ffffff" stroke="none" points="-4,4 -4,-762.5 868,-762.5 868,4 -4,4"/>
<!-- X1 -->
<g id="node1" class="node">
<title>X1</title>
<polygon fill="#ffffff" stroke="black" points="185.5,-517.5 3.5,-517.5 3.5,-287.5 185.5,-287.5 185.5,-517.5"/>
<polygon fill="none" stroke="black" points="3.5,-494.5 3.5,-517.5 185.5,-517.5 185.5,-494.5 3.5,-494.5"/>
<text text-anchor="start" x="86" y="-502.3" font-family="arial" font-size="14.00">X1</text>
<polygon fill="none" stroke="black" points="3.5,-471.5 3.5,-494.5 96.5,-494.5 96.5,-471.5 3.5,-471.5"/>
<text text-anchor="start" x="7.5" y="-479.3" font-family="arial" font-size="14.00">Molex KK 254</text>
<polygon fill="none" stroke="black" points="96.5,-471.5 96.5,-494.5 146.5,-494.5 146.5,-471.5 96.5,-471.5"/>
<text text-anchor="start" x="100.5" y="-479.3" font-family="arial" font-size="14.00">female</text>
<polygon fill="none" stroke="black" points="146.5,-471.5 146.5,-494.5 185.5,-494.5 185.5,-471.5 146.5,-471.5"/>
<text text-anchor="start" x="150.5" y="-479.3" font-family="arial" font-size="14.00">8&#45;pin</text>
<polygon fill="none" stroke="black" points="3.5,-448.5 3.5,-471.5 109.5,-471.5 109.5,-448.5 3.5,-448.5"/>
<text text-anchor="start" x="41" y="-456.3" font-family="arial" font-size="14.00">GND</text>
<polygon fill="none" stroke="black" points="109.5,-448.5 109.5,-471.5 185.5,-471.5 185.5,-448.5 109.5,-448.5"/>
<text text-anchor="start" x="143.5" y="-456.3" font-family="arial" font-size="14.00">1</text>
<polygon fill="none" stroke="black" points="3.5,-425.5 3.5,-448.5 109.5,-448.5 109.5,-425.5 3.5,-425.5"/>
<text text-anchor="start" x="44" y="-433.3" font-family="arial" font-size="14.00">+5V</text>
<polygon fill="none" stroke="black" points="109.5,-425.5 109.5,-448.5 185.5,-448.5 185.5,-425.5 109.5,-425.5"/>
<text text-anchor="start" x="143.5" y="-433.3" font-family="arial" font-size="14.00">2</text>
<polygon fill="none" stroke="black" points="3.5,-402.5 3.5,-425.5 109.5,-425.5 109.5,-402.5 3.5,-402.5"/>
<text text-anchor="start" x="43" y="-410.3" font-family="arial" font-size="14.00">SCL</text>
<polygon fill="none" stroke="black" points="109.5,-402.5 109.5,-425.5 185.5,-425.5 185.5,-402.5 109.5,-402.5"/>
<text text-anchor="start" x="143.5" y="-410.3" font-family="arial" font-size="14.00">3</text>
<polygon fill="none" stroke="black" points="3.5,-379.5 3.5,-402.5 109.5,-402.5 109.5,-379.5 3.5,-379.5"/>
<text text-anchor="start" x="42.5" y="-387.3" font-family="arial" font-size="14.00">SDA</text>
<polygon fill="none" stroke="black" points="109.5,-379.5 109.5,-402.5 185.5,-402.5 185.5,-379.5 109.5,-379.5"/>
<text text-anchor="start" x="143.5" y="-387.3" font-family="arial" font-size="14.00">4</text>
<polygon fill="none" stroke="black" points="3.5,-356.5 3.5,-379.5 109.5,-379.5 109.5,-356.5 3.5,-356.5"/>
<text text-anchor="start" x="38" y="-364.3" font-family="arial" font-size="14.00">MISO</text>
<polygon fill="none" stroke="black" points="109.5,-356.5 109.5,-379.5 185.5,-379.5 185.5,-356.5 109.5,-356.5"/>
<text text-anchor="start" x="143.5" y="-364.3" font-family="arial" font-size="14.00">5</text>
<polygon fill="none" stroke="black" points="3.5,-333.5 3.5,-356.5 109.5,-356.5 109.5,-333.5 3.5,-333.5"/>
<text text-anchor="start" x="38" y="-341.3" font-family="arial" font-size="14.00">MOSI</text>
<polygon fill="none" stroke="black" points="109.5,-333.5 109.5,-356.5 185.5,-356.5 185.5,-333.5 109.5,-333.5"/>
<text text-anchor="start" x="143.5" y="-341.3" font-family="arial" font-size="14.00">6</text>
<polygon fill="none" stroke="black" points="3.5,-310.5 3.5,-333.5 109.5,-333.5 109.5,-310.5 3.5,-310.5"/>
<text text-anchor="start" x="42.5" y="-318.3" font-family="arial" font-size="14.00">SCK</text>
<polygon fill="none" stroke="black" points="109.5,-310.5 109.5,-333.5 185.5,-333.5 185.5,-310.5 109.5,-310.5"/>
<text text-anchor="start" x="143.5" y="-318.3" font-family="arial" font-size="14.00">7</text>
<polygon fill="none" stroke="black" points="3.5,-287.5 3.5,-310.5 109.5,-310.5 109.5,-287.5 3.5,-287.5"/>
<text text-anchor="start" x="44.5" y="-295.3" font-family="arial" font-size="14.00">N/C</text>
<polygon fill="none" stroke="black" points="109.5,-287.5 109.5,-310.5 185.5,-310.5 185.5,-287.5 109.5,-287.5"/>
<text text-anchor="start" x="143.5" y="-295.3" font-family="arial" font-size="14.00">8</text>
</g>
<!-- W1 -->
<g id="node7" class="node">
<title>W1</title>
<polygon fill="#ffffff" stroke="black" stroke-dasharray="5,2" points="534.5,-758.5 336.5,-758.5 336.5,-574.5 534.5,-574.5 534.5,-758.5"/>
<polygon fill="none" stroke="black" points="336.5,-735.5 336.5,-758.5 534.5,-758.5 534.5,-735.5 336.5,-735.5"/>
<text text-anchor="start" x="424.5" y="-743.3" font-family="arial" font-size="14.00">W1</text>
<polygon fill="none" stroke="black" points="336.5,-712.5 336.5,-735.5 359.5,-735.5 359.5,-712.5 336.5,-712.5"/>
<text text-anchor="start" x="340.5" y="-720.3" font-family="arial" font-size="14.00">4x</text>
<polygon fill="none" stroke="black" points="359.5,-712.5 359.5,-735.5 491.5,-735.5 491.5,-712.5 359.5,-712.5"/>
<text text-anchor="start" x="363.5" y="-720.3" font-family="arial" font-size="14.00">0.14 mm² (26 AWG)</text>
<polygon fill="none" stroke="black" points="491.5,-712.5 491.5,-735.5 534.5,-735.5 534.5,-712.5 491.5,-712.5"/>
<text text-anchor="start" x="495.5" y="-720.3" font-family="arial" font-size="14.00">0.2 m</text>
<text text-anchor="start" x="369" y="-699.3" font-family="arial" font-size="14.00"> </text>
<text text-anchor="start" x="339.5" y="-680.3" font-family="arial" font-size="14.00">X1:1:GND</text>
<text text-anchor="start" x="410" y="-680.3" font-family="arial" font-size="14.00"> &#160;&#160;&#160;&#160;BK &#160;&#160;&#160;</text>
<text text-anchor="start" x="469" y="-680.3" font-family="arial" font-size="14.00">X2:1:GND</text>
<polygon fill="#000000" stroke="none" points="336.5,-672.5 336.5,-674.5 534.5,-674.5 534.5,-672.5 336.5,-672.5"/>
<polygon fill="#000000" stroke="none" points="336.5,-670.5 336.5,-672.5 534.5,-672.5 534.5,-670.5 336.5,-670.5"/>
<polygon fill="#000000" stroke="none" points="336.5,-668.5 336.5,-670.5 534.5,-670.5 534.5,-668.5 336.5,-668.5"/>
<text text-anchor="start" x="342.5" y="-655.3" font-family="arial" font-size="14.00">X1:2:+5V</text>
<text text-anchor="start" x="409" y="-655.3" font-family="arial" font-size="14.00"> &#160;&#160;&#160;&#160;RD &#160;&#160;&#160;</text>
<text text-anchor="start" x="472" y="-655.3" font-family="arial" font-size="14.00">X2:2:+5V</text>
<polygon fill="#000000" stroke="none" points="336.5,-647.5 336.5,-649.5 534.5,-649.5 534.5,-647.5 336.5,-647.5"/>
<polygon fill="#ff0000" stroke="none" points="336.5,-645.5 336.5,-647.5 534.5,-647.5 534.5,-645.5 336.5,-645.5"/>
<polygon fill="#000000" stroke="none" points="336.5,-643.5 336.5,-645.5 534.5,-645.5 534.5,-643.5 336.5,-643.5"/>
<text text-anchor="start" x="342" y="-630.3" font-family="arial" font-size="14.00">X1:3:SCL</text>
<text text-anchor="start" x="410" y="-630.3" font-family="arial" font-size="14.00"> &#160;&#160;&#160;&#160;YE &#160;&#160;&#160;</text>
<text text-anchor="start" x="471.5" y="-630.3" font-family="arial" font-size="14.00">X2:3:SCL</text>
<polygon fill="#000000" stroke="none" points="336.5,-622.5 336.5,-624.5 534.5,-624.5 534.5,-622.5 336.5,-622.5"/>
<polygon fill="#ffff00" stroke="none" points="336.5,-620.5 336.5,-622.5 534.5,-622.5 534.5,-620.5 336.5,-620.5"/>
<polygon fill="#000000" stroke="none" points="336.5,-618.5 336.5,-620.5 534.5,-620.5 534.5,-618.5 336.5,-618.5"/>
<text text-anchor="start" x="341" y="-605.3" font-family="arial" font-size="14.00">X1:4:SDA</text>
<text text-anchor="start" x="408.5" y="-605.3" font-family="arial" font-size="14.00"> &#160;&#160;&#160;&#160;GN &#160;&#160;&#160;</text>
<text text-anchor="start" x="470.5" y="-605.3" font-family="arial" font-size="14.00">X2:4:SDA</text>
<polygon fill="#000000" stroke="none" points="336.5,-597.5 336.5,-599.5 534.5,-599.5 534.5,-597.5 336.5,-597.5"/>
<polygon fill="#00ff00" stroke="none" points="336.5,-595.5 336.5,-597.5 534.5,-597.5 534.5,-595.5 336.5,-595.5"/>
<polygon fill="#000000" stroke="none" points="336.5,-593.5 336.5,-595.5 534.5,-595.5 534.5,-593.5 336.5,-593.5"/>
<text text-anchor="start" x="369" y="-580.3" font-family="arial" font-size="14.00"> </text>
</g>
<!-- X1&#45;&#45;W1 -->
<g id="edge1" class="edge">
<title>X1:e&#45;&#45;W1:w</title>
<path fill="none" stroke="#000000" stroke-width="2" d="M186.5,-458.5C303.17,-461.21 222.57,-672.21 335.5,-669.5"/>
<path fill="none" stroke="#000000" stroke-width="2" d="M186.5,-460.5C301.3,-460.5 220.7,-671.5 335.5,-671.5"/>
<path fill="none" stroke="#000000" stroke-width="2" d="M186.5,-462.5C299.43,-459.79 218.83,-670.79 335.5,-673.5"/>
</g>
<!-- X1&#45;&#45;W1 -->
<g id="edge3" class="edge">
<title>X1:e&#45;&#45;W1:w</title>
<path fill="none" stroke="#000000" stroke-width="2" d="M186.5,-435.5C302.45,-438.21 223.29,-647.21 335.5,-644.5"/>
<path fill="none" stroke="#ff0000" stroke-width="2" d="M186.5,-437.5C300.58,-437.5 221.42,-646.5 335.5,-646.5"/>
<path fill="none" stroke="#000000" stroke-width="2" d="M186.5,-439.5C298.71,-436.79 219.55,-645.79 335.5,-648.5"/>
</g>
<!-- X1&#45;&#45;W1 -->
<g id="edge5" class="edge">
<title>X1:e&#45;&#45;W1:w</title>
<path fill="none" stroke="#000000" stroke-width="2" d="M186.5,-412.5C301.73,-415.2 224.02,-622.2 335.5,-619.5"/>
<path fill="none" stroke="#ffff00" stroke-width="2" d="M186.5,-414.5C299.86,-414.5 222.14,-621.5 335.5,-621.5"/>
<path fill="none" stroke="#000000" stroke-width="2" d="M186.5,-416.5C297.98,-413.8 220.27,-620.8 335.5,-623.5"/>
</g>
<!-- X1&#45;&#45;W1 -->
<g id="edge7" class="edge">
<title>X1:e&#45;&#45;W1:w</title>
<path fill="none" stroke="#000000" stroke-width="2" d="M186.5,-388.5C301.37,-391.2 224.38,-597.2 335.5,-594.5"/>
<path fill="none" stroke="#00ff00" stroke-width="2" d="M186.5,-390.5C299.49,-390.5 222.51,-596.5 335.5,-596.5"/>
<path fill="none" stroke="#000000" stroke-width="2" d="M186.5,-392.5C297.62,-389.8 220.63,-595.8 335.5,-598.5"/>
</g>
<!-- W2 -->
<g id="node8" class="node">
<title>W2</title>
<polygon fill="#ffffff" stroke="black" stroke-dasharray="5,2" points="534.5,-550.5 336.5,-550.5 336.5,-366.5 534.5,-366.5 534.5,-550.5"/>
<polygon fill="none" stroke="black" points="336.5,-527.5 336.5,-550.5 534.5,-550.5 534.5,-527.5 336.5,-527.5"/>
<text text-anchor="start" x="424.5" y="-535.3" font-family="arial" font-size="14.00">W2</text>
<polygon fill="none" stroke="black" points="336.5,-504.5 336.5,-527.5 359.5,-527.5 359.5,-504.5 336.5,-504.5"/>
<text text-anchor="start" x="340.5" y="-512.3" font-family="arial" font-size="14.00">4x</text>
<polygon fill="none" stroke="black" points="359.5,-504.5 359.5,-527.5 491.5,-527.5 491.5,-504.5 359.5,-504.5"/>
<text text-anchor="start" x="363.5" y="-512.3" font-family="arial" font-size="14.00">0.14 mm² (26 AWG)</text>
<polygon fill="none" stroke="black" points="491.5,-504.5 491.5,-527.5 534.5,-527.5 534.5,-504.5 491.5,-504.5"/>
<text text-anchor="start" x="495.5" y="-512.3" font-family="arial" font-size="14.00">0.4 m</text>
<text text-anchor="start" x="369" y="-491.3" font-family="arial" font-size="14.00"> </text>
<text text-anchor="start" x="339.5" y="-472.3" font-family="arial" font-size="14.00">X1:1:GND</text>
<text text-anchor="start" x="410" y="-472.3" font-family="arial" font-size="14.00"> &#160;&#160;&#160;&#160;BK &#160;&#160;&#160;</text>
<text text-anchor="start" x="469" y="-472.3" font-family="arial" font-size="14.00">X3:1:GND</text>
<polygon fill="#000000" stroke="none" points="336.5,-464.5 336.5,-466.5 534.5,-466.5 534.5,-464.5 336.5,-464.5"/>
<polygon fill="#000000" stroke="none" points="336.5,-462.5 336.5,-464.5 534.5,-464.5 534.5,-462.5 336.5,-462.5"/>
<polygon fill="#000000" stroke="none" points="336.5,-460.5 336.5,-462.5 534.5,-462.5 534.5,-460.5 336.5,-460.5"/>
<text text-anchor="start" x="342.5" y="-447.3" font-family="arial" font-size="14.00">X1:2:+5V</text>
<text text-anchor="start" x="409" y="-447.3" font-family="arial" font-size="14.00"> &#160;&#160;&#160;&#160;RD &#160;&#160;&#160;</text>
<text text-anchor="start" x="472" y="-447.3" font-family="arial" font-size="14.00">X3:2:+5V</text>
<polygon fill="#000000" stroke="none" points="336.5,-439.5 336.5,-441.5 534.5,-441.5 534.5,-439.5 336.5,-439.5"/>
<polygon fill="#ff0000" stroke="none" points="336.5,-437.5 336.5,-439.5 534.5,-439.5 534.5,-437.5 336.5,-437.5"/>
<polygon fill="#000000" stroke="none" points="336.5,-435.5 336.5,-437.5 534.5,-437.5 534.5,-435.5 336.5,-435.5"/>
<text text-anchor="start" x="342" y="-422.3" font-family="arial" font-size="14.00">X1:3:SCL</text>
<text text-anchor="start" x="410" y="-422.3" font-family="arial" font-size="14.00"> &#160;&#160;&#160;&#160;YE &#160;&#160;&#160;</text>
<text text-anchor="start" x="471.5" y="-422.3" font-family="arial" font-size="14.00">X3:3:SCL</text>
<polygon fill="#000000" stroke="none" points="336.5,-414.5 336.5,-416.5 534.5,-416.5 534.5,-414.5 336.5,-414.5"/>
<polygon fill="#ffff00" stroke="none" points="336.5,-412.5 336.5,-414.5 534.5,-414.5 534.5,-412.5 336.5,-412.5"/>
<polygon fill="#000000" stroke="none" points="336.5,-410.5 336.5,-412.5 534.5,-412.5 534.5,-410.5 336.5,-410.5"/>
<text text-anchor="start" x="341" y="-397.3" font-family="arial" font-size="14.00">X1:4:SDA</text>
<text text-anchor="start" x="408.5" y="-397.3" font-family="arial" font-size="14.00"> &#160;&#160;&#160;&#160;GN &#160;&#160;&#160;</text>
<text text-anchor="start" x="470.5" y="-397.3" font-family="arial" font-size="14.00">X3:4:SDA</text>
<polygon fill="#000000" stroke="none" points="336.5,-389.5 336.5,-391.5 534.5,-391.5 534.5,-389.5 336.5,-389.5"/>
<polygon fill="#00ff00" stroke="none" points="336.5,-387.5 336.5,-389.5 534.5,-389.5 534.5,-387.5 336.5,-387.5"/>
<polygon fill="#000000" stroke="none" points="336.5,-385.5 336.5,-387.5 534.5,-387.5 534.5,-385.5 336.5,-385.5"/>
<text text-anchor="start" x="369" y="-372.3" font-family="arial" font-size="14.00"> </text>
</g>
<!-- X1&#45;&#45;W2 -->
<g id="edge9" class="edge">
<title>X1:e&#45;&#45;W2:w</title>
<path fill="none" stroke="#000000" stroke-width="2" d="M186.5,-458.5C253.09,-458.53 269.62,-461.53 335.5,-461.5"/>
<path fill="none" stroke="#000000" stroke-width="2" d="M186.5,-460.5C252.74,-460.5 269.26,-463.5 335.5,-463.5"/>
<path fill="none" stroke="#000000" stroke-width="2" d="M186.5,-462.5C252.38,-462.47 268.91,-465.47 335.5,-465.5"/>
</g>
<!-- X1&#45;&#45;W2 -->
<g id="edge11" class="edge">
<title>X1:e&#45;&#45;W2:w</title>
<path fill="none" stroke="#000000" stroke-width="2" d="M186.5,-435.5C252.84,-435.5 269.4,-436.5 335.5,-436.5"/>
<path fill="none" stroke="#ff0000" stroke-width="2" d="M186.5,-437.5C252.72,-437.5 269.28,-438.5 335.5,-438.5"/>
<path fill="none" stroke="#000000" stroke-width="2" d="M186.5,-439.5C252.6,-439.5 269.16,-440.5 335.5,-440.5"/>
</g>
<!-- X1&#45;&#45;W2 -->
<g id="edge13" class="edge">
<title>X1:e&#45;&#45;W2:w</title>
<path fill="none" stroke="#000000" stroke-width="2" d="M186.5,-412.5C252.6,-412.5 269.16,-411.5 335.5,-411.5"/>
<path fill="none" stroke="#ffff00" stroke-width="2" d="M186.5,-414.5C252.72,-414.5 269.28,-413.5 335.5,-413.5"/>
<path fill="none" stroke="#000000" stroke-width="2" d="M186.5,-416.5C252.84,-416.5 269.4,-415.5 335.5,-415.5"/>
</g>
<!-- X1&#45;&#45;W2 -->
<g id="edge15" class="edge">
<title>X1:e&#45;&#45;W2:w</title>
<path fill="none" stroke="#000000" stroke-width="2" d="M186.5,-388.5C252.49,-388.51 269.03,-386.51 335.5,-386.5"/>
<path fill="none" stroke="#00ff00" stroke-width="2" d="M186.5,-390.5C252.73,-390.5 269.27,-388.5 335.5,-388.5"/>
<path fill="none" stroke="#000000" stroke-width="2" d="M186.5,-392.5C252.97,-392.49 269.51,-390.49 335.5,-390.5"/>
</g>
<!-- W3 -->
<g id="node9" class="node">
<title>W3</title>
<polygon fill="#ffffff" stroke="black" stroke-dasharray="5,2" points="538,-342.5 333,-342.5 333,-158.5 538,-158.5 538,-342.5"/>
<polygon fill="none" stroke="black" points="333.5,-319.5 333.5,-342.5 538.5,-342.5 538.5,-319.5 333.5,-319.5"/>
<text text-anchor="start" x="425" y="-327.3" font-family="arial" font-size="14.00">W3</text>
<polygon fill="none" stroke="black" points="333.5,-296.5 333.5,-319.5 359.5,-319.5 359.5,-296.5 333.5,-296.5"/>
<text text-anchor="start" x="339" y="-304.3" font-family="arial" font-size="14.00">4x</text>
<polygon fill="none" stroke="black" points="359.5,-296.5 359.5,-319.5 493.5,-319.5 493.5,-296.5 359.5,-296.5"/>
<text text-anchor="start" x="364.5" y="-304.3" font-family="arial" font-size="14.00">0.14 mm² (26 AWG)</text>
<polygon fill="none" stroke="black" points="493.5,-296.5 493.5,-319.5 538.5,-319.5 538.5,-296.5 493.5,-296.5"/>
<text text-anchor="start" x="498.5" y="-304.3" font-family="arial" font-size="14.00">0.3 m</text>
<text text-anchor="start" x="367.5" y="-283.3" font-family="arial" font-size="14.00"> </text>
<text text-anchor="start" x="338" y="-264.3" font-family="arial" font-size="14.00">X1:1:GND</text>
<text text-anchor="start" x="410" y="-264.3" font-family="arial" font-size="14.00"> &#160;&#160;&#160;&#160;BK &#160;&#160;&#160;</text>
<text text-anchor="start" x="471" y="-264.3" font-family="arial" font-size="14.00">X4:1:GND</text>
<polygon fill="#000000" stroke="none" points="333.5,-256.5 333.5,-258.5 538.5,-258.5 538.5,-256.5 333.5,-256.5"/>
<polygon fill="#000000" stroke="none" points="333.5,-254.5 333.5,-256.5 538.5,-256.5 538.5,-254.5 333.5,-254.5"/>
<polygon fill="#000000" stroke="none" points="333.5,-252.5 333.5,-254.5 538.5,-254.5 538.5,-252.5 333.5,-252.5"/>
<text text-anchor="start" x="335.5" y="-239.3" font-family="arial" font-size="14.00">X1:5:MISO</text>
<text text-anchor="start" x="409.5" y="-239.3" font-family="arial" font-size="14.00"> &#160;&#160;&#160;&#160;BU &#160;&#160;&#160;</text>
<text text-anchor="start" x="468.5" y="-239.3" font-family="arial" font-size="14.00">X4:3:MISO</text>
<polygon fill="#000000" stroke="none" points="333.5,-231.5 333.5,-233.5 538.5,-233.5 538.5,-231.5 333.5,-231.5"/>
<polygon fill="#0066ff" stroke="none" points="333.5,-229.5 333.5,-231.5 538.5,-231.5 538.5,-229.5 333.5,-229.5"/>
<polygon fill="#000000" stroke="none" points="333.5,-227.5 333.5,-229.5 538.5,-229.5 538.5,-227.5 333.5,-227.5"/>
<text text-anchor="start" x="335.5" y="-214.3" font-family="arial" font-size="14.00">X1:6:MOSI</text>
<text text-anchor="start" x="407.5" y="-214.3" font-family="arial" font-size="14.00"> &#160;&#160;&#160;&#160;OG &#160;&#160;&#160;</text>
<text text-anchor="start" x="468.5" y="-214.3" font-family="arial" font-size="14.00">X4:4:MOSI</text>
<polygon fill="#000000" stroke="none" points="333.5,-206.5 333.5,-208.5 538.5,-208.5 538.5,-206.5 333.5,-206.5"/>
<polygon fill="#ff8000" stroke="none" points="333.5,-204.5 333.5,-206.5 538.5,-206.5 538.5,-204.5 333.5,-204.5"/>
<polygon fill="#000000" stroke="none" points="333.5,-202.5 333.5,-204.5 538.5,-204.5 538.5,-202.5 333.5,-202.5"/>
<text text-anchor="start" x="339.5" y="-189.3" font-family="arial" font-size="14.00">X1:7:SCK</text>
<text text-anchor="start" x="410" y="-189.3" font-family="arial" font-size="14.00"> &#160;&#160;&#160;&#160;VT &#160;&#160;&#160;</text>
<text text-anchor="start" x="472.5" y="-189.3" font-family="arial" font-size="14.00">X4:5:SCK</text>
<polygon fill="#000000" stroke="none" points="333.5,-181.5 333.5,-183.5 538.5,-183.5 538.5,-181.5 333.5,-181.5"/>
<polygon fill="#8000ff" stroke="none" points="333.5,-179.5 333.5,-181.5 538.5,-181.5 538.5,-179.5 333.5,-179.5"/>
<polygon fill="#000000" stroke="none" points="333.5,-177.5 333.5,-179.5 538.5,-179.5 538.5,-177.5 333.5,-177.5"/>
<text text-anchor="start" x="367.5" y="-164.3" font-family="arial" font-size="14.00"> </text>
</g>
<!-- X1&#45;&#45;W3 -->
<g id="edge17" class="edge">
<title>X1:e&#45;&#45;W3:w</title>
<path fill="none" stroke="#000000" stroke-width="2" d="M186.5,-458.5C296.61,-461.21 219.14,-256.21 333,-253.5"/>
<path fill="none" stroke="#000000" stroke-width="2" d="M186.5,-460.5C298.49,-460.5 221.01,-255.5 333,-255.5"/>
<path fill="none" stroke="#000000" stroke-width="2" d="M186.5,-462.5C300.36,-459.79 222.89,-254.79 333,-257.5"/>
</g>
<!-- X1&#45;&#45;W3 -->
<g id="edge19" class="edge">
<title>X1:e&#45;&#45;W3:w</title>
<path fill="none" stroke="#000000" stroke-width="2" d="M186.5,-365.5C273.7,-367.95 241.91,-230.95 333,-228.5"/>
<path fill="none" stroke="#0066ff" stroke-width="2" d="M186.5,-367.5C275.65,-367.5 243.85,-230.5 333,-230.5"/>
<path fill="none" stroke="#000000" stroke-width="2" d="M186.5,-369.5C277.59,-367.05 245.8,-230.05 333,-232.5"/>
</g>
<!-- X1&#45;&#45;W3 -->
<g id="edge21" class="edge">
<title>X1:e&#45;&#45;W3:w</title>
<path fill="none" stroke="#000000" stroke-width="2" d="M186.5,-342.5C274.31,-344.96 241.3,-205.96 333,-203.5"/>
<path fill="none" stroke="#ff8000" stroke-width="2" d="M186.5,-344.5C276.25,-344.5 243.25,-205.5 333,-205.5"/>
<path fill="none" stroke="#000000" stroke-width="2" d="M186.5,-346.5C278.2,-344.04 245.19,-205.04 333,-207.5"/>
</g>
<!-- X1&#45;&#45;W3 -->
<g id="edge23" class="edge">
<title>X1:e&#45;&#45;W3:w</title>
<path fill="none" stroke="#000000" stroke-width="2" d="M186.5,-319.5C274.93,-321.97 240.69,-180.97 333,-178.5"/>
<path fill="none" stroke="#8000ff" stroke-width="2" d="M186.5,-321.5C276.87,-321.5 242.63,-180.5 333,-180.5"/>
<path fill="none" stroke="#000000" stroke-width="2" d="M186.5,-323.5C278.81,-321.03 244.57,-180.03 333,-182.5"/>
</g>
<!-- X2 -->
<g id="node2" class="node">
<title>X2</title>
<polygon fill="#ffffff" stroke="black" points="864,-726.5 682,-726.5 682,-588.5 864,-588.5 864,-726.5"/>
<polygon fill="none" stroke="black" points="682,-703.5 682,-726.5 864,-726.5 864,-703.5 682,-703.5"/>
<text text-anchor="start" x="764.5" y="-711.3" font-family="arial" font-size="14.00">X2</text>
<polygon fill="none" stroke="black" points="682,-680.5 682,-703.5 775,-703.5 775,-680.5 682,-680.5"/>
<text text-anchor="start" x="686" y="-688.3" font-family="arial" font-size="14.00">Molex KK 254</text>
<polygon fill="none" stroke="black" points="775,-680.5 775,-703.5 825,-703.5 825,-680.5 775,-680.5"/>
<text text-anchor="start" x="779" y="-688.3" font-family="arial" font-size="14.00">female</text>
<polygon fill="none" stroke="black" points="825,-680.5 825,-703.5 864,-703.5 864,-680.5 825,-680.5"/>
<text text-anchor="start" x="829" y="-688.3" font-family="arial" font-size="14.00">4&#45;pin</text>
<polygon fill="none" stroke="black" points="682,-657.5 682,-680.5 762,-680.5 762,-657.5 682,-657.5"/>
<text text-anchor="start" x="718" y="-665.3" font-family="arial" font-size="14.00">1</text>
<polygon fill="none" stroke="black" points="762,-657.5 762,-680.5 864,-680.5 864,-657.5 762,-657.5"/>
<text text-anchor="start" x="797.5" y="-665.3" font-family="arial" font-size="14.00">GND</text>
<polygon fill="none" stroke="black" points="682,-634.5 682,-657.5 762,-657.5 762,-634.5 682,-634.5"/>
<text text-anchor="start" x="718" y="-642.3" font-family="arial" font-size="14.00">2</text>
<polygon fill="none" stroke="black" points="762,-634.5 762,-657.5 864,-657.5 864,-634.5 762,-634.5"/>
<text text-anchor="start" x="800.5" y="-642.3" font-family="arial" font-size="14.00">+5V</text>
<polygon fill="none" stroke="black" points="682,-611.5 682,-634.5 762,-634.5 762,-611.5 682,-611.5"/>
<text text-anchor="start" x="718" y="-619.3" font-family="arial" font-size="14.00">3</text>
<polygon fill="none" stroke="black" points="762,-611.5 762,-634.5 864,-634.5 864,-611.5 762,-611.5"/>
<text text-anchor="start" x="799.5" y="-619.3" font-family="arial" font-size="14.00">SCL</text>
<polygon fill="none" stroke="black" points="682,-588.5 682,-611.5 762,-611.5 762,-588.5 682,-588.5"/>
<text text-anchor="start" x="718" y="-596.3" font-family="arial" font-size="14.00">4</text>
<polygon fill="none" stroke="black" points="762,-588.5 762,-611.5 864,-611.5 864,-588.5 762,-588.5"/>
<text text-anchor="start" x="799" y="-596.3" font-family="arial" font-size="14.00">SDA</text>
</g>
<!-- X3 -->
<g id="node3" class="node">
<title>X3</title>
<polygon fill="#ffffff" stroke="black" points="864,-518.5 682,-518.5 682,-380.5 864,-380.5 864,-518.5"/>
<polygon fill="none" stroke="black" points="682,-495.5 682,-518.5 864,-518.5 864,-495.5 682,-495.5"/>
<text text-anchor="start" x="764.5" y="-503.3" font-family="arial" font-size="14.00">X3</text>
<polygon fill="none" stroke="black" points="682,-472.5 682,-495.5 775,-495.5 775,-472.5 682,-472.5"/>
<text text-anchor="start" x="686" y="-480.3" font-family="arial" font-size="14.00">Molex KK 254</text>
<polygon fill="none" stroke="black" points="775,-472.5 775,-495.5 825,-495.5 825,-472.5 775,-472.5"/>
<text text-anchor="start" x="779" y="-480.3" font-family="arial" font-size="14.00">female</text>
<polygon fill="none" stroke="black" points="825,-472.5 825,-495.5 864,-495.5 864,-472.5 825,-472.5"/>
<text text-anchor="start" x="829" y="-480.3" font-family="arial" font-size="14.00">4&#45;pin</text>
<polygon fill="none" stroke="black" points="682,-449.5 682,-472.5 762,-472.5 762,-449.5 682,-449.5"/>
<text text-anchor="start" x="718" y="-457.3" font-family="arial" font-size="14.00">1</text>
<polygon fill="none" stroke="black" points="762,-449.5 762,-472.5 864,-472.5 864,-449.5 762,-449.5"/>
<text text-anchor="start" x="797.5" y="-457.3" font-family="arial" font-size="14.00">GND</text>
<polygon fill="none" stroke="black" points="682,-426.5 682,-449.5 762,-449.5 762,-426.5 682,-426.5"/>
<text text-anchor="start" x="718" y="-434.3" font-family="arial" font-size="14.00">2</text>
<polygon fill="none" stroke="black" points="762,-426.5 762,-449.5 864,-449.5 864,-426.5 762,-426.5"/>
<text text-anchor="start" x="800.5" y="-434.3" font-family="arial" font-size="14.00">+5V</text>
<polygon fill="none" stroke="black" points="682,-403.5 682,-426.5 762,-426.5 762,-403.5 682,-403.5"/>
<text text-anchor="start" x="718" y="-411.3" font-family="arial" font-size="14.00">3</text>
<polygon fill="none" stroke="black" points="762,-403.5 762,-426.5 864,-426.5 864,-403.5 762,-403.5"/>
<text text-anchor="start" x="799.5" y="-411.3" font-family="arial" font-size="14.00">SCL</text>
<polygon fill="none" stroke="black" points="682,-380.5 682,-403.5 762,-403.5 762,-380.5 682,-380.5"/>
<text text-anchor="start" x="718" y="-388.3" font-family="arial" font-size="14.00">4</text>
<polygon fill="none" stroke="black" points="762,-380.5 762,-403.5 864,-403.5 864,-380.5 762,-380.5"/>
<text text-anchor="start" x="799" y="-388.3" font-family="arial" font-size="14.00">SDA</text>
</g>
<!-- X4 -->
<g id="node4" class="node">
<title>X4</title>
<polygon fill="#ffffff" stroke="black" points="864,-322 682,-322 682,-161 864,-161 864,-322"/>
<polygon fill="none" stroke="black" points="682,-298.5 682,-321.5 864,-321.5 864,-298.5 682,-298.5"/>
<text text-anchor="start" x="764.5" y="-306.3" font-family="arial" font-size="14.00">X4</text>
<polygon fill="none" stroke="black" points="682,-275.5 682,-298.5 775,-298.5 775,-275.5 682,-275.5"/>
<text text-anchor="start" x="686" y="-283.3" font-family="arial" font-size="14.00">Molex KK 254</text>
<polygon fill="none" stroke="black" points="775,-275.5 775,-298.5 825,-298.5 825,-275.5 775,-275.5"/>
<text text-anchor="start" x="779" y="-283.3" font-family="arial" font-size="14.00">female</text>
<polygon fill="none" stroke="black" points="825,-275.5 825,-298.5 864,-298.5 864,-275.5 825,-275.5"/>
<text text-anchor="start" x="829" y="-283.3" font-family="arial" font-size="14.00">5&#45;pin</text>
<polygon fill="none" stroke="black" points="682,-252.5 682,-275.5 759,-275.5 759,-252.5 682,-252.5"/>
<text text-anchor="start" x="716.5" y="-260.3" font-family="arial" font-size="14.00">1</text>
<polygon fill="none" stroke="black" points="759,-252.5 759,-275.5 864,-275.5 864,-252.5 759,-252.5"/>
<text text-anchor="start" x="796" y="-260.3" font-family="arial" font-size="14.00">GND</text>
<polygon fill="none" stroke="black" points="682,-229.5 682,-252.5 759,-252.5 759,-229.5 682,-229.5"/>
<text text-anchor="start" x="716.5" y="-237.3" font-family="arial" font-size="14.00">2</text>
<polygon fill="none" stroke="black" points="759,-229.5 759,-252.5 864,-252.5 864,-229.5 759,-229.5"/>
<text text-anchor="start" x="795" y="-237.3" font-family="arial" font-size="14.00">+12V</text>
<polygon fill="none" stroke="black" points="682,-206.5 682,-229.5 759,-229.5 759,-206.5 682,-206.5"/>
<text text-anchor="start" x="716.5" y="-214.3" font-family="arial" font-size="14.00">3</text>
<polygon fill="none" stroke="black" points="759,-206.5 759,-229.5 864,-229.5 864,-206.5 759,-206.5"/>
<text text-anchor="start" x="793" y="-214.3" font-family="arial" font-size="14.00">MISO</text>
<polygon fill="none" stroke="black" points="682,-183.5 682,-206.5 759,-206.5 759,-183.5 682,-183.5"/>
<text text-anchor="start" x="716.5" y="-191.3" font-family="arial" font-size="14.00">4</text>
<polygon fill="none" stroke="black" points="759,-183.5 759,-206.5 864,-206.5 864,-183.5 759,-183.5"/>
<text text-anchor="start" x="793" y="-191.3" font-family="arial" font-size="14.00">MOSI</text>
<polygon fill="none" stroke="black" points="682,-160.5 682,-183.5 759,-183.5 759,-160.5 682,-160.5"/>
<text text-anchor="start" x="716.5" y="-168.3" font-family="arial" font-size="14.00">5</text>
<polygon fill="none" stroke="black" points="759,-160.5 759,-183.5 864,-183.5 864,-160.5 759,-160.5"/>
<text text-anchor="start" x="797.5" y="-168.3" font-family="arial" font-size="14.00">SCK</text>
</g>
<!-- __F_1 -->
<g id="node5" class="node">
<title>__F_1</title>
<polygon fill="#ffffff" stroke="black" points="189,-70 0,-70 0,-47 189,-47 189,-70"/>
<polygon fill="none" stroke="black" points="0.5,-46.5 0.5,-69.5 87.5,-69.5 87.5,-46.5 0.5,-46.5"/>
<text text-anchor="start" x="4.5" y="-54.3" font-family="arial" font-size="14.00">Crimp ferrule</text>
<polygon fill="none" stroke="black" points="87.5,-46.5 87.5,-69.5 154.5,-69.5 154.5,-46.5 87.5,-46.5"/>
<text text-anchor="start" x="91.5" y="-54.3" font-family="arial" font-size="14.00">0.25 mm²</text>
<polygon fill="none" stroke="black" points="154.5,-46.5 154.5,-69.5 181.5,-69.5 181.5,-46.5 154.5,-46.5"/>
<text text-anchor="start" x="158.5" y="-54.3" font-family="arial" font-size="14.00">YE</text>
<polygon fill="#ffff00" stroke="none" points="181.5,-46.5 181.5,-69.5 189.5,-69.5 189.5,-46.5 181.5,-46.5"/>
<polygon fill="none" stroke="black" points="181.5,-46.5 181.5,-69.5 189.5,-69.5 189.5,-46.5 181.5,-46.5"/>
</g>
<!-- W4 -->
<g id="node10" class="node">
<title>W4</title>
<polygon fill="#ffffff" stroke="black" points="534.5,-134.5 336.5,-134.5 336.5,-0.5 534.5,-0.5 534.5,-134.5"/>
<polygon fill="none" stroke="black" points="336.5,-111.5 336.5,-134.5 534.5,-134.5 534.5,-111.5 336.5,-111.5"/>
<text text-anchor="start" x="424.5" y="-119.3" font-family="arial" font-size="14.00">W4</text>
<polygon fill="none" stroke="black" points="336.5,-88.5 336.5,-111.5 359.5,-111.5 359.5,-88.5 336.5,-88.5"/>
<text text-anchor="start" x="340.5" y="-96.3" font-family="arial" font-size="14.00">2x</text>
<polygon fill="none" stroke="black" points="359.5,-88.5 359.5,-111.5 491.5,-111.5 491.5,-88.5 359.5,-88.5"/>
<text text-anchor="start" x="363.5" y="-96.3" font-family="arial" font-size="14.00">0.25 mm² (24 AWG)</text>
<polygon fill="none" stroke="black" points="491.5,-88.5 491.5,-111.5 534.5,-111.5 534.5,-88.5 491.5,-88.5"/>
<text text-anchor="start" x="495.5" y="-96.3" font-family="arial" font-size="14.00">0.3 m</text>
<text text-anchor="start" x="347.5" y="-75.3" font-family="arial" font-size="14.00"> </text>
<text text-anchor="start" x="374" y="-56.3" font-family="arial" font-size="14.00"> &#160;&#160;&#160;&#160;1:BK &#160;&#160;&#160;</text>
<text text-anchor="start" x="460.5" y="-56.3" font-family="arial" font-size="14.00">X4:1:GND</text>
<polygon fill="#000000" stroke="none" points="336.5,-48.5 336.5,-50.5 534.5,-50.5 534.5,-48.5 336.5,-48.5"/>
<polygon fill="#000000" stroke="none" points="336.5,-46.5 336.5,-48.5 534.5,-48.5 534.5,-46.5 336.5,-46.5"/>
<polygon fill="#000000" stroke="none" points="336.5,-44.5 336.5,-46.5 534.5,-46.5 534.5,-44.5 336.5,-44.5"/>
<text text-anchor="start" x="373.5" y="-31.3" font-family="arial" font-size="14.00"> &#160;&#160;&#160;&#160;2:RD &#160;&#160;&#160;</text>
<text text-anchor="start" x="460" y="-31.3" font-family="arial" font-size="14.00">X4:2:+12V</text>
<polygon fill="#000000" stroke="none" points="336.5,-23.5 336.5,-25.5 534.5,-25.5 534.5,-23.5 336.5,-23.5"/>
<polygon fill="#ff0000" stroke="none" points="336.5,-21.5 336.5,-23.5 534.5,-23.5 534.5,-21.5 336.5,-21.5"/>
<polygon fill="#000000" stroke="none" points="336.5,-19.5 336.5,-21.5 534.5,-21.5 534.5,-19.5 336.5,-19.5"/>
<text text-anchor="start" x="347.5" y="-6.3" font-family="arial" font-size="14.00"> </text>
</g>
<!-- __F_1&#45;&#45;W4 -->
<g id="edge25" class="edge">
<title>__F_1:e&#45;&#45;W4:w</title>
<path fill="none" stroke="#000000" stroke-width="2" d="M189,-56.5C253.16,-56.85 269.07,-45.85 335.5,-45.5"/>
<path fill="none" stroke="#000000" stroke-width="2" d="M189,-58.5C254.29,-58.5 270.21,-47.5 335.5,-47.5"/>
<path fill="none" stroke="#000000" stroke-width="2" d="M189,-60.5C255.43,-60.15 271.34,-49.15 335.5,-49.5"/>
</g>
<!-- __F_2 -->
<g id="node6" class="node">
<title>__F_2</title>
<polygon fill="#ffffff" stroke="black" points="189,-23 0,-23 0,0 189,0 189,-23"/>
<polygon fill="none" stroke="black" points="0.5,0.5 0.5,-22.5 87.5,-22.5 87.5,0.5 0.5,0.5"/>
<text text-anchor="start" x="4.5" y="-7.3" font-family="arial" font-size="14.00">Crimp ferrule</text>
<polygon fill="none" stroke="black" points="87.5,0.5 87.5,-22.5 154.5,-22.5 154.5,0.5 87.5,0.5"/>
<text text-anchor="start" x="91.5" y="-7.3" font-family="arial" font-size="14.00">0.25 mm²</text>
<polygon fill="none" stroke="black" points="154.5,0.5 154.5,-22.5 181.5,-22.5 181.5,0.5 154.5,0.5"/>
<text text-anchor="start" x="158.5" y="-7.3" font-family="arial" font-size="14.00">YE</text>
<polygon fill="#ffff00" stroke="none" points="181.5,0.5 181.5,-22.5 189.5,-22.5 189.5,0.5 181.5,0.5"/>
<polygon fill="none" stroke="black" points="181.5,0.5 181.5,-22.5 189.5,-22.5 189.5,0.5 181.5,0.5"/>
</g>
<!-- __F_2&#45;&#45;W4 -->
<g id="edge27" class="edge">
<title>__F_2:e&#45;&#45;W4:w</title>
<path fill="none" stroke="#000000" stroke-width="2" d="M189,-9.5C255.43,-9.85 271.34,-20.85 335.5,-20.5"/>
<path fill="none" stroke="#ff0000" stroke-width="2" d="M189,-11.5C254.29,-11.5 270.21,-22.5 335.5,-22.5"/>
<path fill="none" stroke="#000000" stroke-width="2" d="M189,-13.5C253.16,-13.15 269.07,-24.15 335.5,-24.5"/>
</g>
<!-- W1&#45;&#45;X2 -->
<g id="edge2" class="edge">
<title>W1:e&#45;&#45;X2:w</title>
<path fill="none" stroke="#000000" stroke-width="2" d="M535.5,-669.5C600.37,-669.51 616.64,-667.51 682,-667.5"/>
<path fill="none" stroke="#000000" stroke-width="2" d="M535.5,-671.5C600.62,-671.5 616.88,-669.5 682,-669.5"/>
<path fill="none" stroke="#000000" stroke-width="2" d="M535.5,-673.5C600.86,-673.49 617.13,-671.49 682,-671.5"/>
</g>
<!-- W1&#45;&#45;X2 -->
<g id="edge4" class="edge">
<title>W1:e&#45;&#45;X2:w</title>
<path fill="none" stroke="#000000" stroke-width="2" d="M535.5,-644.5C600.49,-644.5 616.76,-643.5 682,-643.5"/>
<path fill="none" stroke="#ff0000" stroke-width="2" d="M535.5,-646.5C600.61,-646.5 616.89,-645.5 682,-645.5"/>
<path fill="none" stroke="#000000" stroke-width="2" d="M535.5,-648.5C600.74,-648.5 617.01,-647.5 682,-647.5"/>
</g>
<!-- W1&#45;&#45;X2 -->
<g id="edge6" class="edge">
<title>W1:e&#45;&#45;X2:w</title>
<path fill="none" stroke="#000000" stroke-width="2" d="M535.5,-619.5C600.74,-619.5 617.01,-620.5 682,-620.5"/>
<path fill="none" stroke="#ffff00" stroke-width="2" d="M535.5,-621.5C600.61,-621.5 616.89,-622.5 682,-622.5"/>
<path fill="none" stroke="#000000" stroke-width="2" d="M535.5,-623.5C600.49,-623.5 616.76,-624.5 682,-624.5"/>
</g>
<!-- W1&#45;&#45;X2 -->
<g id="edge8" class="edge">
<title>W1:e&#45;&#45;X2:w</title>
<path fill="none" stroke="#000000" stroke-width="2" d="M535.5,-594.5C600.99,-594.53 617.24,-597.53 682,-597.5"/>
<path fill="none" stroke="#00ff00" stroke-width="2" d="M535.5,-596.5C600.62,-596.5 616.88,-599.5 682,-599.5"/>
<path fill="none" stroke="#000000" stroke-width="2" d="M535.5,-598.5C600.26,-598.47 616.51,-601.47 682,-601.5"/>
</g>
<!-- W2&#45;&#45;X3 -->
<g id="edge10" class="edge">
<title>W2:e&#45;&#45;X3:w</title>
<path fill="none" stroke="#000000" stroke-width="2" d="M535.5,-461.5C600.37,-461.51 616.64,-459.51 682,-459.5"/>
<path fill="none" stroke="#000000" stroke-width="2" d="M535.5,-463.5C600.62,-463.5 616.88,-461.5 682,-461.5"/>
<path fill="none" stroke="#000000" stroke-width="2" d="M535.5,-465.5C600.86,-465.49 617.13,-463.49 682,-463.5"/>
</g>
<!-- W2&#45;&#45;X3 -->
<g id="edge12" class="edge">
<title>W2:e&#45;&#45;X3:w</title>
<path fill="none" stroke="#000000" stroke-width="2" d="M535.5,-436.5C600.49,-436.5 616.76,-435.5 682,-435.5"/>
<path fill="none" stroke="#ff0000" stroke-width="2" d="M535.5,-438.5C600.61,-438.5 616.89,-437.5 682,-437.5"/>
<path fill="none" stroke="#000000" stroke-width="2" d="M535.5,-440.5C600.74,-440.5 617.01,-439.5 682,-439.5"/>
</g>
<!-- W2&#45;&#45;X3 -->
<g id="edge14" class="edge">
<title>W2:e&#45;&#45;X3:w</title>
<path fill="none" stroke="#000000" stroke-width="2" d="M535.5,-411.5C600.74,-411.5 617.01,-412.5 682,-412.5"/>
<path fill="none" stroke="#ffff00" stroke-width="2" d="M535.5,-413.5C600.61,-413.5 616.89,-414.5 682,-414.5"/>
<path fill="none" stroke="#000000" stroke-width="2" d="M535.5,-415.5C600.49,-415.5 616.76,-416.5 682,-416.5"/>
</g>
<!-- W2&#45;&#45;X3 -->
<g id="edge16" class="edge">
<title>W2:e&#45;&#45;X3:w</title>
<path fill="none" stroke="#000000" stroke-width="2" d="M535.5,-386.5C600.99,-386.53 617.24,-389.53 682,-389.5"/>
<path fill="none" stroke="#00ff00" stroke-width="2" d="M535.5,-388.5C600.62,-388.5 616.88,-391.5 682,-391.5"/>
<path fill="none" stroke="#000000" stroke-width="2" d="M535.5,-390.5C600.26,-390.47 616.51,-393.47 682,-393.5"/>
</g>
<!-- W3&#45;&#45;X4 -->
<g id="edge18" class="edge">
<title>W3:e&#45;&#45;X4:w</title>
<path fill="none" stroke="#000000" stroke-width="2" d="M538,-253.5C603.12,-253.76 618.87,-262.76 682,-262.5"/>
<path fill="none" stroke="#000000" stroke-width="2" d="M538,-255.5C602.12,-255.5 617.88,-264.5 682,-264.5"/>
<path fill="none" stroke="#000000" stroke-width="2" d="M538,-257.5C601.13,-257.24 616.88,-266.24 682,-266.5"/>
</g>
<!-- W3&#45;&#45;X4 -->
<g id="edge20" class="edge">
<title>W3:e&#45;&#45;X4:w</title>
<path fill="none" stroke="#000000" stroke-width="2" d="M538,-228.5C600.97,-228.97 616.45,-215.97 682,-215.5"/>
<path fill="none" stroke="#0066ff" stroke-width="2" d="M538,-230.5C602.26,-230.5 617.74,-217.5 682,-217.5"/>
<path fill="none" stroke="#000000" stroke-width="2" d="M538,-232.5C603.55,-232.03 619.03,-219.03 682,-219.5"/>
</g>
<!-- W3&#45;&#45;X4 -->
<g id="edge22" class="edge">
<title>W3:e&#45;&#45;X4:w</title>
<path fill="none" stroke="#000000" stroke-width="2" d="M538,-203.5C601.04,-203.86 616.66,-192.86 682,-192.5"/>
<path fill="none" stroke="#ff8000" stroke-width="2" d="M538,-205.5C602.19,-205.5 617.81,-194.5 682,-194.5"/>
<path fill="none" stroke="#000000" stroke-width="2" d="M538,-207.5C603.34,-207.14 618.96,-196.14 682,-196.5"/>
</g>
<!-- W3&#45;&#45;X4 -->
<g id="edge24" class="edge">
<title>W3:e&#45;&#45;X4:w</title>
<path fill="none" stroke="#000000" stroke-width="2" d="M538,-178.5C601.13,-178.76 616.88,-169.76 682,-169.5"/>
<path fill="none" stroke="#8000ff" stroke-width="2" d="M538,-180.5C602.12,-180.5 617.88,-171.5 682,-171.5"/>
<path fill="none" stroke="#000000" stroke-width="2" d="M538,-182.5C603.12,-182.24 618.87,-173.24 682,-173.5"/>
</g>
<!-- W4&#45;&#45;X4 -->
<g id="edge26" class="edge">
<title>W4:e&#45;&#45;X4:w</title>
<path fill="none" stroke="#000000" stroke-width="2" d="M535.5,-45.5C653.72,-48.24 567.49,-265.24 682,-262.5"/>
<path fill="none" stroke="#000000" stroke-width="2" d="M535.5,-47.5C651.87,-47.5 565.63,-264.5 682,-264.5"/>
<path fill="none" stroke="#000000" stroke-width="2" d="M535.5,-49.5C650.01,-46.76 563.78,-263.76 682,-266.5"/>
</g>
<!-- W4&#45;&#45;X4 -->
<g id="edge28" class="edge">
<title>W4:e&#45;&#45;X4:w</title>
<path fill="none" stroke="#000000" stroke-width="2" d="M535.5,-20.5C654.09,-23.24 567.12,-241.24 682,-238.5"/>
<path fill="none" stroke="#ff0000" stroke-width="2" d="M535.5,-22.5C652.23,-22.5 565.27,-240.5 682,-240.5"/>
<path fill="none" stroke="#000000" stroke-width="2" d="M535.5,-24.5C650.38,-21.76 563.41,-239.76 682,-242.5"/>
</g>
</g>
</svg>
