<?xml version="1.0" encoding="UTF-8" standalone="no"?>
<!DOCTYPE svg PUBLIC "-//W3C//DTD SVG 1.1//EN"
 "http://www.w3.org/Graphics/SVG/1.1/DTD/svg11.dtd">
<!-- Generated by graphviz version 10.0.1 (20240210.2158)
 -->
<!-- Pages: 1 -->
<svg width="865pt" height="775pt"
 viewBox="0.00 0.00 865.25 774.62" xmlns="http://www.w3.org/2000/svg" xmlns:xlink="http://www.w3.org/1999/xlink">
<g id="graph0" class="graph" transform="scale(1 1) rotate(0) translate(4 770.62)">
<polygon fill="#ffffff" stroke="none" points="-4,4 -4,-770.62 861.25,-770.62 861.25,4 -4,4"/>
<!-- X1 -->
<g id="node1" class="node">
<title>X1</title>
<polygon fill="#ffffff" stroke="black" points="183.62,-523.62 3.62,-523.62 3.62,-292.12 183.62,-292.12 183.62,-523.62"/>
<polygon fill="none" stroke="black" points="3.62,-499.88 3.62,-523.62 183.62,-523.62 183.62,-499.88 3.62,-499.88"/>
<text text-anchor="start" x="85.38" y="-506.32" font-family="arial" font-size="14.00">X1</text>
<polygon fill="none" stroke="black" points="3.62,-476.12 3.62,-499.88 96.38,-499.88 96.38,-476.12 3.62,-476.12"/>
<text text-anchor="start" x="7.62" y="-482.57" font-family="arial" font-size="14.00">Molex KK 254</text>
<polygon fill="none" stroke="black" points="96.38,-476.12 96.38,-499.88 145.62,-499.88 145.62,-476.12 96.38,-476.12"/>
<text text-anchor="start" x="100.38" y="-482.57" font-family="arial" font-size="14.00">female</text>
<polygon fill="none" stroke="black" points="145.62,-476.12 145.62,-499.88 183.62,-499.88 183.62,-476.12 145.62,-476.12"/>
<text text-anchor="start" x="149.62" y="-482.57" font-family="arial" font-size="14.00">8&#45;pin</text>
<polygon fill="none" stroke="black" points="3.62,-453.12 3.62,-476.12 108.12,-476.12 108.12,-453.12 3.62,-453.12"/>
<text text-anchor="start" x="40.5" y="-458.82" font-family="arial" font-size="14.00">GND</text>
<polygon fill="none" stroke="black" points="108.12,-453.12 108.12,-476.12 183.62,-476.12 183.62,-453.12 108.12,-453.12"/>
<text text-anchor="start" x="142.12" y="-458.82" font-family="arial" font-size="14.00">1</text>
<polygon fill="none" stroke="black" points="3.62,-430.12 3.62,-453.12 108.12,-453.12 108.12,-430.12 3.62,-430.12"/>
<text text-anchor="start" x="43.5" y="-435.82" font-family="arial" font-size="14.00">+5V</text>
<polygon fill="none" stroke="black" points="108.12,-430.12 108.12,-453.12 183.62,-453.12 183.62,-430.12 108.12,-430.12"/>
<text text-anchor="start" x="142.12" y="-435.82" font-family="arial" font-size="14.00">2</text>
<polygon fill="none" stroke="black" points="3.62,-407.12 3.62,-430.12 108.12,-430.12 108.12,-407.12 3.62,-407.12"/>
<text text-anchor="start" x="42.75" y="-412.82" font-family="arial" font-size="14.00">SCL</text>
<polygon fill="none" stroke="black" points="108.12,-407.12 108.12,-430.12 183.62,-430.12 183.62,-407.12 108.12,-407.12"/>
<text text-anchor="start" x="142.12" y="-412.82" font-family="arial" font-size="14.00">3</text>
<polygon fill="none" stroke="black" points="3.62,-384.12 3.62,-407.12 108.12,-407.12 108.12,-384.12 3.62,-384.12"/>
<text text-anchor="start" x="42" y="-389.82" font-family="arial" font-size="14.00">SDA</text>
<polygon fill="none" stroke="black" points="108.12,-384.12 108.12,-407.12 183.62,-407.12 183.62,-384.12 108.12,-384.12"/>
<text text-anchor="start" x="142.12" y="-389.82" font-family="arial" font-size="14.00">4</text>
<polygon fill="none" stroke="black" points="3.62,-361.12 3.62,-384.12 108.12,-384.12 108.12,-361.12 3.62,-361.12"/>
<text text-anchor="start" x="37.88" y="-366.82" font-family="arial" font-size="14.00">MISO</text>
<polygon fill="none" stroke="black" points="108.12,-361.12 108.12,-384.12 183.62,-384.12 183.62,-361.12 108.12,-361.12"/>
<text text-anchor="start" x="142.12" y="-366.82" font-family="arial" font-size="14.00">5</text>
<polygon fill="none" stroke="black" points="3.62,-338.12 3.62,-361.12 108.12,-361.12 108.12,-338.12 3.62,-338.12"/>
<text text-anchor="start" x="37.88" y="-343.82" font-family="arial" font-size="14.00">MOSI</text>
<polygon fill="none" stroke="black" points="108.12,-338.12 108.12,-361.12 183.62,-361.12 183.62,-338.12 108.12,-338.12"/>
<text text-anchor="start" x="142.12" y="-343.82" font-family="arial" font-size="14.00">6</text>
<polygon fill="none" stroke="black" points="3.62,-315.12 3.62,-338.12 108.12,-338.12 108.12,-315.12 3.62,-315.12"/>
<text text-anchor="start" x="42" y="-320.82" font-family="arial" font-size="14.00">SCK</text>
<polygon fill="none" stroke="black" points="108.12,-315.12 108.12,-338.12 183.62,-338.12 183.62,-315.12 108.12,-315.12"/>
<text text-anchor="start" x="142.12" y="-320.82" font-family="arial" font-size="14.00">7</text>
<polygon fill="none" stroke="black" points="3.62,-292.12 3.62,-315.12 108.12,-315.12 108.12,-292.12 3.62,-292.12"/>
<text text-anchor="start" x="44.25" y="-297.82" font-family="arial" font-size="14.00">N/C</text>
<polygon fill="none" stroke="black" points="108.12,-292.12 108.12,-315.12 183.62,-315.12 183.62,-292.12 108.12,-292.12"/>
<text text-anchor="start" x="142.12" y="-297.82" font-family="arial" font-size="14.00">8</text>
</g>
<!-- W1 -->
<g id="node7" class="node">
<title>W1</title>
<polygon fill="#ffffff" stroke="black" stroke-dasharray="5,2" points="530.12,-766.62 334.38,-766.62 334.38,-581.12 530.12,-581.12 530.12,-766.62"/>
<polygon fill="none" stroke="black" points="334.38,-742.88 334.38,-766.62 530.12,-766.62 530.12,-742.88 334.38,-742.88"/>
<text text-anchor="start" x="421.75" y="-749.33" font-family="arial" font-size="14.00">W1</text>
<polygon fill="none" stroke="black" points="334.38,-719.12 334.38,-742.88 356.62,-742.88 356.62,-719.12 334.38,-719.12"/>
<text text-anchor="start" x="338.38" y="-725.58" font-family="arial" font-size="14.00">4x</text>
<polygon fill="none" stroke="black" points="356.62,-719.12 356.62,-742.88 487.62,-742.88 487.62,-719.12 356.62,-719.12"/>
<text text-anchor="start" x="360.62" y="-725.58" font-family="arial" font-size="14.00">0.14 mm² (26 AWG)</text>
<polygon fill="none" stroke="black" points="487.62,-719.12 487.62,-742.88 530.12,-742.88 530.12,-719.12 487.62,-719.12"/>
<text text-anchor="start" x="491.62" y="-725.58" font-family="arial" font-size="14.00">0.2 m</text>
<text text-anchor="start" x="366.46" y="-703.83" font-family="arial" font-size="14.00"> </text>
<text text-anchor="start" x="337.21" y="-684.83" font-family="arial" font-size="14.00">X1:1:GND</text>
<text text-anchor="start" x="406.38" y="-684.83" font-family="arial" font-size="14.00"> &#160;&#160;&#160;&#160;BK &#160;&#160;&#160;</text>
<text text-anchor="start" x="465.04" y="-684.83" font-family="arial" font-size="14.00">X2:1:GND</text>
<polygon fill="#000000" stroke="none" points="334.38,-679.12 334.38,-681.12 530.12,-681.12 530.12,-679.12 334.38,-679.12"/>
<polygon fill="#000000" stroke="none" points="334.38,-677.12 334.38,-679.12 530.12,-679.12 530.12,-677.12 334.38,-677.12"/>
<polygon fill="#000000" stroke="none" points="334.38,-675.12 334.38,-677.12 530.12,-677.12 530.12,-675.12 334.38,-675.12"/>
<text text-anchor="start" x="340.21" y="-659.83" font-family="arial" font-size="14.00">X1:2:+5V</text>
<text text-anchor="start" x="405.62" y="-659.83" font-family="arial" font-size="14.00"> &#160;&#160;&#160;&#160;RD &#160;&#160;&#160;</text>
<text text-anchor="start" x="468.04" y="-659.83" font-family="arial" font-size="14.00">X2:2:+5V</text>
<polygon fill="#000000" stroke="none" points="334.38,-654.12 334.38,-656.12 530.12,-656.12 530.12,-654.12 334.38,-654.12"/>
<polygon fill="#ff0000" stroke="none" points="334.38,-652.12 334.38,-654.12 530.12,-654.12 530.12,-652.12 334.38,-652.12"/>
<polygon fill="#000000" stroke="none" points="334.38,-650.12 334.38,-652.12 530.12,-652.12 530.12,-650.12 334.38,-650.12"/>
<text text-anchor="start" x="339.46" y="-634.83" font-family="arial" font-size="14.00">X1:3:SCL</text>
<text text-anchor="start" x="406.38" y="-634.83" font-family="arial" font-size="14.00"> &#160;&#160;&#160;&#160;YE &#160;&#160;&#160;</text>
<text text-anchor="start" x="467.29" y="-634.83" font-family="arial" font-size="14.00">X2:3:SCL</text>
<polygon fill="#000000" stroke="none" points="334.38,-629.12 334.38,-631.12 530.12,-631.12 530.12,-629.12 334.38,-629.12"/>
<polygon fill="#ffff00" stroke="none" points="334.38,-627.12 334.38,-629.12 530.12,-629.12 530.12,-627.12 334.38,-627.12"/>
<polygon fill="#000000" stroke="none" points="334.38,-625.12 334.38,-627.12 530.12,-627.12 530.12,-625.12 334.38,-625.12"/>
<text text-anchor="start" x="338.71" y="-609.83" font-family="arial" font-size="14.00">X1:4:SDA</text>
<text text-anchor="start" x="404.88" y="-609.83" font-family="arial" font-size="14.00"> &#160;&#160;&#160;&#160;GN &#160;&#160;&#160;</text>
<text text-anchor="start" x="466.54" y="-609.83" font-family="arial" font-size="14.00">X2:4:SDA</text>
<polygon fill="#000000" stroke="none" points="334.38,-604.12 334.38,-606.12 530.12,-606.12 530.12,-604.12 334.38,-604.12"/>
<polygon fill="#00ff00" stroke="none" points="334.38,-602.12 334.38,-604.12 530.12,-604.12 530.12,-602.12 334.38,-602.12"/>
<polygon fill="#000000" stroke="none" points="334.38,-600.12 334.38,-602.12 530.12,-602.12 530.12,-600.12 334.38,-600.12"/>
<text text-anchor="start" x="366.46" y="-584.83" font-family="arial" font-size="14.00"> </text>
</g>
<!-- X1&#45;&#45;W1 -->
<g id="edge1" class="edge">
<title>X1:e&#45;&#45;W1:w</title>
<path fill="none" stroke="#000000" stroke-width="2" d="M184.62,-462.88C301.93,-465.6 219.68,-678.6 333.25,-675.88"/>
<path fill="none" stroke="#000000" stroke-width="2" d="M184.62,-464.88C300.06,-464.88 217.82,-677.88 333.25,-677.88"/>
<path fill="none" stroke="#000000" stroke-width="2" d="M184.62,-466.87C298.19,-464.15 215.95,-677.15 333.25,-679.87"/>
</g>
<!-- X1&#45;&#45;W1 -->
<g id="edge3" class="edge">
<title>X1:e&#45;&#45;W1:w</title>
<path fill="none" stroke="#000000" stroke-width="2" d="M184.62,-439.88C301.2,-442.59 220.41,-653.59 333.25,-650.88"/>
<path fill="none" stroke="#ff0000" stroke-width="2" d="M184.62,-441.87C299.33,-441.87 218.54,-652.88 333.25,-652.88"/>
<path fill="none" stroke="#000000" stroke-width="2" d="M184.62,-443.87C297.46,-441.16 216.68,-652.16 333.25,-654.87"/>
</g>
<!-- X1&#45;&#45;W1 -->
<g id="edge5" class="edge">
<title>X1:e&#45;&#45;W1:w</title>
<path fill="none" stroke="#000000" stroke-width="2" d="M184.62,-416.88C300.48,-419.58 221.14,-628.58 333.25,-625.88"/>
<path fill="none" stroke="#ffff00" stroke-width="2" d="M184.62,-418.88C298.61,-418.88 219.27,-627.88 333.25,-627.87"/>
<path fill="none" stroke="#000000" stroke-width="2" d="M184.62,-420.87C296.74,-418.17 217.4,-627.17 333.25,-629.87"/>
</g>
<!-- X1&#45;&#45;W1 -->
<g id="edge7" class="edge">
<title>X1:e&#45;&#45;W1:w</title>
<path fill="none" stroke="#000000" stroke-width="2" d="M184.62,-393.88C299.75,-396.58 221.86,-603.58 333.25,-600.88"/>
<path fill="none" stroke="#00ff00" stroke-width="2" d="M184.62,-395.88C297.88,-395.87 219.99,-602.88 333.25,-602.88"/>
<path fill="none" stroke="#000000" stroke-width="2" d="M184.62,-397.87C296.01,-395.17 218.12,-602.17 333.25,-604.87"/>
</g>
<!-- W2 -->
<g id="node8" class="node">
<title>W2</title>
<polygon fill="#ffffff" stroke="black" stroke-dasharray="5,2" points="530.12,-556.62 334.38,-556.62 334.38,-371.12 530.12,-371.12 530.12,-556.62"/>
<polygon fill="none" stroke="black" points="334.38,-532.88 334.38,-556.62 530.12,-556.62 530.12,-532.88 334.38,-532.88"/>
<text text-anchor="start" x="421.75" y="-539.33" font-family="arial" font-size="14.00">W2</text>
<polygon fill="none" stroke="black" points="334.38,-509.12 334.38,-532.88 356.62,-532.88 356.62,-509.12 334.38,-509.12"/>
<text text-anchor="start" x="338.38" y="-515.58" font-family="arial" font-size="14.00">4x</text>
<polygon fill="none" stroke="black" points="356.62,-509.12 356.62,-532.88 487.62,-532.88 487.62,-509.12 356.62,-509.12"/>
<text text-anchor="start" x="360.62" y="-515.58" font-family="arial" font-size="14.00">0.14 mm² (26 AWG)</text>
<polygon fill="none" stroke="black" points="487.62,-509.12 487.62,-532.88 530.12,-532.88 530.12,-509.12 487.62,-509.12"/>
<text text-anchor="start" x="491.62" y="-515.58" font-family="arial" font-size="14.00">0.4 m</text>
<text text-anchor="start" x="366.46" y="-493.82" font-family="arial" font-size="14.00"> </text>
<text text-anchor="start" x="337.21" y="-474.82" font-family="arial" font-size="14.00">X1:1:GND</text>
<text text-anchor="start" x="406.38" y="-474.82" font-family="arial" font-size="14.00"> &#160;&#160;&#160;&#160;BK &#160;&#160;&#160;</text>
<text text-anchor="start" x="465.04" y="-474.82" font-family="arial" font-size="14.00">X3:1:GND</text>
<polygon fill="#000000" stroke="none" points="334.38,-469.12 334.38,-471.12 530.12,-471.12 530.12,-469.12 334.38,-469.12"/>
<polygon fill="#000000" stroke="none" points="334.38,-467.12 334.38,-469.12 530.12,-469.12 530.12,-467.12 334.38,-467.12"/>
<polygon fill="#000000" stroke="none" points="334.38,-465.12 334.38,-467.12 530.12,-467.12 530.12,-465.12 334.38,-465.12"/>
<text text-anchor="start" x="340.21" y="-449.82" font-family="arial" font-size="14.00">X1:2:+5V</text>
<text text-anchor="start" x="405.62" y="-449.82" font-family="arial" font-size="14.00"> &#160;&#160;&#160;&#160;RD &#160;&#160;&#160;</text>
<text text-anchor="start" x="468.04" y="-449.82" font-family="arial" font-size="14.00">X3:2:+5V</text>
<polygon fill="#000000" stroke="none" points="334.38,-444.12 334.38,-446.12 530.12,-446.12 530.12,-444.12 334.38,-444.12"/>
<polygon fill="#ff0000" stroke="none" points="334.38,-442.12 334.38,-444.12 530.12,-444.12 530.12,-442.12 334.38,-442.12"/>
<polygon fill="#000000" stroke="none" points="334.38,-440.12 334.38,-442.12 530.12,-442.12 530.12,-440.12 334.38,-440.12"/>
<text text-anchor="start" x="339.46" y="-424.82" font-family="arial" font-size="14.00">X1:3:SCL</text>
<text text-anchor="start" x="406.38" y="-424.82" font-family="arial" font-size="14.00"> &#160;&#160;&#160;&#160;YE &#160;&#160;&#160;</text>
<text text-anchor="start" x="467.29" y="-424.82" font-family="arial" font-size="14.00">X3:3:SCL</text>
<polygon fill="#000000" stroke="none" points="334.38,-419.12 334.38,-421.12 530.12,-421.12 530.12,-419.12 334.38,-419.12"/>
<polygon fill="#ffff00" stroke="none" points="334.38,-417.12 334.38,-419.12 530.12,-419.12 530.12,-417.12 334.38,-417.12"/>
<polygon fill="#000000" stroke="none" points="334.38,-415.12 334.38,-417.12 530.12,-417.12 530.12,-415.12 334.38,-415.12"/>
<text text-anchor="start" x="338.71" y="-399.82" font-family="arial" font-size="14.00">X1:4:SDA</text>
<text text-anchor="start" x="404.88" y="-399.82" font-family="arial" font-size="14.00"> &#160;&#160;&#160;&#160;GN &#160;&#160;&#160;</text>
<text text-anchor="start" x="466.54" y="-399.82" font-family="arial" font-size="14.00">X3:4:SDA</text>
<polygon fill="#000000" stroke="none" points="334.38,-394.12 334.38,-396.12 530.12,-396.12 530.12,-394.12 334.38,-394.12"/>
<polygon fill="#00ff00" stroke="none" points="334.38,-392.12 334.38,-394.12 530.12,-394.12 530.12,-392.12 334.38,-392.12"/>
<polygon fill="#000000" stroke="none" points="334.38,-390.12 334.38,-392.12 530.12,-392.12 530.12,-390.12 334.38,-390.12"/>
<text text-anchor="start" x="366.46" y="-374.82" font-family="arial" font-size="14.00"> </text>
</g>
<!-- X1&#45;&#45;W2 -->
<g id="edge9" class="edge">
<title>X1:e&#45;&#45;W2:w</title>
<path fill="none" stroke="#000000" stroke-width="2" d="M184.62,-462.88C251.05,-462.91 267.54,-465.91 333.25,-465.88"/>
<path fill="none" stroke="#000000" stroke-width="2" d="M184.62,-464.88C250.69,-464.88 267.18,-467.88 333.25,-467.88"/>
<path fill="none" stroke="#000000" stroke-width="2" d="M184.62,-466.87C250.34,-466.84 266.82,-469.84 333.25,-469.87"/>
</g>
<!-- X1&#45;&#45;W2 -->
<g id="edge11" class="edge">
<title>X1:e&#45;&#45;W2:w</title>
<path fill="none" stroke="#000000" stroke-width="2" d="M184.62,-439.88C250.8,-439.88 267.31,-440.88 333.25,-440.88"/>
<path fill="none" stroke="#ff0000" stroke-width="2" d="M184.62,-441.87C250.68,-441.88 267.19,-442.88 333.25,-442.87"/>
<path fill="none" stroke="#000000" stroke-width="2" d="M184.62,-443.87C250.56,-443.87 267.07,-444.87 333.25,-444.87"/>
</g>
<!-- X1&#45;&#45;W2 -->
<g id="edge13" class="edge">
<title>X1:e&#45;&#45;W2:w</title>
<path fill="none" stroke="#000000" stroke-width="2" d="M184.62,-416.88C250.56,-416.88 267.07,-415.88 333.25,-415.88"/>
<path fill="none" stroke="#ffff00" stroke-width="2" d="M184.62,-418.87C250.68,-418.88 267.19,-417.88 333.25,-417.87"/>
<path fill="none" stroke="#000000" stroke-width="2" d="M184.62,-420.87C250.8,-420.87 267.31,-419.87 333.25,-419.87"/>
</g>
<!-- X1&#45;&#45;W2 -->
<g id="edge15" class="edge">
<title>X1:e&#45;&#45;W2:w</title>
<path fill="none" stroke="#000000" stroke-width="2" d="M184.62,-393.88C250.34,-393.91 266.82,-390.91 333.25,-390.88"/>
<path fill="none" stroke="#00ff00" stroke-width="2" d="M184.62,-395.88C250.69,-395.88 267.18,-392.88 333.25,-392.88"/>
<path fill="none" stroke="#000000" stroke-width="2" d="M184.62,-397.87C251.05,-397.84 267.54,-394.84 333.25,-394.87"/>
</g>
<!-- W3 -->
<g id="node9" class="node">
<title>W3</title>
<polygon fill="#ffffff" stroke="black" stroke-dasharray="5,2" points="533.25,-346.62 331.25,-346.62 331.25,-161.12 533.25,-161.12 533.25,-346.62"/>
<polygon fill="none" stroke="black" points="331.25,-322.88 331.25,-346.62 533.25,-346.62 533.25,-322.88 331.25,-322.88"/>
<text text-anchor="start" x="421.75" y="-329.32" font-family="arial" font-size="14.00">W3</text>
<polygon fill="none" stroke="black" points="331.25,-299.12 331.25,-322.88 355.58,-322.88 355.58,-299.12 331.25,-299.12"/>
<text text-anchor="start" x="336.29" y="-305.57" font-family="arial" font-size="14.00">4x</text>
<polygon fill="none" stroke="black" points="355.58,-299.12 355.58,-322.88 488.67,-322.88 488.67,-299.12 355.58,-299.12"/>
<text text-anchor="start" x="360.62" y="-305.57" font-family="arial" font-size="14.00">0.14 mm² (26 AWG)</text>
<polygon fill="none" stroke="black" points="488.67,-299.12 488.67,-322.88 533.25,-322.88 533.25,-299.12 488.67,-299.12"/>
<text text-anchor="start" x="493.71" y="-305.57" font-family="arial" font-size="14.00">0.3 m</text>
<text text-anchor="start" x="364.88" y="-283.82" font-family="arial" font-size="14.00"> </text>
<text text-anchor="start" x="335.62" y="-264.82" font-family="arial" font-size="14.00">X1:1:GND</text>
<text text-anchor="start" x="406.38" y="-264.82" font-family="arial" font-size="14.00"> &#160;&#160;&#160;&#160;BK &#160;&#160;&#160;</text>
<text text-anchor="start" x="466.62" y="-264.82" font-family="arial" font-size="14.00">X4:1:GND</text>
<polygon fill="#000000" stroke="none" points="331.25,-259.12 331.25,-261.12 533.25,-261.12 533.25,-259.12 331.25,-259.12"/>
<polygon fill="#000000" stroke="none" points="331.25,-257.12 331.25,-259.12 533.25,-259.12 533.25,-257.12 331.25,-257.12"/>
<polygon fill="#000000" stroke="none" points="331.25,-255.12 331.25,-257.12 533.25,-257.12 533.25,-255.12 331.25,-255.12"/>
<text text-anchor="start" x="333" y="-239.82" font-family="arial" font-size="14.00">X1:5:MISO</text>
<text text-anchor="start" x="406" y="-239.82" font-family="arial" font-size="14.00"> &#160;&#160;&#160;&#160;BU &#160;&#160;&#160;</text>
<text text-anchor="start" x="464" y="-239.82" font-family="arial" font-size="14.00">X4:3:MISO</text>
<polygon fill="#000000" stroke="none" points="331.25,-234.12 331.25,-236.12 533.25,-236.12 533.25,-234.12 331.25,-234.12"/>
<polygon fill="#0066ff" stroke="none" points="331.25,-232.12 331.25,-234.12 533.25,-234.12 533.25,-232.12 331.25,-232.12"/>
<polygon fill="#000000" stroke="none" points="331.25,-230.12 331.25,-232.12 533.25,-232.12 533.25,-230.12 331.25,-230.12"/>
<text text-anchor="start" x="333" y="-214.82" font-family="arial" font-size="14.00">X1:6:MOSI</text>
<text text-anchor="start" x="404.12" y="-214.82" font-family="arial" font-size="14.00"> &#160;&#160;&#160;&#160;OG &#160;&#160;&#160;</text>
<text text-anchor="start" x="464" y="-214.82" font-family="arial" font-size="14.00">X4:4:MOSI</text>
<polygon fill="#000000" stroke="none" points="331.25,-209.12 331.25,-211.12 533.25,-211.12 533.25,-209.12 331.25,-209.12"/>
<polygon fill="#ff8000" stroke="none" points="331.25,-207.12 331.25,-209.12 533.25,-209.12 533.25,-207.12 331.25,-207.12"/>
<polygon fill="#000000" stroke="none" points="331.25,-205.12 331.25,-207.12 533.25,-207.12 533.25,-205.12 331.25,-205.12"/>
<text text-anchor="start" x="337.12" y="-189.82" font-family="arial" font-size="14.00">X1:7:SCK</text>
<text text-anchor="start" x="406.75" y="-189.82" font-family="arial" font-size="14.00"> &#160;&#160;&#160;&#160;VT &#160;&#160;&#160;</text>
<text text-anchor="start" x="468.12" y="-189.82" font-family="arial" font-size="14.00">X4:5:SCK</text>
<polygon fill="#000000" stroke="none" points="331.25,-184.12 331.25,-186.12 533.25,-186.12 533.25,-184.12 331.25,-184.12"/>
<polygon fill="#8000ff" stroke="none" points="331.25,-182.12 331.25,-184.12 533.25,-184.12 533.25,-182.12 331.25,-182.12"/>
<polygon fill="#000000" stroke="none" points="331.25,-180.12 331.25,-182.12 533.25,-182.12 533.25,-180.12 331.25,-180.12"/>
<text text-anchor="start" x="364.88" y="-164.82" font-family="arial" font-size="14.00"> </text>
</g>
<!-- X1&#45;&#45;W3 -->
<g id="edge17" class="edge">
<title>X1:e&#45;&#45;W3:w</title>
<path fill="none" stroke="#000000" stroke-width="2" d="M184.62,-462.88C295.5,-465.59 216.64,-258.59 331.25,-255.88"/>
<path fill="none" stroke="#000000" stroke-width="2" d="M184.62,-464.87C297.37,-464.88 218.51,-257.88 331.25,-257.88"/>
<path fill="none" stroke="#000000" stroke-width="2" d="M184.62,-466.87C299.24,-464.16 220.38,-257.16 331.25,-259.87"/>
</g>
<!-- X1&#45;&#45;W3 -->
<g id="edge19" class="edge">
<title>X1:e&#45;&#45;W3:w</title>
<path fill="none" stroke="#000000" stroke-width="2" d="M184.62,-370.88C272.78,-373.34 239.2,-233.34 331.25,-230.88"/>
<path fill="none" stroke="#0066ff" stroke-width="2" d="M184.62,-372.88C274.73,-372.87 241.15,-232.88 331.25,-232.88"/>
<path fill="none" stroke="#000000" stroke-width="2" d="M184.62,-374.87C276.67,-372.41 243.09,-232.41 331.25,-234.87"/>
</g>
<!-- X1&#45;&#45;W3 -->
<g id="edge21" class="edge">
<title>X1:e&#45;&#45;W3:w</title>
<path fill="none" stroke="#000000" stroke-width="2" d="M184.62,-347.88C273.4,-350.35 238.59,-208.35 331.25,-205.88"/>
<path fill="none" stroke="#ff8000" stroke-width="2" d="M184.62,-349.88C275.34,-349.87 240.53,-207.88 331.25,-207.88"/>
<path fill="none" stroke="#000000" stroke-width="2" d="M184.62,-351.87C277.29,-349.4 242.47,-207.4 331.25,-209.87"/>
</g>
<!-- X1&#45;&#45;W3 -->
<g id="edge23" class="edge">
<title>X1:e&#45;&#45;W3:w</title>
<path fill="none" stroke="#000000" stroke-width="2" d="M184.62,-324.88C274.02,-327.36 237.97,-183.36 331.25,-180.88"/>
<path fill="none" stroke="#8000ff" stroke-width="2" d="M184.62,-326.88C275.96,-326.87 239.91,-182.88 331.25,-182.87"/>
<path fill="none" stroke="#000000" stroke-width="2" d="M184.62,-328.87C277.9,-326.39 241.85,-182.39 331.25,-184.87"/>
</g>
<!-- X2 -->
<g id="node2" class="node">
<title>X2</title>
<polygon fill="#ffffff" stroke="black" points="857.25,-733.62 677.25,-733.62 677.25,-594.12 857.25,-594.12 857.25,-733.62"/>
<polygon fill="none" stroke="black" points="677.25,-709.88 677.25,-733.62 857.25,-733.62 857.25,-709.88 677.25,-709.88"/>
<text text-anchor="start" x="759" y="-716.33" font-family="arial" font-size="14.00">X2</text>
<polygon fill="none" stroke="black" points="677.25,-686.12 677.25,-709.88 770,-709.88 770,-686.12 677.25,-686.12"/>
<text text-anchor="start" x="681.25" y="-692.58" font-family="arial" font-size="14.00">Molex KK 254</text>
<polygon fill="none" stroke="black" points="770,-686.12 770,-709.88 819.25,-709.88 819.25,-686.12 770,-686.12"/>
<text text-anchor="start" x="774" y="-692.58" font-family="arial" font-size="14.00">female</text>
<polygon fill="none" stroke="black" points="819.25,-686.12 819.25,-709.88 857.25,-709.88 857.25,-686.12 819.25,-686.12"/>
<text text-anchor="start" x="823.25" y="-692.58" font-family="arial" font-size="14.00">4&#45;pin</text>
<polygon fill="none" stroke="black" points="677.25,-663.12 677.25,-686.12 755.75,-686.12 755.75,-663.12 677.25,-663.12"/>
<text text-anchor="start" x="712.75" y="-668.83" font-family="arial" font-size="14.00">1</text>
<polygon fill="none" stroke="black" points="755.75,-663.12 755.75,-686.12 857.25,-686.12 857.25,-663.12 755.75,-663.12"/>
<text text-anchor="start" x="791.12" y="-668.83" font-family="arial" font-size="14.00">GND</text>
<polygon fill="none" stroke="black" points="677.25,-640.12 677.25,-663.12 755.75,-663.12 755.75,-640.12 677.25,-640.12"/>
<text text-anchor="start" x="712.75" y="-645.83" font-family="arial" font-size="14.00">2</text>
<polygon fill="none" stroke="black" points="755.75,-640.12 755.75,-663.12 857.25,-663.12 857.25,-640.12 755.75,-640.12"/>
<text text-anchor="start" x="794.12" y="-645.83" font-family="arial" font-size="14.00">+5V</text>
<polygon fill="none" stroke="black" points="677.25,-617.12 677.25,-640.12 755.75,-640.12 755.75,-617.12 677.25,-617.12"/>
<text text-anchor="start" x="712.75" y="-622.83" font-family="arial" font-size="14.00">3</text>
<polygon fill="none" stroke="black" points="755.75,-617.12 755.75,-640.12 857.25,-640.12 857.25,-617.12 755.75,-617.12"/>
<text text-anchor="start" x="793.38" y="-622.83" font-family="arial" font-size="14.00">SCL</text>
<polygon fill="none" stroke="black" points="677.25,-594.12 677.25,-617.12 755.75,-617.12 755.75,-594.12 677.25,-594.12"/>
<text text-anchor="start" x="712.75" y="-599.83" font-family="arial" font-size="14.00">4</text>
<polygon fill="none" stroke="black" points="755.75,-594.12 755.75,-617.12 857.25,-617.12 857.25,-594.12 755.75,-594.12"/>
<text text-anchor="start" x="792.62" y="-599.83" font-family="arial" font-size="14.00">SDA</text>
</g>
<!-- X3 -->
<g id="node3" class="node">
<title>X3</title>
<polygon fill="#ffffff" stroke="black" points="857.25,-523.62 677.25,-523.62 677.25,-384.12 857.25,-384.12 857.25,-523.62"/>
<polygon fill="none" stroke="black" points="677.25,-499.88 677.25,-523.62 857.25,-523.62 857.25,-499.88 677.25,-499.88"/>
<text text-anchor="start" x="759" y="-506.32" font-family="arial" font-size="14.00">X3</text>
<polygon fill="none" stroke="black" points="677.25,-476.12 677.25,-499.88 770,-499.88 770,-476.12 677.25,-476.12"/>
<text text-anchor="start" x="681.25" y="-482.57" font-family="arial" font-size="14.00">Molex KK 254</text>
<polygon fill="none" stroke="black" points="770,-476.12 770,-499.88 819.25,-499.88 819.25,-476.12 770,-476.12"/>
<text text-anchor="start" x="774" y="-482.57" font-family="arial" font-size="14.00">female</text>
<polygon fill="none" stroke="black" points="819.25,-476.12 819.25,-499.88 857.25,-499.88 857.25,-476.12 819.25,-476.12"/>
<text text-anchor="start" x="823.25" y="-482.57" font-family="arial" font-size="14.00">4&#45;pin</text>
<polygon fill="none" stroke="black" points="677.25,-453.12 677.25,-476.12 755.75,-476.12 755.75,-453.12 677.25,-453.12"/>
<text text-anchor="start" x="712.75" y="-458.82" font-family="arial" font-size="14.00">1</text>
<polygon fill="none" stroke="black" points="755.75,-453.12 755.75,-476.12 857.25,-476.12 857.25,-453.12 755.75,-453.12"/>
<text text-anchor="start" x="791.12" y="-458.82" font-family="arial" font-size="14.00">GND</text>
<polygon fill="none" stroke="black" points="677.25,-430.12 677.25,-453.12 755.75,-453.12 755.75,-430.12 677.25,-430.12"/>
<text text-anchor="start" x="712.75" y="-435.82" font-family="arial" font-size="14.00">2</text>
<polygon fill="none" stroke="black" points="755.75,-430.12 755.75,-453.12 857.25,-453.12 857.25,-430.12 755.75,-430.12"/>
<text text-anchor="start" x="794.12" y="-435.82" font-family="arial" font-size="14.00">+5V</text>
<polygon fill="none" stroke="black" points="677.25,-407.12 677.25,-430.12 755.75,-430.12 755.75,-407.12 677.25,-407.12"/>
<text text-anchor="start" x="712.75" y="-412.82" font-family="arial" font-size="14.00">3</text>
<polygon fill="none" stroke="black" points="755.75,-407.12 755.75,-430.12 857.25,-430.12 857.25,-407.12 755.75,-407.12"/>
<text text-anchor="start" x="793.38" y="-412.82" font-family="arial" font-size="14.00">SCL</text>
<polygon fill="none" stroke="black" points="677.25,-384.12 677.25,-407.12 755.75,-407.12 755.75,-384.12 677.25,-384.12"/>
<text text-anchor="start" x="712.75" y="-389.82" font-family="arial" font-size="14.00">4</text>
<polygon fill="none" stroke="black" points="755.75,-384.12 755.75,-407.12 857.25,-407.12 857.25,-384.12 755.75,-384.12"/>
<text text-anchor="start" x="792.62" y="-389.82" font-family="arial" font-size="14.00">SDA</text>
</g>
<!-- X4 -->
<g id="node4" class="node">
<title>X4</title>
<polygon fill="#ffffff" stroke="black" points="857.25,-325.12 677.25,-325.12 677.25,-162.62 857.25,-162.62 857.25,-325.12"/>
<polygon fill="none" stroke="black" points="677.25,-301.38 677.25,-325.12 857.25,-325.12 857.25,-301.38 677.25,-301.38"/>
<text text-anchor="start" x="759" y="-307.82" font-family="arial" font-size="14.00">X4</text>
<polygon fill="none" stroke="black" points="677.25,-277.62 677.25,-301.38 770,-301.38 770,-277.62 677.25,-277.62"/>
<text text-anchor="start" x="681.25" y="-284.07" font-family="arial" font-size="14.00">Molex KK 254</text>
<polygon fill="none" stroke="black" points="770,-277.62 770,-301.38 819.25,-301.38 819.25,-277.62 770,-277.62"/>
<text text-anchor="start" x="774" y="-284.07" font-family="arial" font-size="14.00">female</text>
<polygon fill="none" stroke="black" points="819.25,-277.62 819.25,-301.38 857.25,-301.38 857.25,-277.62 819.25,-277.62"/>
<text text-anchor="start" x="823.25" y="-284.07" font-family="arial" font-size="14.00">5&#45;pin</text>
<polygon fill="none" stroke="black" points="677.25,-254.62 677.25,-277.62 752.75,-277.62 752.75,-254.62 677.25,-254.62"/>
<text text-anchor="start" x="711.25" y="-260.32" font-family="arial" font-size="14.00">1</text>
<polygon fill="none" stroke="black" points="752.75,-254.62 752.75,-277.62 857.25,-277.62 857.25,-254.62 752.75,-254.62"/>
<text text-anchor="start" x="789.62" y="-260.32" font-family="arial" font-size="14.00">GND</text>
<polygon fill="none" stroke="black" points="677.25,-231.62 677.25,-254.62 752.75,-254.62 752.75,-231.62 677.25,-231.62"/>
<text text-anchor="start" x="711.25" y="-237.32" font-family="arial" font-size="14.00">2</text>
<polygon fill="none" stroke="black" points="752.75,-231.62 752.75,-254.62 857.25,-254.62 857.25,-231.62 752.75,-231.62"/>
<text text-anchor="start" x="788.88" y="-237.32" font-family="arial" font-size="14.00">+12V</text>
<polygon fill="none" stroke="black" points="677.25,-208.62 677.25,-231.62 752.75,-231.62 752.75,-208.62 677.25,-208.62"/>
<text text-anchor="start" x="711.25" y="-214.32" font-family="arial" font-size="14.00">3</text>
<polygon fill="none" stroke="black" points="752.75,-208.62 752.75,-231.62 857.25,-231.62 857.25,-208.62 752.75,-208.62"/>
<text text-anchor="start" x="787" y="-214.32" font-family="arial" font-size="14.00">MISO</text>
<polygon fill="none" stroke="black" points="677.25,-185.62 677.25,-208.62 752.75,-208.62 752.75,-185.62 677.25,-185.62"/>
<text text-anchor="start" x="711.25" y="-191.32" font-family="arial" font-size="14.00">4</text>
<polygon fill="none" stroke="black" points="752.75,-185.62 752.75,-208.62 857.25,-208.62 857.25,-185.62 752.75,-185.62"/>
<text text-anchor="start" x="787" y="-191.32" font-family="arial" font-size="14.00">MOSI</text>
<polygon fill="none" stroke="black" points="677.25,-162.62 677.25,-185.62 752.75,-185.62 752.75,-162.62 677.25,-162.62"/>
<text text-anchor="start" x="711.25" y="-168.32" font-family="arial" font-size="14.00">5</text>
<polygon fill="none" stroke="black" points="752.75,-162.62 752.75,-185.62 857.25,-185.62 857.25,-162.62 752.75,-162.62"/>
<text text-anchor="start" x="791.12" y="-168.32" font-family="arial" font-size="14.00">SCK</text>
</g>
<!-- __F_1 -->
<g id="node5" class="node">
<title>__F_1</title>
<polygon fill="#ffffff" stroke="black" points="187.25,-71.75 0,-71.75 0,-48 187.25,-48 187.25,-71.75"/>
<polygon fill="none" stroke="black" points="0,-48 0,-71.75 86.75,-71.75 86.75,-48 0,-48"/>
<text text-anchor="start" x="4" y="-54.45" font-family="arial" font-size="14.00">Crimp ferrule</text>
<polygon fill="none" stroke="black" points="86.75,-48 86.75,-71.75 153.25,-71.75 153.25,-48 86.75,-48"/>
<text text-anchor="start" x="90.75" y="-54.45" font-family="arial" font-size="14.00">0.25 mm²</text>
<polygon fill="none" stroke="black" points="153.25,-48 153.25,-71.75 179.25,-71.75 179.25,-48 153.25,-48"/>
<text text-anchor="start" x="157.25" y="-54.45" font-family="arial" font-size="14.00">YE</text>
<polygon fill="#ffff00" stroke="none" points="179.25,-48 179.25,-71.75 187.25,-71.75 187.25,-48 179.25,-48"/>
<polygon fill="none" stroke="black" points="179.25,-48 179.25,-71.75 187.25,-71.75 187.25,-48 179.25,-48"/>
</g>
<!-- W4 -->
<g id="node10" class="node">
<title>W4</title>
<polygon fill="#ffffff" stroke="black" points="530.12,-136.62 334.38,-136.62 334.38,-1.12 530.12,-1.12 530.12,-136.62"/>
<polygon fill="none" stroke="black" points="334.38,-112.88 334.38,-136.62 530.12,-136.62 530.12,-112.88 334.38,-112.88"/>
<text text-anchor="start" x="421.75" y="-119.33" font-family="arial" font-size="14.00">W4</text>
<polygon fill="none" stroke="black" points="334.38,-89.12 334.38,-112.88 356.62,-112.88 356.62,-89.12 334.38,-89.12"/>
<text text-anchor="start" x="338.38" y="-95.58" font-family="arial" font-size="14.00">2x</text>
<polygon fill="none" stroke="black" points="356.62,-89.12 356.62,-112.88 487.62,-112.88 487.62,-89.12 356.62,-89.12"/>
<text text-anchor="start" x="360.62" y="-95.58" font-family="arial" font-size="14.00">0.25 mm² (24 AWG)</text>
<polygon fill="none" stroke="black" points="487.62,-89.12 487.62,-112.88 530.12,-112.88 530.12,-89.12 487.62,-89.12"/>
<text text-anchor="start" x="491.62" y="-95.58" font-family="arial" font-size="14.00">0.3 m</text>
<text text-anchor="start" x="344.96" y="-73.83" font-family="arial" font-size="14.00"> </text>
<text text-anchor="start" x="370.75" y="-54.83" font-family="arial" font-size="14.00"> &#160;&#160;&#160;&#160;1:BK &#160;&#160;&#160;</text>
<text text-anchor="start" x="456.54" y="-54.83" font-family="arial" font-size="14.00">X4:1:GND</text>
<polygon fill="#000000" stroke="none" points="334.38,-49.12 334.38,-51.12 530.12,-51.12 530.12,-49.12 334.38,-49.12"/>
<polygon fill="#000000" stroke="none" points="334.38,-47.12 334.38,-49.12 530.12,-49.12 530.12,-47.12 334.38,-47.12"/>
<polygon fill="#000000" stroke="none" points="334.38,-45.12 334.38,-47.12 530.12,-47.12 530.12,-45.12 334.38,-45.12"/>
<text text-anchor="start" x="370" y="-29.82" font-family="arial" font-size="14.00"> &#160;&#160;&#160;&#160;2:RD &#160;&#160;&#160;</text>
<text text-anchor="start" x="455.79" y="-29.82" font-family="arial" font-size="14.00">X4:2:+12V</text>
<polygon fill="#000000" stroke="none" points="334.38,-24.12 334.38,-26.12 530.12,-26.12 530.12,-24.12 334.38,-24.12"/>
<polygon fill="#ff0000" stroke="none" points="334.38,-22.12 334.38,-24.12 530.12,-24.12 530.12,-22.12 334.38,-22.12"/>
<polygon fill="#000000" stroke="none" points="334.38,-20.12 334.38,-22.12 530.12,-22.12 530.12,-20.12 334.38,-20.12"/>
<text text-anchor="start" x="344.96" y="-4.83" font-family="arial" font-size="14.00"> </text>
</g>
<!-- __F_1&#45;&#45;W4 -->
<g id="edge25" class="edge">
<title>__F_1:e&#45;&#45;W4:w</title>
<path fill="none" stroke="#000000" stroke-width="2" d="M187.25,-57.88C251.15,-58.28 266.93,-46.28 333.25,-45.88"/>
<path fill="none" stroke="#000000" stroke-width="2" d="M187.25,-59.87C252.36,-59.88 268.14,-47.88 333.25,-47.87"/>
<path fill="none" stroke="#000000" stroke-width="2" d="M187.25,-61.87C253.57,-61.47 269.35,-49.47 333.25,-49.87"/>
</g>
<!-- __F_2 -->
<g id="node6" class="node">
<title>__F_2</title>
<polygon fill="#ffffff" stroke="black" points="187.25,-23.75 0,-23.75 0,0 187.25,0 187.25,-23.75"/>
<polygon fill="none" stroke="black" points="0,0 0,-23.75 86.75,-23.75 86.75,0 0,0"/>
<text text-anchor="start" x="4" y="-6.45" font-family="arial" font-size="14.00">Crimp ferrule</text>
<polygon fill="none" stroke="black" points="86.75,0 86.75,-23.75 153.25,-23.75 153.25,0 86.75,0"/>
<text text-anchor="start" x="90.75" y="-6.45" font-family="arial" font-size="14.00">0.25 mm²</text>
<polygon fill="none" stroke="black" points="153.25,0 153.25,-23.75 179.25,-23.75 179.25,0 153.25,0"/>
<text text-anchor="start" x="157.25" y="-6.45" font-family="arial" font-size="14.00">YE</text>
<polygon fill="#ffff00" stroke="none" points="179.25,0 179.25,-23.75 187.25,-23.75 187.25,0 179.25,0"/>
<polygon fill="none" stroke="black" points="179.25,0 179.25,-23.75 187.25,-23.75 187.25,0 179.25,0"/>
</g>
<!-- __F_2&#45;&#45;W4 -->
<g id="edge27" class="edge">
<title>__F_2:e&#45;&#45;W4:w</title>
<path fill="none" stroke="#000000" stroke-width="2" d="M187.25,-9.88C253.46,-10.23 269.32,-21.23 333.25,-20.88"/>
<path fill="none" stroke="#ff0000" stroke-width="2" d="M187.25,-11.88C252.32,-11.88 268.18,-22.88 333.25,-22.88"/>
<path fill="none" stroke="#000000" stroke-width="2" d="M187.25,-13.87C251.18,-13.52 267.04,-24.52 333.25,-24.87"/>
</g>
<!-- W1&#45;&#45;X2 -->
<g id="edge2" class="edge">
<title>W1:e&#45;&#45;X2:w</title>
<path fill="none" stroke="#000000" stroke-width="2" d="M531.25,-675.88C595.79,-675.91 611.98,-672.91 677.25,-672.88"/>
<path fill="none" stroke="#000000" stroke-width="2" d="M531.25,-677.88C596.15,-677.88 612.35,-674.88 677.25,-674.88"/>
<path fill="none" stroke="#000000" stroke-width="2" d="M531.25,-679.87C596.52,-679.84 612.71,-676.84 677.25,-676.87"/>
</g>
<!-- W1&#45;&#45;X2 -->
<g id="edge4" class="edge">
<title>W1:e&#45;&#45;X2:w</title>
<path fill="none" stroke="#000000" stroke-width="2" d="M531.25,-650.88C596.02,-650.88 612.24,-649.88 677.25,-649.88"/>
<path fill="none" stroke="#ff0000" stroke-width="2" d="M531.25,-652.88C596.14,-652.88 612.36,-651.88 677.25,-651.88"/>
<path fill="none" stroke="#000000" stroke-width="2" d="M531.25,-654.87C596.26,-654.87 612.48,-653.87 677.25,-653.87"/>
</g>
<!-- W1&#45;&#45;X2 -->
<g id="edge6" class="edge">
<title>W1:e&#45;&#45;X2:w</title>
<path fill="none" stroke="#000000" stroke-width="2" d="M531.25,-625.88C596.26,-625.88 612.48,-626.88 677.25,-626.88"/>
<path fill="none" stroke="#ffff00" stroke-width="2" d="M531.25,-627.88C596.14,-627.88 612.36,-628.88 677.25,-628.88"/>
<path fill="none" stroke="#000000" stroke-width="2" d="M531.25,-629.87C596.02,-629.87 612.24,-630.87 677.25,-630.87"/>
</g>
<!-- W1&#45;&#45;X2 -->
<g id="edge8" class="edge">
<title>W1:e&#45;&#45;X2:w</title>
<path fill="none" stroke="#000000" stroke-width="2" d="M531.25,-600.88C596.52,-600.91 612.71,-603.91 677.25,-603.88"/>
<path fill="none" stroke="#00ff00" stroke-width="2" d="M531.25,-602.88C596.15,-602.88 612.35,-605.88 677.25,-605.88"/>
<path fill="none" stroke="#000000" stroke-width="2" d="M531.25,-604.87C595.79,-604.84 611.98,-607.84 677.25,-607.87"/>
</g>
<!-- W2&#45;&#45;X3 -->
<g id="edge10" class="edge">
<title>W2:e&#45;&#45;X3:w</title>
<path fill="none" stroke="#000000" stroke-width="2" d="M531.25,-465.88C595.79,-465.91 611.98,-462.91 677.25,-462.88"/>
<path fill="none" stroke="#000000" stroke-width="2" d="M531.25,-467.88C596.15,-467.88 612.35,-464.88 677.25,-464.88"/>
<path fill="none" stroke="#000000" stroke-width="2" d="M531.25,-469.87C596.52,-469.84 612.71,-466.84 677.25,-466.87"/>
</g>
<!-- W2&#45;&#45;X3 -->
<g id="edge12" class="edge">
<title>W2:e&#45;&#45;X3:w</title>
<path fill="none" stroke="#000000" stroke-width="2" d="M531.25,-440.88C596.02,-440.88 612.24,-439.88 677.25,-439.88"/>
<path fill="none" stroke="#ff0000" stroke-width="2" d="M531.25,-442.87C596.14,-442.88 612.36,-441.88 677.25,-441.87"/>
<path fill="none" stroke="#000000" stroke-width="2" d="M531.25,-444.87C596.26,-444.87 612.48,-443.87 677.25,-443.87"/>
</g>
<!-- W2&#45;&#45;X3 -->
<g id="edge14" class="edge">
<title>W2:e&#45;&#45;X3:w</title>
<path fill="none" stroke="#000000" stroke-width="2" d="M531.25,-415.88C596.26,-415.88 612.48,-416.88 677.25,-416.88"/>
<path fill="none" stroke="#ffff00" stroke-width="2" d="M531.25,-417.87C596.14,-417.88 612.36,-418.88 677.25,-418.87"/>
<path fill="none" stroke="#000000" stroke-width="2" d="M531.25,-419.87C596.02,-419.87 612.24,-420.87 677.25,-420.87"/>
</g>
<!-- W2&#45;&#45;X3 -->
<g id="edge16" class="edge">
<title>W2:e&#45;&#45;X3:w</title>
<path fill="none" stroke="#000000" stroke-width="2" d="M531.25,-390.88C596.52,-390.91 612.71,-393.91 677.25,-393.88"/>
<path fill="none" stroke="#00ff00" stroke-width="2" d="M531.25,-392.88C596.15,-392.88 612.35,-395.88 677.25,-395.88"/>
<path fill="none" stroke="#000000" stroke-width="2" d="M531.25,-394.87C595.79,-394.84 611.98,-397.84 677.25,-397.87"/>
</g>
<!-- W3&#45;&#45;X4 -->
<g id="edge18" class="edge">
<title>W3:e&#45;&#45;X4:w</title>
<path fill="none" stroke="#000000" stroke-width="2" d="M533.25,-255.88C598.25,-256.09 614.05,-264.09 677.25,-263.88"/>
<path fill="none" stroke="#000000" stroke-width="2" d="M533.25,-257.88C597.35,-257.88 613.15,-265.88 677.25,-265.88"/>
<path fill="none" stroke="#000000" stroke-width="2" d="M533.25,-259.87C596.45,-259.66 612.25,-267.66 677.25,-267.87"/>
</g>
<!-- W3&#45;&#45;X4 -->
<g id="edge20" class="edge">
<title>W3:e&#45;&#45;X4:w</title>
<path fill="none" stroke="#000000" stroke-width="2" d="M533.25,-230.88C596.22,-231.34 611.7,-218.34 677.25,-217.88"/>
<path fill="none" stroke="#0066ff" stroke-width="2" d="M533.25,-232.88C597.51,-232.88 612.99,-219.88 677.25,-219.88"/>
<path fill="none" stroke="#000000" stroke-width="2" d="M533.25,-234.87C598.8,-234.41 614.28,-221.41 677.25,-221.87"/>
</g>
<!-- W3&#45;&#45;X4 -->
<g id="edge22" class="edge">
<title>W3:e&#45;&#45;X4:w</title>
<path fill="none" stroke="#000000" stroke-width="2" d="M533.25,-205.88C596.29,-206.24 611.91,-195.24 677.25,-194.88"/>
<path fill="none" stroke="#ff8000" stroke-width="2" d="M533.25,-207.88C597.44,-207.88 613.06,-196.88 677.25,-196.88"/>
<path fill="none" stroke="#000000" stroke-width="2" d="M533.25,-209.87C598.59,-209.51 614.21,-198.51 677.25,-198.87"/>
</g>
<!-- W3&#45;&#45;X4 -->
<g id="edge24" class="edge">
<title>W3:e&#45;&#45;X4:w</title>
<path fill="none" stroke="#000000" stroke-width="2" d="M533.25,-180.88C596.38,-181.14 612.13,-172.14 677.25,-171.88"/>
<path fill="none" stroke="#8000ff" stroke-width="2" d="M533.25,-182.88C597.37,-182.88 613.13,-173.88 677.25,-173.88"/>
<path fill="none" stroke="#000000" stroke-width="2" d="M533.25,-184.87C598.37,-184.61 614.12,-175.61 677.25,-175.87"/>
</g>
<!-- W4&#45;&#45;X4 -->
<g id="edge26" class="edge">
<title>W4:e&#45;&#45;X4:w</title>
<path fill="none" stroke="#000000" stroke-width="2" d="M531.25,-45.88C649.72,-48.62 562.5,-266.62 677.25,-263.88"/>
<path fill="none" stroke="#000000" stroke-width="2" d="M531.25,-47.88C647.86,-47.88 560.64,-265.88 677.25,-265.88"/>
<path fill="none" stroke="#000000" stroke-width="2" d="M531.25,-49.87C646,-47.13 558.78,-265.13 677.25,-267.87"/>
</g>
<!-- W4&#45;&#45;X4 -->
<g id="edge28" class="edge">
<title>W4:e&#45;&#45;X4:w</title>
<path fill="none" stroke="#000000" stroke-width="2" d="M531.25,-20.88C650.46,-23.62 561.75,-243.62 677.25,-240.88"/>
<path fill="none" stroke="#ff0000" stroke-width="2" d="M531.25,-22.88C648.6,-22.88 559.9,-242.88 677.25,-242.88"/>
<path fill="none" stroke="#000000" stroke-width="2" d="M531.25,-24.87C646.75,-22.13 558.04,-242.13 677.25,-244.87"/>
</g>
</g>
</svg>
