<?xml version="1.0" encoding="UTF-8" standalone="no"?>
<!DOCTYPE svg PUBLIC "-//W3C//DTD SVG 1.1//EN"
 "http://www.w3.org/Graphics/SVG/1.1/DTD/svg11.dtd">
<!-- Generated by graphviz version 2.44.0 (20200408.0750)
 -->
<!-- Pages: 1 -->
<svg width="906pt" height="763pt"
 viewBox="0.00 0.00 906.00 763.00" xmlns="http://www.w3.org/2000/svg" xmlns:xlink="http://www.w3.org/1999/xlink">
<g id="graph0" class="graph" transform="scale(1 1) rotate(0) translate(4 759)">
<polygon fill="white" stroke="transparent" points="-4,4 -4,-759 902,-759 902,4 -4,4"/>
<!-- X1 -->
<g id="node1" class="node">
<title>X1</title>
<polygon fill="white" stroke="black" points="0,-292 0,-522 206,-522 206,-292 0,-292"/>
<text text-anchor="middle" x="103" y="-506.8" font-family="arial" font-size="14.00">X1</text>
<polyline fill="none" stroke="black" points="0,-499 206,-499 "/>
<text text-anchor="middle" x="50.5" y="-483.8" font-family="arial" font-size="14.00">Molex KK 254</text>
<polyline fill="none" stroke="black" points="101,-476 101,-499 "/>
<text text-anchor="middle" x="130" y="-483.8" font-family="arial" font-size="14.00">female</text>
<polyline fill="none" stroke="black" points="159,-476 159,-499 "/>
<text text-anchor="middle" x="182.5" y="-483.8" font-family="arial" font-size="14.00">8&#45;pin</text>
<polyline fill="none" stroke="black" points="0,-476 206,-476 "/>
<text text-anchor="middle" x="58.5" y="-460.8" font-family="arial" font-size="14.00">GND</text>
<polyline fill="none" stroke="black" points="0,-453 117,-453 "/>
<text text-anchor="middle" x="58.5" y="-437.8" font-family="arial" font-size="14.00">+5V</text>
<polyline fill="none" stroke="black" points="0,-430 117,-430 "/>
<text text-anchor="middle" x="58.5" y="-414.8" font-family="arial" font-size="14.00">SCL</text>
<polyline fill="none" stroke="black" points="0,-407 117,-407 "/>
<text text-anchor="middle" x="58.5" y="-391.8" font-family="arial" font-size="14.00">SDA</text>
<polyline fill="none" stroke="black" points="0,-384 117,-384 "/>
<text text-anchor="middle" x="58.5" y="-368.8" font-family="arial" font-size="14.00">MISO</text>
<polyline fill="none" stroke="black" points="0,-361 117,-361 "/>
<text text-anchor="middle" x="58.5" y="-345.8" font-family="arial" font-size="14.00">MOSI</text>
<polyline fill="none" stroke="black" points="0,-338 117,-338 "/>
<text text-anchor="middle" x="58.5" y="-322.8" font-family="arial" font-size="14.00">SCK</text>
<polyline fill="none" stroke="black" points="0,-315 117,-315 "/>
<text text-anchor="middle" x="58.5" y="-299.8" font-family="arial" font-size="14.00">N/C</text>
<polyline fill="none" stroke="black" points="117,-292 117,-476 "/>
<text text-anchor="middle" x="161.5" y="-460.8" font-family="arial" font-size="14.00">1</text>
<polyline fill="none" stroke="black" points="117,-453 206,-453 "/>
<text text-anchor="middle" x="161.5" y="-437.8" font-family="arial" font-size="14.00">2</text>
<polyline fill="none" stroke="black" points="117,-430 206,-430 "/>
<text text-anchor="middle" x="161.5" y="-414.8" font-family="arial" font-size="14.00">3</text>
<polyline fill="none" stroke="black" points="117,-407 206,-407 "/>
<text text-anchor="middle" x="161.5" y="-391.8" font-family="arial" font-size="14.00">4</text>
<polyline fill="none" stroke="black" points="117,-384 206,-384 "/>
<text text-anchor="middle" x="161.5" y="-368.8" font-family="arial" font-size="14.00">5</text>
<polyline fill="none" stroke="black" points="117,-361 206,-361 "/>
<text text-anchor="middle" x="161.5" y="-345.8" font-family="arial" font-size="14.00">6</text>
<polyline fill="none" stroke="black" points="117,-338 206,-338 "/>
<text text-anchor="middle" x="161.5" y="-322.8" font-family="arial" font-size="14.00">7</text>
<polyline fill="none" stroke="black" points="117,-315 206,-315 "/>
<text text-anchor="middle" x="161.5" y="-299.8" font-family="arial" font-size="14.00">8</text>
</g>
<!-- W1 -->
<g id="node7" class="node">
<title>W1</title>
<polygon fill="white" stroke="black" stroke-dasharray="5,2" points="548,-755 350,-755 350,-575 548,-575 548,-755"/>
<polygon fill="none" stroke="black" points="350,-732 350,-755 548,-755 548,-732 350,-732"/>
<text text-anchor="start" x="438" y="-739.8" font-family="arial" font-size="14.00">W1</text>
<polygon fill="none" stroke="black" points="350,-709 350,-732 373,-732 373,-709 350,-709"/>
<text text-anchor="start" x="354" y="-716.8" font-family="arial" font-size="14.00">4x</text>
<polygon fill="none" stroke="black" points="373,-709 373,-732 505,-732 505,-709 373,-709"/>
<text text-anchor="start" x="377" y="-716.8" font-family="arial" font-size="14.00">0.14 mm² (26 AWG)</text>
<polygon fill="none" stroke="black" points="505,-709 505,-732 548,-732 548,-709 505,-709"/>
<text text-anchor="start" x="509" y="-716.8" font-family="arial" font-size="14.00">0.2 m</text>
<text text-anchor="start" x="447" y="-697.8" font-family="arial" font-size="14.00"> </text>
<text text-anchor="start" x="370" y="-680.8" font-family="arial" font-size="14.00">X1:1</text>
<text text-anchor="start" x="439.5" y="-680.8" font-family="arial" font-size="14.00">BK</text>
<text text-anchor="start" x="500" y="-680.8" font-family="arial" font-size="14.00">X2:1</text>
<polygon fill="#000000" stroke="transparent" points="350,-669 350,-675 548,-675 548,-669 350,-669"/>
<polyline fill="none" stroke="black" stroke-width="2" points="351,-670 547,-670 "/>
<polyline fill="none" stroke="black" stroke-width="2" points="547,-674 351,-674 "/>
<text text-anchor="start" x="370" y="-655.8" font-family="arial" font-size="14.00">X1:2</text>
<text text-anchor="start" x="439" y="-655.8" font-family="arial" font-size="14.00">RD</text>
<text text-anchor="start" x="500" y="-655.8" font-family="arial" font-size="14.00">X2:2</text>
<polygon fill="#ff0000" stroke="transparent" stroke-width="2" points="350,-644 350,-650 548,-650 548,-644 350,-644"/>
<polyline fill="none" stroke="black" stroke-width="2" points="351,-645 547,-645 "/>
<polyline fill="none" stroke="black" stroke-width="2" points="547,-649 351,-649 "/>
<text text-anchor="start" x="370" y="-630.8" font-family="arial" font-size="14.00">X1:3</text>
<text text-anchor="start" x="439.5" y="-630.8" font-family="arial" font-size="14.00">YE</text>
<text text-anchor="start" x="500" y="-630.8" font-family="arial" font-size="14.00">X2:3</text>
<polygon fill="#ffff00" stroke="transparent" stroke-width="2" points="350,-619 350,-625 548,-625 548,-619 350,-619"/>
<polyline fill="none" stroke="black" stroke-width="2" points="351,-620 547,-620 "/>
<polyline fill="none" stroke="black" stroke-width="2" points="547,-624 351,-624 "/>
<text text-anchor="start" x="370" y="-605.8" font-family="arial" font-size="14.00">X1:4</text>
<text text-anchor="start" x="438" y="-605.8" font-family="arial" font-size="14.00">GN</text>
<text text-anchor="start" x="500" y="-605.8" font-family="arial" font-size="14.00">X2:4</text>
<polygon fill="#00ff00" stroke="transparent" stroke-width="2" points="350,-594 350,-600 548,-600 548,-594 350,-594"/>
<polyline fill="none" stroke="black" stroke-width="2" points="351,-595 547,-595 "/>
<polyline fill="none" stroke="black" stroke-width="2" points="547,-599 351,-599 "/>
<text text-anchor="start" x="382" y="-580.8" font-family="arial" font-size="14.00"> </text>
</g>
<!-- X1&#45;&#45;W1 -->
<g id="edge1" class="edge">
<title>X1:e&#45;&#45;W1:w</title>
<path fill="none" stroke="#000000" stroke-width="2" d="M206,-463C319.94,-465.72 239.79,-672.72 350,-670"/>
<path fill="none" stroke="#000000" stroke-width="2" d="M206,-465C318.07,-465 237.93,-672 350,-672"/>
<path fill="none" stroke="#000000" stroke-width="2" d="M206,-467C316.21,-464.28 236.06,-671.28 350,-674"/>
</g>
<!-- X1&#45;&#45;W1 -->
<g id="edge3" class="edge">
<title>X1:e&#45;&#45;W1:w</title>
<path fill="none" stroke="#000000" stroke-width="2" d="M206,-440C319.21,-442.72 240.52,-647.72 350,-645"/>
<path fill="none" stroke="#ff0000" stroke-width="2" d="M206,-442C317.34,-442 238.66,-647 350,-647"/>
<path fill="none" stroke="#000000" stroke-width="2" d="M206,-444C315.48,-441.28 236.79,-646.28 350,-649"/>
</g>
<!-- X1&#45;&#45;W1 -->
<g id="edge5" class="edge">
<title>X1:e&#45;&#45;W1:w</title>
<path fill="none" stroke="#000000" stroke-width="2" d="M206,-417C318.49,-419.71 241.25,-622.71 350,-620"/>
<path fill="none" stroke="#ffff00" stroke-width="2" d="M206,-419C316.62,-419 239.38,-622 350,-622"/>
<path fill="none" stroke="#000000" stroke-width="2" d="M206,-421C314.75,-418.29 237.51,-621.29 350,-624"/>
</g>
<!-- X1&#45;&#45;W1 -->
<g id="edge7" class="edge">
<title>X1:e&#45;&#45;W1:w</title>
<path fill="none" stroke="#000000" stroke-width="2" d="M206,-393C318.12,-395.71 241.62,-597.71 350,-595"/>
<path fill="none" stroke="#00ff00" stroke-width="2" d="M206,-395C316.25,-395 239.75,-597 350,-597"/>
<path fill="none" stroke="#000000" stroke-width="2" d="M206,-397C314.38,-394.29 237.88,-596.29 350,-599"/>
</g>
<!-- W2 -->
<g id="node8" class="node">
<title>W2</title>
<polygon fill="white" stroke="black" stroke-dasharray="5,2" points="548,-551 350,-551 350,-371 548,-371 548,-551"/>
<polygon fill="none" stroke="black" points="350,-528 350,-551 548,-551 548,-528 350,-528"/>
<text text-anchor="start" x="438" y="-535.8" font-family="arial" font-size="14.00">W2</text>
<polygon fill="none" stroke="black" points="350,-505 350,-528 373,-528 373,-505 350,-505"/>
<text text-anchor="start" x="354" y="-512.8" font-family="arial" font-size="14.00">4x</text>
<polygon fill="none" stroke="black" points="373,-505 373,-528 505,-528 505,-505 373,-505"/>
<text text-anchor="start" x="377" y="-512.8" font-family="arial" font-size="14.00">0.14 mm² (26 AWG)</text>
<polygon fill="none" stroke="black" points="505,-505 505,-528 548,-528 548,-505 505,-505"/>
<text text-anchor="start" x="509" y="-512.8" font-family="arial" font-size="14.00">0.4 m</text>
<text text-anchor="start" x="447" y="-493.8" font-family="arial" font-size="14.00"> </text>
<text text-anchor="start" x="370" y="-476.8" font-family="arial" font-size="14.00">X1:1</text>
<text text-anchor="start" x="439.5" y="-476.8" font-family="arial" font-size="14.00">BK</text>
<text text-anchor="start" x="500" y="-476.8" font-family="arial" font-size="14.00">X3:1</text>
<polygon fill="#000000" stroke="transparent" points="350,-465 350,-471 548,-471 548,-465 350,-465"/>
<polyline fill="none" stroke="black" stroke-width="2" points="351,-466 547,-466 "/>
<polyline fill="none" stroke="black" stroke-width="2" points="547,-470 351,-470 "/>
<text text-anchor="start" x="370" y="-451.8" font-family="arial" font-size="14.00">X1:2</text>
<text text-anchor="start" x="439" y="-451.8" font-family="arial" font-size="14.00">RD</text>
<text text-anchor="start" x="500" y="-451.8" font-family="arial" font-size="14.00">X3:2</text>
<polygon fill="#ff0000" stroke="transparent" stroke-width="2" points="350,-440 350,-446 548,-446 548,-440 350,-440"/>
<polyline fill="none" stroke="black" stroke-width="2" points="351,-441 547,-441 "/>
<polyline fill="none" stroke="black" stroke-width="2" points="547,-445 351,-445 "/>
<text text-anchor="start" x="370" y="-426.8" font-family="arial" font-size="14.00">X1:3</text>
<text text-anchor="start" x="439.5" y="-426.8" font-family="arial" font-size="14.00">YE</text>
<text text-anchor="start" x="500" y="-426.8" font-family="arial" font-size="14.00">X3:3</text>
<polygon fill="#ffff00" stroke="transparent" stroke-width="2" points="350,-415 350,-421 548,-421 548,-415 350,-415"/>
<polyline fill="none" stroke="black" stroke-width="2" points="351,-416 547,-416 "/>
<polyline fill="none" stroke="black" stroke-width="2" points="547,-420 351,-420 "/>
<text text-anchor="start" x="370" y="-401.8" font-family="arial" font-size="14.00">X1:4</text>
<text text-anchor="start" x="438" y="-401.8" font-family="arial" font-size="14.00">GN</text>
<text text-anchor="start" x="500" y="-401.8" font-family="arial" font-size="14.00">X3:4</text>
<polygon fill="#00ff00" stroke="transparent" stroke-width="2" points="350,-390 350,-396 548,-396 548,-390 350,-390"/>
<polyline fill="none" stroke="black" stroke-width="2" points="351,-391 547,-391 "/>
<polyline fill="none" stroke="black" stroke-width="2" points="547,-395 351,-395 "/>
<text text-anchor="start" x="382" y="-376.8" font-family="arial" font-size="14.00"> </text>
</g>
<!-- X1&#45;&#45;W2 -->
<g id="edge9" class="edge">
<title>X1:e&#45;&#45;W2:w</title>
<path fill="none" stroke="#000000" stroke-width="2" d="M206,-463C270.38,-463.03 286.36,-466.03 350,-466"/>
<path fill="none" stroke="#000000" stroke-width="2" d="M206,-465C270.01,-465 285.99,-468 350,-468"/>
<path fill="none" stroke="#000000" stroke-width="2" d="M206,-467C269.64,-466.97 285.62,-469.97 350,-470"/>
</g>
<!-- X1&#45;&#45;W2 -->
<g id="edge11" class="edge">
<title>X1:e&#45;&#45;W2:w</title>
<path fill="none" stroke="#000000" stroke-width="2" d="M206,-440C270.13,-440 286.12,-441 350,-441"/>
<path fill="none" stroke="#ff0000" stroke-width="2" d="M206,-442C270,-442 286,-443 350,-443"/>
<path fill="none" stroke="#000000" stroke-width="2" d="M206,-444C269.88,-444 285.87,-445 350,-445"/>
</g>
<!-- X1&#45;&#45;W2 -->
<g id="edge13" class="edge">
<title>X1:e&#45;&#45;W2:w</title>
<path fill="none" stroke="#000000" stroke-width="2" d="M206,-417C269.88,-417 285.87,-416 350,-416"/>
<path fill="none" stroke="#ffff00" stroke-width="2" d="M206,-419C270,-419 286,-418 350,-418"/>
<path fill="none" stroke="#000000" stroke-width="2" d="M206,-421C270.13,-421 286.12,-420 350,-420"/>
</g>
<!-- X1&#45;&#45;W2 -->
<g id="edge15" class="edge">
<title>X1:e&#45;&#45;W2:w</title>
<path fill="none" stroke="#000000" stroke-width="2" d="M206,-393C269.76,-393.02 285.75,-391.02 350,-391"/>
<path fill="none" stroke="#00ff00" stroke-width="2" d="M206,-395C270.01,-395 285.99,-393 350,-393"/>
<path fill="none" stroke="#000000" stroke-width="2" d="M206,-397C270.25,-396.98 286.24,-394.98 350,-395"/>
</g>
<!-- W3 -->
<g id="node9" class="node">
<title>W3</title>
<polygon fill="white" stroke="black" stroke-dasharray="5,2" points="548,-347 350,-347 350,-167 548,-167 548,-347"/>
<polygon fill="none" stroke="black" points="350,-324 350,-347 548,-347 548,-324 350,-324"/>
<text text-anchor="start" x="438" y="-331.8" font-family="arial" font-size="14.00">W3</text>
<polygon fill="none" stroke="black" points="350,-301 350,-324 373,-324 373,-301 350,-301"/>
<text text-anchor="start" x="354" y="-308.8" font-family="arial" font-size="14.00">4x</text>
<polygon fill="none" stroke="black" points="373,-301 373,-324 505,-324 505,-301 373,-301"/>
<text text-anchor="start" x="377" y="-308.8" font-family="arial" font-size="14.00">0.14 mm² (26 AWG)</text>
<polygon fill="none" stroke="black" points="505,-301 505,-324 548,-324 548,-301 505,-301"/>
<text text-anchor="start" x="509" y="-308.8" font-family="arial" font-size="14.00">0.3 m</text>
<text text-anchor="start" x="447" y="-289.8" font-family="arial" font-size="14.00"> </text>
<text text-anchor="start" x="370" y="-272.8" font-family="arial" font-size="14.00">X1:1</text>
<text text-anchor="start" x="440" y="-272.8" font-family="arial" font-size="14.00">BK</text>
<text text-anchor="start" x="500.5" y="-272.8" font-family="arial" font-size="14.00">X4:1</text>
<polygon fill="#000000" stroke="transparent" points="350,-261 350,-267 548,-267 548,-261 350,-261"/>
<polyline fill="none" stroke="black" stroke-width="2" points="351,-262 547,-262 "/>
<polyline fill="none" stroke="black" stroke-width="2" points="547,-266 351,-266 "/>
<text text-anchor="start" x="370" y="-247.8" font-family="arial" font-size="14.00">X1:5</text>
<text text-anchor="start" x="440" y="-247.8" font-family="arial" font-size="14.00">BU</text>
<text text-anchor="start" x="500.5" y="-247.8" font-family="arial" font-size="14.00">X4:3</text>
<polygon fill="#0066ff" stroke="transparent" stroke-width="2" points="350,-236 350,-242 548,-242 548,-236 350,-236"/>
<polyline fill="none" stroke="black" stroke-width="2" points="351,-237 547,-237 "/>
<polyline fill="none" stroke="black" stroke-width="2" points="547,-241 351,-241 "/>
<text text-anchor="start" x="370" y="-222.8" font-family="arial" font-size="14.00">X1:6</text>
<text text-anchor="start" x="438" y="-222.8" font-family="arial" font-size="14.00">OG</text>
<text text-anchor="start" x="500.5" y="-222.8" font-family="arial" font-size="14.00">X4:4</text>
<polygon fill="#ff8000" stroke="transparent" stroke-width="2" points="350,-211 350,-217 548,-217 548,-211 350,-211"/>
<polyline fill="none" stroke="black" stroke-width="2" points="351,-212 547,-212 "/>
<polyline fill="none" stroke="black" stroke-width="2" points="547,-216 351,-216 "/>
<text text-anchor="start" x="370" y="-197.8" font-family="arial" font-size="14.00">X1:7</text>
<text text-anchor="start" x="440.5" y="-197.8" font-family="arial" font-size="14.00">VT</text>
<text text-anchor="start" x="500.5" y="-197.8" font-family="arial" font-size="14.00">X4:5</text>
<polygon fill="#8000ff" stroke="transparent" stroke-width="2" points="350,-186 350,-192 548,-192 548,-186 350,-186"/>
<polyline fill="none" stroke="black" stroke-width="2" points="351,-187 547,-187 "/>
<polyline fill="none" stroke="black" stroke-width="2" points="547,-191 351,-191 "/>
<text text-anchor="start" x="382" y="-172.8" font-family="arial" font-size="14.00"> </text>
</g>
<!-- X1&#45;&#45;W3 -->
<g id="edge17" class="edge">
<title>X1:e&#45;&#45;W3:w</title>
<path fill="none" stroke="#000000" stroke-width="2" d="M206,-463C314.02,-465.71 238.24,-264.71 350,-262"/>
<path fill="none" stroke="#000000" stroke-width="2" d="M206,-465C315.89,-465 240.11,-264 350,-264"/>
<path fill="none" stroke="#000000" stroke-width="2" d="M206,-467C317.76,-464.29 241.98,-263.29 350,-266"/>
</g>
<!-- X1&#45;&#45;W3 -->
<g id="edge19" class="edge">
<title>X1:e&#45;&#45;W3:w</title>
<path fill="none" stroke="#000000" stroke-width="2" d="M206,-370C291.17,-372.44 260.93,-239.44 350,-237"/>
<path fill="none" stroke="#0066ff" stroke-width="2" d="M206,-372C293.12,-372 262.88,-239 350,-239"/>
<path fill="none" stroke="#000000" stroke-width="2" d="M206,-374C295.07,-371.56 264.83,-238.56 350,-241"/>
</g>
<!-- X1&#45;&#45;W3 -->
<g id="edge21" class="edge">
<title>X1:e&#45;&#45;W3:w</title>
<path fill="none" stroke="#000000" stroke-width="2" d="M206,-347C291.78,-349.45 260.33,-214.45 350,-212"/>
<path fill="none" stroke="#ff8000" stroke-width="2" d="M206,-349C293.73,-349 262.27,-214 350,-214"/>
<path fill="none" stroke="#000000" stroke-width="2" d="M206,-351C295.67,-348.55 264.22,-213.55 350,-216"/>
</g>
<!-- X1&#45;&#45;W3 -->
<g id="edge23" class="edge">
<title>X1:e&#45;&#45;W3:w</title>
<path fill="none" stroke="#000000" stroke-width="2" d="M206,-324C292.39,-326.46 259.72,-189.46 350,-187"/>
<path fill="none" stroke="#8000ff" stroke-width="2" d="M206,-326C294.34,-326 261.66,-189 350,-189"/>
<path fill="none" stroke="#000000" stroke-width="2" d="M206,-328C296.28,-325.54 263.61,-188.54 350,-191"/>
</g>
<!-- X2 -->
<g id="node2" class="node">
<title>X2</title>
<polygon fill="white" stroke="black" points="692,-589 692,-727 898,-727 898,-589 692,-589"/>
<text text-anchor="middle" x="795" y="-711.8" font-family="arial" font-size="14.00">X2</text>
<polyline fill="none" stroke="black" points="692,-704 898,-704 "/>
<text text-anchor="middle" x="742.5" y="-688.8" font-family="arial" font-size="14.00">Molex KK 254</text>
<polyline fill="none" stroke="black" points="793,-681 793,-704 "/>
<text text-anchor="middle" x="822" y="-688.8" font-family="arial" font-size="14.00">female</text>
<polyline fill="none" stroke="black" points="851,-681 851,-704 "/>
<text text-anchor="middle" x="874.5" y="-688.8" font-family="arial" font-size="14.00">4&#45;pin</text>
<polyline fill="none" stroke="black" points="692,-681 898,-681 "/>
<text text-anchor="middle" x="737.5" y="-665.8" font-family="arial" font-size="14.00">1</text>
<polyline fill="none" stroke="black" points="692,-658 783,-658 "/>
<text text-anchor="middle" x="737.5" y="-642.8" font-family="arial" font-size="14.00">2</text>
<polyline fill="none" stroke="black" points="692,-635 783,-635 "/>
<text text-anchor="middle" x="737.5" y="-619.8" font-family="arial" font-size="14.00">3</text>
<polyline fill="none" stroke="black" points="692,-612 783,-612 "/>
<text text-anchor="middle" x="737.5" y="-596.8" font-family="arial" font-size="14.00">4</text>
<polyline fill="none" stroke="black" points="783,-589 783,-681 "/>
<text text-anchor="middle" x="840.5" y="-665.8" font-family="arial" font-size="14.00">GND</text>
<polyline fill="none" stroke="black" points="783,-658 898,-658 "/>
<text text-anchor="middle" x="840.5" y="-642.8" font-family="arial" font-size="14.00">+5V</text>
<polyline fill="none" stroke="black" points="783,-635 898,-635 "/>
<text text-anchor="middle" x="840.5" y="-619.8" font-family="arial" font-size="14.00">SCL</text>
<polyline fill="none" stroke="black" points="783,-612 898,-612 "/>
<text text-anchor="middle" x="840.5" y="-596.8" font-family="arial" font-size="14.00">SDA</text>
</g>
<!-- X3 -->
<g id="node3" class="node">
<title>X3</title>
<polygon fill="white" stroke="black" points="692,-385 692,-523 898,-523 898,-385 692,-385"/>
<text text-anchor="middle" x="795" y="-507.8" font-family="arial" font-size="14.00">X3</text>
<polyline fill="none" stroke="black" points="692,-500 898,-500 "/>
<text text-anchor="middle" x="742.5" y="-484.8" font-family="arial" font-size="14.00">Molex KK 254</text>
<polyline fill="none" stroke="black" points="793,-477 793,-500 "/>
<text text-anchor="middle" x="822" y="-484.8" font-family="arial" font-size="14.00">female</text>
<polyline fill="none" stroke="black" points="851,-477 851,-500 "/>
<text text-anchor="middle" x="874.5" y="-484.8" font-family="arial" font-size="14.00">4&#45;pin</text>
<polyline fill="none" stroke="black" points="692,-477 898,-477 "/>
<text text-anchor="middle" x="737.5" y="-461.8" font-family="arial" font-size="14.00">1</text>
<polyline fill="none" stroke="black" points="692,-454 783,-454 "/>
<text text-anchor="middle" x="737.5" y="-438.8" font-family="arial" font-size="14.00">2</text>
<polyline fill="none" stroke="black" points="692,-431 783,-431 "/>
<text text-anchor="middle" x="737.5" y="-415.8" font-family="arial" font-size="14.00">3</text>
<polyline fill="none" stroke="black" points="692,-408 783,-408 "/>
<text text-anchor="middle" x="737.5" y="-392.8" font-family="arial" font-size="14.00">4</text>
<polyline fill="none" stroke="black" points="783,-385 783,-477 "/>
<text text-anchor="middle" x="840.5" y="-461.8" font-family="arial" font-size="14.00">GND</text>
<polyline fill="none" stroke="black" points="783,-454 898,-454 "/>
<text text-anchor="middle" x="840.5" y="-438.8" font-family="arial" font-size="14.00">+5V</text>
<polyline fill="none" stroke="black" points="783,-431 898,-431 "/>
<text text-anchor="middle" x="840.5" y="-415.8" font-family="arial" font-size="14.00">SCL</text>
<polyline fill="none" stroke="black" points="783,-408 898,-408 "/>
<text text-anchor="middle" x="840.5" y="-392.8" font-family="arial" font-size="14.00">SDA</text>
</g>
<!-- X4 -->
<g id="node4" class="node">
<title>X4</title>
<polygon fill="white" stroke="black" points="692,-168.5 692,-329.5 898,-329.5 898,-168.5 692,-168.5"/>
<text text-anchor="middle" x="795" y="-314.3" font-family="arial" font-size="14.00">X4</text>
<polyline fill="none" stroke="black" points="692,-306.5 898,-306.5 "/>
<text text-anchor="middle" x="742.5" y="-291.3" font-family="arial" font-size="14.00">Molex KK 254</text>
<polyline fill="none" stroke="black" points="793,-283.5 793,-306.5 "/>
<text text-anchor="middle" x="822" y="-291.3" font-family="arial" font-size="14.00">female</text>
<polyline fill="none" stroke="black" points="851,-283.5 851,-306.5 "/>
<text text-anchor="middle" x="874.5" y="-291.3" font-family="arial" font-size="14.00">5&#45;pin</text>
<polyline fill="none" stroke="black" points="692,-283.5 898,-283.5 "/>
<text text-anchor="middle" x="736" y="-268.3" font-family="arial" font-size="14.00">1</text>
<polyline fill="none" stroke="black" points="692,-260.5 780,-260.5 "/>
<text text-anchor="middle" x="736" y="-245.3" font-family="arial" font-size="14.00">2</text>
<polyline fill="none" stroke="black" points="692,-237.5 780,-237.5 "/>
<text text-anchor="middle" x="736" y="-222.3" font-family="arial" font-size="14.00">3</text>
<polyline fill="none" stroke="black" points="692,-214.5 780,-214.5 "/>
<text text-anchor="middle" x="736" y="-199.3" font-family="arial" font-size="14.00">4</text>
<polyline fill="none" stroke="black" points="692,-191.5 780,-191.5 "/>
<text text-anchor="middle" x="736" y="-176.3" font-family="arial" font-size="14.00">5</text>
<polyline fill="none" stroke="black" points="780,-168.5 780,-283.5 "/>
<text text-anchor="middle" x="839" y="-268.3" font-family="arial" font-size="14.00">GND</text>
<polyline fill="none" stroke="black" points="780,-260.5 898,-260.5 "/>
<text text-anchor="middle" x="839" y="-245.3" font-family="arial" font-size="14.00">+12V</text>
<polyline fill="none" stroke="black" points="780,-237.5 898,-237.5 "/>
<text text-anchor="middle" x="839" y="-222.3" font-family="arial" font-size="14.00">MISO</text>
<polyline fill="none" stroke="black" points="780,-214.5 898,-214.5 "/>
<text text-anchor="middle" x="839" y="-199.3" font-family="arial" font-size="14.00">MOSI</text>
<polyline fill="none" stroke="black" points="780,-191.5 898,-191.5 "/>
<text text-anchor="middle" x="839" y="-176.3" font-family="arial" font-size="14.00">SCK</text>
</g>
<!-- _F1 -->
<g id="node5" class="node">
<title>_F1</title>
<polygon fill="white" stroke="transparent" points="15.5,-60 190.5,-60 190.5,-96 15.5,-96 15.5,-60"/>
<text text-anchor="start" x="19" y="-73.8" font-family="arial" font-size="14.00"> Crimp ferrule, 0.25 mm² &#160;</text>
<text text-anchor="start" x="180" y="-73.8" font-family="arial" font-size="14.00"> &#160;</text>
<polygon fill="none" stroke="black" points="15.5,-67.5 15.5,-88.5 190.5,-88.5 190.5,-67.5 15.5,-67.5"/>
</g>
<!-- W4 -->
<g id="node10" class="node">
<title>W4</title>
<polygon fill="none" stroke="black" points="548,-143 350,-143 350,-13 548,-13 548,-143"/>
<polygon fill="none" stroke="black" points="350,-120 350,-143 548,-143 548,-120 350,-120"/>
<text text-anchor="start" x="438" y="-127.8" font-family="arial" font-size="14.00">W4</text>
<polygon fill="none" stroke="black" points="350,-97 350,-120 373,-120 373,-97 350,-97"/>
<text text-anchor="start" x="354" y="-104.8" font-family="arial" font-size="14.00">2x</text>
<polygon fill="none" stroke="black" points="373,-97 373,-120 505,-120 505,-97 373,-97"/>
<text text-anchor="start" x="377" y="-104.8" font-family="arial" font-size="14.00">0.25 mm² (24 AWG)</text>
<polygon fill="none" stroke="black" points="505,-97 505,-120 548,-120 548,-97 505,-97"/>
<text text-anchor="start" x="509" y="-104.8" font-family="arial" font-size="14.00">0.3 m</text>
<text text-anchor="start" x="447" y="-85.8" font-family="arial" font-size="14.00"> </text>
<text text-anchor="start" x="428" y="-68.8" font-family="arial" font-size="14.00">BK</text>
<text text-anchor="start" x="496" y="-68.8" font-family="arial" font-size="14.00">X4:1</text>
<polygon fill="#000000" stroke="transparent" points="350,-57 350,-63 548,-63 548,-57 350,-57"/>
<polyline fill="none" stroke="black" stroke-width="2" points="351,-58 547,-58 "/>
<polyline fill="none" stroke="black" stroke-width="2" points="547,-62 351,-62 "/>
<text text-anchor="start" x="427.5" y="-43.8" font-family="arial" font-size="14.00">RD</text>
<text text-anchor="start" x="496" y="-43.8" font-family="arial" font-size="14.00">X4:2</text>
<polygon fill="#ff0000" stroke="transparent" stroke-width="2" points="350,-32 350,-38 548,-38 548,-32 350,-32"/>
<polyline fill="none" stroke="black" stroke-width="2" points="351,-33 547,-33 "/>
<polyline fill="none" stroke="black" stroke-width="2" points="547,-37 351,-37 "/>
<text text-anchor="start" x="374.5" y="-18.8" font-family="arial" font-size="14.00"> </text>
</g>
<!-- _F1&#45;&#45;W4 -->
<g id="edge25" class="edge">
<title>_F1:e&#45;&#45;W4:w</title>
<path fill="none" stroke="#000000" stroke-width="2" d="M192,-76C261.21,-76.64 277.86,-58.64 350,-58"/>
<path fill="none" stroke="#000000" stroke-width="2" d="M192,-78C262.68,-78 279.32,-60 350,-60"/>
<path fill="none" stroke="#000000" stroke-width="2" d="M192,-80C264.14,-79.36 280.79,-61.36 350,-62"/>
</g>
<!-- _F2 -->
<g id="node6" class="node">
<title>_F2</title>
<polygon fill="white" stroke="transparent" points="15.5,0 190.5,0 190.5,-36 15.5,-36 15.5,0"/>
<text text-anchor="start" x="19" y="-13.8" font-family="arial" font-size="14.00"> Crimp ferrule, 0.25 mm² &#160;</text>
<text text-anchor="start" x="180" y="-13.8" font-family="arial" font-size="14.00"> &#160;</text>
<polygon fill="none" stroke="black" points="15.5,-7.5 15.5,-28.5 190.5,-28.5 190.5,-7.5 15.5,-7.5"/>
</g>
<!-- _F2&#45;&#45;W4 -->
<g id="edge26" class="edge">
<title>_F2:e&#45;&#45;W4:w</title>
<path fill="none" stroke="#000000" stroke-width="2" d="M192,-16C264.05,-16.6 280.8,-33.6 350,-33"/>
<path fill="none" stroke="#ff0000" stroke-width="2" d="M192,-18C262.63,-18 279.37,-35 350,-35"/>
<path fill="none" stroke="#000000" stroke-width="2" d="M192,-20C261.2,-19.4 277.95,-36.4 350,-37"/>
</g>
<!-- W1&#45;&#45;X2 -->
<g id="edge2" class="edge">
<title>W1:e&#45;&#45;X2:w</title>
<path fill="none" stroke="#000000" stroke-width="2" d="M548,-670C611.76,-670.02 627.75,-668.02 692,-668"/>
<path fill="none" stroke="#000000" stroke-width="2" d="M548,-672C612.01,-672 627.99,-670 692,-670"/>
<path fill="none" stroke="#000000" stroke-width="2" d="M548,-674C612.25,-673.98 628.24,-671.98 692,-672"/>
</g>
<!-- W1&#45;&#45;X2 -->
<g id="edge4" class="edge">
<title>W1:e&#45;&#45;X2:w</title>
<path fill="none" stroke="#000000" stroke-width="2" d="M548,-645C611.88,-645 627.87,-644 692,-644"/>
<path fill="none" stroke="#ff0000" stroke-width="2" d="M548,-647C612,-647 628,-646 692,-646"/>
<path fill="none" stroke="#000000" stroke-width="2" d="M548,-649C612.13,-649 628.12,-648 692,-648"/>
</g>
<!-- W1&#45;&#45;X2 -->
<g id="edge6" class="edge">
<title>W1:e&#45;&#45;X2:w</title>
<path fill="none" stroke="#000000" stroke-width="2" d="M548,-620C612.13,-620 628.12,-621 692,-621"/>
<path fill="none" stroke="#ffff00" stroke-width="2" d="M548,-622C612,-622 628,-623 692,-623"/>
<path fill="none" stroke="#000000" stroke-width="2" d="M548,-624C611.88,-624 627.87,-625 692,-625"/>
</g>
<!-- W1&#45;&#45;X2 -->
<g id="edge8" class="edge">
<title>W1:e&#45;&#45;X2:w</title>
<path fill="none" stroke="#000000" stroke-width="2" d="M548,-595C612.38,-595.03 628.36,-598.03 692,-598"/>
<path fill="none" stroke="#00ff00" stroke-width="2" d="M548,-597C612.01,-597 627.99,-600 692,-600"/>
<path fill="none" stroke="#000000" stroke-width="2" d="M548,-599C611.64,-598.97 627.62,-601.97 692,-602"/>
</g>
<!-- W2&#45;&#45;X3 -->
<g id="edge10" class="edge">
<title>W2:e&#45;&#45;X3:w</title>
<path fill="none" stroke="#000000" stroke-width="2" d="M548,-466C611.76,-466.02 627.75,-464.02 692,-464"/>
<path fill="none" stroke="#000000" stroke-width="2" d="M548,-468C612.01,-468 627.99,-466 692,-466"/>
<path fill="none" stroke="#000000" stroke-width="2" d="M548,-470C612.25,-469.98 628.24,-467.98 692,-468"/>
</g>
<!-- W2&#45;&#45;X3 -->
<g id="edge12" class="edge">
<title>W2:e&#45;&#45;X3:w</title>
<path fill="none" stroke="#000000" stroke-width="2" d="M548,-441C611.88,-441 627.87,-440 692,-440"/>
<path fill="none" stroke="#ff0000" stroke-width="2" d="M548,-443C612,-443 628,-442 692,-442"/>
<path fill="none" stroke="#000000" stroke-width="2" d="M548,-445C612.13,-445 628.12,-444 692,-444"/>
</g>
<!-- W2&#45;&#45;X3 -->
<g id="edge14" class="edge">
<title>W2:e&#45;&#45;X3:w</title>
<path fill="none" stroke="#000000" stroke-width="2" d="M548,-416C612.13,-416 628.12,-417 692,-417"/>
<path fill="none" stroke="#ffff00" stroke-width="2" d="M548,-418C612,-418 628,-419 692,-419"/>
<path fill="none" stroke="#000000" stroke-width="2" d="M548,-420C611.88,-420 627.87,-421 692,-421"/>
</g>
<!-- W2&#45;&#45;X3 -->
<g id="edge16" class="edge">
<title>W2:e&#45;&#45;X3:w</title>
<path fill="none" stroke="#000000" stroke-width="2" d="M548,-391C612.38,-391.03 628.36,-394.03 692,-394"/>
<path fill="none" stroke="#00ff00" stroke-width="2" d="M548,-393C612.01,-393 627.99,-396 692,-396"/>
<path fill="none" stroke="#000000" stroke-width="2" d="M548,-395C611.64,-394.97 627.62,-397.97 692,-398"/>
</g>
<!-- W3&#45;&#45;X4 -->
<g id="edge18" class="edge">
<title>W3:e&#45;&#45;X4:w</title>
<path fill="none" stroke="#000000" stroke-width="2" d="M548,-262C613,-262.22 628.8,-270.22 692,-270"/>
<path fill="none" stroke="#000000" stroke-width="2" d="M548,-264C612.1,-264 627.9,-272 692,-272"/>
<path fill="none" stroke="#000000" stroke-width="2" d="M548,-266C611.2,-265.78 627,-273.78 692,-274"/>
</g>
<!-- W3&#45;&#45;X4 -->
<g id="edge20" class="edge">
<title>W3:e&#45;&#45;X4:w</title>
<path fill="none" stroke="#000000" stroke-width="2" d="M548,-237C610.97,-237.47 626.45,-224.47 692,-224"/>
<path fill="none" stroke="#0066ff" stroke-width="2" d="M548,-239C612.26,-239 627.74,-226 692,-226"/>
<path fill="none" stroke="#000000" stroke-width="2" d="M548,-241C613.55,-240.53 629.03,-227.53 692,-228"/>
</g>
<!-- W3&#45;&#45;X4 -->
<g id="edge22" class="edge">
<title>W3:e&#45;&#45;X4:w</title>
<path fill="none" stroke="#000000" stroke-width="2" d="M548,-212C611.04,-212.36 626.66,-201.36 692,-201"/>
<path fill="none" stroke="#ff8000" stroke-width="2" d="M548,-214C612.19,-214 627.81,-203 692,-203"/>
<path fill="none" stroke="#000000" stroke-width="2" d="M548,-216C613.34,-215.64 628.96,-204.64 692,-205"/>
</g>
<!-- W3&#45;&#45;X4 -->
<g id="edge24" class="edge">
<title>W3:e&#45;&#45;X4:w</title>
<path fill="none" stroke="#000000" stroke-width="2" d="M548,-187C611.13,-187.26 626.88,-178.26 692,-178"/>
<path fill="none" stroke="#8000ff" stroke-width="2" d="M548,-189C612.12,-189 627.88,-180 692,-180"/>
<path fill="none" stroke="#000000" stroke-width="2" d="M548,-191C613.12,-190.74 628.87,-181.74 692,-182"/>
</g>
<!-- W4&#45;&#45;X4 -->
<g id="edge27" class="edge">
<title>W4:e&#45;&#45;X4:w</title>
<path fill="none" stroke="#000000" stroke-width="2" d="M548,-58C663.76,-60.74 579.96,-272.74 692,-270"/>
<path fill="none" stroke="#000000" stroke-width="2" d="M548,-60C661.9,-60 578.1,-272 692,-272"/>
<path fill="none" stroke="#000000" stroke-width="2" d="M548,-62C660.04,-59.26 576.24,-271.26 692,-274"/>
</g>
<!-- W4&#45;&#45;X4 -->
<g id="edge28" class="edge">
<title>W4:e&#45;&#45;X4:w</title>
<path fill="none" stroke="#000000" stroke-width="2" d="M548,-33C664.5,-35.74 579.22,-249.74 692,-247"/>
<path fill="none" stroke="#ff0000" stroke-width="2" d="M548,-35C662.64,-35 577.36,-249 692,-249"/>
<path fill="none" stroke="#000000" stroke-width="2" d="M548,-37C660.78,-34.26 575.5,-248.26 692,-251"/>
</g>
</g>
</svg>
