<?xml version="1.0" encoding="UTF-8" standalone="no"?>
<!DOCTYPE svg PUBLIC "-//W3C//DTD SVG 1.1//EN"
 "http://www.w3.org/Graphics/SVG/1.1/DTD/svg11.dtd">
<!-- Generated by graphviz version 2.38.0 (20140413.2041)
 -->
<!-- Title: %3 Pages: 1 -->
<svg width="931pt" height="658pt"
 viewBox="0.00 0.00 931.00 658.00" xmlns="http://www.w3.org/2000/svg" xmlns:xlink="http://www.w3.org/1999/xlink">
<g id="graph0" class="graph" transform="scale(1 1) rotate(0) translate(4 654)">
<title>%3</title>
<polygon fill="#fffbf8" stroke="none" points="-4,4 -4,-654 927,-654 927,4 -4,4"/>
<!-- X1 -->
<g id="node1" class="node"><title>X1</title>
<polygon fill="white" stroke="black" points="0,-232 0,-462 214,-462 214,-232 0,-232"/>
<text text-anchor="middle" x="107" y="-446.8" font-family="arial" font-size="14.00">X1</text>
<polyline fill="none" stroke="black" points="0,-439 214,-439 "/>
<text text-anchor="middle" x="53" y="-423.8" font-family="arial" font-size="14.00">Molex KK 254</text>
<polyline fill="none" stroke="black" points="106,-416 106,-439 "/>
<text text-anchor="middle" x="136" y="-423.8" font-family="arial" font-size="14.00">female</text>
<polyline fill="none" stroke="black" points="166,-416 166,-439 "/>
<text text-anchor="middle" x="190" y="-423.8" font-family="arial" font-size="14.00">8&#45;pin</text>
<polyline fill="none" stroke="black" points="0,-416 214,-416 "/>
<text text-anchor="middle" x="60.5" y="-400.8" font-family="arial" font-size="14.00">GND</text>
<polyline fill="none" stroke="black" points="0,-393 121,-393 "/>
<text text-anchor="middle" x="60.5" y="-377.8" font-family="arial" font-size="14.00">+5V</text>
<polyline fill="none" stroke="black" points="0,-370 121,-370 "/>
<text text-anchor="middle" x="60.5" y="-354.8" font-family="arial" font-size="14.00">SCL</text>
<polyline fill="none" stroke="black" points="0,-347 121,-347 "/>
<text text-anchor="middle" x="60.5" y="-331.8" font-family="arial" font-size="14.00">SDA</text>
<polyline fill="none" stroke="black" points="0,-324 121,-324 "/>
<text text-anchor="middle" x="60.5" y="-308.8" font-family="arial" font-size="14.00">MISO</text>
<polyline fill="none" stroke="black" points="0,-301 121,-301 "/>
<text text-anchor="middle" x="60.5" y="-285.8" font-family="arial" font-size="14.00">MOSI</text>
<polyline fill="none" stroke="black" points="0,-278 121,-278 "/>
<text text-anchor="middle" x="60.5" y="-262.8" font-family="arial" font-size="14.00">SCK</text>
<polyline fill="none" stroke="black" points="0,-255 121,-255 "/>
<text text-anchor="middle" x="60.5" y="-239.8" font-family="arial" font-size="14.00">N/C</text>
<polyline fill="none" stroke="black" points="121,-232 121,-416 "/>
<text text-anchor="middle" x="167.5" y="-400.8" font-family="arial" font-size="14.00">1</text>
<polyline fill="none" stroke="black" points="121,-393 214,-393 "/>
<text text-anchor="middle" x="167.5" y="-377.8" font-family="arial" font-size="14.00">2</text>
<polyline fill="none" stroke="black" points="121,-370 214,-370 "/>
<text text-anchor="middle" x="167.5" y="-354.8" font-family="arial" font-size="14.00">3</text>
<polyline fill="none" stroke="black" points="121,-347 214,-347 "/>
<text text-anchor="middle" x="167.5" y="-331.8" font-family="arial" font-size="14.00">4</text>
<polyline fill="none" stroke="black" points="121,-324 214,-324 "/>
<text text-anchor="middle" x="167.5" y="-308.8" font-family="arial" font-size="14.00">5</text>
<polyline fill="none" stroke="black" points="121,-301 214,-301 "/>
<text text-anchor="middle" x="167.5" y="-285.8" font-family="arial" font-size="14.00">6</text>
<polyline fill="none" stroke="black" points="121,-278 214,-278 "/>
<text text-anchor="middle" x="167.5" y="-262.8" font-family="arial" font-size="14.00">7</text>
<polyline fill="none" stroke="black" points="121,-255 214,-255 "/>
<text text-anchor="middle" x="167.5" y="-239.8" font-family="arial" font-size="14.00">8</text>
</g>
<!-- W1 -->
<g id="node7" class="node"><title>W1</title>
<polygon fill="white" stroke="black" stroke-dasharray="5,2" points="565,-650 358,-650 358,-500 565,-500 565,-650"/>
<polygon fill="none" stroke="black" points="358.5,-627 358.5,-650 565.5,-650 565.5,-627 358.5,-627"/>
<text text-anchor="start" x="450.5" y="-634.8" font-family="arial" font-size="14.00">W1</text>
<polygon fill="none" stroke="black" points="358.5,-604 358.5,-627 382.5,-627 382.5,-604 358.5,-604"/>
<text text-anchor="start" x="362.5" y="-611.8" font-family="arial" font-size="14.00">4x</text>
<polygon fill="none" stroke="black" points="382.5,-604 382.5,-627 520.5,-627 520.5,-604 382.5,-604"/>
<text text-anchor="start" x="386.5" y="-611.8" font-family="arial" font-size="14.00">0.14 mm² (26 AWG)</text>
<polygon fill="none" stroke="black" points="520.5,-604 520.5,-627 565.5,-627 565.5,-604 520.5,-604"/>
<text text-anchor="start" x="524.5" y="-611.8" font-family="arial" font-size="14.00">0.2 m</text>
<text text-anchor="start" x="379" y="-590.8" font-family="arial" font-size="14.00">X1:1</text>
<text text-anchor="start" x="452" y="-590.8" font-family="arial" font-size="14.00">BK</text>
<text text-anchor="start" x="514" y="-590.8" font-family="arial" font-size="14.00">X2:1</text>
<polygon fill="#000000" stroke="none" points="358.5,-583 358.5,-585 565.5,-585 565.5,-583 358.5,-583"/>
<polygon fill="#000000" stroke="none" points="358.5,-581 358.5,-583 565.5,-583 565.5,-581 358.5,-581"/>
<polygon fill="#000000" stroke="none" points="358.5,-579 358.5,-581 565.5,-581 565.5,-579 358.5,-579"/>
<text text-anchor="start" x="379" y="-565.8" font-family="arial" font-size="14.00">X1:2</text>
<text text-anchor="start" x="451" y="-565.8" font-family="arial" font-size="14.00">RD</text>
<text text-anchor="start" x="514" y="-565.8" font-family="arial" font-size="14.00">X2:2</text>
<polygon fill="#000000" stroke="none" points="358.5,-558 358.5,-560 565.5,-560 565.5,-558 358.5,-558"/>
<polygon fill="#ff0000" stroke="none" points="358.5,-556 358.5,-558 565.5,-558 565.5,-556 358.5,-556"/>
<polygon fill="#000000" stroke="none" points="358.5,-554 358.5,-556 565.5,-556 565.5,-554 358.5,-554"/>
<text text-anchor="start" x="379" y="-540.8" font-family="arial" font-size="14.00">X1:3</text>
<text text-anchor="start" x="452.5" y="-540.8" font-family="arial" font-size="14.00">YE</text>
<text text-anchor="start" x="514" y="-540.8" font-family="arial" font-size="14.00">X2:3</text>
<polygon fill="#000000" stroke="none" points="358.5,-533 358.5,-535 565.5,-535 565.5,-533 358.5,-533"/>
<polygon fill="#ffff00" stroke="none" points="358.5,-531 358.5,-533 565.5,-533 565.5,-531 358.5,-531"/>
<polygon fill="#000000" stroke="none" points="358.5,-529 358.5,-531 565.5,-531 565.5,-529 358.5,-529"/>
<text text-anchor="start" x="379" y="-515.8" font-family="arial" font-size="14.00">X1:4</text>
<text text-anchor="start" x="451" y="-515.8" font-family="arial" font-size="14.00">GN</text>
<text text-anchor="start" x="514" y="-515.8" font-family="arial" font-size="14.00">X2:4</text>
<polygon fill="#000000" stroke="none" points="358.5,-508 358.5,-510 565.5,-510 565.5,-508 358.5,-508"/>
<polygon fill="#00ff00" stroke="none" points="358.5,-506 358.5,-508 565.5,-508 565.5,-506 358.5,-506"/>
<polygon fill="#000000" stroke="none" points="358.5,-504 358.5,-506 565.5,-506 565.5,-504 358.5,-504"/>
</g>
<!-- X1&#45;&#45;W1 -->
<g id="edge1" class="edge"><title>X1:p1r:e&#45;&#45;W1:w1:w</title>
<path fill="none" stroke="#000000" stroke-width="2" d="M214,-403C317.31,-405.631 258.486,-582.631 358,-580"/>
<path fill="none" stroke="#000000" stroke-width="2" d="M214,-405C315.412,-405 256.588,-582 358,-582"/>
<path fill="none" stroke="#000000" stroke-width="2" d="M214,-407C313.514,-404.369 254.69,-581.369 358,-584"/>
</g>
<!-- X1&#45;&#45;W1 -->
<g id="edge3" class="edge"><title>X1:p2r:e&#45;&#45;W1:w2:w</title>
<path fill="none" stroke="#000000" stroke-width="2" d="M214,-380C316.625,-382.624 259.176,-557.624 358,-555"/>
<path fill="none" stroke="#ff0000" stroke-width="2" d="M214,-382C314.724,-382 257.276,-557 358,-557"/>
<path fill="none" stroke="#000000" stroke-width="2" d="M214,-384C312.824,-381.376 255.375,-556.376 358,-559"/>
</g>
<!-- X1&#45;&#45;W1 -->
<g id="edge5" class="edge"><title>X1:p3r:e&#45;&#45;W1:w3:w</title>
<path fill="none" stroke="#000000" stroke-width="2" d="M214,-357C315.942,-359.617 259.863,-532.617 358,-530"/>
<path fill="none" stroke="#ffff00" stroke-width="2" d="M214,-359C314.039,-359 257.961,-532 358,-532"/>
<path fill="none" stroke="#000000" stroke-width="2" d="M214,-361C312.137,-358.383 256.058,-531.383 358,-534"/>
</g>
<!-- X1&#45;&#45;W1 -->
<g id="edge7" class="edge"><title>X1:p4r:e&#45;&#45;W1:w4:w</title>
<path fill="none" stroke="#000000" stroke-width="2" d="M214,-333C315.602,-335.613 260.205,-507.613 358,-505"/>
<path fill="none" stroke="#00ff00" stroke-width="2" d="M214,-335C313.698,-335 258.302,-507 358,-507"/>
<path fill="none" stroke="#000000" stroke-width="2" d="M214,-337C311.795,-334.387 256.398,-506.387 358,-509"/>
</g>
<!-- W2 -->
<g id="node8" class="node"><title>W2</title>
<polygon fill="white" stroke="black" stroke-dasharray="5,2" points="565,-476 358,-476 358,-326 565,-326 565,-476"/>
<polygon fill="none" stroke="black" points="358.5,-453 358.5,-476 565.5,-476 565.5,-453 358.5,-453"/>
<text text-anchor="start" x="450.5" y="-460.8" font-family="arial" font-size="14.00">W2</text>
<polygon fill="none" stroke="black" points="358.5,-430 358.5,-453 382.5,-453 382.5,-430 358.5,-430"/>
<text text-anchor="start" x="362.5" y="-437.8" font-family="arial" font-size="14.00">4x</text>
<polygon fill="none" stroke="black" points="382.5,-430 382.5,-453 520.5,-453 520.5,-430 382.5,-430"/>
<text text-anchor="start" x="386.5" y="-437.8" font-family="arial" font-size="14.00">0.14 mm² (26 AWG)</text>
<polygon fill="none" stroke="black" points="520.5,-430 520.5,-453 565.5,-453 565.5,-430 520.5,-430"/>
<text text-anchor="start" x="524.5" y="-437.8" font-family="arial" font-size="14.00">0.4 m</text>
<text text-anchor="start" x="379" y="-416.8" font-family="arial" font-size="14.00">X1:1</text>
<text text-anchor="start" x="452" y="-416.8" font-family="arial" font-size="14.00">BK</text>
<text text-anchor="start" x="514" y="-416.8" font-family="arial" font-size="14.00">X3:1</text>
<polygon fill="#000000" stroke="none" points="358.5,-409 358.5,-411 565.5,-411 565.5,-409 358.5,-409"/>
<polygon fill="#000000" stroke="none" points="358.5,-407 358.5,-409 565.5,-409 565.5,-407 358.5,-407"/>
<polygon fill="#000000" stroke="none" points="358.5,-405 358.5,-407 565.5,-407 565.5,-405 358.5,-405"/>
<text text-anchor="start" x="379" y="-391.8" font-family="arial" font-size="14.00">X1:2</text>
<text text-anchor="start" x="451" y="-391.8" font-family="arial" font-size="14.00">RD</text>
<text text-anchor="start" x="514" y="-391.8" font-family="arial" font-size="14.00">X3:2</text>
<polygon fill="#000000" stroke="none" points="358.5,-384 358.5,-386 565.5,-386 565.5,-384 358.5,-384"/>
<polygon fill="#ff0000" stroke="none" points="358.5,-382 358.5,-384 565.5,-384 565.5,-382 358.5,-382"/>
<polygon fill="#000000" stroke="none" points="358.5,-380 358.5,-382 565.5,-382 565.5,-380 358.5,-380"/>
<text text-anchor="start" x="379" y="-366.8" font-family="arial" font-size="14.00">X1:3</text>
<text text-anchor="start" x="452.5" y="-366.8" font-family="arial" font-size="14.00">YE</text>
<text text-anchor="start" x="514" y="-366.8" font-family="arial" font-size="14.00">X3:3</text>
<polygon fill="#000000" stroke="none" points="358.5,-359 358.5,-361 565.5,-361 565.5,-359 358.5,-359"/>
<polygon fill="#ffff00" stroke="none" points="358.5,-357 358.5,-359 565.5,-359 565.5,-357 358.5,-357"/>
<polygon fill="#000000" stroke="none" points="358.5,-355 358.5,-357 565.5,-357 565.5,-355 358.5,-355"/>
<text text-anchor="start" x="379" y="-341.8" font-family="arial" font-size="14.00">X1:4</text>
<text text-anchor="start" x="451" y="-341.8" font-family="arial" font-size="14.00">GN</text>
<text text-anchor="start" x="514" y="-341.8" font-family="arial" font-size="14.00">X3:4</text>
<polygon fill="#000000" stroke="none" points="358.5,-334 358.5,-336 565.5,-336 565.5,-334 358.5,-334"/>
<polygon fill="#00ff00" stroke="none" points="358.5,-332 358.5,-334 565.5,-334 565.5,-332 358.5,-332"/>
<polygon fill="#000000" stroke="none" points="358.5,-330 358.5,-332 565.5,-332 565.5,-330 358.5,-330"/>
</g>
<!-- X1&#45;&#45;W2 -->
<g id="edge9" class="edge"><title>X1:p1r:e&#45;&#45;W2:w1:w</title>
<path fill="none" stroke="#000000" stroke-width="2" d="M214,-403C278.383,-403.034 294.355,-406.034 358,-406"/>
<path fill="none" stroke="#000000" stroke-width="2" d="M214,-405C278.014,-405 293.986,-408 358,-408"/>
<path fill="none" stroke="#000000" stroke-width="2" d="M214,-407C277.645,-406.966 293.617,-409.966 358,-410"/>
</g>
<!-- X1&#45;&#45;W2 -->
<g id="edge11" class="edge"><title>X1:p2r:e&#45;&#45;W2:w2:w</title>
<path fill="none" stroke="#000000" stroke-width="2" d="M214,-380C278.126,-380.004 294.123,-381.004 358,-381"/>
<path fill="none" stroke="#ff0000" stroke-width="2" d="M214,-382C278.002,-382 293.998,-383 358,-383"/>
<path fill="none" stroke="#000000" stroke-width="2" d="M214,-384C277.877,-383.996 293.874,-384.996 358,-385"/>
</g>
<!-- X1&#45;&#45;W2 -->
<g id="edge13" class="edge"><title>X1:p3r:e&#45;&#45;W2:w3:w</title>
<path fill="none" stroke="#000000" stroke-width="2" d="M214,-357C277.877,-357.004 293.874,-356.004 358,-356"/>
<path fill="none" stroke="#ffff00" stroke-width="2" d="M214,-359C278.002,-359 293.998,-358 358,-358"/>
<path fill="none" stroke="#000000" stroke-width="2" d="M214,-361C278.126,-360.996 294.123,-359.996 358,-360"/>
</g>
<!-- X1&#45;&#45;W2 -->
<g id="edge15" class="edge"><title>X1:p4r:e&#45;&#45;W2:w4:w</title>
<path fill="none" stroke="#000000" stroke-width="2" d="M214,-333C277.758,-333.015 293.746,-331.015 358,-331"/>
<path fill="none" stroke="#00ff00" stroke-width="2" d="M214,-335C278.006,-335 293.994,-333 358,-333"/>
<path fill="none" stroke="#000000" stroke-width="2" d="M214,-337C278.254,-336.985 294.242,-334.985 358,-335"/>
</g>
<!-- W3 -->
<g id="node9" class="node"><title>W3</title>
<polygon fill="white" stroke="black" stroke-dasharray="5,2" points="565,-302 358,-302 358,-152 565,-152 565,-302"/>
<polygon fill="none" stroke="black" points="358.5,-279 358.5,-302 565.5,-302 565.5,-279 358.5,-279"/>
<text text-anchor="start" x="450.5" y="-286.8" font-family="arial" font-size="14.00">W3</text>
<polygon fill="none" stroke="black" points="358.5,-256 358.5,-279 382.5,-279 382.5,-256 358.5,-256"/>
<text text-anchor="start" x="362.5" y="-263.8" font-family="arial" font-size="14.00">4x</text>
<polygon fill="none" stroke="black" points="382.5,-256 382.5,-279 520.5,-279 520.5,-256 382.5,-256"/>
<text text-anchor="start" x="386.5" y="-263.8" font-family="arial" font-size="14.00">0.14 mm² (26 AWG)</text>
<polygon fill="none" stroke="black" points="520.5,-256 520.5,-279 565.5,-279 565.5,-256 520.5,-256"/>
<text text-anchor="start" x="524.5" y="-263.8" font-family="arial" font-size="14.00">0.3 m</text>
<text text-anchor="start" x="379" y="-242.8" font-family="arial" font-size="14.00">X1:1</text>
<text text-anchor="start" x="452.5" y="-242.8" font-family="arial" font-size="14.00">BK</text>
<text text-anchor="start" x="514.5" y="-242.8" font-family="arial" font-size="14.00">X4:1</text>
<polygon fill="#000000" stroke="none" points="358.5,-235 358.5,-237 565.5,-237 565.5,-235 358.5,-235"/>
<polygon fill="#000000" stroke="none" points="358.5,-233 358.5,-235 565.5,-235 565.5,-233 358.5,-233"/>
<polygon fill="#000000" stroke="none" points="358.5,-231 358.5,-233 565.5,-233 565.5,-231 358.5,-231"/>
<text text-anchor="start" x="379" y="-217.8" font-family="arial" font-size="14.00">X1:5</text>
<text text-anchor="start" x="452.5" y="-217.8" font-family="arial" font-size="14.00">BU</text>
<text text-anchor="start" x="514.5" y="-217.8" font-family="arial" font-size="14.00">X4:3</text>
<polygon fill="#000000" stroke="none" points="358.5,-210 358.5,-212 565.5,-212 565.5,-210 358.5,-210"/>
<polygon fill="#0066ff" stroke="none" points="358.5,-208 358.5,-210 565.5,-210 565.5,-208 358.5,-208"/>
<polygon fill="#000000" stroke="none" points="358.5,-206 358.5,-208 565.5,-208 565.5,-206 358.5,-206"/>
<text text-anchor="start" x="379" y="-192.8" font-family="arial" font-size="14.00">X1:6</text>
<text text-anchor="start" x="451" y="-192.8" font-family="arial" font-size="14.00">OG</text>
<text text-anchor="start" x="514.5" y="-192.8" font-family="arial" font-size="14.00">X4:4</text>
<polygon fill="#000000" stroke="none" points="358.5,-185 358.5,-187 565.5,-187 565.5,-185 358.5,-185"/>
<polygon fill="#ff8000" stroke="none" points="358.5,-183 358.5,-185 565.5,-185 565.5,-183 358.5,-183"/>
<polygon fill="#000000" stroke="none" points="358.5,-181 358.5,-183 565.5,-183 565.5,-181 358.5,-181"/>
<text text-anchor="start" x="379" y="-167.8" font-family="arial" font-size="14.00">X1:7</text>
<text text-anchor="start" x="453" y="-167.8" font-family="arial" font-size="14.00">VT</text>
<text text-anchor="start" x="514.5" y="-167.8" font-family="arial" font-size="14.00">X4:5</text>
<polygon fill="#000000" stroke="none" points="358.5,-160 358.5,-162 565.5,-162 565.5,-160 358.5,-160"/>
<polygon fill="#8000ff" stroke="none" points="358.5,-158 358.5,-160 565.5,-160 565.5,-158 358.5,-158"/>
<polygon fill="#000000" stroke="none" points="358.5,-156 358.5,-158 565.5,-158 565.5,-156 358.5,-156"/>
</g>
<!-- X1&#45;&#45;W3 -->
<g id="edge17" class="edge"><title>X1:p1r:e&#45;&#45;W3:w1:w</title>
<path fill="none" stroke="#000000" stroke-width="2" d="M214,-403C311.453,-405.61 256.737,-234.61 358,-232"/>
<path fill="none" stroke="#000000" stroke-width="2" d="M214,-405C313.358,-405 258.642,-234 358,-234"/>
<path fill="none" stroke="#000000" stroke-width="2" d="M214,-407C315.263,-404.39 260.547,-233.39 358,-236"/>
</g>
<!-- X1&#45;&#45;W3 -->
<g id="edge19" class="edge"><title>X1:p5r:e&#45;&#45;W3:w2:w</title>
<path fill="none" stroke="#000000" stroke-width="2" d="M214,-310C290.703,-312.258 277.33,-209.258 358,-207"/>
<path fill="none" stroke="#0066ff" stroke-width="2" d="M214,-312C292.687,-312 279.313,-209 358,-209"/>
<path fill="none" stroke="#000000" stroke-width="2" d="M214,-314C294.67,-311.742 281.297,-208.742 358,-211"/>
</g>
<!-- X1&#45;&#45;W3 -->
<g id="edge21" class="edge"><title>X1:p6r:e&#45;&#45;W3:w3:w</title>
<path fill="none" stroke="#000000" stroke-width="2" d="M214,-287C291.226,-289.272 276.811,-184.272 358,-182"/>
<path fill="none" stroke="#ff8000" stroke-width="2" d="M214,-289C293.207,-289 278.793,-184 358,-184"/>
<path fill="none" stroke="#000000" stroke-width="2" d="M214,-291C295.189,-288.728 280.774,-183.728 358,-186"/>
</g>
<!-- X1&#45;&#45;W3 -->
<g id="edge23" class="edge"><title>X1:p7r:e&#45;&#45;W3:w4:w</title>
<path fill="none" stroke="#000000" stroke-width="2" d="M214,-264C291.755,-266.286 276.286,-159.286 358,-157"/>
<path fill="none" stroke="#8000ff" stroke-width="2" d="M214,-266C293.734,-266 278.266,-159 358,-159"/>
<path fill="none" stroke="#000000" stroke-width="2" d="M214,-268C295.714,-265.714 280.245,-158.714 358,-161"/>
</g>
<!-- X2 -->
<g id="node2" class="node"><title>X2</title>
<polygon fill="white" stroke="black" points="709,-499 709,-637 923,-637 923,-499 709,-499"/>
<text text-anchor="middle" x="816" y="-621.8" font-family="arial" font-size="14.00">X2</text>
<polyline fill="none" stroke="black" points="709,-614 923,-614 "/>
<text text-anchor="middle" x="762" y="-598.8" font-family="arial" font-size="14.00">Molex KK 254</text>
<polyline fill="none" stroke="black" points="815,-591 815,-614 "/>
<text text-anchor="middle" x="845" y="-598.8" font-family="arial" font-size="14.00">female</text>
<polyline fill="none" stroke="black" points="875,-591 875,-614 "/>
<text text-anchor="middle" x="899" y="-598.8" font-family="arial" font-size="14.00">4&#45;pin</text>
<polyline fill="none" stroke="black" points="709,-591 923,-591 "/>
<text text-anchor="middle" x="756.5" y="-575.8" font-family="arial" font-size="14.00">1</text>
<polyline fill="none" stroke="black" points="709,-568 804,-568 "/>
<text text-anchor="middle" x="756.5" y="-552.8" font-family="arial" font-size="14.00">2</text>
<polyline fill="none" stroke="black" points="709,-545 804,-545 "/>
<text text-anchor="middle" x="756.5" y="-529.8" font-family="arial" font-size="14.00">3</text>
<polyline fill="none" stroke="black" points="709,-522 804,-522 "/>
<text text-anchor="middle" x="756.5" y="-506.8" font-family="arial" font-size="14.00">4</text>
<polyline fill="none" stroke="black" points="804,-499 804,-591 "/>
<text text-anchor="middle" x="863.5" y="-575.8" font-family="arial" font-size="14.00">GND</text>
<polyline fill="none" stroke="black" points="804,-568 923,-568 "/>
<text text-anchor="middle" x="863.5" y="-552.8" font-family="arial" font-size="14.00">+5V</text>
<polyline fill="none" stroke="black" points="804,-545 923,-545 "/>
<text text-anchor="middle" x="863.5" y="-529.8" font-family="arial" font-size="14.00">SCL</text>
<polyline fill="none" stroke="black" points="804,-522 923,-522 "/>
<text text-anchor="middle" x="863.5" y="-506.8" font-family="arial" font-size="14.00">SDA</text>
</g>
<!-- X3 -->
<g id="node3" class="node"><title>X3</title>
<polygon fill="white" stroke="black" points="709,-325 709,-463 923,-463 923,-325 709,-325"/>
<text text-anchor="middle" x="816" y="-447.8" font-family="arial" font-size="14.00">X3</text>
<polyline fill="none" stroke="black" points="709,-440 923,-440 "/>
<text text-anchor="middle" x="762" y="-424.8" font-family="arial" font-size="14.00">Molex KK 254</text>
<polyline fill="none" stroke="black" points="815,-417 815,-440 "/>
<text text-anchor="middle" x="845" y="-424.8" font-family="arial" font-size="14.00">female</text>
<polyline fill="none" stroke="black" points="875,-417 875,-440 "/>
<text text-anchor="middle" x="899" y="-424.8" font-family="arial" font-size="14.00">4&#45;pin</text>
<polyline fill="none" stroke="black" points="709,-417 923,-417 "/>
<text text-anchor="middle" x="756.5" y="-401.8" font-family="arial" font-size="14.00">1</text>
<polyline fill="none" stroke="black" points="709,-394 804,-394 "/>
<text text-anchor="middle" x="756.5" y="-378.8" font-family="arial" font-size="14.00">2</text>
<polyline fill="none" stroke="black" points="709,-371 804,-371 "/>
<text text-anchor="middle" x="756.5" y="-355.8" font-family="arial" font-size="14.00">3</text>
<polyline fill="none" stroke="black" points="709,-348 804,-348 "/>
<text text-anchor="middle" x="756.5" y="-332.8" font-family="arial" font-size="14.00">4</text>
<polyline fill="none" stroke="black" points="804,-325 804,-417 "/>
<text text-anchor="middle" x="863.5" y="-401.8" font-family="arial" font-size="14.00">GND</text>
<polyline fill="none" stroke="black" points="804,-394 923,-394 "/>
<text text-anchor="middle" x="863.5" y="-378.8" font-family="arial" font-size="14.00">+5V</text>
<polyline fill="none" stroke="black" points="804,-371 923,-371 "/>
<text text-anchor="middle" x="863.5" y="-355.8" font-family="arial" font-size="14.00">SCL</text>
<polyline fill="none" stroke="black" points="804,-348 923,-348 "/>
<text text-anchor="middle" x="863.5" y="-332.8" font-family="arial" font-size="14.00">SDA</text>
</g>
<!-- X4 -->
<g id="node4" class="node"><title>X4</title>
<polygon fill="white" stroke="black" points="709,-134.5 709,-295.5 923,-295.5 923,-134.5 709,-134.5"/>
<text text-anchor="middle" x="816" y="-280.3" font-family="arial" font-size="14.00">X4</text>
<polyline fill="none" stroke="black" points="709,-272.5 923,-272.5 "/>
<text text-anchor="middle" x="762" y="-257.3" font-family="arial" font-size="14.00">Molex KK 254</text>
<polyline fill="none" stroke="black" points="815,-249.5 815,-272.5 "/>
<text text-anchor="middle" x="845" y="-257.3" font-family="arial" font-size="14.00">female</text>
<polyline fill="none" stroke="black" points="875,-249.5 875,-272.5 "/>
<text text-anchor="middle" x="899" y="-257.3" font-family="arial" font-size="14.00">5&#45;pin</text>
<polyline fill="none" stroke="black" points="709,-249.5 923,-249.5 "/>
<text text-anchor="middle" x="755.5" y="-234.3" font-family="arial" font-size="14.00">1</text>
<polyline fill="none" stroke="black" points="709,-226.5 802,-226.5 "/>
<text text-anchor="middle" x="755.5" y="-211.3" font-family="arial" font-size="14.00">2</text>
<polyline fill="none" stroke="black" points="709,-203.5 802,-203.5 "/>
<text text-anchor="middle" x="755.5" y="-188.3" font-family="arial" font-size="14.00">3</text>
<polyline fill="none" stroke="black" points="709,-180.5 802,-180.5 "/>
<text text-anchor="middle" x="755.5" y="-165.3" font-family="arial" font-size="14.00">4</text>
<polyline fill="none" stroke="black" points="709,-157.5 802,-157.5 "/>
<text text-anchor="middle" x="755.5" y="-142.3" font-family="arial" font-size="14.00">5</text>
<polyline fill="none" stroke="black" points="802,-134.5 802,-249.5 "/>
<text text-anchor="middle" x="862.5" y="-234.3" font-family="arial" font-size="14.00">GND</text>
<polyline fill="none" stroke="black" points="802,-226.5 923,-226.5 "/>
<text text-anchor="middle" x="862.5" y="-211.3" font-family="arial" font-size="14.00">+12V</text>
<polyline fill="none" stroke="black" points="802,-203.5 923,-203.5 "/>
<text text-anchor="middle" x="862.5" y="-188.3" font-family="arial" font-size="14.00">MISO</text>
<polyline fill="none" stroke="black" points="802,-180.5 923,-180.5 "/>
<text text-anchor="middle" x="862.5" y="-165.3" font-family="arial" font-size="14.00">MOSI</text>
<polyline fill="none" stroke="black" points="802,-157.5 923,-157.5 "/>
<text text-anchor="middle" x="862.5" y="-142.3" font-family="arial" font-size="14.00">SCK</text>
</g>
<!-- _F1 -->
<g id="node5" class="node"><title>_F1</title>
<polygon fill="white" stroke="none" points="12,-60 202,-60 202,-96 12,-96 12,-60"/>
<text text-anchor="start" x="15" y="-73.8" font-family="arial" font-size="14.00"> Crimp ferrule, 0.25 mmÂ² &#160;</text>
<text text-anchor="start" x="191" y="-73.8" font-family="arial" font-size="14.00"> &#160;</text>
<polygon fill="none" stroke="black" points="12,-67.5 12,-88.5 202,-88.5 202,-67.5 12,-67.5"/>
</g>
<!-- W4 -->
<g id="node10" class="node"><title>W4</title>
<polygon fill="none" stroke="black" points="565,-128 358,-128 358,-28 565,-28 565,-128"/>
<polygon fill="none" stroke="black" points="358.5,-105 358.5,-128 565.5,-128 565.5,-105 358.5,-105"/>
<text text-anchor="start" x="450.5" y="-112.8" font-family="arial" font-size="14.00">W4</text>
<polygon fill="none" stroke="black" points="358.5,-82 358.5,-105 382.5,-105 382.5,-82 358.5,-82"/>
<text text-anchor="start" x="362.5" y="-89.8" font-family="arial" font-size="14.00">2x</text>
<polygon fill="none" stroke="black" points="382.5,-82 382.5,-105 520.5,-105 520.5,-82 382.5,-82"/>
<text text-anchor="start" x="386.5" y="-89.8" font-family="arial" font-size="14.00">0.25 mm² (24 AWG)</text>
<polygon fill="none" stroke="black" points="520.5,-82 520.5,-105 565.5,-105 565.5,-82 520.5,-82"/>
<text text-anchor="start" x="524.5" y="-89.8" font-family="arial" font-size="14.00">0.3 m</text>
<text text-anchor="start" x="437" y="-68.8" font-family="arial" font-size="14.00">BK</text>
<text text-anchor="start" x="509" y="-68.8" font-family="arial" font-size="14.00">X4:1</text>
<polygon fill="#000000" stroke="none" points="358.5,-61 358.5,-63 565.5,-63 565.5,-61 358.5,-61"/>
<polygon fill="#000000" stroke="none" points="358.5,-59 358.5,-61 565.5,-61 565.5,-59 358.5,-59"/>
<polygon fill="#000000" stroke="none" points="358.5,-57 358.5,-59 565.5,-59 565.5,-57 358.5,-57"/>
<text text-anchor="start" x="436" y="-43.8" font-family="arial" font-size="14.00">RD</text>
<text text-anchor="start" x="509" y="-43.8" font-family="arial" font-size="14.00">X4:2</text>
<polygon fill="#000000" stroke="none" points="358.5,-36 358.5,-38 565.5,-38 565.5,-36 358.5,-36"/>
<polygon fill="#ff0000" stroke="none" points="358.5,-34 358.5,-36 565.5,-36 565.5,-34 358.5,-34"/>
<polygon fill="#000000" stroke="none" points="358.5,-32 358.5,-34 565.5,-34 565.5,-32 358.5,-32"/>
</g>
<!-- _F1&#45;&#45;W4 -->
<g id="edge25" class="edge"><title>_F1:e&#45;&#45;W4:w1:w</title>
<path fill="none" stroke="#000000" stroke-width="2" d="M203,-76C270.869,-76.6577 287.166,-58.6577 358,-58"/>
<path fill="none" stroke="#000000" stroke-width="2" d="M203,-78C272.352,-78 288.648,-60 358,-60"/>
<path fill="none" stroke="#000000" stroke-width="2" d="M203,-80C273.834,-79.3423 290.131,-61.3423 358,-62"/>
</g>
<!-- _F2 -->
<g id="node6" class="node"><title>_F2</title>
<polygon fill="white" stroke="none" points="12,-0 202,-0 202,-36 12,-36 12,-0"/>
<text text-anchor="start" x="15" y="-13.8" font-family="arial" font-size="14.00"> Crimp ferrule, 0.25 mmÂ² &#160;</text>
<text text-anchor="start" x="191" y="-13.8" font-family="arial" font-size="14.00"> &#160;</text>
<polygon fill="none" stroke="black" points="12,-7.5 12,-28.5 202,-28.5 202,-7.5 12,-7.5"/>
</g>
<!-- _F2&#45;&#45;W4 -->
<g id="edge26" class="edge"><title>_F2:e&#45;&#45;W4:w2:w</title>
<path fill="none" stroke="#000000" stroke-width="2" d="M203,-16C273.742,-16.6116 290.138,-33.6116 358,-33"/>
<path fill="none" stroke="#ff0000" stroke-width="2" d="M203,-18C272.302,-18 288.698,-35 358,-35"/>
<path fill="none" stroke="#000000" stroke-width="2" d="M203,-20C270.862,-19.3884 287.258,-36.3884 358,-37"/>
</g>
<!-- W1&#45;&#45;X2 -->
<g id="edge2" class="edge"><title>W1:w1:e&#45;&#45;X2:p1l:w</title>
<path fill="none" stroke="#000000" stroke-width="2" d="M565,-580C628.758,-580.015 644.746,-578.015 709,-578"/>
<path fill="none" stroke="#000000" stroke-width="2" d="M565,-582C629.006,-582 644.994,-580 709,-580"/>
<path fill="none" stroke="#000000" stroke-width="2" d="M565,-584C629.254,-583.985 645.242,-581.985 709,-582"/>
</g>
<!-- W1&#45;&#45;X2 -->
<g id="edge4" class="edge"><title>W1:w2:e&#45;&#45;X2:p2l:w</title>
<path fill="none" stroke="#000000" stroke-width="2" d="M565,-555C628.877,-555.004 644.874,-554.004 709,-554"/>
<path fill="none" stroke="#ff0000" stroke-width="2" d="M565,-557C629.002,-557 644.998,-556 709,-556"/>
<path fill="none" stroke="#000000" stroke-width="2" d="M565,-559C629.126,-558.996 645.123,-557.996 709,-558"/>
</g>
<!-- W1&#45;&#45;X2 -->
<g id="edge6" class="edge"><title>W1:w3:e&#45;&#45;X2:p3l:w</title>
<path fill="none" stroke="#000000" stroke-width="2" d="M565,-530C629.126,-530.004 645.123,-531.004 709,-531"/>
<path fill="none" stroke="#ffff00" stroke-width="2" d="M565,-532C629.002,-532 644.998,-533 709,-533"/>
<path fill="none" stroke="#000000" stroke-width="2" d="M565,-534C628.877,-533.996 644.874,-534.996 709,-535"/>
</g>
<!-- W1&#45;&#45;X2 -->
<g id="edge8" class="edge"><title>W1:w4:e&#45;&#45;X2:p4l:w</title>
<path fill="none" stroke="#000000" stroke-width="2" d="M565,-505C629.383,-505.034 645.355,-508.034 709,-508"/>
<path fill="none" stroke="#00ff00" stroke-width="2" d="M565,-507C629.014,-507 644.986,-510 709,-510"/>
<path fill="none" stroke="#000000" stroke-width="2" d="M565,-509C628.645,-508.966 644.617,-511.966 709,-512"/>
</g>
<!-- W2&#45;&#45;X3 -->
<g id="edge10" class="edge"><title>W2:w1:e&#45;&#45;X3:p1l:w</title>
<path fill="none" stroke="#000000" stroke-width="2" d="M565,-406C628.758,-406.015 644.746,-404.015 709,-404"/>
<path fill="none" stroke="#000000" stroke-width="2" d="M565,-408C629.006,-408 644.994,-406 709,-406"/>
<path fill="none" stroke="#000000" stroke-width="2" d="M565,-410C629.254,-409.985 645.242,-407.985 709,-408"/>
</g>
<!-- W2&#45;&#45;X3 -->
<g id="edge12" class="edge"><title>W2:w2:e&#45;&#45;X3:p2l:w</title>
<path fill="none" stroke="#000000" stroke-width="2" d="M565,-381C628.877,-381.004 644.874,-380.004 709,-380"/>
<path fill="none" stroke="#ff0000" stroke-width="2" d="M565,-383C629.002,-383 644.998,-382 709,-382"/>
<path fill="none" stroke="#000000" stroke-width="2" d="M565,-385C629.126,-384.996 645.123,-383.996 709,-384"/>
</g>
<!-- W2&#45;&#45;X3 -->
<g id="edge14" class="edge"><title>W2:w3:e&#45;&#45;X3:p3l:w</title>
<path fill="none" stroke="#000000" stroke-width="2" d="M565,-356C629.126,-356.004 645.123,-357.004 709,-357"/>
<path fill="none" stroke="#ffff00" stroke-width="2" d="M565,-358C629.002,-358 644.998,-359 709,-359"/>
<path fill="none" stroke="#000000" stroke-width="2" d="M565,-360C628.877,-359.996 644.874,-360.996 709,-361"/>
</g>
<!-- W2&#45;&#45;X3 -->
<g id="edge16" class="edge"><title>W2:w4:e&#45;&#45;X3:p4l:w</title>
<path fill="none" stroke="#000000" stroke-width="2" d="M565,-331C629.383,-331.034 645.355,-334.034 709,-334"/>
<path fill="none" stroke="#00ff00" stroke-width="2" d="M565,-333C629.014,-333 644.986,-336 709,-336"/>
<path fill="none" stroke="#000000" stroke-width="2" d="M565,-335C628.645,-334.966 644.617,-337.966 709,-338"/>
</g>
<!-- W3&#45;&#45;X4 -->
<g id="edge18" class="edge"><title>W3:w1:e&#45;&#45;X4:p1l:w</title>
<path fill="none" stroke="#000000" stroke-width="2" d="M565,-232C629.511,-232.06 645.462,-236.06 709,-236"/>
<path fill="none" stroke="#000000" stroke-width="2" d="M565,-234C629.025,-234 644.975,-238 709,-238"/>
<path fill="none" stroke="#000000" stroke-width="2" d="M565,-236C628.538,-235.94 644.489,-239.94 709,-240"/>
</g>
<!-- W3&#45;&#45;X4 -->
<g id="edge20" class="edge"><title>W3:w2:e&#45;&#45;X4:p3l:w</title>
<path fill="none" stroke="#000000" stroke-width="2" d="M565,-207C627.95,-207.671 643.061,-190.671 709,-190"/>
<path fill="none" stroke="#0066ff" stroke-width="2" d="M565,-209C629.444,-209 644.556,-192 709,-192"/>
<path fill="none" stroke="#000000" stroke-width="2" d="M565,-211C630.939,-210.329 646.05,-193.329 709,-194"/>
</g>
<!-- W3&#45;&#45;X4 -->
<g id="edge22" class="edge"><title>W3:w3:e&#45;&#45;X4:p4l:w</title>
<path fill="none" stroke="#000000" stroke-width="2" d="M565,-182C627.946,-182.572 643.254,-167.572 709,-167"/>
<path fill="none" stroke="#ff8000" stroke-width="2" d="M565,-184C629.346,-184 644.654,-169 709,-169"/>
<path fill="none" stroke="#000000" stroke-width="2" d="M565,-186C630.746,-185.428 646.054,-170.428 709,-171"/>
</g>
<!-- W3&#45;&#45;X4 -->
<g id="edge24" class="edge"><title>W3:w4:e&#45;&#45;X4:p5l:w</title>
<path fill="none" stroke="#000000" stroke-width="2" d="M565,-157C627.974,-157.468 643.454,-144.468 709,-144"/>
<path fill="none" stroke="#8000ff" stroke-width="2" d="M565,-159C629.26,-159 644.74,-146 709,-146"/>
<path fill="none" stroke="#000000" stroke-width="2" d="M565,-161C630.546,-160.532 646.026,-147.532 709,-148"/>
</g>
<!-- W4&#45;&#45;X4 -->
<g id="edge27" class="edge"><title>W4:w1:e&#45;&#45;X4:p1l:w</title>
<path fill="none" stroke="#000000" stroke-width="2" d="M565,-58C668.654,-60.6342 609.139,-238.634 709,-236"/>
<path fill="none" stroke="#000000" stroke-width="2" d="M565,-60C666.757,-60 607.243,-238 709,-238"/>
<path fill="none" stroke="#000000" stroke-width="2" d="M565,-62C664.861,-59.3658 605.346,-237.366 709,-240"/>
</g>
<!-- W4&#45;&#45;X4 -->
<g id="edge28" class="edge"><title>W4:w2:e&#45;&#45;X4:p2l:w</title>
<path fill="none" stroke="#000000" stroke-width="2" d="M565,-33C669.344,-35.641 608.445,-215.641 709,-213"/>
<path fill="none" stroke="#ff0000" stroke-width="2" d="M565,-35C667.45,-35 606.55,-215 709,-215"/>
<path fill="none" stroke="#000000" stroke-width="2" d="M565,-37C665.555,-34.359 604.656,-214.359 709,-217"/>
</g>
</g>
</svg>
