<?xml version="1.0" encoding="UTF-8" standalone="no"?>
<!DOCTYPE svg PUBLIC "-//W3C//DTD SVG 1.1//EN"
 "http://www.w3.org/Graphics/SVG/1.1/DTD/svg11.dtd">
<!-- Generated by graphviz version 2.44.0 (20200408.0750)
 -->
<!-- Pages: 1 -->
<svg width="858pt" height="763pt"
 viewBox="0.00 0.00 858.00 763.00" xmlns="http://www.w3.org/2000/svg" xmlns:xlink="http://www.w3.org/1999/xlink">
<g id="graph0" class="graph" transform="scale(1 1) rotate(0) translate(4 759)">
<polygon fill="white" stroke="transparent" points="-4,4 -4,-759 854,-759 854,4 -4,4"/>
<!-- X1 -->
<g id="node1" class="node">
<title>X1</title>
<polygon fill="white" stroke="transparent" points="182,-522 0,-522 0,-292 182,-292 182,-522"/>
<polygon fill="none" stroke="black" points="0,-499 0,-522 182,-522 182,-499 0,-499"/>
<text text-anchor="start" x="82.5" y="-506.8" font-family="arial" font-size="14.00">X1</text>
<polygon fill="none" stroke="black" points="0,-476 0,-499 93,-499 93,-476 0,-476"/>
<text text-anchor="start" x="4" y="-483.8" font-family="arial" font-size="14.00">Molex KK 254</text>
<polygon fill="none" stroke="black" points="93,-476 93,-499 143,-499 143,-476 93,-476"/>
<text text-anchor="start" x="97" y="-483.8" font-family="arial" font-size="14.00">female</text>
<polygon fill="none" stroke="black" points="143,-476 143,-499 182,-499 182,-476 143,-476"/>
<text text-anchor="start" x="147" y="-483.8" font-family="arial" font-size="14.00">8&#45;pin</text>
<polygon fill="none" stroke="black" points="0,-453 0,-476 106,-476 106,-453 0,-453"/>
<text text-anchor="start" x="37.5" y="-460.8" font-family="arial" font-size="14.00">GND</text>
<polygon fill="none" stroke="black" points="106,-453 106,-476 182,-476 182,-453 106,-453"/>
<text text-anchor="start" x="140" y="-460.8" font-family="arial" font-size="14.00">1</text>
<polygon fill="none" stroke="black" points="0,-430 0,-453 106,-453 106,-430 0,-430"/>
<text text-anchor="start" x="40.5" y="-437.8" font-family="arial" font-size="14.00">+5V</text>
<polygon fill="none" stroke="black" points="106,-430 106,-453 182,-453 182,-430 106,-430"/>
<text text-anchor="start" x="140" y="-437.8" font-family="arial" font-size="14.00">2</text>
<polygon fill="none" stroke="black" points="0,-407 0,-430 106,-430 106,-407 0,-407"/>
<text text-anchor="start" x="39.5" y="-414.8" font-family="arial" font-size="14.00">SCL</text>
<polygon fill="none" stroke="black" points="106,-407 106,-430 182,-430 182,-407 106,-407"/>
<text text-anchor="start" x="140" y="-414.8" font-family="arial" font-size="14.00">3</text>
<polygon fill="none" stroke="black" points="0,-384 0,-407 106,-407 106,-384 0,-384"/>
<text text-anchor="start" x="39" y="-391.8" font-family="arial" font-size="14.00">SDA</text>
<polygon fill="none" stroke="black" points="106,-384 106,-407 182,-407 182,-384 106,-384"/>
<text text-anchor="start" x="140" y="-391.8" font-family="arial" font-size="14.00">4</text>
<polygon fill="none" stroke="black" points="0,-361 0,-384 106,-384 106,-361 0,-361"/>
<text text-anchor="start" x="34.5" y="-368.8" font-family="arial" font-size="14.00">MISO</text>
<polygon fill="none" stroke="black" points="106,-361 106,-384 182,-384 182,-361 106,-361"/>
<text text-anchor="start" x="140" y="-368.8" font-family="arial" font-size="14.00">5</text>
<polygon fill="none" stroke="black" points="0,-338 0,-361 106,-361 106,-338 0,-338"/>
<text text-anchor="start" x="34.5" y="-345.8" font-family="arial" font-size="14.00">MOSI</text>
<polygon fill="none" stroke="black" points="106,-338 106,-361 182,-361 182,-338 106,-338"/>
<text text-anchor="start" x="140" y="-345.8" font-family="arial" font-size="14.00">6</text>
<polygon fill="none" stroke="black" points="0,-315 0,-338 106,-338 106,-315 0,-315"/>
<text text-anchor="start" x="39" y="-322.8" font-family="arial" font-size="14.00">SCK</text>
<polygon fill="none" stroke="black" points="106,-315 106,-338 182,-338 182,-315 106,-315"/>
<text text-anchor="start" x="140" y="-322.8" font-family="arial" font-size="14.00">7</text>
<polygon fill="none" stroke="black" points="0,-292 0,-315 106,-315 106,-292 0,-292"/>
<text text-anchor="start" x="41" y="-299.8" font-family="arial" font-size="14.00">N/C</text>
<polygon fill="none" stroke="black" points="106,-292 106,-315 182,-315 182,-292 106,-292"/>
<text text-anchor="start" x="140" y="-299.8" font-family="arial" font-size="14.00">8</text>
</g>
<!-- W1 -->
<g id="node7" class="node">
<title>W1</title>
<polygon fill="white" stroke="black" stroke-dasharray="5,2" points="524,-755 326,-755 326,-575 524,-575 524,-755"/>
<polygon fill="none" stroke="black" points="326,-732 326,-755 524,-755 524,-732 326,-732"/>
<text text-anchor="start" x="414" y="-739.8" font-family="arial" font-size="14.00">W1</text>
<polygon fill="none" stroke="black" points="326,-709 326,-732 349,-732 349,-709 326,-709"/>
<text text-anchor="start" x="330" y="-716.8" font-family="arial" font-size="14.00">4x</text>
<polygon fill="none" stroke="black" points="349,-709 349,-732 481,-732 481,-709 349,-709"/>
<text text-anchor="start" x="353" y="-716.8" font-family="arial" font-size="14.00">0.14 mm² (26 AWG)</text>
<polygon fill="none" stroke="black" points="481,-709 481,-732 524,-732 524,-709 481,-709"/>
<text text-anchor="start" x="485" y="-716.8" font-family="arial" font-size="14.00">0.2 m</text>
<text text-anchor="start" x="423" y="-697.8" font-family="arial" font-size="14.00"> </text>
<text text-anchor="start" x="346" y="-680.8" font-family="arial" font-size="14.00">X1:1</text>
<text text-anchor="start" x="415.5" y="-680.8" font-family="arial" font-size="14.00">BK</text>
<text text-anchor="start" x="476" y="-680.8" font-family="arial" font-size="14.00">X2:1</text>
<polygon fill="#000000" stroke="transparent" points="326,-673 326,-675 524,-675 524,-673 326,-673"/>
<polygon fill="#000000" stroke="transparent" points="326,-671 326,-673 524,-673 524,-671 326,-671"/>
<polygon fill="#000000" stroke="transparent" points="326,-669 326,-671 524,-671 524,-669 326,-669"/>
<text text-anchor="start" x="346" y="-655.8" font-family="arial" font-size="14.00">X1:2</text>
<text text-anchor="start" x="415" y="-655.8" font-family="arial" font-size="14.00">RD</text>
<text text-anchor="start" x="476" y="-655.8" font-family="arial" font-size="14.00">X2:2</text>
<polygon fill="#000000" stroke="transparent" points="326,-648 326,-650 524,-650 524,-648 326,-648"/>
<polygon fill="#ff0000" stroke="transparent" points="326,-646 326,-648 524,-648 524,-646 326,-646"/>
<polygon fill="#000000" stroke="transparent" points="326,-644 326,-646 524,-646 524,-644 326,-644"/>
<text text-anchor="start" x="346" y="-630.8" font-family="arial" font-size="14.00">X1:3</text>
<text text-anchor="start" x="415.5" y="-630.8" font-family="arial" font-size="14.00">YE</text>
<text text-anchor="start" x="476" y="-630.8" font-family="arial" font-size="14.00">X2:3</text>
<polygon fill="#000000" stroke="transparent" points="326,-623 326,-625 524,-625 524,-623 326,-623"/>
<polygon fill="#ffff00" stroke="transparent" points="326,-621 326,-623 524,-623 524,-621 326,-621"/>
<polygon fill="#000000" stroke="transparent" points="326,-619 326,-621 524,-621 524,-619 326,-619"/>
<text text-anchor="start" x="346" y="-605.8" font-family="arial" font-size="14.00">X1:4</text>
<text text-anchor="start" x="414" y="-605.8" font-family="arial" font-size="14.00">GN</text>
<text text-anchor="start" x="476" y="-605.8" font-family="arial" font-size="14.00">X2:4</text>
<polygon fill="#000000" stroke="transparent" points="326,-598 326,-600 524,-600 524,-598 326,-598"/>
<polygon fill="#00ff00" stroke="transparent" points="326,-596 326,-598 524,-598 524,-596 326,-596"/>
<polygon fill="#000000" stroke="transparent" points="326,-594 326,-596 524,-596 524,-594 326,-594"/>
<text text-anchor="start" x="358" y="-580.8" font-family="arial" font-size="14.00"> </text>
</g>
<!-- X1&#45;&#45;W1 -->
<g id="edge1" class="edge">
<title>X1:e&#45;&#45;W1:w</title>
<path fill="none" stroke="#000000" stroke-width="2" d="M182,-463C295.94,-465.72 215.79,-672.72 326,-670"/>
<path fill="none" stroke="#000000" stroke-width="2" d="M182,-465C294.07,-465 213.93,-672 326,-672"/>
<path fill="none" stroke="#000000" stroke-width="2" d="M182,-467C292.21,-464.28 212.06,-671.28 326,-674"/>
</g>
<!-- X1&#45;&#45;W1 -->
<g id="edge3" class="edge">
<title>X1:e&#45;&#45;W1:w</title>
<path fill="none" stroke="#000000" stroke-width="2" d="M182,-440C295.21,-442.72 216.52,-647.72 326,-645"/>
<path fill="none" stroke="#ff0000" stroke-width="2" d="M182,-442C293.34,-442 214.66,-647 326,-647"/>
<path fill="none" stroke="#000000" stroke-width="2" d="M182,-444C291.48,-441.28 212.79,-646.28 326,-649"/>
</g>
<!-- X1&#45;&#45;W1 -->
<g id="edge5" class="edge">
<title>X1:e&#45;&#45;W1:w</title>
<path fill="none" stroke="#000000" stroke-width="2" d="M182,-417C294.49,-419.71 217.25,-622.71 326,-620"/>
<path fill="none" stroke="#ffff00" stroke-width="2" d="M182,-419C292.62,-419 215.38,-622 326,-622"/>
<path fill="none" stroke="#000000" stroke-width="2" d="M182,-421C290.75,-418.29 213.51,-621.29 326,-624"/>
</g>
<!-- X1&#45;&#45;W1 -->
<g id="edge7" class="edge">
<title>X1:e&#45;&#45;W1:w</title>
<path fill="none" stroke="#000000" stroke-width="2" d="M182,-393C294.12,-395.71 217.62,-597.71 326,-595"/>
<path fill="none" stroke="#00ff00" stroke-width="2" d="M182,-395C292.25,-395 215.75,-597 326,-597"/>
<path fill="none" stroke="#000000" stroke-width="2" d="M182,-397C290.38,-394.29 213.88,-596.29 326,-599"/>
</g>
<!-- W2 -->
<g id="node8" class="node">
<title>W2</title>
<polygon fill="white" stroke="black" stroke-dasharray="5,2" points="524,-551 326,-551 326,-371 524,-371 524,-551"/>
<polygon fill="none" stroke="black" points="326,-528 326,-551 524,-551 524,-528 326,-528"/>
<text text-anchor="start" x="414" y="-535.8" font-family="arial" font-size="14.00">W2</text>
<polygon fill="none" stroke="black" points="326,-505 326,-528 349,-528 349,-505 326,-505"/>
<text text-anchor="start" x="330" y="-512.8" font-family="arial" font-size="14.00">4x</text>
<polygon fill="none" stroke="black" points="349,-505 349,-528 481,-528 481,-505 349,-505"/>
<text text-anchor="start" x="353" y="-512.8" font-family="arial" font-size="14.00">0.14 mm² (26 AWG)</text>
<polygon fill="none" stroke="black" points="481,-505 481,-528 524,-528 524,-505 481,-505"/>
<text text-anchor="start" x="485" y="-512.8" font-family="arial" font-size="14.00">0.4 m</text>
<text text-anchor="start" x="423" y="-493.8" font-family="arial" font-size="14.00"> </text>
<text text-anchor="start" x="346" y="-476.8" font-family="arial" font-size="14.00">X1:1</text>
<text text-anchor="start" x="415.5" y="-476.8" font-family="arial" font-size="14.00">BK</text>
<text text-anchor="start" x="476" y="-476.8" font-family="arial" font-size="14.00">X3:1</text>
<polygon fill="#000000" stroke="transparent" points="326,-469 326,-471 524,-471 524,-469 326,-469"/>
<polygon fill="#000000" stroke="transparent" points="326,-467 326,-469 524,-469 524,-467 326,-467"/>
<polygon fill="#000000" stroke="transparent" points="326,-465 326,-467 524,-467 524,-465 326,-465"/>
<text text-anchor="start" x="346" y="-451.8" font-family="arial" font-size="14.00">X1:2</text>
<text text-anchor="start" x="415" y="-451.8" font-family="arial" font-size="14.00">RD</text>
<text text-anchor="start" x="476" y="-451.8" font-family="arial" font-size="14.00">X3:2</text>
<polygon fill="#000000" stroke="transparent" points="326,-444 326,-446 524,-446 524,-444 326,-444"/>
<polygon fill="#ff0000" stroke="transparent" points="326,-442 326,-444 524,-444 524,-442 326,-442"/>
<polygon fill="#000000" stroke="transparent" points="326,-440 326,-442 524,-442 524,-440 326,-440"/>
<text text-anchor="start" x="346" y="-426.8" font-family="arial" font-size="14.00">X1:3</text>
<text text-anchor="start" x="415.5" y="-426.8" font-family="arial" font-size="14.00">YE</text>
<text text-anchor="start" x="476" y="-426.8" font-family="arial" font-size="14.00">X3:3</text>
<polygon fill="#000000" stroke="transparent" points="326,-419 326,-421 524,-421 524,-419 326,-419"/>
<polygon fill="#ffff00" stroke="transparent" points="326,-417 326,-419 524,-419 524,-417 326,-417"/>
<polygon fill="#000000" stroke="transparent" points="326,-415 326,-417 524,-417 524,-415 326,-415"/>
<text text-anchor="start" x="346" y="-401.8" font-family="arial" font-size="14.00">X1:4</text>
<text text-anchor="start" x="414" y="-401.8" font-family="arial" font-size="14.00">GN</text>
<text text-anchor="start" x="476" y="-401.8" font-family="arial" font-size="14.00">X3:4</text>
<polygon fill="#000000" stroke="transparent" points="326,-394 326,-396 524,-396 524,-394 326,-394"/>
<polygon fill="#00ff00" stroke="transparent" points="326,-392 326,-394 524,-394 524,-392 326,-392"/>
<polygon fill="#000000" stroke="transparent" points="326,-390 326,-392 524,-392 524,-390 326,-390"/>
<text text-anchor="start" x="358" y="-376.8" font-family="arial" font-size="14.00"> </text>
</g>
<!-- X1&#45;&#45;W2 -->
<g id="edge9" class="edge">
<title>X1:e&#45;&#45;W2:w</title>
<path fill="none" stroke="#000000" stroke-width="2" d="M182,-463C246.38,-463.03 262.36,-466.03 326,-466"/>
<path fill="none" stroke="#000000" stroke-width="2" d="M182,-465C246.01,-465 261.99,-468 326,-468"/>
<path fill="none" stroke="#000000" stroke-width="2" d="M182,-467C245.64,-466.97 261.62,-469.97 326,-470"/>
</g>
<!-- X1&#45;&#45;W2 -->
<g id="edge11" class="edge">
<title>X1:e&#45;&#45;W2:w</title>
<path fill="none" stroke="#000000" stroke-width="2" d="M182,-440C246.13,-440 262.12,-441 326,-441"/>
<path fill="none" stroke="#ff0000" stroke-width="2" d="M182,-442C246,-442 262,-443 326,-443"/>
<path fill="none" stroke="#000000" stroke-width="2" d="M182,-444C245.88,-444 261.87,-445 326,-445"/>
</g>
<!-- X1&#45;&#45;W2 -->
<g id="edge13" class="edge">
<title>X1:e&#45;&#45;W2:w</title>
<path fill="none" stroke="#000000" stroke-width="2" d="M182,-417C245.88,-417 261.87,-416 326,-416"/>
<path fill="none" stroke="#ffff00" stroke-width="2" d="M182,-419C246,-419 262,-418 326,-418"/>
<path fill="none" stroke="#000000" stroke-width="2" d="M182,-421C246.13,-421 262.12,-420 326,-420"/>
</g>
<!-- X1&#45;&#45;W2 -->
<g id="edge15" class="edge">
<title>X1:e&#45;&#45;W2:w</title>
<path fill="none" stroke="#000000" stroke-width="2" d="M182,-393C245.76,-393.02 261.75,-391.02 326,-391"/>
<path fill="none" stroke="#00ff00" stroke-width="2" d="M182,-395C246.01,-395 261.99,-393 326,-393"/>
<path fill="none" stroke="#000000" stroke-width="2" d="M182,-397C246.25,-396.98 262.24,-394.98 326,-395"/>
</g>
<!-- W3 -->
<g id="node9" class="node">
<title>W3</title>
<polygon fill="white" stroke="black" stroke-dasharray="5,2" points="524,-347 326,-347 326,-167 524,-167 524,-347"/>
<polygon fill="none" stroke="black" points="326,-324 326,-347 524,-347 524,-324 326,-324"/>
<text text-anchor="start" x="414" y="-331.8" font-family="arial" font-size="14.00">W3</text>
<polygon fill="none" stroke="black" points="326,-301 326,-324 349,-324 349,-301 326,-301"/>
<text text-anchor="start" x="330" y="-308.8" font-family="arial" font-size="14.00">4x</text>
<polygon fill="none" stroke="black" points="349,-301 349,-324 481,-324 481,-301 349,-301"/>
<text text-anchor="start" x="353" y="-308.8" font-family="arial" font-size="14.00">0.14 mm² (26 AWG)</text>
<polygon fill="none" stroke="black" points="481,-301 481,-324 524,-324 524,-301 481,-301"/>
<text text-anchor="start" x="485" y="-308.8" font-family="arial" font-size="14.00">0.3 m</text>
<text text-anchor="start" x="423" y="-289.8" font-family="arial" font-size="14.00"> </text>
<text text-anchor="start" x="346" y="-272.8" font-family="arial" font-size="14.00">X1:1</text>
<text text-anchor="start" x="416" y="-272.8" font-family="arial" font-size="14.00">BK</text>
<text text-anchor="start" x="476.5" y="-272.8" font-family="arial" font-size="14.00">X4:1</text>
<polygon fill="#000000" stroke="transparent" points="326,-265 326,-267 524,-267 524,-265 326,-265"/>
<polygon fill="#000000" stroke="transparent" points="326,-263 326,-265 524,-265 524,-263 326,-263"/>
<polygon fill="#000000" stroke="transparent" points="326,-261 326,-263 524,-263 524,-261 326,-261"/>
<text text-anchor="start" x="346" y="-247.8" font-family="arial" font-size="14.00">X1:5</text>
<text text-anchor="start" x="416" y="-247.8" font-family="arial" font-size="14.00">BU</text>
<text text-anchor="start" x="476.5" y="-247.8" font-family="arial" font-size="14.00">X4:3</text>
<polygon fill="#000000" stroke="transparent" points="326,-240 326,-242 524,-242 524,-240 326,-240"/>
<polygon fill="#0066ff" stroke="transparent" points="326,-238 326,-240 524,-240 524,-238 326,-238"/>
<polygon fill="#000000" stroke="transparent" points="326,-236 326,-238 524,-238 524,-236 326,-236"/>
<text text-anchor="start" x="346" y="-222.8" font-family="arial" font-size="14.00">X1:6</text>
<text text-anchor="start" x="414" y="-222.8" font-family="arial" font-size="14.00">OG</text>
<text text-anchor="start" x="476.5" y="-222.8" font-family="arial" font-size="14.00">X4:4</text>
<polygon fill="#000000" stroke="transparent" points="326,-215 326,-217 524,-217 524,-215 326,-215"/>
<polygon fill="#ff8000" stroke="transparent" points="326,-213 326,-215 524,-215 524,-213 326,-213"/>
<polygon fill="#000000" stroke="transparent" points="326,-211 326,-213 524,-213 524,-211 326,-211"/>
<text text-anchor="start" x="346" y="-197.8" font-family="arial" font-size="14.00">X1:7</text>
<text text-anchor="start" x="416.5" y="-197.8" font-family="arial" font-size="14.00">VT</text>
<text text-anchor="start" x="476.5" y="-197.8" font-family="arial" font-size="14.00">X4:5</text>
<polygon fill="#000000" stroke="transparent" points="326,-190 326,-192 524,-192 524,-190 326,-190"/>
<polygon fill="#8000ff" stroke="transparent" points="326,-188 326,-190 524,-190 524,-188 326,-188"/>
<polygon fill="#000000" stroke="transparent" points="326,-186 326,-188 524,-188 524,-186 326,-186"/>
<text text-anchor="start" x="358" y="-172.8" font-family="arial" font-size="14.00"> </text>
</g>
<!-- X1&#45;&#45;W3 -->
<g id="edge17" class="edge">
<title>X1:e&#45;&#45;W3:w</title>
<path fill="none" stroke="#000000" stroke-width="2" d="M182,-463C290.02,-465.71 214.24,-264.71 326,-262"/>
<path fill="none" stroke="#000000" stroke-width="2" d="M182,-465C291.89,-465 216.11,-264 326,-264"/>
<path fill="none" stroke="#000000" stroke-width="2" d="M182,-467C293.76,-464.29 217.98,-263.29 326,-266"/>
</g>
<!-- X1&#45;&#45;W3 -->
<g id="edge19" class="edge">
<title>X1:e&#45;&#45;W3:w</title>
<path fill="none" stroke="#000000" stroke-width="2" d="M182,-370C267.17,-372.44 236.93,-239.44 326,-237"/>
<path fill="none" stroke="#0066ff" stroke-width="2" d="M182,-372C269.12,-372 238.88,-239 326,-239"/>
<path fill="none" stroke="#000000" stroke-width="2" d="M182,-374C271.07,-371.56 240.83,-238.56 326,-241"/>
</g>
<!-- X1&#45;&#45;W3 -->
<g id="edge21" class="edge">
<title>X1:e&#45;&#45;W3:w</title>
<path fill="none" stroke="#000000" stroke-width="2" d="M182,-347C267.78,-349.45 236.33,-214.45 326,-212"/>
<path fill="none" stroke="#ff8000" stroke-width="2" d="M182,-349C269.73,-349 238.27,-214 326,-214"/>
<path fill="none" stroke="#000000" stroke-width="2" d="M182,-351C271.67,-348.55 240.22,-213.55 326,-216"/>
</g>
<!-- X1&#45;&#45;W3 -->
<g id="edge23" class="edge">
<title>X1:e&#45;&#45;W3:w</title>
<path fill="none" stroke="#000000" stroke-width="2" d="M182,-324C268.39,-326.46 235.72,-189.46 326,-187"/>
<path fill="none" stroke="#8000ff" stroke-width="2" d="M182,-326C270.34,-326 237.66,-189 326,-189"/>
<path fill="none" stroke="#000000" stroke-width="2" d="M182,-328C272.28,-325.54 239.61,-188.54 326,-191"/>
</g>
<!-- X2 -->
<g id="node2" class="node">
<title>X2</title>
<polygon fill="white" stroke="transparent" points="850,-727 668,-727 668,-589 850,-589 850,-727"/>
<polygon fill="none" stroke="black" points="668,-704 668,-727 850,-727 850,-704 668,-704"/>
<text text-anchor="start" x="750.5" y="-711.8" font-family="arial" font-size="14.00">X2</text>
<polygon fill="none" stroke="black" points="668,-681 668,-704 761,-704 761,-681 668,-681"/>
<text text-anchor="start" x="672" y="-688.8" font-family="arial" font-size="14.00">Molex KK 254</text>
<polygon fill="none" stroke="black" points="761,-681 761,-704 811,-704 811,-681 761,-681"/>
<text text-anchor="start" x="765" y="-688.8" font-family="arial" font-size="14.00">female</text>
<polygon fill="none" stroke="black" points="811,-681 811,-704 850,-704 850,-681 811,-681"/>
<text text-anchor="start" x="815" y="-688.8" font-family="arial" font-size="14.00">4&#45;pin</text>
<polygon fill="none" stroke="black" points="668,-658 668,-681 748,-681 748,-658 668,-658"/>
<text text-anchor="start" x="704" y="-665.8" font-family="arial" font-size="14.00">1</text>
<polygon fill="none" stroke="black" points="748,-658 748,-681 850,-681 850,-658 748,-658"/>
<text text-anchor="start" x="783.5" y="-665.8" font-family="arial" font-size="14.00">GND</text>
<polygon fill="none" stroke="black" points="668,-635 668,-658 748,-658 748,-635 668,-635"/>
<text text-anchor="start" x="704" y="-642.8" font-family="arial" font-size="14.00">2</text>
<polygon fill="none" stroke="black" points="748,-635 748,-658 850,-658 850,-635 748,-635"/>
<text text-anchor="start" x="786.5" y="-642.8" font-family="arial" font-size="14.00">+5V</text>
<polygon fill="none" stroke="black" points="668,-612 668,-635 748,-635 748,-612 668,-612"/>
<text text-anchor="start" x="704" y="-619.8" font-family="arial" font-size="14.00">3</text>
<polygon fill="none" stroke="black" points="748,-612 748,-635 850,-635 850,-612 748,-612"/>
<text text-anchor="start" x="785.5" y="-619.8" font-family="arial" font-size="14.00">SCL</text>
<polygon fill="none" stroke="black" points="668,-589 668,-612 748,-612 748,-589 668,-589"/>
<text text-anchor="start" x="704" y="-596.8" font-family="arial" font-size="14.00">4</text>
<polygon fill="none" stroke="black" points="748,-589 748,-612 850,-612 850,-589 748,-589"/>
<text text-anchor="start" x="785" y="-596.8" font-family="arial" font-size="14.00">SDA</text>
</g>
<!-- X3 -->
<g id="node3" class="node">
<title>X3</title>
<polygon fill="white" stroke="transparent" points="850,-523 668,-523 668,-385 850,-385 850,-523"/>
<polygon fill="none" stroke="black" points="668,-500 668,-523 850,-523 850,-500 668,-500"/>
<text text-anchor="start" x="750.5" y="-507.8" font-family="arial" font-size="14.00">X3</text>
<polygon fill="none" stroke="black" points="668,-477 668,-500 761,-500 761,-477 668,-477"/>
<text text-anchor="start" x="672" y="-484.8" font-family="arial" font-size="14.00">Molex KK 254</text>
<polygon fill="none" stroke="black" points="761,-477 761,-500 811,-500 811,-477 761,-477"/>
<text text-anchor="start" x="765" y="-484.8" font-family="arial" font-size="14.00">female</text>
<polygon fill="none" stroke="black" points="811,-477 811,-500 850,-500 850,-477 811,-477"/>
<text text-anchor="start" x="815" y="-484.8" font-family="arial" font-size="14.00">4&#45;pin</text>
<polygon fill="none" stroke="black" points="668,-454 668,-477 748,-477 748,-454 668,-454"/>
<text text-anchor="start" x="704" y="-461.8" font-family="arial" font-size="14.00">1</text>
<polygon fill="none" stroke="black" points="748,-454 748,-477 850,-477 850,-454 748,-454"/>
<text text-anchor="start" x="783.5" y="-461.8" font-family="arial" font-size="14.00">GND</text>
<polygon fill="none" stroke="black" points="668,-431 668,-454 748,-454 748,-431 668,-431"/>
<text text-anchor="start" x="704" y="-438.8" font-family="arial" font-size="14.00">2</text>
<polygon fill="none" stroke="black" points="748,-431 748,-454 850,-454 850,-431 748,-431"/>
<text text-anchor="start" x="786.5" y="-438.8" font-family="arial" font-size="14.00">+5V</text>
<polygon fill="none" stroke="black" points="668,-408 668,-431 748,-431 748,-408 668,-408"/>
<text text-anchor="start" x="704" y="-415.8" font-family="arial" font-size="14.00">3</text>
<polygon fill="none" stroke="black" points="748,-408 748,-431 850,-431 850,-408 748,-408"/>
<text text-anchor="start" x="785.5" y="-415.8" font-family="arial" font-size="14.00">SCL</text>
<polygon fill="none" stroke="black" points="668,-385 668,-408 748,-408 748,-385 668,-385"/>
<text text-anchor="start" x="704" y="-392.8" font-family="arial" font-size="14.00">4</text>
<polygon fill="none" stroke="black" points="748,-385 748,-408 850,-408 850,-385 748,-385"/>
<text text-anchor="start" x="785" y="-392.8" font-family="arial" font-size="14.00">SDA</text>
</g>
<!-- X4 -->
<g id="node4" class="node">
<title>X4</title>
<polygon fill="white" stroke="transparent" points="850,-330.5 668,-330.5 668,-169.5 850,-169.5 850,-330.5"/>
<polygon fill="none" stroke="black" points="668,-307 668,-330 850,-330 850,-307 668,-307"/>
<text text-anchor="start" x="750.5" y="-314.8" font-family="arial" font-size="14.00">X4</text>
<polygon fill="none" stroke="black" points="668,-284 668,-307 761,-307 761,-284 668,-284"/>
<text text-anchor="start" x="672" y="-291.8" font-family="arial" font-size="14.00">Molex KK 254</text>
<polygon fill="none" stroke="black" points="761,-284 761,-307 811,-307 811,-284 761,-284"/>
<text text-anchor="start" x="765" y="-291.8" font-family="arial" font-size="14.00">female</text>
<polygon fill="none" stroke="black" points="811,-284 811,-307 850,-307 850,-284 811,-284"/>
<text text-anchor="start" x="815" y="-291.8" font-family="arial" font-size="14.00">5&#45;pin</text>
<polygon fill="none" stroke="black" points="668,-261 668,-284 745,-284 745,-261 668,-261"/>
<text text-anchor="start" x="702.5" y="-268.8" font-family="arial" font-size="14.00">1</text>
<polygon fill="none" stroke="black" points="745,-261 745,-284 850,-284 850,-261 745,-261"/>
<text text-anchor="start" x="782" y="-268.8" font-family="arial" font-size="14.00">GND</text>
<polygon fill="none" stroke="black" points="668,-238 668,-261 745,-261 745,-238 668,-238"/>
<text text-anchor="start" x="702.5" y="-245.8" font-family="arial" font-size="14.00">2</text>
<polygon fill="none" stroke="black" points="745,-238 745,-261 850,-261 850,-238 745,-238"/>
<text text-anchor="start" x="781" y="-245.8" font-family="arial" font-size="14.00">+12V</text>
<polygon fill="none" stroke="black" points="668,-215 668,-238 745,-238 745,-215 668,-215"/>
<text text-anchor="start" x="702.5" y="-222.8" font-family="arial" font-size="14.00">3</text>
<polygon fill="none" stroke="black" points="745,-215 745,-238 850,-238 850,-215 745,-215"/>
<text text-anchor="start" x="779" y="-222.8" font-family="arial" font-size="14.00">MISO</text>
<polygon fill="none" stroke="black" points="668,-192 668,-215 745,-215 745,-192 668,-192"/>
<text text-anchor="start" x="702.5" y="-199.8" font-family="arial" font-size="14.00">4</text>
<polygon fill="none" stroke="black" points="745,-192 745,-215 850,-215 850,-192 745,-192"/>
<text text-anchor="start" x="779" y="-199.8" font-family="arial" font-size="14.00">MOSI</text>
<polygon fill="none" stroke="black" points="668,-169 668,-192 745,-192 745,-169 668,-169"/>
<text text-anchor="start" x="702.5" y="-176.8" font-family="arial" font-size="14.00">5</text>
<polygon fill="none" stroke="black" points="745,-169 745,-192 850,-192 850,-169 745,-169"/>
<text text-anchor="start" x="783.5" y="-176.8" font-family="arial" font-size="14.00">SCK</text>
</g>
<!-- _ferrule_crimp_1 -->
<g id="node5" class="node">
<title>_ferrule_crimp_1</title>
<polygon fill="white" stroke="transparent" points="168,-96 14,-96 14,-60 168,-60 168,-96"/>
<polygon fill="none" stroke="black" points="14,-66 14,-89 101,-89 101,-66 14,-66"/>
<text text-anchor="start" x="18" y="-73.8" font-family="arial" font-size="14.00">Crimp ferrule</text>
<polygon fill="none" stroke="black" points="101,-66 101,-89 168,-89 168,-66 101,-66"/>
<text text-anchor="start" x="105" y="-73.8" font-family="arial" font-size="14.00">0.25 mm²</text>
</g>
<!-- W4 -->
<g id="node10" class="node">
<title>W4</title>
<polygon fill="none" stroke="black" points="524,-143 326,-143 326,-13 524,-13 524,-143"/>
<polygon fill="none" stroke="black" points="326,-120 326,-143 524,-143 524,-120 326,-120"/>
<text text-anchor="start" x="414" y="-127.8" font-family="arial" font-size="14.00">W4</text>
<polygon fill="none" stroke="black" points="326,-97 326,-120 349,-120 349,-97 326,-97"/>
<text text-anchor="start" x="330" y="-104.8" font-family="arial" font-size="14.00">2x</text>
<polygon fill="none" stroke="black" points="349,-97 349,-120 481,-120 481,-97 349,-97"/>
<text text-anchor="start" x="353" y="-104.8" font-family="arial" font-size="14.00">0.25 mm² (24 AWG)</text>
<polygon fill="none" stroke="black" points="481,-97 481,-120 524,-120 524,-97 481,-97"/>
<text text-anchor="start" x="485" y="-104.8" font-family="arial" font-size="14.00">0.3 m</text>
<text text-anchor="start" x="423" y="-85.8" font-family="arial" font-size="14.00"> </text>
<text text-anchor="start" x="404" y="-68.8" font-family="arial" font-size="14.00">BK</text>
<text text-anchor="start" x="472" y="-68.8" font-family="arial" font-size="14.00">X4:1</text>
<polygon fill="#000000" stroke="transparent" points="326,-61 326,-63 524,-63 524,-61 326,-61"/>
<polygon fill="#000000" stroke="transparent" points="326,-59 326,-61 524,-61 524,-59 326,-59"/>
<polygon fill="#000000" stroke="transparent" points="326,-57 326,-59 524,-59 524,-57 326,-57"/>
<text text-anchor="start" x="403.5" y="-43.8" font-family="arial" font-size="14.00">RD</text>
<text text-anchor="start" x="472" y="-43.8" font-family="arial" font-size="14.00">X4:2</text>
<polygon fill="#000000" stroke="transparent" points="326,-36 326,-38 524,-38 524,-36 326,-36"/>
<polygon fill="#ff0000" stroke="transparent" points="326,-34 326,-36 524,-36 524,-34 326,-34"/>
<polygon fill="#000000" stroke="transparent" points="326,-32 326,-34 524,-34 524,-32 326,-32"/>
<text text-anchor="start" x="350.5" y="-18.8" font-family="arial" font-size="14.00"> </text>
</g>
<!-- _ferrule_crimp_1&#45;&#45;W4 -->
<g id="edge25" class="edge">
<title>_ferrule_crimp_1:e&#45;&#45;W4:w</title>
<path fill="none" stroke="#000000" stroke-width="2" d="M169,-76C237.76,-76.65 254.29,-58.65 326,-58"/>
<path fill="none" stroke="#000000" stroke-width="2" d="M169,-78C239.23,-78 255.77,-60 326,-60"/>
<path fill="none" stroke="#000000" stroke-width="2" d="M169,-80C240.71,-79.35 257.24,-61.35 326,-62"/>
</g>
<!-- _ferrule_crimp_2 -->
<g id="node6" class="node">
<title>_ferrule_crimp_2</title>
<polygon fill="white" stroke="transparent" points="168,-36 14,-36 14,0 168,0 168,-36"/>
<polygon fill="none" stroke="black" points="14,-6 14,-29 101,-29 101,-6 14,-6"/>
<text text-anchor="start" x="18" y="-13.8" font-family="arial" font-size="14.00">Crimp ferrule</text>
<polygon fill="none" stroke="black" points="101,-6 101,-29 168,-29 168,-6 101,-6"/>
<text text-anchor="start" x="105" y="-13.8" font-family="arial" font-size="14.00">0.25 mm²</text>
</g>
<!-- _ferrule_crimp_2&#45;&#45;W4 -->
<g id="edge26" class="edge">
<title>_ferrule_crimp_2:e&#45;&#45;W4:w</title>
<path fill="none" stroke="#000000" stroke-width="2" d="M169,-16C240.62,-16.6 257.24,-33.6 326,-33"/>
<path fill="none" stroke="#ff0000" stroke-width="2" d="M169,-18C239.19,-18 255.81,-35 326,-35"/>
<path fill="none" stroke="#000000" stroke-width="2" d="M169,-20C237.76,-19.4 254.38,-36.4 326,-37"/>
</g>
<!-- W1&#45;&#45;X2 -->
<g id="edge2" class="edge">
<title>W1:e&#45;&#45;X2:w</title>
<path fill="none" stroke="#000000" stroke-width="2" d="M524,-670C587.76,-670.02 603.75,-668.02 668,-668"/>
<path fill="none" stroke="#000000" stroke-width="2" d="M524,-672C588.01,-672 603.99,-670 668,-670"/>
<path fill="none" stroke="#000000" stroke-width="2" d="M524,-674C588.25,-673.98 604.24,-671.98 668,-672"/>
</g>
<!-- W1&#45;&#45;X2 -->
<g id="edge4" class="edge">
<title>W1:e&#45;&#45;X2:w</title>
<path fill="none" stroke="#000000" stroke-width="2" d="M524,-645C587.88,-645 603.87,-644 668,-644"/>
<path fill="none" stroke="#ff0000" stroke-width="2" d="M524,-647C588,-647 604,-646 668,-646"/>
<path fill="none" stroke="#000000" stroke-width="2" d="M524,-649C588.13,-649 604.12,-648 668,-648"/>
</g>
<!-- W1&#45;&#45;X2 -->
<g id="edge6" class="edge">
<title>W1:e&#45;&#45;X2:w</title>
<path fill="none" stroke="#000000" stroke-width="2" d="M524,-620C588.13,-620 604.12,-621 668,-621"/>
<path fill="none" stroke="#ffff00" stroke-width="2" d="M524,-622C588,-622 604,-623 668,-623"/>
<path fill="none" stroke="#000000" stroke-width="2" d="M524,-624C587.88,-624 603.87,-625 668,-625"/>
</g>
<!-- W1&#45;&#45;X2 -->
<g id="edge8" class="edge">
<title>W1:e&#45;&#45;X2:w</title>
<path fill="none" stroke="#000000" stroke-width="2" d="M524,-595C588.38,-595.03 604.36,-598.03 668,-598"/>
<path fill="none" stroke="#00ff00" stroke-width="2" d="M524,-597C588.01,-597 603.99,-600 668,-600"/>
<path fill="none" stroke="#000000" stroke-width="2" d="M524,-599C587.64,-598.97 603.62,-601.97 668,-602"/>
</g>
<!-- W2&#45;&#45;X3 -->
<g id="edge10" class="edge">
<title>W2:e&#45;&#45;X3:w</title>
<path fill="none" stroke="#000000" stroke-width="2" d="M524,-466C587.76,-466.02 603.75,-464.02 668,-464"/>
<path fill="none" stroke="#000000" stroke-width="2" d="M524,-468C588.01,-468 603.99,-466 668,-466"/>
<path fill="none" stroke="#000000" stroke-width="2" d="M524,-470C588.25,-469.98 604.24,-467.98 668,-468"/>
</g>
<!-- W2&#45;&#45;X3 -->
<g id="edge12" class="edge">
<title>W2:e&#45;&#45;X3:w</title>
<path fill="none" stroke="#000000" stroke-width="2" d="M524,-441C587.88,-441 603.87,-440 668,-440"/>
<path fill="none" stroke="#ff0000" stroke-width="2" d="M524,-443C588,-443 604,-442 668,-442"/>
<path fill="none" stroke="#000000" stroke-width="2" d="M524,-445C588.13,-445 604.12,-444 668,-444"/>
</g>
<!-- W2&#45;&#45;X3 -->
<g id="edge14" class="edge">
<title>W2:e&#45;&#45;X3:w</title>
<path fill="none" stroke="#000000" stroke-width="2" d="M524,-416C588.13,-416 604.12,-417 668,-417"/>
<path fill="none" stroke="#ffff00" stroke-width="2" d="M524,-418C588,-418 604,-419 668,-419"/>
<path fill="none" stroke="#000000" stroke-width="2" d="M524,-420C587.88,-420 603.87,-421 668,-421"/>
</g>
<!-- W2&#45;&#45;X3 -->
<g id="edge16" class="edge">
<title>W2:e&#45;&#45;X3:w</title>
<path fill="none" stroke="#000000" stroke-width="2" d="M524,-391C588.38,-391.03 604.36,-394.03 668,-394"/>
<path fill="none" stroke="#00ff00" stroke-width="2" d="M524,-393C588.01,-393 603.99,-396 668,-396"/>
<path fill="none" stroke="#000000" stroke-width="2" d="M524,-395C587.64,-394.97 603.62,-397.97 668,-398"/>
</g>
<!-- W3&#45;&#45;X4 -->
<g id="edge18" class="edge">
<title>W3:e&#45;&#45;X4:w</title>
<path fill="none" stroke="#000000" stroke-width="2" d="M524,-262C589.12,-262.26 604.87,-271.26 668,-271"/>
<path fill="none" stroke="#000000" stroke-width="2" d="M524,-264C588.12,-264 603.88,-273 668,-273"/>
<path fill="none" stroke="#000000" stroke-width="2" d="M524,-266C587.13,-265.74 602.88,-274.74 668,-275"/>
</g>
<!-- W3&#45;&#45;X4 -->
<g id="edge20" class="edge">
<title>W3:e&#45;&#45;X4:w</title>
<path fill="none" stroke="#000000" stroke-width="2" d="M524,-237C586.97,-237.47 602.45,-224.47 668,-224"/>
<path fill="none" stroke="#0066ff" stroke-width="2" d="M524,-239C588.26,-239 603.74,-226 668,-226"/>
<path fill="none" stroke="#000000" stroke-width="2" d="M524,-241C589.55,-240.53 605.03,-227.53 668,-228"/>
</g>
<!-- W3&#45;&#45;X4 -->
<g id="edge22" class="edge">
<title>W3:e&#45;&#45;X4:w</title>
<path fill="none" stroke="#000000" stroke-width="2" d="M524,-212C587.04,-212.36 602.66,-201.36 668,-201"/>
<path fill="none" stroke="#ff8000" stroke-width="2" d="M524,-214C588.19,-214 603.81,-203 668,-203"/>
<path fill="none" stroke="#000000" stroke-width="2" d="M524,-216C589.34,-215.64 604.96,-204.64 668,-205"/>
</g>
<!-- W3&#45;&#45;X4 -->
<g id="edge24" class="edge">
<title>W3:e&#45;&#45;X4:w</title>
<path fill="none" stroke="#000000" stroke-width="2" d="M524,-187C587.13,-187.26 602.88,-178.26 668,-178"/>
<path fill="none" stroke="#8000ff" stroke-width="2" d="M524,-189C588.12,-189 603.88,-180 668,-180"/>
<path fill="none" stroke="#000000" stroke-width="2" d="M524,-191C589.12,-190.74 604.87,-181.74 668,-182"/>
</g>
<!-- W4&#45;&#45;X4 -->
<g id="edge27" class="edge">
<title>W4:e&#45;&#45;X4:w</title>
<path fill="none" stroke="#000000" stroke-width="2" d="M524,-58C640.13,-60.74 555.59,-273.74 668,-271"/>
<path fill="none" stroke="#000000" stroke-width="2" d="M524,-60C638.27,-60 553.73,-273 668,-273"/>
<path fill="none" stroke="#000000" stroke-width="2" d="M524,-62C636.41,-59.26 551.87,-272.26 668,-275"/>
</g>
<!-- W4&#45;&#45;X4 -->
<g id="edge28" class="edge">
<title>W4:e&#45;&#45;X4:w</title>
<path fill="none" stroke="#000000" stroke-width="2" d="M524,-33C640.5,-35.74 555.22,-249.74 668,-247"/>
<path fill="none" stroke="#ff0000" stroke-width="2" d="M524,-35C638.64,-35 553.36,-249 668,-249"/>
<path fill="none" stroke="#000000" stroke-width="2" d="M524,-37C636.78,-34.26 551.5,-248.26 668,-251"/>
</g>
</g>
</svg>
