<?xml version="1.0" encoding="UTF-8" standalone="no"?>
<!DOCTYPE svg PUBLIC "-//W3C//DTD SVG 1.1//EN"
 "http://www.w3.org/Graphics/SVG/1.1/DTD/svg11.dtd">
<!-- Generated by graphviz version 2.49.1 (20210923.0004)
 -->
<!-- Pages: 1 -->
<svg width="943pt" height="232pt"
 viewBox="0.00 0.00 943.00 232.00" xmlns="http://www.w3.org/2000/svg" xmlns:xlink="http://www.w3.org/1999/xlink">
<g id="graph0" class="graph" transform="scale(1 1) rotate(0) translate(4 228)">
<polygon fill="#ffffff" stroke="transparent" points="-4,4 -4,-228 939,-228 939,4 -4,4"/>
<!-- X1 -->
<g id="node1" class="node">
<title>X1</title>
<polygon fill="#ffffff" stroke="black" points="187,-191 0,-191 0,-53 187,-53 187,-191"/>
<polygon fill="none" stroke="black" points="0.5,-168 0.5,-191 187.5,-191 187.5,-168 0.5,-168"/>
<text text-anchor="start" x="85" y="-175.8" font-family="arial" font-size="14.00">X1</text>
<polygon fill="none" stroke="black" points="0.5,-145 0.5,-168 96.5,-168 96.5,-145 0.5,-145"/>
<text text-anchor="start" x="4.5" y="-152.8" font-family="arial" font-size="14.00">Molex KK 254</text>
<polygon fill="none" stroke="black" points="96.5,-145 96.5,-168 147.5,-168 147.5,-145 96.5,-145"/>
<text text-anchor="start" x="100.5" y="-152.8" font-family="arial" font-size="14.00">female</text>
<polygon fill="none" stroke="black" points="147.5,-145 147.5,-168 187.5,-168 187.5,-145 147.5,-145"/>
<text text-anchor="start" x="151.5" y="-152.8" font-family="arial" font-size="14.00">4&#45;pin</text>
<polygon fill="none" stroke="black" points="0.5,-122 0.5,-145 106.5,-145 106.5,-122 0.5,-122"/>
<text text-anchor="start" x="37.5" y="-129.8" font-family="arial" font-size="14.00">GND</text>
<polygon fill="none" stroke="black" points="106.5,-122 106.5,-145 187.5,-145 187.5,-122 106.5,-122"/>
<text text-anchor="start" x="143" y="-129.8" font-family="arial" font-size="14.00">1</text>
<polygon fill="none" stroke="black" points="0.5,-99 0.5,-122 106.5,-122 106.5,-99 0.5,-99"/>
<text text-anchor="start" x="38.5" y="-106.8" font-family="arial" font-size="14.00">VCC</text>
<polygon fill="none" stroke="black" points="106.5,-99 106.5,-122 187.5,-122 187.5,-99 106.5,-99"/>
<text text-anchor="start" x="143" y="-106.8" font-family="arial" font-size="14.00">2</text>
<polygon fill="none" stroke="black" points="0.5,-76 0.5,-99 106.5,-99 106.5,-76 0.5,-76"/>
<text text-anchor="start" x="43.5" y="-83.8" font-family="arial" font-size="14.00">RX</text>
<polygon fill="none" stroke="black" points="106.5,-76 106.5,-99 187.5,-99 187.5,-76 106.5,-76"/>
<text text-anchor="start" x="143" y="-83.8" font-family="arial" font-size="14.00">3</text>
<polygon fill="none" stroke="black" points="0.5,-53 0.5,-76 106.5,-76 106.5,-53 0.5,-53"/>
<text text-anchor="start" x="44.5" y="-60.8" font-family="arial" font-size="14.00">TX</text>
<polygon fill="none" stroke="black" points="106.5,-53 106.5,-76 187.5,-76 187.5,-53 106.5,-53"/>
<text text-anchor="start" x="143" y="-60.8" font-family="arial" font-size="14.00">4</text>
</g>
<!-- W1 -->
<g id="node3" class="node">
<title>W1</title>
<polygon fill="#ffffff" stroke="black" points="604,-224 331,-224 331,0 604,0 604,-224"/>
<polygon fill="none" stroke="black" points="331.5,-201 331.5,-224 604.5,-224 604.5,-201 331.5,-201"/>
<text text-anchor="start" x="457.5" y="-208.8" font-family="arial" font-size="14.00">W1</text>
<polygon fill="none" stroke="black" points="331.5,-178 331.5,-201 375.5,-201 375.5,-178 331.5,-178"/>
<text text-anchor="start" x="335.5" y="-185.8" font-family="arial" font-size="14.00">Serial</text>
<polygon fill="none" stroke="black" points="375.5,-178 375.5,-201 398.5,-201 398.5,-178 375.5,-178"/>
<text text-anchor="start" x="379.5" y="-185.8" font-family="arial" font-size="14.00">4x</text>
<polygon fill="none" stroke="black" points="398.5,-178 398.5,-201 530.5,-201 530.5,-178 398.5,-178"/>
<text text-anchor="start" x="402.5" y="-185.8" font-family="arial" font-size="14.00">0.25 mm² (24 AWG)</text>
<polygon fill="none" stroke="black" points="530.5,-178 530.5,-201 560.5,-201 560.5,-178 530.5,-178"/>
<text text-anchor="start" x="534.5" y="-185.8" font-family="arial" font-size="14.00">+ S</text>
<polygon fill="none" stroke="black" points="560.5,-178 560.5,-201 604.5,-201 604.5,-178 560.5,-178"/>
<text text-anchor="start" x="564.5" y="-185.8" font-family="arial" font-size="14.00">0.2 m</text>
<text text-anchor="start" x="374.5" y="-164.8" font-family="arial" font-size="14.00"> </text>
<text text-anchor="start" x="344.5" y="-145.8" font-family="arial" font-size="14.00">X1:1:GND</text>
<text text-anchor="start" x="435" y="-145.8" font-family="arial" font-size="14.00"> &#160;&#160;&#160;&#160;1:BN &#160;&#160;&#160;</text>
<text text-anchor="start" x="528" y="-145.8" font-family="arial" font-size="14.00">X2:1:GND</text>
<polygon fill="#000000" stroke="transparent" points="331.5,-138 331.5,-140 604.5,-140 604.5,-138 331.5,-138"/>
<polygon fill="#895956" stroke="transparent" points="331.5,-136 331.5,-138 604.5,-138 604.5,-136 331.5,-136"/>
<polygon fill="#000000" stroke="transparent" points="331.5,-134 331.5,-136 604.5,-136 604.5,-134 331.5,-134"/>
<text text-anchor="start" x="345" y="-120.8" font-family="arial" font-size="14.00">X1:2:VCC</text>
<text text-anchor="start" x="435" y="-120.8" font-family="arial" font-size="14.00"> &#160;&#160;&#160;&#160;2:RD &#160;&#160;&#160;</text>
<text text-anchor="start" x="528.5" y="-120.8" font-family="arial" font-size="14.00">X2:2:VCC</text>
<polygon fill="#000000" stroke="transparent" points="331.5,-113 331.5,-115 604.5,-115 604.5,-113 331.5,-113"/>
<polygon fill="#ff0000" stroke="transparent" points="331.5,-111 331.5,-113 604.5,-113 604.5,-111 331.5,-111"/>
<polygon fill="#000000" stroke="transparent" points="331.5,-109 331.5,-111 604.5,-111 604.5,-109 331.5,-109"/>
<text text-anchor="start" x="350" y="-95.8" font-family="arial" font-size="14.00">X1:3:RX</text>
<text text-anchor="start" x="434" y="-95.8" font-family="arial" font-size="14.00"> &#160;&#160;&#160;&#160;3:OG &#160;&#160;&#160;</text>
<text text-anchor="start" x="534.5" y="-95.8" font-family="arial" font-size="14.00">X2:4:TX</text>
<polygon fill="#000000" stroke="transparent" points="331.5,-88 331.5,-90 604.5,-90 604.5,-88 331.5,-88"/>
<polygon fill="#ff8000" stroke="transparent" points="331.5,-86 331.5,-88 604.5,-88 604.5,-86 331.5,-86"/>
<polygon fill="#000000" stroke="transparent" points="331.5,-84 331.5,-86 604.5,-86 604.5,-84 331.5,-84"/>
<text text-anchor="start" x="351" y="-70.8" font-family="arial" font-size="14.00">X1:4:TX</text>
<text text-anchor="start" x="435.5" y="-70.8" font-family="arial" font-size="14.00"> &#160;&#160;&#160;&#160;4:YE &#160;&#160;&#160;</text>
<text text-anchor="start" x="533.5" y="-70.8" font-family="arial" font-size="14.00">X2:3:RX</text>
<polygon fill="#000000" stroke="transparent" points="331.5,-63 331.5,-65 604.5,-65 604.5,-63 331.5,-63"/>
<polygon fill="#ffff00" stroke="transparent" points="331.5,-61 331.5,-63 604.5,-63 604.5,-61 331.5,-61"/>
<polygon fill="#000000" stroke="transparent" points="331.5,-59 331.5,-61 604.5,-61 604.5,-59 331.5,-59"/>
<text text-anchor="start" x="374.5" y="-45.8" font-family="arial" font-size="14.00"> </text>
<text text-anchor="start" x="344.5" y="-26.8" font-family="arial" font-size="14.00">X1:1:GND</text>
<text text-anchor="start" x="449" y="-26.8" font-family="arial" font-size="14.00">Shield</text>
<polygon fill="#000000" stroke="transparent" points="331.5,-19 331.5,-21 604.5,-21 604.5,-19 331.5,-19"/>
<text text-anchor="start" x="374.5" y="-5.8" font-family="arial" font-size="14.00"> </text>
</g>
<!-- X1&#45;&#45;W1 -->
<g id="edge1" class="edge">
<title>X1:e&#45;&#45;W1:w</title>
<path fill="none" stroke="#000000" stroke-width="2" d="M187,-132C251.38,-132.03 267.36,-135.03 331,-135"/>
<path fill="none" stroke="#895956" stroke-width="2" d="M187,-134C251.01,-134 266.99,-137 331,-137"/>
<path fill="none" stroke="#000000" stroke-width="2" d="M187,-136C250.64,-135.97 266.62,-138.97 331,-139"/>
</g>
<!-- X1&#45;&#45;W1 -->
<g id="edge3" class="edge">
<title>X1:e&#45;&#45;W1:w</title>
<path fill="none" stroke="#000000" stroke-width="2" d="M187,-108C251.25,-108.02 267.24,-110.02 331,-110"/>
<path fill="none" stroke="#ff0000" stroke-width="2" d="M187,-110C251.01,-110 266.99,-112 331,-112"/>
<path fill="none" stroke="#000000" stroke-width="2" d="M187,-112C250.76,-111.98 266.75,-113.98 331,-114"/>
</g>
<!-- X1&#45;&#45;W1 -->
<g id="edge5" class="edge">
<title>X1:e&#45;&#45;W1:w</title>
<path fill="none" stroke="#000000" stroke-width="2" d="M187,-85C251,-85 267,-85 331,-85"/>
<path fill="none" stroke="#ff8000" stroke-width="2" d="M187,-87C251,-87 267,-87 331,-87"/>
<path fill="none" stroke="#000000" stroke-width="2" d="M187,-89C251,-89 267,-89 331,-89"/>
</g>
<!-- X1&#45;&#45;W1 -->
<g id="edge7" class="edge">
<title>X1:e&#45;&#45;W1:w</title>
<path fill="none" stroke="#000000" stroke-width="2" d="M187,-62C250.76,-62.02 266.75,-60.02 331,-60"/>
<path fill="none" stroke="#ffff00" stroke-width="2" d="M187,-64C251.01,-64 266.99,-62 331,-62"/>
<path fill="none" stroke="#000000" stroke-width="2" d="M187,-66C251.25,-65.98 267.24,-63.98 331,-64"/>
</g>
<!-- X1&#45;&#45;W1 -->
<g id="edge9" class="edge">
<title>X1:e&#45;&#45;W1:w</title>
<path fill="none" stroke="#000000" stroke-width="2" d="M187,-134C268.63,-134 249.37,-20 331,-20"/>
</g>
<!-- X2 -->
<g id="node2" class="node">
<title>X2</title>
<polygon fill="#ffffff" stroke="black" points="935,-193 748,-193 748,-55 935,-55 935,-193"/>
<polygon fill="none" stroke="black" points="748.5,-170 748.5,-193 935.5,-193 935.5,-170 748.5,-170"/>
<text text-anchor="start" x="833" y="-177.8" font-family="arial" font-size="14.00">X2</text>
<polygon fill="none" stroke="black" points="748.5,-147 748.5,-170 844.5,-170 844.5,-147 748.5,-147"/>
<text text-anchor="start" x="752.5" y="-154.8" font-family="arial" font-size="14.00">Molex KK 254</text>
<polygon fill="none" stroke="black" points="844.5,-147 844.5,-170 895.5,-170 895.5,-147 844.5,-147"/>
<text text-anchor="start" x="848.5" y="-154.8" font-family="arial" font-size="14.00">female</text>
<polygon fill="none" stroke="black" points="895.5,-147 895.5,-170 935.5,-170 935.5,-147 895.5,-147"/>
<text text-anchor="start" x="899.5" y="-154.8" font-family="arial" font-size="14.00">4&#45;pin</text>
<polygon fill="none" stroke="black" points="748.5,-124 748.5,-147 830.5,-147 830.5,-124 748.5,-124"/>
<text text-anchor="start" x="785.5" y="-131.8" font-family="arial" font-size="14.00">1</text>
<polygon fill="none" stroke="black" points="830.5,-124 830.5,-147 935.5,-147 935.5,-124 830.5,-124"/>
<text text-anchor="start" x="867" y="-131.8" font-family="arial" font-size="14.00">GND</text>
<polygon fill="none" stroke="black" points="748.5,-101 748.5,-124 830.5,-124 830.5,-101 748.5,-101"/>
<text text-anchor="start" x="785.5" y="-108.8" font-family="arial" font-size="14.00">2</text>
<polygon fill="none" stroke="black" points="830.5,-101 830.5,-124 935.5,-124 935.5,-101 830.5,-101"/>
<text text-anchor="start" x="868" y="-108.8" font-family="arial" font-size="14.00">VCC</text>
<polygon fill="none" stroke="black" points="748.5,-78 748.5,-101 830.5,-101 830.5,-78 748.5,-78"/>
<text text-anchor="start" x="785.5" y="-85.8" font-family="arial" font-size="14.00">3</text>
<polygon fill="none" stroke="black" points="830.5,-78 830.5,-101 935.5,-101 935.5,-78 830.5,-78"/>
<text text-anchor="start" x="873" y="-85.8" font-family="arial" font-size="14.00">RX</text>
<polygon fill="none" stroke="black" points="748.5,-55 748.5,-78 830.5,-78 830.5,-55 748.5,-55"/>
<text text-anchor="start" x="785.5" y="-62.8" font-family="arial" font-size="14.00">4</text>
<polygon fill="none" stroke="black" points="830.5,-55 830.5,-78 935.5,-78 935.5,-55 830.5,-55"/>
<text text-anchor="start" x="874" y="-62.8" font-family="arial" font-size="14.00">TX</text>
</g>
<!-- W1&#45;&#45;X2 -->
<g id="edge2" class="edge">
<title>W1:e&#45;&#45;X2:w</title>
<path fill="none" stroke="#000000" stroke-width="2" d="M604,-135C667.88,-135 683.87,-134 748,-134"/>
<path fill="none" stroke="#895956" stroke-width="2" d="M604,-137C668,-137 684,-136 748,-136"/>
<path fill="none" stroke="#000000" stroke-width="2" d="M604,-139C668.13,-139 684.12,-138 748,-138"/>
</g>
<!-- W1&#45;&#45;X2 -->
<g id="edge4" class="edge">
<title>W1:e&#45;&#45;X2:w</title>
<path fill="none" stroke="#000000" stroke-width="2" d="M604,-110C668,-110 684,-110 748,-110"/>
<path fill="none" stroke="#ff0000" stroke-width="2" d="M604,-112C668,-112 684,-112 748,-112"/>
<path fill="none" stroke="#000000" stroke-width="2" d="M604,-114C668,-114 684,-114 748,-114"/>
</g>
<!-- W1&#45;&#45;X2 -->
<g id="edge6" class="edge">
<title>W1:e&#45;&#45;X2:w</title>
<path fill="none" stroke="#000000" stroke-width="2" d="M604,-85C667.04,-85.86 681.68,-64.86 748,-64"/>
<path fill="none" stroke="#ff8000" stroke-width="2" d="M604,-87C668.68,-87 683.32,-66 748,-66"/>
<path fill="none" stroke="#000000" stroke-width="2" d="M604,-89C670.32,-88.14 684.96,-67.14 748,-68"/>
</g>
<!-- W1&#45;&#45;X2 -->
<g id="edge8" class="edge">
<title>W1:e&#45;&#45;X2:w</title>
<path fill="none" stroke="#000000" stroke-width="2" d="M604,-60C670.9,-61.09 684.67,-88.09 748,-87"/>
<path fill="none" stroke="#ffff00" stroke-width="2" d="M604,-62C669.12,-62 682.88,-89 748,-89"/>
<path fill="none" stroke="#000000" stroke-width="2" d="M604,-64C667.33,-62.91 681.1,-89.91 748,-91"/>
</g>
</g>
</svg>
