<?xml version="1.0" encoding="UTF-8" standalone="no"?>
<!DOCTYPE svg PUBLIC "-//W3C//DTD SVG 1.1//EN"
 "http://www.w3.org/Graphics/SVG/1.1/DTD/svg11.dtd">
<!-- Generated by graphviz version 2.44.0 (20200408.0750)
 -->
<!-- Pages: 1 -->
<svg width="968pt" height="171pt"
 viewBox="0.00 0.00 968.00 170.50" xmlns="http://www.w3.org/2000/svg" xmlns:xlink="http://www.w3.org/1999/xlink">
<g id="graph0" class="graph" transform="scale(1 1) rotate(0) translate(4 166.5)">
<!-- X1 -->
<g id="node1" class="node">
<title>X1</title>
<polygon fill="white" stroke="black" points="0,-24 0,-162 206,-162 206,-24 0,-24"/>
<text text-anchor="middle" x="103" y="-146.8" font-family="arial" font-size="14.00">X1</text>
<polyline fill="none" stroke="black" points="0,-139 206,-139 "/>
<text text-anchor="middle" x="50.5" y="-123.8" font-family="arial" font-size="14.00">Molex KK 254</text>
<polyline fill="none" stroke="black" points="101,-116 101,-139 "/>
<text text-anchor="middle" x="130" y="-123.8" font-family="arial" font-size="14.00">female</text>
<polyline fill="none" stroke="black" points="159,-116 159,-139 "/>
<text text-anchor="middle" x="182.5" y="-123.8" font-family="arial" font-size="14.00">4&#45;pin</text>
<polyline fill="none" stroke="black" points="0,-116 206,-116 "/>
<text text-anchor="middle" x="57" y="-100.8" font-family="arial" font-size="14.00">GND</text>
<polyline fill="none" stroke="black" points="0,-93 114,-93 "/>
<text text-anchor="middle" x="57" y="-77.8" font-family="arial" font-size="14.00">VCC</text>
<polyline fill="none" stroke="black" points="0,-70 114,-70 "/>
<text text-anchor="middle" x="57" y="-54.8" font-family="arial" font-size="14.00">RX</text>
<polyline fill="none" stroke="black" points="0,-47 114,-47 "/>
<text text-anchor="middle" x="57" y="-31.8" font-family="arial" font-size="14.00">TX</text>
<polyline fill="none" stroke="black" points="114,-24 114,-116 "/>
<text text-anchor="middle" x="160" y="-100.8" font-family="arial" font-size="14.00">1</text>
<polyline fill="none" stroke="black" points="114,-93 206,-93 "/>
<text text-anchor="middle" x="160" y="-77.8" font-family="arial" font-size="14.00">2</text>
<polyline fill="none" stroke="black" points="114,-70 206,-70 "/>
<text text-anchor="middle" x="160" y="-54.8" font-family="arial" font-size="14.00">3</text>
<polyline fill="none" stroke="black" points="114,-47 206,-47 "/>
<text text-anchor="middle" x="160" y="-31.8" font-family="arial" font-size="14.00">4</text>
</g>
<!-- W1 -->
<g id="node3" class="node">
<title>W1</title>
<polygon fill="white" stroke="black" points="350,-0.5 350,-161.5 610,-161.5 610,-0.5 350,-0.5"/>
<text text-anchor="middle" x="480" y="-146.3" font-family="arial" font-size="14.00">W1</text>
<polyline fill="none" stroke="black" points="350,-138.5 610,-138.5 "/>
<text text-anchor="middle" x="365.5" y="-123.3" font-family="arial" font-size="14.00">4x</text>
<polyline fill="none" stroke="black" points="381,-115.5 381,-138.5 "/>
<text text-anchor="middle" x="451" y="-123.3" font-family="arial" font-size="14.00">0.25 mm² (24 AWG)</text>
<polyline fill="none" stroke="black" points="521,-115.5 521,-138.5 "/>
<text text-anchor="middle" x="540" y="-123.3" font-family="arial" font-size="14.00">+ S</text>
<polyline fill="none" stroke="black" points="559,-115.5 559,-138.5 "/>
<text text-anchor="middle" x="584.5" y="-123.3" font-family="arial" font-size="14.00">0.2 m</text>
<polyline fill="none" stroke="black" points="350,-115.5 610,-115.5 "/>
<text text-anchor="middle" x="480" y="-100.3" font-family="arial" font-size="14.00">BN</text>
<polyline fill="none" stroke="black" points="350,-92.5 610,-92.5 "/>
<text text-anchor="middle" x="480" y="-77.3" font-family="arial" font-size="14.00">RD</text>
<polyline fill="none" stroke="black" points="350,-69.5 610,-69.5 "/>
<text text-anchor="middle" x="480" y="-54.3" font-family="arial" font-size="14.00">OG</text>
<polyline fill="none" stroke="black" points="350,-46.5 610,-46.5 "/>
<text text-anchor="middle" x="480" y="-31.3" font-family="arial" font-size="14.00">YE</text>
<polyline fill="none" stroke="black" points="350,-23.5 610,-23.5 "/>
<text text-anchor="middle" x="480" y="-8.3" font-family="arial" font-size="14.00">Shield</text>
</g>
<!-- X1&#45;&#45;W1 -->
<g id="edge1" class="edge">
<title>X1:p1r&#45;&#45;W1:w1</title>
<path fill="none" stroke="#000000" stroke-width="2" d="M206,-103C269.88,-103 285.87,-102 350,-102"/>
<path fill="none" stroke="#666600" stroke-width="2" d="M206,-105C270,-105 286,-104 350,-104"/>
<path fill="none" stroke="#000000" stroke-width="2" d="M206,-107C270.13,-107 286.12,-106 350,-106"/>
</g>
<!-- X1&#45;&#45;W1 -->
<g id="edge3" class="edge">
<title>X1:p2r&#45;&#45;W1:w2</title>
<path fill="none" stroke="#000000" stroke-width="2" d="M206,-79C270,-79 286,-79 350,-79"/>
<path fill="none" stroke="#ff0000" stroke-width="2" d="M206,-81C270,-81 286,-81 350,-81"/>
<path fill="none" stroke="#000000" stroke-width="2" d="M206,-83C270,-83 286,-83 350,-83"/>
</g>
<!-- X1&#45;&#45;W1 -->
<g id="edge5" class="edge">
<title>X1:p3r&#45;&#45;W1:w3</title>
<path fill="none" stroke="#000000" stroke-width="2" d="M206,-56C270,-56 286,-56 350,-56"/>
<path fill="none" stroke="#ff8000" stroke-width="2" d="M206,-58C270,-58 286,-58 350,-58"/>
<path fill="none" stroke="#000000" stroke-width="2" d="M206,-60C270,-60 286,-60 350,-60"/>
</g>
<!-- X1&#45;&#45;W1 -->
<g id="edge7" class="edge">
<title>X1:p4r&#45;&#45;W1:w4</title>
<path fill="none" stroke="#000000" stroke-width="2" d="M206,-33C270,-33 286,-33 350,-33"/>
<path fill="none" stroke="#ffff00" stroke-width="2" d="M206,-35C270,-35 286,-35 350,-35"/>
<path fill="none" stroke="#000000" stroke-width="2" d="M206,-37C270,-37 286,-37 350,-37"/>
</g>
<!-- X1&#45;&#45;W1 -->
<g id="edge9" class="edge">
<title>X1:p1r&#45;&#45;W1:ws</title>
<path fill="none" stroke="#000000" stroke-width="2" d="M206,-105C282.19,-105 273.81,-12 350,-12"/>
</g>
<!-- X2 -->
<g id="node2" class="node">
<title>X2</title>
<polygon fill="white" stroke="black" points="754,-23 754,-161 960,-161 960,-23 754,-23"/>
<text text-anchor="middle" x="857" y="-145.8" font-family="arial" font-size="14.00">X2</text>
<polyline fill="none" stroke="black" points="754,-138 960,-138 "/>
<text text-anchor="middle" x="804.5" y="-122.8" font-family="arial" font-size="14.00">Molex KK 254</text>
<polyline fill="none" stroke="black" points="855,-115 855,-138 "/>
<text text-anchor="middle" x="884" y="-122.8" font-family="arial" font-size="14.00">female</text>
<polyline fill="none" stroke="black" points="913,-115 913,-138 "/>
<text text-anchor="middle" x="936.5" y="-122.8" font-family="arial" font-size="14.00">4&#45;pin</text>
<polyline fill="none" stroke="black" points="754,-115 960,-115 "/>
<text text-anchor="middle" x="799.5" y="-99.8" font-family="arial" font-size="14.00">1</text>
<polyline fill="none" stroke="black" points="754,-92 845,-92 "/>
<text text-anchor="middle" x="799.5" y="-76.8" font-family="arial" font-size="14.00">2</text>
<polyline fill="none" stroke="black" points="754,-69 845,-69 "/>
<text text-anchor="middle" x="799.5" y="-53.8" font-family="arial" font-size="14.00">3</text>
<polyline fill="none" stroke="black" points="754,-46 845,-46 "/>
<text text-anchor="middle" x="799.5" y="-30.8" font-family="arial" font-size="14.00">4</text>
<polyline fill="none" stroke="black" points="845,-23 845,-115 "/>
<text text-anchor="middle" x="902.5" y="-99.8" font-family="arial" font-size="14.00">GND</text>
<polyline fill="none" stroke="black" points="845,-92 960,-92 "/>
<text text-anchor="middle" x="902.5" y="-76.8" font-family="arial" font-size="14.00">VCC</text>
<polyline fill="none" stroke="black" points="845,-69 960,-69 "/>
<text text-anchor="middle" x="902.5" y="-53.8" font-family="arial" font-size="14.00">RX</text>
<polyline fill="none" stroke="black" points="845,-46 960,-46 "/>
<text text-anchor="middle" x="902.5" y="-30.8" font-family="arial" font-size="14.00">TX</text>
</g>
<!-- W1&#45;&#45;X2 -->
<g id="edge2" class="edge">
<title>W1:w1&#45;&#45;X2:p1l</title>
<path fill="none" stroke="#000000" stroke-width="2" d="M610,-102C674,-102 690,-102 754,-102"/>
<path fill="none" stroke="#666600" stroke-width="2" d="M610,-104C674,-104 690,-104 754,-104"/>
<path fill="none" stroke="#000000" stroke-width="2" d="M610,-106C674,-106 690,-106 754,-106"/>
</g>
<!-- W1&#45;&#45;X2 -->
<g id="edge4" class="edge">
<title>W1:w2&#45;&#45;X2:p2l</title>
<path fill="none" stroke="#000000" stroke-width="2" d="M610,-79C673.88,-79 689.87,-78 754,-78"/>
<path fill="none" stroke="#ff0000" stroke-width="2" d="M610,-81C674,-81 690,-80 754,-80"/>
<path fill="none" stroke="#000000" stroke-width="2" d="M610,-83C674.13,-83 690.12,-82 754,-82"/>
</g>
<!-- W1&#45;&#45;X2 -->
<g id="edge6" class="edge">
<title>W1:w3&#45;&#45;X2:p4l</title>
<path fill="none" stroke="#000000" stroke-width="2" d="M610,-56C673.16,-56.98 687.4,-32.98 754,-32"/>
<path fill="none" stroke="#ff8000" stroke-width="2" d="M610,-58C674.88,-58 689.12,-34 754,-34"/>
<path fill="none" stroke="#000000" stroke-width="2" d="M610,-60C676.6,-59.02 690.84,-35.02 754,-36"/>
</g>
<!-- W1&#45;&#45;X2 -->
<g id="edge8" class="edge">
<title>W1:w4&#45;&#45;X2:p3l</title>
<path fill="none" stroke="#000000" stroke-width="2" d="M610,-33C676.41,-33.9 690.93,-55.9 754,-55"/>
<path fill="none" stroke="#ffff00" stroke-width="2" d="M610,-35C674.74,-35 689.26,-57 754,-57"/>
<path fill="none" stroke="#000000" stroke-width="2" d="M610,-37C673.07,-36.1 687.59,-58.1 754,-59"/>
</g>
</g>
</svg>
