<?xml version="1.0" encoding="UTF-8" standalone="no"?>
<!DOCTYPE svg PUBLIC "-//W3C//DTD SVG 1.1//EN"
 "http://www.w3.org/Graphics/SVG/1.1/DTD/svg11.dtd">
<!-- Generated by graphviz version 7.1.0 (20230121.1956)
 -->
<!-- Pages: 1 -->
<svg width="870pt" height="458pt"
 viewBox="0.00 0.00 870.00 458.00" xmlns="http://www.w3.org/2000/svg" xmlns:xlink="http://www.w3.org/1999/xlink">
<g id="graph0" class="graph" transform="scale(1 1) rotate(0) translate(4 454)">
<polygon fill="#ffffff" stroke="none" points="-4,4 -4,-454 866,-454 866,4 -4,4"/>
<!-- X1 -->
<g id="node1" class="node">
<title>X1</title>
<polygon fill="#ffffff" stroke="black" points="180,-262 0,-262 0,-170 180,-170 180,-262"/>
<polygon fill="none" stroke="black" points="0,-239 0,-262 180,-262 180,-239 0,-239"/>
<text text-anchor="start" x="81.5" y="-246.8" font-family="arial" font-size="14.00">X1</text>
<polygon fill="none" stroke="black" points="0,-216 0,-239 102,-239 102,-216 0,-216"/>
<text text-anchor="start" x="4" y="-223.8" font-family="arial" font-size="14.00">Molex Micro&#45;Fit</text>
<polygon fill="none" stroke="black" points="102,-216 102,-239 141,-239 141,-216 102,-216"/>
<text text-anchor="start" x="106" y="-223.8" font-family="arial" font-size="14.00">male</text>
<polygon fill="none" stroke="black" points="141,-216 141,-239 180,-239 180,-216 141,-216"/>
<text text-anchor="start" x="145" y="-223.8" font-family="arial" font-size="14.00">2&#45;pin</text>
<polygon fill="none" stroke="black" points="0,-193 0,-216 102,-216 102,-193 0,-193"/>
<text text-anchor="start" x="35.5" y="-200.8" font-family="arial" font-size="14.00">GND</text>
<polygon fill="none" stroke="black" points="102,-193 102,-216 180,-216 180,-193 102,-193"/>
<text text-anchor="start" x="137" y="-200.8" font-family="arial" font-size="14.00">1</text>
<polygon fill="none" stroke="black" points="0,-170 0,-193 102,-193 102,-170 0,-170"/>
<text text-anchor="start" x="36.5" y="-177.8" font-family="arial" font-size="14.00">VCC</text>
<polygon fill="none" stroke="black" points="102,-170 102,-193 180,-193 180,-170 102,-170"/>
<text text-anchor="start" x="137" y="-177.8" font-family="arial" font-size="14.00">2</text>
</g>
<!-- W1 -->
<g id="node5" class="node">
<title>W1</title>
<polygon fill="#ffffff" stroke="black" points="527,-450 324,-450 324,-316 527,-316 527,-450"/>
<polygon fill="none" stroke="black" points="324.5,-427 324.5,-450 527.5,-450 527.5,-427 324.5,-427"/>
<text text-anchor="start" x="415" y="-434.8" font-family="arial" font-size="14.00">W1</text>
<polygon fill="none" stroke="black" points="324.5,-404 324.5,-427 349.5,-427 349.5,-404 324.5,-404"/>
<text text-anchor="start" x="329.5" y="-411.8" font-family="arial" font-size="14.00">2x</text>
<polygon fill="none" stroke="black" points="349.5,-404 349.5,-427 483.5,-427 483.5,-404 349.5,-404"/>
<text text-anchor="start" x="354.5" y="-411.8" font-family="arial" font-size="14.00">0.25 mm² (24 AWG)</text>
<polygon fill="none" stroke="black" points="483.5,-404 483.5,-427 527.5,-427 527.5,-404 483.5,-404"/>
<text text-anchor="start" x="488" y="-411.8" font-family="arial" font-size="14.00">0.2 m</text>
<text text-anchor="start" x="356" y="-390.8" font-family="arial" font-size="14.00"> </text>
<text text-anchor="start" x="326.5" y="-371.8" font-family="arial" font-size="14.00">X1:1:GND</text>
<text text-anchor="start" x="394" y="-371.8" font-family="arial" font-size="14.00"> &#160;&#160;&#160;&#160;1:BK &#160;&#160;&#160;</text>
<text text-anchor="start" x="462.5" y="-371.8" font-family="arial" font-size="14.00">X2:1:GND</text>
<polygon fill="#000000" stroke="none" points="324.5,-364 324.5,-366 527.5,-366 527.5,-364 324.5,-364"/>
<polygon fill="#000000" stroke="none" points="324.5,-362 324.5,-364 527.5,-364 527.5,-362 324.5,-362"/>
<polygon fill="#000000" stroke="none" points="324.5,-360 324.5,-362 527.5,-362 527.5,-360 324.5,-360"/>
<text text-anchor="start" x="327.5" y="-346.8" font-family="arial" font-size="14.00">X1:2:VCC</text>
<text text-anchor="start" x="393.5" y="-346.8" font-family="arial" font-size="14.00"> &#160;&#160;&#160;&#160;2:RD &#160;&#160;&#160;</text>
<text text-anchor="start" x="463.5" y="-346.8" font-family="arial" font-size="14.00">X2:2:VCC</text>
<polygon fill="#000000" stroke="none" points="324.5,-339 324.5,-341 527.5,-341 527.5,-339 324.5,-339"/>
<polygon fill="#ff0000" stroke="none" points="324.5,-337 324.5,-339 527.5,-339 527.5,-337 324.5,-337"/>
<polygon fill="#000000" stroke="none" points="324.5,-335 324.5,-337 527.5,-337 527.5,-335 324.5,-335"/>
<text text-anchor="start" x="356" y="-321.8" font-family="arial" font-size="14.00"> </text>
</g>
<!-- X1&#45;&#45;W1 -->
<g id="edge1" class="edge">
<title>X1:e&#45;&#45;W1:w</title>
<path fill="none" stroke="#000000" stroke-width="2" d="M180,-202C277.26,-204.56 230.58,-363.56 324,-361"/>
<path fill="none" stroke="#000000" stroke-width="2" d="M180,-204C275.34,-204 228.66,-363 324,-363"/>
<path fill="none" stroke="#000000" stroke-width="2" d="M180,-206C273.42,-203.44 226.74,-362.44 324,-365"/>
</g>
<!-- X1&#45;&#45;W1 -->
<g id="edge3" class="edge">
<title>X1:e&#45;&#45;W1:w</title>
<path fill="none" stroke="#000000" stroke-width="2" d="M180,-179C276.6,-181.56 231.24,-338.56 324,-336"/>
<path fill="none" stroke="#ff0000" stroke-width="2" d="M180,-181C274.68,-181 229.32,-338 324,-338"/>
<path fill="none" stroke="#000000" stroke-width="2" d="M180,-183C272.76,-180.44 227.4,-337.44 324,-340"/>
</g>
<!-- W2 -->
<g id="node6" class="node">
<title>W2</title>
<polygon fill="#ffffff" stroke="black" points="527,-292 324,-292 324,-158 527,-158 527,-292"/>
<polygon fill="none" stroke="black" points="324.5,-269 324.5,-292 527.5,-292 527.5,-269 324.5,-269"/>
<text text-anchor="start" x="415" y="-276.8" font-family="arial" font-size="14.00">W2</text>
<polygon fill="none" stroke="black" points="324.5,-246 324.5,-269 349.5,-269 349.5,-246 324.5,-246"/>
<text text-anchor="start" x="329.5" y="-253.8" font-family="arial" font-size="14.00">2x</text>
<polygon fill="none" stroke="black" points="349.5,-246 349.5,-269 483.5,-269 483.5,-246 349.5,-246"/>
<text text-anchor="start" x="354.5" y="-253.8" font-family="arial" font-size="14.00">0.25 mm² (24 AWG)</text>
<polygon fill="none" stroke="black" points="483.5,-246 483.5,-269 527.5,-269 527.5,-246 483.5,-246"/>
<text text-anchor="start" x="488" y="-253.8" font-family="arial" font-size="14.00">0.2 m</text>
<text text-anchor="start" x="356" y="-232.8" font-family="arial" font-size="14.00"> </text>
<text text-anchor="start" x="326.5" y="-213.8" font-family="arial" font-size="14.00">X1:1:GND</text>
<text text-anchor="start" x="394" y="-213.8" font-family="arial" font-size="14.00"> &#160;&#160;&#160;&#160;1:BK &#160;&#160;&#160;</text>
<text text-anchor="start" x="462.5" y="-213.8" font-family="arial" font-size="14.00">X3:1:GND</text>
<polygon fill="#000000" stroke="none" points="324.5,-206 324.5,-208 527.5,-208 527.5,-206 324.5,-206"/>
<polygon fill="#000000" stroke="none" points="324.5,-204 324.5,-206 527.5,-206 527.5,-204 324.5,-204"/>
<polygon fill="#000000" stroke="none" points="324.5,-202 324.5,-204 527.5,-204 527.5,-202 324.5,-202"/>
<text text-anchor="start" x="327.5" y="-188.8" font-family="arial" font-size="14.00">X1:2:VCC</text>
<text text-anchor="start" x="393.5" y="-188.8" font-family="arial" font-size="14.00"> &#160;&#160;&#160;&#160;2:RD &#160;&#160;&#160;</text>
<text text-anchor="start" x="463.5" y="-188.8" font-family="arial" font-size="14.00">X3:2:VCC</text>
<polygon fill="#000000" stroke="none" points="324.5,-181 324.5,-183 527.5,-183 527.5,-181 324.5,-181"/>
<polygon fill="#ff0000" stroke="none" points="324.5,-179 324.5,-181 527.5,-181 527.5,-179 324.5,-179"/>
<polygon fill="#000000" stroke="none" points="324.5,-177 324.5,-179 527.5,-179 527.5,-177 324.5,-177"/>
<text text-anchor="start" x="356" y="-163.8" font-family="arial" font-size="14.00"> </text>
</g>
<!-- X1&#45;&#45;W2 -->
<g id="edge5" class="edge">
<title>X1:e&#45;&#45;W2:w</title>
<path fill="none" stroke="#000000" stroke-width="2" d="M180,-202C244.13,-202 260.12,-203 324,-203"/>
<path fill="none" stroke="#000000" stroke-width="2" d="M180,-204C244,-204 260,-205 324,-205"/>
<path fill="none" stroke="#000000" stroke-width="2" d="M180,-206C243.88,-206 259.87,-207 324,-207"/>
</g>
<!-- X1&#45;&#45;W2 -->
<g id="edge7" class="edge">
<title>X1:e&#45;&#45;W2:w</title>
<path fill="none" stroke="#000000" stroke-width="2" d="M180,-179C243.88,-179 259.87,-178 324,-178"/>
<path fill="none" stroke="#ff0000" stroke-width="2" d="M180,-181C244,-181 260,-180 324,-180"/>
<path fill="none" stroke="#000000" stroke-width="2" d="M180,-183C244.13,-183 260.12,-182 324,-182"/>
</g>
<!-- W3 -->
<g id="node7" class="node">
<title>W3</title>
<polygon fill="#ffffff" stroke="black" points="527,-134 324,-134 324,0 527,0 527,-134"/>
<polygon fill="none" stroke="black" points="324.5,-111 324.5,-134 527.5,-134 527.5,-111 324.5,-111"/>
<text text-anchor="start" x="415" y="-118.8" font-family="arial" font-size="14.00">W3</text>
<polygon fill="none" stroke="black" points="324.5,-88 324.5,-111 349.5,-111 349.5,-88 324.5,-88"/>
<text text-anchor="start" x="329.5" y="-95.8" font-family="arial" font-size="14.00">2x</text>
<polygon fill="none" stroke="black" points="349.5,-88 349.5,-111 483.5,-111 483.5,-88 349.5,-88"/>
<text text-anchor="start" x="354.5" y="-95.8" font-family="arial" font-size="14.00">20 AWG (0.75 mm²)</text>
<polygon fill="none" stroke="black" points="483.5,-88 483.5,-111 527.5,-111 527.5,-88 483.5,-88"/>
<text text-anchor="start" x="488" y="-95.8" font-family="arial" font-size="14.00">0.2 m</text>
<text text-anchor="start" x="356" y="-74.8" font-family="arial" font-size="14.00"> </text>
<text text-anchor="start" x="326.5" y="-55.8" font-family="arial" font-size="14.00">X1:1:GND</text>
<text text-anchor="start" x="394" y="-55.8" font-family="arial" font-size="14.00"> &#160;&#160;&#160;&#160;1:BK &#160;&#160;&#160;</text>
<text text-anchor="start" x="462.5" y="-55.8" font-family="arial" font-size="14.00">X4:1:GND</text>
<polygon fill="#000000" stroke="none" points="324.5,-48 324.5,-50 527.5,-50 527.5,-48 324.5,-48"/>
<polygon fill="#000000" stroke="none" points="324.5,-46 324.5,-48 527.5,-48 527.5,-46 324.5,-46"/>
<polygon fill="#000000" stroke="none" points="324.5,-44 324.5,-46 527.5,-46 527.5,-44 324.5,-44"/>
<text text-anchor="start" x="327.5" y="-30.8" font-family="arial" font-size="14.00">X1:2:VCC</text>
<text text-anchor="start" x="393.5" y="-30.8" font-family="arial" font-size="14.00"> &#160;&#160;&#160;&#160;2:RD &#160;&#160;&#160;</text>
<text text-anchor="start" x="463.5" y="-30.8" font-family="arial" font-size="14.00">X4:2:VCC</text>
<polygon fill="#000000" stroke="none" points="324.5,-23 324.5,-25 527.5,-25 527.5,-23 324.5,-23"/>
<polygon fill="#ff0000" stroke="none" points="324.5,-21 324.5,-23 527.5,-23 527.5,-21 324.5,-21"/>
<polygon fill="#000000" stroke="none" points="324.5,-19 324.5,-21 527.5,-21 527.5,-19 324.5,-19"/>
<text text-anchor="start" x="356" y="-5.8" font-family="arial" font-size="14.00"> </text>
</g>
<!-- X1&#45;&#45;W3 -->
<g id="edge9" class="edge">
<title>X1:e&#45;&#45;W3:w</title>
<path fill="none" stroke="#000000" stroke-width="2" d="M180,-202C272.76,-204.56 227.4,-47.56 324,-45"/>
<path fill="none" stroke="#000000" stroke-width="2" d="M180,-204C274.68,-204 229.32,-47 324,-47"/>
<path fill="none" stroke="#000000" stroke-width="2" d="M180,-206C276.6,-203.44 231.24,-46.44 324,-49"/>
</g>
<!-- X1&#45;&#45;W3 -->
<g id="edge11" class="edge">
<title>X1:e&#45;&#45;W3:w</title>
<path fill="none" stroke="#000000" stroke-width="2" d="M180,-179C273.42,-181.56 226.74,-22.56 324,-20"/>
<path fill="none" stroke="#ff0000" stroke-width="2" d="M180,-181C275.34,-181 228.66,-22 324,-22"/>
<path fill="none" stroke="#000000" stroke-width="2" d="M180,-183C277.26,-180.44 230.58,-21.44 324,-24"/>
</g>
<!-- X2 -->
<g id="node2" class="node">
<title>X2</title>
<polygon fill="#ffffff" stroke="black" points="862,-420 671,-420 671,-328 862,-328 862,-420"/>
<polygon fill="none" stroke="black" points="671.5,-397 671.5,-420 862.5,-420 862.5,-397 671.5,-397"/>
<text text-anchor="start" x="758.5" y="-404.8" font-family="arial" font-size="14.00">X2</text>
<polygon fill="none" stroke="black" points="671.5,-374 671.5,-397 773.5,-397 773.5,-374 671.5,-374"/>
<text text-anchor="start" x="675.5" y="-381.8" font-family="arial" font-size="14.00">Molex Micro&#45;Fit</text>
<polygon fill="none" stroke="black" points="773.5,-374 773.5,-397 823.5,-397 823.5,-374 773.5,-374"/>
<text text-anchor="start" x="777.5" y="-381.8" font-family="arial" font-size="14.00">female</text>
<polygon fill="none" stroke="black" points="823.5,-374 823.5,-397 862.5,-397 862.5,-374 823.5,-374"/>
<text text-anchor="start" x="827.5" y="-381.8" font-family="arial" font-size="14.00">2&#45;pin</text>
<polygon fill="none" stroke="black" points="671.5,-351 671.5,-374 755.5,-374 755.5,-351 671.5,-351"/>
<text text-anchor="start" x="709.5" y="-358.8" font-family="arial" font-size="14.00">1</text>
<polygon fill="none" stroke="black" points="755.5,-351 755.5,-374 862.5,-374 862.5,-351 755.5,-351"/>
<text text-anchor="start" x="793.5" y="-358.8" font-family="arial" font-size="14.00">GND</text>
<polygon fill="none" stroke="black" points="671.5,-328 671.5,-351 755.5,-351 755.5,-328 671.5,-328"/>
<text text-anchor="start" x="709.5" y="-335.8" font-family="arial" font-size="14.00">2</text>
<polygon fill="none" stroke="black" points="755.5,-328 755.5,-351 862.5,-351 862.5,-328 755.5,-328"/>
<text text-anchor="start" x="794.5" y="-335.8" font-family="arial" font-size="14.00">VCC</text>
</g>
<!-- X3 -->
<g id="node3" class="node">
<title>X3</title>
<polygon fill="#ffffff" stroke="black" points="862,-262 671,-262 671,-170 862,-170 862,-262"/>
<polygon fill="none" stroke="black" points="671.5,-239 671.5,-262 862.5,-262 862.5,-239 671.5,-239"/>
<text text-anchor="start" x="758.5" y="-246.8" font-family="arial" font-size="14.00">X3</text>
<polygon fill="none" stroke="black" points="671.5,-216 671.5,-239 773.5,-239 773.5,-216 671.5,-216"/>
<text text-anchor="start" x="675.5" y="-223.8" font-family="arial" font-size="14.00">Molex Micro&#45;Fit</text>
<polygon fill="none" stroke="black" points="773.5,-216 773.5,-239 823.5,-239 823.5,-216 773.5,-216"/>
<text text-anchor="start" x="777.5" y="-223.8" font-family="arial" font-size="14.00">female</text>
<polygon fill="none" stroke="black" points="823.5,-216 823.5,-239 862.5,-239 862.5,-216 823.5,-216"/>
<text text-anchor="start" x="827.5" y="-223.8" font-family="arial" font-size="14.00">2&#45;pin</text>
<polygon fill="none" stroke="black" points="671.5,-193 671.5,-216 755.5,-216 755.5,-193 671.5,-193"/>
<text text-anchor="start" x="709.5" y="-200.8" font-family="arial" font-size="14.00">1</text>
<polygon fill="none" stroke="black" points="755.5,-193 755.5,-216 862.5,-216 862.5,-193 755.5,-193"/>
<text text-anchor="start" x="793.5" y="-200.8" font-family="arial" font-size="14.00">GND</text>
<polygon fill="none" stroke="black" points="671.5,-170 671.5,-193 755.5,-193 755.5,-170 671.5,-170"/>
<text text-anchor="start" x="709.5" y="-177.8" font-family="arial" font-size="14.00">2</text>
<polygon fill="none" stroke="black" points="755.5,-170 755.5,-193 862.5,-193 862.5,-170 755.5,-170"/>
<text text-anchor="start" x="794.5" y="-177.8" font-family="arial" font-size="14.00">VCC</text>
</g>
<!-- X4 -->
<g id="node4" class="node">
<title>X4</title>
<polygon fill="#ffffff" stroke="black" points="862,-104 671,-104 671,-12 862,-12 862,-104"/>
<polygon fill="none" stroke="black" points="671.5,-81 671.5,-104 862.5,-104 862.5,-81 671.5,-81"/>
<text text-anchor="start" x="758.5" y="-88.8" font-family="arial" font-size="14.00">X4</text>
<polygon fill="none" stroke="black" points="671.5,-58 671.5,-81 773.5,-81 773.5,-58 671.5,-58"/>
<text text-anchor="start" x="675.5" y="-65.8" font-family="arial" font-size="14.00">Molex Micro&#45;Fit</text>
<polygon fill="none" stroke="black" points="773.5,-58 773.5,-81 823.5,-81 823.5,-58 773.5,-58"/>
<text text-anchor="start" x="777.5" y="-65.8" font-family="arial" font-size="14.00">female</text>
<polygon fill="none" stroke="black" points="823.5,-58 823.5,-81 862.5,-81 862.5,-58 823.5,-58"/>
<text text-anchor="start" x="827.5" y="-65.8" font-family="arial" font-size="14.00">2&#45;pin</text>
<polygon fill="none" stroke="black" points="671.5,-35 671.5,-58 755.5,-58 755.5,-35 671.5,-35"/>
<text text-anchor="start" x="709.5" y="-42.8" font-family="arial" font-size="14.00">1</text>
<polygon fill="none" stroke="black" points="755.5,-35 755.5,-58 862.5,-58 862.5,-35 755.5,-35"/>
<text text-anchor="start" x="793.5" y="-42.8" font-family="arial" font-size="14.00">GND</text>
<polygon fill="none" stroke="black" points="671.5,-12 671.5,-35 755.5,-35 755.5,-12 671.5,-12"/>
<text text-anchor="start" x="709.5" y="-19.8" font-family="arial" font-size="14.00">2</text>
<polygon fill="none" stroke="black" points="755.5,-12 755.5,-35 862.5,-35 862.5,-12 755.5,-12"/>
<text text-anchor="start" x="794.5" y="-19.8" font-family="arial" font-size="14.00">VCC</text>
</g>
<!-- W1&#45;&#45;X2 -->
<g id="edge2" class="edge">
<title>W1:e&#45;&#45;X2:w</title>
<path fill="none" stroke="#000000" stroke-width="2" d="M527,-361C590.88,-361 606.87,-360 671,-360"/>
<path fill="none" stroke="#000000" stroke-width="2" d="M527,-363C591,-363 607,-362 671,-362"/>
<path fill="none" stroke="#000000" stroke-width="2" d="M527,-365C591.13,-365 607.12,-364 671,-364"/>
</g>
<!-- W1&#45;&#45;X2 -->
<g id="edge4" class="edge">
<title>W1:e&#45;&#45;X2:w</title>
<path fill="none" stroke="#000000" stroke-width="2" d="M527,-336C591.13,-336 607.12,-337 671,-337"/>
<path fill="none" stroke="#ff0000" stroke-width="2" d="M527,-338C591,-338 607,-339 671,-339"/>
<path fill="none" stroke="#000000" stroke-width="2" d="M527,-340C590.88,-340 606.87,-341 671,-341"/>
</g>
<!-- W2&#45;&#45;X3 -->
<g id="edge6" class="edge">
<title>W2:e&#45;&#45;X3:w</title>
<path fill="none" stroke="#000000" stroke-width="2" d="M527,-203C590.88,-203 606.87,-202 671,-202"/>
<path fill="none" stroke="#000000" stroke-width="2" d="M527,-205C591,-205 607,-204 671,-204"/>
<path fill="none" stroke="#000000" stroke-width="2" d="M527,-207C591.13,-207 607.12,-206 671,-206"/>
</g>
<!-- W2&#45;&#45;X3 -->
<g id="edge8" class="edge">
<title>W2:e&#45;&#45;X3:w</title>
<path fill="none" stroke="#000000" stroke-width="2" d="M527,-178C591.13,-178 607.12,-179 671,-179"/>
<path fill="none" stroke="#ff0000" stroke-width="2" d="M527,-180C591,-180 607,-181 671,-181"/>
<path fill="none" stroke="#000000" stroke-width="2" d="M527,-182C590.88,-182 606.87,-183 671,-183"/>
</g>
<!-- W3&#45;&#45;X4 -->
<g id="edge10" class="edge">
<title>W3:e&#45;&#45;X4:w</title>
<path fill="none" stroke="#000000" stroke-width="2" d="M527,-45C590.88,-45 606.87,-44 671,-44"/>
<path fill="none" stroke="#000000" stroke-width="2" d="M527,-47C591,-47 607,-46 671,-46"/>
<path fill="none" stroke="#000000" stroke-width="2" d="M527,-49C591.13,-49 607.12,-48 671,-48"/>
</g>
<!-- W3&#45;&#45;X4 -->
<g id="edge12" class="edge">
<title>W3:e&#45;&#45;X4:w</title>
<path fill="none" stroke="#000000" stroke-width="2" d="M527,-20C591.13,-20 607.12,-21 671,-21"/>
<path fill="none" stroke="#ff0000" stroke-width="2" d="M527,-22C591,-22 607,-23 671,-23"/>
<path fill="none" stroke="#000000" stroke-width="2" d="M527,-24C590.88,-24 606.87,-25 671,-25"/>
</g>
</g>
</svg>
