<?xml version="1.0" encoding="UTF-8" standalone="no"?>
<!DOCTYPE svg PUBLIC "-//W3C//DTD SVG 1.1//EN"
 "http://www.w3.org/Graphics/SVG/1.1/DTD/svg11.dtd">
<!-- Generated by graphviz version 2.49.1 (20210923.0004)
 -->
<!-- Pages: 1 -->
<svg width="881pt" height="458pt"
 viewBox="0.00 0.00 881.00 458.00" xmlns="http://www.w3.org/2000/svg" xmlns:xlink="http://www.w3.org/1999/xlink">
<g id="graph0" class="graph" transform="scale(1 1) rotate(0) translate(4 454)">
<polygon fill="#ffffff" stroke="transparent" points="-4,4 -4,-454 877,-454 877,4 -4,4"/>
<!-- X1 -->
<g id="node1" class="node">
<title>X1</title>
<polygon fill="#ffffff" stroke="black" points="183,-262 0,-262 0,-170 183,-170 183,-262"/>
<polygon fill="none" stroke="black" points="0.5,-239 0.5,-262 183.5,-262 183.5,-239 0.5,-239"/>
<text text-anchor="start" x="83" y="-246.8" font-family="arial" font-size="14.00">X1</text>
<polygon fill="none" stroke="black" points="0.5,-216 0.5,-239 104.5,-239 104.5,-216 0.5,-216"/>
<text text-anchor="start" x="4.5" y="-223.8" font-family="arial" font-size="14.00">Molex Micro&#45;Fit</text>
<polygon fill="none" stroke="black" points="104.5,-216 104.5,-239 143.5,-239 143.5,-216 104.5,-216"/>
<text text-anchor="start" x="108.5" y="-223.8" font-family="arial" font-size="14.00">male</text>
<polygon fill="none" stroke="black" points="143.5,-216 143.5,-239 183.5,-239 183.5,-216 143.5,-216"/>
<text text-anchor="start" x="147.5" y="-223.8" font-family="arial" font-size="14.00">2&#45;pin</text>
<polygon fill="none" stroke="black" points="0.5,-193 0.5,-216 104.5,-216 104.5,-193 0.5,-193"/>
<text text-anchor="start" x="36.5" y="-200.8" font-family="arial" font-size="14.00">GND</text>
<polygon fill="none" stroke="black" points="104.5,-193 104.5,-216 183.5,-216 183.5,-193 104.5,-193"/>
<text text-anchor="start" x="140" y="-200.8" font-family="arial" font-size="14.00">1</text>
<polygon fill="none" stroke="black" points="0.5,-170 0.5,-193 104.5,-193 104.5,-170 0.5,-170"/>
<text text-anchor="start" x="37.5" y="-177.8" font-family="arial" font-size="14.00">VCC</text>
<polygon fill="none" stroke="black" points="104.5,-170 104.5,-193 183.5,-193 183.5,-170 104.5,-170"/>
<text text-anchor="start" x="140" y="-177.8" font-family="arial" font-size="14.00">2</text>
</g>
<!-- W1 -->
<g id="node5" class="node">
<title>W1</title>
<polygon fill="#ffffff" stroke="black" points="534,-450 327,-450 327,-316 534,-316 534,-450"/>
<polygon fill="none" stroke="black" points="327.5,-427 327.5,-450 534.5,-450 534.5,-427 327.5,-427"/>
<text text-anchor="start" x="420.5" y="-434.8" font-family="arial" font-size="14.00">W1</text>
<polygon fill="none" stroke="black" points="327.5,-404 327.5,-427 353.5,-427 353.5,-404 327.5,-404"/>
<text text-anchor="start" x="333" y="-411.8" font-family="arial" font-size="14.00">2x</text>
<polygon fill="none" stroke="black" points="353.5,-404 353.5,-427 488.5,-427 488.5,-404 353.5,-404"/>
<text text-anchor="start" x="359" y="-411.8" font-family="arial" font-size="14.00">0.25 mm² (24 AWG)</text>
<polygon fill="none" stroke="black" points="488.5,-404 488.5,-427 534.5,-427 534.5,-404 488.5,-404"/>
<text text-anchor="start" x="493.5" y="-411.8" font-family="arial" font-size="14.00">0.2 m</text>
<text text-anchor="start" x="359.5" y="-390.8" font-family="arial" font-size="14.00"> </text>
<text text-anchor="start" x="329.5" y="-371.8" font-family="arial" font-size="14.00">X1:1:GND</text>
<text text-anchor="start" x="398" y="-371.8" font-family="arial" font-size="14.00"> &#160;&#160;&#160;&#160;1:BK &#160;&#160;&#160;</text>
<text text-anchor="start" x="468.5" y="-371.8" font-family="arial" font-size="14.00">X2:1:GND</text>
<polygon fill="#000000" stroke="transparent" points="327.5,-364 327.5,-366 534.5,-366 534.5,-364 327.5,-364"/>
<polygon fill="#000000" stroke="transparent" points="327.5,-362 327.5,-364 534.5,-364 534.5,-362 327.5,-362"/>
<polygon fill="#000000" stroke="transparent" points="327.5,-360 327.5,-362 534.5,-362 534.5,-360 327.5,-360"/>
<text text-anchor="start" x="330" y="-346.8" font-family="arial" font-size="14.00">X1:2:VCC</text>
<text text-anchor="start" x="397.5" y="-346.8" font-family="arial" font-size="14.00"> &#160;&#160;&#160;&#160;2:RD &#160;&#160;&#160;</text>
<text text-anchor="start" x="469" y="-346.8" font-family="arial" font-size="14.00">X2:2:VCC</text>
<polygon fill="#000000" stroke="transparent" points="327.5,-339 327.5,-341 534.5,-341 534.5,-339 327.5,-339"/>
<polygon fill="#ff0000" stroke="transparent" points="327.5,-337 327.5,-339 534.5,-339 534.5,-337 327.5,-337"/>
<polygon fill="#000000" stroke="transparent" points="327.5,-335 327.5,-337 534.5,-337 534.5,-335 327.5,-335"/>
<text text-anchor="start" x="359.5" y="-321.8" font-family="arial" font-size="14.00"> </text>
</g>
<!-- X1&#45;&#45;W1 -->
<g id="edge1" class="edge">
<title>X1:e&#45;&#45;W1:w</title>
<path fill="none" stroke="#000000" stroke-width="2" d="M183,-202C280.26,-204.56 233.58,-363.56 327,-361"/>
<path fill="none" stroke="#000000" stroke-width="2" d="M183,-204C278.34,-204 231.66,-363 327,-363"/>
<path fill="none" stroke="#000000" stroke-width="2" d="M183,-206C276.42,-203.44 229.74,-362.44 327,-365"/>
</g>
<!-- X1&#45;&#45;W1 -->
<g id="edge3" class="edge">
<title>X1:e&#45;&#45;W1:w</title>
<path fill="none" stroke="#000000" stroke-width="2" d="M183,-179C279.6,-181.56 234.24,-338.56 327,-336"/>
<path fill="none" stroke="#ff0000" stroke-width="2" d="M183,-181C277.68,-181 232.32,-338 327,-338"/>
<path fill="none" stroke="#000000" stroke-width="2" d="M183,-183C275.76,-180.44 230.4,-337.44 327,-340"/>
</g>
<!-- W2 -->
<g id="node6" class="node">
<title>W2</title>
<polygon fill="#ffffff" stroke="black" points="534,-292 327,-292 327,-158 534,-158 534,-292"/>
<polygon fill="none" stroke="black" points="327.5,-269 327.5,-292 534.5,-292 534.5,-269 327.5,-269"/>
<text text-anchor="start" x="420.5" y="-276.8" font-family="arial" font-size="14.00">W2</text>
<polygon fill="none" stroke="black" points="327.5,-246 327.5,-269 353.5,-269 353.5,-246 327.5,-246"/>
<text text-anchor="start" x="333" y="-253.8" font-family="arial" font-size="14.00">2x</text>
<polygon fill="none" stroke="black" points="353.5,-246 353.5,-269 488.5,-269 488.5,-246 353.5,-246"/>
<text text-anchor="start" x="359" y="-253.8" font-family="arial" font-size="14.00">0.25 mm² (24 AWG)</text>
<polygon fill="none" stroke="black" points="488.5,-246 488.5,-269 534.5,-269 534.5,-246 488.5,-246"/>
<text text-anchor="start" x="493.5" y="-253.8" font-family="arial" font-size="14.00">0.2 m</text>
<text text-anchor="start" x="359.5" y="-232.8" font-family="arial" font-size="14.00"> </text>
<text text-anchor="start" x="329.5" y="-213.8" font-family="arial" font-size="14.00">X1:1:GND</text>
<text text-anchor="start" x="398" y="-213.8" font-family="arial" font-size="14.00"> &#160;&#160;&#160;&#160;1:BK &#160;&#160;&#160;</text>
<text text-anchor="start" x="468.5" y="-213.8" font-family="arial" font-size="14.00">X3:1:GND</text>
<polygon fill="#000000" stroke="transparent" points="327.5,-206 327.5,-208 534.5,-208 534.5,-206 327.5,-206"/>
<polygon fill="#000000" stroke="transparent" points="327.5,-204 327.5,-206 534.5,-206 534.5,-204 327.5,-204"/>
<polygon fill="#000000" stroke="transparent" points="327.5,-202 327.5,-204 534.5,-204 534.5,-202 327.5,-202"/>
<text text-anchor="start" x="330" y="-188.8" font-family="arial" font-size="14.00">X1:2:VCC</text>
<text text-anchor="start" x="397.5" y="-188.8" font-family="arial" font-size="14.00"> &#160;&#160;&#160;&#160;2:RD &#160;&#160;&#160;</text>
<text text-anchor="start" x="469" y="-188.8" font-family="arial" font-size="14.00">X3:2:VCC</text>
<polygon fill="#000000" stroke="transparent" points="327.5,-181 327.5,-183 534.5,-183 534.5,-181 327.5,-181"/>
<polygon fill="#ff0000" stroke="transparent" points="327.5,-179 327.5,-181 534.5,-181 534.5,-179 327.5,-179"/>
<polygon fill="#000000" stroke="transparent" points="327.5,-177 327.5,-179 534.5,-179 534.5,-177 327.5,-177"/>
<text text-anchor="start" x="359.5" y="-163.8" font-family="arial" font-size="14.00"> </text>
</g>
<!-- X1&#45;&#45;W2 -->
<g id="edge5" class="edge">
<title>X1:e&#45;&#45;W2:w</title>
<path fill="none" stroke="#000000" stroke-width="2" d="M183,-202C247.13,-202 263.12,-203 327,-203"/>
<path fill="none" stroke="#000000" stroke-width="2" d="M183,-204C247,-204 263,-205 327,-205"/>
<path fill="none" stroke="#000000" stroke-width="2" d="M183,-206C246.88,-206 262.87,-207 327,-207"/>
</g>
<!-- X1&#45;&#45;W2 -->
<g id="edge7" class="edge">
<title>X1:e&#45;&#45;W2:w</title>
<path fill="none" stroke="#000000" stroke-width="2" d="M183,-179C246.88,-179 262.87,-178 327,-178"/>
<path fill="none" stroke="#ff0000" stroke-width="2" d="M183,-181C247,-181 263,-180 327,-180"/>
<path fill="none" stroke="#000000" stroke-width="2" d="M183,-183C247.13,-183 263.12,-182 327,-182"/>
</g>
<!-- W3 -->
<g id="node7" class="node">
<title>W3</title>
<polygon fill="#ffffff" stroke="black" points="534,-134 327,-134 327,0 534,0 534,-134"/>
<polygon fill="none" stroke="black" points="327.5,-111 327.5,-134 534.5,-134 534.5,-111 327.5,-111"/>
<text text-anchor="start" x="420.5" y="-118.8" font-family="arial" font-size="14.00">W3</text>
<polygon fill="none" stroke="black" points="327.5,-88 327.5,-111 353.5,-111 353.5,-88 327.5,-88"/>
<text text-anchor="start" x="333" y="-95.8" font-family="arial" font-size="14.00">2x</text>
<polygon fill="none" stroke="black" points="353.5,-88 353.5,-111 488.5,-111 488.5,-88 353.5,-88"/>
<text text-anchor="start" x="359" y="-95.8" font-family="arial" font-size="14.00">20 AWG (0.75 mm²)</text>
<polygon fill="none" stroke="black" points="488.5,-88 488.5,-111 534.5,-111 534.5,-88 488.5,-88"/>
<text text-anchor="start" x="493.5" y="-95.8" font-family="arial" font-size="14.00">0.2 m</text>
<text text-anchor="start" x="359.5" y="-74.8" font-family="arial" font-size="14.00"> </text>
<text text-anchor="start" x="329.5" y="-55.8" font-family="arial" font-size="14.00">X1:1:GND</text>
<text text-anchor="start" x="398" y="-55.8" font-family="arial" font-size="14.00"> &#160;&#160;&#160;&#160;1:BK &#160;&#160;&#160;</text>
<text text-anchor="start" x="468.5" y="-55.8" font-family="arial" font-size="14.00">X4:1:GND</text>
<polygon fill="#000000" stroke="transparent" points="327.5,-48 327.5,-50 534.5,-50 534.5,-48 327.5,-48"/>
<polygon fill="#000000" stroke="transparent" points="327.5,-46 327.5,-48 534.5,-48 534.5,-46 327.5,-46"/>
<polygon fill="#000000" stroke="transparent" points="327.5,-44 327.5,-46 534.5,-46 534.5,-44 327.5,-44"/>
<text text-anchor="start" x="330" y="-30.8" font-family="arial" font-size="14.00">X1:2:VCC</text>
<text text-anchor="start" x="397.5" y="-30.8" font-family="arial" font-size="14.00"> &#160;&#160;&#160;&#160;2:RD &#160;&#160;&#160;</text>
<text text-anchor="start" x="469" y="-30.8" font-family="arial" font-size="14.00">X4:2:VCC</text>
<polygon fill="#000000" stroke="transparent" points="327.5,-23 327.5,-25 534.5,-25 534.5,-23 327.5,-23"/>
<polygon fill="#ff0000" stroke="transparent" points="327.5,-21 327.5,-23 534.5,-23 534.5,-21 327.5,-21"/>
<polygon fill="#000000" stroke="transparent" points="327.5,-19 327.5,-21 534.5,-21 534.5,-19 327.5,-19"/>
<text text-anchor="start" x="359.5" y="-5.8" font-family="arial" font-size="14.00"> </text>
</g>
<!-- X1&#45;&#45;W3 -->
<g id="edge9" class="edge">
<title>X1:e&#45;&#45;W3:w</title>
<path fill="none" stroke="#000000" stroke-width="2" d="M183,-202C275.76,-204.56 230.4,-47.56 327,-45"/>
<path fill="none" stroke="#000000" stroke-width="2" d="M183,-204C277.68,-204 232.32,-47 327,-47"/>
<path fill="none" stroke="#000000" stroke-width="2" d="M183,-206C279.6,-203.44 234.24,-46.44 327,-49"/>
</g>
<!-- X1&#45;&#45;W3 -->
<g id="edge11" class="edge">
<title>X1:e&#45;&#45;W3:w</title>
<path fill="none" stroke="#000000" stroke-width="2" d="M183,-179C276.42,-181.56 229.74,-22.56 327,-20"/>
<path fill="none" stroke="#ff0000" stroke-width="2" d="M183,-181C278.34,-181 231.66,-22 327,-22"/>
<path fill="none" stroke="#000000" stroke-width="2" d="M183,-183C280.26,-180.44 233.58,-21.44 327,-24"/>
</g>
<!-- X2 -->
<g id="node2" class="node">
<title>X2</title>
<polygon fill="#ffffff" stroke="black" points="873,-420 678,-420 678,-328 873,-328 873,-420"/>
<polygon fill="none" stroke="black" points="678.5,-397 678.5,-420 873.5,-420 873.5,-397 678.5,-397"/>
<text text-anchor="start" x="767" y="-404.8" font-family="arial" font-size="14.00">X2</text>
<polygon fill="none" stroke="black" points="678.5,-374 678.5,-397 782.5,-397 782.5,-374 678.5,-374"/>
<text text-anchor="start" x="682.5" y="-381.8" font-family="arial" font-size="14.00">Molex Micro&#45;Fit</text>
<polygon fill="none" stroke="black" points="782.5,-374 782.5,-397 833.5,-397 833.5,-374 782.5,-374"/>
<text text-anchor="start" x="786.5" y="-381.8" font-family="arial" font-size="14.00">female</text>
<polygon fill="none" stroke="black" points="833.5,-374 833.5,-397 873.5,-397 873.5,-374 833.5,-374"/>
<text text-anchor="start" x="837.5" y="-381.8" font-family="arial" font-size="14.00">2&#45;pin</text>
<polygon fill="none" stroke="black" points="678.5,-351 678.5,-374 764.5,-374 764.5,-351 678.5,-351"/>
<text text-anchor="start" x="717.5" y="-358.8" font-family="arial" font-size="14.00">1</text>
<polygon fill="none" stroke="black" points="764.5,-351 764.5,-374 873.5,-374 873.5,-351 764.5,-351"/>
<text text-anchor="start" x="803" y="-358.8" font-family="arial" font-size="14.00">GND</text>
<polygon fill="none" stroke="black" points="678.5,-328 678.5,-351 764.5,-351 764.5,-328 678.5,-328"/>
<text text-anchor="start" x="717.5" y="-335.8" font-family="arial" font-size="14.00">2</text>
<polygon fill="none" stroke="black" points="764.5,-328 764.5,-351 873.5,-351 873.5,-328 764.5,-328"/>
<text text-anchor="start" x="804" y="-335.8" font-family="arial" font-size="14.00">VCC</text>
</g>
<!-- X3 -->
<g id="node3" class="node">
<title>X3</title>
<polygon fill="#ffffff" stroke="black" points="873,-262 678,-262 678,-170 873,-170 873,-262"/>
<polygon fill="none" stroke="black" points="678.5,-239 678.5,-262 873.5,-262 873.5,-239 678.5,-239"/>
<text text-anchor="start" x="767" y="-246.8" font-family="arial" font-size="14.00">X3</text>
<polygon fill="none" stroke="black" points="678.5,-216 678.5,-239 782.5,-239 782.5,-216 678.5,-216"/>
<text text-anchor="start" x="682.5" y="-223.8" font-family="arial" font-size="14.00">Molex Micro&#45;Fit</text>
<polygon fill="none" stroke="black" points="782.5,-216 782.5,-239 833.5,-239 833.5,-216 782.5,-216"/>
<text text-anchor="start" x="786.5" y="-223.8" font-family="arial" font-size="14.00">female</text>
<polygon fill="none" stroke="black" points="833.5,-216 833.5,-239 873.5,-239 873.5,-216 833.5,-216"/>
<text text-anchor="start" x="837.5" y="-223.8" font-family="arial" font-size="14.00">2&#45;pin</text>
<polygon fill="none" stroke="black" points="678.5,-193 678.5,-216 764.5,-216 764.5,-193 678.5,-193"/>
<text text-anchor="start" x="717.5" y="-200.8" font-family="arial" font-size="14.00">1</text>
<polygon fill="none" stroke="black" points="764.5,-193 764.5,-216 873.5,-216 873.5,-193 764.5,-193"/>
<text text-anchor="start" x="803" y="-200.8" font-family="arial" font-size="14.00">GND</text>
<polygon fill="none" stroke="black" points="678.5,-170 678.5,-193 764.5,-193 764.5,-170 678.5,-170"/>
<text text-anchor="start" x="717.5" y="-177.8" font-family="arial" font-size="14.00">2</text>
<polygon fill="none" stroke="black" points="764.5,-170 764.5,-193 873.5,-193 873.5,-170 764.5,-170"/>
<text text-anchor="start" x="804" y="-177.8" font-family="arial" font-size="14.00">VCC</text>
</g>
<!-- X4 -->
<g id="node4" class="node">
<title>X4</title>
<polygon fill="#ffffff" stroke="black" points="873,-104 678,-104 678,-12 873,-12 873,-104"/>
<polygon fill="none" stroke="black" points="678.5,-81 678.5,-104 873.5,-104 873.5,-81 678.5,-81"/>
<text text-anchor="start" x="767" y="-88.8" font-family="arial" font-size="14.00">X4</text>
<polygon fill="none" stroke="black" points="678.5,-58 678.5,-81 782.5,-81 782.5,-58 678.5,-58"/>
<text text-anchor="start" x="682.5" y="-65.8" font-family="arial" font-size="14.00">Molex Micro&#45;Fit</text>
<polygon fill="none" stroke="black" points="782.5,-58 782.5,-81 833.5,-81 833.5,-58 782.5,-58"/>
<text text-anchor="start" x="786.5" y="-65.8" font-family="arial" font-size="14.00">female</text>
<polygon fill="none" stroke="black" points="833.5,-58 833.5,-81 873.5,-81 873.5,-58 833.5,-58"/>
<text text-anchor="start" x="837.5" y="-65.8" font-family="arial" font-size="14.00">2&#45;pin</text>
<polygon fill="none" stroke="black" points="678.5,-35 678.5,-58 764.5,-58 764.5,-35 678.5,-35"/>
<text text-anchor="start" x="717.5" y="-42.8" font-family="arial" font-size="14.00">1</text>
<polygon fill="none" stroke="black" points="764.5,-35 764.5,-58 873.5,-58 873.5,-35 764.5,-35"/>
<text text-anchor="start" x="803" y="-42.8" font-family="arial" font-size="14.00">GND</text>
<polygon fill="none" stroke="black" points="678.5,-12 678.5,-35 764.5,-35 764.5,-12 678.5,-12"/>
<text text-anchor="start" x="717.5" y="-19.8" font-family="arial" font-size="14.00">2</text>
<polygon fill="none" stroke="black" points="764.5,-12 764.5,-35 873.5,-35 873.5,-12 764.5,-12"/>
<text text-anchor="start" x="804" y="-19.8" font-family="arial" font-size="14.00">VCC</text>
</g>
<!-- W1&#45;&#45;X2 -->
<g id="edge2" class="edge">
<title>W1:e&#45;&#45;X2:w</title>
<path fill="none" stroke="#000000" stroke-width="2" d="M534,-361C597.88,-361 613.87,-360 678,-360"/>
<path fill="none" stroke="#000000" stroke-width="2" d="M534,-363C598,-363 614,-362 678,-362"/>
<path fill="none" stroke="#000000" stroke-width="2" d="M534,-365C598.13,-365 614.12,-364 678,-364"/>
</g>
<!-- W1&#45;&#45;X2 -->
<g id="edge4" class="edge">
<title>W1:e&#45;&#45;X2:w</title>
<path fill="none" stroke="#000000" stroke-width="2" d="M534,-336C598.13,-336 614.12,-337 678,-337"/>
<path fill="none" stroke="#ff0000" stroke-width="2" d="M534,-338C598,-338 614,-339 678,-339"/>
<path fill="none" stroke="#000000" stroke-width="2" d="M534,-340C597.88,-340 613.87,-341 678,-341"/>
</g>
<!-- W2&#45;&#45;X3 -->
<g id="edge6" class="edge">
<title>W2:e&#45;&#45;X3:w</title>
<path fill="none" stroke="#000000" stroke-width="2" d="M534,-203C597.88,-203 613.87,-202 678,-202"/>
<path fill="none" stroke="#000000" stroke-width="2" d="M534,-205C598,-205 614,-204 678,-204"/>
<path fill="none" stroke="#000000" stroke-width="2" d="M534,-207C598.13,-207 614.12,-206 678,-206"/>
</g>
<!-- W2&#45;&#45;X3 -->
<g id="edge8" class="edge">
<title>W2:e&#45;&#45;X3:w</title>
<path fill="none" stroke="#000000" stroke-width="2" d="M534,-178C598.13,-178 614.12,-179 678,-179"/>
<path fill="none" stroke="#ff0000" stroke-width="2" d="M534,-180C598,-180 614,-181 678,-181"/>
<path fill="none" stroke="#000000" stroke-width="2" d="M534,-182C597.88,-182 613.87,-183 678,-183"/>
</g>
<!-- W3&#45;&#45;X4 -->
<g id="edge10" class="edge">
<title>W3:e&#45;&#45;X4:w</title>
<path fill="none" stroke="#000000" stroke-width="2" d="M534,-45C597.88,-45 613.87,-44 678,-44"/>
<path fill="none" stroke="#000000" stroke-width="2" d="M534,-47C598,-47 614,-46 678,-46"/>
<path fill="none" stroke="#000000" stroke-width="2" d="M534,-49C598.13,-49 614.12,-48 678,-48"/>
</g>
<!-- W3&#45;&#45;X4 -->
<g id="edge12" class="edge">
<title>W3:e&#45;&#45;X4:w</title>
<path fill="none" stroke="#000000" stroke-width="2" d="M534,-20C598.13,-20 614.12,-21 678,-21"/>
<path fill="none" stroke="#ff0000" stroke-width="2" d="M534,-22C598,-22 614,-23 678,-23"/>
<path fill="none" stroke="#000000" stroke-width="2" d="M534,-24C597.88,-24 613.87,-25 678,-25"/>
</g>
</g>
</svg>
