<?xml version="1.0" encoding="UTF-8" standalone="no"?>
<!DOCTYPE svg PUBLIC "-//W3C//DTD SVG 1.1//EN"
 "http://www.w3.org/Graphics/SVG/1.1/DTD/svg11.dtd">
<!-- Generated by graphviz version 2.44.0 (20200408.0750)
 -->
<!-- Pages: 1 -->
<svg width="865pt" height="446pt"
 viewBox="0.00 0.00 865.00 446.00" xmlns="http://www.w3.org/2000/svg" xmlns:xlink="http://www.w3.org/1999/xlink">
<g id="graph0" class="graph" transform="scale(1 1) rotate(0) translate(4 442)">
<polygon fill="white" stroke="transparent" points="-4,4 -4,-442 861,-442 861,4 -4,4"/>
<!-- X1 -->
<g id="node1" class="node">
<title>X1</title>
<polygon fill="white" stroke="transparent" points="180,-258 0,-258 0,-166 180,-166 180,-258"/>
<polygon fill="none" stroke="black" points="0,-235 0,-258 180,-258 180,-235 0,-235"/>
<text text-anchor="start" x="81.5" y="-242.8" font-family="arial" font-size="14.00">X1</text>
<polygon fill="none" stroke="black" points="0,-212 0,-235 102,-235 102,-212 0,-212"/>
<text text-anchor="start" x="4" y="-219.8" font-family="arial" font-size="14.00">Molex Micro&#45;Fit</text>
<polygon fill="none" stroke="black" points="102,-212 102,-235 141,-235 141,-212 102,-212"/>
<text text-anchor="start" x="106" y="-219.8" font-family="arial" font-size="14.00">male</text>
<polygon fill="none" stroke="black" points="141,-212 141,-235 180,-235 180,-212 141,-212"/>
<text text-anchor="start" x="145" y="-219.8" font-family="arial" font-size="14.00">2&#45;pin</text>
<polygon fill="none" stroke="black" points="0,-189 0,-212 102,-212 102,-189 0,-189"/>
<text text-anchor="start" x="35.5" y="-196.8" font-family="arial" font-size="14.00">GND</text>
<polygon fill="none" stroke="black" points="102,-189 102,-212 180,-212 180,-189 102,-189"/>
<text text-anchor="start" x="137" y="-196.8" font-family="arial" font-size="14.00">1</text>
<polygon fill="none" stroke="black" points="0,-166 0,-189 102,-189 102,-166 0,-166"/>
<text text-anchor="start" x="36.5" y="-173.8" font-family="arial" font-size="14.00">VCC</text>
<polygon fill="none" stroke="black" points="102,-166 102,-189 180,-189 180,-166 102,-166"/>
<text text-anchor="start" x="137" y="-173.8" font-family="arial" font-size="14.00">2</text>
</g>
<!-- W1 -->
<g id="node5" class="node">
<title>W1</title>
<polygon fill="none" stroke="black" points="522,-438 324,-438 324,-308 522,-308 522,-438"/>
<polygon fill="none" stroke="black" points="324,-415 324,-438 522,-438 522,-415 324,-415"/>
<text text-anchor="start" x="412" y="-422.8" font-family="arial" font-size="14.00">W1</text>
<polygon fill="none" stroke="black" points="324,-392 324,-415 347,-415 347,-392 324,-392"/>
<text text-anchor="start" x="328" y="-399.8" font-family="arial" font-size="14.00">2x</text>
<polygon fill="none" stroke="black" points="347,-392 347,-415 479,-415 479,-392 347,-392"/>
<text text-anchor="start" x="351" y="-399.8" font-family="arial" font-size="14.00">0.25 mm² (24 AWG)</text>
<polygon fill="none" stroke="black" points="479,-392 479,-415 522,-415 522,-392 479,-392"/>
<text text-anchor="start" x="483" y="-399.8" font-family="arial" font-size="14.00">0.2 m</text>
<text text-anchor="start" x="421" y="-380.8" font-family="arial" font-size="14.00"> </text>
<text text-anchor="start" x="344.5" y="-363.8" font-family="arial" font-size="14.00">X1:1</text>
<text text-anchor="start" x="414" y="-363.8" font-family="arial" font-size="14.00">BK</text>
<text text-anchor="start" x="474" y="-363.8" font-family="arial" font-size="14.00">X2:1</text>
<polygon fill="#000000" stroke="transparent" points="324,-356 324,-358 522,-358 522,-356 324,-356"/>
<polygon fill="#000000" stroke="transparent" points="324,-354 324,-356 522,-356 522,-354 324,-354"/>
<polygon fill="#000000" stroke="transparent" points="324,-352 324,-354 522,-354 522,-352 324,-352"/>
<text text-anchor="start" x="344.5" y="-338.8" font-family="arial" font-size="14.00">X1:2</text>
<text text-anchor="start" x="413.5" y="-338.8" font-family="arial" font-size="14.00">RD</text>
<text text-anchor="start" x="474" y="-338.8" font-family="arial" font-size="14.00">X2:2</text>
<polygon fill="#000000" stroke="transparent" points="324,-331 324,-333 522,-333 522,-331 324,-331"/>
<polygon fill="#ff0000" stroke="transparent" points="324,-329 324,-331 522,-331 522,-329 324,-329"/>
<polygon fill="#000000" stroke="transparent" points="324,-327 324,-329 522,-329 522,-327 324,-327"/>
<text text-anchor="start" x="356.5" y="-313.8" font-family="arial" font-size="14.00"> </text>
</g>
<!-- X1&#45;&#45;W1 -->
<g id="edge1" class="edge">
<title>X1:e&#45;&#45;W1:w</title>
<path fill="none" stroke="#000000" stroke-width="2" d="M180,-198C275.95,-200.55 231.89,-355.55 324,-353"/>
<path fill="none" stroke="#000000" stroke-width="2" d="M180,-200C274.03,-200 229.97,-355 324,-355"/>
<path fill="none" stroke="#000000" stroke-width="2" d="M180,-202C272.11,-199.45 228.05,-354.45 324,-357"/>
</g>
<!-- X1&#45;&#45;W1 -->
<g id="edge3" class="edge">
<title>X1:e&#45;&#45;W1:w</title>
<path fill="none" stroke="#000000" stroke-width="2" d="M180,-175C275.31,-177.54 232.55,-330.54 324,-328"/>
<path fill="none" stroke="#ff0000" stroke-width="2" d="M180,-177C273.38,-177 230.62,-330 324,-330"/>
<path fill="none" stroke="#000000" stroke-width="2" d="M180,-179C271.45,-176.46 228.69,-329.46 324,-332"/>
</g>
<!-- W2 -->
<g id="node6" class="node">
<title>W2</title>
<polygon fill="none" stroke="black" points="522,-284 324,-284 324,-154 522,-154 522,-284"/>
<polygon fill="none" stroke="black" points="324,-261 324,-284 522,-284 522,-261 324,-261"/>
<text text-anchor="start" x="412" y="-268.8" font-family="arial" font-size="14.00">W2</text>
<polygon fill="none" stroke="black" points="324,-238 324,-261 347,-261 347,-238 324,-238"/>
<text text-anchor="start" x="328" y="-245.8" font-family="arial" font-size="14.00">2x</text>
<polygon fill="none" stroke="black" points="347,-238 347,-261 479,-261 479,-238 347,-238"/>
<text text-anchor="start" x="351" y="-245.8" font-family="arial" font-size="14.00">0.25 mm² (24 AWG)</text>
<polygon fill="none" stroke="black" points="479,-238 479,-261 522,-261 522,-238 479,-238"/>
<text text-anchor="start" x="483" y="-245.8" font-family="arial" font-size="14.00">0.2 m</text>
<text text-anchor="start" x="421" y="-226.8" font-family="arial" font-size="14.00"> </text>
<text text-anchor="start" x="344.5" y="-209.8" font-family="arial" font-size="14.00">X1:1</text>
<text text-anchor="start" x="414" y="-209.8" font-family="arial" font-size="14.00">BK</text>
<text text-anchor="start" x="474" y="-209.8" font-family="arial" font-size="14.00">X3:1</text>
<polygon fill="#000000" stroke="transparent" points="324,-202 324,-204 522,-204 522,-202 324,-202"/>
<polygon fill="#000000" stroke="transparent" points="324,-200 324,-202 522,-202 522,-200 324,-200"/>
<polygon fill="#000000" stroke="transparent" points="324,-198 324,-200 522,-200 522,-198 324,-198"/>
<text text-anchor="start" x="344.5" y="-184.8" font-family="arial" font-size="14.00">X1:2</text>
<text text-anchor="start" x="413.5" y="-184.8" font-family="arial" font-size="14.00">RD</text>
<text text-anchor="start" x="474" y="-184.8" font-family="arial" font-size="14.00">X3:2</text>
<polygon fill="#000000" stroke="transparent" points="324,-177 324,-179 522,-179 522,-177 324,-177"/>
<polygon fill="#ff0000" stroke="transparent" points="324,-175 324,-177 522,-177 522,-175 324,-175"/>
<polygon fill="#000000" stroke="transparent" points="324,-173 324,-175 522,-175 522,-173 324,-173"/>
<text text-anchor="start" x="356.5" y="-159.8" font-family="arial" font-size="14.00"> </text>
</g>
<!-- X1&#45;&#45;W2 -->
<g id="edge5" class="edge">
<title>X1:e&#45;&#45;W2:w</title>
<path fill="none" stroke="#000000" stroke-width="2" d="M180,-198C244.13,-198 260.12,-199 324,-199"/>
<path fill="none" stroke="#000000" stroke-width="2" d="M180,-200C244,-200 260,-201 324,-201"/>
<path fill="none" stroke="#000000" stroke-width="2" d="M180,-202C243.88,-202 259.87,-203 324,-203"/>
</g>
<!-- X1&#45;&#45;W2 -->
<g id="edge7" class="edge">
<title>X1:e&#45;&#45;W2:w</title>
<path fill="none" stroke="#000000" stroke-width="2" d="M180,-175C243.88,-175 259.87,-174 324,-174"/>
<path fill="none" stroke="#ff0000" stroke-width="2" d="M180,-177C244,-177 260,-176 324,-176"/>
<path fill="none" stroke="#000000" stroke-width="2" d="M180,-179C244.13,-179 260.12,-178 324,-178"/>
</g>
<!-- W3 -->
<g id="node7" class="node">
<title>W3</title>
<polygon fill="none" stroke="black" points="522,-130 324,-130 324,0 522,0 522,-130"/>
<polygon fill="none" stroke="black" points="324,-107 324,-130 522,-130 522,-107 324,-107"/>
<text text-anchor="start" x="412" y="-114.8" font-family="arial" font-size="14.00">W3</text>
<polygon fill="none" stroke="black" points="324,-84 324,-107 347,-107 347,-84 324,-84"/>
<text text-anchor="start" x="328" y="-91.8" font-family="arial" font-size="14.00">2x</text>
<polygon fill="none" stroke="black" points="347,-84 347,-107 479,-107 479,-84 347,-84"/>
<text text-anchor="start" x="351" y="-91.8" font-family="arial" font-size="14.00">20 AWG (0.75 mm²)</text>
<polygon fill="none" stroke="black" points="479,-84 479,-107 522,-107 522,-84 479,-84"/>
<text text-anchor="start" x="483" y="-91.8" font-family="arial" font-size="14.00">0.2 m</text>
<text text-anchor="start" x="421" y="-72.8" font-family="arial" font-size="14.00"> </text>
<text text-anchor="start" x="344.5" y="-55.8" font-family="arial" font-size="14.00">X1:1</text>
<text text-anchor="start" x="414" y="-55.8" font-family="arial" font-size="14.00">BK</text>
<text text-anchor="start" x="474" y="-55.8" font-family="arial" font-size="14.00">X4:1</text>
<polygon fill="#000000" stroke="transparent" points="324,-48 324,-50 522,-50 522,-48 324,-48"/>
<polygon fill="#000000" stroke="transparent" points="324,-46 324,-48 522,-48 522,-46 324,-46"/>
<polygon fill="#000000" stroke="transparent" points="324,-44 324,-46 522,-46 522,-44 324,-44"/>
<text text-anchor="start" x="344.5" y="-30.8" font-family="arial" font-size="14.00">X1:2</text>
<text text-anchor="start" x="413.5" y="-30.8" font-family="arial" font-size="14.00">RD</text>
<text text-anchor="start" x="474" y="-30.8" font-family="arial" font-size="14.00">X4:2</text>
<polygon fill="#000000" stroke="transparent" points="324,-23 324,-25 522,-25 522,-23 324,-23"/>
<polygon fill="#ff0000" stroke="transparent" points="324,-21 324,-23 522,-23 522,-21 324,-21"/>
<polygon fill="#000000" stroke="transparent" points="324,-19 324,-21 522,-21 522,-19 324,-19"/>
<text text-anchor="start" x="356.5" y="-5.8" font-family="arial" font-size="14.00"> </text>
</g>
<!-- X1&#45;&#45;W3 -->
<g id="edge9" class="edge">
<title>X1:e&#45;&#45;W3:w</title>
<path fill="none" stroke="#000000" stroke-width="2" d="M180,-198C271.45,-200.54 228.69,-47.54 324,-45"/>
<path fill="none" stroke="#000000" stroke-width="2" d="M180,-200C273.38,-200 230.62,-47 324,-47"/>
<path fill="none" stroke="#000000" stroke-width="2" d="M180,-202C275.31,-199.46 232.55,-46.46 324,-49"/>
</g>
<!-- X1&#45;&#45;W3 -->
<g id="edge11" class="edge">
<title>X1:e&#45;&#45;W3:w</title>
<path fill="none" stroke="#000000" stroke-width="2" d="M180,-175C272.11,-177.55 228.05,-22.55 324,-20"/>
<path fill="none" stroke="#ff0000" stroke-width="2" d="M180,-177C274.03,-177 229.97,-22 324,-22"/>
<path fill="none" stroke="#000000" stroke-width="2" d="M180,-179C275.95,-176.45 231.89,-21.45 324,-24"/>
</g>
<!-- X2 -->
<g id="node2" class="node">
<title>X2</title>
<polygon fill="white" stroke="transparent" points="857,-412 666,-412 666,-320 857,-320 857,-412"/>
<polygon fill="none" stroke="black" points="666.5,-389 666.5,-412 857.5,-412 857.5,-389 666.5,-389"/>
<text text-anchor="start" x="753.5" y="-396.8" font-family="arial" font-size="14.00">X2</text>
<polygon fill="none" stroke="black" points="666.5,-366 666.5,-389 768.5,-389 768.5,-366 666.5,-366"/>
<text text-anchor="start" x="670.5" y="-373.8" font-family="arial" font-size="14.00">Molex Micro&#45;Fit</text>
<polygon fill="none" stroke="black" points="768.5,-366 768.5,-389 818.5,-389 818.5,-366 768.5,-366"/>
<text text-anchor="start" x="772.5" y="-373.8" font-family="arial" font-size="14.00">female</text>
<polygon fill="none" stroke="black" points="818.5,-366 818.5,-389 857.5,-389 857.5,-366 818.5,-366"/>
<text text-anchor="start" x="822.5" y="-373.8" font-family="arial" font-size="14.00">2&#45;pin</text>
<polygon fill="none" stroke="black" points="666.5,-343 666.5,-366 750.5,-366 750.5,-343 666.5,-343"/>
<text text-anchor="start" x="704.5" y="-350.8" font-family="arial" font-size="14.00">1</text>
<polygon fill="none" stroke="black" points="750.5,-343 750.5,-366 857.5,-366 857.5,-343 750.5,-343"/>
<text text-anchor="start" x="788.5" y="-350.8" font-family="arial" font-size="14.00">GND</text>
<polygon fill="none" stroke="black" points="666.5,-320 666.5,-343 750.5,-343 750.5,-320 666.5,-320"/>
<text text-anchor="start" x="704.5" y="-327.8" font-family="arial" font-size="14.00">2</text>
<polygon fill="none" stroke="black" points="750.5,-320 750.5,-343 857.5,-343 857.5,-320 750.5,-320"/>
<text text-anchor="start" x="789.5" y="-327.8" font-family="arial" font-size="14.00">VCC</text>
</g>
<!-- X3 -->
<g id="node3" class="node">
<title>X3</title>
<polygon fill="white" stroke="transparent" points="857,-258 666,-258 666,-166 857,-166 857,-258"/>
<polygon fill="none" stroke="black" points="666.5,-235 666.5,-258 857.5,-258 857.5,-235 666.5,-235"/>
<text text-anchor="start" x="753.5" y="-242.8" font-family="arial" font-size="14.00">X3</text>
<polygon fill="none" stroke="black" points="666.5,-212 666.5,-235 768.5,-235 768.5,-212 666.5,-212"/>
<text text-anchor="start" x="670.5" y="-219.8" font-family="arial" font-size="14.00">Molex Micro&#45;Fit</text>
<polygon fill="none" stroke="black" points="768.5,-212 768.5,-235 818.5,-235 818.5,-212 768.5,-212"/>
<text text-anchor="start" x="772.5" y="-219.8" font-family="arial" font-size="14.00">female</text>
<polygon fill="none" stroke="black" points="818.5,-212 818.5,-235 857.5,-235 857.5,-212 818.5,-212"/>
<text text-anchor="start" x="822.5" y="-219.8" font-family="arial" font-size="14.00">2&#45;pin</text>
<polygon fill="none" stroke="black" points="666.5,-189 666.5,-212 750.5,-212 750.5,-189 666.5,-189"/>
<text text-anchor="start" x="704.5" y="-196.8" font-family="arial" font-size="14.00">1</text>
<polygon fill="none" stroke="black" points="750.5,-189 750.5,-212 857.5,-212 857.5,-189 750.5,-189"/>
<text text-anchor="start" x="788.5" y="-196.8" font-family="arial" font-size="14.00">GND</text>
<polygon fill="none" stroke="black" points="666.5,-166 666.5,-189 750.5,-189 750.5,-166 666.5,-166"/>
<text text-anchor="start" x="704.5" y="-173.8" font-family="arial" font-size="14.00">2</text>
<polygon fill="none" stroke="black" points="750.5,-166 750.5,-189 857.5,-189 857.5,-166 750.5,-166"/>
<text text-anchor="start" x="789.5" y="-173.8" font-family="arial" font-size="14.00">VCC</text>
</g>
<!-- X4 -->
<g id="node4" class="node">
<title>X4</title>
<polygon fill="white" stroke="transparent" points="857,-104 666,-104 666,-12 857,-12 857,-104"/>
<polygon fill="none" stroke="black" points="666.5,-81 666.5,-104 857.5,-104 857.5,-81 666.5,-81"/>
<text text-anchor="start" x="753.5" y="-88.8" font-family="arial" font-size="14.00">X4</text>
<polygon fill="none" stroke="black" points="666.5,-58 666.5,-81 768.5,-81 768.5,-58 666.5,-58"/>
<text text-anchor="start" x="670.5" y="-65.8" font-family="arial" font-size="14.00">Molex Micro&#45;Fit</text>
<polygon fill="none" stroke="black" points="768.5,-58 768.5,-81 818.5,-81 818.5,-58 768.5,-58"/>
<text text-anchor="start" x="772.5" y="-65.8" font-family="arial" font-size="14.00">female</text>
<polygon fill="none" stroke="black" points="818.5,-58 818.5,-81 857.5,-81 857.5,-58 818.5,-58"/>
<text text-anchor="start" x="822.5" y="-65.8" font-family="arial" font-size="14.00">2&#45;pin</text>
<polygon fill="none" stroke="black" points="666.5,-35 666.5,-58 750.5,-58 750.5,-35 666.5,-35"/>
<text text-anchor="start" x="704.5" y="-42.8" font-family="arial" font-size="14.00">1</text>
<polygon fill="none" stroke="black" points="750.5,-35 750.5,-58 857.5,-58 857.5,-35 750.5,-35"/>
<text text-anchor="start" x="788.5" y="-42.8" font-family="arial" font-size="14.00">GND</text>
<polygon fill="none" stroke="black" points="666.5,-12 666.5,-35 750.5,-35 750.5,-12 666.5,-12"/>
<text text-anchor="start" x="704.5" y="-19.8" font-family="arial" font-size="14.00">2</text>
<polygon fill="none" stroke="black" points="750.5,-12 750.5,-35 857.5,-35 857.5,-12 750.5,-12"/>
<text text-anchor="start" x="789.5" y="-19.8" font-family="arial" font-size="14.00">VCC</text>
</g>
<!-- W1&#45;&#45;X2 -->
<g id="edge2" class="edge">
<title>W1:e&#45;&#45;X2:w</title>
<path fill="none" stroke="#000000" stroke-width="2" d="M522,-353C585.88,-353 601.87,-352 666,-352"/>
<path fill="none" stroke="#000000" stroke-width="2" d="M522,-355C586,-355 602,-354 666,-354"/>
<path fill="none" stroke="#000000" stroke-width="2" d="M522,-357C586.13,-357 602.12,-356 666,-356"/>
</g>
<!-- W1&#45;&#45;X2 -->
<g id="edge4" class="edge">
<title>W1:e&#45;&#45;X2:w</title>
<path fill="none" stroke="#000000" stroke-width="2" d="M522,-328C586.13,-328 602.12,-329 666,-329"/>
<path fill="none" stroke="#ff0000" stroke-width="2" d="M522,-330C586,-330 602,-331 666,-331"/>
<path fill="none" stroke="#000000" stroke-width="2" d="M522,-332C585.88,-332 601.87,-333 666,-333"/>
</g>
<!-- W2&#45;&#45;X3 -->
<g id="edge6" class="edge">
<title>W2:e&#45;&#45;X3:w</title>
<path fill="none" stroke="#000000" stroke-width="2" d="M522,-199C585.88,-199 601.87,-198 666,-198"/>
<path fill="none" stroke="#000000" stroke-width="2" d="M522,-201C586,-201 602,-200 666,-200"/>
<path fill="none" stroke="#000000" stroke-width="2" d="M522,-203C586.13,-203 602.12,-202 666,-202"/>
</g>
<!-- W2&#45;&#45;X3 -->
<g id="edge8" class="edge">
<title>W2:e&#45;&#45;X3:w</title>
<path fill="none" stroke="#000000" stroke-width="2" d="M522,-174C586.13,-174 602.12,-175 666,-175"/>
<path fill="none" stroke="#ff0000" stroke-width="2" d="M522,-176C586,-176 602,-177 666,-177"/>
<path fill="none" stroke="#000000" stroke-width="2" d="M522,-178C585.88,-178 601.87,-179 666,-179"/>
</g>
<!-- W3&#45;&#45;X4 -->
<g id="edge10" class="edge">
<title>W3:e&#45;&#45;X4:w</title>
<path fill="none" stroke="#000000" stroke-width="2" d="M522,-45C585.88,-45 601.87,-44 666,-44"/>
<path fill="none" stroke="#000000" stroke-width="2" d="M522,-47C586,-47 602,-46 666,-46"/>
<path fill="none" stroke="#000000" stroke-width="2" d="M522,-49C586.13,-49 602.12,-48 666,-48"/>
</g>
<!-- W3&#45;&#45;X4 -->
<g id="edge12" class="edge">
<title>W3:e&#45;&#45;X4:w</title>
<path fill="none" stroke="#000000" stroke-width="2" d="M522,-20C586.13,-20 602.12,-21 666,-21"/>
<path fill="none" stroke="#ff0000" stroke-width="2" d="M522,-22C586,-22 602,-23 666,-23"/>
<path fill="none" stroke="#000000" stroke-width="2" d="M522,-24C585.88,-24 601.87,-25 666,-25"/>
</g>
</g>
</svg>
