<?xml version="1.0" encoding="UTF-8" standalone="no"?>
<!DOCTYPE svg PUBLIC "-//W3C//DTD SVG 1.1//EN"
 "http://www.w3.org/Graphics/SVG/1.1/DTD/svg11.dtd">
<!-- Generated by graphviz version 2.38.0 (20140413.2041)
 -->
<!-- Title: %3 Pages: 1 -->
<svg width="932pt" height="360pt"
 viewBox="0.00 0.00 932.00 359.50" xmlns="http://www.w3.org/2000/svg" xmlns:xlink="http://www.w3.org/1999/xlink">
<g id="graph0" class="graph" transform="scale(1 1) rotate(0) translate(4 355.5)">
<title>%3</title>
<polygon fill="#fffbf8" stroke="none" points="-4,4 -4,-355.5 928,-355.5 928,4 -4,4"/>
<!-- X1 -->
<g id="node1" class="node"><title>X1</title>
<polygon fill="white" stroke="black" points="0,-124.5 0,-216.5 208,-216.5 208,-124.5 0,-124.5"/>
<text text-anchor="middle" x="104" y="-201.3" font-family="arial" font-size="14.00">X1</text>
<polyline fill="none" stroke="black" points="0,-193.5 208,-193.5 "/>
<text text-anchor="middle" x="56.5" y="-178.3" font-family="arial" font-size="14.00">Molex Micro&#45;Fit</text>
<polyline fill="none" stroke="black" points="113,-170.5 113,-193.5 "/>
<text text-anchor="middle" x="136.5" y="-178.3" font-family="arial" font-size="14.00">male</text>
<polyline fill="none" stroke="black" points="160,-170.5 160,-193.5 "/>
<text text-anchor="middle" x="184" y="-178.3" font-family="arial" font-size="14.00">2&#45;pin</text>
<polyline fill="none" stroke="black" points="0,-170.5 208,-170.5 "/>
<text text-anchor="middle" x="57.5" y="-155.3" font-family="arial" font-size="14.00">GND</text>
<polyline fill="none" stroke="black" points="0,-147.5 115,-147.5 "/>
<text text-anchor="middle" x="57.5" y="-132.3" font-family="arial" font-size="14.00">VCC</text>
<polyline fill="none" stroke="black" points="115,-124.5 115,-170.5 "/>
<text text-anchor="middle" x="161.5" y="-155.3" font-family="arial" font-size="14.00">1</text>
<polyline fill="none" stroke="black" points="115,-147.5 208,-147.5 "/>
<text text-anchor="middle" x="161.5" y="-132.3" font-family="arial" font-size="14.00">2</text>
</g>
<!-- W1 -->
<g id="node5" class="node"><title>W1</title>
<polygon fill="none" stroke="black" points="559,-351.5 352,-351.5 352,-251.5 559,-251.5 559,-351.5"/>
<polygon fill="none" stroke="black" points="352.5,-328.5 352.5,-351.5 559.5,-351.5 559.5,-328.5 352.5,-328.5"/>
<text text-anchor="start" x="444.5" y="-336.3" font-family="arial" font-size="14.00">W1</text>
<polygon fill="none" stroke="black" points="352.5,-305.5 352.5,-328.5 376.5,-328.5 376.5,-305.5 352.5,-305.5"/>
<text text-anchor="start" x="356.5" y="-313.3" font-family="arial" font-size="14.00">2x</text>
<polygon fill="none" stroke="black" points="376.5,-305.5 376.5,-328.5 514.5,-328.5 514.5,-305.5 376.5,-305.5"/>
<text text-anchor="start" x="380.5" y="-313.3" font-family="arial" font-size="14.00">0.25 mm² (24 AWG)</text>
<polygon fill="none" stroke="black" points="514.5,-305.5 514.5,-328.5 559.5,-328.5 559.5,-305.5 514.5,-305.5"/>
<text text-anchor="start" x="518.5" y="-313.3" font-family="arial" font-size="14.00">0.2 m</text>
<text text-anchor="start" x="373" y="-292.3" font-family="arial" font-size="14.00">X1:1</text>
<text text-anchor="start" x="446" y="-292.3" font-family="arial" font-size="14.00">BK</text>
<text text-anchor="start" x="508" y="-292.3" font-family="arial" font-size="14.00">X2:1</text>
<polygon fill="#000000" stroke="none" points="352.5,-284.5 352.5,-286.5 559.5,-286.5 559.5,-284.5 352.5,-284.5"/>
<polygon fill="#000000" stroke="none" points="352.5,-282.5 352.5,-284.5 559.5,-284.5 559.5,-282.5 352.5,-282.5"/>
<polygon fill="#000000" stroke="none" points="352.5,-280.5 352.5,-282.5 559.5,-282.5 559.5,-280.5 352.5,-280.5"/>
<text text-anchor="start" x="373" y="-267.3" font-family="arial" font-size="14.00">X1:2</text>
<text text-anchor="start" x="445" y="-267.3" font-family="arial" font-size="14.00">RD</text>
<text text-anchor="start" x="508" y="-267.3" font-family="arial" font-size="14.00">X2:2</text>
<polygon fill="#000000" stroke="none" points="352.5,-259.5 352.5,-261.5 559.5,-261.5 559.5,-259.5 352.5,-259.5"/>
<polygon fill="#ff0000" stroke="none" points="352.5,-257.5 352.5,-259.5 559.5,-259.5 559.5,-257.5 352.5,-257.5"/>
<polygon fill="#000000" stroke="none" points="352.5,-255.5 352.5,-257.5 559.5,-257.5 559.5,-255.5 352.5,-255.5"/>
</g>
<!-- X1&#45;&#45;W1 -->
<g id="edge1" class="edge"><title>X1:p1r:e&#45;&#45;W1:w1:w</title>
<path fill="none" stroke="#000000" stroke-width="2" d="M208,-156.5C294.709,-158.9 269.21,-283.9 352,-281.5"/>
<path fill="none" stroke="#000000" stroke-width="2" d="M208,-158.5C292.749,-158.5 267.251,-283.5 352,-283.5"/>
<path fill="none" stroke="#000000" stroke-width="2" d="M208,-160.5C290.79,-158.1 265.291,-283.1 352,-285.5"/>
</g>
<!-- X1&#45;&#45;W1 -->
<g id="edge3" class="edge"><title>X1:p2r:e&#45;&#45;W1:w2:w</title>
<path fill="none" stroke="#000000" stroke-width="2" d="M208,-133.5C294.131,-135.888 269.793,-258.888 352,-256.5"/>
<path fill="none" stroke="#ff0000" stroke-width="2" d="M208,-135.5C292.169,-135.5 267.831,-258.5 352,-258.5"/>
<path fill="none" stroke="#000000" stroke-width="2" d="M208,-137.5C290.207,-135.112 265.869,-258.112 352,-260.5"/>
</g>
<!-- W2 -->
<g id="node6" class="node"><title>W2</title>
<polygon fill="none" stroke="black" points="559,-227.5 352,-227.5 352,-127.5 559,-127.5 559,-227.5"/>
<polygon fill="none" stroke="black" points="352.5,-204.5 352.5,-227.5 559.5,-227.5 559.5,-204.5 352.5,-204.5"/>
<text text-anchor="start" x="444.5" y="-212.3" font-family="arial" font-size="14.00">W2</text>
<polygon fill="none" stroke="black" points="352.5,-181.5 352.5,-204.5 376.5,-204.5 376.5,-181.5 352.5,-181.5"/>
<text text-anchor="start" x="356.5" y="-189.3" font-family="arial" font-size="14.00">2x</text>
<polygon fill="none" stroke="black" points="376.5,-181.5 376.5,-204.5 514.5,-204.5 514.5,-181.5 376.5,-181.5"/>
<text text-anchor="start" x="380.5" y="-189.3" font-family="arial" font-size="14.00">0.25 mm² (24 AWG)</text>
<polygon fill="none" stroke="black" points="514.5,-181.5 514.5,-204.5 559.5,-204.5 559.5,-181.5 514.5,-181.5"/>
<text text-anchor="start" x="518.5" y="-189.3" font-family="arial" font-size="14.00">0.2 m</text>
<text text-anchor="start" x="373" y="-168.3" font-family="arial" font-size="14.00">X1:1</text>
<text text-anchor="start" x="446" y="-168.3" font-family="arial" font-size="14.00">BK</text>
<text text-anchor="start" x="508" y="-168.3" font-family="arial" font-size="14.00">X3:1</text>
<polygon fill="#000000" stroke="none" points="352.5,-160.5 352.5,-162.5 559.5,-162.5 559.5,-160.5 352.5,-160.5"/>
<polygon fill="#000000" stroke="none" points="352.5,-158.5 352.5,-160.5 559.5,-160.5 559.5,-158.5 352.5,-158.5"/>
<polygon fill="#000000" stroke="none" points="352.5,-156.5 352.5,-158.5 559.5,-158.5 559.5,-156.5 352.5,-156.5"/>
<text text-anchor="start" x="373" y="-143.3" font-family="arial" font-size="14.00">X1:2</text>
<text text-anchor="start" x="445" y="-143.3" font-family="arial" font-size="14.00">RD</text>
<text text-anchor="start" x="508" y="-143.3" font-family="arial" font-size="14.00">X3:2</text>
<polygon fill="#000000" stroke="none" points="352.5,-135.5 352.5,-137.5 559.5,-137.5 559.5,-135.5 352.5,-135.5"/>
<polygon fill="#ff0000" stroke="none" points="352.5,-133.5 352.5,-135.5 559.5,-135.5 559.5,-133.5 352.5,-133.5"/>
<polygon fill="#000000" stroke="none" points="352.5,-131.5 352.5,-133.5 559.5,-133.5 559.5,-131.5 352.5,-131.5"/>
</g>
<!-- X1&#45;&#45;W2 -->
<g id="edge5" class="edge"><title>X1:p1r:e&#45;&#45;W2:w1:w</title>
<path fill="none" stroke="#000000" stroke-width="2" d="M208,-156.5C272.126,-156.504 288.123,-157.504 352,-157.5"/>
<path fill="none" stroke="#000000" stroke-width="2" d="M208,-158.5C272.002,-158.5 287.998,-159.5 352,-159.5"/>
<path fill="none" stroke="#000000" stroke-width="2" d="M208,-160.5C271.877,-160.496 287.874,-161.496 352,-161.5"/>
</g>
<!-- X1&#45;&#45;W2 -->
<g id="edge7" class="edge"><title>X1:p2r:e&#45;&#45;W2:w2:w</title>
<path fill="none" stroke="#000000" stroke-width="2" d="M208,-133.5C271.877,-133.504 287.874,-132.504 352,-132.5"/>
<path fill="none" stroke="#ff0000" stroke-width="2" d="M208,-135.5C272.002,-135.5 287.998,-134.5 352,-134.5"/>
<path fill="none" stroke="#000000" stroke-width="2" d="M208,-137.5C272.126,-137.496 288.123,-136.496 352,-136.5"/>
</g>
<!-- W3 -->
<g id="node7" class="node"><title>W3</title>
<polygon fill="none" stroke="black" points="559,-103.5 352,-103.5 352,-3.5 559,-3.5 559,-103.5"/>
<polygon fill="none" stroke="black" points="352.5,-80.5 352.5,-103.5 559.5,-103.5 559.5,-80.5 352.5,-80.5"/>
<text text-anchor="start" x="444.5" y="-88.3" font-family="arial" font-size="14.00">W3</text>
<polygon fill="none" stroke="black" points="352.5,-57.5 352.5,-80.5 376.5,-80.5 376.5,-57.5 352.5,-57.5"/>
<text text-anchor="start" x="356.5" y="-65.3" font-family="arial" font-size="14.00">2x</text>
<polygon fill="none" stroke="black" points="376.5,-57.5 376.5,-80.5 514.5,-80.5 514.5,-57.5 376.5,-57.5"/>
<text text-anchor="start" x="380.5" y="-65.3" font-family="arial" font-size="14.00">20 AWG (0.75 mm²)</text>
<polygon fill="none" stroke="black" points="514.5,-57.5 514.5,-80.5 559.5,-80.5 559.5,-57.5 514.5,-57.5"/>
<text text-anchor="start" x="518.5" y="-65.3" font-family="arial" font-size="14.00">0.2 m</text>
<text text-anchor="start" x="373" y="-44.3" font-family="arial" font-size="14.00">X1:1</text>
<text text-anchor="start" x="446" y="-44.3" font-family="arial" font-size="14.00">BK</text>
<text text-anchor="start" x="508" y="-44.3" font-family="arial" font-size="14.00">X4:1</text>
<polygon fill="#000000" stroke="none" points="352.5,-36.5 352.5,-38.5 559.5,-38.5 559.5,-36.5 352.5,-36.5"/>
<polygon fill="#000000" stroke="none" points="352.5,-34.5 352.5,-36.5 559.5,-36.5 559.5,-34.5 352.5,-34.5"/>
<polygon fill="#000000" stroke="none" points="352.5,-32.5 352.5,-34.5 559.5,-34.5 559.5,-32.5 352.5,-32.5"/>
<text text-anchor="start" x="373" y="-19.3" font-family="arial" font-size="14.00">X1:2</text>
<text text-anchor="start" x="445" y="-19.3" font-family="arial" font-size="14.00">RD</text>
<text text-anchor="start" x="508" y="-19.3" font-family="arial" font-size="14.00">X4:2</text>
<polygon fill="#000000" stroke="none" points="352.5,-11.5 352.5,-13.5 559.5,-13.5 559.5,-11.5 352.5,-11.5"/>
<polygon fill="#ff0000" stroke="none" points="352.5,-9.5 352.5,-11.5 559.5,-11.5 559.5,-9.5 352.5,-9.5"/>
<polygon fill="#000000" stroke="none" points="352.5,-7.5 352.5,-9.5 559.5,-9.5 559.5,-7.5 352.5,-7.5"/>
</g>
<!-- X1&#45;&#45;W3 -->
<g id="edge9" class="edge"><title>X1:p1r:e&#45;&#45;W3:w1:w</title>
<path fill="none" stroke="#000000" stroke-width="2" d="M208,-156.5C290.207,-158.888 265.869,-35.8882 352,-33.5"/>
<path fill="none" stroke="#000000" stroke-width="2" d="M208,-158.5C292.169,-158.5 267.831,-35.5 352,-35.5"/>
<path fill="none" stroke="#000000" stroke-width="2" d="M208,-160.5C294.131,-158.112 269.793,-35.1118 352,-37.5"/>
</g>
<!-- X1&#45;&#45;W3 -->
<g id="edge11" class="edge"><title>X1:p2r:e&#45;&#45;W3:w2:w</title>
<path fill="none" stroke="#000000" stroke-width="2" d="M208,-133.5C290.79,-135.9 265.291,-10.8997 352,-8.5"/>
<path fill="none" stroke="#ff0000" stroke-width="2" d="M208,-135.5C292.749,-135.5 267.251,-10.5 352,-10.5"/>
<path fill="none" stroke="#000000" stroke-width="2" d="M208,-137.5C294.709,-135.1 269.21,-10.1003 352,-12.5"/>
</g>
<!-- X2 -->
<g id="node2" class="node"><title>X2</title>
<polygon fill="white" stroke="black" points="703,-248.5 703,-340.5 924,-340.5 924,-248.5 703,-248.5"/>
<text text-anchor="middle" x="813.5" y="-325.3" font-family="arial" font-size="14.00">X2</text>
<polyline fill="none" stroke="black" points="703,-317.5 924,-317.5 "/>
<text text-anchor="middle" x="759.5" y="-302.3" font-family="arial" font-size="14.00">Molex Micro&#45;Fit</text>
<polyline fill="none" stroke="black" points="816,-294.5 816,-317.5 "/>
<text text-anchor="middle" x="846" y="-302.3" font-family="arial" font-size="14.00">female</text>
<polyline fill="none" stroke="black" points="876,-294.5 876,-317.5 "/>
<text text-anchor="middle" x="900" y="-302.3" font-family="arial" font-size="14.00">2&#45;pin</text>
<polyline fill="none" stroke="black" points="703,-294.5 924,-294.5 "/>
<text text-anchor="middle" x="752.5" y="-279.3" font-family="arial" font-size="14.00">1</text>
<polyline fill="none" stroke="black" points="703,-271.5 802,-271.5 "/>
<text text-anchor="middle" x="752.5" y="-256.3" font-family="arial" font-size="14.00">2</text>
<polyline fill="none" stroke="black" points="802,-248.5 802,-294.5 "/>
<text text-anchor="middle" x="863" y="-279.3" font-family="arial" font-size="14.00">GND</text>
<polyline fill="none" stroke="black" points="802,-271.5 924,-271.5 "/>
<text text-anchor="middle" x="863" y="-256.3" font-family="arial" font-size="14.00">VCC</text>
</g>
<!-- X3 -->
<g id="node3" class="node"><title>X3</title>
<polygon fill="white" stroke="black" points="703,-124.5 703,-216.5 924,-216.5 924,-124.5 703,-124.5"/>
<text text-anchor="middle" x="813.5" y="-201.3" font-family="arial" font-size="14.00">X3</text>
<polyline fill="none" stroke="black" points="703,-193.5 924,-193.5 "/>
<text text-anchor="middle" x="759.5" y="-178.3" font-family="arial" font-size="14.00">Molex Micro&#45;Fit</text>
<polyline fill="none" stroke="black" points="816,-170.5 816,-193.5 "/>
<text text-anchor="middle" x="846" y="-178.3" font-family="arial" font-size="14.00">female</text>
<polyline fill="none" stroke="black" points="876,-170.5 876,-193.5 "/>
<text text-anchor="middle" x="900" y="-178.3" font-family="arial" font-size="14.00">2&#45;pin</text>
<polyline fill="none" stroke="black" points="703,-170.5 924,-170.5 "/>
<text text-anchor="middle" x="752.5" y="-155.3" font-family="arial" font-size="14.00">1</text>
<polyline fill="none" stroke="black" points="703,-147.5 802,-147.5 "/>
<text text-anchor="middle" x="752.5" y="-132.3" font-family="arial" font-size="14.00">2</text>
<polyline fill="none" stroke="black" points="802,-124.5 802,-170.5 "/>
<text text-anchor="middle" x="863" y="-155.3" font-family="arial" font-size="14.00">GND</text>
<polyline fill="none" stroke="black" points="802,-147.5 924,-147.5 "/>
<text text-anchor="middle" x="863" y="-132.3" font-family="arial" font-size="14.00">VCC</text>
</g>
<!-- X4 -->
<g id="node4" class="node"><title>X4</title>
<polygon fill="white" stroke="black" points="703,-0.5 703,-92.5 924,-92.5 924,-0.5 703,-0.5"/>
<text text-anchor="middle" x="813.5" y="-77.3" font-family="arial" font-size="14.00">X4</text>
<polyline fill="none" stroke="black" points="703,-69.5 924,-69.5 "/>
<text text-anchor="middle" x="759.5" y="-54.3" font-family="arial" font-size="14.00">Molex Micro&#45;Fit</text>
<polyline fill="none" stroke="black" points="816,-46.5 816,-69.5 "/>
<text text-anchor="middle" x="846" y="-54.3" font-family="arial" font-size="14.00">female</text>
<polyline fill="none" stroke="black" points="876,-46.5 876,-69.5 "/>
<text text-anchor="middle" x="900" y="-54.3" font-family="arial" font-size="14.00">2&#45;pin</text>
<polyline fill="none" stroke="black" points="703,-46.5 924,-46.5 "/>
<text text-anchor="middle" x="752.5" y="-31.3" font-family="arial" font-size="14.00">1</text>
<polyline fill="none" stroke="black" points="703,-23.5 802,-23.5 "/>
<text text-anchor="middle" x="752.5" y="-8.3" font-family="arial" font-size="14.00">2</text>
<polyline fill="none" stroke="black" points="802,-0.5 802,-46.5 "/>
<text text-anchor="middle" x="863" y="-31.3" font-family="arial" font-size="14.00">GND</text>
<polyline fill="none" stroke="black" points="802,-23.5 924,-23.5 "/>
<text text-anchor="middle" x="863" y="-8.3" font-family="arial" font-size="14.00">VCC</text>
</g>
<!-- W1&#45;&#45;X2 -->
<g id="edge2" class="edge"><title>W1:w1:e&#45;&#45;X2:p1l:w</title>
<path fill="none" stroke="#000000" stroke-width="2" d="M559,-281.5C622.877,-281.504 638.874,-280.504 703,-280.5"/>
<path fill="none" stroke="#000000" stroke-width="2" d="M559,-283.5C623.002,-283.5 638.998,-282.5 703,-282.5"/>
<path fill="none" stroke="#000000" stroke-width="2" d="M559,-285.5C623.126,-285.496 639.123,-284.496 703,-284.5"/>
</g>
<!-- W1&#45;&#45;X2 -->
<g id="edge4" class="edge"><title>W1:w2:e&#45;&#45;X2:p2l:w</title>
<path fill="none" stroke="#000000" stroke-width="2" d="M559,-256.5C623.126,-256.504 639.123,-257.504 703,-257.5"/>
<path fill="none" stroke="#ff0000" stroke-width="2" d="M559,-258.5C623.002,-258.5 638.998,-259.5 703,-259.5"/>
<path fill="none" stroke="#000000" stroke-width="2" d="M559,-260.5C622.877,-260.496 638.874,-261.496 703,-261.5"/>
</g>
<!-- W2&#45;&#45;X3 -->
<g id="edge6" class="edge"><title>W2:w1:e&#45;&#45;X3:p1l:w</title>
<path fill="none" stroke="#000000" stroke-width="2" d="M559,-157.5C622.877,-157.504 638.874,-156.504 703,-156.5"/>
<path fill="none" stroke="#000000" stroke-width="2" d="M559,-159.5C623.002,-159.5 638.998,-158.5 703,-158.5"/>
<path fill="none" stroke="#000000" stroke-width="2" d="M559,-161.5C623.126,-161.496 639.123,-160.496 703,-160.5"/>
</g>
<!-- W2&#45;&#45;X3 -->
<g id="edge8" class="edge"><title>W2:w2:e&#45;&#45;X3:p2l:w</title>
<path fill="none" stroke="#000000" stroke-width="2" d="M559,-132.5C623.126,-132.504 639.123,-133.504 703,-133.5"/>
<path fill="none" stroke="#ff0000" stroke-width="2" d="M559,-134.5C623.002,-134.5 638.998,-135.5 703,-135.5"/>
<path fill="none" stroke="#000000" stroke-width="2" d="M559,-136.5C622.877,-136.496 638.874,-137.496 703,-137.5"/>
</g>
<!-- W3&#45;&#45;X4 -->
<g id="edge10" class="edge"><title>W3:w1:e&#45;&#45;X4:p1l:w</title>
<path fill="none" stroke="#000000" stroke-width="2" d="M559,-33.5C622.877,-33.5039 638.874,-32.5039 703,-32.5"/>
<path fill="none" stroke="#000000" stroke-width="2" d="M559,-35.5C623.002,-35.5 638.998,-34.5 703,-34.5"/>
<path fill="none" stroke="#000000" stroke-width="2" d="M559,-37.5C623.126,-37.4961 639.123,-36.4961 703,-36.5"/>
</g>
<!-- W3&#45;&#45;X4 -->
<g id="edge12" class="edge"><title>W3:w2:e&#45;&#45;X4:p2l:w</title>
<path fill="none" stroke="#000000" stroke-width="2" d="M559,-8.5C623.126,-8.5039 639.123,-9.5039 703,-9.5"/>
<path fill="none" stroke="#ff0000" stroke-width="2" d="M559,-10.5C623.002,-10.5 638.998,-11.5 703,-11.5"/>
<path fill="none" stroke="#000000" stroke-width="2" d="M559,-12.5C622.877,-12.4961 638.874,-13.4961 703,-13.5"/>
</g>
</g>
</svg>
