<?xml version="1.0" encoding="UTF-8" standalone="no"?>
<!DOCTYPE svg PUBLIC "-//W3C//DTD SVG 1.1//EN"
 "http://www.w3.org/Graphics/SVG/1.1/DTD/svg11.dtd">
<!-- Generated by graphviz version 2.44.0 (20200408.0750)
 -->
<!-- Pages: 1 -->
<svg width="937pt" height="335pt"
 viewBox="0.00 0.00 937.00 335.00" xmlns="http://www.w3.org/2000/svg" xmlns:xlink="http://www.w3.org/1999/xlink">
<g id="graph0" class="graph" transform="scale(1 1) rotate(0) translate(4 331)">
<!-- X1 -->
<g id="node1" class="node">
<title>X1</title>
<polygon fill="white" stroke="black" points="0,-117.5 0,-209.5 204,-209.5 204,-117.5 0,-117.5"/>
<text text-anchor="middle" x="102" y="-194.3" font-family="arial" font-size="14.00">X1</text>
<polyline fill="none" stroke="black" points="0,-186.5 204,-186.5 "/>
<text text-anchor="middle" x="55" y="-171.3" font-family="arial" font-size="14.00">Molex Micro&#45;Fit</text>
<polyline fill="none" stroke="black" points="110,-163.5 110,-186.5 "/>
<text text-anchor="middle" x="133.5" y="-171.3" font-family="arial" font-size="14.00">male</text>
<polyline fill="none" stroke="black" points="157,-163.5 157,-186.5 "/>
<text text-anchor="middle" x="180.5" y="-171.3" font-family="arial" font-size="14.00">2&#45;pin</text>
<polyline fill="none" stroke="black" points="0,-163.5 204,-163.5 "/>
<text text-anchor="middle" x="56.5" y="-148.3" font-family="arial" font-size="14.00">GND</text>
<polyline fill="none" stroke="black" points="0,-140.5 113,-140.5 "/>
<text text-anchor="middle" x="56.5" y="-125.3" font-family="arial" font-size="14.00">VCC</text>
<polyline fill="none" stroke="black" points="113,-117.5 113,-163.5 "/>
<text text-anchor="middle" x="158.5" y="-148.3" font-family="arial" font-size="14.00">1</text>
<polyline fill="none" stroke="black" points="113,-140.5 204,-140.5 "/>
<text text-anchor="middle" x="158.5" y="-125.3" font-family="arial" font-size="14.00">2</text>
</g>
<!-- W1 -->
<g id="node5" class="node">
<title>W1</title>
<polygon fill="white" stroke="black" points="348,-234.5 348,-326.5 570,-326.5 570,-234.5 348,-234.5"/>
<text text-anchor="middle" x="459" y="-311.3" font-family="arial" font-size="14.00">W1</text>
<polyline fill="none" stroke="black" points="348,-303.5 570,-303.5 "/>
<text text-anchor="middle" x="363.5" y="-288.3" font-family="arial" font-size="14.00">2x</text>
<polyline fill="none" stroke="black" points="379,-280.5 379,-303.5 "/>
<text text-anchor="middle" x="449" y="-288.3" font-family="arial" font-size="14.00">0.25 mm² (24 AWG)</text>
<polyline fill="none" stroke="black" points="519,-280.5 519,-303.5 "/>
<text text-anchor="middle" x="544.5" y="-288.3" font-family="arial" font-size="14.00">0.2 m</text>
<polyline fill="none" stroke="black" points="348,-280.5 570,-280.5 "/>
<text text-anchor="middle" x="459" y="-265.3" font-family="arial" font-size="14.00">BK</text>
<polyline fill="none" stroke="black" points="348,-257.5 570,-257.5 "/>
<text text-anchor="middle" x="459" y="-242.3" font-family="arial" font-size="14.00">RD</text>
</g>
<!-- X1&#45;&#45;W1 -->
<g id="edge1" class="edge">
<title>X1:p1r&#45;&#45;W1:w1</title>
<path fill="none" stroke="#000000" stroke-width="2" d="M204,-149.5C288.43,-151.85 267.51,-268.85 348,-266.5"/>
<path fill="none" stroke="#000000" stroke-width="2" d="M204,-151.5C286.46,-151.5 265.54,-268.5 348,-268.5"/>
<path fill="none" stroke="#000000" stroke-width="2" d="M204,-153.5C284.49,-151.15 263.57,-268.15 348,-270.5"/>
</g>
<!-- X1&#45;&#45;W1 -->
<g id="edge3" class="edge">
<title>X1:p2r&#45;&#45;W1:w2</title>
<path fill="none" stroke="#000000" stroke-width="2" d="M204,-126.5C288.43,-128.85 267.51,-245.85 348,-243.5"/>
<path fill="none" stroke="#ff0000" stroke-width="2" d="M204,-128.5C286.46,-128.5 265.54,-245.5 348,-245.5"/>
<path fill="none" stroke="#000000" stroke-width="2" d="M204,-130.5C284.49,-128.15 263.57,-245.15 348,-247.5"/>
</g>
<!-- W2 -->
<g id="node6" class="node">
<title>W2</title>
<polygon fill="white" stroke="black" points="348,-117.5 348,-209.5 570,-209.5 570,-117.5 348,-117.5"/>
<text text-anchor="middle" x="459" y="-194.3" font-family="arial" font-size="14.00">W2</text>
<polyline fill="none" stroke="black" points="348,-186.5 570,-186.5 "/>
<text text-anchor="middle" x="363.5" y="-171.3" font-family="arial" font-size="14.00">2x</text>
<polyline fill="none" stroke="black" points="379,-163.5 379,-186.5 "/>
<text text-anchor="middle" x="449" y="-171.3" font-family="arial" font-size="14.00">0.25 mm² (24 AWG)</text>
<polyline fill="none" stroke="black" points="519,-163.5 519,-186.5 "/>
<text text-anchor="middle" x="544.5" y="-171.3" font-family="arial" font-size="14.00">0.2 m</text>
<polyline fill="none" stroke="black" points="348,-163.5 570,-163.5 "/>
<text text-anchor="middle" x="459" y="-148.3" font-family="arial" font-size="14.00">BK</text>
<polyline fill="none" stroke="black" points="348,-140.5 570,-140.5 "/>
<text text-anchor="middle" x="459" y="-125.3" font-family="arial" font-size="14.00">RD</text>
</g>
<!-- X1&#45;&#45;W2 -->
<g id="edge5" class="edge">
<title>X1:p1r&#45;&#45;W2:w1</title>
<path fill="none" stroke="#000000" stroke-width="2" d="M204,-149.5C268,-149.5 284,-149.5 348,-149.5"/>
<path fill="none" stroke="#000000" stroke-width="2" d="M204,-151.5C268,-151.5 284,-151.5 348,-151.5"/>
<path fill="none" stroke="#000000" stroke-width="2" d="M204,-153.5C268,-153.5 284,-153.5 348,-153.5"/>
</g>
<!-- X1&#45;&#45;W2 -->
<g id="edge7" class="edge">
<title>X1:p2r&#45;&#45;W2:w2</title>
<path fill="none" stroke="#000000" stroke-width="2" d="M204,-126.5C268,-126.5 284,-126.5 348,-126.5"/>
<path fill="none" stroke="#ff0000" stroke-width="2" d="M204,-128.5C268,-128.5 284,-128.5 348,-128.5"/>
<path fill="none" stroke="#000000" stroke-width="2" d="M204,-130.5C268,-130.5 284,-130.5 348,-130.5"/>
</g>
<!-- W3 -->
<g id="node7" class="node">
<title>W3</title>
<polygon fill="white" stroke="black" points="348,-0.5 348,-92.5 570,-92.5 570,-0.5 348,-0.5"/>
<text text-anchor="middle" x="459" y="-77.3" font-family="arial" font-size="14.00">W3</text>
<polyline fill="none" stroke="black" points="348,-69.5 570,-69.5 "/>
<text text-anchor="middle" x="363.5" y="-54.3" font-family="arial" font-size="14.00">2x</text>
<polyline fill="none" stroke="black" points="379,-46.5 379,-69.5 "/>
<text text-anchor="middle" x="449" y="-54.3" font-family="arial" font-size="14.00">0.25 mm² (24 AWG)</text>
<polyline fill="none" stroke="black" points="519,-46.5 519,-69.5 "/>
<text text-anchor="middle" x="544.5" y="-54.3" font-family="arial" font-size="14.00">0.2 m</text>
<polyline fill="none" stroke="black" points="348,-46.5 570,-46.5 "/>
<text text-anchor="middle" x="459" y="-31.3" font-family="arial" font-size="14.00">BK</text>
<polyline fill="none" stroke="black" points="348,-23.5 570,-23.5 "/>
<text text-anchor="middle" x="459" y="-8.3" font-family="arial" font-size="14.00">RD</text>
</g>
<!-- X1&#45;&#45;W3 -->
<g id="edge9" class="edge">
<title>X1:p1r&#45;&#45;W3:w1</title>
<path fill="none" stroke="#000000" stroke-width="2" d="M204,-149.5C284.49,-151.85 263.57,-34.85 348,-32.5"/>
<path fill="none" stroke="#000000" stroke-width="2" d="M204,-151.5C286.46,-151.5 265.54,-34.5 348,-34.5"/>
<path fill="none" stroke="#000000" stroke-width="2" d="M204,-153.5C288.43,-151.15 267.51,-34.15 348,-36.5"/>
</g>
<!-- X1&#45;&#45;W3 -->
<g id="edge11" class="edge">
<title>X1:p2r&#45;&#45;W3:w2</title>
<path fill="none" stroke="#000000" stroke-width="2" d="M204,-126.5C284.49,-128.85 263.57,-11.85 348,-9.5"/>
<path fill="none" stroke="#ff0000" stroke-width="2" d="M204,-128.5C286.46,-128.5 265.54,-11.5 348,-11.5"/>
<path fill="none" stroke="#000000" stroke-width="2" d="M204,-130.5C288.43,-128.15 267.51,-11.15 348,-13.5"/>
</g>
<!-- X2 -->
<g id="node2" class="node">
<title>X2</title>
<polygon fill="white" stroke="black" points="714,-234.5 714,-326.5 929,-326.5 929,-234.5 714,-234.5"/>
<text text-anchor="middle" x="821.5" y="-311.3" font-family="arial" font-size="14.00">X2</text>
<polyline fill="none" stroke="black" points="714,-303.5 929,-303.5 "/>
<text text-anchor="middle" x="769" y="-288.3" font-family="arial" font-size="14.00">Molex Micro&#45;Fit</text>
<polyline fill="none" stroke="black" points="824,-280.5 824,-303.5 "/>
<text text-anchor="middle" x="853" y="-288.3" font-family="arial" font-size="14.00">female</text>
<polyline fill="none" stroke="black" points="882,-280.5 882,-303.5 "/>
<text text-anchor="middle" x="905.5" y="-288.3" font-family="arial" font-size="14.00">2&#45;pin</text>
<polyline fill="none" stroke="black" points="714,-280.5 929,-280.5 "/>
<text text-anchor="middle" x="762" y="-265.3" font-family="arial" font-size="14.00">1</text>
<polyline fill="none" stroke="black" points="714,-257.5 810,-257.5 "/>
<text text-anchor="middle" x="762" y="-242.3" font-family="arial" font-size="14.00">2</text>
<polyline fill="none" stroke="black" points="810,-234.5 810,-280.5 "/>
<text text-anchor="middle" x="869.5" y="-265.3" font-family="arial" font-size="14.00">GND</text>
<polyline fill="none" stroke="black" points="810,-257.5 929,-257.5 "/>
<text text-anchor="middle" x="869.5" y="-242.3" font-family="arial" font-size="14.00">VCC</text>
</g>
<!-- X3 -->
<g id="node3" class="node">
<title>X3</title>
<polygon fill="white" stroke="black" points="714,-117.5 714,-209.5 929,-209.5 929,-117.5 714,-117.5"/>
<text text-anchor="middle" x="821.5" y="-194.3" font-family="arial" font-size="14.00">X3</text>
<polyline fill="none" stroke="black" points="714,-186.5 929,-186.5 "/>
<text text-anchor="middle" x="769" y="-171.3" font-family="arial" font-size="14.00">Molex Micro&#45;Fit</text>
<polyline fill="none" stroke="black" points="824,-163.5 824,-186.5 "/>
<text text-anchor="middle" x="853" y="-171.3" font-family="arial" font-size="14.00">female</text>
<polyline fill="none" stroke="black" points="882,-163.5 882,-186.5 "/>
<text text-anchor="middle" x="905.5" y="-171.3" font-family="arial" font-size="14.00">2&#45;pin</text>
<polyline fill="none" stroke="black" points="714,-163.5 929,-163.5 "/>
<text text-anchor="middle" x="762" y="-148.3" font-family="arial" font-size="14.00">1</text>
<polyline fill="none" stroke="black" points="714,-140.5 810,-140.5 "/>
<text text-anchor="middle" x="762" y="-125.3" font-family="arial" font-size="14.00">2</text>
<polyline fill="none" stroke="black" points="810,-117.5 810,-163.5 "/>
<text text-anchor="middle" x="869.5" y="-148.3" font-family="arial" font-size="14.00">GND</text>
<polyline fill="none" stroke="black" points="810,-140.5 929,-140.5 "/>
<text text-anchor="middle" x="869.5" y="-125.3" font-family="arial" font-size="14.00">VCC</text>
</g>
<!-- X4 -->
<g id="node4" class="node">
<title>X4</title>
<polygon fill="white" stroke="black" points="714,-0.5 714,-92.5 929,-92.5 929,-0.5 714,-0.5"/>
<text text-anchor="middle" x="821.5" y="-77.3" font-family="arial" font-size="14.00">X4</text>
<polyline fill="none" stroke="black" points="714,-69.5 929,-69.5 "/>
<text text-anchor="middle" x="769" y="-54.3" font-family="arial" font-size="14.00">Molex Micro&#45;Fit</text>
<polyline fill="none" stroke="black" points="824,-46.5 824,-69.5 "/>
<text text-anchor="middle" x="853" y="-54.3" font-family="arial" font-size="14.00">female</text>
<polyline fill="none" stroke="black" points="882,-46.5 882,-69.5 "/>
<text text-anchor="middle" x="905.5" y="-54.3" font-family="arial" font-size="14.00">2&#45;pin</text>
<polyline fill="none" stroke="black" points="714,-46.5 929,-46.5 "/>
<text text-anchor="middle" x="762" y="-31.3" font-family="arial" font-size="14.00">1</text>
<polyline fill="none" stroke="black" points="714,-23.5 810,-23.5 "/>
<text text-anchor="middle" x="762" y="-8.3" font-family="arial" font-size="14.00">2</text>
<polyline fill="none" stroke="black" points="810,-0.5 810,-46.5 "/>
<text text-anchor="middle" x="869.5" y="-31.3" font-family="arial" font-size="14.00">GND</text>
<polyline fill="none" stroke="black" points="810,-23.5 929,-23.5 "/>
<text text-anchor="middle" x="869.5" y="-8.3" font-family="arial" font-size="14.00">VCC</text>
</g>
<!-- W1&#45;&#45;X2 -->
<g id="edge2" class="edge">
<title>W1:w1&#45;&#45;X2:p1l</title>
<path fill="none" stroke="#000000" stroke-width="2" d="M570,-266.5C634,-266.5 650,-266.5 714,-266.5"/>
<path fill="none" stroke="#000000" stroke-width="2" d="M570,-268.5C634,-268.5 650,-268.5 714,-268.5"/>
<path fill="none" stroke="#000000" stroke-width="2" d="M570,-270.5C634,-270.5 650,-270.5 714,-270.5"/>
</g>
<!-- W1&#45;&#45;X2 -->
<g id="edge4" class="edge">
<title>W1:w2&#45;&#45;X2:p2l</title>
<path fill="none" stroke="#000000" stroke-width="2" d="M570,-243.5C634,-243.5 650,-243.5 714,-243.5"/>
<path fill="none" stroke="#ff0000" stroke-width="2" d="M570,-245.5C634,-245.5 650,-245.5 714,-245.5"/>
<path fill="none" stroke="#000000" stroke-width="2" d="M570,-247.5C634,-247.5 650,-247.5 714,-247.5"/>
</g>
<!-- W2&#45;&#45;X3 -->
<g id="edge6" class="edge">
<title>W2:w1&#45;&#45;X3:p1l</title>
<path fill="none" stroke="#000000" stroke-width="2" d="M570,-149.5C634,-149.5 650,-149.5 714,-149.5"/>
<path fill="none" stroke="#000000" stroke-width="2" d="M570,-151.5C634,-151.5 650,-151.5 714,-151.5"/>
<path fill="none" stroke="#000000" stroke-width="2" d="M570,-153.5C634,-153.5 650,-153.5 714,-153.5"/>
</g>
<!-- W2&#45;&#45;X3 -->
<g id="edge8" class="edge">
<title>W2:w2&#45;&#45;X3:p2l</title>
<path fill="none" stroke="#000000" stroke-width="2" d="M570,-126.5C634,-126.5 650,-126.5 714,-126.5"/>
<path fill="none" stroke="#ff0000" stroke-width="2" d="M570,-128.5C634,-128.5 650,-128.5 714,-128.5"/>
<path fill="none" stroke="#000000" stroke-width="2" d="M570,-130.5C634,-130.5 650,-130.5 714,-130.5"/>
</g>
<!-- W3&#45;&#45;X4 -->
<g id="edge10" class="edge">
<title>W3:w1&#45;&#45;X4:p1l</title>
<path fill="none" stroke="#000000" stroke-width="2" d="M570,-32.5C634,-32.5 650,-32.5 714,-32.5"/>
<path fill="none" stroke="#000000" stroke-width="2" d="M570,-34.5C634,-34.5 650,-34.5 714,-34.5"/>
<path fill="none" stroke="#000000" stroke-width="2" d="M570,-36.5C634,-36.5 650,-36.5 714,-36.5"/>
</g>
<!-- W3&#45;&#45;X4 -->
<g id="edge12" class="edge">
<title>W3:w2&#45;&#45;X4:p2l</title>
<path fill="none" stroke="#000000" stroke-width="2" d="M570,-9.5C634,-9.5 650,-9.5 714,-9.5"/>
<path fill="none" stroke="#ff0000" stroke-width="2" d="M570,-11.5C634,-11.5 650,-11.5 714,-11.5"/>
<path fill="none" stroke="#000000" stroke-width="2" d="M570,-13.5C634,-13.5 650,-13.5 714,-13.5"/>
</g>
</g>
</svg>
