<?xml version="1.0" encoding="UTF-8" standalone="no"?>
<!DOCTYPE svg PUBLIC "-//W3C//DTD SVG 1.1//EN"
 "http://www.w3.org/Graphics/SVG/1.1/DTD/svg11.dtd">
<!-- Generated by graphviz version 11.0.0 (20240428.1522)
 -->
<!-- Pages: 1 -->
<svg width="877pt" height="551pt"
 viewBox="0.00 0.00 877.25 551.00" xmlns="http://www.w3.org/2000/svg" xmlns:xlink="http://www.w3.org/1999/xlink">
<g id="graph0" class="graph" transform="scale(1 1) rotate(0) translate(4 547)">
<polygon fill="#ffffff" stroke="none" points="-4,4 -4,-547 873.25,-547 873.25,4 -4,4"/>
<!-- X1 -->
<g id="node1" class="node">
<title>X1</title>
<polygon fill="#ffffff" stroke="black" points="182.25,-310 0,-310 0,-213 182.25,-213 182.25,-310"/>
<polygon fill="#ffffff" stroke="none" points="0,-213 0,-310 182.25,-310 182.25,-213 0,-213"/>
<polygon fill="none" stroke="black" points="0,-285.5 0,-310 182.25,-310 182.25,-285.5 0,-285.5"/>
<text text-anchor="start" x="82.12" y="-292.7" font-family="arial" font-size="14.00">X1</text>
<polygon fill="none" stroke="black" points="0,-261 0,-285.5 104,-285.5 104,-261 0,-261"/>
<text text-anchor="start" x="4" y="-268.2" font-family="arial" font-size="14.00">Molex Micro&#45;Fit</text>
<polygon fill="none" stroke="black" points="104,-261 104,-285.5 142.75,-285.5 142.75,-261 104,-261"/>
<text text-anchor="start" x="108" y="-268.2" font-family="arial" font-size="14.00">male</text>
<polygon fill="none" stroke="black" points="142.75,-261 142.75,-285.5 182.25,-285.5 182.25,-261 142.75,-261"/>
<text text-anchor="start" x="146.75" y="-268.2" font-family="arial" font-size="14.00">2&#45;pin</text>
<polygon fill="none" stroke="black" points="0,-237 0,-261 102.62,-261 102.62,-237 0,-237"/>
<text text-anchor="start" x="35.56" y="-243.7" font-family="arial" font-size="14.00">GND</text>
<polygon fill="none" stroke="black" points="102.62,-237 102.62,-261 182.25,-261 182.25,-237 102.62,-237"/>
<text text-anchor="start" x="138.31" y="-243.7" font-family="arial" font-size="14.00">1</text>
<polygon fill="none" stroke="black" points="0,-213 0,-237 102.62,-237 102.62,-213 0,-213"/>
<text text-anchor="start" x="35.94" y="-219.7" font-family="arial" font-size="14.00">VCC</text>
<polygon fill="none" stroke="black" points="102.62,-213 102.62,-237 182.25,-237 182.25,-213 102.62,-213"/>
<text text-anchor="start" x="138.31" y="-219.7" font-family="arial" font-size="14.00">2</text>
</g>
<!-- W1 -->
<g id="node2" class="node">
<title>W1</title>
<polygon fill="#ffffff" stroke="black" points="530.25,-543 326.25,-543 326.25,-402 530.25,-402 530.25,-543"/>
<polygon fill="#ffffff" stroke="none" points="326.25,-402 326.25,-543 530.25,-543 530.25,-402 326.25,-402"/>
<polygon fill="none" stroke="black" points="326.25,-518.5 326.25,-543 530.25,-543 530.25,-518.5 326.25,-518.5"/>
<text text-anchor="start" x="417" y="-525.7" font-family="arial" font-size="14.00">W1</text>
<polygon fill="none" stroke="black" points="326.25,-494 326.25,-518.5 349.25,-518.5 349.25,-494 326.25,-494"/>
<text text-anchor="start" x="330.25" y="-501.2" font-family="arial" font-size="14.00">2x</text>
<polygon fill="none" stroke="black" points="349.25,-494 349.25,-518.5 486.25,-518.5 486.25,-494 349.25,-494"/>
<text text-anchor="start" x="353.25" y="-501.2" font-family="arial" font-size="14.00">0.25 mm² (24 AWG)</text>
<polygon fill="none" stroke="black" points="486.25,-494 486.25,-518.5 530.25,-518.5 530.25,-494 486.25,-494"/>
<text text-anchor="start" x="490.25" y="-501.2" font-family="arial" font-size="14.00">0.2 m</text>
<text text-anchor="start" x="361.57" y="-478.7" font-family="arial" font-size="14.00"> </text>
<text text-anchor="start" x="328.25" y="-458.7" font-family="arial" font-size="14.00"> X1:1:GND</text>
<text text-anchor="start" x="402.98" y="-458.7" font-family="arial" font-size="14.00"> </text>
<text text-anchor="start" x="412.5" y="-458.7" font-family="arial" font-size="14.00">1:BK</text>
<text text-anchor="start" x="449.77" y="-458.7" font-family="arial" font-size="14.00"> </text>
<text text-anchor="start" x="459.25" y="-458.7" font-family="arial" font-size="14.00">X2:1:GND </text>
<polygon fill="#ffffff" stroke="none" points="326.25,-452 326.25,-454 530.25,-454 530.25,-452 326.25,-452"/>
<polygon fill="#ffffff" stroke="none" points="326.25,-450 326.25,-452 530.25,-452 530.25,-450 326.25,-450"/>
<polygon fill="#ffffff" stroke="none" points="326.25,-448 326.25,-450 530.25,-450 530.25,-448 326.25,-448"/>
<text text-anchor="start" x="328.25" y="-432.7" font-family="arial" font-size="14.00"> X1:2:VCC</text>
<text text-anchor="start" x="402.98" y="-432.7" font-family="arial" font-size="14.00"> </text>
<text text-anchor="start" x="411.75" y="-432.7" font-family="arial" font-size="14.00">2:RD</text>
<text text-anchor="start" x="449.77" y="-432.7" font-family="arial" font-size="14.00"> </text>
<text text-anchor="start" x="460" y="-432.7" font-family="arial" font-size="14.00">X2:2:VCC </text>
<polygon fill="#ffffff" stroke="none" points="326.25,-426 326.25,-428 530.25,-428 530.25,-426 326.25,-426"/>
<polygon fill="#ffffff" stroke="none" points="326.25,-424 326.25,-426 530.25,-426 530.25,-424 326.25,-424"/>
<polygon fill="#ffffff" stroke="none" points="326.25,-422 326.25,-424 530.25,-424 530.25,-422 326.25,-422"/>
<text text-anchor="start" x="361.57" y="-406.7" font-family="arial" font-size="14.00"> </text>
</g>
<!-- X1&#45;&#45;W1 -->
<g id="edge1" class="edge">
<title>X1:e&#45;&#45;W1:w</title>
<path fill="none" stroke="#000000" stroke-width="2" d="M182.25,-247C294.37,-249.71 217.87,-451.71 326.25,-449"/>
<path fill="none" stroke="#000000" stroke-width="2" d="M182.25,-249C292.5,-249 216,-451 326.25,-451"/>
<path fill="none" stroke="#000000" stroke-width="2" d="M182.25,-251C290.63,-248.29 214.13,-450.29 326.25,-453"/>
</g>
<!-- X1&#45;&#45;W1 -->
<g id="edge2" class="edge">
<title>X1:e&#45;&#45;W1:w</title>
<path fill="none" stroke="#000000" stroke-width="2" d="M182.25,-223C293.65,-225.7 218.59,-425.7 326.25,-423"/>
<path fill="none" stroke="#ff0000" stroke-width="2" d="M182.25,-225C291.78,-225 216.72,-425 326.25,-425"/>
<path fill="none" stroke="#000000" stroke-width="2" d="M182.25,-227C289.91,-224.3 214.85,-424.3 326.25,-427"/>
</g>
<!-- W2 -->
<g id="node3" class="node">
<title>W2</title>
<polygon fill="#ffffff" stroke="black" points="530.25,-342 326.25,-342 326.25,-201 530.25,-201 530.25,-342"/>
<polygon fill="#ffffff" stroke="none" points="326.25,-201 326.25,-342 530.25,-342 530.25,-201 326.25,-201"/>
<polygon fill="none" stroke="black" points="326.25,-317.5 326.25,-342 530.25,-342 530.25,-317.5 326.25,-317.5"/>
<text text-anchor="start" x="417" y="-324.7" font-family="arial" font-size="14.00">W2</text>
<polygon fill="none" stroke="black" points="326.25,-293 326.25,-317.5 349.25,-317.5 349.25,-293 326.25,-293"/>
<text text-anchor="start" x="330.25" y="-300.2" font-family="arial" font-size="14.00">2x</text>
<polygon fill="none" stroke="black" points="349.25,-293 349.25,-317.5 486.25,-317.5 486.25,-293 349.25,-293"/>
<text text-anchor="start" x="353.25" y="-300.2" font-family="arial" font-size="14.00">0.25 mm² (24 AWG)</text>
<polygon fill="none" stroke="black" points="486.25,-293 486.25,-317.5 530.25,-317.5 530.25,-293 486.25,-293"/>
<text text-anchor="start" x="490.25" y="-300.2" font-family="arial" font-size="14.00">0.2 m</text>
<text text-anchor="start" x="361.57" y="-277.7" font-family="arial" font-size="14.00"> </text>
<text text-anchor="start" x="328.25" y="-257.7" font-family="arial" font-size="14.00"> X1:1:GND</text>
<text text-anchor="start" x="402.98" y="-257.7" font-family="arial" font-size="14.00"> </text>
<text text-anchor="start" x="412.5" y="-257.7" font-family="arial" font-size="14.00">1:BK</text>
<text text-anchor="start" x="449.77" y="-257.7" font-family="arial" font-size="14.00"> </text>
<text text-anchor="start" x="459.25" y="-257.7" font-family="arial" font-size="14.00">X3:1:GND </text>
<polygon fill="#ffffff" stroke="none" points="326.25,-251 326.25,-253 530.25,-253 530.25,-251 326.25,-251"/>
<polygon fill="#ffffff" stroke="none" points="326.25,-249 326.25,-251 530.25,-251 530.25,-249 326.25,-249"/>
<polygon fill="#ffffff" stroke="none" points="326.25,-247 326.25,-249 530.25,-249 530.25,-247 326.25,-247"/>
<text text-anchor="start" x="328.25" y="-231.7" font-family="arial" font-size="14.00"> X1:2:VCC</text>
<text text-anchor="start" x="402.98" y="-231.7" font-family="arial" font-size="14.00"> </text>
<text text-anchor="start" x="411.75" y="-231.7" font-family="arial" font-size="14.00">2:RD</text>
<text text-anchor="start" x="449.77" y="-231.7" font-family="arial" font-size="14.00"> </text>
<text text-anchor="start" x="460" y="-231.7" font-family="arial" font-size="14.00">X3:2:VCC </text>
<polygon fill="#ffffff" stroke="none" points="326.25,-225 326.25,-227 530.25,-227 530.25,-225 326.25,-225"/>
<polygon fill="#ffffff" stroke="none" points="326.25,-223 326.25,-225 530.25,-225 530.25,-223 326.25,-223"/>
<polygon fill="#ffffff" stroke="none" points="326.25,-221 326.25,-223 530.25,-223 530.25,-221 326.25,-221"/>
<text text-anchor="start" x="361.57" y="-205.7" font-family="arial" font-size="14.00"> </text>
</g>
<!-- X1&#45;&#45;W2 -->
<g id="edge3" class="edge">
<title>X1:e&#45;&#45;W2:w</title>
<path fill="none" stroke="#000000" stroke-width="2" d="M182.25,-247C246.37,-247 262.37,-248 326.25,-248"/>
<path fill="none" stroke="#000000" stroke-width="2" d="M182.25,-249C246.25,-249 262.25,-250 326.25,-250"/>
<path fill="none" stroke="#000000" stroke-width="2" d="M182.25,-251C246.13,-251 262.13,-252 326.25,-252"/>
</g>
<!-- X1&#45;&#45;W2 -->
<g id="edge4" class="edge">
<title>X1:e&#45;&#45;W2:w</title>
<path fill="none" stroke="#000000" stroke-width="2" d="M182.25,-223C246.13,-223 262.13,-222 326.25,-222"/>
<path fill="none" stroke="#ff0000" stroke-width="2" d="M182.25,-225C246.25,-225 262.25,-224 326.25,-224"/>
<path fill="none" stroke="#000000" stroke-width="2" d="M182.25,-227C246.37,-227 262.37,-226 326.25,-226"/>
</g>
<!-- W3 -->
<g id="node4" class="node">
<title>W3</title>
<polygon fill="#ffffff" stroke="black" points="526.75,-141 329.75,-141 329.75,0 526.75,0 526.75,-141"/>
<polygon fill="#ffffff" stroke="none" points="329.75,0 329.75,-141 526.75,-141 526.75,0 329.75,0"/>
<polygon fill="none" stroke="black" points="329.75,-116.5 329.75,-141 526.75,-141 526.75,-116.5 329.75,-116.5"/>
<text text-anchor="start" x="417" y="-123.7" font-family="arial" font-size="14.00">W3</text>
<polygon fill="none" stroke="black" points="329.75,-92 329.75,-116.5 353.67,-116.5 353.67,-92 329.75,-92"/>
<text text-anchor="start" x="334.21" y="-99.2" font-family="arial" font-size="14.00">2x</text>
<polygon fill="none" stroke="black" points="353.67,-92 353.67,-116.5 481.83,-116.5 481.83,-92 353.67,-92"/>
<text text-anchor="start" x="358.12" y="-99.2" font-family="arial" font-size="14.00">20 awg (0.75 mm²)</text>
<polygon fill="none" stroke="black" points="481.83,-92 481.83,-116.5 526.75,-116.5 526.75,-92 481.83,-92"/>
<text text-anchor="start" x="486.29" y="-99.2" font-family="arial" font-size="14.00">0.2 m</text>
<text text-anchor="start" x="364.38" y="-76.7" font-family="arial" font-size="14.00"> </text>
<text text-anchor="start" x="331.75" y="-56.7" font-family="arial" font-size="14.00"> X1:1:GND</text>
<text text-anchor="start" x="404.38" y="-56.7" font-family="arial" font-size="14.00"> </text>
<text text-anchor="start" x="412.5" y="-56.7" font-family="arial" font-size="14.00">1:BK</text>
<text text-anchor="start" x="448.38" y="-56.7" font-family="arial" font-size="14.00"> </text>
<text text-anchor="start" x="455.75" y="-56.7" font-family="arial" font-size="14.00">X4:1:GND </text>
<polygon fill="#ffffff" stroke="none" points="329.75,-50 329.75,-52 526.75,-52 526.75,-50 329.75,-50"/>
<polygon fill="#ffffff" stroke="none" points="329.75,-48 329.75,-50 526.75,-50 526.75,-48 329.75,-48"/>
<polygon fill="#ffffff" stroke="none" points="329.75,-46 329.75,-48 526.75,-48 526.75,-46 329.75,-46"/>
<text text-anchor="start" x="331.75" y="-30.7" font-family="arial" font-size="14.00"> X1:2:VCC</text>
<text text-anchor="start" x="404.38" y="-30.7" font-family="arial" font-size="14.00"> </text>
<text text-anchor="start" x="411.75" y="-30.7" font-family="arial" font-size="14.00">2:RD</text>
<text text-anchor="start" x="448.38" y="-30.7" font-family="arial" font-size="14.00"> </text>
<text text-anchor="start" x="456.5" y="-30.7" font-family="arial" font-size="14.00">X4:2:VCC </text>
<polygon fill="#ffffff" stroke="none" points="329.75,-24 329.75,-26 526.75,-26 526.75,-24 329.75,-24"/>
<polygon fill="#ffffff" stroke="none" points="329.75,-22 329.75,-24 526.75,-24 526.75,-22 329.75,-22"/>
<polygon fill="#ffffff" stroke="none" points="329.75,-20 329.75,-22 526.75,-22 526.75,-20 329.75,-20"/>
<text text-anchor="start" x="364.38" y="-4.7" font-family="arial" font-size="14.00"> </text>
</g>
<!-- X1&#45;&#45;W3 -->
<g id="edge5" class="edge">
<title>X1:e&#45;&#45;W3:w</title>
<path fill="none" stroke="#000000" stroke-width="2" d="M182.25,-247C290.55,-249.69 216.69,-49.69 328.75,-47"/>
<path fill="none" stroke="#000000" stroke-width="2" d="M182.25,-249C292.43,-249 218.57,-49 328.75,-49"/>
<path fill="none" stroke="#000000" stroke-width="2" d="M182.25,-251C294.31,-248.31 220.45,-48.31 328.75,-51"/>
</g>
<!-- X1&#45;&#45;W3 -->
<g id="edge6" class="edge">
<title>X1:e&#45;&#45;W3:w</title>
<path fill="none" stroke="#000000" stroke-width="2" d="M182.25,-223C291.28,-225.7 215.98,-23.7 328.75,-21"/>
<path fill="none" stroke="#ff0000" stroke-width="2" d="M182.25,-225C293.15,-225 217.85,-23 328.75,-23"/>
<path fill="none" stroke="#000000" stroke-width="2" d="M182.25,-227C295.02,-224.3 219.72,-22.3 328.75,-25"/>
</g>
<!-- W1&#45;&#45;W1 -->
<g id="edge7" class="edge">
<title>W1:e&#45;&#45;W1:w</title>
<path fill="none" stroke="#000000" stroke-width="2" d="M530.25,-453C462.25,-453 394.25,-453 326.25,-453"/>
<path fill="none" stroke="#000000" stroke-width="2" d="M530.25,-451C462.25,-451 394.25,-451 326.25,-451"/>
<path fill="none" stroke="#000000" stroke-width="2" d="M530.25,-449C462.25,-449 394.25,-449 326.25,-449"/>
</g>
<!-- W1&#45;&#45;W1 -->
<g id="edge8" class="edge">
<title>W1:e&#45;&#45;W1:w</title>
<path fill="none" stroke="#000000" stroke-width="2" d="M530.25,-427C462.25,-427 394.25,-427 326.25,-427"/>
<path fill="none" stroke="#ff0000" stroke-width="2" d="M530.25,-425C462.25,-425 394.25,-425 326.25,-425"/>
<path fill="none" stroke="#000000" stroke-width="2" d="M530.25,-423C462.25,-423 394.25,-423 326.25,-423"/>
</g>
<!-- X2 -->
<g id="node5" class="node">
<title>X2</title>
<polygon fill="#ffffff" stroke="black" points="869.25,-511 674.25,-511 674.25,-414 869.25,-414 869.25,-511"/>
<polygon fill="#ffffff" stroke="none" points="674.25,-414 674.25,-511 869.25,-511 869.25,-414 674.25,-414"/>
<polygon fill="none" stroke="black" points="674.25,-486.5 674.25,-511 869.25,-511 869.25,-486.5 674.25,-486.5"/>
<text text-anchor="start" x="762.75" y="-493.7" font-family="arial" font-size="14.00">X2</text>
<polygon fill="none" stroke="black" points="674.25,-462 674.25,-486.5 778.25,-486.5 778.25,-462 674.25,-462"/>
<text text-anchor="start" x="678.25" y="-469.2" font-family="arial" font-size="14.00">Molex Micro&#45;Fit</text>
<polygon fill="none" stroke="black" points="778.25,-462 778.25,-486.5 829.75,-486.5 829.75,-462 778.25,-462"/>
<text text-anchor="start" x="782.25" y="-469.2" font-family="arial" font-size="14.00">female</text>
<polygon fill="none" stroke="black" points="829.75,-462 829.75,-486.5 869.25,-486.5 869.25,-462 829.75,-462"/>
<text text-anchor="start" x="833.75" y="-469.2" font-family="arial" font-size="14.00">2&#45;pin</text>
<polygon fill="none" stroke="black" points="674.25,-438 674.25,-462 760.25,-462 760.25,-438 674.25,-438"/>
<text text-anchor="start" x="713.12" y="-444.7" font-family="arial" font-size="14.00">1</text>
<polygon fill="none" stroke="black" points="760.25,-438 760.25,-462 869.25,-462 869.25,-438 760.25,-438"/>
<text text-anchor="start" x="799" y="-444.7" font-family="arial" font-size="14.00">GND</text>
<polygon fill="none" stroke="black" points="674.25,-414 674.25,-438 760.25,-438 760.25,-414 674.25,-414"/>
<text text-anchor="start" x="713.12" y="-420.7" font-family="arial" font-size="14.00">2</text>
<polygon fill="none" stroke="black" points="760.25,-414 760.25,-438 869.25,-438 869.25,-414 760.25,-414"/>
<text text-anchor="start" x="799.38" y="-420.7" font-family="arial" font-size="14.00">VCC</text>
</g>
<!-- W1&#45;&#45;X2 -->
<g id="edge9" class="edge">
<title>W1:e&#45;&#45;X2:w</title>
<path fill="none" stroke="#000000" stroke-width="2" d="M530.25,-449C594.13,-449 610.13,-448 674.25,-448"/>
<path fill="none" stroke="#000000" stroke-width="2" d="M530.25,-451C594.25,-451 610.25,-450 674.25,-450"/>
<path fill="none" stroke="#000000" stroke-width="2" d="M530.25,-453C594.37,-453 610.37,-452 674.25,-452"/>
</g>
<!-- W1&#45;&#45;X2 -->
<g id="edge10" class="edge">
<title>W1:e&#45;&#45;X2:w</title>
<path fill="none" stroke="#000000" stroke-width="2" d="M530.25,-423C594.37,-423 610.37,-424 674.25,-424"/>
<path fill="none" stroke="#ff0000" stroke-width="2" d="M530.25,-425C594.25,-425 610.25,-426 674.25,-426"/>
<path fill="none" stroke="#000000" stroke-width="2" d="M530.25,-427C594.13,-427 610.13,-428 674.25,-428"/>
</g>
<!-- W2&#45;&#45;W2 -->
<g id="edge11" class="edge">
<title>W2:e&#45;&#45;W2:w</title>
<path fill="none" stroke="#000000" stroke-width="2" d="M530.25,-252C462.25,-252 394.25,-252 326.25,-252"/>
<path fill="none" stroke="#000000" stroke-width="2" d="M530.25,-250C462.25,-250 394.25,-250 326.25,-250"/>
<path fill="none" stroke="#000000" stroke-width="2" d="M530.25,-248C462.25,-248 394.25,-248 326.25,-248"/>
</g>
<!-- W2&#45;&#45;W2 -->
<g id="edge12" class="edge">
<title>W2:e&#45;&#45;W2:w</title>
<path fill="none" stroke="#000000" stroke-width="2" d="M530.25,-226C462.25,-226 394.25,-226 326.25,-226"/>
<path fill="none" stroke="#ff0000" stroke-width="2" d="M530.25,-224C462.25,-224 394.25,-224 326.25,-224"/>
<path fill="none" stroke="#000000" stroke-width="2" d="M530.25,-222C462.25,-222 394.25,-222 326.25,-222"/>
</g>
<!-- X3 -->
<g id="node6" class="node">
<title>X3</title>
<polygon fill="#ffffff" stroke="black" points="869.25,-310 674.25,-310 674.25,-213 869.25,-213 869.25,-310"/>
<polygon fill="#ffffff" stroke="none" points="674.25,-213 674.25,-310 869.25,-310 869.25,-213 674.25,-213"/>
<polygon fill="none" stroke="black" points="674.25,-285.5 674.25,-310 869.25,-310 869.25,-285.5 674.25,-285.5"/>
<text text-anchor="start" x="762.75" y="-292.7" font-family="arial" font-size="14.00">X3</text>
<polygon fill="none" stroke="black" points="674.25,-261 674.25,-285.5 778.25,-285.5 778.25,-261 674.25,-261"/>
<text text-anchor="start" x="678.25" y="-268.2" font-family="arial" font-size="14.00">Molex Micro&#45;Fit</text>
<polygon fill="none" stroke="black" points="778.25,-261 778.25,-285.5 829.75,-285.5 829.75,-261 778.25,-261"/>
<text text-anchor="start" x="782.25" y="-268.2" font-family="arial" font-size="14.00">female</text>
<polygon fill="none" stroke="black" points="829.75,-261 829.75,-285.5 869.25,-285.5 869.25,-261 829.75,-261"/>
<text text-anchor="start" x="833.75" y="-268.2" font-family="arial" font-size="14.00">2&#45;pin</text>
<polygon fill="none" stroke="black" points="674.25,-237 674.25,-261 760.25,-261 760.25,-237 674.25,-237"/>
<text text-anchor="start" x="713.12" y="-243.7" font-family="arial" font-size="14.00">1</text>
<polygon fill="none" stroke="black" points="760.25,-237 760.25,-261 869.25,-261 869.25,-237 760.25,-237"/>
<text text-anchor="start" x="799" y="-243.7" font-family="arial" font-size="14.00">GND</text>
<polygon fill="none" stroke="black" points="674.25,-213 674.25,-237 760.25,-237 760.25,-213 674.25,-213"/>
<text text-anchor="start" x="713.12" y="-219.7" font-family="arial" font-size="14.00">2</text>
<polygon fill="none" stroke="black" points="760.25,-213 760.25,-237 869.25,-237 869.25,-213 760.25,-213"/>
<text text-anchor="start" x="799.38" y="-219.7" font-family="arial" font-size="14.00">VCC</text>
</g>
<!-- W2&#45;&#45;X3 -->
<g id="edge13" class="edge">
<title>W2:e&#45;&#45;X3:w</title>
<path fill="none" stroke="#000000" stroke-width="2" d="M530.25,-248C594.13,-248 610.13,-247 674.25,-247"/>
<path fill="none" stroke="#000000" stroke-width="2" d="M530.25,-250C594.25,-250 610.25,-249 674.25,-249"/>
<path fill="none" stroke="#000000" stroke-width="2" d="M530.25,-252C594.37,-252 610.37,-251 674.25,-251"/>
</g>
<!-- W2&#45;&#45;X3 -->
<g id="edge14" class="edge">
<title>W2:e&#45;&#45;X3:w</title>
<path fill="none" stroke="#000000" stroke-width="2" d="M530.25,-222C594.37,-222 610.37,-223 674.25,-223"/>
<path fill="none" stroke="#ff0000" stroke-width="2" d="M530.25,-224C594.25,-224 610.25,-225 674.25,-225"/>
<path fill="none" stroke="#000000" stroke-width="2" d="M530.25,-226C594.13,-226 610.13,-227 674.25,-227"/>
</g>
<!-- W3&#45;&#45;W3 -->
<g id="edge15" class="edge">
<title>W3:e&#45;&#45;W3:w</title>
<path fill="none" stroke="#000000" stroke-width="2" d="M526.75,-51C461.08,-51 395.42,-51 329.75,-51"/>
<path fill="none" stroke="#000000" stroke-width="2" d="M526.75,-49C461.08,-49 395.42,-49 329.75,-49"/>
<path fill="none" stroke="#000000" stroke-width="2" d="M526.75,-47C461.08,-47 395.42,-47 329.75,-47"/>
</g>
<!-- W3&#45;&#45;W3 -->
<g id="edge16" class="edge">
<title>W3:e&#45;&#45;W3:w</title>
<path fill="none" stroke="#000000" stroke-width="2" d="M526.75,-25C461.08,-25 395.42,-25 329.75,-25"/>
<path fill="none" stroke="#ff0000" stroke-width="2" d="M526.75,-23C461.08,-23 395.42,-23 329.75,-23"/>
<path fill="none" stroke="#000000" stroke-width="2" d="M526.75,-21C461.08,-21 395.42,-21 329.75,-21"/>
</g>
<!-- X4 -->
<g id="node7" class="node">
<title>X4</title>
<polygon fill="#ffffff" stroke="black" points="869.25,-109 674.25,-109 674.25,-12 869.25,-12 869.25,-109"/>
<polygon fill="#ffffff" stroke="none" points="674.25,-12 674.25,-109 869.25,-109 869.25,-12 674.25,-12"/>
<polygon fill="none" stroke="black" points="674.25,-84.5 674.25,-109 869.25,-109 869.25,-84.5 674.25,-84.5"/>
<text text-anchor="start" x="762.75" y="-91.7" font-family="arial" font-size="14.00">X4</text>
<polygon fill="none" stroke="black" points="674.25,-60 674.25,-84.5 778.25,-84.5 778.25,-60 674.25,-60"/>
<text text-anchor="start" x="678.25" y="-67.2" font-family="arial" font-size="14.00">Molex Micro&#45;Fit</text>
<polygon fill="none" stroke="black" points="778.25,-60 778.25,-84.5 829.75,-84.5 829.75,-60 778.25,-60"/>
<text text-anchor="start" x="782.25" y="-67.2" font-family="arial" font-size="14.00">female</text>
<polygon fill="none" stroke="black" points="829.75,-60 829.75,-84.5 869.25,-84.5 869.25,-60 829.75,-60"/>
<text text-anchor="start" x="833.75" y="-67.2" font-family="arial" font-size="14.00">2&#45;pin</text>
<polygon fill="none" stroke="black" points="674.25,-36 674.25,-60 760.25,-60 760.25,-36 674.25,-36"/>
<text text-anchor="start" x="713.12" y="-42.7" font-family="arial" font-size="14.00">1</text>
<polygon fill="none" stroke="black" points="760.25,-36 760.25,-60 869.25,-60 869.25,-36 760.25,-36"/>
<text text-anchor="start" x="799" y="-42.7" font-family="arial" font-size="14.00">GND</text>
<polygon fill="none" stroke="black" points="674.25,-12 674.25,-36 760.25,-36 760.25,-12 674.25,-12"/>
<text text-anchor="start" x="713.12" y="-18.7" font-family="arial" font-size="14.00">2</text>
<polygon fill="none" stroke="black" points="760.25,-12 760.25,-36 869.25,-36 869.25,-12 760.25,-12"/>
<text text-anchor="start" x="799.38" y="-18.7" font-family="arial" font-size="14.00">VCC</text>
</g>
<!-- W3&#45;&#45;X4 -->
<g id="edge17" class="edge">
<title>W3:e&#45;&#45;X4:w</title>
<path fill="none" stroke="#000000" stroke-width="2" d="M527.75,-47C592.74,-47 609.02,-46 674.25,-46"/>
<path fill="none" stroke="#000000" stroke-width="2" d="M527.75,-49C592.86,-49 609.14,-48 674.25,-48"/>
<path fill="none" stroke="#000000" stroke-width="2" d="M527.75,-51C592.98,-51 609.26,-50 674.25,-50"/>
</g>
<!-- W3&#45;&#45;X4 -->
<g id="edge18" class="edge">
<title>W3:e&#45;&#45;X4:w</title>
<path fill="none" stroke="#000000" stroke-width="2" d="M527.75,-21C592.98,-21 609.26,-22 674.25,-22"/>
<path fill="none" stroke="#ff0000" stroke-width="2" d="M527.75,-23C592.86,-23 609.14,-24 674.25,-24"/>
<path fill="none" stroke="#000000" stroke-width="2" d="M527.75,-25C592.74,-25 609.02,-26 674.25,-26"/>
</g>
</g>
</svg>
