<?xml version="1.0" encoding="UTF-8" standalone="no"?>
<!DOCTYPE svg PUBLIC "-//W3C//DTD SVG 1.1//EN"
 "http://www.w3.org/Graphics/SVG/1.1/DTD/svg11.dtd">
<!-- Generated by graphviz version 12.1.2 (0)
 -->
<!-- Pages: 1 -->
<svg width="859pt" height="536pt"
 viewBox="0.00 0.00 858.50 535.50" xmlns="http://www.w3.org/2000/svg" xmlns:xlink="http://www.w3.org/1999/xlink">
<g id="graph0" class="graph" transform="scale(1 1) rotate(0) translate(4 531.5)">
<polygon fill="#ffffff" stroke="none" points="-4,4 -4,-531.5 854.5,-531.5 854.5,4 -4,4"/>
<!-- X1 -->
<g id="node1" class="node">
<title>X1</title>
<polygon fill="#ffffff" stroke="black" points="177.75,-301.5 0,-301.5 0,-208 177.75,-208 177.75,-301.5"/>
<polygon fill="#ffffff" stroke="none" points="0,-208 0,-301.5 177.75,-301.5 177.75,-208 0,-208"/>
<polygon fill="none" stroke="black" points="0,-277.75 0,-301.5 177.75,-301.5 177.75,-277.75 0,-277.75"/>
<text text-anchor="start" x="80.63" y="-284.2" font-family="arial" font-size="14.00">X1</text>
<polygon fill="none" stroke="black" points="0,-254 0,-277.75 101.75,-277.75 101.75,-254 0,-254"/>
<text text-anchor="start" x="4" y="-260.45" font-family="arial" font-size="14.00">Molex Micro&#45;Fit</text>
<polygon fill="none" stroke="black" points="101.75,-254 101.75,-277.75 139.75,-277.75 139.75,-254 101.75,-254"/>
<text text-anchor="start" x="105.75" y="-260.45" font-family="arial" font-size="14.00">male</text>
<polygon fill="none" stroke="black" points="139.75,-254 139.75,-277.75 177.75,-277.75 177.75,-254 139.75,-254"/>
<text text-anchor="start" x="143.75" y="-260.45" font-family="arial" font-size="14.00">2&#45;pin</text>
<polygon fill="none" stroke="black" points="0,-231 0,-254 100.38,-254 100.38,-231 0,-231"/>
<text text-anchor="start" x="34.81" y="-236.7" font-family="arial" font-size="14.00">GND</text>
<polygon fill="none" stroke="black" points="100.38,-231 100.38,-254 177.75,-254 177.75,-231 100.38,-231"/>
<text text-anchor="start" x="135.31" y="-236.7" font-family="arial" font-size="14.00">1</text>
<polygon fill="none" stroke="black" points="0,-208 0,-231 100.38,-231 100.38,-208 0,-208"/>
<text text-anchor="start" x="35.94" y="-213.7" font-family="arial" font-size="14.00">VCC</text>
<polygon fill="none" stroke="black" points="100.38,-208 100.38,-231 177.75,-231 177.75,-208 100.38,-208"/>
<text text-anchor="start" x="135.31" y="-213.7" font-family="arial" font-size="14.00">2</text>
</g>
<!-- W1 -->
<g id="node2" class="node">
<title>W1</title>
<polygon fill="#ffffff" stroke="black" points="517.5,-527.5 321.75,-527.5 321.75,-392 517.5,-392 517.5,-527.5"/>
<polygon fill="#ffffff" stroke="none" points="321.75,-392 321.75,-527.5 517.5,-527.5 517.5,-392 321.75,-392"/>
<polygon fill="none" stroke="black" points="321.75,-503.75 321.75,-527.5 517.5,-527.5 517.5,-503.75 321.75,-503.75"/>
<text text-anchor="start" x="409.12" y="-510.2" font-family="arial" font-size="14.00">W1</text>
<polygon fill="none" stroke="black" points="321.75,-480 321.75,-503.75 344,-503.75 344,-480 321.75,-480"/>
<text text-anchor="start" x="325.75" y="-486.45" font-family="arial" font-size="14.00">2x</text>
<polygon fill="none" stroke="black" points="344,-480 344,-503.75 475,-503.75 475,-480 344,-480"/>
<text text-anchor="start" x="348" y="-486.45" font-family="arial" font-size="14.00">0.25 mm² (24 AWG)</text>
<polygon fill="none" stroke="black" points="475,-480 475,-503.75 517.5,-503.75 517.5,-480 475,-480"/>
<text text-anchor="start" x="479" y="-486.45" font-family="arial" font-size="14.00">0.2 m</text>
<text text-anchor="start" x="355.65" y="-464.7" font-family="arial" font-size="14.00"> </text>
<text text-anchor="start" x="323.75" y="-445.7" font-family="arial" font-size="14.00"> X1:1:GND</text>
<text text-anchor="start" x="395.7" y="-445.7" font-family="arial" font-size="14.00"> </text>
<text text-anchor="start" x="405" y="-445.7" font-family="arial" font-size="14.00">1:BK</text>
<text text-anchor="start" x="439.8" y="-445.7" font-family="arial" font-size="14.00"> </text>
<text text-anchor="start" x="449.5" y="-445.7" font-family="arial" font-size="14.00">X2:1:GND </text>
<text text-anchor="start" x="323.75" y="-420.7" font-family="arial" font-size="14.00"> X1:2:VCC</text>
<text text-anchor="start" x="395.7" y="-420.7" font-family="arial" font-size="14.00"> </text>
<text text-anchor="start" x="404.25" y="-420.7" font-family="arial" font-size="14.00">2:RD</text>
<text text-anchor="start" x="439.8" y="-420.7" font-family="arial" font-size="14.00"> </text>
<text text-anchor="start" x="451.75" y="-420.7" font-family="arial" font-size="14.00">X2:2:VCC </text>
<text text-anchor="start" x="355.65" y="-395.7" font-family="arial" font-size="14.00"> </text>
</g>
<!-- X1&#45;&#45;W1 -->
<g id="edge1" class="edge">
<title>X1:e&#45;&#45;W1:w</title>
<path fill="none" stroke="#000000" stroke-width="2" d="M177.75,-240.5C287.9,-243.19 215.36,-439.69 321.75,-437"/>
<path fill="none" stroke="#000000" stroke-width="2" d="M177.75,-242.5C286.02,-242.5 213.48,-439 321.75,-439"/>
<path fill="none" stroke="#000000" stroke-width="2" d="M177.75,-244.5C284.15,-241.81 211.61,-438.31 321.75,-441"/>
</g>
<!-- X1&#45;&#45;W1 -->
<g id="edge2" class="edge">
<title>X1:e&#45;&#45;W1:w</title>
<path fill="none" stroke="#000000" stroke-width="2" d="M177.75,-217.5C287.19,-220.19 216.07,-414.69 321.75,-412"/>
<path fill="none" stroke="#ff0000" stroke-width="2" d="M177.75,-219.5C285.31,-219.5 214.19,-414 321.75,-414"/>
<path fill="none" stroke="#000000" stroke-width="2" d="M177.75,-221.5C283.43,-218.81 212.31,-413.31 321.75,-416"/>
</g>
<!-- W2 -->
<g id="node3" class="node">
<title>W2</title>
<polygon fill="#ffffff" stroke="black" points="517.5,-331.5 321.75,-331.5 321.75,-196 517.5,-196 517.5,-331.5"/>
<polygon fill="#ffffff" stroke="none" points="321.75,-196 321.75,-331.5 517.5,-331.5 517.5,-196 321.75,-196"/>
<polygon fill="none" stroke="black" points="321.75,-307.75 321.75,-331.5 517.5,-331.5 517.5,-307.75 321.75,-307.75"/>
<text text-anchor="start" x="409.12" y="-314.2" font-family="arial" font-size="14.00">W2</text>
<polygon fill="none" stroke="black" points="321.75,-284 321.75,-307.75 344,-307.75 344,-284 321.75,-284"/>
<text text-anchor="start" x="325.75" y="-290.45" font-family="arial" font-size="14.00">2x</text>
<polygon fill="none" stroke="black" points="344,-284 344,-307.75 475,-307.75 475,-284 344,-284"/>
<text text-anchor="start" x="348" y="-290.45" font-family="arial" font-size="14.00">0.25 mm² (24 AWG)</text>
<polygon fill="none" stroke="black" points="475,-284 475,-307.75 517.5,-307.75 517.5,-284 475,-284"/>
<text text-anchor="start" x="479" y="-290.45" font-family="arial" font-size="14.00">0.2 m</text>
<text text-anchor="start" x="355.65" y="-268.7" font-family="arial" font-size="14.00"> </text>
<text text-anchor="start" x="323.75" y="-249.7" font-family="arial" font-size="14.00"> X1:1:GND</text>
<text text-anchor="start" x="395.7" y="-249.7" font-family="arial" font-size="14.00"> </text>
<text text-anchor="start" x="405" y="-249.7" font-family="arial" font-size="14.00">1:BK</text>
<text text-anchor="start" x="439.8" y="-249.7" font-family="arial" font-size="14.00"> </text>
<text text-anchor="start" x="449.5" y="-249.7" font-family="arial" font-size="14.00">X3:1:GND </text>
<text text-anchor="start" x="323.75" y="-224.7" font-family="arial" font-size="14.00"> X1:2:VCC</text>
<text text-anchor="start" x="395.7" y="-224.7" font-family="arial" font-size="14.00"> </text>
<text text-anchor="start" x="404.25" y="-224.7" font-family="arial" font-size="14.00">2:RD</text>
<text text-anchor="start" x="439.8" y="-224.7" font-family="arial" font-size="14.00"> </text>
<text text-anchor="start" x="451.75" y="-224.7" font-family="arial" font-size="14.00">X3:2:VCC </text>
<text text-anchor="start" x="355.65" y="-199.7" font-family="arial" font-size="14.00"> </text>
</g>
<!-- X1&#45;&#45;W2 -->
<g id="edge3" class="edge">
<title>X1:e&#45;&#45;W2:w</title>
<path fill="none" stroke="#000000" stroke-width="2" d="M177.75,-240.5C241.81,-240.5 257.81,-241 321.75,-241"/>
<path fill="none" stroke="#000000" stroke-width="2" d="M177.75,-242.5C241.75,-242.5 257.75,-243 321.75,-243"/>
<path fill="none" stroke="#000000" stroke-width="2" d="M177.75,-244.5C241.69,-244.5 257.69,-245 321.75,-245"/>
</g>
<!-- X1&#45;&#45;W2 -->
<g id="edge4" class="edge">
<title>X1:e&#45;&#45;W2:w</title>
<path fill="none" stroke="#000000" stroke-width="2" d="M177.75,-217.5C241.57,-217.51 257.57,-216.01 321.75,-216"/>
<path fill="none" stroke="#ff0000" stroke-width="2" d="M177.75,-219.5C241.75,-219.5 257.75,-218 321.75,-218"/>
<path fill="none" stroke="#000000" stroke-width="2" d="M177.75,-221.5C241.94,-221.49 257.94,-219.99 321.75,-220"/>
</g>
<!-- W3 -->
<g id="node4" class="node">
<title>W3</title>
<polygon fill="#ffffff" stroke="black" points="513.62,-135.5 325.62,-135.5 325.62,0 513.62,0 513.62,-135.5"/>
<polygon fill="#ffffff" stroke="none" points="325.62,0 325.62,-135.5 513.62,-135.5 513.62,0 325.62,0"/>
<polygon fill="none" stroke="black" points="325.62,-111.75 325.62,-135.5 513.62,-135.5 513.62,-111.75 325.62,-111.75"/>
<text text-anchor="start" x="409.12" y="-118.2" font-family="arial" font-size="14.00">W3</text>
<polygon fill="none" stroke="black" points="325.62,-88 325.62,-111.75 348.04,-111.75 348.04,-88 325.62,-88"/>
<text text-anchor="start" x="329.71" y="-94.45" font-family="arial" font-size="14.00">2x</text>
<polygon fill="none" stroke="black" points="348.04,-88 348.04,-111.75 470.96,-111.75 470.96,-88 348.04,-88"/>
<text text-anchor="start" x="352.12" y="-94.45" font-family="arial" font-size="14.00">20 awg (0.75 mm²)</text>
<polygon fill="none" stroke="black" points="470.96,-88 470.96,-111.75 513.62,-111.75 513.62,-88 470.96,-88"/>
<text text-anchor="start" x="475.04" y="-94.45" font-family="arial" font-size="14.00">0.2 m</text>
<text text-anchor="start" x="358.75" y="-72.7" font-family="arial" font-size="14.00"> </text>
<text text-anchor="start" x="327.62" y="-53.7" font-family="arial" font-size="14.00"> X1:1:GND</text>
<text text-anchor="start" x="397.25" y="-53.7" font-family="arial" font-size="14.00"> </text>
<text text-anchor="start" x="405" y="-53.7" font-family="arial" font-size="14.00">1:BK</text>
<text text-anchor="start" x="438.25" y="-53.7" font-family="arial" font-size="14.00"> </text>
<text text-anchor="start" x="445.62" y="-53.7" font-family="arial" font-size="14.00">X4:1:GND </text>
<text text-anchor="start" x="327.62" y="-28.7" font-family="arial" font-size="14.00"> X1:2:VCC</text>
<text text-anchor="start" x="397.25" y="-28.7" font-family="arial" font-size="14.00"> </text>
<text text-anchor="start" x="404.25" y="-28.7" font-family="arial" font-size="14.00">2:RD</text>
<text text-anchor="start" x="438.25" y="-28.7" font-family="arial" font-size="14.00"> </text>
<text text-anchor="start" x="447.87" y="-28.7" font-family="arial" font-size="14.00">X4:2:VCC </text>
<text text-anchor="start" x="358.75" y="-3.7" font-family="arial" font-size="14.00"> </text>
</g>
<!-- X1&#45;&#45;W3 -->
<g id="edge5" class="edge">
<title>X1:e&#45;&#45;W3:w</title>
<path fill="none" stroke="#000000" stroke-width="2" d="M177.75,-240.5C284.55,-243.18 214.07,-47.68 324.62,-45"/>
<path fill="none" stroke="#000000" stroke-width="2" d="M177.75,-242.5C286.43,-242.5 215.95,-47 324.62,-47"/>
<path fill="none" stroke="#000000" stroke-width="2" d="M177.75,-244.5C288.31,-241.82 217.83,-46.32 324.62,-49"/>
</g>
<!-- X1&#45;&#45;W3 -->
<g id="edge6" class="edge">
<title>X1:e&#45;&#45;W3:w</title>
<path fill="none" stroke="#000000" stroke-width="2" d="M177.75,-217.5C285.26,-220.18 213.36,-22.68 324.62,-20"/>
<path fill="none" stroke="#ff0000" stroke-width="2" d="M177.75,-219.5C287.14,-219.5 215.24,-22 324.62,-22"/>
<path fill="none" stroke="#000000" stroke-width="2" d="M177.75,-221.5C289.02,-218.82 217.12,-21.32 324.62,-24"/>
</g>
<!-- W1&#45;&#45;W1 -->
<g id="edge7" class="edge">
<title>W1:e&#45;&#45;W1:w</title>
<path fill="none" stroke="#000000" stroke-width="2" d="M517.5,-441C452.25,-441 387,-441 321.75,-441"/>
<path fill="none" stroke="#000000" stroke-width="2" d="M517.5,-439C452.25,-439 387,-439 321.75,-439"/>
<path fill="none" stroke="#000000" stroke-width="2" d="M517.5,-437C452.25,-437 387,-437 321.75,-437"/>
</g>
<!-- W1&#45;&#45;W1 -->
<g id="edge8" class="edge">
<title>W1:e&#45;&#45;W1:w</title>
<path fill="none" stroke="#000000" stroke-width="2" d="M517.5,-416C452.25,-416 387,-416 321.75,-416"/>
<path fill="none" stroke="#ff0000" stroke-width="2" d="M517.5,-414C452.25,-414 387,-414 321.75,-414"/>
<path fill="none" stroke="#000000" stroke-width="2" d="M517.5,-412C452.25,-412 387,-412 321.75,-412"/>
</g>
<!-- X2 -->
<g id="node5" class="node">
<title>X2</title>
<polygon fill="#ffffff" stroke="black" points="850.5,-497.5 661.5,-497.5 661.5,-404 850.5,-404 850.5,-497.5"/>
<polygon fill="#ffffff" stroke="none" points="661.5,-404 661.5,-497.5 850.5,-497.5 850.5,-404 661.5,-404"/>
<polygon fill="none" stroke="black" points="661.5,-473.75 661.5,-497.5 850.5,-497.5 850.5,-473.75 661.5,-473.75"/>
<text text-anchor="start" x="747.75" y="-480.2" font-family="arial" font-size="14.00">X2</text>
<polygon fill="none" stroke="black" points="661.5,-450 661.5,-473.75 763.25,-473.75 763.25,-450 661.5,-450"/>
<text text-anchor="start" x="665.5" y="-456.45" font-family="arial" font-size="14.00">Molex Micro&#45;Fit</text>
<polygon fill="none" stroke="black" points="763.25,-450 763.25,-473.75 812.5,-473.75 812.5,-450 763.25,-450"/>
<text text-anchor="start" x="767.25" y="-456.45" font-family="arial" font-size="14.00">female</text>
<polygon fill="none" stroke="black" points="812.5,-450 812.5,-473.75 850.5,-473.75 850.5,-450 812.5,-450"/>
<text text-anchor="start" x="816.5" y="-456.45" font-family="arial" font-size="14.00">2&#45;pin</text>
<polygon fill="none" stroke="black" points="661.5,-427 661.5,-450 744.5,-450 744.5,-427 661.5,-427"/>
<text text-anchor="start" x="699.25" y="-432.7" font-family="arial" font-size="14.00">1</text>
<polygon fill="none" stroke="black" points="744.5,-427 744.5,-450 850.5,-450 850.5,-427 744.5,-427"/>
<text text-anchor="start" x="782.13" y="-432.7" font-family="arial" font-size="14.00">GND</text>
<polygon fill="none" stroke="black" points="661.5,-404 661.5,-427 744.5,-427 744.5,-404 661.5,-404"/>
<text text-anchor="start" x="699.25" y="-409.7" font-family="arial" font-size="14.00">2</text>
<polygon fill="none" stroke="black" points="744.5,-404 744.5,-427 850.5,-427 850.5,-404 744.5,-404"/>
<text text-anchor="start" x="783.25" y="-409.7" font-family="arial" font-size="14.00">VCC</text>
</g>
<!-- W1&#45;&#45;X2 -->
<g id="edge9" class="edge">
<title>W1:e&#45;&#45;X2:w</title>
<path fill="none" stroke="#000000" stroke-width="2" d="M517.5,-437C581.44,-437 597.44,-436.5 661.5,-436.5"/>
<path fill="none" stroke="#000000" stroke-width="2" d="M517.5,-439C581.5,-439 597.5,-438.5 661.5,-438.5"/>
<path fill="none" stroke="#000000" stroke-width="2" d="M517.5,-441C581.56,-441 597.56,-440.5 661.5,-440.5"/>
</g>
<!-- W1&#45;&#45;X2 -->
<g id="edge10" class="edge">
<title>W1:e&#45;&#45;X2:w</title>
<path fill="none" stroke="#000000" stroke-width="2" d="M517.5,-412C581.69,-412.01 597.69,-413.51 661.5,-413.5"/>
<path fill="none" stroke="#ff0000" stroke-width="2" d="M517.5,-414C581.5,-414 597.5,-415.5 661.5,-415.5"/>
<path fill="none" stroke="#000000" stroke-width="2" d="M517.5,-416C581.32,-415.99 597.32,-417.49 661.5,-417.5"/>
</g>
<!-- W2&#45;&#45;W2 -->
<g id="edge11" class="edge">
<title>W2:e&#45;&#45;W2:w</title>
<path fill="none" stroke="#000000" stroke-width="2" d="M517.5,-245C452.25,-245 387,-245 321.75,-245"/>
<path fill="none" stroke="#000000" stroke-width="2" d="M517.5,-243C452.25,-243 387,-243 321.75,-243"/>
<path fill="none" stroke="#000000" stroke-width="2" d="M517.5,-241C452.25,-241 387,-241 321.75,-241"/>
</g>
<!-- W2&#45;&#45;W2 -->
<g id="edge12" class="edge">
<title>W2:e&#45;&#45;W2:w</title>
<path fill="none" stroke="#000000" stroke-width="2" d="M517.5,-220C452.25,-220 387,-220 321.75,-220"/>
<path fill="none" stroke="#ff0000" stroke-width="2" d="M517.5,-218C452.25,-218 387,-218 321.75,-218"/>
<path fill="none" stroke="#000000" stroke-width="2" d="M517.5,-216C452.25,-216 387,-216 321.75,-216"/>
</g>
<!-- X3 -->
<g id="node6" class="node">
<title>X3</title>
<polygon fill="#ffffff" stroke="black" points="850.5,-301.5 661.5,-301.5 661.5,-208 850.5,-208 850.5,-301.5"/>
<polygon fill="#ffffff" stroke="none" points="661.5,-208 661.5,-301.5 850.5,-301.5 850.5,-208 661.5,-208"/>
<polygon fill="none" stroke="black" points="661.5,-277.75 661.5,-301.5 850.5,-301.5 850.5,-277.75 661.5,-277.75"/>
<text text-anchor="start" x="747.75" y="-284.2" font-family="arial" font-size="14.00">X3</text>
<polygon fill="none" stroke="black" points="661.5,-254 661.5,-277.75 763.25,-277.75 763.25,-254 661.5,-254"/>
<text text-anchor="start" x="665.5" y="-260.45" font-family="arial" font-size="14.00">Molex Micro&#45;Fit</text>
<polygon fill="none" stroke="black" points="763.25,-254 763.25,-277.75 812.5,-277.75 812.5,-254 763.25,-254"/>
<text text-anchor="start" x="767.25" y="-260.45" font-family="arial" font-size="14.00">female</text>
<polygon fill="none" stroke="black" points="812.5,-254 812.5,-277.75 850.5,-277.75 850.5,-254 812.5,-254"/>
<text text-anchor="start" x="816.5" y="-260.45" font-family="arial" font-size="14.00">2&#45;pin</text>
<polygon fill="none" stroke="black" points="661.5,-231 661.5,-254 744.5,-254 744.5,-231 661.5,-231"/>
<text text-anchor="start" x="699.25" y="-236.7" font-family="arial" font-size="14.00">1</text>
<polygon fill="none" stroke="black" points="744.5,-231 744.5,-254 850.5,-254 850.5,-231 744.5,-231"/>
<text text-anchor="start" x="782.13" y="-236.7" font-family="arial" font-size="14.00">GND</text>
<polygon fill="none" stroke="black" points="661.5,-208 661.5,-231 744.5,-231 744.5,-208 661.5,-208"/>
<text text-anchor="start" x="699.25" y="-213.7" font-family="arial" font-size="14.00">2</text>
<polygon fill="none" stroke="black" points="744.5,-208 744.5,-231 850.5,-231 850.5,-208 744.5,-208"/>
<text text-anchor="start" x="783.25" y="-213.7" font-family="arial" font-size="14.00">VCC</text>
</g>
<!-- W2&#45;&#45;X3 -->
<g id="edge13" class="edge">
<title>W2:e&#45;&#45;X3:w</title>
<path fill="none" stroke="#000000" stroke-width="2" d="M517.5,-241C581.44,-241 597.44,-240.5 661.5,-240.5"/>
<path fill="none" stroke="#000000" stroke-width="2" d="M517.5,-243C581.5,-243 597.5,-242.5 661.5,-242.5"/>
<path fill="none" stroke="#000000" stroke-width="2" d="M517.5,-245C581.56,-245 597.56,-244.5 661.5,-244.5"/>
</g>
<!-- W2&#45;&#45;X3 -->
<g id="edge14" class="edge">
<title>W2:e&#45;&#45;X3:w</title>
<path fill="none" stroke="#000000" stroke-width="2" d="M517.5,-216C581.69,-216.01 597.69,-217.51 661.5,-217.5"/>
<path fill="none" stroke="#ff0000" stroke-width="2" d="M517.5,-218C581.5,-218 597.5,-219.5 661.5,-219.5"/>
<path fill="none" stroke="#000000" stroke-width="2" d="M517.5,-220C581.32,-219.99 597.32,-221.49 661.5,-221.5"/>
</g>
<!-- W3&#45;&#45;W3 -->
<g id="edge15" class="edge">
<title>W3:e&#45;&#45;W3:w</title>
<path fill="none" stroke="#000000" stroke-width="2" d="M513.62,-49C450.95,-49 388.29,-49 325.62,-49"/>
<path fill="none" stroke="#000000" stroke-width="2" d="M513.62,-47C450.95,-47 388.29,-47 325.62,-47"/>
<path fill="none" stroke="#000000" stroke-width="2" d="M513.62,-45C450.95,-45 388.29,-45 325.62,-45"/>
</g>
<!-- W3&#45;&#45;W3 -->
<g id="edge16" class="edge">
<title>W3:e&#45;&#45;W3:w</title>
<path fill="none" stroke="#000000" stroke-width="2" d="M513.62,-24C450.95,-24 388.29,-24 325.62,-24"/>
<path fill="none" stroke="#ff0000" stroke-width="2" d="M513.62,-22C450.95,-22 388.29,-22 325.62,-22"/>
<path fill="none" stroke="#000000" stroke-width="2" d="M513.62,-20C450.95,-20 388.29,-20 325.62,-20"/>
</g>
<!-- X4 -->
<g id="node7" class="node">
<title>X4</title>
<polygon fill="#ffffff" stroke="black" points="850.5,-105.5 661.5,-105.5 661.5,-12 850.5,-12 850.5,-105.5"/>
<polygon fill="#ffffff" stroke="none" points="661.5,-12 661.5,-105.5 850.5,-105.5 850.5,-12 661.5,-12"/>
<polygon fill="none" stroke="black" points="661.5,-81.75 661.5,-105.5 850.5,-105.5 850.5,-81.75 661.5,-81.75"/>
<text text-anchor="start" x="747.75" y="-88.2" font-family="arial" font-size="14.00">X4</text>
<polygon fill="none" stroke="black" points="661.5,-58 661.5,-81.75 763.25,-81.75 763.25,-58 661.5,-58"/>
<text text-anchor="start" x="665.5" y="-64.45" font-family="arial" font-size="14.00">Molex Micro&#45;Fit</text>
<polygon fill="none" stroke="black" points="763.25,-58 763.25,-81.75 812.5,-81.75 812.5,-58 763.25,-58"/>
<text text-anchor="start" x="767.25" y="-64.45" font-family="arial" font-size="14.00">female</text>
<polygon fill="none" stroke="black" points="812.5,-58 812.5,-81.75 850.5,-81.75 850.5,-58 812.5,-58"/>
<text text-anchor="start" x="816.5" y="-64.45" font-family="arial" font-size="14.00">2&#45;pin</text>
<polygon fill="none" stroke="black" points="661.5,-35 661.5,-58 744.5,-58 744.5,-35 661.5,-35"/>
<text text-anchor="start" x="699.25" y="-40.7" font-family="arial" font-size="14.00">1</text>
<polygon fill="none" stroke="black" points="744.5,-35 744.5,-58 850.5,-58 850.5,-35 744.5,-35"/>
<text text-anchor="start" x="782.13" y="-40.7" font-family="arial" font-size="14.00">GND</text>
<polygon fill="none" stroke="black" points="661.5,-12 661.5,-35 744.5,-35 744.5,-12 661.5,-12"/>
<text text-anchor="start" x="699.25" y="-17.7" font-family="arial" font-size="14.00">2</text>
<polygon fill="none" stroke="black" points="744.5,-12 744.5,-35 850.5,-35 850.5,-12 744.5,-12"/>
<text text-anchor="start" x="783.25" y="-17.7" font-family="arial" font-size="14.00">VCC</text>
</g>
<!-- W3&#45;&#45;X4 -->
<g id="edge17" class="edge">
<title>W3:e&#45;&#45;X4:w</title>
<path fill="none" stroke="#000000" stroke-width="2" d="M514.62,-45C579.84,-45 596.16,-44.5 661.5,-44.5"/>
<path fill="none" stroke="#000000" stroke-width="2" d="M514.62,-47C579.9,-47 596.22,-46.5 661.5,-46.5"/>
<path fill="none" stroke="#000000" stroke-width="2" d="M514.62,-49C579.96,-49 596.28,-48.5 661.5,-48.5"/>
</g>
<!-- W3&#45;&#45;X4 -->
<g id="edge18" class="edge">
<title>W3:e&#45;&#45;X4:w</title>
<path fill="none" stroke="#000000" stroke-width="2" d="M514.62,-20C580.09,-20.01 596.4,-21.51 661.5,-21.5"/>
<path fill="none" stroke="#ff0000" stroke-width="2" d="M514.62,-22C579.91,-22 596.22,-23.5 661.5,-23.5"/>
<path fill="none" stroke="#000000" stroke-width="2" d="M514.62,-24C579.73,-23.99 596.04,-25.49 661.5,-25.5"/>
</g>
</g>
</svg>
