<?xml version="1.0" encoding="UTF-8" standalone="no"?>
<!DOCTYPE svg PUBLIC "-//W3C//DTD SVG 1.1//EN"
 "http://www.w3.org/Graphics/SVG/1.1/DTD/svg11.dtd">
<!-- Generated by graphviz version 2.44.0 (20200408.0750)
 -->
<!-- Pages: 1 -->
<svg width="865pt" height="332pt"
 viewBox="0.00 0.00 865.00 332.00" xmlns="http://www.w3.org/2000/svg" xmlns:xlink="http://www.w3.org/1999/xlink">
<g id="graph0" class="graph" transform="scale(1 1) rotate(0) translate(4 328)">
<polygon fill="white" stroke="transparent" points="-4,4 -4,-328 861,-328 861,4 -4,4"/>
<!-- X1 -->
<g id="node1" class="node">
<title>X1</title>
<polygon fill="white" stroke="transparent" points="180,-208 0,-208 0,-116 180,-116 180,-208"/>
<polygon fill="none" stroke="black" points="0,-185 0,-208 180,-208 180,-185 0,-185"/>
<text text-anchor="start" x="81.5" y="-192.8" font-family="arial" font-size="14.00">X1</text>
<polygon fill="none" stroke="black" points="0,-162 0,-185 102,-185 102,-162 0,-162"/>
<text text-anchor="start" x="4" y="-169.8" font-family="arial" font-size="14.00">Molex Micro&#45;Fit</text>
<polygon fill="none" stroke="black" points="102,-162 102,-185 141,-185 141,-162 102,-162"/>
<text text-anchor="start" x="106" y="-169.8" font-family="arial" font-size="14.00">male</text>
<polygon fill="none" stroke="black" points="141,-162 141,-185 180,-185 180,-162 141,-162"/>
<text text-anchor="start" x="145" y="-169.8" font-family="arial" font-size="14.00">2&#45;pin</text>
<polygon fill="none" stroke="black" points="0,-139 0,-162 102,-162 102,-139 0,-139"/>
<text text-anchor="start" x="35.5" y="-146.8" font-family="arial" font-size="14.00">GND</text>
<polygon fill="none" stroke="black" points="102,-139 102,-162 180,-162 180,-139 102,-139"/>
<text text-anchor="start" x="137" y="-146.8" font-family="arial" font-size="14.00">1</text>
<polygon fill="none" stroke="black" points="0,-116 0,-139 102,-139 102,-116 0,-116"/>
<text text-anchor="start" x="36.5" y="-123.8" font-family="arial" font-size="14.00">VCC</text>
<polygon fill="none" stroke="black" points="102,-116 102,-139 180,-139 180,-116 102,-116"/>
<text text-anchor="start" x="137" y="-123.8" font-family="arial" font-size="14.00">2</text>
</g>
<!-- W1 -->
<g id="node5" class="node">
<title>W1</title>
<polygon fill="white" stroke="black" stroke-dasharray="5,2" points="522,-284 324,-284 324,-54 522,-54 522,-284"/>
<polygon fill="none" stroke="black" points="324,-261 324,-284 522,-284 522,-261 324,-261"/>
<text text-anchor="start" x="412" y="-268.8" font-family="arial" font-size="14.00">W1</text>
<polygon fill="none" stroke="black" points="324,-238 324,-261 347,-261 347,-238 324,-238"/>
<text text-anchor="start" x="328" y="-245.8" font-family="arial" font-size="14.00">6x</text>
<polygon fill="none" stroke="black" points="347,-238 347,-261 479,-261 479,-238 347,-238"/>
<text text-anchor="start" x="351" y="-245.8" font-family="arial" font-size="14.00">0.25 mm² (24 AWG)</text>
<polygon fill="none" stroke="black" points="479,-238 479,-261 522,-261 522,-238 479,-238"/>
<text text-anchor="start" x="483" y="-245.8" font-family="arial" font-size="14.00">0.2 m</text>
<text text-anchor="start" x="421" y="-226.8" font-family="arial" font-size="14.00"> </text>
<text text-anchor="start" x="344.5" y="-209.8" font-family="arial" font-size="14.00">X1:1</text>
<text text-anchor="start" x="414" y="-209.8" font-family="arial" font-size="14.00">BK</text>
<text text-anchor="start" x="474" y="-209.8" font-family="arial" font-size="14.00">X2:1</text>
<polygon fill="#000000" stroke="transparent" points="324,-202 324,-204 522,-204 522,-202 324,-202"/>
<polygon fill="#000000" stroke="transparent" points="324,-200 324,-202 522,-202 522,-200 324,-200"/>
<polygon fill="#000000" stroke="transparent" points="324,-198 324,-200 522,-200 522,-198 324,-198"/>
<text text-anchor="start" x="344.5" y="-184.8" font-family="arial" font-size="14.00">X1:2</text>
<text text-anchor="start" x="413.5" y="-184.8" font-family="arial" font-size="14.00">RD</text>
<text text-anchor="start" x="474" y="-184.8" font-family="arial" font-size="14.00">X2:2</text>
<polygon fill="#000000" stroke="transparent" points="324,-177 324,-179 522,-179 522,-177 324,-177"/>
<polygon fill="#ff0000" stroke="transparent" points="324,-175 324,-177 522,-177 522,-175 324,-175"/>
<polygon fill="#000000" stroke="transparent" points="324,-173 324,-175 522,-175 522,-173 324,-173"/>
<text text-anchor="start" x="344.5" y="-159.8" font-family="arial" font-size="14.00">X1:1</text>
<text text-anchor="start" x="414" y="-159.8" font-family="arial" font-size="14.00">BK</text>
<text text-anchor="start" x="474" y="-159.8" font-family="arial" font-size="14.00">X3:1</text>
<polygon fill="#000000" stroke="transparent" points="324,-152 324,-154 522,-154 522,-152 324,-152"/>
<polygon fill="#000000" stroke="transparent" points="324,-150 324,-152 522,-152 522,-150 324,-150"/>
<polygon fill="#000000" stroke="transparent" points="324,-148 324,-150 522,-150 522,-148 324,-148"/>
<text text-anchor="start" x="344.5" y="-134.8" font-family="arial" font-size="14.00">X1:2</text>
<text text-anchor="start" x="413.5" y="-134.8" font-family="arial" font-size="14.00">RD</text>
<text text-anchor="start" x="474" y="-134.8" font-family="arial" font-size="14.00">X3:2</text>
<polygon fill="#000000" stroke="transparent" points="324,-127 324,-129 522,-129 522,-127 324,-127"/>
<polygon fill="#ff0000" stroke="transparent" points="324,-125 324,-127 522,-127 522,-125 324,-125"/>
<polygon fill="#000000" stroke="transparent" points="324,-123 324,-125 522,-125 522,-123 324,-123"/>
<text text-anchor="start" x="344.5" y="-109.8" font-family="arial" font-size="14.00">X1:1</text>
<text text-anchor="start" x="414" y="-109.8" font-family="arial" font-size="14.00">BK</text>
<text text-anchor="start" x="474" y="-109.8" font-family="arial" font-size="14.00">X4:1</text>
<polygon fill="#000000" stroke="transparent" points="324,-102 324,-104 522,-104 522,-102 324,-102"/>
<polygon fill="#000000" stroke="transparent" points="324,-100 324,-102 522,-102 522,-100 324,-100"/>
<polygon fill="#000000" stroke="transparent" points="324,-98 324,-100 522,-100 522,-98 324,-98"/>
<text text-anchor="start" x="344.5" y="-84.8" font-family="arial" font-size="14.00">X1:2</text>
<text text-anchor="start" x="413.5" y="-84.8" font-family="arial" font-size="14.00">RD</text>
<text text-anchor="start" x="474" y="-84.8" font-family="arial" font-size="14.00">X4:2</text>
<polygon fill="#000000" stroke="transparent" points="324,-77 324,-79 522,-79 522,-77 324,-77"/>
<polygon fill="#ff0000" stroke="transparent" points="324,-75 324,-77 522,-77 522,-75 324,-75"/>
<polygon fill="#000000" stroke="transparent" points="324,-73 324,-75 522,-75 522,-73 324,-73"/>
<text text-anchor="start" x="356.5" y="-59.8" font-family="arial" font-size="14.00"> </text>
</g>
<!-- X1&#45;&#45;W1 -->
<g id="edge1" class="edge">
<title>X1:e&#45;&#45;W1:w</title>
<path fill="none" stroke="#000000" stroke-width="2" d="M180,-148C249.87,-149.68 258.08,-200.68 324,-199"/>
<path fill="none" stroke="#000000" stroke-width="2" d="M180,-150C247.9,-150 256.1,-201 324,-201"/>
<path fill="none" stroke="#000000" stroke-width="2" d="M180,-152C245.92,-150.32 254.13,-201.32 324,-203"/>
</g>
<!-- X1&#45;&#45;W1 -->
<g id="edge3" class="edge">
<title>X1:e&#45;&#45;W1:w</title>
<path fill="none" stroke="#000000" stroke-width="2" d="M180,-125C249.57,-126.65 258.36,-175.65 324,-174"/>
<path fill="none" stroke="#ff0000" stroke-width="2" d="M180,-127C247.6,-127 256.4,-176 324,-176"/>
<path fill="none" stroke="#000000" stroke-width="2" d="M180,-129C245.64,-127.35 254.43,-176.35 324,-178"/>
</g>
<!-- X1&#45;&#45;W1 -->
<g id="edge5" class="edge">
<title>X1:e&#45;&#45;W1:w</title>
<path fill="none" stroke="#000000" stroke-width="2" d="M180,-148C244.13,-148 260.12,-149 324,-149"/>
<path fill="none" stroke="#000000" stroke-width="2" d="M180,-150C244,-150 260,-151 324,-151"/>
<path fill="none" stroke="#000000" stroke-width="2" d="M180,-152C243.88,-152 259.87,-153 324,-153"/>
</g>
<!-- X1&#45;&#45;W1 -->
<g id="edge7" class="edge">
<title>X1:e&#45;&#45;W1:w</title>
<path fill="none" stroke="#000000" stroke-width="2" d="M180,-125C243.88,-125 259.87,-124 324,-124"/>
<path fill="none" stroke="#ff0000" stroke-width="2" d="M180,-127C244,-127 260,-126 324,-126"/>
<path fill="none" stroke="#000000" stroke-width="2" d="M180,-129C244.13,-129 260.12,-128 324,-128"/>
</g>
<!-- X1&#45;&#45;W1 -->
<g id="edge9" class="edge">
<title>X1:e&#45;&#45;W1:w</title>
<path fill="none" stroke="#000000" stroke-width="2" d="M180,-148C245.64,-149.65 254.43,-100.65 324,-99"/>
<path fill="none" stroke="#000000" stroke-width="2" d="M180,-150C247.6,-150 256.4,-101 324,-101"/>
<path fill="none" stroke="#000000" stroke-width="2" d="M180,-152C249.57,-150.35 258.36,-101.35 324,-103"/>
</g>
<!-- X1&#45;&#45;W1 -->
<g id="edge11" class="edge">
<title>X1:e&#45;&#45;W1:w</title>
<path fill="none" stroke="#000000" stroke-width="2" d="M180,-125C245.92,-126.68 254.13,-75.68 324,-74"/>
<path fill="none" stroke="#ff0000" stroke-width="2" d="M180,-127C247.9,-127 256.1,-76 324,-76"/>
<path fill="none" stroke="#000000" stroke-width="2" d="M180,-129C249.87,-127.32 258.08,-76.32 324,-78"/>
</g>
<!-- X2 -->
<g id="node2" class="node">
<title>X2</title>
<polygon fill="white" stroke="transparent" points="857,-324 666,-324 666,-232 857,-232 857,-324"/>
<polygon fill="none" stroke="black" points="666.5,-301 666.5,-324 857.5,-324 857.5,-301 666.5,-301"/>
<text text-anchor="start" x="753.5" y="-308.8" font-family="arial" font-size="14.00">X2</text>
<polygon fill="none" stroke="black" points="666.5,-278 666.5,-301 768.5,-301 768.5,-278 666.5,-278"/>
<text text-anchor="start" x="670.5" y="-285.8" font-family="arial" font-size="14.00">Molex Micro&#45;Fit</text>
<polygon fill="none" stroke="black" points="768.5,-278 768.5,-301 818.5,-301 818.5,-278 768.5,-278"/>
<text text-anchor="start" x="772.5" y="-285.8" font-family="arial" font-size="14.00">female</text>
<polygon fill="none" stroke="black" points="818.5,-278 818.5,-301 857.5,-301 857.5,-278 818.5,-278"/>
<text text-anchor="start" x="822.5" y="-285.8" font-family="arial" font-size="14.00">2&#45;pin</text>
<polygon fill="none" stroke="black" points="666.5,-255 666.5,-278 750.5,-278 750.5,-255 666.5,-255"/>
<text text-anchor="start" x="704.5" y="-262.8" font-family="arial" font-size="14.00">1</text>
<polygon fill="none" stroke="black" points="750.5,-255 750.5,-278 857.5,-278 857.5,-255 750.5,-255"/>
<text text-anchor="start" x="788.5" y="-262.8" font-family="arial" font-size="14.00">GND</text>
<polygon fill="none" stroke="black" points="666.5,-232 666.5,-255 750.5,-255 750.5,-232 666.5,-232"/>
<text text-anchor="start" x="704.5" y="-239.8" font-family="arial" font-size="14.00">2</text>
<polygon fill="none" stroke="black" points="750.5,-232 750.5,-255 857.5,-255 857.5,-232 750.5,-232"/>
<text text-anchor="start" x="789.5" y="-239.8" font-family="arial" font-size="14.00">VCC</text>
</g>
<!-- X3 -->
<g id="node3" class="node">
<title>X3</title>
<polygon fill="white" stroke="transparent" points="857,-208 666,-208 666,-116 857,-116 857,-208"/>
<polygon fill="none" stroke="black" points="666.5,-185 666.5,-208 857.5,-208 857.5,-185 666.5,-185"/>
<text text-anchor="start" x="753.5" y="-192.8" font-family="arial" font-size="14.00">X3</text>
<polygon fill="none" stroke="black" points="666.5,-162 666.5,-185 768.5,-185 768.5,-162 666.5,-162"/>
<text text-anchor="start" x="670.5" y="-169.8" font-family="arial" font-size="14.00">Molex Micro&#45;Fit</text>
<polygon fill="none" stroke="black" points="768.5,-162 768.5,-185 818.5,-185 818.5,-162 768.5,-162"/>
<text text-anchor="start" x="772.5" y="-169.8" font-family="arial" font-size="14.00">female</text>
<polygon fill="none" stroke="black" points="818.5,-162 818.5,-185 857.5,-185 857.5,-162 818.5,-162"/>
<text text-anchor="start" x="822.5" y="-169.8" font-family="arial" font-size="14.00">2&#45;pin</text>
<polygon fill="none" stroke="black" points="666.5,-139 666.5,-162 750.5,-162 750.5,-139 666.5,-139"/>
<text text-anchor="start" x="704.5" y="-146.8" font-family="arial" font-size="14.00">1</text>
<polygon fill="none" stroke="black" points="750.5,-139 750.5,-162 857.5,-162 857.5,-139 750.5,-139"/>
<text text-anchor="start" x="788.5" y="-146.8" font-family="arial" font-size="14.00">GND</text>
<polygon fill="none" stroke="black" points="666.5,-116 666.5,-139 750.5,-139 750.5,-116 666.5,-116"/>
<text text-anchor="start" x="704.5" y="-123.8" font-family="arial" font-size="14.00">2</text>
<polygon fill="none" stroke="black" points="750.5,-116 750.5,-139 857.5,-139 857.5,-116 750.5,-116"/>
<text text-anchor="start" x="789.5" y="-123.8" font-family="arial" font-size="14.00">VCC</text>
</g>
<!-- X4 -->
<g id="node4" class="node">
<title>X4</title>
<polygon fill="white" stroke="transparent" points="857,-92 666,-92 666,0 857,0 857,-92"/>
<polygon fill="none" stroke="black" points="666.5,-69 666.5,-92 857.5,-92 857.5,-69 666.5,-69"/>
<text text-anchor="start" x="753.5" y="-76.8" font-family="arial" font-size="14.00">X4</text>
<polygon fill="none" stroke="black" points="666.5,-46 666.5,-69 768.5,-69 768.5,-46 666.5,-46"/>
<text text-anchor="start" x="670.5" y="-53.8" font-family="arial" font-size="14.00">Molex Micro&#45;Fit</text>
<polygon fill="none" stroke="black" points="768.5,-46 768.5,-69 818.5,-69 818.5,-46 768.5,-46"/>
<text text-anchor="start" x="772.5" y="-53.8" font-family="arial" font-size="14.00">female</text>
<polygon fill="none" stroke="black" points="818.5,-46 818.5,-69 857.5,-69 857.5,-46 818.5,-46"/>
<text text-anchor="start" x="822.5" y="-53.8" font-family="arial" font-size="14.00">2&#45;pin</text>
<polygon fill="none" stroke="black" points="666.5,-23 666.5,-46 750.5,-46 750.5,-23 666.5,-23"/>
<text text-anchor="start" x="704.5" y="-30.8" font-family="arial" font-size="14.00">1</text>
<polygon fill="none" stroke="black" points="750.5,-23 750.5,-46 857.5,-46 857.5,-23 750.5,-23"/>
<text text-anchor="start" x="788.5" y="-30.8" font-family="arial" font-size="14.00">GND</text>
<polygon fill="none" stroke="black" points="666.5,0 666.5,-23 750.5,-23 750.5,0 666.5,0"/>
<text text-anchor="start" x="704.5" y="-7.8" font-family="arial" font-size="14.00">2</text>
<polygon fill="none" stroke="black" points="750.5,0 750.5,-23 857.5,-23 857.5,0 750.5,0"/>
<text text-anchor="start" x="789.5" y="-7.8" font-family="arial" font-size="14.00">VCC</text>
</g>
<!-- W1&#45;&#45;X2 -->
<g id="edge2" class="edge">
<title>W1:e&#45;&#45;X2:w</title>
<path fill="none" stroke="#000000" stroke-width="2" d="M522,-199C594.22,-200.89 597.78,-265.89 666,-264"/>
<path fill="none" stroke="#000000" stroke-width="2" d="M522,-201C592.22,-201 595.78,-266 666,-266"/>
<path fill="none" stroke="#000000" stroke-width="2" d="M522,-203C590.22,-201.11 593.78,-266.11 666,-268"/>
</g>
<!-- W1&#45;&#45;X2 -->
<g id="edge4" class="edge">
<title>W1:e&#45;&#45;X2:w</title>
<path fill="none" stroke="#000000" stroke-width="2" d="M522,-174C594.59,-175.92 597.41,-242.92 666,-241"/>
<path fill="none" stroke="#ff0000" stroke-width="2" d="M522,-176C592.59,-176 595.41,-243 666,-243"/>
<path fill="none" stroke="#000000" stroke-width="2" d="M522,-178C590.59,-176.08 593.41,-243.08 666,-245"/>
</g>
<!-- W1&#45;&#45;X3 -->
<g id="edge6" class="edge">
<title>W1:e&#45;&#45;X3:w</title>
<path fill="none" stroke="#000000" stroke-width="2" d="M522,-149C585.88,-149 601.87,-148 666,-148"/>
<path fill="none" stroke="#000000" stroke-width="2" d="M522,-151C586,-151 602,-150 666,-150"/>
<path fill="none" stroke="#000000" stroke-width="2" d="M522,-153C586.13,-153 602.12,-152 666,-152"/>
</g>
<!-- W1&#45;&#45;X3 -->
<g id="edge8" class="edge">
<title>W1:e&#45;&#45;X3:w</title>
<path fill="none" stroke="#000000" stroke-width="2" d="M522,-124C586.13,-124 602.12,-125 666,-125"/>
<path fill="none" stroke="#ff0000" stroke-width="2" d="M522,-126C586,-126 602,-127 666,-127"/>
<path fill="none" stroke="#000000" stroke-width="2" d="M522,-128C585.88,-128 601.87,-129 666,-129"/>
</g>
<!-- W1&#45;&#45;X4 -->
<g id="edge10" class="edge">
<title>W1:e&#45;&#45;X4:w</title>
<path fill="none" stroke="#000000" stroke-width="2" d="M522,-99C590.59,-100.92 593.41,-33.92 666,-32"/>
<path fill="none" stroke="#000000" stroke-width="2" d="M522,-101C592.59,-101 595.41,-34 666,-34"/>
<path fill="none" stroke="#000000" stroke-width="2" d="M522,-103C594.59,-101.08 597.41,-34.08 666,-36"/>
</g>
<!-- W1&#45;&#45;X4 -->
<g id="edge12" class="edge">
<title>W1:e&#45;&#45;X4:w</title>
<path fill="none" stroke="#000000" stroke-width="2" d="M522,-74C590.22,-75.89 593.78,-10.89 666,-9"/>
<path fill="none" stroke="#ff0000" stroke-width="2" d="M522,-76C592.22,-76 595.78,-11 666,-11"/>
<path fill="none" stroke="#000000" stroke-width="2" d="M522,-78C594.22,-76.11 597.78,-11.11 666,-13"/>
</g>
</g>
</svg>
