<?xml version="1.0" encoding="UTF-8" standalone="no"?>
<!DOCTYPE svg PUBLIC "-//W3C//DTD SVG 1.1//EN"
 "http://www.w3.org/Graphics/SVG/1.1/DTD/svg11.dtd">
<!-- Generated by graphviz version 2.44.0 (20200408.0750)
 -->
<!-- Pages: 1 -->
<svg width="925pt" height="335pt"
 viewBox="0.00 0.00 925.00 335.00" xmlns="http://www.w3.org/2000/svg" xmlns:xlink="http://www.w3.org/1999/xlink">
<g id="graph0" class="graph" transform="scale(1 1) rotate(0) translate(4 331)">
<g id="clust1" class="cluster">
<title>cluster_W1</title>
<polygon fill="white" stroke="black" stroke-dasharray="5,2" points="340,-71.5 340,-245.5 566,-245.5 566,-71.5 340,-71.5"/>
<text text-anchor="middle" x="453" y="-230.3" font-family="arial" font-size="14.00">6x &#160;| &#160;0.25 mm² (24 AWG) &#160;| &#160;0.2 m</text>
<text text-anchor="middle" x="453" y="-215.3" font-family="arial" font-size="14.00"> </text>
</g>
<!-- X1 -->
<g id="node1" class="node">
<title>X1</title>
<polygon fill="white" stroke="black" points="0,-116.5 0,-208.5 204,-208.5 204,-116.5 0,-116.5"/>
<text text-anchor="middle" x="102" y="-193.3" font-family="arial" font-size="14.00">X1</text>
<polyline fill="none" stroke="black" points="0,-185.5 204,-185.5 "/>
<text text-anchor="middle" x="55" y="-170.3" font-family="arial" font-size="14.00">Molex Micro&#45;Fit</text>
<polyline fill="none" stroke="black" points="110,-162.5 110,-185.5 "/>
<text text-anchor="middle" x="133.5" y="-170.3" font-family="arial" font-size="14.00">male</text>
<polyline fill="none" stroke="black" points="157,-162.5 157,-185.5 "/>
<text text-anchor="middle" x="180.5" y="-170.3" font-family="arial" font-size="14.00">2&#45;pin</text>
<polyline fill="none" stroke="black" points="0,-162.5 204,-162.5 "/>
<text text-anchor="middle" x="56.5" y="-147.3" font-family="arial" font-size="14.00">GND</text>
<polyline fill="none" stroke="black" points="0,-139.5 113,-139.5 "/>
<text text-anchor="middle" x="56.5" y="-124.3" font-family="arial" font-size="14.00">VCC</text>
<polyline fill="none" stroke="black" points="113,-116.5 113,-162.5 "/>
<text text-anchor="middle" x="158.5" y="-147.3" font-family="arial" font-size="14.00">1</text>
<polyline fill="none" stroke="black" points="113,-139.5 204,-139.5 "/>
<text text-anchor="middle" x="158.5" y="-124.3" font-family="arial" font-size="14.00">2</text>
</g>
<!-- W1_w1l -->
<g id="node5" class="node">
<title>W1_w1l</title>
<ellipse fill="white" stroke="black" cx="381" cy="-199.5" rx="0" ry="0"/>
</g>
<!-- X1&#45;&#45;W1_w1l -->
<g id="edge2" class="edge">
<title>X1:p1r&#45;&#45;W1_w1l:w</title>
<path fill="none" stroke="#000000" stroke-width="2" d="M204,-148.5C287.12,-149.96 300.73,-198.96 380,-197.5"/>
<path fill="none" stroke="#000000" stroke-width="2" d="M204,-150.5C285.2,-150.5 298.8,-199.5 380,-199.5"/>
<path fill="none" stroke="#000000" stroke-width="2" d="M204,-152.5C283.27,-151.04 296.88,-200.04 380,-201.5"/>
<text text-anchor="middle" x="374.48" y="-204.14" font-family="arial" font-size="14.00"> &#160;&#160;&#160;&#160;&#160;&#160;&#160;&#160;&#160;&#160;&#160;X1:1</text>
</g>
<!-- W1_w2l -->
<g id="node7" class="node">
<title>W1_w2l</title>
<ellipse fill="white" stroke="black" cx="381" cy="-151.5" rx="0" ry="0"/>
</g>
<!-- X1&#45;&#45;W1_w2l -->
<g id="edge5" class="edge">
<title>X1:p2r&#45;&#45;W1_w2l:w</title>
<path fill="none" stroke="#000000" stroke-width="2" d="M204,-125.5C284.54,-126.3 302.65,-150.3 380,-149.5"/>
<path fill="none" stroke="#ff0000" stroke-width="2" d="M204,-127.5C282.95,-127.5 301.05,-151.5 380,-151.5"/>
<path fill="none" stroke="#000000" stroke-width="2" d="M204,-129.5C281.35,-128.7 299.46,-152.7 380,-153.5"/>
<text text-anchor="middle" x="374.74" y="-156.3" font-family="arial" font-size="14.00"> &#160;&#160;&#160;&#160;&#160;&#160;&#160;&#160;&#160;&#160;&#160;X1:2</text>
</g>
<!-- W1_w3l -->
<g id="node9" class="node">
<title>W1_w3l</title>
<ellipse fill="white" stroke="black" cx="381" cy="-175.5" rx="0" ry="0"/>
</g>
<!-- X1&#45;&#45;W1_w3l -->
<g id="edge8" class="edge">
<title>X1:p1r&#45;&#45;W1_w3l:w</title>
<path fill="none" stroke="#000000" stroke-width="2" d="M204,-148.5C284.63,-149.33 302.62,-174.33 380,-173.5"/>
<path fill="none" stroke="#000000" stroke-width="2" d="M204,-150.5C283.01,-150.5 300.99,-175.5 380,-175.5"/>
<path fill="none" stroke="#000000" stroke-width="2" d="M204,-152.5C281.38,-151.67 299.37,-176.67 380,-177.5"/>
<text text-anchor="middle" x="374.73" y="-180.3" font-family="arial" font-size="14.00"> &#160;&#160;&#160;&#160;&#160;&#160;&#160;&#160;&#160;&#160;&#160;X1:1</text>
</g>
<!-- W1_w4l -->
<g id="node11" class="node">
<title>W1_w4l</title>
<ellipse fill="white" stroke="black" cx="381" cy="-103.5" rx="0" ry="0"/>
</g>
<!-- X1&#45;&#45;W1_w4l -->
<g id="edge11" class="edge">
<title>X1:p2r&#45;&#45;W1_w4l:w</title>
<path fill="none" stroke="#000000" stroke-width="2" d="M204,-125.5C281.35,-126.3 299.46,-102.3 380,-101.5"/>
<path fill="none" stroke="#ff0000" stroke-width="2" d="M204,-127.5C282.95,-127.5 301.05,-103.5 380,-103.5"/>
<path fill="none" stroke="#000000" stroke-width="2" d="M204,-129.5C284.54,-128.7 302.65,-104.7 380,-105.5"/>
<text text-anchor="middle" x="375.27" y="-108.61" font-family="arial" font-size="14.00"> &#160;&#160;&#160;&#160;&#160;&#160;&#160;&#160;&#160;&#160;&#160;X1:2</text>
</g>
<!-- W1_w5l -->
<g id="node13" class="node">
<title>W1_w5l</title>
<ellipse fill="white" stroke="black" cx="381" cy="-127.5" rx="0" ry="0"/>
</g>
<!-- X1&#45;&#45;W1_w5l -->
<g id="edge14" class="edge">
<title>X1:p1r&#45;&#45;W1_w5l:w</title>
<path fill="none" stroke="#000000" stroke-width="2" d="M204,-148.5C281.32,-149.26 299.55,-126.26 380,-125.5"/>
<path fill="none" stroke="#000000" stroke-width="2" d="M204,-150.5C282.89,-150.5 301.11,-127.5 380,-127.5"/>
<path fill="none" stroke="#000000" stroke-width="2" d="M204,-152.5C284.45,-151.74 302.68,-128.74 380,-129.5"/>
<text text-anchor="middle" x="375.26" y="-132.6" font-family="arial" font-size="14.00"> &#160;&#160;&#160;&#160;&#160;&#160;&#160;&#160;&#160;&#160;&#160;X1:1</text>
</g>
<!-- W1_w6l -->
<g id="node15" class="node">
<title>W1_w6l</title>
<ellipse fill="white" stroke="black" cx="381" cy="-79.5" rx="0" ry="0"/>
</g>
<!-- X1&#45;&#45;W1_w6l -->
<g id="edge17" class="edge">
<title>X1:p2r&#45;&#45;W1_w6l:w</title>
<path fill="none" stroke="#000000" stroke-width="2" d="M204,-125.5C283.16,-126.95 297,-78.95 380,-77.5"/>
<path fill="none" stroke="#ff0000" stroke-width="2" d="M204,-127.5C285.08,-127.5 298.92,-79.5 380,-79.5"/>
<path fill="none" stroke="#000000" stroke-width="2" d="M204,-129.5C287,-128.05 300.84,-80.05 380,-81.5"/>
<text text-anchor="middle" x="375.53" y="-84.74" font-family="arial" font-size="14.00"> &#160;&#160;&#160;&#160;&#160;&#160;&#160;&#160;&#160;&#160;&#160;X1:2</text>
</g>
<!-- X2 -->
<g id="node2" class="node">
<title>X2</title>
<polygon fill="white" stroke="black" points="702,-234.5 702,-326.5 917,-326.5 917,-234.5 702,-234.5"/>
<text text-anchor="middle" x="809.5" y="-311.3" font-family="arial" font-size="14.00">X2</text>
<polyline fill="none" stroke="black" points="702,-303.5 917,-303.5 "/>
<text text-anchor="middle" x="757" y="-288.3" font-family="arial" font-size="14.00">Molex Micro&#45;Fit</text>
<polyline fill="none" stroke="black" points="812,-280.5 812,-303.5 "/>
<text text-anchor="middle" x="841" y="-288.3" font-family="arial" font-size="14.00">female</text>
<polyline fill="none" stroke="black" points="870,-280.5 870,-303.5 "/>
<text text-anchor="middle" x="893.5" y="-288.3" font-family="arial" font-size="14.00">2&#45;pin</text>
<polyline fill="none" stroke="black" points="702,-280.5 917,-280.5 "/>
<text text-anchor="middle" x="750" y="-265.3" font-family="arial" font-size="14.00">1</text>
<polyline fill="none" stroke="black" points="702,-257.5 798,-257.5 "/>
<text text-anchor="middle" x="750" y="-242.3" font-family="arial" font-size="14.00">2</text>
<polyline fill="none" stroke="black" points="798,-234.5 798,-280.5 "/>
<text text-anchor="middle" x="857.5" y="-265.3" font-family="arial" font-size="14.00">GND</text>
<polyline fill="none" stroke="black" points="798,-257.5 917,-257.5 "/>
<text text-anchor="middle" x="857.5" y="-242.3" font-family="arial" font-size="14.00">VCC</text>
</g>
<!-- X3 -->
<g id="node3" class="node">
<title>X3</title>
<polygon fill="white" stroke="black" points="702,-117.5 702,-209.5 917,-209.5 917,-117.5 702,-117.5"/>
<text text-anchor="middle" x="809.5" y="-194.3" font-family="arial" font-size="14.00">X3</text>
<polyline fill="none" stroke="black" points="702,-186.5 917,-186.5 "/>
<text text-anchor="middle" x="757" y="-171.3" font-family="arial" font-size="14.00">Molex Micro&#45;Fit</text>
<polyline fill="none" stroke="black" points="812,-163.5 812,-186.5 "/>
<text text-anchor="middle" x="841" y="-171.3" font-family="arial" font-size="14.00">female</text>
<polyline fill="none" stroke="black" points="870,-163.5 870,-186.5 "/>
<text text-anchor="middle" x="893.5" y="-171.3" font-family="arial" font-size="14.00">2&#45;pin</text>
<polyline fill="none" stroke="black" points="702,-163.5 917,-163.5 "/>
<text text-anchor="middle" x="750" y="-148.3" font-family="arial" font-size="14.00">1</text>
<polyline fill="none" stroke="black" points="702,-140.5 798,-140.5 "/>
<text text-anchor="middle" x="750" y="-125.3" font-family="arial" font-size="14.00">2</text>
<polyline fill="none" stroke="black" points="798,-117.5 798,-163.5 "/>
<text text-anchor="middle" x="857.5" y="-148.3" font-family="arial" font-size="14.00">GND</text>
<polyline fill="none" stroke="black" points="798,-140.5 917,-140.5 "/>
<text text-anchor="middle" x="857.5" y="-125.3" font-family="arial" font-size="14.00">VCC</text>
</g>
<!-- X4 -->
<g id="node4" class="node">
<title>X4</title>
<polygon fill="white" stroke="black" points="702,-0.5 702,-92.5 917,-92.5 917,-0.5 702,-0.5"/>
<text text-anchor="middle" x="809.5" y="-77.3" font-family="arial" font-size="14.00">X4</text>
<polyline fill="none" stroke="black" points="702,-69.5 917,-69.5 "/>
<text text-anchor="middle" x="757" y="-54.3" font-family="arial" font-size="14.00">Molex Micro&#45;Fit</text>
<polyline fill="none" stroke="black" points="812,-46.5 812,-69.5 "/>
<text text-anchor="middle" x="841" y="-54.3" font-family="arial" font-size="14.00">female</text>
<polyline fill="none" stroke="black" points="870,-46.5 870,-69.5 "/>
<text text-anchor="middle" x="893.5" y="-54.3" font-family="arial" font-size="14.00">2&#45;pin</text>
<polyline fill="none" stroke="black" points="702,-46.5 917,-46.5 "/>
<text text-anchor="middle" x="750" y="-31.3" font-family="arial" font-size="14.00">1</text>
<polyline fill="none" stroke="black" points="702,-23.5 798,-23.5 "/>
<text text-anchor="middle" x="750" y="-8.3" font-family="arial" font-size="14.00">2</text>
<polyline fill="none" stroke="black" points="798,-0.5 798,-46.5 "/>
<text text-anchor="middle" x="857.5" y="-31.3" font-family="arial" font-size="14.00">GND</text>
<polyline fill="none" stroke="black" points="798,-23.5 917,-23.5 "/>
<text text-anchor="middle" x="857.5" y="-8.3" font-family="arial" font-size="14.00">VCC</text>
</g>
<!-- W1_w1r -->
<g id="node6" class="node">
<title>W1_w1r</title>
<ellipse fill="white" stroke="black" cx="525" cy="-199.5" rx="0" ry="0"/>
</g>
<!-- W1_w1l&#45;&#45;W1_w1r -->
<g id="edge1" class="edge">
<title>W1_w1l&#45;&#45;W1_w1r</title>
<path fill="none" stroke="#000000" stroke-width="2" d="M382.1,-197.5C386.34,-197.5 519.73,-197.5 523.9,-197.5"/>
<path fill="none" stroke="#000000" stroke-width="2" d="M382.1,-199.5C386.34,-199.5 519.73,-199.5 523.9,-199.5"/>
<path fill="none" stroke="#000000" stroke-width="2" d="M382.1,-201.5C386.34,-201.5 519.73,-201.5 523.9,-201.5"/>
<text text-anchor="middle" x="387.1" y="-204.46" font-family="arial" font-size="14.00"> &#160;&#160;&#160;&#160;&#160;&#160;&#160;&#160;&#160;&#160;&#160;&#160;&#160;&#160;&#160;&#160;&#160;&#160;&#160;&#160;&#160;&#160;&#160;&#160;&#160;&#160;&#160;&#160;&#160;&#160;&#160;&#160;&#160;&#160;BK</text>
</g>
<!-- W1_w1r&#45;&#45;X2 -->
<g id="edge3" class="edge">
<title>W1_w1r:e&#45;&#45;X2:p1l</title>
<path fill="none" stroke="#000000" stroke-width="2" d="M526,-197.5C612.01,-199.27 619.97,-268.27 702,-266.5"/>
<path fill="none" stroke="#000000" stroke-width="2" d="M526,-199.5C610.02,-199.5 617.98,-268.5 702,-268.5"/>
<path fill="none" stroke="#000000" stroke-width="2" d="M526,-201.5C608.03,-199.73 615.99,-268.73 702,-270.5"/>
<text text-anchor="middle" x="530.26" y="-204.85" font-family="arial" font-size="14.00">X2:1 &#160;&#160;&#160;&#160;&#160;&#160;&#160;&#160;&#160;&#160;&#160;</text>
</g>
<!-- W1_w2r -->
<g id="node8" class="node">
<title>W1_w2r</title>
<ellipse fill="white" stroke="black" cx="525" cy="-151.5" rx="0" ry="0"/>
</g>
<!-- W1_w2l&#45;&#45;W1_w2r -->
<g id="edge4" class="edge">
<title>W1_w2l&#45;&#45;W1_w2r</title>
<path fill="none" stroke="#000000" stroke-width="2" d="M382.1,-149.5C386.34,-149.5 519.73,-149.5 523.9,-149.5"/>
<path fill="none" stroke="#ff0000" stroke-width="2" d="M382.1,-151.5C386.34,-151.5 519.73,-151.5 523.9,-151.5"/>
<path fill="none" stroke="#000000" stroke-width="2" d="M382.1,-153.5C386.34,-153.5 519.73,-153.5 523.9,-153.5"/>
<text text-anchor="middle" x="387.1" y="-156.46" font-family="arial" font-size="14.00"> &#160;&#160;&#160;&#160;&#160;&#160;&#160;&#160;&#160;&#160;&#160;&#160;&#160;&#160;&#160;&#160;&#160;&#160;&#160;&#160;&#160;&#160;&#160;&#160;&#160;&#160;&#160;&#160;&#160;&#160;&#160;&#160;&#160;&#160;RD</text>
</g>
<!-- W1_w2r&#45;&#45;X2 -->
<g id="edge6" class="edge">
<title>W1_w2r:e&#45;&#45;X2:p2l</title>
<path fill="none" stroke="#000000" stroke-width="2" d="M526,-149.5C616.68,-151.53 615.32,-245.53 702,-243.5"/>
<path fill="none" stroke="#ff0000" stroke-width="2" d="M526,-151.5C614.68,-151.5 613.32,-245.5 702,-245.5"/>
<path fill="none" stroke="#000000" stroke-width="2" d="M526,-153.5C612.68,-151.47 611.32,-245.47 702,-247.5"/>
<text text-anchor="middle" x="530.03" y="-156.95" font-family="arial" font-size="14.00">X2:2 &#160;&#160;&#160;&#160;&#160;&#160;&#160;&#160;&#160;&#160;&#160;</text>
</g>
<!-- W1_w3r -->
<g id="node10" class="node">
<title>W1_w3r</title>
<ellipse fill="white" stroke="black" cx="525" cy="-175.5" rx="0" ry="0"/>
</g>
<!-- W1_w3l&#45;&#45;W1_w3r -->
<g id="edge7" class="edge">
<title>W1_w3l&#45;&#45;W1_w3r</title>
<path fill="none" stroke="#000000" stroke-width="2" d="M382.1,-173.5C386.34,-173.5 519.73,-173.5 523.9,-173.5"/>
<path fill="none" stroke="#000000" stroke-width="2" d="M382.1,-175.5C386.34,-175.5 519.73,-175.5 523.9,-175.5"/>
<path fill="none" stroke="#000000" stroke-width="2" d="M382.1,-177.5C386.34,-177.5 519.73,-177.5 523.9,-177.5"/>
<text text-anchor="middle" x="387.1" y="-180.46" font-family="arial" font-size="14.00"> &#160;&#160;&#160;&#160;&#160;&#160;&#160;&#160;&#160;&#160;&#160;&#160;&#160;&#160;&#160;&#160;&#160;&#160;&#160;&#160;&#160;&#160;&#160;&#160;&#160;&#160;&#160;&#160;&#160;&#160;&#160;&#160;&#160;&#160;BK</text>
</g>
<!-- W1_w3r&#45;&#45;X3 -->
<g id="edge9" class="edge">
<title>W1_w3r:e&#45;&#45;X3:p1l</title>
<path fill="none" stroke="#000000" stroke-width="2" d="M526,-173.5C603.35,-174.3 621.46,-150.3 702,-149.5"/>
<path fill="none" stroke="#000000" stroke-width="2" d="M526,-175.5C604.95,-175.5 623.05,-151.5 702,-151.5"/>
<path fill="none" stroke="#000000" stroke-width="2" d="M526,-177.5C606.54,-176.7 624.65,-152.7 702,-153.5"/>
<text text-anchor="middle" x="531.26" y="-180.3" font-family="arial" font-size="14.00">X3:1 &#160;&#160;&#160;&#160;&#160;&#160;&#160;&#160;&#160;&#160;&#160;</text>
</g>
<!-- W1_w4r -->
<g id="node12" class="node">
<title>W1_w4r</title>
<ellipse fill="white" stroke="black" cx="525" cy="-103.5" rx="0" ry="0"/>
</g>
<!-- W1_w4l&#45;&#45;W1_w4r -->
<g id="edge10" class="edge">
<title>W1_w4l&#45;&#45;W1_w4r</title>
<path fill="none" stroke="#000000" stroke-width="2" d="M382.1,-101.5C386.34,-101.5 519.73,-101.5 523.9,-101.5"/>
<path fill="none" stroke="#ff0000" stroke-width="2" d="M382.1,-103.5C386.34,-103.5 519.73,-103.5 523.9,-103.5"/>
<path fill="none" stroke="#000000" stroke-width="2" d="M382.1,-105.5C386.34,-105.5 519.73,-105.5 523.9,-105.5"/>
<text text-anchor="middle" x="387.1" y="-108.46" font-family="arial" font-size="14.00"> &#160;&#160;&#160;&#160;&#160;&#160;&#160;&#160;&#160;&#160;&#160;&#160;&#160;&#160;&#160;&#160;&#160;&#160;&#160;&#160;&#160;&#160;&#160;&#160;&#160;&#160;&#160;&#160;&#160;&#160;&#160;&#160;&#160;&#160;RD</text>
</g>
<!-- W1_w4r&#45;&#45;X3 -->
<g id="edge12" class="edge">
<title>W1_w4r:e&#45;&#45;X3:p2l</title>
<path fill="none" stroke="#000000" stroke-width="2" d="M526,-101.5C606.63,-102.33 624.62,-127.33 702,-126.5"/>
<path fill="none" stroke="#ff0000" stroke-width="2" d="M526,-103.5C605.01,-103.5 622.99,-128.5 702,-128.5"/>
<path fill="none" stroke="#000000" stroke-width="2" d="M526,-105.5C603.38,-104.67 621.37,-129.67 702,-130.5"/>
<text text-anchor="middle" x="530.72" y="-108.61" font-family="arial" font-size="14.00">X3:2 &#160;&#160;&#160;&#160;&#160;&#160;&#160;&#160;&#160;&#160;&#160;</text>
</g>
<!-- W1_w5r -->
<g id="node14" class="node">
<title>W1_w5r</title>
<ellipse fill="white" stroke="black" cx="525" cy="-127.5" rx="0" ry="0"/>
</g>
<!-- W1_w5l&#45;&#45;W1_w5r -->
<g id="edge13" class="edge">
<title>W1_w5l&#45;&#45;W1_w5r</title>
<path fill="none" stroke="#000000" stroke-width="2" d="M382.1,-125.5C386.34,-125.5 519.73,-125.5 523.9,-125.5"/>
<path fill="none" stroke="#000000" stroke-width="2" d="M382.1,-127.5C386.34,-127.5 519.73,-127.5 523.9,-127.5"/>
<path fill="none" stroke="#000000" stroke-width="2" d="M382.1,-129.5C386.34,-129.5 519.73,-129.5 523.9,-129.5"/>
<text text-anchor="middle" x="387.1" y="-132.46" font-family="arial" font-size="14.00"> &#160;&#160;&#160;&#160;&#160;&#160;&#160;&#160;&#160;&#160;&#160;&#160;&#160;&#160;&#160;&#160;&#160;&#160;&#160;&#160;&#160;&#160;&#160;&#160;&#160;&#160;&#160;&#160;&#160;&#160;&#160;&#160;&#160;&#160;BK</text>
</g>
<!-- W1_w5r&#45;&#45;X4 -->
<g id="edge15" class="edge">
<title>W1_w5r:e&#45;&#45;X4:p1l</title>
<path fill="none" stroke="#000000" stroke-width="2" d="M526,-125.5C612.47,-127.52 611.53,-34.52 702,-32.5"/>
<path fill="none" stroke="#000000" stroke-width="2" d="M526,-127.5C614.47,-127.5 613.53,-34.5 702,-34.5"/>
<path fill="none" stroke="#000000" stroke-width="2" d="M526,-129.5C616.47,-127.48 615.53,-34.48 702,-36.5"/>
<text text-anchor="middle" x="531.9" y="-131.87" font-family="arial" font-size="14.00">X4:1 &#160;&#160;&#160;&#160;&#160;&#160;&#160;&#160;&#160;&#160;&#160;</text>
</g>
<!-- W1_w6r -->
<g id="node16" class="node">
<title>W1_w6r</title>
<ellipse fill="white" stroke="black" cx="525" cy="-79.5" rx="0" ry="0"/>
</g>
<!-- W1_w6l&#45;&#45;W1_w6r -->
<g id="edge16" class="edge">
<title>W1_w6l&#45;&#45;W1_w6r</title>
<path fill="none" stroke="#000000" stroke-width="2" d="M382.1,-77.5C386.34,-77.5 519.73,-77.5 523.9,-77.5"/>
<path fill="none" stroke="#ff0000" stroke-width="2" d="M382.1,-79.5C386.34,-79.5 519.73,-79.5 523.9,-79.5"/>
<path fill="none" stroke="#000000" stroke-width="2" d="M382.1,-81.5C386.34,-81.5 519.73,-81.5 523.9,-81.5"/>
<text text-anchor="middle" x="387.1" y="-84.46" font-family="arial" font-size="14.00"> &#160;&#160;&#160;&#160;&#160;&#160;&#160;&#160;&#160;&#160;&#160;&#160;&#160;&#160;&#160;&#160;&#160;&#160;&#160;&#160;&#160;&#160;&#160;&#160;&#160;&#160;&#160;&#160;&#160;&#160;&#160;&#160;&#160;&#160;RD</text>
</g>
<!-- W1_w6r&#45;&#45;X4 -->
<g id="edge18" class="edge">
<title>W1_w6r:e&#45;&#45;X4:p2l</title>
<path fill="none" stroke="#000000" stroke-width="2" d="M526,-77.5C607.87,-79.26 616.16,-11.26 702,-9.5"/>
<path fill="none" stroke="#ff0000" stroke-width="2" d="M526,-79.5C609.86,-79.5 618.14,-11.5 702,-11.5"/>
<path fill="none" stroke="#000000" stroke-width="2" d="M526,-81.5C611.84,-79.74 620.13,-11.74 702,-13.5"/>
<text text-anchor="middle" x="531.7" y="-84.02" font-family="arial" font-size="14.00">X4:2 &#160;&#160;&#160;&#160;&#160;&#160;&#160;&#160;&#160;&#160;&#160;</text>
</g>
</g>
</svg>
