<?xml version="1.0" encoding="UTF-8" standalone="no"?>
<!DOCTYPE svg PUBLIC "-//W3C//DTD SVG 1.1//EN"
 "http://www.w3.org/Graphics/SVG/1.1/DTD/svg11.dtd">
<!-- Generated by graphviz version 2.38.0 (20140413.2041)
 -->
<!-- Title: %3 Pages: 1 -->
<svg width="932pt" height="335pt"
 viewBox="0.00 0.00 932.00 335.00" xmlns="http://www.w3.org/2000/svg" xmlns:xlink="http://www.w3.org/1999/xlink">
<g id="graph0" class="graph" transform="scale(1 1) rotate(0) translate(4 331)">
<title>%3</title>
<polygon fill="#fffbf8" stroke="none" points="-4,4 -4,-331 928,-331 928,4 -4,4"/>
<!-- X1 -->
<g id="node1" class="node"><title>X1</title>
<polygon fill="white" stroke="black" points="0,-117.5 0,-209.5 208,-209.5 208,-117.5 0,-117.5"/>
<text text-anchor="middle" x="104" y="-194.3" font-family="arial" font-size="14.00">X1</text>
<polyline fill="none" stroke="black" points="0,-186.5 208,-186.5 "/>
<text text-anchor="middle" x="56.5" y="-171.3" font-family="arial" font-size="14.00">Molex Micro&#45;Fit</text>
<polyline fill="none" stroke="black" points="113,-163.5 113,-186.5 "/>
<text text-anchor="middle" x="136.5" y="-171.3" font-family="arial" font-size="14.00">male</text>
<polyline fill="none" stroke="black" points="160,-163.5 160,-186.5 "/>
<text text-anchor="middle" x="184" y="-171.3" font-family="arial" font-size="14.00">2&#45;pin</text>
<polyline fill="none" stroke="black" points="0,-163.5 208,-163.5 "/>
<text text-anchor="middle" x="57.5" y="-148.3" font-family="arial" font-size="14.00">GND</text>
<polyline fill="none" stroke="black" points="0,-140.5 115,-140.5 "/>
<text text-anchor="middle" x="57.5" y="-125.3" font-family="arial" font-size="14.00">VCC</text>
<polyline fill="none" stroke="black" points="115,-117.5 115,-163.5 "/>
<text text-anchor="middle" x="161.5" y="-148.3" font-family="arial" font-size="14.00">1</text>
<polyline fill="none" stroke="black" points="115,-140.5 208,-140.5 "/>
<text text-anchor="middle" x="161.5" y="-125.3" font-family="arial" font-size="14.00">2</text>
</g>
<!-- W1 -->
<g id="node5" class="node"><title>W1</title>
<polygon fill="white" stroke="black" stroke-dasharray="5,2" points="559,-270.5 352,-270.5 352,-70.5 559,-70.5 559,-270.5"/>
<polygon fill="none" stroke="black" points="352.5,-247.5 352.5,-270.5 559.5,-270.5 559.5,-247.5 352.5,-247.5"/>
<text text-anchor="start" x="444.5" y="-255.3" font-family="arial" font-size="14.00">W1</text>
<polygon fill="none" stroke="black" points="352.5,-224.5 352.5,-247.5 376.5,-247.5 376.5,-224.5 352.5,-224.5"/>
<text text-anchor="start" x="356.5" y="-232.3" font-family="arial" font-size="14.00">6x</text>
<polygon fill="none" stroke="black" points="376.5,-224.5 376.5,-247.5 514.5,-247.5 514.5,-224.5 376.5,-224.5"/>
<text text-anchor="start" x="380.5" y="-232.3" font-family="arial" font-size="14.00">0.25 mm² (24 AWG)</text>
<polygon fill="none" stroke="black" points="514.5,-224.5 514.5,-247.5 559.5,-247.5 559.5,-224.5 514.5,-224.5"/>
<text text-anchor="start" x="518.5" y="-232.3" font-family="arial" font-size="14.00">0.2 m</text>
<text text-anchor="start" x="373" y="-211.3" font-family="arial" font-size="14.00">X1:1</text>
<text text-anchor="start" x="446" y="-211.3" font-family="arial" font-size="14.00">BK</text>
<text text-anchor="start" x="508" y="-211.3" font-family="arial" font-size="14.00">X2:1</text>
<polygon fill="#000000" stroke="none" points="352.5,-203.5 352.5,-205.5 559.5,-205.5 559.5,-203.5 352.5,-203.5"/>
<polygon fill="#000000" stroke="none" points="352.5,-201.5 352.5,-203.5 559.5,-203.5 559.5,-201.5 352.5,-201.5"/>
<polygon fill="#000000" stroke="none" points="352.5,-199.5 352.5,-201.5 559.5,-201.5 559.5,-199.5 352.5,-199.5"/>
<text text-anchor="start" x="373" y="-186.3" font-family="arial" font-size="14.00">X1:2</text>
<text text-anchor="start" x="445" y="-186.3" font-family="arial" font-size="14.00">RD</text>
<text text-anchor="start" x="508" y="-186.3" font-family="arial" font-size="14.00">X2:2</text>
<polygon fill="#000000" stroke="none" points="352.5,-178.5 352.5,-180.5 559.5,-180.5 559.5,-178.5 352.5,-178.5"/>
<polygon fill="#ff0000" stroke="none" points="352.5,-176.5 352.5,-178.5 559.5,-178.5 559.5,-176.5 352.5,-176.5"/>
<polygon fill="#000000" stroke="none" points="352.5,-174.5 352.5,-176.5 559.5,-176.5 559.5,-174.5 352.5,-174.5"/>
<text text-anchor="start" x="373" y="-161.3" font-family="arial" font-size="14.00">X1:1</text>
<text text-anchor="start" x="446" y="-161.3" font-family="arial" font-size="14.00">BK</text>
<text text-anchor="start" x="508" y="-161.3" font-family="arial" font-size="14.00">X3:1</text>
<polygon fill="#000000" stroke="none" points="352.5,-153.5 352.5,-155.5 559.5,-155.5 559.5,-153.5 352.5,-153.5"/>
<polygon fill="#000000" stroke="none" points="352.5,-151.5 352.5,-153.5 559.5,-153.5 559.5,-151.5 352.5,-151.5"/>
<polygon fill="#000000" stroke="none" points="352.5,-149.5 352.5,-151.5 559.5,-151.5 559.5,-149.5 352.5,-149.5"/>
<text text-anchor="start" x="373" y="-136.3" font-family="arial" font-size="14.00">X1:2</text>
<text text-anchor="start" x="445" y="-136.3" font-family="arial" font-size="14.00">RD</text>
<text text-anchor="start" x="508" y="-136.3" font-family="arial" font-size="14.00">X3:2</text>
<polygon fill="#000000" stroke="none" points="352.5,-128.5 352.5,-130.5 559.5,-130.5 559.5,-128.5 352.5,-128.5"/>
<polygon fill="#ff0000" stroke="none" points="352.5,-126.5 352.5,-128.5 559.5,-128.5 559.5,-126.5 352.5,-126.5"/>
<polygon fill="#000000" stroke="none" points="352.5,-124.5 352.5,-126.5 559.5,-126.5 559.5,-124.5 352.5,-124.5"/>
<text text-anchor="start" x="373" y="-111.3" font-family="arial" font-size="14.00">X1:1</text>
<text text-anchor="start" x="446" y="-111.3" font-family="arial" font-size="14.00">BK</text>
<text text-anchor="start" x="508" y="-111.3" font-family="arial" font-size="14.00">X4:1</text>
<polygon fill="#000000" stroke="none" points="352.5,-103.5 352.5,-105.5 559.5,-105.5 559.5,-103.5 352.5,-103.5"/>
<polygon fill="#000000" stroke="none" points="352.5,-101.5 352.5,-103.5 559.5,-103.5 559.5,-101.5 352.5,-101.5"/>
<polygon fill="#000000" stroke="none" points="352.5,-99.5 352.5,-101.5 559.5,-101.5 559.5,-99.5 352.5,-99.5"/>
<text text-anchor="start" x="373" y="-86.3" font-family="arial" font-size="14.00">X1:2</text>
<text text-anchor="start" x="445" y="-86.3" font-family="arial" font-size="14.00">RD</text>
<text text-anchor="start" x="508" y="-86.3" font-family="arial" font-size="14.00">X4:2</text>
<polygon fill="#000000" stroke="none" points="352.5,-78.5 352.5,-80.5 559.5,-80.5 559.5,-78.5 352.5,-78.5"/>
<polygon fill="#ff0000" stroke="none" points="352.5,-76.5 352.5,-78.5 559.5,-78.5 559.5,-76.5 352.5,-76.5"/>
<polygon fill="#000000" stroke="none" points="352.5,-74.5 352.5,-76.5 559.5,-76.5 559.5,-74.5 352.5,-74.5"/>
</g>
<!-- X1&#45;&#45;W1 -->
<g id="edge1" class="edge"><title>X1:p1r:e&#45;&#45;W1:w1:w</title>
<path fill="none" stroke="#000000" stroke-width="2" d="M208,-149.5C277.87,-151.182 286.079,-202.182 352,-200.5"/>
<path fill="none" stroke="#000000" stroke-width="2" d="M208,-151.5C275.895,-151.5 284.105,-202.5 352,-202.5"/>
<path fill="none" stroke="#000000" stroke-width="2" d="M208,-153.5C273.921,-151.818 282.13,-202.818 352,-204.5"/>
</g>
<!-- X1&#45;&#45;W1 -->
<g id="edge3" class="edge"><title>X1:p2r:e&#45;&#45;W1:w2:w</title>
<path fill="none" stroke="#000000" stroke-width="2" d="M208,-126.5C277.572,-128.147 286.365,-177.147 352,-175.5"/>
<path fill="none" stroke="#ff0000" stroke-width="2" d="M208,-128.5C275.604,-128.5 284.396,-177.5 352,-177.5"/>
<path fill="none" stroke="#000000" stroke-width="2" d="M208,-130.5C273.635,-128.853 282.428,-177.853 352,-179.5"/>
</g>
<!-- X1&#45;&#45;W1 -->
<g id="edge5" class="edge"><title>X1:p1r:e&#45;&#45;W1:w3:w</title>
<path fill="none" stroke="#000000" stroke-width="2" d="M208,-149.5C272.126,-149.504 288.123,-150.504 352,-150.5"/>
<path fill="none" stroke="#000000" stroke-width="2" d="M208,-151.5C272.002,-151.5 287.998,-152.5 352,-152.5"/>
<path fill="none" stroke="#000000" stroke-width="2" d="M208,-153.5C271.877,-153.496 287.874,-154.496 352,-154.5"/>
</g>
<!-- X1&#45;&#45;W1 -->
<g id="edge7" class="edge"><title>X1:p2r:e&#45;&#45;W1:w4:w</title>
<path fill="none" stroke="#000000" stroke-width="2" d="M208,-126.5C271.877,-126.504 287.874,-125.504 352,-125.5"/>
<path fill="none" stroke="#ff0000" stroke-width="2" d="M208,-128.5C272.002,-128.5 287.998,-127.5 352,-127.5"/>
<path fill="none" stroke="#000000" stroke-width="2" d="M208,-130.5C272.126,-130.496 288.123,-129.496 352,-129.5"/>
</g>
<!-- X1&#45;&#45;W1 -->
<g id="edge9" class="edge"><title>X1:p1r:e&#45;&#45;W1:w5:w</title>
<path fill="none" stroke="#000000" stroke-width="2" d="M208,-149.5C273.635,-151.147 282.428,-102.147 352,-100.5"/>
<path fill="none" stroke="#000000" stroke-width="2" d="M208,-151.5C275.604,-151.5 284.396,-102.5 352,-102.5"/>
<path fill="none" stroke="#000000" stroke-width="2" d="M208,-153.5C277.572,-151.853 286.365,-102.853 352,-104.5"/>
</g>
<!-- X1&#45;&#45;W1 -->
<g id="edge11" class="edge"><title>X1:p2r:e&#45;&#45;W1:w6:w</title>
<path fill="none" stroke="#000000" stroke-width="2" d="M208,-126.5C273.921,-128.182 282.13,-77.1822 352,-75.5"/>
<path fill="none" stroke="#ff0000" stroke-width="2" d="M208,-128.5C275.895,-128.5 284.105,-77.5 352,-77.5"/>
<path fill="none" stroke="#000000" stroke-width="2" d="M208,-130.5C277.87,-128.818 286.079,-77.8178 352,-79.5"/>
</g>
<!-- X2 -->
<g id="node2" class="node"><title>X2</title>
<polygon fill="white" stroke="black" points="703,-234.5 703,-326.5 924,-326.5 924,-234.5 703,-234.5"/>
<text text-anchor="middle" x="813.5" y="-311.3" font-family="arial" font-size="14.00">X2</text>
<polyline fill="none" stroke="black" points="703,-303.5 924,-303.5 "/>
<text text-anchor="middle" x="759.5" y="-288.3" font-family="arial" font-size="14.00">Molex Micro&#45;Fit</text>
<polyline fill="none" stroke="black" points="816,-280.5 816,-303.5 "/>
<text text-anchor="middle" x="846" y="-288.3" font-family="arial" font-size="14.00">female</text>
<polyline fill="none" stroke="black" points="876,-280.5 876,-303.5 "/>
<text text-anchor="middle" x="900" y="-288.3" font-family="arial" font-size="14.00">2&#45;pin</text>
<polyline fill="none" stroke="black" points="703,-280.5 924,-280.5 "/>
<text text-anchor="middle" x="752.5" y="-265.3" font-family="arial" font-size="14.00">1</text>
<polyline fill="none" stroke="black" points="703,-257.5 802,-257.5 "/>
<text text-anchor="middle" x="752.5" y="-242.3" font-family="arial" font-size="14.00">2</text>
<polyline fill="none" stroke="black" points="802,-234.5 802,-280.5 "/>
<text text-anchor="middle" x="863" y="-265.3" font-family="arial" font-size="14.00">GND</text>
<polyline fill="none" stroke="black" points="802,-257.5 924,-257.5 "/>
<text text-anchor="middle" x="863" y="-242.3" font-family="arial" font-size="14.00">VCC</text>
</g>
<!-- X3 -->
<g id="node3" class="node"><title>X3</title>
<polygon fill="white" stroke="black" points="703,-117.5 703,-209.5 924,-209.5 924,-117.5 703,-117.5"/>
<text text-anchor="middle" x="813.5" y="-194.3" font-family="arial" font-size="14.00">X3</text>
<polyline fill="none" stroke="black" points="703,-186.5 924,-186.5 "/>
<text text-anchor="middle" x="759.5" y="-171.3" font-family="arial" font-size="14.00">Molex Micro&#45;Fit</text>
<polyline fill="none" stroke="black" points="816,-163.5 816,-186.5 "/>
<text text-anchor="middle" x="846" y="-171.3" font-family="arial" font-size="14.00">female</text>
<polyline fill="none" stroke="black" points="876,-163.5 876,-186.5 "/>
<text text-anchor="middle" x="900" y="-171.3" font-family="arial" font-size="14.00">2&#45;pin</text>
<polyline fill="none" stroke="black" points="703,-163.5 924,-163.5 "/>
<text text-anchor="middle" x="752.5" y="-148.3" font-family="arial" font-size="14.00">1</text>
<polyline fill="none" stroke="black" points="703,-140.5 802,-140.5 "/>
<text text-anchor="middle" x="752.5" y="-125.3" font-family="arial" font-size="14.00">2</text>
<polyline fill="none" stroke="black" points="802,-117.5 802,-163.5 "/>
<text text-anchor="middle" x="863" y="-148.3" font-family="arial" font-size="14.00">GND</text>
<polyline fill="none" stroke="black" points="802,-140.5 924,-140.5 "/>
<text text-anchor="middle" x="863" y="-125.3" font-family="arial" font-size="14.00">VCC</text>
</g>
<!-- X4 -->
<g id="node4" class="node"><title>X4</title>
<polygon fill="white" stroke="black" points="703,-0.5 703,-92.5 924,-92.5 924,-0.5 703,-0.5"/>
<text text-anchor="middle" x="813.5" y="-77.3" font-family="arial" font-size="14.00">X4</text>
<polyline fill="none" stroke="black" points="703,-69.5 924,-69.5 "/>
<text text-anchor="middle" x="759.5" y="-54.3" font-family="arial" font-size="14.00">Molex Micro&#45;Fit</text>
<polyline fill="none" stroke="black" points="816,-46.5 816,-69.5 "/>
<text text-anchor="middle" x="846" y="-54.3" font-family="arial" font-size="14.00">female</text>
<polyline fill="none" stroke="black" points="876,-46.5 876,-69.5 "/>
<text text-anchor="middle" x="900" y="-54.3" font-family="arial" font-size="14.00">2&#45;pin</text>
<polyline fill="none" stroke="black" points="703,-46.5 924,-46.5 "/>
<text text-anchor="middle" x="752.5" y="-31.3" font-family="arial" font-size="14.00">1</text>
<polyline fill="none" stroke="black" points="703,-23.5 802,-23.5 "/>
<text text-anchor="middle" x="752.5" y="-8.3" font-family="arial" font-size="14.00">2</text>
<polyline fill="none" stroke="black" points="802,-0.5 802,-46.5 "/>
<text text-anchor="middle" x="863" y="-31.3" font-family="arial" font-size="14.00">GND</text>
<polyline fill="none" stroke="black" points="802,-23.5 924,-23.5 "/>
<text text-anchor="middle" x="863" y="-8.3" font-family="arial" font-size="14.00">VCC</text>
</g>
<!-- W1&#45;&#45;X2 -->
<g id="edge2" class="edge"><title>W1:w1:e&#45;&#45;X2:p1l:w</title>
<path fill="none" stroke="#000000" stroke-width="2" d="M559,-200.5C631.4,-202.403 634.596,-268.403 703,-266.5"/>
<path fill="none" stroke="#000000" stroke-width="2" d="M559,-202.5C629.402,-202.5 632.598,-268.5 703,-268.5"/>
<path fill="none" stroke="#000000" stroke-width="2" d="M559,-204.5C627.404,-202.597 630.6,-268.597 703,-270.5"/>
</g>
<!-- W1&#45;&#45;X2 -->
<g id="edge4" class="edge"><title>W1:w2:e&#45;&#45;X2:p2l:w</title>
<path fill="none" stroke="#000000" stroke-width="2" d="M559,-175.5C631.776,-177.428 634.222,-245.428 703,-243.5"/>
<path fill="none" stroke="#ff0000" stroke-width="2" d="M559,-177.5C629.777,-177.5 632.223,-245.5 703,-245.5"/>
<path fill="none" stroke="#000000" stroke-width="2" d="M559,-179.5C627.778,-177.572 630.224,-245.572 703,-247.5"/>
</g>
<!-- W1&#45;&#45;X3 -->
<g id="edge6" class="edge"><title>W1:w3:e&#45;&#45;X3:p1l:w</title>
<path fill="none" stroke="#000000" stroke-width="2" d="M559,-150.5C622.877,-150.504 638.874,-149.504 703,-149.5"/>
<path fill="none" stroke="#000000" stroke-width="2" d="M559,-152.5C623.002,-152.5 638.998,-151.5 703,-151.5"/>
<path fill="none" stroke="#000000" stroke-width="2" d="M559,-154.5C623.126,-154.496 639.123,-153.496 703,-153.5"/>
</g>
<!-- W1&#45;&#45;X3 -->
<g id="edge8" class="edge"><title>W1:w4:e&#45;&#45;X3:p2l:w</title>
<path fill="none" stroke="#000000" stroke-width="2" d="M559,-125.5C623.126,-125.504 639.123,-126.504 703,-126.5"/>
<path fill="none" stroke="#ff0000" stroke-width="2" d="M559,-127.5C623.002,-127.5 638.998,-128.5 703,-128.5"/>
<path fill="none" stroke="#000000" stroke-width="2" d="M559,-129.5C622.877,-129.496 638.874,-130.496 703,-130.5"/>
</g>
<!-- W1&#45;&#45;X4 -->
<g id="edge10" class="edge"><title>W1:w5:e&#45;&#45;X4:p1l:w</title>
<path fill="none" stroke="#000000" stroke-width="2" d="M559,-100.5C627.778,-102.428 630.224,-34.4281 703,-32.5"/>
<path fill="none" stroke="#000000" stroke-width="2" d="M559,-102.5C629.777,-102.5 632.223,-34.5 703,-34.5"/>
<path fill="none" stroke="#000000" stroke-width="2" d="M559,-104.5C631.776,-102.572 634.222,-34.5719 703,-36.5"/>
</g>
<!-- W1&#45;&#45;X4 -->
<g id="edge12" class="edge"><title>W1:w6:e&#45;&#45;X4:p2l:w</title>
<path fill="none" stroke="#000000" stroke-width="2" d="M559,-75.5C627.404,-77.4033 630.6,-11.4033 703,-9.5"/>
<path fill="none" stroke="#ff0000" stroke-width="2" d="M559,-77.5C629.402,-77.5 632.598,-11.5 703,-11.5"/>
<path fill="none" stroke="#000000" stroke-width="2" d="M559,-79.5C631.4,-77.5967 634.596,-11.5967 703,-13.5"/>
</g>
</g>
</svg>
