<?xml version="1.0" encoding="UTF-8" standalone="no"?>
<!DOCTYPE svg PUBLIC "-//W3C//DTD SVG 1.1//EN"
 "http://www.w3.org/Graphics/SVG/1.1/DTD/svg11.dtd">
<!-- Generated by graphviz version 12.1.2 (0)
 -->
<!-- Pages: 1 -->
<svg width="859pt" height="338pt"
 viewBox="0.00 0.00 858.50 337.50" xmlns="http://www.w3.org/2000/svg" xmlns:xlink="http://www.w3.org/1999/xlink">
<g id="graph0" class="graph" transform="scale(1 1) rotate(0) translate(4 333.5)">
<polygon fill="#ffffff" stroke="none" points="-4,4 -4,-333.5 854.5,-333.5 854.5,4 -4,4"/>
<!-- X1 -->
<g id="node1" class="node">
<title>X1</title>
<polygon fill="#ffffff" stroke="black" points="177.75,-211.5 0,-211.5 0,-118 177.75,-118 177.75,-211.5"/>
<polygon fill="#ffffff" stroke="none" points="0,-118 0,-211.5 177.75,-211.5 177.75,-118 0,-118"/>
<polygon fill="none" stroke="black" points="0,-187.75 0,-211.5 177.75,-211.5 177.75,-187.75 0,-187.75"/>
<text text-anchor="start" x="80.63" y="-194.2" font-family="arial" font-size="14.00">X1</text>
<polygon fill="none" stroke="black" points="0,-164 0,-187.75 101.75,-187.75 101.75,-164 0,-164"/>
<text text-anchor="start" x="4" y="-170.45" font-family="arial" font-size="14.00">Molex Micro&#45;Fit</text>
<polygon fill="none" stroke="black" points="101.75,-164 101.75,-187.75 139.75,-187.75 139.75,-164 101.75,-164"/>
<text text-anchor="start" x="105.75" y="-170.45" font-family="arial" font-size="14.00">male</text>
<polygon fill="none" stroke="black" points="139.75,-164 139.75,-187.75 177.75,-187.75 177.75,-164 139.75,-164"/>
<text text-anchor="start" x="143.75" y="-170.45" font-family="arial" font-size="14.00">2&#45;pin</text>
<polygon fill="none" stroke="black" points="0,-141 0,-164 100.38,-164 100.38,-141 0,-141"/>
<text text-anchor="start" x="34.81" y="-146.7" font-family="arial" font-size="14.00">GND</text>
<polygon fill="none" stroke="black" points="100.38,-141 100.38,-164 177.75,-164 177.75,-141 100.38,-141"/>
<text text-anchor="start" x="135.31" y="-146.7" font-family="arial" font-size="14.00">1</text>
<polygon fill="none" stroke="black" points="0,-118 0,-141 100.38,-141 100.38,-118 0,-118"/>
<text text-anchor="start" x="35.94" y="-123.7" font-family="arial" font-size="14.00">VCC</text>
<polygon fill="none" stroke="black" points="100.38,-118 100.38,-141 177.75,-141 177.75,-118 100.38,-118"/>
<text text-anchor="start" x="135.31" y="-123.7" font-family="arial" font-size="14.00">2</text>
</g>
<!-- W1 -->
<g id="node2" class="node">
<title>W1</title>
<polygon fill="#ffffff" stroke="black" stroke-dasharray="5,2" points="517.5,-291.5 321.75,-291.5 321.75,-56 517.5,-56 517.5,-291.5"/>
<polygon fill="#ffffff" stroke="none" points="321.75,-56 321.75,-291.5 517.5,-291.5 517.5,-56 321.75,-56"/>
<polygon fill="none" stroke="black" points="321.75,-267.75 321.75,-291.5 517.5,-291.5 517.5,-267.75 321.75,-267.75"/>
<text text-anchor="start" x="409.12" y="-274.2" font-family="arial" font-size="14.00">W1</text>
<polygon fill="none" stroke="black" points="321.75,-244 321.75,-267.75 344,-267.75 344,-244 321.75,-244"/>
<text text-anchor="start" x="325.75" y="-250.45" font-family="arial" font-size="14.00">6x</text>
<polygon fill="none" stroke="black" points="344,-244 344,-267.75 475,-267.75 475,-244 344,-244"/>
<text text-anchor="start" x="348" y="-250.45" font-family="arial" font-size="14.00">0.25 mm² (24 AWG)</text>
<polygon fill="none" stroke="black" points="475,-244 475,-267.75 517.5,-267.75 517.5,-244 475,-244"/>
<text text-anchor="start" x="479" y="-250.45" font-family="arial" font-size="14.00">0.2 m</text>
<text text-anchor="start" x="356.1" y="-228.7" font-family="arial" font-size="14.00"> </text>
<text text-anchor="start" x="323.75" y="-209.7" font-family="arial" font-size="14.00"> X1:1:GND</text>
<text text-anchor="start" x="397.06" y="-209.7" font-family="arial" font-size="14.00"> </text>
<text text-anchor="start" x="413.85" y="-209.7" font-family="arial" font-size="14.00">BK</text>
<text text-anchor="start" x="438.43" y="-209.7" font-family="arial" font-size="14.00"> </text>
<text text-anchor="start" x="449.5" y="-209.7" font-family="arial" font-size="14.00">X2:1:GND </text>
<text text-anchor="start" x="323.75" y="-184.7" font-family="arial" font-size="14.00"> X1:2:VCC</text>
<text text-anchor="start" x="397.06" y="-184.7" font-family="arial" font-size="14.00"> </text>
<text text-anchor="start" x="413.1" y="-184.7" font-family="arial" font-size="14.00">RD</text>
<text text-anchor="start" x="438.43" y="-184.7" font-family="arial" font-size="14.00"> </text>
<text text-anchor="start" x="451.75" y="-184.7" font-family="arial" font-size="14.00">X2:2:VCC </text>
<text text-anchor="start" x="323.75" y="-159.7" font-family="arial" font-size="14.00"> X1:1:GND</text>
<text text-anchor="start" x="397.06" y="-159.7" font-family="arial" font-size="14.00"> </text>
<text text-anchor="start" x="413.85" y="-159.7" font-family="arial" font-size="14.00">BK</text>
<text text-anchor="start" x="438.43" y="-159.7" font-family="arial" font-size="14.00"> </text>
<text text-anchor="start" x="449.5" y="-159.7" font-family="arial" font-size="14.00">X3:1:GND </text>
<text text-anchor="start" x="323.75" y="-134.7" font-family="arial" font-size="14.00"> X1:2:VCC</text>
<text text-anchor="start" x="397.06" y="-134.7" font-family="arial" font-size="14.00"> </text>
<text text-anchor="start" x="413.1" y="-134.7" font-family="arial" font-size="14.00">RD</text>
<text text-anchor="start" x="438.43" y="-134.7" font-family="arial" font-size="14.00"> </text>
<text text-anchor="start" x="451.75" y="-134.7" font-family="arial" font-size="14.00">X3:2:VCC </text>
<text text-anchor="start" x="323.75" y="-109.7" font-family="arial" font-size="14.00"> X1:1:GND</text>
<text text-anchor="start" x="397.06" y="-109.7" font-family="arial" font-size="14.00"> </text>
<text text-anchor="start" x="413.85" y="-109.7" font-family="arial" font-size="14.00">BK</text>
<text text-anchor="start" x="438.43" y="-109.7" font-family="arial" font-size="14.00"> </text>
<text text-anchor="start" x="449.5" y="-109.7" font-family="arial" font-size="14.00">X4:1:GND </text>
<text text-anchor="start" x="323.75" y="-84.7" font-family="arial" font-size="14.00"> X1:2:VCC</text>
<text text-anchor="start" x="397.06" y="-84.7" font-family="arial" font-size="14.00"> </text>
<text text-anchor="start" x="413.1" y="-84.7" font-family="arial" font-size="14.00">RD</text>
<text text-anchor="start" x="438.43" y="-84.7" font-family="arial" font-size="14.00"> </text>
<text text-anchor="start" x="451.75" y="-84.7" font-family="arial" font-size="14.00">X4:2:VCC </text>
<text text-anchor="start" x="356.1" y="-59.7" font-family="arial" font-size="14.00"> </text>
</g>
<!-- X1&#45;&#45;W1 -->
<g id="edge1" class="edge">
<title>X1:e&#45;&#45;W1:w</title>
<path fill="none" stroke="#000000" stroke-width="2" d="M177.75,-150.5C247.54,-152.17 255.9,-202.67 321.75,-201"/>
<path fill="none" stroke="#000000" stroke-width="2" d="M177.75,-152.5C245.57,-152.5 253.93,-203 321.75,-203"/>
<path fill="none" stroke="#000000" stroke-width="2" d="M177.75,-154.5C243.6,-152.83 251.96,-203.33 321.75,-205"/>
</g>
<!-- X1&#45;&#45;W1 -->
<g id="edge2" class="edge">
<title>X1:e&#45;&#45;W1:w</title>
<path fill="none" stroke="#000000" stroke-width="2" d="M177.75,-127.5C247.25,-129.14 256.19,-177.64 321.75,-176"/>
<path fill="none" stroke="#ff0000" stroke-width="2" d="M177.75,-129.5C245.28,-129.5 254.22,-178 321.75,-178"/>
<path fill="none" stroke="#000000" stroke-width="2" d="M177.75,-131.5C243.31,-129.86 252.25,-178.36 321.75,-180"/>
</g>
<!-- X1&#45;&#45;W1 -->
<g id="edge3" class="edge">
<title>X1:e&#45;&#45;W1:w</title>
<path fill="none" stroke="#000000" stroke-width="2" d="M177.75,-150.5C241.81,-150.5 257.81,-151 321.75,-151"/>
<path fill="none" stroke="#000000" stroke-width="2" d="M177.75,-152.5C241.75,-152.5 257.75,-153 321.75,-153"/>
<path fill="none" stroke="#000000" stroke-width="2" d="M177.75,-154.5C241.69,-154.5 257.69,-155 321.75,-155"/>
</g>
<!-- X1&#45;&#45;W1 -->
<g id="edge4" class="edge">
<title>X1:e&#45;&#45;W1:w</title>
<path fill="none" stroke="#000000" stroke-width="2" d="M177.75,-127.5C241.57,-127.51 257.57,-126.01 321.75,-126"/>
<path fill="none" stroke="#ff0000" stroke-width="2" d="M177.75,-129.5C241.75,-129.5 257.75,-128 321.75,-128"/>
<path fill="none" stroke="#000000" stroke-width="2" d="M177.75,-131.5C241.94,-131.49 257.94,-129.99 321.75,-130"/>
</g>
<!-- X1&#45;&#45;W1 -->
<g id="edge5" class="edge">
<title>X1:e&#45;&#45;W1:w</title>
<path fill="none" stroke="#000000" stroke-width="2" d="M177.75,-150.5C243.46,-152.16 252.1,-102.66 321.75,-101"/>
<path fill="none" stroke="#000000" stroke-width="2" d="M177.75,-152.5C245.43,-152.5 254.07,-103 321.75,-103"/>
<path fill="none" stroke="#000000" stroke-width="2" d="M177.75,-154.5C247.4,-152.84 256.04,-103.34 321.75,-105"/>
</g>
<!-- X1&#45;&#45;W1 -->
<g id="edge6" class="edge">
<title>X1:e&#45;&#45;W1:w</title>
<path fill="none" stroke="#000000" stroke-width="2" d="M177.75,-127.5C243.75,-129.19 251.81,-77.69 321.75,-76"/>
<path fill="none" stroke="#ff0000" stroke-width="2" d="M177.75,-129.5C245.72,-129.5 253.78,-78 321.75,-78"/>
<path fill="none" stroke="#000000" stroke-width="2" d="M177.75,-131.5C247.7,-129.81 255.76,-78.31 321.75,-80"/>
</g>
<!-- W1&#45;&#45;W1 -->
<g id="edge7" class="edge">
<title>W1:e&#45;&#45;W1:w</title>
<path fill="none" stroke="#000000" stroke-width="2" d="M517.5,-205C452.25,-205 387,-205 321.75,-205"/>
<path fill="none" stroke="#000000" stroke-width="2" d="M517.5,-203C452.25,-203 387,-203 321.75,-203"/>
<path fill="none" stroke="#000000" stroke-width="2" d="M517.5,-201C452.25,-201 387,-201 321.75,-201"/>
</g>
<!-- W1&#45;&#45;W1 -->
<g id="edge8" class="edge">
<title>W1:e&#45;&#45;W1:w</title>
<path fill="none" stroke="#000000" stroke-width="2" d="M517.5,-180C452.25,-180 387,-180 321.75,-180"/>
<path fill="none" stroke="#ff0000" stroke-width="2" d="M517.5,-178C452.25,-178 387,-178 321.75,-178"/>
<path fill="none" stroke="#000000" stroke-width="2" d="M517.5,-176C452.25,-176 387,-176 321.75,-176"/>
</g>
<!-- W1&#45;&#45;W1 -->
<g id="edge9" class="edge">
<title>W1:e&#45;&#45;W1:w</title>
<path fill="none" stroke="#000000" stroke-width="2" d="M517.5,-155C452.25,-155 387,-155 321.75,-155"/>
<path fill="none" stroke="#000000" stroke-width="2" d="M517.5,-153C452.25,-153 387,-153 321.75,-153"/>
<path fill="none" stroke="#000000" stroke-width="2" d="M517.5,-151C452.25,-151 387,-151 321.75,-151"/>
</g>
<!-- W1&#45;&#45;W1 -->
<g id="edge10" class="edge">
<title>W1:e&#45;&#45;W1:w</title>
<path fill="none" stroke="#000000" stroke-width="2" d="M517.5,-130C452.25,-130 387,-130 321.75,-130"/>
<path fill="none" stroke="#ff0000" stroke-width="2" d="M517.5,-128C452.25,-128 387,-128 321.75,-128"/>
<path fill="none" stroke="#000000" stroke-width="2" d="M517.5,-126C452.25,-126 387,-126 321.75,-126"/>
</g>
<!-- W1&#45;&#45;W1 -->
<g id="edge11" class="edge">
<title>W1:e&#45;&#45;W1:w</title>
<path fill="none" stroke="#000000" stroke-width="2" d="M517.5,-105C452.25,-105 387,-105 321.75,-105"/>
<path fill="none" stroke="#000000" stroke-width="2" d="M517.5,-103C452.25,-103 387,-103 321.75,-103"/>
<path fill="none" stroke="#000000" stroke-width="2" d="M517.5,-101C452.25,-101 387,-101 321.75,-101"/>
</g>
<!-- W1&#45;&#45;W1 -->
<g id="edge12" class="edge">
<title>W1:e&#45;&#45;W1:w</title>
<path fill="none" stroke="#000000" stroke-width="2" d="M517.5,-80C452.25,-80 387,-80 321.75,-80"/>
<path fill="none" stroke="#ff0000" stroke-width="2" d="M517.5,-78C452.25,-78 387,-78 321.75,-78"/>
<path fill="none" stroke="#000000" stroke-width="2" d="M517.5,-76C452.25,-76 387,-76 321.75,-76"/>
</g>
<!-- X2 -->
<g id="node3" class="node">
<title>X2</title>
<polygon fill="#ffffff" stroke="black" points="850.5,-329.5 661.5,-329.5 661.5,-236 850.5,-236 850.5,-329.5"/>
<polygon fill="#ffffff" stroke="none" points="661.5,-236 661.5,-329.5 850.5,-329.5 850.5,-236 661.5,-236"/>
<polygon fill="none" stroke="black" points="661.5,-305.75 661.5,-329.5 850.5,-329.5 850.5,-305.75 661.5,-305.75"/>
<text text-anchor="start" x="747.75" y="-312.2" font-family="arial" font-size="14.00">X2</text>
<polygon fill="none" stroke="black" points="661.5,-282 661.5,-305.75 763.25,-305.75 763.25,-282 661.5,-282"/>
<text text-anchor="start" x="665.5" y="-288.45" font-family="arial" font-size="14.00">Molex Micro&#45;Fit</text>
<polygon fill="none" stroke="black" points="763.25,-282 763.25,-305.75 812.5,-305.75 812.5,-282 763.25,-282"/>
<text text-anchor="start" x="767.25" y="-288.45" font-family="arial" font-size="14.00">female</text>
<polygon fill="none" stroke="black" points="812.5,-282 812.5,-305.75 850.5,-305.75 850.5,-282 812.5,-282"/>
<text text-anchor="start" x="816.5" y="-288.45" font-family="arial" font-size="14.00">2&#45;pin</text>
<polygon fill="none" stroke="black" points="661.5,-259 661.5,-282 744.5,-282 744.5,-259 661.5,-259"/>
<text text-anchor="start" x="699.25" y="-264.7" font-family="arial" font-size="14.00">1</text>
<polygon fill="none" stroke="black" points="744.5,-259 744.5,-282 850.5,-282 850.5,-259 744.5,-259"/>
<text text-anchor="start" x="782.13" y="-264.7" font-family="arial" font-size="14.00">GND</text>
<polygon fill="none" stroke="black" points="661.5,-236 661.5,-259 744.5,-259 744.5,-236 661.5,-236"/>
<text text-anchor="start" x="699.25" y="-241.7" font-family="arial" font-size="14.00">2</text>
<polygon fill="none" stroke="black" points="744.5,-236 744.5,-259 850.5,-259 850.5,-236 744.5,-236"/>
<text text-anchor="start" x="783.25" y="-241.7" font-family="arial" font-size="14.00">VCC</text>
</g>
<!-- W1&#45;&#45;X2 -->
<g id="edge13" class="edge">
<title>W1:e&#45;&#45;X2:w</title>
<path fill="none" stroke="#000000" stroke-width="2" d="M517.5,-201C590.18,-202.92 592.82,-270.42 661.5,-268.5"/>
<path fill="none" stroke="#000000" stroke-width="2" d="M517.5,-203C588.18,-203 590.82,-270.5 661.5,-270.5"/>
<path fill="none" stroke="#000000" stroke-width="2" d="M517.5,-205C586.18,-203.08 588.82,-270.58 661.5,-272.5"/>
</g>
<!-- W1&#45;&#45;X2 -->
<g id="edge14" class="edge">
<title>W1:e&#45;&#45;X2:w</title>
<path fill="none" stroke="#000000" stroke-width="2" d="M517.5,-176C590.56,-177.95 592.44,-247.45 661.5,-245.5"/>
<path fill="none" stroke="#ff0000" stroke-width="2" d="M517.5,-178C588.56,-178 590.44,-247.5 661.5,-247.5"/>
<path fill="none" stroke="#000000" stroke-width="2" d="M517.5,-180C586.56,-178.05 588.44,-247.55 661.5,-249.5"/>
</g>
<!-- X3 -->
<g id="node4" class="node">
<title>X3</title>
<polygon fill="#ffffff" stroke="black" points="850.5,-211.5 661.5,-211.5 661.5,-118 850.5,-118 850.5,-211.5"/>
<polygon fill="#ffffff" stroke="none" points="661.5,-118 661.5,-211.5 850.5,-211.5 850.5,-118 661.5,-118"/>
<polygon fill="none" stroke="black" points="661.5,-187.75 661.5,-211.5 850.5,-211.5 850.5,-187.75 661.5,-187.75"/>
<text text-anchor="start" x="747.75" y="-194.2" font-family="arial" font-size="14.00">X3</text>
<polygon fill="none" stroke="black" points="661.5,-164 661.5,-187.75 763.25,-187.75 763.25,-164 661.5,-164"/>
<text text-anchor="start" x="665.5" y="-170.45" font-family="arial" font-size="14.00">Molex Micro&#45;Fit</text>
<polygon fill="none" stroke="black" points="763.25,-164 763.25,-187.75 812.5,-187.75 812.5,-164 763.25,-164"/>
<text text-anchor="start" x="767.25" y="-170.45" font-family="arial" font-size="14.00">female</text>
<polygon fill="none" stroke="black" points="812.5,-164 812.5,-187.75 850.5,-187.75 850.5,-164 812.5,-164"/>
<text text-anchor="start" x="816.5" y="-170.45" font-family="arial" font-size="14.00">2&#45;pin</text>
<polygon fill="none" stroke="black" points="661.5,-141 661.5,-164 744.5,-164 744.5,-141 661.5,-141"/>
<text text-anchor="start" x="699.25" y="-146.7" font-family="arial" font-size="14.00">1</text>
<polygon fill="none" stroke="black" points="744.5,-141 744.5,-164 850.5,-164 850.5,-141 744.5,-141"/>
<text text-anchor="start" x="782.13" y="-146.7" font-family="arial" font-size="14.00">GND</text>
<polygon fill="none" stroke="black" points="661.5,-118 661.5,-141 744.5,-141 744.5,-118 661.5,-118"/>
<text text-anchor="start" x="699.25" y="-123.7" font-family="arial" font-size="14.00">2</text>
<polygon fill="none" stroke="black" points="744.5,-118 744.5,-141 850.5,-141 850.5,-118 744.5,-118"/>
<text text-anchor="start" x="783.25" y="-123.7" font-family="arial" font-size="14.00">VCC</text>
</g>
<!-- W1&#45;&#45;X3 -->
<g id="edge15" class="edge">
<title>W1:e&#45;&#45;X3:w</title>
<path fill="none" stroke="#000000" stroke-width="2" d="M517.5,-151C581.44,-151 597.44,-150.5 661.5,-150.5"/>
<path fill="none" stroke="#000000" stroke-width="2" d="M517.5,-153C581.5,-153 597.5,-152.5 661.5,-152.5"/>
<path fill="none" stroke="#000000" stroke-width="2" d="M517.5,-155C581.56,-155 597.56,-154.5 661.5,-154.5"/>
</g>
<!-- W1&#45;&#45;X3 -->
<g id="edge16" class="edge">
<title>W1:e&#45;&#45;X3:w</title>
<path fill="none" stroke="#000000" stroke-width="2" d="M517.5,-126C581.69,-126.01 597.69,-127.51 661.5,-127.5"/>
<path fill="none" stroke="#ff0000" stroke-width="2" d="M517.5,-128C581.5,-128 597.5,-129.5 661.5,-129.5"/>
<path fill="none" stroke="#000000" stroke-width="2" d="M517.5,-130C581.32,-129.99 597.32,-131.49 661.5,-131.5"/>
</g>
<!-- X4 -->
<g id="node5" class="node">
<title>X4</title>
<polygon fill="#ffffff" stroke="black" points="850.5,-93.5 661.5,-93.5 661.5,0 850.5,0 850.5,-93.5"/>
<polygon fill="#ffffff" stroke="none" points="661.5,0 661.5,-93.5 850.5,-93.5 850.5,0 661.5,0"/>
<polygon fill="none" stroke="black" points="661.5,-69.75 661.5,-93.5 850.5,-93.5 850.5,-69.75 661.5,-69.75"/>
<text text-anchor="start" x="747.75" y="-76.2" font-family="arial" font-size="14.00">X4</text>
<polygon fill="none" stroke="black" points="661.5,-46 661.5,-69.75 763.25,-69.75 763.25,-46 661.5,-46"/>
<text text-anchor="start" x="665.5" y="-52.45" font-family="arial" font-size="14.00">Molex Micro&#45;Fit</text>
<polygon fill="none" stroke="black" points="763.25,-46 763.25,-69.75 812.5,-69.75 812.5,-46 763.25,-46"/>
<text text-anchor="start" x="767.25" y="-52.45" font-family="arial" font-size="14.00">female</text>
<polygon fill="none" stroke="black" points="812.5,-46 812.5,-69.75 850.5,-69.75 850.5,-46 812.5,-46"/>
<text text-anchor="start" x="816.5" y="-52.45" font-family="arial" font-size="14.00">2&#45;pin</text>
<polygon fill="none" stroke="black" points="661.5,-23 661.5,-46 744.5,-46 744.5,-23 661.5,-23"/>
<text text-anchor="start" x="699.25" y="-28.7" font-family="arial" font-size="14.00">1</text>
<polygon fill="none" stroke="black" points="744.5,-23 744.5,-46 850.5,-46 850.5,-23 744.5,-23"/>
<text text-anchor="start" x="782.13" y="-28.7" font-family="arial" font-size="14.00">GND</text>
<polygon fill="none" stroke="black" points="661.5,0 661.5,-23 744.5,-23 744.5,0 661.5,0"/>
<text text-anchor="start" x="699.25" y="-5.7" font-family="arial" font-size="14.00">2</text>
<polygon fill="none" stroke="black" points="744.5,0 744.5,-23 850.5,-23 850.5,0 744.5,0"/>
<text text-anchor="start" x="783.25" y="-5.7" font-family="arial" font-size="14.00">VCC</text>
</g>
<!-- W1&#45;&#45;X4 -->
<g id="edge17" class="edge">
<title>W1:e&#45;&#45;X4:w</title>
<path fill="none" stroke="#000000" stroke-width="2" d="M517.5,-101C586.37,-102.93 588.63,-34.43 661.5,-32.5"/>
<path fill="none" stroke="#000000" stroke-width="2" d="M517.5,-103C588.37,-103 590.63,-34.5 661.5,-34.5"/>
<path fill="none" stroke="#000000" stroke-width="2" d="M517.5,-105C590.37,-103.07 592.63,-34.57 661.5,-36.5"/>
</g>
<!-- W1&#45;&#45;X4 -->
<g id="edge18" class="edge">
<title>W1:e&#45;&#45;X4:w</title>
<path fill="none" stroke="#000000" stroke-width="2" d="M517.5,-76C585.99,-77.91 589.01,-11.41 661.5,-9.5"/>
<path fill="none" stroke="#ff0000" stroke-width="2" d="M517.5,-78C587.99,-78 591.01,-11.5 661.5,-11.5"/>
<path fill="none" stroke="#000000" stroke-width="2" d="M517.5,-80C589.99,-78.09 593.01,-11.59 661.5,-13.5"/>
</g>
</g>
</svg>
