<?xml version="1.0" encoding="UTF-8" standalone="no"?>
<!DOCTYPE svg PUBLIC "-//W3C//DTD SVG 1.1//EN"
 "http://www.w3.org/Graphics/SVG/1.1/DTD/svg11.dtd">
<!-- Generated by graphviz version 11.0.0 (20240428.1522)
 -->
<!-- Pages: 1 -->
<svg width="877pt" height="347pt"
 viewBox="0.00 0.00 877.25 347.00" xmlns="http://www.w3.org/2000/svg" xmlns:xlink="http://www.w3.org/1999/xlink">
<g id="graph0" class="graph" transform="scale(1 1) rotate(0) translate(4 343)">
<polygon fill="#ffffff" stroke="none" points="-4,4 -4,-343 873.25,-343 873.25,4 -4,4"/>
<!-- X1 -->
<g id="node1" class="node">
<title>X1</title>
<polygon fill="#ffffff" stroke="black" points="182.25,-218 0,-218 0,-121 182.25,-121 182.25,-218"/>
<polygon fill="#ffffff" stroke="none" points="0,-121 0,-218 182.25,-218 182.25,-121 0,-121"/>
<polygon fill="none" stroke="black" points="0,-193.5 0,-218 182.25,-218 182.25,-193.5 0,-193.5"/>
<text text-anchor="start" x="82.12" y="-200.7" font-family="arial" font-size="14.00">X1</text>
<polygon fill="none" stroke="black" points="0,-169 0,-193.5 104,-193.5 104,-169 0,-169"/>
<text text-anchor="start" x="4" y="-176.2" font-family="arial" font-size="14.00">Molex Micro&#45;Fit</text>
<polygon fill="none" stroke="black" points="104,-169 104,-193.5 142.75,-193.5 142.75,-169 104,-169"/>
<text text-anchor="start" x="108" y="-176.2" font-family="arial" font-size="14.00">male</text>
<polygon fill="none" stroke="black" points="142.75,-169 142.75,-193.5 182.25,-193.5 182.25,-169 142.75,-169"/>
<text text-anchor="start" x="146.75" y="-176.2" font-family="arial" font-size="14.00">2&#45;pin</text>
<polygon fill="none" stroke="black" points="0,-145 0,-169 102.62,-169 102.62,-145 0,-145"/>
<text text-anchor="start" x="35.56" y="-151.7" font-family="arial" font-size="14.00">GND</text>
<polygon fill="none" stroke="black" points="102.62,-145 102.62,-169 182.25,-169 182.25,-145 102.62,-145"/>
<text text-anchor="start" x="138.31" y="-151.7" font-family="arial" font-size="14.00">1</text>
<polygon fill="none" stroke="black" points="0,-121 0,-145 102.62,-145 102.62,-121 0,-121"/>
<text text-anchor="start" x="35.94" y="-127.7" font-family="arial" font-size="14.00">VCC</text>
<polygon fill="none" stroke="black" points="102.62,-121 102.62,-145 182.25,-145 182.25,-121 102.62,-121"/>
<text text-anchor="start" x="138.31" y="-127.7" font-family="arial" font-size="14.00">2</text>
</g>
<!-- W1 -->
<g id="node2" class="node">
<title>W1</title>
<polygon fill="#ffffff" stroke="black" stroke-dasharray="5,2" points="530.25,-302 326.25,-302 326.25,-57 530.25,-57 530.25,-302"/>
<polygon fill="#ffffff" stroke="none" points="326.25,-57 326.25,-302 530.25,-302 530.25,-57 326.25,-57"/>
<polygon fill="none" stroke="black" points="326.25,-277.5 326.25,-302 530.25,-302 530.25,-277.5 326.25,-277.5"/>
<text text-anchor="start" x="417" y="-284.7" font-family="arial" font-size="14.00">W1</text>
<polygon fill="none" stroke="black" points="326.25,-253 326.25,-277.5 349.25,-277.5 349.25,-253 326.25,-253"/>
<text text-anchor="start" x="330.25" y="-260.2" font-family="arial" font-size="14.00">6x</text>
<polygon fill="none" stroke="black" points="349.25,-253 349.25,-277.5 486.25,-277.5 486.25,-253 349.25,-253"/>
<text text-anchor="start" x="353.25" y="-260.2" font-family="arial" font-size="14.00">0.25 mm² (24 AWG)</text>
<polygon fill="none" stroke="black" points="486.25,-253 486.25,-277.5 530.25,-277.5 530.25,-253 486.25,-253"/>
<text text-anchor="start" x="490.25" y="-260.2" font-family="arial" font-size="14.00">0.2 m</text>
<text text-anchor="start" x="362.12" y="-237.7" font-family="arial" font-size="14.00"> </text>
<text text-anchor="start" x="328.25" y="-217.7" font-family="arial" font-size="14.00"> X1:1:GND</text>
<text text-anchor="start" x="404.62" y="-217.7" font-family="arial" font-size="14.00"> </text>
<text text-anchor="start" x="421.75" y="-217.7" font-family="arial" font-size="14.00">BK</text>
<text text-anchor="start" x="448.12" y="-217.7" font-family="arial" font-size="14.00"> </text>
<text text-anchor="start" x="459.25" y="-217.7" font-family="arial" font-size="14.00">X2:1:GND </text>
<polygon fill="#ffffff" stroke="none" points="326.25,-211 326.25,-213 530.25,-213 530.25,-211 326.25,-211"/>
<polygon fill="#ffffff" stroke="none" points="326.25,-209 326.25,-211 530.25,-211 530.25,-209 326.25,-209"/>
<polygon fill="#ffffff" stroke="none" points="326.25,-207 326.25,-209 530.25,-209 530.25,-207 326.25,-207"/>
<text text-anchor="start" x="328.25" y="-191.7" font-family="arial" font-size="14.00"> X1:2:VCC</text>
<text text-anchor="start" x="404.62" y="-191.7" font-family="arial" font-size="14.00"> </text>
<text text-anchor="start" x="421" y="-191.7" font-family="arial" font-size="14.00">RD</text>
<text text-anchor="start" x="448.12" y="-191.7" font-family="arial" font-size="14.00"> </text>
<text text-anchor="start" x="460" y="-191.7" font-family="arial" font-size="14.00">X2:2:VCC </text>
<polygon fill="#ffffff" stroke="none" points="326.25,-185 326.25,-187 530.25,-187 530.25,-185 326.25,-185"/>
<polygon fill="#ffffff" stroke="none" points="326.25,-183 326.25,-185 530.25,-185 530.25,-183 326.25,-183"/>
<polygon fill="#ffffff" stroke="none" points="326.25,-181 326.25,-183 530.25,-183 530.25,-181 326.25,-181"/>
<text text-anchor="start" x="328.25" y="-165.7" font-family="arial" font-size="14.00"> X1:1:GND</text>
<text text-anchor="start" x="404.62" y="-165.7" font-family="arial" font-size="14.00"> </text>
<text text-anchor="start" x="421.75" y="-165.7" font-family="arial" font-size="14.00">BK</text>
<text text-anchor="start" x="448.12" y="-165.7" font-family="arial" font-size="14.00"> </text>
<text text-anchor="start" x="459.25" y="-165.7" font-family="arial" font-size="14.00">X3:1:GND </text>
<polygon fill="#ffffff" stroke="none" points="326.25,-159 326.25,-161 530.25,-161 530.25,-159 326.25,-159"/>
<polygon fill="#ffffff" stroke="none" points="326.25,-157 326.25,-159 530.25,-159 530.25,-157 326.25,-157"/>
<polygon fill="#ffffff" stroke="none" points="326.25,-155 326.25,-157 530.25,-157 530.25,-155 326.25,-155"/>
<text text-anchor="start" x="328.25" y="-139.7" font-family="arial" font-size="14.00"> X1:2:VCC</text>
<text text-anchor="start" x="404.62" y="-139.7" font-family="arial" font-size="14.00"> </text>
<text text-anchor="start" x="421" y="-139.7" font-family="arial" font-size="14.00">RD</text>
<text text-anchor="start" x="448.12" y="-139.7" font-family="arial" font-size="14.00"> </text>
<text text-anchor="start" x="460" y="-139.7" font-family="arial" font-size="14.00">X3:2:VCC </text>
<polygon fill="#ffffff" stroke="none" points="326.25,-133 326.25,-135 530.25,-135 530.25,-133 326.25,-133"/>
<polygon fill="#ffffff" stroke="none" points="326.25,-131 326.25,-133 530.25,-133 530.25,-131 326.25,-131"/>
<polygon fill="#ffffff" stroke="none" points="326.25,-129 326.25,-131 530.25,-131 530.25,-129 326.25,-129"/>
<text text-anchor="start" x="328.25" y="-113.7" font-family="arial" font-size="14.00"> X1:1:GND</text>
<text text-anchor="start" x="404.62" y="-113.7" font-family="arial" font-size="14.00"> </text>
<text text-anchor="start" x="421.75" y="-113.7" font-family="arial" font-size="14.00">BK</text>
<text text-anchor="start" x="448.12" y="-113.7" font-family="arial" font-size="14.00"> </text>
<text text-anchor="start" x="459.25" y="-113.7" font-family="arial" font-size="14.00">X4:1:GND </text>
<polygon fill="#ffffff" stroke="none" points="326.25,-107 326.25,-109 530.25,-109 530.25,-107 326.25,-107"/>
<polygon fill="#ffffff" stroke="none" points="326.25,-105 326.25,-107 530.25,-107 530.25,-105 326.25,-105"/>
<polygon fill="#ffffff" stroke="none" points="326.25,-103 326.25,-105 530.25,-105 530.25,-103 326.25,-103"/>
<text text-anchor="start" x="328.25" y="-87.7" font-family="arial" font-size="14.00"> X1:2:VCC</text>
<text text-anchor="start" x="404.62" y="-87.7" font-family="arial" font-size="14.00"> </text>
<text text-anchor="start" x="421" y="-87.7" font-family="arial" font-size="14.00">RD</text>
<text text-anchor="start" x="448.12" y="-87.7" font-family="arial" font-size="14.00"> </text>
<text text-anchor="start" x="460" y="-87.7" font-family="arial" font-size="14.00">X4:2:VCC </text>
<polygon fill="#ffffff" stroke="none" points="326.25,-81 326.25,-83 530.25,-83 530.25,-81 326.25,-81"/>
<polygon fill="#ffffff" stroke="none" points="326.25,-79 326.25,-81 530.25,-81 530.25,-79 326.25,-79"/>
<polygon fill="#ffffff" stroke="none" points="326.25,-77 326.25,-79 530.25,-79 530.25,-77 326.25,-77"/>
<text text-anchor="start" x="362.12" y="-61.7" font-family="arial" font-size="14.00"> </text>
</g>
<!-- X1&#45;&#45;W1 -->
<g id="edge1" class="edge">
<title>X1:e&#45;&#45;W1:w</title>
<path fill="none" stroke="#000000" stroke-width="2" d="M182.25,-155C252.43,-156.72 260.03,-209.72 326.25,-208"/>
<path fill="none" stroke="#000000" stroke-width="2" d="M182.25,-157C250.45,-157 258.05,-210 326.25,-210"/>
<path fill="none" stroke="#000000" stroke-width="2" d="M182.25,-159C248.47,-157.28 256.07,-210.28 326.25,-212"/>
</g>
<!-- X1&#45;&#45;W1 -->
<g id="edge2" class="edge">
<title>X1:e&#45;&#45;W1:w</title>
<path fill="none" stroke="#000000" stroke-width="2" d="M182.25,-131C252.12,-132.68 260.32,-183.68 326.25,-182"/>
<path fill="none" stroke="#ff0000" stroke-width="2" d="M182.25,-133C250.15,-133 258.35,-184 326.25,-184"/>
<path fill="none" stroke="#000000" stroke-width="2" d="M182.25,-135C248.18,-133.32 256.38,-184.32 326.25,-186"/>
</g>
<!-- X1&#45;&#45;W1 -->
<g id="edge3" class="edge">
<title>X1:e&#45;&#45;W1:w</title>
<path fill="none" stroke="#000000" stroke-width="2" d="M182.25,-155C246.37,-155 262.37,-156 326.25,-156"/>
<path fill="none" stroke="#000000" stroke-width="2" d="M182.25,-157C246.25,-157 262.25,-158 326.25,-158"/>
<path fill="none" stroke="#000000" stroke-width="2" d="M182.25,-159C246.13,-159 262.13,-160 326.25,-160"/>
</g>
<!-- X1&#45;&#45;W1 -->
<g id="edge4" class="edge">
<title>X1:e&#45;&#45;W1:w</title>
<path fill="none" stroke="#000000" stroke-width="2" d="M182.25,-131C246.13,-131 262.13,-130 326.25,-130"/>
<path fill="none" stroke="#ff0000" stroke-width="2" d="M182.25,-133C246.25,-133 262.25,-132 326.25,-132"/>
<path fill="none" stroke="#000000" stroke-width="2" d="M182.25,-135C246.37,-135 262.37,-134 326.25,-134"/>
</g>
<!-- X1&#45;&#45;W1 -->
<g id="edge5" class="edge">
<title>X1:e&#45;&#45;W1:w</title>
<path fill="none" stroke="#000000" stroke-width="2" d="M182.25,-155C248.18,-156.68 256.38,-105.68 326.25,-104"/>
<path fill="none" stroke="#000000" stroke-width="2" d="M182.25,-157C250.15,-157 258.35,-106 326.25,-106"/>
<path fill="none" stroke="#000000" stroke-width="2" d="M182.25,-159C252.12,-157.32 260.32,-106.32 326.25,-108"/>
</g>
<!-- X1&#45;&#45;W1 -->
<g id="edge6" class="edge">
<title>X1:e&#45;&#45;W1:w</title>
<path fill="none" stroke="#000000" stroke-width="2" d="M182.25,-131C248.47,-132.72 256.07,-79.72 326.25,-78"/>
<path fill="none" stroke="#ff0000" stroke-width="2" d="M182.25,-133C250.45,-133 258.05,-80 326.25,-80"/>
<path fill="none" stroke="#000000" stroke-width="2" d="M182.25,-135C252.43,-133.28 260.03,-80.28 326.25,-82"/>
</g>
<!-- W1&#45;&#45;W1 -->
<g id="edge7" class="edge">
<title>W1:e&#45;&#45;W1:w</title>
<path fill="none" stroke="#000000" stroke-width="2" d="M530.25,-212C462.25,-212 394.25,-212 326.25,-212"/>
<path fill="none" stroke="#000000" stroke-width="2" d="M530.25,-210C462.25,-210 394.25,-210 326.25,-210"/>
<path fill="none" stroke="#000000" stroke-width="2" d="M530.25,-208C462.25,-208 394.25,-208 326.25,-208"/>
</g>
<!-- W1&#45;&#45;W1 -->
<g id="edge8" class="edge">
<title>W1:e&#45;&#45;W1:w</title>
<path fill="none" stroke="#000000" stroke-width="2" d="M530.25,-186C462.25,-186 394.25,-186 326.25,-186"/>
<path fill="none" stroke="#ff0000" stroke-width="2" d="M530.25,-184C462.25,-184 394.25,-184 326.25,-184"/>
<path fill="none" stroke="#000000" stroke-width="2" d="M530.25,-182C462.25,-182 394.25,-182 326.25,-182"/>
</g>
<!-- W1&#45;&#45;W1 -->
<g id="edge9" class="edge">
<title>W1:e&#45;&#45;W1:w</title>
<path fill="none" stroke="#000000" stroke-width="2" d="M530.25,-160C462.25,-160 394.25,-160 326.25,-160"/>
<path fill="none" stroke="#000000" stroke-width="2" d="M530.25,-158C462.25,-158 394.25,-158 326.25,-158"/>
<path fill="none" stroke="#000000" stroke-width="2" d="M530.25,-156C462.25,-156 394.25,-156 326.25,-156"/>
</g>
<!-- W1&#45;&#45;W1 -->
<g id="edge10" class="edge">
<title>W1:e&#45;&#45;W1:w</title>
<path fill="none" stroke="#000000" stroke-width="2" d="M530.25,-134C462.25,-134 394.25,-134 326.25,-134"/>
<path fill="none" stroke="#ff0000" stroke-width="2" d="M530.25,-132C462.25,-132 394.25,-132 326.25,-132"/>
<path fill="none" stroke="#000000" stroke-width="2" d="M530.25,-130C462.25,-130 394.25,-130 326.25,-130"/>
</g>
<!-- W1&#45;&#45;W1 -->
<g id="edge11" class="edge">
<title>W1:e&#45;&#45;W1:w</title>
<path fill="none" stroke="#000000" stroke-width="2" d="M530.25,-108C462.25,-108 394.25,-108 326.25,-108"/>
<path fill="none" stroke="#000000" stroke-width="2" d="M530.25,-106C462.25,-106 394.25,-106 326.25,-106"/>
<path fill="none" stroke="#000000" stroke-width="2" d="M530.25,-104C462.25,-104 394.25,-104 326.25,-104"/>
</g>
<!-- W1&#45;&#45;W1 -->
<g id="edge12" class="edge">
<title>W1:e&#45;&#45;W1:w</title>
<path fill="none" stroke="#000000" stroke-width="2" d="M530.25,-82C462.25,-82 394.25,-82 326.25,-82"/>
<path fill="none" stroke="#ff0000" stroke-width="2" d="M530.25,-80C462.25,-80 394.25,-80 326.25,-80"/>
<path fill="none" stroke="#000000" stroke-width="2" d="M530.25,-78C462.25,-78 394.25,-78 326.25,-78"/>
</g>
<!-- X2 -->
<g id="node3" class="node">
<title>X2</title>
<polygon fill="#ffffff" stroke="black" points="869.25,-339 674.25,-339 674.25,-242 869.25,-242 869.25,-339"/>
<polygon fill="#ffffff" stroke="none" points="674.25,-242 674.25,-339 869.25,-339 869.25,-242 674.25,-242"/>
<polygon fill="none" stroke="black" points="674.25,-314.5 674.25,-339 869.25,-339 869.25,-314.5 674.25,-314.5"/>
<text text-anchor="start" x="762.75" y="-321.7" font-family="arial" font-size="14.00">X2</text>
<polygon fill="none" stroke="black" points="674.25,-290 674.25,-314.5 778.25,-314.5 778.25,-290 674.25,-290"/>
<text text-anchor="start" x="678.25" y="-297.2" font-family="arial" font-size="14.00">Molex Micro&#45;Fit</text>
<polygon fill="none" stroke="black" points="778.25,-290 778.25,-314.5 829.75,-314.5 829.75,-290 778.25,-290"/>
<text text-anchor="start" x="782.25" y="-297.2" font-family="arial" font-size="14.00">female</text>
<polygon fill="none" stroke="black" points="829.75,-290 829.75,-314.5 869.25,-314.5 869.25,-290 829.75,-290"/>
<text text-anchor="start" x="833.75" y="-297.2" font-family="arial" font-size="14.00">2&#45;pin</text>
<polygon fill="none" stroke="black" points="674.25,-266 674.25,-290 760.25,-290 760.25,-266 674.25,-266"/>
<text text-anchor="start" x="713.12" y="-272.7" font-family="arial" font-size="14.00">1</text>
<polygon fill="none" stroke="black" points="760.25,-266 760.25,-290 869.25,-290 869.25,-266 760.25,-266"/>
<text text-anchor="start" x="799" y="-272.7" font-family="arial" font-size="14.00">GND</text>
<polygon fill="none" stroke="black" points="674.25,-242 674.25,-266 760.25,-266 760.25,-242 674.25,-242"/>
<text text-anchor="start" x="713.12" y="-248.7" font-family="arial" font-size="14.00">2</text>
<polygon fill="none" stroke="black" points="760.25,-242 760.25,-266 869.25,-266 869.25,-242 760.25,-242"/>
<text text-anchor="start" x="799.38" y="-248.7" font-family="arial" font-size="14.00">VCC</text>
</g>
<!-- W1&#45;&#45;X2 -->
<g id="edge13" class="edge">
<title>W1:e&#45;&#45;X2:w</title>
<path fill="none" stroke="#000000" stroke-width="2" d="M530.25,-208C603.03,-209.93 605.47,-277.93 674.25,-276"/>
<path fill="none" stroke="#000000" stroke-width="2" d="M530.25,-210C601.03,-210 603.47,-278 674.25,-278"/>
<path fill="none" stroke="#000000" stroke-width="2" d="M530.25,-212C599.03,-210.07 601.47,-278.07 674.25,-280"/>
</g>
<!-- W1&#45;&#45;X2 -->
<g id="edge14" class="edge">
<title>W1:e&#45;&#45;X2:w</title>
<path fill="none" stroke="#000000" stroke-width="2" d="M530.25,-182C603.41,-183.95 605.09,-253.95 674.25,-252"/>
<path fill="none" stroke="#ff0000" stroke-width="2" d="M530.25,-184C601.41,-184 603.09,-254 674.25,-254"/>
<path fill="none" stroke="#000000" stroke-width="2" d="M530.25,-186C599.41,-184.05 601.09,-254.05 674.25,-256"/>
</g>
<!-- X3 -->
<g id="node4" class="node">
<title>X3</title>
<polygon fill="#ffffff" stroke="black" points="869.25,-218 674.25,-218 674.25,-121 869.25,-121 869.25,-218"/>
<polygon fill="#ffffff" stroke="none" points="674.25,-121 674.25,-218 869.25,-218 869.25,-121 674.25,-121"/>
<polygon fill="none" stroke="black" points="674.25,-193.5 674.25,-218 869.25,-218 869.25,-193.5 674.25,-193.5"/>
<text text-anchor="start" x="762.75" y="-200.7" font-family="arial" font-size="14.00">X3</text>
<polygon fill="none" stroke="black" points="674.25,-169 674.25,-193.5 778.25,-193.5 778.25,-169 674.25,-169"/>
<text text-anchor="start" x="678.25" y="-176.2" font-family="arial" font-size="14.00">Molex Micro&#45;Fit</text>
<polygon fill="none" stroke="black" points="778.25,-169 778.25,-193.5 829.75,-193.5 829.75,-169 778.25,-169"/>
<text text-anchor="start" x="782.25" y="-176.2" font-family="arial" font-size="14.00">female</text>
<polygon fill="none" stroke="black" points="829.75,-169 829.75,-193.5 869.25,-193.5 869.25,-169 829.75,-169"/>
<text text-anchor="start" x="833.75" y="-176.2" font-family="arial" font-size="14.00">2&#45;pin</text>
<polygon fill="none" stroke="black" points="674.25,-145 674.25,-169 760.25,-169 760.25,-145 674.25,-145"/>
<text text-anchor="start" x="713.12" y="-151.7" font-family="arial" font-size="14.00">1</text>
<polygon fill="none" stroke="black" points="760.25,-145 760.25,-169 869.25,-169 869.25,-145 760.25,-145"/>
<text text-anchor="start" x="799" y="-151.7" font-family="arial" font-size="14.00">GND</text>
<polygon fill="none" stroke="black" points="674.25,-121 674.25,-145 760.25,-145 760.25,-121 674.25,-121"/>
<text text-anchor="start" x="713.12" y="-127.7" font-family="arial" font-size="14.00">2</text>
<polygon fill="none" stroke="black" points="760.25,-121 760.25,-145 869.25,-145 869.25,-121 760.25,-121"/>
<text text-anchor="start" x="799.38" y="-127.7" font-family="arial" font-size="14.00">VCC</text>
</g>
<!-- W1&#45;&#45;X3 -->
<g id="edge15" class="edge">
<title>W1:e&#45;&#45;X3:w</title>
<path fill="none" stroke="#000000" stroke-width="2" d="M530.25,-156C594.13,-156 610.13,-155 674.25,-155"/>
<path fill="none" stroke="#000000" stroke-width="2" d="M530.25,-158C594.25,-158 610.25,-157 674.25,-157"/>
<path fill="none" stroke="#000000" stroke-width="2" d="M530.25,-160C594.37,-160 610.37,-159 674.25,-159"/>
</g>
<!-- W1&#45;&#45;X3 -->
<g id="edge16" class="edge">
<title>W1:e&#45;&#45;X3:w</title>
<path fill="none" stroke="#000000" stroke-width="2" d="M530.25,-130C594.37,-130 610.37,-131 674.25,-131"/>
<path fill="none" stroke="#ff0000" stroke-width="2" d="M530.25,-132C594.25,-132 610.25,-133 674.25,-133"/>
<path fill="none" stroke="#000000" stroke-width="2" d="M530.25,-134C594.13,-134 610.13,-135 674.25,-135"/>
</g>
<!-- X4 -->
<g id="node5" class="node">
<title>X4</title>
<polygon fill="#ffffff" stroke="black" points="869.25,-97 674.25,-97 674.25,0 869.25,0 869.25,-97"/>
<polygon fill="#ffffff" stroke="none" points="674.25,0 674.25,-97 869.25,-97 869.25,0 674.25,0"/>
<polygon fill="none" stroke="black" points="674.25,-72.5 674.25,-97 869.25,-97 869.25,-72.5 674.25,-72.5"/>
<text text-anchor="start" x="762.75" y="-79.7" font-family="arial" font-size="14.00">X4</text>
<polygon fill="none" stroke="black" points="674.25,-48 674.25,-72.5 778.25,-72.5 778.25,-48 674.25,-48"/>
<text text-anchor="start" x="678.25" y="-55.2" font-family="arial" font-size="14.00">Molex Micro&#45;Fit</text>
<polygon fill="none" stroke="black" points="778.25,-48 778.25,-72.5 829.75,-72.5 829.75,-48 778.25,-48"/>
<text text-anchor="start" x="782.25" y="-55.2" font-family="arial" font-size="14.00">female</text>
<polygon fill="none" stroke="black" points="829.75,-48 829.75,-72.5 869.25,-72.5 869.25,-48 829.75,-48"/>
<text text-anchor="start" x="833.75" y="-55.2" font-family="arial" font-size="14.00">2&#45;pin</text>
<polygon fill="none" stroke="black" points="674.25,-24 674.25,-48 760.25,-48 760.25,-24 674.25,-24"/>
<text text-anchor="start" x="713.12" y="-30.7" font-family="arial" font-size="14.00">1</text>
<polygon fill="none" stroke="black" points="760.25,-24 760.25,-48 869.25,-48 869.25,-24 760.25,-24"/>
<text text-anchor="start" x="799" y="-30.7" font-family="arial" font-size="14.00">GND</text>
<polygon fill="none" stroke="black" points="674.25,0 674.25,-24 760.25,-24 760.25,0 674.25,0"/>
<text text-anchor="start" x="713.12" y="-6.7" font-family="arial" font-size="14.00">2</text>
<polygon fill="none" stroke="black" points="760.25,0 760.25,-24 869.25,-24 869.25,0 760.25,0"/>
<text text-anchor="start" x="799.38" y="-6.7" font-family="arial" font-size="14.00">VCC</text>
</g>
<!-- W1&#45;&#45;X4 -->
<g id="edge17" class="edge">
<title>W1:e&#45;&#45;X4:w</title>
<path fill="none" stroke="#000000" stroke-width="2" d="M530.25,-104C599.41,-105.95 601.09,-35.95 674.25,-34"/>
<path fill="none" stroke="#000000" stroke-width="2" d="M530.25,-106C601.41,-106 603.09,-36 674.25,-36"/>
<path fill="none" stroke="#000000" stroke-width="2" d="M530.25,-108C603.41,-106.05 605.09,-36.05 674.25,-38"/>
</g>
<!-- W1&#45;&#45;X4 -->
<g id="edge18" class="edge">
<title>W1:e&#45;&#45;X4:w</title>
<path fill="none" stroke="#000000" stroke-width="2" d="M530.25,-78C599.03,-79.93 601.47,-11.93 674.25,-10"/>
<path fill="none" stroke="#ff0000" stroke-width="2" d="M530.25,-80C601.03,-80 603.47,-12 674.25,-12"/>
<path fill="none" stroke="#000000" stroke-width="2" d="M530.25,-82C603.03,-80.07 605.47,-12.07 674.25,-14"/>
</g>
</g>
</svg>
