<?xml version="1.0" encoding="UTF-8" standalone="no"?>
<!DOCTYPE svg PUBLIC "-//W3C//DTD SVG 1.1//EN"
 "http://www.w3.org/Graphics/SVG/1.1/DTD/svg11.dtd">
<!-- Generated by graphviz version 10.0.1 (20240210.2158)
 -->
<!-- Pages: 1 -->
<svg width="859pt" height="338pt"
 viewBox="0.00 0.00 858.50 337.50" xmlns="http://www.w3.org/2000/svg" xmlns:xlink="http://www.w3.org/1999/xlink">
<g id="graph0" class="graph" transform="scale(1 1) rotate(0) translate(4 333.5)">
<polygon fill="#ffffff" stroke="none" points="-4,4 -4,-333.5 854.5,-333.5 854.5,4 -4,4"/>
<!-- X1 -->
<g id="node1" class="node">
<title>X1</title>
<polygon fill="#ffffff" stroke="black" points="177.75,-211.5 0,-211.5 0,-118 177.75,-118 177.75,-211.5"/>
<polygon fill="none" stroke="black" points="0,-187.75 0,-211.5 177.75,-211.5 177.75,-187.75 0,-187.75"/>
<text text-anchor="start" x="80.62" y="-194.2" font-family="arial" font-size="14.00">X1</text>
<polygon fill="none" stroke="black" points="0,-164 0,-187.75 101.75,-187.75 101.75,-164 0,-164"/>
<text text-anchor="start" x="4" y="-170.45" font-family="arial" font-size="14.00">Molex Micro&#45;Fit</text>
<polygon fill="none" stroke="black" points="101.75,-164 101.75,-187.75 139.75,-187.75 139.75,-164 101.75,-164"/>
<text text-anchor="start" x="105.75" y="-170.45" font-family="arial" font-size="14.00">male</text>
<polygon fill="none" stroke="black" points="139.75,-164 139.75,-187.75 177.75,-187.75 177.75,-164 139.75,-164"/>
<text text-anchor="start" x="143.75" y="-170.45" font-family="arial" font-size="14.00">2&#45;pin</text>
<polygon fill="none" stroke="black" points="0,-141 0,-164 100.38,-164 100.38,-141 0,-141"/>
<text text-anchor="start" x="34.81" y="-146.7" font-family="arial" font-size="14.00">GND</text>
<polygon fill="none" stroke="black" points="100.38,-141 100.38,-164 177.75,-164 177.75,-141 100.38,-141"/>
<text text-anchor="start" x="135.31" y="-146.7" font-family="arial" font-size="14.00">1</text>
<polygon fill="none" stroke="black" points="0,-118 0,-141 100.38,-141 100.38,-118 0,-118"/>
<text text-anchor="start" x="35.94" y="-123.7" font-family="arial" font-size="14.00">VCC</text>
<polygon fill="none" stroke="black" points="100.38,-118 100.38,-141 177.75,-141 177.75,-118 100.38,-118"/>
<text text-anchor="start" x="135.31" y="-123.7" font-family="arial" font-size="14.00">2</text>
</g>
<!-- W1 -->
<g id="node5" class="node">
<title>W1</title>
<polygon fill="#ffffff" stroke="black" stroke-dasharray="5,2" points="517.5,-292.5 321.75,-292.5 321.75,-57 517.5,-57 517.5,-292.5"/>
<polygon fill="none" stroke="black" points="321.75,-268.75 321.75,-292.5 517.5,-292.5 517.5,-268.75 321.75,-268.75"/>
<text text-anchor="start" x="409.12" y="-275.2" font-family="arial" font-size="14.00">W1</text>
<polygon fill="none" stroke="black" points="321.75,-245 321.75,-268.75 344,-268.75 344,-245 321.75,-245"/>
<text text-anchor="start" x="325.75" y="-251.45" font-family="arial" font-size="14.00">6x</text>
<polygon fill="none" stroke="black" points="344,-245 344,-268.75 475,-268.75 475,-245 344,-245"/>
<text text-anchor="start" x="348" y="-251.45" font-family="arial" font-size="14.00">0.25 mm² (24 AWG)</text>
<polygon fill="none" stroke="black" points="475,-245 475,-268.75 517.5,-268.75 517.5,-245 475,-245"/>
<text text-anchor="start" x="479" y="-251.45" font-family="arial" font-size="14.00">0.2 m</text>
<text text-anchor="start" x="354" y="-229.7" font-family="arial" font-size="14.00"> </text>
<text text-anchor="start" x="324.75" y="-210.7" font-family="arial" font-size="14.00">X1:1:GND</text>
<text text-anchor="start" x="393.75" y="-210.7" font-family="arial" font-size="14.00"> &#160;&#160;&#160;&#160;BK &#160;&#160;&#160;</text>
<text text-anchor="start" x="452.25" y="-210.7" font-family="arial" font-size="14.00">X2:1:GND</text>
<polygon fill="#000000" stroke="none" points="321.75,-205 321.75,-207 517.5,-207 517.5,-205 321.75,-205"/>
<polygon fill="#000000" stroke="none" points="321.75,-203 321.75,-205 517.5,-205 517.5,-203 321.75,-203"/>
<polygon fill="#000000" stroke="none" points="321.75,-201 321.75,-203 517.5,-203 517.5,-201 321.75,-201"/>
<text text-anchor="start" x="325.88" y="-185.7" font-family="arial" font-size="14.00">X1:2:VCC</text>
<text text-anchor="start" x="393" y="-185.7" font-family="arial" font-size="14.00"> &#160;&#160;&#160;&#160;RD &#160;&#160;&#160;</text>
<text text-anchor="start" x="453.38" y="-185.7" font-family="arial" font-size="14.00">X2:2:VCC</text>
<polygon fill="#000000" stroke="none" points="321.75,-180 321.75,-182 517.5,-182 517.5,-180 321.75,-180"/>
<polygon fill="#ff0000" stroke="none" points="321.75,-178 321.75,-180 517.5,-180 517.5,-178 321.75,-178"/>
<polygon fill="#000000" stroke="none" points="321.75,-176 321.75,-178 517.5,-178 517.5,-176 321.75,-176"/>
<text text-anchor="start" x="324.75" y="-160.7" font-family="arial" font-size="14.00">X1:1:GND</text>
<text text-anchor="start" x="393.75" y="-160.7" font-family="arial" font-size="14.00"> &#160;&#160;&#160;&#160;BK &#160;&#160;&#160;</text>
<text text-anchor="start" x="452.25" y="-160.7" font-family="arial" font-size="14.00">X3:1:GND</text>
<polygon fill="#000000" stroke="none" points="321.75,-155 321.75,-157 517.5,-157 517.5,-155 321.75,-155"/>
<polygon fill="#000000" stroke="none" points="321.75,-153 321.75,-155 517.5,-155 517.5,-153 321.75,-153"/>
<polygon fill="#000000" stroke="none" points="321.75,-151 321.75,-153 517.5,-153 517.5,-151 321.75,-151"/>
<text text-anchor="start" x="325.88" y="-135.7" font-family="arial" font-size="14.00">X1:2:VCC</text>
<text text-anchor="start" x="393" y="-135.7" font-family="arial" font-size="14.00"> &#160;&#160;&#160;&#160;RD &#160;&#160;&#160;</text>
<text text-anchor="start" x="453.38" y="-135.7" font-family="arial" font-size="14.00">X3:2:VCC</text>
<polygon fill="#000000" stroke="none" points="321.75,-130 321.75,-132 517.5,-132 517.5,-130 321.75,-130"/>
<polygon fill="#ff0000" stroke="none" points="321.75,-128 321.75,-130 517.5,-130 517.5,-128 321.75,-128"/>
<polygon fill="#000000" stroke="none" points="321.75,-126 321.75,-128 517.5,-128 517.5,-126 321.75,-126"/>
<text text-anchor="start" x="324.75" y="-110.7" font-family="arial" font-size="14.00">X1:1:GND</text>
<text text-anchor="start" x="393.75" y="-110.7" font-family="arial" font-size="14.00"> &#160;&#160;&#160;&#160;BK &#160;&#160;&#160;</text>
<text text-anchor="start" x="452.25" y="-110.7" font-family="arial" font-size="14.00">X4:1:GND</text>
<polygon fill="#000000" stroke="none" points="321.75,-105 321.75,-107 517.5,-107 517.5,-105 321.75,-105"/>
<polygon fill="#000000" stroke="none" points="321.75,-103 321.75,-105 517.5,-105 517.5,-103 321.75,-103"/>
<polygon fill="#000000" stroke="none" points="321.75,-101 321.75,-103 517.5,-103 517.5,-101 321.75,-101"/>
<text text-anchor="start" x="325.88" y="-85.7" font-family="arial" font-size="14.00">X1:2:VCC</text>
<text text-anchor="start" x="393" y="-85.7" font-family="arial" font-size="14.00"> &#160;&#160;&#160;&#160;RD &#160;&#160;&#160;</text>
<text text-anchor="start" x="453.38" y="-85.7" font-family="arial" font-size="14.00">X4:2:VCC</text>
<polygon fill="#000000" stroke="none" points="321.75,-80 321.75,-82 517.5,-82 517.5,-80 321.75,-80"/>
<polygon fill="#ff0000" stroke="none" points="321.75,-78 321.75,-80 517.5,-80 517.5,-78 321.75,-78"/>
<polygon fill="#000000" stroke="none" points="321.75,-76 321.75,-78 517.5,-78 517.5,-76 321.75,-76"/>
<text text-anchor="start" x="354" y="-60.7" font-family="arial" font-size="14.00"> </text>
</g>
<!-- X1&#45;&#45;W1 -->
<g id="edge1" class="edge">
<title>X1:e&#45;&#45;W1:w</title>
<path fill="none" stroke="#000000" stroke-width="2" d="M177.75,-150.75C247.62,-152.43 255.83,-203.43 321.75,-201.75"/>
<path fill="none" stroke="#000000" stroke-width="2" d="M177.75,-152.75C245.65,-152.75 253.85,-203.75 321.75,-203.75"/>
<path fill="none" stroke="#000000" stroke-width="2" d="M177.75,-154.75C243.67,-153.07 251.88,-204.07 321.75,-205.75"/>
</g>
<!-- X1&#45;&#45;W1 -->
<g id="edge3" class="edge">
<title>X1:e&#45;&#45;W1:w</title>
<path fill="none" stroke="#000000" stroke-width="2" d="M177.75,-127.75C247.32,-129.4 256.11,-178.4 321.75,-176.75"/>
<path fill="none" stroke="#ff0000" stroke-width="2" d="M177.75,-129.75C245.35,-129.75 254.15,-178.75 321.75,-178.75"/>
<path fill="none" stroke="#000000" stroke-width="2" d="M177.75,-131.75C243.39,-130.1 252.18,-179.1 321.75,-180.75"/>
</g>
<!-- X1&#45;&#45;W1 -->
<g id="edge5" class="edge">
<title>X1:e&#45;&#45;W1:w</title>
<path fill="none" stroke="#000000" stroke-width="2" d="M177.75,-150.75C241.88,-150.75 257.87,-151.75 321.75,-151.75"/>
<path fill="none" stroke="#000000" stroke-width="2" d="M177.75,-152.75C241.75,-152.75 257.75,-153.75 321.75,-153.75"/>
<path fill="none" stroke="#000000" stroke-width="2" d="M177.75,-154.75C241.63,-154.75 257.62,-155.75 321.75,-155.75"/>
</g>
<!-- X1&#45;&#45;W1 -->
<g id="edge7" class="edge">
<title>X1:e&#45;&#45;W1:w</title>
<path fill="none" stroke="#000000" stroke-width="2" d="M177.75,-127.75C241.63,-127.75 257.62,-126.75 321.75,-126.75"/>
<path fill="none" stroke="#ff0000" stroke-width="2" d="M177.75,-129.75C241.75,-129.75 257.75,-128.75 321.75,-128.75"/>
<path fill="none" stroke="#000000" stroke-width="2" d="M177.75,-131.75C241.88,-131.75 257.87,-130.75 321.75,-130.75"/>
</g>
<!-- X1&#45;&#45;W1 -->
<g id="edge9" class="edge">
<title>X1:e&#45;&#45;W1:w</title>
<path fill="none" stroke="#000000" stroke-width="2" d="M177.75,-150.75C243.39,-152.4 252.18,-103.4 321.75,-101.75"/>
<path fill="none" stroke="#000000" stroke-width="2" d="M177.75,-152.75C245.35,-152.75 254.15,-103.75 321.75,-103.75"/>
<path fill="none" stroke="#000000" stroke-width="2" d="M177.75,-154.75C247.32,-153.1 256.11,-104.1 321.75,-105.75"/>
</g>
<!-- X1&#45;&#45;W1 -->
<g id="edge11" class="edge">
<title>X1:e&#45;&#45;W1:w</title>
<path fill="none" stroke="#000000" stroke-width="2" d="M177.75,-127.75C243.67,-129.43 251.88,-78.43 321.75,-76.75"/>
<path fill="none" stroke="#ff0000" stroke-width="2" d="M177.75,-129.75C245.65,-129.75 253.85,-78.75 321.75,-78.75"/>
<path fill="none" stroke="#000000" stroke-width="2" d="M177.75,-131.75C247.62,-130.07 255.83,-79.07 321.75,-80.75"/>
</g>
<!-- X2 -->
<g id="node2" class="node">
<title>X2</title>
<polygon fill="#ffffff" stroke="black" points="850.5,-329.5 661.5,-329.5 661.5,-236 850.5,-236 850.5,-329.5"/>
<polygon fill="none" stroke="black" points="661.5,-305.75 661.5,-329.5 850.5,-329.5 850.5,-305.75 661.5,-305.75"/>
<text text-anchor="start" x="747.75" y="-312.2" font-family="arial" font-size="14.00">X2</text>
<polygon fill="none" stroke="black" points="661.5,-282 661.5,-305.75 763.25,-305.75 763.25,-282 661.5,-282"/>
<text text-anchor="start" x="665.5" y="-288.45" font-family="arial" font-size="14.00">Molex Micro&#45;Fit</text>
<polygon fill="none" stroke="black" points="763.25,-282 763.25,-305.75 812.5,-305.75 812.5,-282 763.25,-282"/>
<text text-anchor="start" x="767.25" y="-288.45" font-family="arial" font-size="14.00">female</text>
<polygon fill="none" stroke="black" points="812.5,-282 812.5,-305.75 850.5,-305.75 850.5,-282 812.5,-282"/>
<text text-anchor="start" x="816.5" y="-288.45" font-family="arial" font-size="14.00">2&#45;pin</text>
<polygon fill="none" stroke="black" points="661.5,-259 661.5,-282 744.5,-282 744.5,-259 661.5,-259"/>
<text text-anchor="start" x="699.25" y="-264.7" font-family="arial" font-size="14.00">1</text>
<polygon fill="none" stroke="black" points="744.5,-259 744.5,-282 850.5,-282 850.5,-259 744.5,-259"/>
<text text-anchor="start" x="782.12" y="-264.7" font-family="arial" font-size="14.00">GND</text>
<polygon fill="none" stroke="black" points="661.5,-236 661.5,-259 744.5,-259 744.5,-236 661.5,-236"/>
<text text-anchor="start" x="699.25" y="-241.7" font-family="arial" font-size="14.00">2</text>
<polygon fill="none" stroke="black" points="744.5,-236 744.5,-259 850.5,-259 850.5,-236 744.5,-236"/>
<text text-anchor="start" x="783.25" y="-241.7" font-family="arial" font-size="14.00">VCC</text>
</g>
<!-- X3 -->
<g id="node3" class="node">
<title>X3</title>
<polygon fill="#ffffff" stroke="black" points="850.5,-211.5 661.5,-211.5 661.5,-118 850.5,-118 850.5,-211.5"/>
<polygon fill="none" stroke="black" points="661.5,-187.75 661.5,-211.5 850.5,-211.5 850.5,-187.75 661.5,-187.75"/>
<text text-anchor="start" x="747.75" y="-194.2" font-family="arial" font-size="14.00">X3</text>
<polygon fill="none" stroke="black" points="661.5,-164 661.5,-187.75 763.25,-187.75 763.25,-164 661.5,-164"/>
<text text-anchor="start" x="665.5" y="-170.45" font-family="arial" font-size="14.00">Molex Micro&#45;Fit</text>
<polygon fill="none" stroke="black" points="763.25,-164 763.25,-187.75 812.5,-187.75 812.5,-164 763.25,-164"/>
<text text-anchor="start" x="767.25" y="-170.45" font-family="arial" font-size="14.00">female</text>
<polygon fill="none" stroke="black" points="812.5,-164 812.5,-187.75 850.5,-187.75 850.5,-164 812.5,-164"/>
<text text-anchor="start" x="816.5" y="-170.45" font-family="arial" font-size="14.00">2&#45;pin</text>
<polygon fill="none" stroke="black" points="661.5,-141 661.5,-164 744.5,-164 744.5,-141 661.5,-141"/>
<text text-anchor="start" x="699.25" y="-146.7" font-family="arial" font-size="14.00">1</text>
<polygon fill="none" stroke="black" points="744.5,-141 744.5,-164 850.5,-164 850.5,-141 744.5,-141"/>
<text text-anchor="start" x="782.12" y="-146.7" font-family="arial" font-size="14.00">GND</text>
<polygon fill="none" stroke="black" points="661.5,-118 661.5,-141 744.5,-141 744.5,-118 661.5,-118"/>
<text text-anchor="start" x="699.25" y="-123.7" font-family="arial" font-size="14.00">2</text>
<polygon fill="none" stroke="black" points="744.5,-118 744.5,-141 850.5,-141 850.5,-118 744.5,-118"/>
<text text-anchor="start" x="783.25" y="-123.7" font-family="arial" font-size="14.00">VCC</text>
</g>
<!-- X4 -->
<g id="node4" class="node">
<title>X4</title>
<polygon fill="#ffffff" stroke="black" points="850.5,-93.5 661.5,-93.5 661.5,0 850.5,0 850.5,-93.5"/>
<polygon fill="none" stroke="black" points="661.5,-69.75 661.5,-93.5 850.5,-93.5 850.5,-69.75 661.5,-69.75"/>
<text text-anchor="start" x="747.75" y="-76.2" font-family="arial" font-size="14.00">X4</text>
<polygon fill="none" stroke="black" points="661.5,-46 661.5,-69.75 763.25,-69.75 763.25,-46 661.5,-46"/>
<text text-anchor="start" x="665.5" y="-52.45" font-family="arial" font-size="14.00">Molex Micro&#45;Fit</text>
<polygon fill="none" stroke="black" points="763.25,-46 763.25,-69.75 812.5,-69.75 812.5,-46 763.25,-46"/>
<text text-anchor="start" x="767.25" y="-52.45" font-family="arial" font-size="14.00">female</text>
<polygon fill="none" stroke="black" points="812.5,-46 812.5,-69.75 850.5,-69.75 850.5,-46 812.5,-46"/>
<text text-anchor="start" x="816.5" y="-52.45" font-family="arial" font-size="14.00">2&#45;pin</text>
<polygon fill="none" stroke="black" points="661.5,-23 661.5,-46 744.5,-46 744.5,-23 661.5,-23"/>
<text text-anchor="start" x="699.25" y="-28.7" font-family="arial" font-size="14.00">1</text>
<polygon fill="none" stroke="black" points="744.5,-23 744.5,-46 850.5,-46 850.5,-23 744.5,-23"/>
<text text-anchor="start" x="782.12" y="-28.7" font-family="arial" font-size="14.00">GND</text>
<polygon fill="none" stroke="black" points="661.5,0 661.5,-23 744.5,-23 744.5,0 661.5,0"/>
<text text-anchor="start" x="699.25" y="-5.7" font-family="arial" font-size="14.00">2</text>
<polygon fill="none" stroke="black" points="744.5,0 744.5,-23 850.5,-23 850.5,0 744.5,0"/>
<text text-anchor="start" x="783.25" y="-5.7" font-family="arial" font-size="14.00">VCC</text>
</g>
<!-- W1&#45;&#45;X2 -->
<g id="edge2" class="edge">
<title>W1:e&#45;&#45;X2:w</title>
<path fill="none" stroke="#000000" stroke-width="2" d="M517.5,-201.75C590.09,-203.67 592.91,-270.67 661.5,-268.75"/>
<path fill="none" stroke="#000000" stroke-width="2" d="M517.5,-203.75C588.09,-203.75 590.91,-270.75 661.5,-270.75"/>
<path fill="none" stroke="#000000" stroke-width="2" d="M517.5,-205.75C586.09,-203.83 588.91,-270.83 661.5,-272.75"/>
</g>
<!-- W1&#45;&#45;X2 -->
<g id="edge4" class="edge">
<title>W1:e&#45;&#45;X2:w</title>
<path fill="none" stroke="#000000" stroke-width="2" d="M517.5,-176.75C590.47,-178.69 592.53,-247.69 661.5,-245.75"/>
<path fill="none" stroke="#ff0000" stroke-width="2" d="M517.5,-178.75C588.47,-178.75 590.53,-247.75 661.5,-247.75"/>
<path fill="none" stroke="#000000" stroke-width="2" d="M517.5,-180.75C586.47,-178.81 588.53,-247.81 661.5,-249.75"/>
</g>
<!-- W1&#45;&#45;X3 -->
<g id="edge6" class="edge">
<title>W1:e&#45;&#45;X3:w</title>
<path fill="none" stroke="#000000" stroke-width="2" d="M517.5,-151.75C581.38,-151.75 597.37,-150.75 661.5,-150.75"/>
<path fill="none" stroke="#000000" stroke-width="2" d="M517.5,-153.75C581.5,-153.75 597.5,-152.75 661.5,-152.75"/>
<path fill="none" stroke="#000000" stroke-width="2" d="M517.5,-155.75C581.63,-155.75 597.62,-154.75 661.5,-154.75"/>
</g>
<!-- W1&#45;&#45;X3 -->
<g id="edge8" class="edge">
<title>W1:e&#45;&#45;X3:w</title>
<path fill="none" stroke="#000000" stroke-width="2" d="M517.5,-126.75C581.63,-126.75 597.62,-127.75 661.5,-127.75"/>
<path fill="none" stroke="#ff0000" stroke-width="2" d="M517.5,-128.75C581.5,-128.75 597.5,-129.75 661.5,-129.75"/>
<path fill="none" stroke="#000000" stroke-width="2" d="M517.5,-130.75C581.38,-130.75 597.37,-131.75 661.5,-131.75"/>
</g>
<!-- W1&#45;&#45;X4 -->
<g id="edge10" class="edge">
<title>W1:e&#45;&#45;X4:w</title>
<path fill="none" stroke="#000000" stroke-width="2" d="M517.5,-101.75C586.47,-103.69 588.53,-34.69 661.5,-32.75"/>
<path fill="none" stroke="#000000" stroke-width="2" d="M517.5,-103.75C588.47,-103.75 590.53,-34.75 661.5,-34.75"/>
<path fill="none" stroke="#000000" stroke-width="2" d="M517.5,-105.75C590.47,-103.81 592.53,-34.81 661.5,-36.75"/>
</g>
<!-- W1&#45;&#45;X4 -->
<g id="edge12" class="edge">
<title>W1:e&#45;&#45;X4:w</title>
<path fill="none" stroke="#000000" stroke-width="2" d="M517.5,-76.75C586.09,-78.67 588.91,-11.67 661.5,-9.75"/>
<path fill="none" stroke="#ff0000" stroke-width="2" d="M517.5,-78.75C588.09,-78.75 590.91,-11.75 661.5,-11.75"/>
<path fill="none" stroke="#000000" stroke-width="2" d="M517.5,-80.75C590.09,-78.83 592.91,-11.83 661.5,-13.75"/>
</g>
</g>
</svg>
