<?xml version="1.0" encoding="UTF-8" standalone="no"?>
<!DOCTYPE svg PUBLIC "-//W3C//DTD SVG 1.1//EN"
 "http://www.w3.org/Graphics/SVG/1.1/DTD/svg11.dtd">
<!-- Generated by graphviz version 2.44.0 (20200408.0750)
 -->
<!-- Pages: 1 -->
<svg width="622pt" height="344pt"
 viewBox="0.00 0.00 622.00 344.00" xmlns="http://www.w3.org/2000/svg" xmlns:xlink="http://www.w3.org/1999/xlink">
<g id="graph0" class="graph" transform="scale(1 1) rotate(0) translate(4 340)">
<polygon fill="white" stroke="transparent" points="-4,4 -4,-340 618,-340 618,4 -4,4"/>
<!-- F1 -->
<g id="node1" class="node">
<title>F1</title>
<polygon fill="white" stroke="transparent" points="0,-300 64,-300 64,-336 0,-336 0,-300"/>
<text text-anchor="start" x="3" y="-313.8" font-family="arial" font-size="14.00"> crimp &#160;</text>
<text text-anchor="start" x="53" y="-313.8" font-family="arial" font-size="14.00"> &#160;</text>
<polygon fill="none" stroke="black" points="0,-307.5 0,-328.5 64,-328.5 64,-307.5 0,-307.5"/>
</g>
<!-- W1 -->
<g id="node13" class="node">
<title>W1</title>
<polygon fill="white" stroke="black" stroke-dasharray="5,2" points="406,-290.5 208,-290.5 208,-83.5 406,-83.5 406,-290.5"/>
<polygon fill="none" stroke="black" points="208,-267 208,-290 231,-290 231,-267 208,-267"/>
<text text-anchor="start" x="212" y="-274.8" font-family="arial" font-size="14.00">6x</text>
<polygon fill="none" stroke="black" points="231,-267 231,-290 363,-290 363,-267 231,-267"/>
<text text-anchor="start" x="235" y="-274.8" font-family="arial" font-size="14.00">0.25 mm² (24 AWG)</text>
<polygon fill="none" stroke="black" points="363,-267 363,-290 406,-290 406,-267 363,-267"/>
<text text-anchor="start" x="367" y="-274.8" font-family="arial" font-size="14.00">0.2 m</text>
<text text-anchor="start" x="305" y="-255.8" font-family="arial" font-size="14.00"> </text>
<text text-anchor="start" x="299.5" y="-238.8" font-family="arial" font-size="14.00">BN</text>
<polygon fill="#666600" stroke="transparent" points="208,-227 208,-233 406,-233 406,-227 208,-227"/>
<polyline fill="none" stroke="black" stroke-width="2" points="209,-228 405,-228 "/>
<polyline fill="none" stroke="black" stroke-width="2" points="405,-232 209,-232 "/>
<text text-anchor="start" x="299" y="-213.8" font-family="arial" font-size="14.00">RD</text>
<polygon fill="#ff0000" stroke="transparent" stroke-width="2" points="208,-202 208,-208 406,-208 406,-202 208,-202"/>
<polyline fill="none" stroke="black" stroke-width="2" points="209,-203 405,-203 "/>
<polyline fill="none" stroke="black" stroke-width="2" points="405,-207 209,-207 "/>
<text text-anchor="start" x="297.5" y="-188.8" font-family="arial" font-size="14.00">OG</text>
<polygon fill="#ff8000" stroke="transparent" stroke-width="2" points="208,-177 208,-183 406,-183 406,-177 208,-177"/>
<polyline fill="none" stroke="black" stroke-width="2" points="209,-178 405,-178 "/>
<polyline fill="none" stroke="black" stroke-width="2" points="405,-182 209,-182 "/>
<text text-anchor="start" x="299.5" y="-163.8" font-family="arial" font-size="14.00">YE</text>
<polygon fill="#ffff00" stroke="transparent" stroke-width="2" points="208,-152 208,-158 406,-158 406,-152 208,-152"/>
<polyline fill="none" stroke="black" stroke-width="2" points="209,-153 405,-153 "/>
<polyline fill="none" stroke="black" stroke-width="2" points="405,-157 209,-157 "/>
<text text-anchor="start" x="298" y="-138.8" font-family="arial" font-size="14.00">GN</text>
<polygon fill="#00ff00" stroke="transparent" stroke-width="2" points="208,-127 208,-133 406,-133 406,-127 208,-127"/>
<polyline fill="none" stroke="black" stroke-width="2" points="209,-128 405,-128 "/>
<polyline fill="none" stroke="black" stroke-width="2" points="405,-132 209,-132 "/>
<text text-anchor="start" x="299.5" y="-113.8" font-family="arial" font-size="14.00">BU</text>
<polygon fill="#0066ff" stroke="transparent" stroke-width="2" points="208,-102 208,-108 406,-108 406,-102 208,-102"/>
<polyline fill="none" stroke="black" stroke-width="2" points="209,-103 405,-103 "/>
<polyline fill="none" stroke="black" stroke-width="2" points="405,-107 209,-107 "/>
<text text-anchor="start" x="236.5" y="-88.8" font-family="arial" font-size="14.00"> </text>
</g>
<!-- F1&#45;&#45;W1 -->
<g id="edge1" class="edge">
<title>F1:e&#45;&#45;W1:w</title>
<path fill="none" stroke="#000000" stroke-width="2" d="M64,-316C137.01,-318.14 131,-230.14 208,-228"/>
<path fill="none" stroke="#666600" stroke-width="2" d="M64,-318C139,-318 133,-230 208,-230"/>
<path fill="none" stroke="#000000" stroke-width="2" d="M64,-320C141,-317.86 134.99,-229.86 208,-232"/>
</g>
<!-- F2 -->
<g id="node2" class="node">
<title>F2</title>
<polygon fill="white" stroke="transparent" points="0,-240 64,-240 64,-276 0,-276 0,-240"/>
<text text-anchor="start" x="3" y="-253.8" font-family="arial" font-size="14.00"> crimp &#160;</text>
<text text-anchor="start" x="53" y="-253.8" font-family="arial" font-size="14.00"> &#160;</text>
<polygon fill="none" stroke="black" points="0,-247.5 0,-268.5 64,-268.5 64,-247.5 0,-247.5"/>
</g>
<!-- F2&#45;&#45;W1 -->
<g id="edge2" class="edge">
<title>F2:e&#45;&#45;W1:w</title>
<path fill="none" stroke="#000000" stroke-width="2" d="M64,-256C130.22,-257.72 137.82,-204.72 208,-203"/>
<path fill="none" stroke="#ff0000" stroke-width="2" d="M64,-258C132.2,-258 139.8,-205 208,-205"/>
<path fill="none" stroke="#000000" stroke-width="2" d="M64,-260C134.18,-258.28 141.78,-205.28 208,-207"/>
</g>
<!-- F3 -->
<g id="node3" class="node">
<title>F3</title>
<polygon fill="white" stroke="transparent" points="0,-180 64,-180 64,-216 0,-216 0,-180"/>
<text text-anchor="start" x="3" y="-193.8" font-family="arial" font-size="14.00"> crimp &#160;</text>
<text text-anchor="start" x="53" y="-193.8" font-family="arial" font-size="14.00"> &#160;</text>
<polygon fill="none" stroke="black" points="0,-187.5 0,-208.5 64,-208.5 64,-187.5 0,-187.5"/>
</g>
<!-- F3&#45;&#45;W1 -->
<g id="edge3" class="edge">
<title>F3:e&#45;&#45;W1:w</title>
<path fill="none" stroke="#000000" stroke-width="2" d="M64,-196C126.96,-196.72 141.97,-178.72 208,-178"/>
<path fill="none" stroke="#ff8000" stroke-width="2" d="M64,-198C128.5,-198 143.5,-180 208,-180"/>
<path fill="none" stroke="#000000" stroke-width="2" d="M64,-200C130.03,-199.28 145.04,-181.28 208,-182"/>
</g>
<!-- F4 -->
<g id="node4" class="node">
<title>F4</title>
<polygon fill="white" stroke="transparent" points="0,-120 64,-120 64,-156 0,-156 0,-120"/>
<text text-anchor="start" x="3" y="-133.8" font-family="arial" font-size="14.00"> crimp &#160;</text>
<text text-anchor="start" x="53" y="-133.8" font-family="arial" font-size="14.00"> &#160;</text>
<polygon fill="none" stroke="black" points="0,-127.5 0,-148.5 64,-148.5 64,-127.5 0,-127.5"/>
</g>
<!-- F4&#45;&#45;W1 -->
<g id="edge4" class="edge">
<title>F4:e&#45;&#45;W1:w</title>
<path fill="none" stroke="#000000" stroke-width="2" d="M64,-136C129.94,-136.67 145.05,-153.67 208,-153"/>
<path fill="none" stroke="#ffff00" stroke-width="2" d="M64,-138C128.44,-138 143.56,-155 208,-155"/>
<path fill="none" stroke="#000000" stroke-width="2" d="M64,-140C126.95,-139.33 142.06,-156.33 208,-157"/>
</g>
<!-- F5 -->
<g id="node5" class="node">
<title>F5</title>
<polygon fill="white" stroke="transparent" points="0,-60 64,-60 64,-96 0,-96 0,-60"/>
<text text-anchor="start" x="3" y="-73.8" font-family="arial" font-size="14.00"> crimp &#160;</text>
<text text-anchor="start" x="53" y="-73.8" font-family="arial" font-size="14.00"> &#160;</text>
<polygon fill="none" stroke="black" points="0,-67.5 0,-88.5 64,-88.5 64,-67.5 0,-67.5"/>
</g>
<!-- F5&#45;&#45;W1 -->
<g id="edge5" class="edge">
<title>F5:e&#45;&#45;W1:w</title>
<path fill="none" stroke="#000000" stroke-width="2" d="M64,-76C134.02,-77.7 141.93,-129.7 208,-128"/>
<path fill="none" stroke="#00ff00" stroke-width="2" d="M64,-78C132.05,-78 139.95,-130 208,-130"/>
<path fill="none" stroke="#000000" stroke-width="2" d="M64,-80C130.07,-78.3 137.98,-130.3 208,-132"/>
</g>
<!-- F6 -->
<g id="node6" class="node">
<title>F6</title>
<polygon fill="white" stroke="transparent" points="0,0 64,0 64,-36 0,-36 0,0"/>
<text text-anchor="start" x="3" y="-13.8" font-family="arial" font-size="14.00"> crimp &#160;</text>
<text text-anchor="start" x="53" y="-13.8" font-family="arial" font-size="14.00"> &#160;</text>
<polygon fill="none" stroke="black" points="0,-7.5 0,-28.5 64,-28.5 64,-7.5 0,-7.5"/>
</g>
<!-- F6&#45;&#45;W1 -->
<g id="edge6" class="edge">
<title>F6:e&#45;&#45;W1:w</title>
<path fill="none" stroke="#000000" stroke-width="2" d="M64,-16C140.77,-18.13 135.22,-105.13 208,-103"/>
<path fill="none" stroke="#0066ff" stroke-width="2" d="M64,-18C138.77,-18 133.23,-105 208,-105"/>
<path fill="none" stroke="#000000" stroke-width="2" d="M64,-20C136.78,-17.87 131.23,-104.87 208,-107"/>
</g>
<!-- F7 -->
<g id="node7" class="node">
<title>F7</title>
<polygon fill="white" stroke="transparent" points="614,-36 550,-36 550,0 614,0 614,-36"/>
<text text-anchor="start" x="553" y="-13.8" font-family="arial" font-size="14.00"> &#160;</text>
<text text-anchor="start" x="565" y="-13.8" font-family="arial" font-size="14.00"> crimp &#160;</text>
<polygon fill="none" stroke="black" points="550,-7.5 550,-28.5 614,-28.5 614,-7.5 550,-7.5"/>
</g>
<!-- F8 -->
<g id="node8" class="node">
<title>F8</title>
<polygon fill="white" stroke="transparent" points="614,-96 550,-96 550,-60 614,-60 614,-96"/>
<text text-anchor="start" x="553" y="-73.8" font-family="arial" font-size="14.00"> &#160;</text>
<text text-anchor="start" x="565" y="-73.8" font-family="arial" font-size="14.00"> crimp &#160;</text>
<polygon fill="none" stroke="black" points="550,-67.5 550,-88.5 614,-88.5 614,-67.5 550,-67.5"/>
</g>
<!-- F9 -->
<g id="node9" class="node">
<title>F9</title>
<polygon fill="white" stroke="transparent" points="614,-156 550,-156 550,-120 614,-120 614,-156"/>
<text text-anchor="start" x="553" y="-133.8" font-family="arial" font-size="14.00"> &#160;</text>
<text text-anchor="start" x="565" y="-133.8" font-family="arial" font-size="14.00"> crimp &#160;</text>
<polygon fill="none" stroke="black" points="550,-127.5 550,-148.5 614,-148.5 614,-127.5 550,-127.5"/>
</g>
<!-- F10 -->
<g id="node10" class="node">
<title>F10</title>
<polygon fill="white" stroke="transparent" points="614,-216 550,-216 550,-180 614,-180 614,-216"/>
<text text-anchor="start" x="553" y="-193.8" font-family="arial" font-size="14.00"> &#160;</text>
<text text-anchor="start" x="565" y="-193.8" font-family="arial" font-size="14.00"> crimp &#160;</text>
<polygon fill="none" stroke="black" points="550,-187.5 550,-208.5 614,-208.5 614,-187.5 550,-187.5"/>
</g>
<!-- F11 -->
<g id="node11" class="node">
<title>F11</title>
<polygon fill="white" stroke="transparent" points="614,-276 550,-276 550,-240 614,-240 614,-276"/>
<text text-anchor="start" x="553" y="-253.8" font-family="arial" font-size="14.00"> &#160;</text>
<text text-anchor="start" x="565" y="-253.8" font-family="arial" font-size="14.00"> crimp &#160;</text>
<polygon fill="none" stroke="black" points="550,-247.5 550,-268.5 614,-268.5 614,-247.5 550,-247.5"/>
</g>
<!-- F12 -->
<g id="node12" class="node">
<title>F12</title>
<polygon fill="white" stroke="transparent" points="614,-336 550,-336 550,-300 614,-300 614,-336"/>
<text text-anchor="start" x="553" y="-313.8" font-family="arial" font-size="14.00"> &#160;</text>
<text text-anchor="start" x="565" y="-313.8" font-family="arial" font-size="14.00"> crimp &#160;</text>
<polygon fill="none" stroke="black" points="550,-307.5 550,-328.5 614,-328.5 614,-307.5 550,-307.5"/>
</g>
<!-- W1&#45;&#45;F7 -->
<g id="edge7" class="edge">
<title>W1:e&#45;&#45;F7:w</title>
<path fill="none" stroke="#000000" stroke-width="2" d="M406,-103C478.78,-105.13 473.23,-18.13 550,-16"/>
<path fill="none" stroke="#0066ff" stroke-width="2" d="M406,-105C480.77,-105 475.23,-18 550,-18"/>
<path fill="none" stroke="#000000" stroke-width="2" d="M406,-107C482.77,-104.87 477.22,-17.87 550,-20"/>
</g>
<!-- W1&#45;&#45;F8 -->
<g id="edge8" class="edge">
<title>W1:e&#45;&#45;F8:w</title>
<path fill="none" stroke="#000000" stroke-width="2" d="M406,-128C472.07,-129.7 479.98,-77.7 550,-76"/>
<path fill="none" stroke="#00ff00" stroke-width="2" d="M406,-130C474.05,-130 481.95,-78 550,-78"/>
<path fill="none" stroke="#000000" stroke-width="2" d="M406,-132C476.02,-130.3 483.93,-78.3 550,-80"/>
</g>
<!-- W1&#45;&#45;F9 -->
<g id="edge9" class="edge">
<title>W1:e&#45;&#45;F9:w</title>
<path fill="none" stroke="#000000" stroke-width="2" d="M406,-153C468.95,-153.67 484.06,-136.67 550,-136"/>
<path fill="none" stroke="#ffff00" stroke-width="2" d="M406,-155C470.44,-155 485.56,-138 550,-138"/>
<path fill="none" stroke="#000000" stroke-width="2" d="M406,-157C471.94,-156.33 487.05,-139.33 550,-140"/>
</g>
<!-- W1&#45;&#45;F10 -->
<g id="edge10" class="edge">
<title>W1:e&#45;&#45;F10:w</title>
<path fill="none" stroke="#000000" stroke-width="2" d="M406,-178C472.03,-178.72 487.04,-196.72 550,-196"/>
<path fill="none" stroke="#ff8000" stroke-width="2" d="M406,-180C470.5,-180 485.5,-198 550,-198"/>
<path fill="none" stroke="#000000" stroke-width="2" d="M406,-182C468.96,-181.28 483.97,-199.28 550,-200"/>
</g>
<!-- W1&#45;&#45;F11 -->
<g id="edge11" class="edge">
<title>W1:e&#45;&#45;F11:w</title>
<path fill="none" stroke="#000000" stroke-width="2" d="M406,-203C476.18,-204.72 483.78,-257.72 550,-256"/>
<path fill="none" stroke="#ff0000" stroke-width="2" d="M406,-205C474.2,-205 481.8,-258 550,-258"/>
<path fill="none" stroke="#000000" stroke-width="2" d="M406,-207C472.22,-205.28 479.82,-258.28 550,-260"/>
</g>
<!-- W1&#45;&#45;F12 -->
<g id="edge12" class="edge">
<title>W1:e&#45;&#45;F12:w</title>
<path fill="none" stroke="#000000" stroke-width="2" d="M406,-228C483,-230.14 476.99,-318.14 550,-316"/>
<path fill="none" stroke="#666600" stroke-width="2" d="M406,-230C481,-230 475,-318 550,-318"/>
<path fill="none" stroke="#000000" stroke-width="2" d="M406,-232C479.01,-229.86 473,-317.86 550,-320"/>
</g>
</g>
</svg>
