<?xml version="1.0" encoding="UTF-8" standalone="no"?>
<!DOCTYPE svg PUBLIC "-//W3C//DTD SVG 1.1//EN"
 "http://www.w3.org/Graphics/SVG/1.1/DTD/svg11.dtd">
<!-- Generated by graphviz version 2.44.0 (20200408.0750)
 -->
<!-- Pages: 1 -->
<svg width="614pt" height="410pt"
 viewBox="0.00 0.00 614.00 410.00" xmlns="http://www.w3.org/2000/svg" xmlns:xlink="http://www.w3.org/1999/xlink">
<g id="graph0" class="graph" transform="scale(1 1) rotate(0) translate(4 406)">
<g id="clust1" class="cluster">
<title>cluster_W1</title>
<polygon fill="white" stroke="black" stroke-dasharray="5,2" points="190,-120.5 190,-294.5 416,-294.5 416,-120.5 190,-120.5"/>
<text text-anchor="middle" x="303" y="-279.3" font-family="arial" font-size="14.00">6x &#160;| &#160;0.25 mm² (24 AWG) &#160;| &#160;0.2 m</text>
<text text-anchor="middle" x="303" y="-264.3" font-family="arial" font-size="14.00"> </text>
</g>
<!-- F1 -->
<g id="node1" class="node">
<title>F1</title>
<polygon fill="white" stroke="black" points="0,-355.5 0,-401.5 54,-401.5 54,-355.5 0,-355.5"/>
<text text-anchor="middle" x="27" y="-386.3" font-family="arial" font-size="14.00">crimp</text>
<polyline fill="none" stroke="black" points="0,-378.5 54,-378.5 "/>
<text text-anchor="middle" x="27" y="-363.3" font-family="arial" font-size="14.00">1</text>
</g>
<!-- W1_w1l -->
<g id="node13" class="node">
<title>W1_w1l</title>
<ellipse fill="white" stroke="black" cx="231" cy="-248.5" rx="0" ry="0"/>
</g>
<!-- F1&#45;&#45;W1_w1l -->
<g id="edge2" class="edge">
<title>F1:p1r&#45;&#45;W1_w1l:w</title>
<path fill="none" stroke="#000000" stroke-width="2" d="M54,-364.5C146.19,-366.71 133.83,-248.71 230,-246.5"/>
<path fill="none" stroke="#666600" stroke-width="2" d="M54,-366.5C148.18,-366.5 135.82,-248.5 230,-248.5"/>
<path fill="none" stroke="#000000" stroke-width="2" d="M54,-368.5C150.17,-366.29 137.81,-248.29 230,-250.5"/>
<text text-anchor="middle" x="226.16" y="-254.04" font-family="arial" font-size="14.00"> &#160;&#160;&#160;&#160;&#160;&#160;&#160;&#160;&#160;&#160;&#160;F1:1</text>
</g>
<!-- F2 -->
<g id="node2" class="node">
<title>F2</title>
<polygon fill="white" stroke="black" points="0,-284.5 0,-330.5 54,-330.5 54,-284.5 0,-284.5"/>
<text text-anchor="middle" x="27" y="-315.3" font-family="arial" font-size="14.00">crimp</text>
<polyline fill="none" stroke="black" points="0,-307.5 54,-307.5 "/>
<text text-anchor="middle" x="27" y="-292.3" font-family="arial" font-size="14.00">1</text>
</g>
<!-- W1_w2l -->
<g id="node15" class="node">
<title>W1_w2l</title>
<ellipse fill="white" stroke="black" cx="231" cy="-224.5" rx="0" ry="0"/>
</g>
<!-- F2&#45;&#45;W1_w2l -->
<g id="edge4" class="edge">
<title>F2:p1r&#45;&#45;W1_w2l:w</title>
<path fill="none" stroke="#000000" stroke-width="2" d="M54,-293.5C136.36,-295.3 143.66,-224.3 230,-222.5"/>
<path fill="none" stroke="#ff0000" stroke-width="2" d="M54,-295.5C138.35,-295.5 145.65,-224.5 230,-224.5"/>
<path fill="none" stroke="#000000" stroke-width="2" d="M54,-297.5C140.34,-295.7 147.64,-224.7 230,-226.5"/>
<text text-anchor="middle" x="225.76" y="-229.86" font-family="arial" font-size="14.00"> &#160;&#160;&#160;&#160;&#160;&#160;&#160;&#160;&#160;&#160;&#160;F2:1</text>
</g>
<!-- F3 -->
<g id="node3" class="node">
<title>F3</title>
<polygon fill="white" stroke="black" points="0,-213.5 0,-259.5 54,-259.5 54,-213.5 0,-213.5"/>
<text text-anchor="middle" x="27" y="-244.3" font-family="arial" font-size="14.00">crimp</text>
<polyline fill="none" stroke="black" points="0,-236.5 54,-236.5 "/>
<text text-anchor="middle" x="27" y="-221.3" font-family="arial" font-size="14.00">1</text>
</g>
<!-- W1_w3l -->
<g id="node17" class="node">
<title>W1_w3l</title>
<ellipse fill="white" stroke="black" cx="231" cy="-200.5" rx="0" ry="0"/>
</g>
<!-- F3&#45;&#45;W1_w3l -->
<g id="edge6" class="edge">
<title>F3:p1r&#45;&#45;W1_w3l:w</title>
<path fill="none" stroke="#000000" stroke-width="2" d="M54,-222.5C131.35,-223.3 149.46,-199.3 230,-198.5"/>
<path fill="none" stroke="#ff8000" stroke-width="2" d="M54,-224.5C132.95,-224.5 151.05,-200.5 230,-200.5"/>
<path fill="none" stroke="#000000" stroke-width="2" d="M54,-226.5C134.54,-225.7 152.65,-201.7 230,-202.5"/>
<text text-anchor="middle" x="225.27" y="-205.61" font-family="arial" font-size="14.00"> &#160;&#160;&#160;&#160;&#160;&#160;&#160;&#160;&#160;&#160;&#160;F3:1</text>
</g>
<!-- F4 -->
<g id="node4" class="node">
<title>F4</title>
<polygon fill="white" stroke="black" points="0,-142.5 0,-188.5 54,-188.5 54,-142.5 0,-142.5"/>
<text text-anchor="middle" x="27" y="-173.3" font-family="arial" font-size="14.00">crimp</text>
<polyline fill="none" stroke="black" points="0,-165.5 54,-165.5 "/>
<text text-anchor="middle" x="27" y="-150.3" font-family="arial" font-size="14.00">1</text>
</g>
<!-- W1_w4l -->
<g id="node19" class="node">
<title>W1_w4l</title>
<ellipse fill="white" stroke="black" cx="231" cy="-176.5" rx="0" ry="0"/>
</g>
<!-- F4&#45;&#45;W1_w4l -->
<g id="edge8" class="edge">
<title>F4:p1r&#45;&#45;W1_w4l:w</title>
<path fill="none" stroke="#000000" stroke-width="2" d="M54,-151.5C134.45,-152.26 152.68,-175.26 230,-174.5"/>
<path fill="none" stroke="#ffff00" stroke-width="2" d="M54,-153.5C132.89,-153.5 151.11,-176.5 230,-176.5"/>
<path fill="none" stroke="#000000" stroke-width="2" d="M54,-155.5C131.32,-154.74 149.55,-177.74 230,-178.5"/>
<text text-anchor="middle" x="224.75" y="-181.31" font-family="arial" font-size="14.00"> &#160;&#160;&#160;&#160;&#160;&#160;&#160;&#160;&#160;&#160;&#160;F4:1</text>
</g>
<!-- F5 -->
<g id="node5" class="node">
<title>F5</title>
<polygon fill="white" stroke="black" points="0,-71.5 0,-117.5 54,-117.5 54,-71.5 0,-71.5"/>
<text text-anchor="middle" x="27" y="-102.3" font-family="arial" font-size="14.00">crimp</text>
<polyline fill="none" stroke="black" points="0,-94.5 54,-94.5 "/>
<text text-anchor="middle" x="27" y="-79.3" font-family="arial" font-size="14.00">1</text>
</g>
<!-- W1_w5l -->
<g id="node21" class="node">
<title>W1_w5l</title>
<ellipse fill="white" stroke="black" cx="231" cy="-152.5" rx="0" ry="0"/>
</g>
<!-- F5&#45;&#45;W1_w5l -->
<g id="edge10" class="edge">
<title>F5:p1r&#45;&#45;W1_w5l:w</title>
<path fill="none" stroke="#000000" stroke-width="2" d="M54,-80.5C140.17,-82.28 147.81,-152.28 230,-150.5"/>
<path fill="none" stroke="#00ff00" stroke-width="2" d="M54,-82.5C138.18,-82.5 145.82,-152.5 230,-152.5"/>
<path fill="none" stroke="#000000" stroke-width="2" d="M54,-84.5C136.19,-82.72 143.83,-152.72 230,-154.5"/>
<text text-anchor="middle" x="224.29" y="-157.01" font-family="arial" font-size="14.00"> &#160;&#160;&#160;&#160;&#160;&#160;&#160;&#160;&#160;&#160;&#160;F5:1</text>
</g>
<!-- F6 -->
<g id="node6" class="node">
<title>F6</title>
<polygon fill="white" stroke="black" points="0,-0.5 0,-46.5 54,-46.5 54,-0.5 0,-0.5"/>
<text text-anchor="middle" x="27" y="-31.3" font-family="arial" font-size="14.00">crimp</text>
<polyline fill="none" stroke="black" points="0,-23.5 54,-23.5 "/>
<text text-anchor="middle" x="27" y="-8.3" font-family="arial" font-size="14.00">1</text>
</g>
<!-- W1_w6l -->
<g id="node23" class="node">
<title>W1_w6l</title>
<ellipse fill="white" stroke="black" cx="231" cy="-128.5" rx="0" ry="0"/>
</g>
<!-- F6&#45;&#45;W1_w6l -->
<g id="edge12" class="edge">
<title>F6:p1r&#45;&#45;W1_w6l:w</title>
<path fill="none" stroke="#000000" stroke-width="2" d="M54,-9.5C149.92,-11.7 138.06,-128.7 230,-126.5"/>
<path fill="none" stroke="#0066ff" stroke-width="2" d="M54,-11.5C147.93,-11.5 136.07,-128.5 230,-128.5"/>
<path fill="none" stroke="#000000" stroke-width="2" d="M54,-13.5C145.94,-11.3 134.08,-128.3 230,-130.5"/>
<text text-anchor="middle" x="223.93" y="-132.74" font-family="arial" font-size="14.00"> &#160;&#160;&#160;&#160;&#160;&#160;&#160;&#160;&#160;&#160;&#160;F6:1</text>
</g>
<!-- F7 -->
<g id="node7" class="node">
<title>F7</title>
<polygon fill="white" stroke="black" points="552,-0.5 552,-46.5 606,-46.5 606,-0.5 552,-0.5"/>
<text text-anchor="middle" x="579" y="-31.3" font-family="arial" font-size="14.00">crimp</text>
<polyline fill="none" stroke="black" points="552,-23.5 606,-23.5 "/>
<text text-anchor="middle" x="579" y="-8.3" font-family="arial" font-size="14.00">1</text>
</g>
<!-- F8 -->
<g id="node8" class="node">
<title>F8</title>
<polygon fill="white" stroke="black" points="552,-71.5 552,-117.5 606,-117.5 606,-71.5 552,-71.5"/>
<text text-anchor="middle" x="579" y="-102.3" font-family="arial" font-size="14.00">crimp</text>
<polyline fill="none" stroke="black" points="552,-94.5 606,-94.5 "/>
<text text-anchor="middle" x="579" y="-79.3" font-family="arial" font-size="14.00">1</text>
</g>
<!-- F9 -->
<g id="node9" class="node">
<title>F9</title>
<polygon fill="white" stroke="black" points="552,-142.5 552,-188.5 606,-188.5 606,-142.5 552,-142.5"/>
<text text-anchor="middle" x="579" y="-173.3" font-family="arial" font-size="14.00">crimp</text>
<polyline fill="none" stroke="black" points="552,-165.5 606,-165.5 "/>
<text text-anchor="middle" x="579" y="-150.3" font-family="arial" font-size="14.00">1</text>
</g>
<!-- F10 -->
<g id="node10" class="node">
<title>F10</title>
<polygon fill="white" stroke="black" points="552,-213.5 552,-259.5 606,-259.5 606,-213.5 552,-213.5"/>
<text text-anchor="middle" x="579" y="-244.3" font-family="arial" font-size="14.00">crimp</text>
<polyline fill="none" stroke="black" points="552,-236.5 606,-236.5 "/>
<text text-anchor="middle" x="579" y="-221.3" font-family="arial" font-size="14.00">1</text>
</g>
<!-- F11 -->
<g id="node11" class="node">
<title>F11</title>
<polygon fill="white" stroke="black" points="552,-284.5 552,-330.5 606,-330.5 606,-284.5 552,-284.5"/>
<text text-anchor="middle" x="579" y="-315.3" font-family="arial" font-size="14.00">crimp</text>
<polyline fill="none" stroke="black" points="552,-307.5 606,-307.5 "/>
<text text-anchor="middle" x="579" y="-292.3" font-family="arial" font-size="14.00">1</text>
</g>
<!-- F12 -->
<g id="node12" class="node">
<title>F12</title>
<polygon fill="white" stroke="black" points="552,-355.5 552,-401.5 606,-401.5 606,-355.5 552,-355.5"/>
<text text-anchor="middle" x="579" y="-386.3" font-family="arial" font-size="14.00">crimp</text>
<polyline fill="none" stroke="black" points="552,-378.5 606,-378.5 "/>
<text text-anchor="middle" x="579" y="-363.3" font-family="arial" font-size="14.00">1</text>
</g>
<!-- W1_w1r -->
<g id="node14" class="node">
<title>W1_w1r</title>
<ellipse fill="white" stroke="black" cx="375" cy="-248.5" rx="0" ry="0"/>
</g>
<!-- W1_w1l&#45;&#45;W1_w1r -->
<g id="edge1" class="edge">
<title>W1_w1l&#45;&#45;W1_w1r</title>
<path fill="none" stroke="#000000" stroke-width="2" d="M232.1,-246.5C236.34,-246.5 369.73,-246.5 373.9,-246.5"/>
<path fill="none" stroke="#666600" stroke-width="2" d="M232.1,-248.5C236.34,-248.5 369.73,-248.5 373.9,-248.5"/>
<path fill="none" stroke="#000000" stroke-width="2" d="M232.1,-250.5C236.34,-250.5 369.73,-250.5 373.9,-250.5"/>
<text text-anchor="middle" x="237.1" y="-253.46" font-family="arial" font-size="14.00"> &#160;&#160;&#160;&#160;&#160;&#160;&#160;&#160;&#160;&#160;&#160;&#160;&#160;&#160;&#160;&#160;&#160;&#160;&#160;&#160;&#160;&#160;&#160;&#160;&#160;&#160;&#160;&#160;&#160;&#160;&#160;&#160;&#160;&#160;BN</text>
</g>
<!-- W1_w1r&#45;&#45;F12 -->
<g id="edge18" class="edge">
<title>W1_w1r:e&#45;&#45;F12:p1l</title>
<path fill="none" stroke="#000000" stroke-width="2" d="M376,-246.5C472.17,-248.71 459.81,-366.71 552,-364.5"/>
<path fill="none" stroke="#666600" stroke-width="2" d="M376,-248.5C470.18,-248.5 457.82,-366.5 552,-366.5"/>
<path fill="none" stroke="#000000" stroke-width="2" d="M376,-250.5C468.19,-248.29 455.83,-366.29 552,-368.5"/>
<text text-anchor="middle" x="379.84" y="-254.04" font-family="arial" font-size="14.00">F12:1 &#160;&#160;&#160;&#160;&#160;&#160;&#160;&#160;&#160;&#160;&#160;</text>
</g>
<!-- W1_w2r -->
<g id="node16" class="node">
<title>W1_w2r</title>
<ellipse fill="white" stroke="black" cx="375" cy="-224.5" rx="0" ry="0"/>
</g>
<!-- W1_w2l&#45;&#45;W1_w2r -->
<g id="edge3" class="edge">
<title>W1_w2l&#45;&#45;W1_w2r</title>
<path fill="none" stroke="#000000" stroke-width="2" d="M232.1,-222.5C236.34,-222.5 369.73,-222.5 373.9,-222.5"/>
<path fill="none" stroke="#ff0000" stroke-width="2" d="M232.1,-224.5C236.34,-224.5 369.73,-224.5 373.9,-224.5"/>
<path fill="none" stroke="#000000" stroke-width="2" d="M232.1,-226.5C236.34,-226.5 369.73,-226.5 373.9,-226.5"/>
<text text-anchor="middle" x="237.1" y="-229.46" font-family="arial" font-size="14.00"> &#160;&#160;&#160;&#160;&#160;&#160;&#160;&#160;&#160;&#160;&#160;&#160;&#160;&#160;&#160;&#160;&#160;&#160;&#160;&#160;&#160;&#160;&#160;&#160;&#160;&#160;&#160;&#160;&#160;&#160;&#160;&#160;&#160;&#160;RD</text>
</g>
<!-- W1_w2r&#45;&#45;F11 -->
<g id="edge17" class="edge">
<title>W1_w2r:e&#45;&#45;F11:p1l</title>
<path fill="none" stroke="#000000" stroke-width="2" d="M376,-222.5C462.34,-224.3 469.64,-295.3 552,-293.5"/>
<path fill="none" stroke="#ff0000" stroke-width="2" d="M376,-224.5C460.35,-224.5 467.65,-295.5 552,-295.5"/>
<path fill="none" stroke="#000000" stroke-width="2" d="M376,-226.5C458.36,-224.7 465.66,-295.7 552,-297.5"/>
<text text-anchor="middle" x="380.24" y="-229.86" font-family="arial" font-size="14.00">F11:1 &#160;&#160;&#160;&#160;&#160;&#160;&#160;&#160;&#160;&#160;&#160;</text>
</g>
<!-- W1_w3r -->
<g id="node18" class="node">
<title>W1_w3r</title>
<ellipse fill="white" stroke="black" cx="375" cy="-200.5" rx="0" ry="0"/>
</g>
<!-- W1_w3l&#45;&#45;W1_w3r -->
<g id="edge5" class="edge">
<title>W1_w3l&#45;&#45;W1_w3r</title>
<path fill="none" stroke="#000000" stroke-width="2" d="M232.1,-198.5C236.34,-198.5 369.73,-198.5 373.9,-198.5"/>
<path fill="none" stroke="#ff8000" stroke-width="2" d="M232.1,-200.5C236.34,-200.5 369.73,-200.5 373.9,-200.5"/>
<path fill="none" stroke="#000000" stroke-width="2" d="M232.1,-202.5C236.34,-202.5 369.73,-202.5 373.9,-202.5"/>
<text text-anchor="middle" x="237.1" y="-205.46" font-family="arial" font-size="14.00"> &#160;&#160;&#160;&#160;&#160;&#160;&#160;&#160;&#160;&#160;&#160;&#160;&#160;&#160;&#160;&#160;&#160;&#160;&#160;&#160;&#160;&#160;&#160;&#160;&#160;&#160;&#160;&#160;&#160;&#160;&#160;&#160;&#160;&#160;OG</text>
</g>
<!-- W1_w3r&#45;&#45;F10 -->
<g id="edge16" class="edge">
<title>W1_w3r:e&#45;&#45;F10:p1l</title>
<path fill="none" stroke="#000000" stroke-width="2" d="M376,-198.5C456.54,-199.3 474.65,-223.3 552,-222.5"/>
<path fill="none" stroke="#ff8000" stroke-width="2" d="M376,-200.5C454.95,-200.5 473.05,-224.5 552,-224.5"/>
<path fill="none" stroke="#000000" stroke-width="2" d="M376,-202.5C453.35,-201.7 471.46,-225.7 552,-226.5"/>
<text text-anchor="middle" x="380.73" y="-205.61" font-family="arial" font-size="14.00">F10:1 &#160;&#160;&#160;&#160;&#160;&#160;&#160;&#160;&#160;&#160;&#160;</text>
</g>
<!-- W1_w4r -->
<g id="node20" class="node">
<title>W1_w4r</title>
<ellipse fill="white" stroke="black" cx="375" cy="-176.5" rx="0" ry="0"/>
</g>
<!-- W1_w4l&#45;&#45;W1_w4r -->
<g id="edge7" class="edge">
<title>W1_w4l&#45;&#45;W1_w4r</title>
<path fill="none" stroke="#000000" stroke-width="2" d="M232.1,-174.5C236.34,-174.5 369.73,-174.5 373.9,-174.5"/>
<path fill="none" stroke="#ffff00" stroke-width="2" d="M232.1,-176.5C236.34,-176.5 369.73,-176.5 373.9,-176.5"/>
<path fill="none" stroke="#000000" stroke-width="2" d="M232.1,-178.5C236.34,-178.5 369.73,-178.5 373.9,-178.5"/>
<text text-anchor="middle" x="237.1" y="-181.46" font-family="arial" font-size="14.00"> &#160;&#160;&#160;&#160;&#160;&#160;&#160;&#160;&#160;&#160;&#160;&#160;&#160;&#160;&#160;&#160;&#160;&#160;&#160;&#160;&#160;&#160;&#160;&#160;&#160;&#160;&#160;&#160;&#160;&#160;&#160;&#160;&#160;&#160;YE</text>
</g>
<!-- W1_w4r&#45;&#45;F9 -->
<g id="edge15" class="edge">
<title>W1_w4r:e&#45;&#45;F9:p1l</title>
<path fill="none" stroke="#000000" stroke-width="2" d="M376,-174.5C453.32,-175.26 471.55,-152.26 552,-151.5"/>
<path fill="none" stroke="#ffff00" stroke-width="2" d="M376,-176.5C454.89,-176.5 473.11,-153.5 552,-153.5"/>
<path fill="none" stroke="#000000" stroke-width="2" d="M376,-178.5C456.45,-177.74 474.68,-154.74 552,-155.5"/>
<text text-anchor="middle" x="381.25" y="-181.31" font-family="arial" font-size="14.00">F9:1 &#160;&#160;&#160;&#160;&#160;&#160;&#160;&#160;&#160;&#160;&#160;</text>
</g>
<!-- W1_w5r -->
<g id="node22" class="node">
<title>W1_w5r</title>
<ellipse fill="white" stroke="black" cx="375" cy="-152.5" rx="0" ry="0"/>
</g>
<!-- W1_w5l&#45;&#45;W1_w5r -->
<g id="edge9" class="edge">
<title>W1_w5l&#45;&#45;W1_w5r</title>
<path fill="none" stroke="#000000" stroke-width="2" d="M232.1,-150.5C236.34,-150.5 369.73,-150.5 373.9,-150.5"/>
<path fill="none" stroke="#00ff00" stroke-width="2" d="M232.1,-152.5C236.34,-152.5 369.73,-152.5 373.9,-152.5"/>
<path fill="none" stroke="#000000" stroke-width="2" d="M232.1,-154.5C236.34,-154.5 369.73,-154.5 373.9,-154.5"/>
<text text-anchor="middle" x="237.1" y="-157.46" font-family="arial" font-size="14.00"> &#160;&#160;&#160;&#160;&#160;&#160;&#160;&#160;&#160;&#160;&#160;&#160;&#160;&#160;&#160;&#160;&#160;&#160;&#160;&#160;&#160;&#160;&#160;&#160;&#160;&#160;&#160;&#160;&#160;&#160;&#160;&#160;&#160;&#160;GN</text>
</g>
<!-- W1_w5r&#45;&#45;F8 -->
<g id="edge14" class="edge">
<title>W1_w5r:e&#45;&#45;F8:p1l</title>
<path fill="none" stroke="#000000" stroke-width="2" d="M376,-150.5C458.19,-152.28 465.83,-82.28 552,-80.5"/>
<path fill="none" stroke="#00ff00" stroke-width="2" d="M376,-152.5C460.18,-152.5 467.82,-82.5 552,-82.5"/>
<path fill="none" stroke="#000000" stroke-width="2" d="M376,-154.5C462.17,-152.72 469.81,-82.72 552,-84.5"/>
<text text-anchor="middle" x="381.71" y="-157.01" font-family="arial" font-size="14.00">F8:1 &#160;&#160;&#160;&#160;&#160;&#160;&#160;&#160;&#160;&#160;&#160;</text>
</g>
<!-- W1_w6r -->
<g id="node24" class="node">
<title>W1_w6r</title>
<ellipse fill="white" stroke="black" cx="375" cy="-128.5" rx="0" ry="0"/>
</g>
<!-- W1_w6l&#45;&#45;W1_w6r -->
<g id="edge11" class="edge">
<title>W1_w6l&#45;&#45;W1_w6r</title>
<path fill="none" stroke="#000000" stroke-width="2" d="M232.1,-126.5C236.34,-126.5 369.73,-126.5 373.9,-126.5"/>
<path fill="none" stroke="#0066ff" stroke-width="2" d="M232.1,-128.5C236.34,-128.5 369.73,-128.5 373.9,-128.5"/>
<path fill="none" stroke="#000000" stroke-width="2" d="M232.1,-130.5C236.34,-130.5 369.73,-130.5 373.9,-130.5"/>
<text text-anchor="middle" x="237.1" y="-133.46" font-family="arial" font-size="14.00"> &#160;&#160;&#160;&#160;&#160;&#160;&#160;&#160;&#160;&#160;&#160;&#160;&#160;&#160;&#160;&#160;&#160;&#160;&#160;&#160;&#160;&#160;&#160;&#160;&#160;&#160;&#160;&#160;&#160;&#160;&#160;&#160;&#160;&#160;BU</text>
</g>
<!-- W1_w6r&#45;&#45;F7 -->
<g id="edge13" class="edge">
<title>W1_w6r:e&#45;&#45;F7:p1l</title>
<path fill="none" stroke="#000000" stroke-width="2" d="M376,-126.5C467.94,-128.7 456.08,-11.7 552,-9.5"/>
<path fill="none" stroke="#0066ff" stroke-width="2" d="M376,-128.5C469.93,-128.5 458.07,-11.5 552,-11.5"/>
<path fill="none" stroke="#000000" stroke-width="2" d="M376,-130.5C471.92,-128.3 460.06,-11.3 552,-13.5"/>
<text text-anchor="middle" x="382.07" y="-132.74" font-family="arial" font-size="14.00">F7:1 &#160;&#160;&#160;&#160;&#160;&#160;&#160;&#160;&#160;&#160;&#160;</text>
</g>
</g>
</svg>
