<?xml version="1.0" encoding="UTF-8" standalone="no"?>
<!DOCTYPE svg PUBLIC "-//W3C//DTD SVG 1.1//EN"
 "http://www.w3.org/Graphics/SVG/1.1/DTD/svg11.dtd">
<!-- Generated by graphviz version 2.38.0 (20140413.2041)
 -->
<!-- Title: %3 Pages: 1 -->
<svg width="727pt" height="344pt"
 viewBox="0.00 0.00 727.00 344.00" xmlns="http://www.w3.org/2000/svg" xmlns:xlink="http://www.w3.org/1999/xlink">
<g id="graph0" class="graph" transform="scale(1 1) rotate(0) translate(4 340)">
<title>%3</title>
<polygon fill="#fffbf8" stroke="none" points="-4,4 -4,-340 723,-340 723,4 -4,4"/>
<!-- _F1 -->
<g id="node1" class="node"><title>_F1</title>
<polygon fill="white" stroke="none" points="0,-300 112,-300 112,-336 0,-336 0,-300"/>
<text text-anchor="start" x="3" y="-313.8" font-family="arial" font-size="14.00"> Crimp ferrule &#160;</text>
<text text-anchor="start" x="101" y="-313.8" font-family="arial" font-size="14.00"> &#160;</text>
<polygon fill="none" stroke="black" points="0,-307.5 0,-328.5 112,-328.5 112,-307.5 0,-307.5"/>
</g>
<!-- W1 -->
<g id="node13" class="node"><title>W1</title>
<polygon fill="white" stroke="black" stroke-dasharray="5,2" points="463,-298 256,-298 256,-98 463,-98 463,-298"/>
<polygon fill="none" stroke="black" points="256.5,-275 256.5,-298 463.5,-298 463.5,-275 256.5,-275"/>
<text text-anchor="start" x="348.5" y="-282.8" font-family="arial" font-size="14.00">W1</text>
<polygon fill="none" stroke="black" points="256.5,-252 256.5,-275 280.5,-275 280.5,-252 256.5,-252"/>
<text text-anchor="start" x="260.5" y="-259.8" font-family="arial" font-size="14.00">6x</text>
<polygon fill="none" stroke="black" points="280.5,-252 280.5,-275 418.5,-275 418.5,-252 280.5,-252"/>
<text text-anchor="start" x="284.5" y="-259.8" font-family="arial" font-size="14.00">0.25 mm² (24 AWG)</text>
<polygon fill="none" stroke="black" points="418.5,-252 418.5,-275 463.5,-275 463.5,-252 418.5,-252"/>
<text text-anchor="start" x="422.5" y="-259.8" font-family="arial" font-size="14.00">0.2 m</text>
<text text-anchor="start" x="350.5" y="-238.8" font-family="arial" font-size="14.00">BN</text>
<polygon fill="#000000" stroke="none" points="256.5,-231 256.5,-233 463.5,-233 463.5,-231 256.5,-231"/>
<polygon fill="#a52a2a" stroke="none" points="256.5,-229 256.5,-231 463.5,-231 463.5,-229 256.5,-229"/>
<polygon fill="#000000" stroke="none" points="256.5,-227 256.5,-229 463.5,-229 463.5,-227 256.5,-227"/>
<text text-anchor="start" x="349.5" y="-213.8" font-family="arial" font-size="14.00">RD</text>
<polygon fill="#000000" stroke="none" points="256.5,-206 256.5,-208 463.5,-208 463.5,-206 256.5,-206"/>
<polygon fill="#ff0000" stroke="none" points="256.5,-204 256.5,-206 463.5,-206 463.5,-204 256.5,-204"/>
<polygon fill="#000000" stroke="none" points="256.5,-202 256.5,-204 463.5,-204 463.5,-202 256.5,-202"/>
<text text-anchor="start" x="349" y="-188.8" font-family="arial" font-size="14.00">OG</text>
<polygon fill="#000000" stroke="none" points="256.5,-181 256.5,-183 463.5,-183 463.5,-181 256.5,-181"/>
<polygon fill="#ff8000" stroke="none" points="256.5,-179 256.5,-181 463.5,-181 463.5,-179 256.5,-179"/>
<polygon fill="#000000" stroke="none" points="256.5,-177 256.5,-179 463.5,-179 463.5,-177 256.5,-177"/>
<text text-anchor="start" x="351" y="-163.8" font-family="arial" font-size="14.00">YE</text>
<polygon fill="#000000" stroke="none" points="256.5,-156 256.5,-158 463.5,-158 463.5,-156 256.5,-156"/>
<polygon fill="#ffff00" stroke="none" points="256.5,-154 256.5,-156 463.5,-156 463.5,-154 256.5,-154"/>
<polygon fill="#000000" stroke="none" points="256.5,-152 256.5,-154 463.5,-154 463.5,-152 256.5,-152"/>
<text text-anchor="start" x="349.5" y="-138.8" font-family="arial" font-size="14.00">GN</text>
<polygon fill="#000000" stroke="none" points="256.5,-131 256.5,-133 463.5,-133 463.5,-131 256.5,-131"/>
<polygon fill="#00ff00" stroke="none" points="256.5,-129 256.5,-131 463.5,-131 463.5,-129 256.5,-129"/>
<polygon fill="#000000" stroke="none" points="256.5,-127 256.5,-129 463.5,-129 463.5,-127 256.5,-127"/>
<text text-anchor="start" x="350.5" y="-113.8" font-family="arial" font-size="14.00">BU</text>
<polygon fill="#000000" stroke="none" points="256.5,-106 256.5,-108 463.5,-108 463.5,-106 256.5,-106"/>
<polygon fill="#0066ff" stroke="none" points="256.5,-104 256.5,-106 463.5,-106 463.5,-104 256.5,-104"/>
<polygon fill="#000000" stroke="none" points="256.5,-102 256.5,-104 463.5,-104 463.5,-102 256.5,-102"/>
</g>
<!-- _F1&#45;&#45;W1 -->
<g id="edge1" class="edge"><title>_F1:e&#45;&#45;W1:w1:w</title>
<path fill="none" stroke="#000000" stroke-width="2" d="M112,-316C185.009,-318.136 179,-230.136 256,-228"/>
<path fill="none" stroke="#a52a2a" stroke-width="2" d="M112,-318C187.005,-318 180.995,-230 256,-230"/>
<path fill="none" stroke="#000000" stroke-width="2" d="M112,-320C189,-317.864 182.991,-229.864 256,-232"/>
</g>
<!-- _F2 -->
<g id="node2" class="node"><title>_F2</title>
<polygon fill="white" stroke="none" points="0,-240 112,-240 112,-276 0,-276 0,-240"/>
<text text-anchor="start" x="3" y="-253.8" font-family="arial" font-size="14.00"> Crimp ferrule &#160;</text>
<text text-anchor="start" x="101" y="-253.8" font-family="arial" font-size="14.00"> &#160;</text>
<polygon fill="none" stroke="black" points="0,-247.5 0,-268.5 112,-268.5 112,-247.5 0,-247.5"/>
</g>
<!-- _F2&#45;&#45;W1 -->
<g id="edge2" class="edge"><title>_F2:e&#45;&#45;W1:w2:w</title>
<path fill="none" stroke="#000000" stroke-width="2" d="M112,-256C178.218,-257.716 185.823,-204.716 256,-203"/>
<path fill="none" stroke="#ff0000" stroke-width="2" d="M112,-258C180.197,-258 187.803,-205 256,-205"/>
<path fill="none" stroke="#000000" stroke-width="2" d="M112,-260C182.177,-258.284 189.782,-205.284 256,-207"/>
</g>
<!-- _F3 -->
<g id="node3" class="node"><title>_F3</title>
<polygon fill="white" stroke="none" points="0,-180 112,-180 112,-216 0,-216 0,-180"/>
<text text-anchor="start" x="3" y="-193.8" font-family="arial" font-size="14.00"> Crimp ferrule &#160;</text>
<text text-anchor="start" x="101" y="-193.8" font-family="arial" font-size="14.00"> &#160;</text>
<polygon fill="none" stroke="black" points="0,-187.5 0,-208.5 112,-208.5 112,-187.5 0,-187.5"/>
</g>
<!-- _F3&#45;&#45;W1 -->
<g id="edge3" class="edge"><title>_F3:e&#45;&#45;W1:w3:w</title>
<path fill="none" stroke="#000000" stroke-width="2" d="M112,-196C174.962,-196.719 189.966,-178.719 256,-178"/>
<path fill="none" stroke="#ff8000" stroke-width="2" d="M112,-198C176.498,-198 191.502,-180 256,-180"/>
<path fill="none" stroke="#000000" stroke-width="2" d="M112,-200C178.034,-199.281 193.038,-181.281 256,-182"/>
</g>
<!-- _F4 -->
<g id="node4" class="node"><title>_F4</title>
<polygon fill="white" stroke="none" points="0,-120 112,-120 112,-156 0,-156 0,-120"/>
<text text-anchor="start" x="3" y="-133.8" font-family="arial" font-size="14.00"> Crimp ferrule &#160;</text>
<text text-anchor="start" x="101" y="-133.8" font-family="arial" font-size="14.00"> &#160;</text>
<polygon fill="none" stroke="black" points="0,-127.5 0,-148.5 112,-148.5 112,-127.5 0,-127.5"/>
</g>
<!-- _F4&#45;&#45;W1 -->
<g id="edge4" class="edge"><title>_F4:e&#45;&#45;W1:w4:w</title>
<path fill="none" stroke="#000000" stroke-width="2" d="M112,-136C177.939,-136.671 193.05,-153.671 256,-153"/>
<path fill="none" stroke="#ffff00" stroke-width="2" d="M112,-138C176.444,-138 191.556,-155 256,-155"/>
<path fill="none" stroke="#000000" stroke-width="2" d="M112,-140C174.95,-139.329 190.061,-156.329 256,-157"/>
</g>
<!-- _F5 -->
<g id="node5" class="node"><title>_F5</title>
<polygon fill="white" stroke="none" points="0,-60 112,-60 112,-96 0,-96 0,-60"/>
<text text-anchor="start" x="3" y="-73.8" font-family="arial" font-size="14.00"> Crimp ferrule &#160;</text>
<text text-anchor="start" x="101" y="-73.8" font-family="arial" font-size="14.00"> &#160;</text>
<polygon fill="none" stroke="black" points="0,-67.5 0,-88.5 112,-88.5 112,-67.5 0,-67.5"/>
</g>
<!-- _F5&#45;&#45;W1 -->
<g id="edge5" class="edge"><title>_F5:e&#45;&#45;W1:w5:w</title>
<path fill="none" stroke="#000000" stroke-width="2" d="M112,-76C182.022,-77.6992 189.932,-129.699 256,-128"/>
<path fill="none" stroke="#00ff00" stroke-width="2" d="M112,-78C180.045,-78 187.955,-130 256,-130"/>
<path fill="none" stroke="#000000" stroke-width="2" d="M112,-80C178.068,-78.3008 185.978,-130.301 256,-132"/>
</g>
<!-- _F6 -->
<g id="node6" class="node"><title>_F6</title>
<polygon fill="white" stroke="none" points="0,-0 112,-0 112,-36 0,-36 0,-0"/>
<text text-anchor="start" x="3" y="-13.8" font-family="arial" font-size="14.00"> Crimp ferrule &#160;</text>
<text text-anchor="start" x="101" y="-13.8" font-family="arial" font-size="14.00"> &#160;</text>
<polygon fill="none" stroke="black" points="0,-7.5 0,-28.5 112,-28.5 112,-7.5 0,-7.5"/>
</g>
<!-- _F6&#45;&#45;W1 -->
<g id="edge6" class="edge"><title>_F6:e&#45;&#45;W1:w6:w</title>
<path fill="none" stroke="#000000" stroke-width="2" d="M112,-16C188.77,-18.1273 183.222,-105.127 256,-103"/>
<path fill="none" stroke="#0066ff" stroke-width="2" d="M112,-18C186.774,-18 181.226,-105 256,-105"/>
<path fill="none" stroke="#000000" stroke-width="2" d="M112,-20C184.778,-17.8727 179.23,-104.873 256,-107"/>
</g>
<!-- _F7 -->
<g id="node7" class="node"><title>_F7</title>
<polygon fill="white" stroke="none" points="719,-36 607,-36 607,-0 719,-0 719,-36"/>
<text text-anchor="start" x="610" y="-13.8" font-family="arial" font-size="14.00"> &#160;</text>
<text text-anchor="start" x="622" y="-13.8" font-family="arial" font-size="14.00"> Crimp ferrule &#160;</text>
<polygon fill="none" stroke="black" points="607,-7.5 607,-28.5 719,-28.5 719,-7.5 607,-7.5"/>
</g>
<!-- _F8 -->
<g id="node8" class="node"><title>_F8</title>
<polygon fill="white" stroke="none" points="719,-96 607,-96 607,-60 719,-60 719,-96"/>
<text text-anchor="start" x="610" y="-73.8" font-family="arial" font-size="14.00"> &#160;</text>
<text text-anchor="start" x="622" y="-73.8" font-family="arial" font-size="14.00"> Crimp ferrule &#160;</text>
<polygon fill="none" stroke="black" points="607,-67.5 607,-88.5 719,-88.5 719,-67.5 607,-67.5"/>
</g>
<!-- _F9 -->
<g id="node9" class="node"><title>_F9</title>
<polygon fill="white" stroke="none" points="719,-156 607,-156 607,-120 719,-120 719,-156"/>
<text text-anchor="start" x="610" y="-133.8" font-family="arial" font-size="14.00"> &#160;</text>
<text text-anchor="start" x="622" y="-133.8" font-family="arial" font-size="14.00"> Crimp ferrule &#160;</text>
<polygon fill="none" stroke="black" points="607,-127.5 607,-148.5 719,-148.5 719,-127.5 607,-127.5"/>
</g>
<!-- _F10 -->
<g id="node10" class="node"><title>_F10</title>
<polygon fill="white" stroke="none" points="719,-216 607,-216 607,-180 719,-180 719,-216"/>
<text text-anchor="start" x="610" y="-193.8" font-family="arial" font-size="14.00"> &#160;</text>
<text text-anchor="start" x="622" y="-193.8" font-family="arial" font-size="14.00"> Crimp ferrule &#160;</text>
<polygon fill="none" stroke="black" points="607,-187.5 607,-208.5 719,-208.5 719,-187.5 607,-187.5"/>
</g>
<!-- _F11 -->
<g id="node11" class="node"><title>_F11</title>
<polygon fill="white" stroke="none" points="719,-276 607,-276 607,-240 719,-240 719,-276"/>
<text text-anchor="start" x="610" y="-253.8" font-family="arial" font-size="14.00"> &#160;</text>
<text text-anchor="start" x="622" y="-253.8" font-family="arial" font-size="14.00"> Crimp ferrule &#160;</text>
<polygon fill="none" stroke="black" points="607,-247.5 607,-268.5 719,-268.5 719,-247.5 607,-247.5"/>
</g>
<!-- _F12 -->
<g id="node12" class="node"><title>_F12</title>
<polygon fill="white" stroke="none" points="719,-336 607,-336 607,-300 719,-300 719,-336"/>
<text text-anchor="start" x="610" y="-313.8" font-family="arial" font-size="14.00"> &#160;</text>
<text text-anchor="start" x="622" y="-313.8" font-family="arial" font-size="14.00"> Crimp ferrule &#160;</text>
<polygon fill="none" stroke="black" points="607,-307.5 607,-328.5 719,-328.5 719,-307.5 607,-307.5"/>
</g>
<!-- W1&#45;&#45;_F7 -->
<g id="edge7" class="edge"><title>W1:w6:e&#45;&#45;_F7:w</title>
<path fill="none" stroke="#000000" stroke-width="2" d="M463,-103C535.778,-105.127 530.23,-18.1273 607,-16"/>
<path fill="none" stroke="#0066ff" stroke-width="2" d="M463,-105C537.774,-105 532.226,-18 607,-18"/>
<path fill="none" stroke="#000000" stroke-width="2" d="M463,-107C539.77,-104.873 534.222,-17.8727 607,-20"/>
</g>
<!-- W1&#45;&#45;_F8 -->
<g id="edge8" class="edge"><title>W1:w5:e&#45;&#45;_F8:w</title>
<path fill="none" stroke="#000000" stroke-width="2" d="M463,-128C529.068,-129.699 536.978,-77.6992 607,-76"/>
<path fill="none" stroke="#00ff00" stroke-width="2" d="M463,-130C531.045,-130 538.955,-78 607,-78"/>
<path fill="none" stroke="#000000" stroke-width="2" d="M463,-132C533.022,-130.301 540.932,-78.3008 607,-80"/>
</g>
<!-- W1&#45;&#45;_F9 -->
<g id="edge9" class="edge"><title>W1:w4:e&#45;&#45;_F9:w</title>
<path fill="none" stroke="#000000" stroke-width="2" d="M463,-153C525.95,-153.671 541.061,-136.671 607,-136"/>
<path fill="none" stroke="#ffff00" stroke-width="2" d="M463,-155C527.444,-155 542.556,-138 607,-138"/>
<path fill="none" stroke="#000000" stroke-width="2" d="M463,-157C528.939,-156.329 544.05,-139.329 607,-140"/>
</g>
<!-- W1&#45;&#45;_F10 -->
<g id="edge10" class="edge"><title>W1:w3:e&#45;&#45;_F10:w</title>
<path fill="none" stroke="#000000" stroke-width="2" d="M463,-178C529.034,-178.719 544.038,-196.719 607,-196"/>
<path fill="none" stroke="#ff8000" stroke-width="2" d="M463,-180C527.498,-180 542.502,-198 607,-198"/>
<path fill="none" stroke="#000000" stroke-width="2" d="M463,-182C525.962,-181.281 540.966,-199.281 607,-200"/>
</g>
<!-- W1&#45;&#45;_F11 -->
<g id="edge11" class="edge"><title>W1:w2:e&#45;&#45;_F11:w</title>
<path fill="none" stroke="#000000" stroke-width="2" d="M463,-203C533.177,-204.716 540.782,-257.716 607,-256"/>
<path fill="none" stroke="#ff0000" stroke-width="2" d="M463,-205C531.197,-205 538.803,-258 607,-258"/>
<path fill="none" stroke="#000000" stroke-width="2" d="M463,-207C529.218,-205.284 536.823,-258.284 607,-260"/>
</g>
<!-- W1&#45;&#45;_F12 -->
<g id="edge12" class="edge"><title>W1:w1:e&#45;&#45;_F12:w</title>
<path fill="none" stroke="#000000" stroke-width="2" d="M463,-228C540,-230.136 533.991,-318.136 607,-316"/>
<path fill="none" stroke="#a52a2a" stroke-width="2" d="M463,-230C538.005,-230 531.995,-318 607,-318"/>
<path fill="none" stroke="#000000" stroke-width="2" d="M463,-232C536.009,-229.864 530,-317.864 607,-320"/>
</g>
</g>
</svg>
