<?xml version="1.0" encoding="UTF-8" standalone="no"?>
<!DOCTYPE svg PUBLIC "-//W3C//DTD SVG 1.1//EN"
 "http://www.w3.org/Graphics/SVG/1.1/DTD/svg11.dtd">
<!-- Generated by graphviz version 10.0.1 (20240210.2158)
 -->
<!-- Pages: 1 -->
<svg width="665pt" height="291pt"
 viewBox="0.00 0.00 665.25 290.62" xmlns="http://www.w3.org/2000/svg" xmlns:xlink="http://www.w3.org/1999/xlink">
<g id="graph0" class="graph" transform="scale(1 1) rotate(0) translate(4 286.62)">
<polygon fill="#ffffff" stroke="none" points="-4,4 -4,-286.62 661.25,-286.62 661.25,4 -4,4"/>
<!-- __F_1 -->
<g id="node1" class="node">
<title>__F_1</title>
<polygon fill="#ffffff" stroke="black" points="86.75,-263.75 0,-263.75 0,-240 86.75,-240 86.75,-263.75"/>
<polygon fill="none" stroke="black" points="0,-240 0,-263.75 86.75,-263.75 86.75,-240 0,-240"/>
<text text-anchor="start" x="4" y="-246.45" font-family="arial" font-size="14.00">Crimp ferrule</text>
</g>
<!-- W1 -->
<g id="node13" class="node">
<title>W1</title>
<polygon fill="#ffffff" stroke="black" stroke-dasharray="5,2" points="426.5,-282.62 230.75,-282.62 230.75,-47.12 426.5,-47.12 426.5,-282.62"/>
<polygon fill="none" stroke="black" points="230.75,-258.88 230.75,-282.62 426.5,-282.62 426.5,-258.88 230.75,-258.88"/>
<text text-anchor="start" x="318.12" y="-265.32" font-family="arial" font-size="14.00">W1</text>
<polygon fill="none" stroke="black" points="230.75,-235.12 230.75,-258.88 253,-258.88 253,-235.12 230.75,-235.12"/>
<text text-anchor="start" x="234.75" y="-241.57" font-family="arial" font-size="14.00">6x</text>
<polygon fill="none" stroke="black" points="253,-235.12 253,-258.88 384,-258.88 384,-235.12 253,-235.12"/>
<text text-anchor="start" x="257" y="-241.57" font-family="arial" font-size="14.00">0.25 mm² (24 AWG)</text>
<polygon fill="none" stroke="black" points="384,-235.12 384,-258.88 426.5,-258.88 426.5,-235.12 384,-235.12"/>
<text text-anchor="start" x="388" y="-241.57" font-family="arial" font-size="14.00">0.2 m</text>
<text text-anchor="start" x="253.17" y="-219.82" font-family="arial" font-size="14.00"> </text>
<text text-anchor="start" x="303.88" y="-200.82" font-family="arial" font-size="14.00"> &#160;&#160;&#160;&#160;BN &#160;&#160;&#160;</text>
<polygon fill="#000000" stroke="none" points="230.75,-195.12 230.75,-197.12 426.5,-197.12 426.5,-195.12 230.75,-195.12"/>
<polygon fill="#895956" stroke="none" points="230.75,-193.12 230.75,-195.12 426.5,-195.12 426.5,-193.12 230.75,-193.12"/>
<polygon fill="#000000" stroke="none" points="230.75,-191.12 230.75,-193.12 426.5,-193.12 426.5,-191.12 230.75,-191.12"/>
<text text-anchor="start" x="303.5" y="-175.82" font-family="arial" font-size="14.00"> &#160;&#160;&#160;&#160;RD &#160;&#160;&#160;</text>
<polygon fill="#000000" stroke="none" points="230.75,-170.12 230.75,-172.12 426.5,-172.12 426.5,-170.12 230.75,-170.12"/>
<polygon fill="#ff0000" stroke="none" points="230.75,-168.12 230.75,-170.12 426.5,-170.12 426.5,-168.12 230.75,-168.12"/>
<polygon fill="#000000" stroke="none" points="230.75,-166.12 230.75,-168.12 426.5,-168.12 426.5,-166.12 230.75,-166.12"/>
<text text-anchor="start" x="302" y="-150.82" font-family="arial" font-size="14.00"> &#160;&#160;&#160;&#160;OG &#160;&#160;&#160;</text>
<polygon fill="#000000" stroke="none" points="230.75,-145.12 230.75,-147.12 426.5,-147.12 426.5,-145.12 230.75,-145.12"/>
<polygon fill="#ff8000" stroke="none" points="230.75,-143.12 230.75,-145.12 426.5,-145.12 426.5,-143.12 230.75,-143.12"/>
<polygon fill="#000000" stroke="none" points="230.75,-141.12 230.75,-143.12 426.5,-143.12 426.5,-141.12 230.75,-141.12"/>
<text text-anchor="start" x="304.25" y="-125.83" font-family="arial" font-size="14.00"> &#160;&#160;&#160;&#160;YE &#160;&#160;&#160;</text>
<polygon fill="#000000" stroke="none" points="230.75,-120.12 230.75,-122.12 426.5,-122.12 426.5,-120.12 230.75,-120.12"/>
<polygon fill="#ffff00" stroke="none" points="230.75,-118.12 230.75,-120.12 426.5,-120.12 426.5,-118.12 230.75,-118.12"/>
<polygon fill="#000000" stroke="none" points="230.75,-116.12 230.75,-118.12 426.5,-118.12 426.5,-116.12 230.75,-116.12"/>
<text text-anchor="start" x="302.75" y="-100.83" font-family="arial" font-size="14.00"> &#160;&#160;&#160;&#160;GN &#160;&#160;&#160;</text>
<polygon fill="#000000" stroke="none" points="230.75,-95.12 230.75,-97.12 426.5,-97.12 426.5,-95.12 230.75,-95.12"/>
<polygon fill="#00ff00" stroke="none" points="230.75,-93.12 230.75,-95.12 426.5,-95.12 426.5,-93.12 230.75,-93.12"/>
<polygon fill="#000000" stroke="none" points="230.75,-91.12 230.75,-93.12 426.5,-93.12 426.5,-91.12 230.75,-91.12"/>
<text text-anchor="start" x="303.88" y="-75.83" font-family="arial" font-size="14.00"> &#160;&#160;&#160;&#160;BU &#160;&#160;&#160;</text>
<polygon fill="#000000" stroke="none" points="230.75,-70.12 230.75,-72.12 426.5,-72.12 426.5,-70.12 230.75,-70.12"/>
<polygon fill="#0066ff" stroke="none" points="230.75,-68.12 230.75,-70.12 426.5,-70.12 426.5,-68.12 230.75,-68.12"/>
<polygon fill="#000000" stroke="none" points="230.75,-66.12 230.75,-68.12 426.5,-68.12 426.5,-66.12 230.75,-66.12"/>
<text text-anchor="start" x="253.17" y="-50.83" font-family="arial" font-size="14.00"> </text>
</g>
<!-- __F_1&#45;&#45;W1 -->
<g id="edge1" class="edge">
<title>__F_1:e&#45;&#45;W1:w</title>
<path fill="none" stroke="#000000" stroke-width="2" d="M86.75,-249.88C153.76,-251.67 159.76,-193.67 230.75,-191.88"/>
<path fill="none" stroke="#895956" stroke-width="2" d="M86.75,-251.88C155.75,-251.88 161.75,-193.88 230.75,-193.88"/>
<path fill="none" stroke="#000000" stroke-width="2" d="M86.75,-253.87C157.74,-252.08 163.74,-194.08 230.75,-195.87"/>
</g>
<!-- __F_2 -->
<g id="node2" class="node">
<title>__F_2</title>
<polygon fill="#ffffff" stroke="black" points="86.75,-215.75 0,-215.75 0,-192 86.75,-192 86.75,-215.75"/>
<polygon fill="none" stroke="black" points="0,-192 0,-215.75 86.75,-215.75 86.75,-192 0,-192"/>
<text text-anchor="start" x="4" y="-198.45" font-family="arial" font-size="14.00">Crimp ferrule</text>
</g>
<!-- __F_2&#45;&#45;W1 -->
<g id="edge3" class="edge">
<title>__F_2:e&#45;&#45;W1:w</title>
<path fill="none" stroke="#000000" stroke-width="2" d="M86.75,-201.88C150.73,-203.21 163,-168.21 230.75,-166.88"/>
<path fill="none" stroke="#ff0000" stroke-width="2" d="M86.75,-203.88C152.61,-203.88 164.89,-168.88 230.75,-168.88"/>
<path fill="none" stroke="#000000" stroke-width="2" d="M86.75,-205.87C154.5,-204.54 166.77,-169.54 230.75,-170.87"/>
</g>
<!-- __F_3 -->
<g id="node3" class="node">
<title>__F_3</title>
<polygon fill="#ffffff" stroke="black" points="86.75,-167.75 0,-167.75 0,-144 86.75,-144 86.75,-167.75"/>
<polygon fill="none" stroke="black" points="0,-144 0,-167.75 86.75,-167.75 86.75,-144 0,-144"/>
<text text-anchor="start" x="4" y="-150.45" font-family="arial" font-size="14.00">Crimp ferrule</text>
</g>
<!-- __F_3&#45;&#45;W1 -->
<g id="edge5" class="edge">
<title>__F_3:e&#45;&#45;W1:w</title>
<path fill="none" stroke="#000000" stroke-width="2" d="M86.75,-153.88C149.75,-154.29 165.31,-142.29 230.75,-141.88"/>
<path fill="none" stroke="#ff8000" stroke-width="2" d="M86.75,-155.88C150.97,-155.88 166.53,-143.88 230.75,-143.88"/>
<path fill="none" stroke="#000000" stroke-width="2" d="M86.75,-157.87C152.19,-157.46 167.75,-145.46 230.75,-145.87"/>
</g>
<!-- __F_4 -->
<g id="node4" class="node">
<title>__F_4</title>
<polygon fill="#ffffff" stroke="black" points="86.75,-119.75 0,-119.75 0,-96 86.75,-96 86.75,-119.75"/>
<polygon fill="none" stroke="black" points="0,-96 0,-119.75 86.75,-119.75 86.75,-96 0,-96"/>
<text text-anchor="start" x="4" y="-102.45" font-family="arial" font-size="14.00">Crimp ferrule</text>
</g>
<!-- __F_4&#45;&#45;W1 -->
<g id="edge7" class="edge">
<title>__F_4:e&#45;&#45;W1:w</title>
<path fill="none" stroke="#000000" stroke-width="2" d="M86.75,-105.88C152.09,-106.24 167.71,-117.24 230.75,-116.88"/>
<path fill="none" stroke="#ffff00" stroke-width="2" d="M86.75,-107.88C150.94,-107.87 166.56,-118.87 230.75,-118.88"/>
<path fill="none" stroke="#000000" stroke-width="2" d="M86.75,-109.87C149.79,-109.51 165.41,-120.51 230.75,-120.87"/>
</g>
<!-- __F_5 -->
<g id="node5" class="node">
<title>__F_5</title>
<polygon fill="#ffffff" stroke="black" points="86.75,-71.75 0,-71.75 0,-48 86.75,-48 86.75,-71.75"/>
<polygon fill="none" stroke="black" points="0,-48 0,-71.75 86.75,-71.75 86.75,-48 0,-48"/>
<text text-anchor="start" x="4" y="-54.45" font-family="arial" font-size="14.00">Crimp ferrule</text>
</g>
<!-- __F_5&#45;&#45;W1 -->
<g id="edge9" class="edge">
<title>__F_5:e&#45;&#45;W1:w</title>
<path fill="none" stroke="#000000" stroke-width="2" d="M86.75,-57.88C154.39,-59.19 166.87,-93.19 230.75,-91.88"/>
<path fill="none" stroke="#00ff00" stroke-width="2" d="M86.75,-59.88C152.51,-59.88 164.99,-93.88 230.75,-93.88"/>
<path fill="none" stroke="#000000" stroke-width="2" d="M86.75,-61.87C150.63,-60.56 163.11,-94.56 230.75,-95.87"/>
</g>
<!-- __F_6 -->
<g id="node6" class="node">
<title>__F_6</title>
<polygon fill="#ffffff" stroke="black" points="86.75,-23.75 0,-23.75 0,0 86.75,0 86.75,-23.75"/>
<polygon fill="none" stroke="black" points="0,0 0,-23.75 86.75,-23.75 86.75,0 0,0"/>
<text text-anchor="start" x="4" y="-6.45" font-family="arial" font-size="14.00">Crimp ferrule</text>
</g>
<!-- __F_6&#45;&#45;W1 -->
<g id="edge11" class="edge">
<title>__F_6:e&#45;&#45;W1:w</title>
<path fill="none" stroke="#000000" stroke-width="2" d="M86.75,-9.88C157.57,-11.65 163.91,-68.65 230.75,-66.88"/>
<path fill="none" stroke="#0066ff" stroke-width="2" d="M86.75,-11.88C155.58,-11.88 161.92,-68.88 230.75,-68.88"/>
<path fill="none" stroke="#000000" stroke-width="2" d="M86.75,-13.87C153.59,-12.1 159.93,-69.1 230.75,-70.87"/>
</g>
<!-- __F_7 -->
<g id="node7" class="node">
<title>__F_7</title>
<polygon fill="#ffffff" stroke="black" points="657.25,-263.75 570.5,-263.75 570.5,-240 657.25,-240 657.25,-263.75"/>
<polygon fill="none" stroke="black" points="570.5,-240 570.5,-263.75 657.25,-263.75 657.25,-240 570.5,-240"/>
<text text-anchor="start" x="574.5" y="-246.45" font-family="arial" font-size="14.00">Crimp ferrule</text>
</g>
<!-- __F_8 -->
<g id="node8" class="node">
<title>__F_8</title>
<polygon fill="#ffffff" stroke="black" points="657.25,-215.75 570.5,-215.75 570.5,-192 657.25,-192 657.25,-215.75"/>
<polygon fill="none" stroke="black" points="570.5,-192 570.5,-215.75 657.25,-215.75 657.25,-192 570.5,-192"/>
<text text-anchor="start" x="574.5" y="-198.45" font-family="arial" font-size="14.00">Crimp ferrule</text>
</g>
<!-- __F_9 -->
<g id="node9" class="node">
<title>__F_9</title>
<polygon fill="#ffffff" stroke="black" points="657.25,-167.75 570.5,-167.75 570.5,-144 657.25,-144 657.25,-167.75"/>
<polygon fill="none" stroke="black" points="570.5,-144 570.5,-167.75 657.25,-167.75 657.25,-144 570.5,-144"/>
<text text-anchor="start" x="574.5" y="-150.45" font-family="arial" font-size="14.00">Crimp ferrule</text>
</g>
<!-- __F_10 -->
<g id="node10" class="node">
<title>__F_10</title>
<polygon fill="#ffffff" stroke="black" points="657.25,-119.75 570.5,-119.75 570.5,-96 657.25,-96 657.25,-119.75"/>
<polygon fill="none" stroke="black" points="570.5,-96 570.5,-119.75 657.25,-119.75 657.25,-96 570.5,-96"/>
<text text-anchor="start" x="574.5" y="-102.45" font-family="arial" font-size="14.00">Crimp ferrule</text>
</g>
<!-- __F_11 -->
<g id="node11" class="node">
<title>__F_11</title>
<polygon fill="#ffffff" stroke="black" points="657.25,-71.75 570.5,-71.75 570.5,-48 657.25,-48 657.25,-71.75"/>
<polygon fill="none" stroke="black" points="570.5,-48 570.5,-71.75 657.25,-71.75 657.25,-48 570.5,-48"/>
<text text-anchor="start" x="574.5" y="-54.45" font-family="arial" font-size="14.00">Crimp ferrule</text>
</g>
<!-- __F_12 -->
<g id="node12" class="node">
<title>__F_12</title>
<polygon fill="#ffffff" stroke="black" points="657.25,-23.75 570.5,-23.75 570.5,0 657.25,0 657.25,-23.75"/>
<polygon fill="none" stroke="black" points="570.5,0 570.5,-23.75 657.25,-23.75 657.25,0 570.5,0"/>
<text text-anchor="start" x="574.5" y="-6.45" font-family="arial" font-size="14.00">Crimp ferrule</text>
</g>
<!-- W1&#45;&#45;__F_7 -->
<g id="edge2" class="edge">
<title>W1:e&#45;&#45;__F_7:w</title>
<path fill="none" stroke="#000000" stroke-width="2" d="M426.5,-191.88C497.49,-193.67 503.49,-251.67 570.5,-249.88"/>
<path fill="none" stroke="#895956" stroke-width="2" d="M426.5,-193.88C495.5,-193.88 501.5,-251.88 570.5,-251.88"/>
<path fill="none" stroke="#000000" stroke-width="2" d="M426.5,-195.87C493.51,-194.08 499.51,-252.08 570.5,-253.87"/>
</g>
<!-- W1&#45;&#45;__F_8 -->
<g id="edge4" class="edge">
<title>W1:e&#45;&#45;__F_8:w</title>
<path fill="none" stroke="#000000" stroke-width="2" d="M426.5,-166.88C494.25,-168.21 506.52,-203.21 570.5,-201.88"/>
<path fill="none" stroke="#ff0000" stroke-width="2" d="M426.5,-168.88C492.36,-168.88 504.64,-203.88 570.5,-203.88"/>
<path fill="none" stroke="#000000" stroke-width="2" d="M426.5,-170.87C490.48,-169.54 502.75,-204.54 570.5,-205.87"/>
</g>
<!-- W1&#45;&#45;__F_9 -->
<g id="edge6" class="edge">
<title>W1:e&#45;&#45;__F_9:w</title>
<path fill="none" stroke="#000000" stroke-width="2" d="M426.5,-141.88C491.94,-142.29 507.5,-154.29 570.5,-153.88"/>
<path fill="none" stroke="#ff8000" stroke-width="2" d="M426.5,-143.88C490.72,-143.88 506.28,-155.88 570.5,-155.88"/>
<path fill="none" stroke="#000000" stroke-width="2" d="M426.5,-145.87C489.5,-145.46 505.06,-157.46 570.5,-157.87"/>
</g>
<!-- W1&#45;&#45;__F_10 -->
<g id="edge8" class="edge">
<title>W1:e&#45;&#45;__F_10:w</title>
<path fill="none" stroke="#000000" stroke-width="2" d="M426.5,-116.88C489.54,-117.24 505.16,-106.24 570.5,-105.88"/>
<path fill="none" stroke="#ffff00" stroke-width="2" d="M426.5,-118.88C490.69,-118.87 506.31,-107.87 570.5,-107.88"/>
<path fill="none" stroke="#000000" stroke-width="2" d="M426.5,-120.87C491.84,-120.51 507.46,-109.51 570.5,-109.87"/>
</g>
<!-- W1&#45;&#45;__F_11 -->
<g id="edge10" class="edge">
<title>W1:e&#45;&#45;__F_11:w</title>
<path fill="none" stroke="#000000" stroke-width="2" d="M426.5,-91.88C490.38,-93.19 502.86,-59.19 570.5,-57.88"/>
<path fill="none" stroke="#00ff00" stroke-width="2" d="M426.5,-93.88C492.26,-93.88 504.74,-59.88 570.5,-59.88"/>
<path fill="none" stroke="#000000" stroke-width="2" d="M426.5,-95.87C494.14,-94.56 506.62,-60.56 570.5,-61.87"/>
</g>
<!-- W1&#45;&#45;__F_12 -->
<g id="edge12" class="edge">
<title>W1:e&#45;&#45;__F_12:w</title>
<path fill="none" stroke="#000000" stroke-width="2" d="M426.5,-66.88C493.34,-68.65 499.68,-11.65 570.5,-9.88"/>
<path fill="none" stroke="#0066ff" stroke-width="2" d="M426.5,-68.88C495.33,-68.88 501.67,-11.88 570.5,-11.88"/>
<path fill="none" stroke="#000000" stroke-width="2" d="M426.5,-70.87C497.32,-69.1 503.66,-12.1 570.5,-13.87"/>
</g>
</g>
</svg>
