<?xml version="1.0" encoding="UTF-8" standalone="no"?>
<!DOCTYPE svg PUBLIC "-//W3C//DTD SVG 1.1//EN"
 "http://www.w3.org/Graphics/SVG/1.1/DTD/svg11.dtd">
<!-- Generated by graphviz version 2.44.0 (20200408.0750)
 -->
<!-- Pages: 1 -->
<svg width="668pt" height="344pt"
 viewBox="0.00 0.00 668.00 344.00" xmlns="http://www.w3.org/2000/svg" xmlns:xlink="http://www.w3.org/1999/xlink">
<g id="graph0" class="graph" transform="scale(1 1) rotate(0) translate(4 340)">
<polygon fill="white" stroke="transparent" points="-4,4 -4,-340 664,-340 664,4 -4,4"/>
<!-- _ferrule_crimp_1 -->
<g id="node1" class="node">
<title>_ferrule_crimp_1</title>
<polygon fill="white" stroke="transparent" points="87,-336 0,-336 0,-300 87,-300 87,-336"/>
<polygon fill="none" stroke="black" points="0.5,-306 0.5,-329 87.5,-329 87.5,-306 0.5,-306"/>
<text text-anchor="start" x="4.5" y="-313.8" font-family="arial" font-size="14.00">Crimp ferrule</text>
</g>
<!-- W1 -->
<g id="node13" class="node">
<title>W1</title>
<polygon fill="white" stroke="black" stroke-dasharray="5,2" points="429,-313 231,-313 231,-83 429,-83 429,-313"/>
<polygon fill="none" stroke="black" points="231,-290 231,-313 429,-313 429,-290 231,-290"/>
<text text-anchor="start" x="319" y="-297.8" font-family="arial" font-size="14.00">W1</text>
<polygon fill="none" stroke="black" points="231,-267 231,-290 254,-290 254,-267 231,-267"/>
<text text-anchor="start" x="235" y="-274.8" font-family="arial" font-size="14.00">6x</text>
<polygon fill="none" stroke="black" points="254,-267 254,-290 386,-290 386,-267 254,-267"/>
<text text-anchor="start" x="258" y="-274.8" font-family="arial" font-size="14.00">0.25 mm² (24 AWG)</text>
<polygon fill="none" stroke="black" points="386,-267 386,-290 429,-290 429,-267 386,-267"/>
<text text-anchor="start" x="390" y="-274.8" font-family="arial" font-size="14.00">0.2 m</text>
<text text-anchor="start" x="328" y="-255.8" font-family="arial" font-size="14.00"> </text>
<text text-anchor="start" x="322.5" y="-238.8" font-family="arial" font-size="14.00">BN</text>
<polygon fill="#000000" stroke="transparent" points="231,-231 231,-233 429,-233 429,-231 231,-231"/>
<polygon fill="#895956" stroke="transparent" points="231,-229 231,-231 429,-231 429,-229 231,-229"/>
<polygon fill="#000000" stroke="transparent" points="231,-227 231,-229 429,-229 429,-227 231,-227"/>
<text text-anchor="start" x="322" y="-213.8" font-family="arial" font-size="14.00">RD</text>
<polygon fill="#000000" stroke="transparent" points="231,-206 231,-208 429,-208 429,-206 231,-206"/>
<polygon fill="#ff0000" stroke="transparent" points="231,-204 231,-206 429,-206 429,-204 231,-204"/>
<polygon fill="#000000" stroke="transparent" points="231,-202 231,-204 429,-204 429,-202 231,-202"/>
<text text-anchor="start" x="320.5" y="-188.8" font-family="arial" font-size="14.00">OG</text>
<polygon fill="#000000" stroke="transparent" points="231,-181 231,-183 429,-183 429,-181 231,-181"/>
<polygon fill="#ff8000" stroke="transparent" points="231,-179 231,-181 429,-181 429,-179 231,-179"/>
<polygon fill="#000000" stroke="transparent" points="231,-177 231,-179 429,-179 429,-177 231,-177"/>
<text text-anchor="start" x="322.5" y="-163.8" font-family="arial" font-size="14.00">YE</text>
<polygon fill="#000000" stroke="transparent" points="231,-156 231,-158 429,-158 429,-156 231,-156"/>
<polygon fill="#ffff00" stroke="transparent" points="231,-154 231,-156 429,-156 429,-154 231,-154"/>
<polygon fill="#000000" stroke="transparent" points="231,-152 231,-154 429,-154 429,-152 231,-152"/>
<text text-anchor="start" x="321" y="-138.8" font-family="arial" font-size="14.00">GN</text>
<polygon fill="#000000" stroke="transparent" points="231,-131 231,-133 429,-133 429,-131 231,-131"/>
<polygon fill="#00ff00" stroke="transparent" points="231,-129 231,-131 429,-131 429,-129 231,-129"/>
<polygon fill="#000000" stroke="transparent" points="231,-127 231,-129 429,-129 429,-127 231,-127"/>
<text text-anchor="start" x="322.5" y="-113.8" font-family="arial" font-size="14.00">BU</text>
<polygon fill="#000000" stroke="transparent" points="231,-106 231,-108 429,-108 429,-106 231,-106"/>
<polygon fill="#0066ff" stroke="transparent" points="231,-104 231,-106 429,-106 429,-104 231,-104"/>
<polygon fill="#000000" stroke="transparent" points="231,-102 231,-104 429,-104 429,-102 231,-102"/>
<text text-anchor="start" x="259.5" y="-88.8" font-family="arial" font-size="14.00"> </text>
</g>
<!-- _ferrule_crimp_1&#45;&#45;W1 -->
<g id="edge1" class="edge">
<title>_ferrule_crimp_1:e&#45;&#45;W1:w</title>
<path fill="none" stroke="#000000" stroke-width="2" d="M87,-316C160.01,-318.14 154,-230.14 231,-228"/>
<path fill="none" stroke="#895956" stroke-width="2" d="M87,-318C162,-318 156,-230 231,-230"/>
<path fill="none" stroke="#000000" stroke-width="2" d="M87,-320C164,-317.86 157.99,-229.86 231,-232"/>
</g>
<!-- _ferrule_crimp_2 -->
<g id="node2" class="node">
<title>_ferrule_crimp_2</title>
<polygon fill="white" stroke="transparent" points="87,-276 0,-276 0,-240 87,-240 87,-276"/>
<polygon fill="none" stroke="black" points="0.5,-246 0.5,-269 87.5,-269 87.5,-246 0.5,-246"/>
<text text-anchor="start" x="4.5" y="-253.8" font-family="arial" font-size="14.00">Crimp ferrule</text>
</g>
<!-- _ferrule_crimp_2&#45;&#45;W1 -->
<g id="edge3" class="edge">
<title>_ferrule_crimp_2:e&#45;&#45;W1:w</title>
<path fill="none" stroke="#000000" stroke-width="2" d="M87,-256C153.22,-257.72 160.82,-204.72 231,-203"/>
<path fill="none" stroke="#ff0000" stroke-width="2" d="M87,-258C155.2,-258 162.8,-205 231,-205"/>
<path fill="none" stroke="#000000" stroke-width="2" d="M87,-260C157.18,-258.28 164.78,-205.28 231,-207"/>
</g>
<!-- _ferrule_crimp_3 -->
<g id="node3" class="node">
<title>_ferrule_crimp_3</title>
<polygon fill="white" stroke="transparent" points="87,-216 0,-216 0,-180 87,-180 87,-216"/>
<polygon fill="none" stroke="black" points="0.5,-186 0.5,-209 87.5,-209 87.5,-186 0.5,-186"/>
<text text-anchor="start" x="4.5" y="-193.8" font-family="arial" font-size="14.00">Crimp ferrule</text>
</g>
<!-- _ferrule_crimp_3&#45;&#45;W1 -->
<g id="edge5" class="edge">
<title>_ferrule_crimp_3:e&#45;&#45;W1:w</title>
<path fill="none" stroke="#000000" stroke-width="2" d="M87,-196C149.96,-196.72 164.97,-178.72 231,-178"/>
<path fill="none" stroke="#ff8000" stroke-width="2" d="M87,-198C151.5,-198 166.5,-180 231,-180"/>
<path fill="none" stroke="#000000" stroke-width="2" d="M87,-200C153.03,-199.28 168.04,-181.28 231,-182"/>
</g>
<!-- _ferrule_crimp_4 -->
<g id="node4" class="node">
<title>_ferrule_crimp_4</title>
<polygon fill="white" stroke="transparent" points="87,-156 0,-156 0,-120 87,-120 87,-156"/>
<polygon fill="none" stroke="black" points="0.5,-126 0.5,-149 87.5,-149 87.5,-126 0.5,-126"/>
<text text-anchor="start" x="4.5" y="-133.8" font-family="arial" font-size="14.00">Crimp ferrule</text>
</g>
<!-- _ferrule_crimp_4&#45;&#45;W1 -->
<g id="edge7" class="edge">
<title>_ferrule_crimp_4:e&#45;&#45;W1:w</title>
<path fill="none" stroke="#000000" stroke-width="2" d="M87,-136C152.94,-136.67 168.05,-153.67 231,-153"/>
<path fill="none" stroke="#ffff00" stroke-width="2" d="M87,-138C151.44,-138 166.56,-155 231,-155"/>
<path fill="none" stroke="#000000" stroke-width="2" d="M87,-140C149.95,-139.33 165.06,-156.33 231,-157"/>
</g>
<!-- _ferrule_crimp_5 -->
<g id="node5" class="node">
<title>_ferrule_crimp_5</title>
<polygon fill="white" stroke="transparent" points="87,-96 0,-96 0,-60 87,-60 87,-96"/>
<polygon fill="none" stroke="black" points="0.5,-66 0.5,-89 87.5,-89 87.5,-66 0.5,-66"/>
<text text-anchor="start" x="4.5" y="-73.8" font-family="arial" font-size="14.00">Crimp ferrule</text>
</g>
<!-- _ferrule_crimp_5&#45;&#45;W1 -->
<g id="edge9" class="edge">
<title>_ferrule_crimp_5:e&#45;&#45;W1:w</title>
<path fill="none" stroke="#000000" stroke-width="2" d="M87,-76C157.02,-77.7 164.93,-129.7 231,-128"/>
<path fill="none" stroke="#00ff00" stroke-width="2" d="M87,-78C155.05,-78 162.95,-130 231,-130"/>
<path fill="none" stroke="#000000" stroke-width="2" d="M87,-80C153.07,-78.3 160.98,-130.3 231,-132"/>
</g>
<!-- _ferrule_crimp_6 -->
<g id="node6" class="node">
<title>_ferrule_crimp_6</title>
<polygon fill="white" stroke="transparent" points="87,-36 0,-36 0,0 87,0 87,-36"/>
<polygon fill="none" stroke="black" points="0.5,-6 0.5,-29 87.5,-29 87.5,-6 0.5,-6"/>
<text text-anchor="start" x="4.5" y="-13.8" font-family="arial" font-size="14.00">Crimp ferrule</text>
</g>
<!-- _ferrule_crimp_6&#45;&#45;W1 -->
<g id="edge11" class="edge">
<title>_ferrule_crimp_6:e&#45;&#45;W1:w</title>
<path fill="none" stroke="#000000" stroke-width="2" d="M87,-16C163.77,-18.13 158.22,-105.13 231,-103"/>
<path fill="none" stroke="#0066ff" stroke-width="2" d="M87,-18C161.77,-18 156.23,-105 231,-105"/>
<path fill="none" stroke="#000000" stroke-width="2" d="M87,-20C159.78,-17.87 154.23,-104.87 231,-107"/>
</g>
<!-- _ferrule_crimp_7 -->
<g id="node7" class="node">
<title>_ferrule_crimp_7</title>
<polygon fill="white" stroke="transparent" points="660,-336 573,-336 573,-300 660,-300 660,-336"/>
<polygon fill="none" stroke="black" points="573.5,-306 573.5,-329 660.5,-329 660.5,-306 573.5,-306"/>
<text text-anchor="start" x="577.5" y="-313.8" font-family="arial" font-size="14.00">Crimp ferrule</text>
</g>
<!-- _ferrule_crimp_8 -->
<g id="node8" class="node">
<title>_ferrule_crimp_8</title>
<polygon fill="white" stroke="transparent" points="660,-276 573,-276 573,-240 660,-240 660,-276"/>
<polygon fill="none" stroke="black" points="573.5,-246 573.5,-269 660.5,-269 660.5,-246 573.5,-246"/>
<text text-anchor="start" x="577.5" y="-253.8" font-family="arial" font-size="14.00">Crimp ferrule</text>
</g>
<!-- _ferrule_crimp_9 -->
<g id="node9" class="node">
<title>_ferrule_crimp_9</title>
<polygon fill="white" stroke="transparent" points="660,-216 573,-216 573,-180 660,-180 660,-216"/>
<polygon fill="none" stroke="black" points="573.5,-186 573.5,-209 660.5,-209 660.5,-186 573.5,-186"/>
<text text-anchor="start" x="577.5" y="-193.8" font-family="arial" font-size="14.00">Crimp ferrule</text>
</g>
<!-- _ferrule_crimp_10 -->
<g id="node10" class="node">
<title>_ferrule_crimp_10</title>
<polygon fill="white" stroke="transparent" points="660,-156 573,-156 573,-120 660,-120 660,-156"/>
<polygon fill="none" stroke="black" points="573.5,-126 573.5,-149 660.5,-149 660.5,-126 573.5,-126"/>
<text text-anchor="start" x="577.5" y="-133.8" font-family="arial" font-size="14.00">Crimp ferrule</text>
</g>
<!-- _ferrule_crimp_11 -->
<g id="node11" class="node">
<title>_ferrule_crimp_11</title>
<polygon fill="white" stroke="transparent" points="660,-96 573,-96 573,-60 660,-60 660,-96"/>
<polygon fill="none" stroke="black" points="573.5,-66 573.5,-89 660.5,-89 660.5,-66 573.5,-66"/>
<text text-anchor="start" x="577.5" y="-73.8" font-family="arial" font-size="14.00">Crimp ferrule</text>
</g>
<!-- _ferrule_crimp_12 -->
<g id="node12" class="node">
<title>_ferrule_crimp_12</title>
<polygon fill="white" stroke="transparent" points="660,-36 573,-36 573,0 660,0 660,-36"/>
<polygon fill="none" stroke="black" points="573.5,-6 573.5,-29 660.5,-29 660.5,-6 573.5,-6"/>
<text text-anchor="start" x="577.5" y="-13.8" font-family="arial" font-size="14.00">Crimp ferrule</text>
</g>
<!-- W1&#45;&#45;_ferrule_crimp_7 -->
<g id="edge2" class="edge">
<title>W1:e&#45;&#45;_ferrule_crimp_7:w</title>
<path fill="none" stroke="#000000" stroke-width="2" d="M429,-228C506,-230.14 499.99,-318.14 573,-316"/>
<path fill="none" stroke="#895956" stroke-width="2" d="M429,-230C504,-230 498,-318 573,-318"/>
<path fill="none" stroke="#000000" stroke-width="2" d="M429,-232C502.01,-229.86 496,-317.86 573,-320"/>
</g>
<!-- W1&#45;&#45;_ferrule_crimp_8 -->
<g id="edge4" class="edge">
<title>W1:e&#45;&#45;_ferrule_crimp_8:w</title>
<path fill="none" stroke="#000000" stroke-width="2" d="M429,-203C499.18,-204.72 506.78,-257.72 573,-256"/>
<path fill="none" stroke="#ff0000" stroke-width="2" d="M429,-205C497.2,-205 504.8,-258 573,-258"/>
<path fill="none" stroke="#000000" stroke-width="2" d="M429,-207C495.22,-205.28 502.82,-258.28 573,-260"/>
</g>
<!-- W1&#45;&#45;_ferrule_crimp_9 -->
<g id="edge6" class="edge">
<title>W1:e&#45;&#45;_ferrule_crimp_9:w</title>
<path fill="none" stroke="#000000" stroke-width="2" d="M429,-178C495.03,-178.72 510.04,-196.72 573,-196"/>
<path fill="none" stroke="#ff8000" stroke-width="2" d="M429,-180C493.5,-180 508.5,-198 573,-198"/>
<path fill="none" stroke="#000000" stroke-width="2" d="M429,-182C491.96,-181.28 506.97,-199.28 573,-200"/>
</g>
<!-- W1&#45;&#45;_ferrule_crimp_10 -->
<g id="edge8" class="edge">
<title>W1:e&#45;&#45;_ferrule_crimp_10:w</title>
<path fill="none" stroke="#000000" stroke-width="2" d="M429,-153C491.95,-153.67 507.06,-136.67 573,-136"/>
<path fill="none" stroke="#ffff00" stroke-width="2" d="M429,-155C493.44,-155 508.56,-138 573,-138"/>
<path fill="none" stroke="#000000" stroke-width="2" d="M429,-157C494.94,-156.33 510.05,-139.33 573,-140"/>
</g>
<!-- W1&#45;&#45;_ferrule_crimp_11 -->
<g id="edge10" class="edge">
<title>W1:e&#45;&#45;_ferrule_crimp_11:w</title>
<path fill="none" stroke="#000000" stroke-width="2" d="M429,-128C495.07,-129.7 502.98,-77.7 573,-76"/>
<path fill="none" stroke="#00ff00" stroke-width="2" d="M429,-130C497.05,-130 504.95,-78 573,-78"/>
<path fill="none" stroke="#000000" stroke-width="2" d="M429,-132C499.02,-130.3 506.93,-78.3 573,-80"/>
</g>
<!-- W1&#45;&#45;_ferrule_crimp_12 -->
<g id="edge12" class="edge">
<title>W1:e&#45;&#45;_ferrule_crimp_12:w</title>
<path fill="none" stroke="#000000" stroke-width="2" d="M429,-103C501.78,-105.13 496.23,-18.13 573,-16"/>
<path fill="none" stroke="#0066ff" stroke-width="2" d="M429,-105C503.77,-105 498.23,-18 573,-18"/>
<path fill="none" stroke="#000000" stroke-width="2" d="M429,-107C505.77,-104.87 500.22,-17.87 573,-20"/>
</g>
</g>
</svg>
