<?xml version="1.0" encoding="UTF-8" standalone="no"?>
<!DOCTYPE svg PUBLIC "-//W3C//DTD SVG 1.1//EN"
 "http://www.w3.org/Graphics/SVG/1.1/DTD/svg11.dtd">
<!-- Generated by graphviz version 2.49.1 (20210923.0004)
 -->
<!-- Pages: 1 -->
<svg width="673pt" height="287pt"
 viewBox="0.00 0.00 673.00 286.50" xmlns="http://www.w3.org/2000/svg" xmlns:xlink="http://www.w3.org/1999/xlink">
<g id="graph0" class="graph" transform="scale(1 1) rotate(0) translate(4 282.5)">
<polygon fill="#ffffff" stroke="transparent" points="-4,4 -4,-282.5 669,-282.5 669,4 -4,4"/>
<!-- AUTOGENERATED_F_1 -->
<g id="node1" class="node">
<title>AUTOGENERATED_F_1</title>
<polygon fill="#ffffff" stroke="black" points="89,-258 0,-258 0,-235 89,-235 89,-258"/>
<polygon fill="none" stroke="black" points="0.5,-234.5 0.5,-257.5 89.5,-257.5 89.5,-234.5 0.5,-234.5"/>
<text text-anchor="start" x="4.5" y="-242.3" font-family="arial" font-size="14.00">Crimp ferrule</text>
</g>
<!-- W1 -->
<g id="node13" class="node">
<title>W1</title>
<polygon fill="#ffffff" stroke="black" stroke-dasharray="5,2" points="432,-278.5 233,-278.5 233,-44.5 432,-44.5 432,-278.5"/>
<polygon fill="none" stroke="black" points="233.5,-255.5 233.5,-278.5 432.5,-278.5 432.5,-255.5 233.5,-255.5"/>
<text text-anchor="start" x="322.5" y="-263.3" font-family="arial" font-size="14.00">W1</text>
<polygon fill="none" stroke="black" points="233.5,-232.5 233.5,-255.5 256.5,-255.5 256.5,-232.5 233.5,-232.5"/>
<text text-anchor="start" x="237.5" y="-240.3" font-family="arial" font-size="14.00">6x</text>
<polygon fill="none" stroke="black" points="256.5,-232.5 256.5,-255.5 388.5,-255.5 388.5,-232.5 256.5,-232.5"/>
<text text-anchor="start" x="260.5" y="-240.3" font-family="arial" font-size="14.00">0.25 mm² (24 AWG)</text>
<polygon fill="none" stroke="black" points="388.5,-232.5 388.5,-255.5 432.5,-255.5 432.5,-232.5 388.5,-232.5"/>
<text text-anchor="start" x="392.5" y="-240.3" font-family="arial" font-size="14.00">0.2 m</text>
<text text-anchor="start" x="256.5" y="-219.3" font-family="arial" font-size="14.00"> </text>
<text text-anchor="start" x="307.5" y="-200.3" font-family="arial" font-size="14.00"> &#160;&#160;&#160;&#160;BN &#160;&#160;&#160;</text>
<polygon fill="#000000" stroke="transparent" points="233.5,-192.5 233.5,-194.5 432.5,-194.5 432.5,-192.5 233.5,-192.5"/>
<polygon fill="#895956" stroke="transparent" points="233.5,-190.5 233.5,-192.5 432.5,-192.5 432.5,-190.5 233.5,-190.5"/>
<polygon fill="#000000" stroke="transparent" points="233.5,-188.5 233.5,-190.5 432.5,-190.5 432.5,-188.5 233.5,-188.5"/>
<text text-anchor="start" x="307" y="-175.3" font-family="arial" font-size="14.00"> &#160;&#160;&#160;&#160;RD &#160;&#160;&#160;</text>
<polygon fill="#000000" stroke="transparent" points="233.5,-167.5 233.5,-169.5 432.5,-169.5 432.5,-167.5 233.5,-167.5"/>
<polygon fill="#ff0000" stroke="transparent" points="233.5,-165.5 233.5,-167.5 432.5,-167.5 432.5,-165.5 233.5,-165.5"/>
<polygon fill="#000000" stroke="transparent" points="233.5,-163.5 233.5,-165.5 432.5,-165.5 432.5,-163.5 233.5,-163.5"/>
<text text-anchor="start" x="306.5" y="-150.3" font-family="arial" font-size="14.00"> &#160;&#160;&#160;&#160;OG &#160;&#160;&#160;</text>
<polygon fill="#000000" stroke="transparent" points="233.5,-142.5 233.5,-144.5 432.5,-144.5 432.5,-142.5 233.5,-142.5"/>
<polygon fill="#ff8000" stroke="transparent" points="233.5,-140.5 233.5,-142.5 432.5,-142.5 432.5,-140.5 233.5,-140.5"/>
<polygon fill="#000000" stroke="transparent" points="233.5,-138.5 233.5,-140.5 432.5,-140.5 432.5,-138.5 233.5,-138.5"/>
<text text-anchor="start" x="308" y="-125.3" font-family="arial" font-size="14.00"> &#160;&#160;&#160;&#160;YE &#160;&#160;&#160;</text>
<polygon fill="#000000" stroke="transparent" points="233.5,-117.5 233.5,-119.5 432.5,-119.5 432.5,-117.5 233.5,-117.5"/>
<polygon fill="#ffff00" stroke="transparent" points="233.5,-115.5 233.5,-117.5 432.5,-117.5 432.5,-115.5 233.5,-115.5"/>
<polygon fill="#000000" stroke="transparent" points="233.5,-113.5 233.5,-115.5 432.5,-115.5 432.5,-113.5 233.5,-113.5"/>
<text text-anchor="start" x="306.5" y="-100.3" font-family="arial" font-size="14.00"> &#160;&#160;&#160;&#160;GN &#160;&#160;&#160;</text>
<polygon fill="#000000" stroke="transparent" points="233.5,-92.5 233.5,-94.5 432.5,-94.5 432.5,-92.5 233.5,-92.5"/>
<polygon fill="#00ff00" stroke="transparent" points="233.5,-90.5 233.5,-92.5 432.5,-92.5 432.5,-90.5 233.5,-90.5"/>
<polygon fill="#000000" stroke="transparent" points="233.5,-88.5 233.5,-90.5 432.5,-90.5 432.5,-88.5 233.5,-88.5"/>
<text text-anchor="start" x="307.5" y="-75.3" font-family="arial" font-size="14.00"> &#160;&#160;&#160;&#160;BU &#160;&#160;&#160;</text>
<polygon fill="#000000" stroke="transparent" points="233.5,-67.5 233.5,-69.5 432.5,-69.5 432.5,-67.5 233.5,-67.5"/>
<polygon fill="#0066ff" stroke="transparent" points="233.5,-65.5 233.5,-67.5 432.5,-67.5 432.5,-65.5 233.5,-65.5"/>
<polygon fill="#000000" stroke="transparent" points="233.5,-63.5 233.5,-65.5 432.5,-65.5 432.5,-63.5 233.5,-63.5"/>
<text text-anchor="start" x="256.5" y="-50.3" font-family="arial" font-size="14.00"> </text>
</g>
<!-- AUTOGENERATED_F_1&#45;&#45;W1 -->
<g id="edge1" class="edge">
<title>AUTOGENERATED_F_1:e&#45;&#45;W1:w</title>
<path fill="none" stroke="#000000" stroke-width="2" d="M89,-244.5C155.53,-246.25 162.51,-191.25 233,-189.5"/>
<path fill="none" stroke="#895956" stroke-width="2" d="M89,-246.5C157.51,-246.5 164.49,-191.5 233,-191.5"/>
<path fill="none" stroke="#000000" stroke-width="2" d="M89,-248.5C159.49,-246.75 166.47,-191.75 233,-193.5"/>
</g>
<!-- AUTOGENERATED_F_2 -->
<g id="node2" class="node">
<title>AUTOGENERATED_F_2</title>
<polygon fill="#ffffff" stroke="black" points="89,-211 0,-211 0,-188 89,-188 89,-211"/>
<polygon fill="none" stroke="black" points="0.5,-187.5 0.5,-210.5 89.5,-210.5 89.5,-187.5 0.5,-187.5"/>
<text text-anchor="start" x="4.5" y="-195.3" font-family="arial" font-size="14.00">Crimp ferrule</text>
</g>
<!-- AUTOGENERATED_F_2&#45;&#45;W1 -->
<g id="edge3" class="edge">
<title>AUTOGENERATED_F_2:e&#45;&#45;W1:w</title>
<path fill="none" stroke="#000000" stroke-width="2" d="M89,-197.5C152.79,-198.78 165.47,-165.78 233,-164.5"/>
<path fill="none" stroke="#ff0000" stroke-width="2" d="M89,-199.5C154.66,-199.5 167.34,-166.5 233,-166.5"/>
<path fill="none" stroke="#000000" stroke-width="2" d="M89,-201.5C156.53,-200.22 169.21,-167.22 233,-168.5"/>
</g>
<!-- AUTOGENERATED_F_3 -->
<g id="node3" class="node">
<title>AUTOGENERATED_F_3</title>
<polygon fill="#ffffff" stroke="black" points="89,-164 0,-164 0,-141 89,-141 89,-164"/>
<polygon fill="none" stroke="black" points="0.5,-140.5 0.5,-163.5 89.5,-163.5 89.5,-140.5 0.5,-140.5"/>
<text text-anchor="start" x="4.5" y="-148.3" font-family="arial" font-size="14.00">Crimp ferrule</text>
</g>
<!-- AUTOGENERATED_F_3&#45;&#45;W1 -->
<g id="edge5" class="edge">
<title>AUTOGENERATED_F_3:e&#45;&#45;W1:w</title>
<path fill="none" stroke="#000000" stroke-width="2" d="M89,-150.5C152.04,-150.86 167.66,-139.86 233,-139.5"/>
<path fill="none" stroke="#ff8000" stroke-width="2" d="M89,-152.5C153.19,-152.5 168.81,-141.5 233,-141.5"/>
<path fill="none" stroke="#000000" stroke-width="2" d="M89,-154.5C154.34,-154.14 169.96,-143.14 233,-143.5"/>
</g>
<!-- AUTOGENERATED_F_4 -->
<g id="node4" class="node">
<title>AUTOGENERATED_F_4</title>
<polygon fill="#ffffff" stroke="black" points="89,-117 0,-117 0,-94 89,-94 89,-117"/>
<polygon fill="none" stroke="black" points="0.5,-93.5 0.5,-116.5 89.5,-116.5 89.5,-93.5 0.5,-93.5"/>
<text text-anchor="start" x="4.5" y="-101.3" font-family="arial" font-size="14.00">Crimp ferrule</text>
</g>
<!-- AUTOGENERATED_F_4&#45;&#45;W1 -->
<g id="edge7" class="edge">
<title>AUTOGENERATED_F_4:e&#45;&#45;W1:w</title>
<path fill="none" stroke="#000000" stroke-width="2" d="M89,-103.5C154.34,-103.86 169.96,-114.86 233,-114.5"/>
<path fill="none" stroke="#ffff00" stroke-width="2" d="M89,-105.5C153.19,-105.5 168.81,-116.5 233,-116.5"/>
<path fill="none" stroke="#000000" stroke-width="2" d="M89,-107.5C152.04,-107.14 167.66,-118.14 233,-118.5"/>
</g>
<!-- AUTOGENERATED_F_5 -->
<g id="node5" class="node">
<title>AUTOGENERATED_F_5</title>
<polygon fill="#ffffff" stroke="black" points="89,-70 0,-70 0,-47 89,-47 89,-70"/>
<polygon fill="none" stroke="black" points="0.5,-46.5 0.5,-69.5 89.5,-69.5 89.5,-46.5 0.5,-46.5"/>
<text text-anchor="start" x="4.5" y="-54.3" font-family="arial" font-size="14.00">Crimp ferrule</text>
</g>
<!-- AUTOGENERATED_F_5&#45;&#45;W1 -->
<g id="edge9" class="edge">
<title>AUTOGENERATED_F_5:e&#45;&#45;W1:w</title>
<path fill="none" stroke="#000000" stroke-width="2" d="M89,-56.5C156.53,-57.78 169.21,-90.78 233,-89.5"/>
<path fill="none" stroke="#00ff00" stroke-width="2" d="M89,-58.5C154.66,-58.5 167.34,-91.5 233,-91.5"/>
<path fill="none" stroke="#000000" stroke-width="2" d="M89,-60.5C152.79,-59.22 165.47,-92.22 233,-93.5"/>
</g>
<!-- AUTOGENERATED_F_6 -->
<g id="node6" class="node">
<title>AUTOGENERATED_F_6</title>
<polygon fill="#ffffff" stroke="black" points="89,-23 0,-23 0,0 89,0 89,-23"/>
<polygon fill="none" stroke="black" points="0.5,0.5 0.5,-22.5 89.5,-22.5 89.5,0.5 0.5,0.5"/>
<text text-anchor="start" x="4.5" y="-7.3" font-family="arial" font-size="14.00">Crimp ferrule</text>
</g>
<!-- AUTOGENERATED_F_6&#45;&#45;W1 -->
<g id="edge11" class="edge">
<title>AUTOGENERATED_F_6:e&#45;&#45;W1:w</title>
<path fill="none" stroke="#000000" stroke-width="2" d="M89,-9.5C159.49,-11.25 166.47,-66.25 233,-64.5"/>
<path fill="none" stroke="#0066ff" stroke-width="2" d="M89,-11.5C157.51,-11.5 164.49,-66.5 233,-66.5"/>
<path fill="none" stroke="#000000" stroke-width="2" d="M89,-13.5C155.53,-11.75 162.51,-66.75 233,-68.5"/>
</g>
<!-- AUTOGENERATED_F_7 -->
<g id="node7" class="node">
<title>AUTOGENERATED_F_7</title>
<polygon fill="#ffffff" stroke="black" points="665,-258 576,-258 576,-235 665,-235 665,-258"/>
<polygon fill="none" stroke="black" points="576.5,-234.5 576.5,-257.5 665.5,-257.5 665.5,-234.5 576.5,-234.5"/>
<text text-anchor="start" x="580.5" y="-242.3" font-family="arial" font-size="14.00">Crimp ferrule</text>
</g>
<!-- AUTOGENERATED_F_8 -->
<g id="node8" class="node">
<title>AUTOGENERATED_F_8</title>
<polygon fill="#ffffff" stroke="black" points="665,-211 576,-211 576,-188 665,-188 665,-211"/>
<polygon fill="none" stroke="black" points="576.5,-187.5 576.5,-210.5 665.5,-210.5 665.5,-187.5 576.5,-187.5"/>
<text text-anchor="start" x="580.5" y="-195.3" font-family="arial" font-size="14.00">Crimp ferrule</text>
</g>
<!-- AUTOGENERATED_F_9 -->
<g id="node9" class="node">
<title>AUTOGENERATED_F_9</title>
<polygon fill="#ffffff" stroke="black" points="665,-164 576,-164 576,-141 665,-141 665,-164"/>
<polygon fill="none" stroke="black" points="576.5,-140.5 576.5,-163.5 665.5,-163.5 665.5,-140.5 576.5,-140.5"/>
<text text-anchor="start" x="580.5" y="-148.3" font-family="arial" font-size="14.00">Crimp ferrule</text>
</g>
<!-- AUTOGENERATED_F_10 -->
<g id="node10" class="node">
<title>AUTOGENERATED_F_10</title>
<polygon fill="#ffffff" stroke="black" points="665,-117 576,-117 576,-94 665,-94 665,-117"/>
<polygon fill="none" stroke="black" points="576.5,-93.5 576.5,-116.5 665.5,-116.5 665.5,-93.5 576.5,-93.5"/>
<text text-anchor="start" x="580.5" y="-101.3" font-family="arial" font-size="14.00">Crimp ferrule</text>
</g>
<!-- AUTOGENERATED_F_11 -->
<g id="node11" class="node">
<title>AUTOGENERATED_F_11</title>
<polygon fill="#ffffff" stroke="black" points="665,-70 576,-70 576,-47 665,-47 665,-70"/>
<polygon fill="none" stroke="black" points="576.5,-46.5 576.5,-69.5 665.5,-69.5 665.5,-46.5 576.5,-46.5"/>
<text text-anchor="start" x="580.5" y="-54.3" font-family="arial" font-size="14.00">Crimp ferrule</text>
</g>
<!-- AUTOGENERATED_F_12 -->
<g id="node12" class="node">
<title>AUTOGENERATED_F_12</title>
<polygon fill="#ffffff" stroke="black" points="665,-23 576,-23 576,0 665,0 665,-23"/>
<polygon fill="none" stroke="black" points="576.5,0.5 576.5,-22.5 665.5,-22.5 665.5,0.5 576.5,0.5"/>
<text text-anchor="start" x="580.5" y="-7.3" font-family="arial" font-size="14.00">Crimp ferrule</text>
</g>
<!-- W1&#45;&#45;AUTOGENERATED_F_7 -->
<g id="edge2" class="edge">
<title>W1:e&#45;&#45;AUTOGENERATED_F_7:w</title>
<path fill="none" stroke="#000000" stroke-width="2" d="M432,-189.5C502.49,-191.25 509.47,-246.25 576,-244.5"/>
<path fill="none" stroke="#895956" stroke-width="2" d="M432,-191.5C500.51,-191.5 507.49,-246.5 576,-246.5"/>
<path fill="none" stroke="#000000" stroke-width="2" d="M432,-193.5C498.53,-191.75 505.51,-246.75 576,-248.5"/>
</g>
<!-- W1&#45;&#45;AUTOGENERATED_F_8 -->
<g id="edge4" class="edge">
<title>W1:e&#45;&#45;AUTOGENERATED_F_8:w</title>
<path fill="none" stroke="#000000" stroke-width="2" d="M432,-164.5C499.53,-165.78 512.21,-198.78 576,-197.5"/>
<path fill="none" stroke="#ff0000" stroke-width="2" d="M432,-166.5C497.66,-166.5 510.34,-199.5 576,-199.5"/>
<path fill="none" stroke="#000000" stroke-width="2" d="M432,-168.5C495.79,-167.22 508.47,-200.22 576,-201.5"/>
</g>
<!-- W1&#45;&#45;AUTOGENERATED_F_9 -->
<g id="edge6" class="edge">
<title>W1:e&#45;&#45;AUTOGENERATED_F_9:w</title>
<path fill="none" stroke="#000000" stroke-width="2" d="M432,-139.5C497.34,-139.86 512.96,-150.86 576,-150.5"/>
<path fill="none" stroke="#ff8000" stroke-width="2" d="M432,-141.5C496.19,-141.5 511.81,-152.5 576,-152.5"/>
<path fill="none" stroke="#000000" stroke-width="2" d="M432,-143.5C495.04,-143.14 510.66,-154.14 576,-154.5"/>
</g>
<!-- W1&#45;&#45;AUTOGENERATED_F_10 -->
<g id="edge8" class="edge">
<title>W1:e&#45;&#45;AUTOGENERATED_F_10:w</title>
<path fill="none" stroke="#000000" stroke-width="2" d="M432,-114.5C495.04,-114.86 510.66,-103.86 576,-103.5"/>
<path fill="none" stroke="#ffff00" stroke-width="2" d="M432,-116.5C496.19,-116.5 511.81,-105.5 576,-105.5"/>
<path fill="none" stroke="#000000" stroke-width="2" d="M432,-118.5C497.34,-118.14 512.96,-107.14 576,-107.5"/>
</g>
<!-- W1&#45;&#45;AUTOGENERATED_F_11 -->
<g id="edge10" class="edge">
<title>W1:e&#45;&#45;AUTOGENERATED_F_11:w</title>
<path fill="none" stroke="#000000" stroke-width="2" d="M432,-89.5C495.79,-90.78 508.47,-57.78 576,-56.5"/>
<path fill="none" stroke="#00ff00" stroke-width="2" d="M432,-91.5C497.66,-91.5 510.34,-58.5 576,-58.5"/>
<path fill="none" stroke="#000000" stroke-width="2" d="M432,-93.5C499.53,-92.22 512.21,-59.22 576,-60.5"/>
</g>
<!-- W1&#45;&#45;AUTOGENERATED_F_12 -->
<g id="edge12" class="edge">
<title>W1:e&#45;&#45;AUTOGENERATED_F_12:w</title>
<path fill="none" stroke="#000000" stroke-width="2" d="M432,-64.5C498.53,-66.25 505.51,-11.25 576,-9.5"/>
<path fill="none" stroke="#0066ff" stroke-width="2" d="M432,-66.5C500.51,-66.5 507.49,-11.5 576,-11.5"/>
<path fill="none" stroke="#000000" stroke-width="2" d="M432,-68.5C502.49,-66.75 509.47,-11.75 576,-13.5"/>
</g>
</g>
</svg>
