<?xml version="1.0" encoding="UTF-8" standalone="no"?>
<!DOCTYPE svg PUBLIC "-//W3C//DTD SVG 1.1//EN"
 "http://www.w3.org/Graphics/SVG/1.1/DTD/svg11.dtd">
<!-- Generated by graphviz version 12.1.2 (0)
 -->
<!-- Pages: 1 -->
<svg width="665pt" height="290pt"
 viewBox="0.00 0.00 665.26 289.63" xmlns="http://www.w3.org/2000/svg" xmlns:xlink="http://www.w3.org/1999/xlink">
<g id="graph0" class="graph" transform="scale(1 1) rotate(0) translate(4 285.63)">
<polygon fill="#ffffff" stroke="none" points="-4,4 -4,-285.63 661.26,-285.63 661.26,4 -4,4"/>
<!-- AUTOGENERATED_F_1 -->
<g id="node1" class="node">
<title>AUTOGENERATED_F_1</title>
<polygon fill="#ffffff" stroke="black" points="86.75,-263.75 0,-263.75 0,-240 86.75,-240 86.75,-263.75"/>
<polygon fill="#ffffff" stroke="none" points="0,-240 0,-263.75 86.75,-263.75 86.75,-240 0,-240"/>
<polygon fill="none" stroke="black" points="0,-240 0,-263.75 86.75,-263.75 86.75,-240 0,-240"/>
<text text-anchor="start" x="4" y="-246.45" font-family="arial" font-size="14.00">Crimp ferrule</text>
</g>
<!-- W1 -->
<g id="node2" class="node">
<title>W1</title>
<polygon fill="#ffffff" stroke="black" stroke-dasharray="5,2" points="426.5,-281.63 230.74,-281.63 230.74,-46.13 426.5,-46.13 426.5,-281.63"/>
<polygon fill="#ffffff" stroke="none" points="230.75,-46.13 230.75,-281.63 426.5,-281.63 426.5,-46.13 230.75,-46.13"/>
<polygon fill="none" stroke="black" points="230.75,-257.88 230.75,-281.63 426.5,-281.63 426.5,-257.88 230.75,-257.88"/>
<text text-anchor="start" x="318.12" y="-264.33" font-family="arial" font-size="14.00">W1</text>
<polygon fill="none" stroke="black" points="230.75,-234.13 230.75,-257.88 253,-257.88 253,-234.13 230.75,-234.13"/>
<text text-anchor="start" x="234.75" y="-240.58" font-family="arial" font-size="14.00">6x</text>
<polygon fill="none" stroke="black" points="253,-234.13 253,-257.88 384,-257.88 384,-234.13 253,-234.13"/>
<text text-anchor="start" x="257" y="-240.58" font-family="arial" font-size="14.00">0.25 mm² (24 AWG)</text>
<polygon fill="none" stroke="black" points="384,-234.13 384,-257.88 426.5,-257.88 426.5,-234.13 384,-234.13"/>
<text text-anchor="start" x="388" y="-240.58" font-family="arial" font-size="14.00">0.2 m</text>
<text text-anchor="start" x="243.85" y="-218.83" font-family="arial" font-size="14.00"> </text>
<text text-anchor="start" x="232.75" y="-199.83" font-family="arial" font-size="14.00"> </text>
<text text-anchor="start" x="273.81" y="-199.83" font-family="arial" font-size="14.00"> </text>
<text text-anchor="start" x="332.73" y="-199.83" font-family="arial" font-size="14.00">BN</text>
<text text-anchor="start" x="379.68" y="-199.83" font-family="arial" font-size="14.00"> </text>
<text text-anchor="start" x="420.75" y="-199.83" font-family="arial" font-size="14.00"> </text>
<text text-anchor="start" x="232.75" y="-174.83" font-family="arial" font-size="14.00"> </text>
<text text-anchor="start" x="273.81" y="-174.83" font-family="arial" font-size="14.00"> </text>
<text text-anchor="start" x="332.35" y="-174.83" font-family="arial" font-size="14.00">RD</text>
<text text-anchor="start" x="379.68" y="-174.83" font-family="arial" font-size="14.00"> </text>
<text text-anchor="start" x="420.75" y="-174.83" font-family="arial" font-size="14.00"> </text>
<text text-anchor="start" x="232.75" y="-149.83" font-family="arial" font-size="14.00"> </text>
<text text-anchor="start" x="273.81" y="-149.83" font-family="arial" font-size="14.00"> </text>
<text text-anchor="start" x="330.85" y="-149.83" font-family="arial" font-size="14.00">OG</text>
<text text-anchor="start" x="379.68" y="-149.83" font-family="arial" font-size="14.00"> </text>
<text text-anchor="start" x="420.75" y="-149.83" font-family="arial" font-size="14.00"> </text>
<text text-anchor="start" x="232.75" y="-124.83" font-family="arial" font-size="14.00"> </text>
<text text-anchor="start" x="273.81" y="-124.83" font-family="arial" font-size="14.00"> </text>
<text text-anchor="start" x="333.1" y="-124.83" font-family="arial" font-size="14.00">YE</text>
<text text-anchor="start" x="379.68" y="-124.83" font-family="arial" font-size="14.00"> </text>
<text text-anchor="start" x="420.75" y="-124.83" font-family="arial" font-size="14.00"> </text>
<text text-anchor="start" x="232.75" y="-99.83" font-family="arial" font-size="14.00"> </text>
<text text-anchor="start" x="273.81" y="-99.83" font-family="arial" font-size="14.00"> </text>
<text text-anchor="start" x="331.6" y="-99.83" font-family="arial" font-size="14.00">GN</text>
<text text-anchor="start" x="379.68" y="-99.83" font-family="arial" font-size="14.00"> </text>
<text text-anchor="start" x="420.75" y="-99.83" font-family="arial" font-size="14.00"> </text>
<text text-anchor="start" x="232.75" y="-74.83" font-family="arial" font-size="14.00"> </text>
<text text-anchor="start" x="273.81" y="-74.83" font-family="arial" font-size="14.00"> </text>
<text text-anchor="start" x="332.73" y="-74.83" font-family="arial" font-size="14.00">BU</text>
<text text-anchor="start" x="379.68" y="-74.83" font-family="arial" font-size="14.00"> </text>
<text text-anchor="start" x="420.75" y="-74.83" font-family="arial" font-size="14.00"> </text>
<text text-anchor="start" x="243.85" y="-49.83" font-family="arial" font-size="14.00"> </text>
</g>
<!-- AUTOGENERATED_F_1&#45;&#45;W1 -->
<g id="edge1" class="edge">
<title>AUTOGENERATED_F_1:e&#45;&#45;W1:w</title>
<path fill="none" stroke="#000000" stroke-width="2" d="M86.75,-249.88C153.88,-251.68 159.64,-192.92 230.75,-191.12"/>
<path fill="none" stroke="#895956" stroke-width="2" d="M86.75,-251.88C155.87,-251.88 161.63,-193.12 230.75,-193.12"/>
<path fill="none" stroke="#000000" stroke-width="2" d="M86.75,-253.88C157.86,-252.08 163.62,-193.32 230.75,-195.12"/>
</g>
<!-- W1&#45;&#45;W1 -->
<g id="edge2" class="edge">
<title>W1:e&#45;&#45;W1:w</title>
<path fill="none" stroke="#000000" stroke-width="2" d="M426.5,-195.12C361.25,-195.12 296,-195.12 230.75,-195.12"/>
<path fill="none" stroke="#895956" stroke-width="2" d="M426.5,-193.12C361.25,-193.12 296,-193.12 230.75,-193.12"/>
<path fill="none" stroke="#000000" stroke-width="2" d="M426.5,-191.12C361.25,-191.12 296,-191.12 230.75,-191.12"/>
</g>
<!-- W1&#45;&#45;W1 -->
<g id="edge3" class="edge">
<title>W1:e&#45;&#45;W1:w</title>
<path fill="none" stroke="#000000" stroke-width="2" d="M426.5,-170.12C361.25,-170.12 296,-170.12 230.75,-170.12"/>
<path fill="none" stroke="#ff0000" stroke-width="2" d="M426.5,-168.12C361.25,-168.12 296,-168.12 230.75,-168.12"/>
<path fill="none" stroke="#000000" stroke-width="2" d="M426.5,-166.12C361.25,-166.12 296,-166.12 230.75,-166.12"/>
</g>
<!-- W1&#45;&#45;W1 -->
<g id="edge4" class="edge">
<title>W1:e&#45;&#45;W1:w</title>
<path fill="none" stroke="#000000" stroke-width="2" d="M426.5,-145.12C361.25,-145.12 296,-145.12 230.75,-145.12"/>
<path fill="none" stroke="#ff8000" stroke-width="2" d="M426.5,-143.12C361.25,-143.12 296,-143.12 230.75,-143.12"/>
<path fill="none" stroke="#000000" stroke-width="2" d="M426.5,-141.12C361.25,-141.12 296,-141.12 230.75,-141.12"/>
</g>
<!-- W1&#45;&#45;W1 -->
<g id="edge5" class="edge">
<title>W1:e&#45;&#45;W1:w</title>
<path fill="none" stroke="#000000" stroke-width="2" d="M426.5,-120.12C361.25,-120.12 296,-120.12 230.75,-120.12"/>
<path fill="none" stroke="#ffff00" stroke-width="2" d="M426.5,-118.12C361.25,-118.12 296,-118.12 230.75,-118.12"/>
<path fill="none" stroke="#000000" stroke-width="2" d="M426.5,-116.12C361.25,-116.12 296,-116.12 230.75,-116.12"/>
</g>
<!-- W1&#45;&#45;W1 -->
<g id="edge6" class="edge">
<title>W1:e&#45;&#45;W1:w</title>
<path fill="none" stroke="#000000" stroke-width="2" d="M426.5,-95.12C361.25,-95.12 296,-95.12 230.75,-95.12"/>
<path fill="none" stroke="#00aa00" stroke-width="2" d="M426.5,-93.12C361.25,-93.12 296,-93.12 230.75,-93.12"/>
<path fill="none" stroke="#000000" stroke-width="2" d="M426.5,-91.13C361.25,-91.12 296,-91.12 230.75,-91.13"/>
</g>
<!-- W1&#45;&#45;W1 -->
<g id="edge7" class="edge">
<title>W1:e&#45;&#45;W1:w</title>
<path fill="none" stroke="#000000" stroke-width="2" d="M426.5,-70.12C361.25,-70.12 296,-70.12 230.75,-70.12"/>
<path fill="none" stroke="#0066ff" stroke-width="2" d="M426.5,-68.12C361.25,-68.12 296,-68.12 230.75,-68.12"/>
<path fill="none" stroke="#000000" stroke-width="2" d="M426.5,-66.13C361.25,-66.12 296,-66.12 230.75,-66.13"/>
</g>
<!-- AUTOGENERATED_F_7 -->
<g id="node3" class="node">
<title>AUTOGENERATED_F_7</title>
<polygon fill="#ffffff" stroke="black" points="657.26,-263.75 570.5,-263.75 570.5,-240 657.26,-240 657.26,-263.75"/>
<polygon fill="#ffffff" stroke="none" points="570.51,-240 570.51,-263.75 657.26,-263.75 657.26,-240 570.51,-240"/>
<polygon fill="none" stroke="black" points="570.51,-240 570.51,-263.75 657.26,-263.75 657.26,-240 570.51,-240"/>
<text text-anchor="start" x="574.51" y="-246.45" font-family="arial" font-size="14.00">Crimp ferrule</text>
</g>
<!-- W1&#45;&#45;AUTOGENERATED_F_7 -->
<g id="edge8" class="edge">
<title>W1:e&#45;&#45;AUTOGENERATED_F_7:w</title>
<path fill="none" stroke="#000000" stroke-width="2" d="M426.5,-191.12C497.61,-192.92 503.37,-251.68 570.5,-249.88"/>
<path fill="none" stroke="#895956" stroke-width="2" d="M426.5,-193.12C495.62,-193.12 501.38,-251.88 570.5,-251.88"/>
<path fill="none" stroke="#000000" stroke-width="2" d="M426.5,-195.12C493.63,-193.32 499.39,-252.08 570.5,-253.88"/>
</g>
<!-- AUTOGENERATED_F_8 -->
<g id="node4" class="node">
<title>AUTOGENERATED_F_8</title>
<polygon fill="#ffffff" stroke="black" points="657.26,-215.75 570.5,-215.75 570.5,-192 657.26,-192 657.26,-215.75"/>
<polygon fill="#ffffff" stroke="none" points="570.51,-192 570.51,-215.75 657.26,-215.75 657.26,-192 570.51,-192"/>
<polygon fill="none" stroke="black" points="570.51,-192 570.51,-215.75 657.26,-215.75 657.26,-192 570.51,-192"/>
<text text-anchor="start" x="574.51" y="-198.45" font-family="arial" font-size="14.00">Crimp ferrule</text>
</g>
<!-- W1&#45;&#45;AUTOGENERATED_F_8 -->
<g id="edge9" class="edge">
<title>W1:e&#45;&#45;AUTOGENERATED_F_8:w</title>
<path fill="none" stroke="#000000" stroke-width="2" d="M426.5,-166.12C494.34,-167.48 506.46,-203.24 570.5,-201.88"/>
<path fill="none" stroke="#ff0000" stroke-width="2" d="M426.5,-168.12C492.44,-168.12 504.56,-203.88 570.5,-203.88"/>
<path fill="none" stroke="#000000" stroke-width="2" d="M426.5,-170.12C490.55,-168.76 502.67,-204.52 570.5,-205.88"/>
</g>
<!-- AUTOGENERATED_F_9 -->
<g id="node5" class="node">
<title>AUTOGENERATED_F_9</title>
<polygon fill="#ffffff" stroke="black" points="657.26,-167.75 570.5,-167.75 570.5,-144 657.26,-144 657.26,-167.75"/>
<polygon fill="#ffffff" stroke="none" points="570.51,-144 570.51,-167.75 657.26,-167.75 657.26,-144 570.51,-144"/>
<polygon fill="none" stroke="black" points="570.51,-144 570.51,-167.75 657.26,-167.75 657.26,-144 570.51,-144"/>
<text text-anchor="start" x="574.51" y="-150.45" font-family="arial" font-size="14.00">Crimp ferrule</text>
</g>
<!-- W1&#45;&#45;AUTOGENERATED_F_9 -->
<g id="edge10" class="edge">
<title>W1:e&#45;&#45;AUTOGENERATED_F_9:w</title>
<path fill="none" stroke="#000000" stroke-width="2" d="M426.5,-141.12C492.02,-141.58 507.52,-154.34 570.5,-153.88"/>
<path fill="none" stroke="#ff8000" stroke-width="2" d="M426.5,-143.12C490.75,-143.12 506.25,-155.88 570.5,-155.88"/>
<path fill="none" stroke="#000000" stroke-width="2" d="M426.5,-145.12C489.48,-144.66 504.98,-157.42 570.5,-157.88"/>
</g>
<!-- AUTOGENERATED_F_10 -->
<g id="node6" class="node">
<title>AUTOGENERATED_F_10</title>
<polygon fill="#ffffff" stroke="black" points="657.26,-119.75 570.5,-119.75 570.5,-96 657.26,-96 657.26,-119.75"/>
<polygon fill="#ffffff" stroke="none" points="570.51,-96 570.51,-119.75 657.26,-119.75 657.26,-96 570.51,-96"/>
<polygon fill="none" stroke="black" points="570.51,-96 570.51,-119.75 657.26,-119.75 657.26,-96 570.51,-96"/>
<text text-anchor="start" x="574.51" y="-102.45" font-family="arial" font-size="14.00">Crimp ferrule</text>
</g>
<!-- W1&#45;&#45;AUTOGENERATED_F_10 -->
<g id="edge11" class="edge">
<title>W1:e&#45;&#45;AUTOGENERATED_F_10:w</title>
<path fill="none" stroke="#000000" stroke-width="2" d="M426.5,-116.12C489.57,-116.45 505.25,-106.21 570.5,-105.88"/>
<path fill="none" stroke="#ffff00" stroke-width="2" d="M426.5,-118.12C490.66,-118.12 506.34,-107.88 570.5,-107.88"/>
<path fill="none" stroke="#000000" stroke-width="2" d="M426.5,-120.12C491.75,-119.79 507.43,-109.55 570.5,-109.88"/>
</g>
<!-- AUTOGENERATED_F_11 -->
<g id="node7" class="node">
<title>AUTOGENERATED_F_11</title>
<polygon fill="#ffffff" stroke="black" points="657.26,-71.75 570.5,-71.75 570.5,-48 657.26,-48 657.26,-71.75"/>
<polygon fill="#ffffff" stroke="none" points="570.51,-48 570.51,-71.75 657.26,-71.75 657.26,-48 570.51,-48"/>
<polygon fill="none" stroke="black" points="570.51,-48 570.51,-71.75 657.26,-71.75 657.26,-48 570.51,-48"/>
<text text-anchor="start" x="574.51" y="-54.45" font-family="arial" font-size="14.00">Crimp ferrule</text>
</g>
<!-- W1&#45;&#45;AUTOGENERATED_F_11 -->
<g id="edge12" class="edge">
<title>W1:e&#45;&#45;AUTOGENERATED_F_11:w</title>
<path fill="none" stroke="#000000" stroke-width="2" d="M426.5,-91.13C490.31,-92.41 502.95,-59.16 570.5,-57.88"/>
<path fill="none" stroke="#00aa00" stroke-width="2" d="M426.5,-93.12C492.18,-93.12 504.82,-59.87 570.5,-59.88"/>
<path fill="none" stroke="#000000" stroke-width="2" d="M426.5,-95.12C494.05,-93.84 506.69,-60.59 570.5,-61.87"/>
</g>
<!-- AUTOGENERATED_F_12 -->
<g id="node8" class="node">
<title>AUTOGENERATED_F_12</title>
<polygon fill="#ffffff" stroke="black" points="657.26,-23.75 570.5,-23.75 570.5,0 657.26,0 657.26,-23.75"/>
<polygon fill="#ffffff" stroke="none" points="570.51,0 570.51,-23.75 657.26,-23.75 657.26,0 570.51,0"/>
<polygon fill="none" stroke="black" points="570.51,0 570.51,-23.75 657.26,-23.75 657.26,0 570.51,0"/>
<text text-anchor="start" x="574.51" y="-6.45" font-family="arial" font-size="14.00">Crimp ferrule</text>
</g>
<!-- W1&#45;&#45;AUTOGENERATED_F_12 -->
<g id="edge13" class="edge">
<title>W1:e&#45;&#45;AUTOGENERATED_F_12:w</title>
<path fill="none" stroke="#000000" stroke-width="2" d="M426.5,-66.13C493.22,-67.89 499.8,-11.64 570.5,-9.88"/>
<path fill="none" stroke="#0066ff" stroke-width="2" d="M426.5,-68.12C495.21,-68.12 501.79,-11.87 570.5,-11.88"/>
<path fill="none" stroke="#000000" stroke-width="2" d="M426.5,-70.12C497.2,-68.36 503.78,-12.11 570.5,-13.87"/>
</g>
<!-- AUTOGENERATED_F_2 -->
<g id="node9" class="node">
<title>AUTOGENERATED_F_2</title>
<polygon fill="#ffffff" stroke="black" points="86.75,-215.75 0,-215.75 0,-192 86.75,-192 86.75,-215.75"/>
<polygon fill="#ffffff" stroke="none" points="0,-192 0,-215.75 86.75,-215.75 86.75,-192 0,-192"/>
<polygon fill="none" stroke="black" points="0,-192 0,-215.75 86.75,-215.75 86.75,-192 0,-192"/>
<text text-anchor="start" x="4" y="-198.45" font-family="arial" font-size="14.00">Crimp ferrule</text>
</g>
<!-- AUTOGENERATED_F_2&#45;&#45;W1 -->
<g id="edge14" class="edge">
<title>AUTOGENERATED_F_2:e&#45;&#45;W1:w</title>
<path fill="none" stroke="#000000" stroke-width="2" d="M86.75,-201.88C150.8,-203.24 162.92,-167.48 230.75,-166.12"/>
<path fill="none" stroke="#ff0000" stroke-width="2" d="M86.75,-203.88C152.69,-203.88 164.81,-168.12 230.75,-168.12"/>
<path fill="none" stroke="#000000" stroke-width="2" d="M86.75,-205.88C154.59,-204.52 166.71,-168.76 230.75,-170.12"/>
</g>
<!-- AUTOGENERATED_F_3 -->
<g id="node10" class="node">
<title>AUTOGENERATED_F_3</title>
<polygon fill="#ffffff" stroke="black" points="86.75,-167.75 0,-167.75 0,-144 86.75,-144 86.75,-167.75"/>
<polygon fill="#ffffff" stroke="none" points="0,-144 0,-167.75 86.75,-167.75 86.75,-144 0,-144"/>
<polygon fill="none" stroke="black" points="0,-144 0,-167.75 86.75,-167.75 86.75,-144 0,-144"/>
<text text-anchor="start" x="4" y="-150.45" font-family="arial" font-size="14.00">Crimp ferrule</text>
</g>
<!-- AUTOGENERATED_F_3&#45;&#45;W1 -->
<g id="edge15" class="edge">
<title>AUTOGENERATED_F_3:e&#45;&#45;W1:w</title>
<path fill="none" stroke="#000000" stroke-width="2" d="M86.75,-153.88C149.73,-154.34 165.23,-141.58 230.75,-141.12"/>
<path fill="none" stroke="#ff8000" stroke-width="2" d="M86.75,-155.88C151,-155.88 166.5,-143.12 230.75,-143.12"/>
<path fill="none" stroke="#000000" stroke-width="2" d="M86.75,-157.88C152.27,-157.42 167.77,-144.66 230.75,-145.12"/>
</g>
<!-- AUTOGENERATED_F_4 -->
<g id="node11" class="node">
<title>AUTOGENERATED_F_4</title>
<polygon fill="#ffffff" stroke="black" points="86.75,-119.75 0,-119.75 0,-96 86.75,-96 86.75,-119.75"/>
<polygon fill="#ffffff" stroke="none" points="0,-96 0,-119.75 86.75,-119.75 86.75,-96 0,-96"/>
<polygon fill="none" stroke="black" points="0,-96 0,-119.75 86.75,-119.75 86.75,-96 0,-96"/>
<text text-anchor="start" x="4" y="-102.45" font-family="arial" font-size="14.00">Crimp ferrule</text>
</g>
<!-- AUTOGENERATED_F_4&#45;&#45;W1 -->
<g id="edge16" class="edge">
<title>AUTOGENERATED_F_4:e&#45;&#45;W1:w</title>
<path fill="none" stroke="#000000" stroke-width="2" d="M86.75,-105.88C152,-106.21 167.68,-116.45 230.75,-116.12"/>
<path fill="none" stroke="#ffff00" stroke-width="2" d="M86.75,-107.88C150.91,-107.88 166.59,-118.12 230.75,-118.12"/>
<path fill="none" stroke="#000000" stroke-width="2" d="M86.75,-109.88C149.82,-109.55 165.5,-119.79 230.75,-120.12"/>
</g>
<!-- AUTOGENERATED_F_5 -->
<g id="node12" class="node">
<title>AUTOGENERATED_F_5</title>
<polygon fill="#ffffff" stroke="black" points="86.75,-71.75 0,-71.75 0,-48 86.75,-48 86.75,-71.75"/>
<polygon fill="#ffffff" stroke="none" points="0,-48 0,-71.75 86.75,-71.75 86.75,-48 0,-48"/>
<polygon fill="none" stroke="black" points="0,-48 0,-71.75 86.75,-71.75 86.75,-48 0,-48"/>
<text text-anchor="start" x="4" y="-54.45" font-family="arial" font-size="14.00">Crimp ferrule</text>
</g>
<!-- AUTOGENERATED_F_5&#45;&#45;W1 -->
<g id="edge17" class="edge">
<title>AUTOGENERATED_F_5:e&#45;&#45;W1:w</title>
<path fill="none" stroke="#000000" stroke-width="2" d="M86.75,-57.88C154.3,-59.16 166.94,-92.41 230.75,-91.13"/>
<path fill="none" stroke="#00aa00" stroke-width="2" d="M86.75,-59.88C152.43,-59.87 165.07,-93.12 230.75,-93.12"/>
<path fill="none" stroke="#000000" stroke-width="2" d="M86.75,-61.87C150.56,-60.59 163.2,-93.84 230.75,-95.12"/>
</g>
<!-- AUTOGENERATED_F_6 -->
<g id="node13" class="node">
<title>AUTOGENERATED_F_6</title>
<polygon fill="#ffffff" stroke="black" points="86.75,-23.75 0,-23.75 0,0 86.75,0 86.75,-23.75"/>
<polygon fill="#ffffff" stroke="none" points="0,0 0,-23.75 86.75,-23.75 86.75,0 0,0"/>
<polygon fill="none" stroke="black" points="0,0 0,-23.75 86.75,-23.75 86.75,0 0,0"/>
<text text-anchor="start" x="4" y="-6.45" font-family="arial" font-size="14.00">Crimp ferrule</text>
</g>
<!-- AUTOGENERATED_F_6&#45;&#45;W1 -->
<g id="edge18" class="edge">
<title>AUTOGENERATED_F_6:e&#45;&#45;W1:w</title>
<path fill="none" stroke="#000000" stroke-width="2" d="M86.75,-9.88C157.45,-11.64 164.03,-67.89 230.75,-66.13"/>
<path fill="none" stroke="#0066ff" stroke-width="2" d="M86.75,-11.88C155.46,-11.88 162.04,-68.13 230.75,-68.12"/>
<path fill="none" stroke="#000000" stroke-width="2" d="M86.75,-13.87C153.47,-12.11 160.05,-68.36 230.75,-70.12"/>
</g>
</g>
</svg>
