<?xml version="1.0" encoding="UTF-8" standalone="no"?>
<!DOCTYPE svg PUBLIC "-//W3C//DTD SVG 1.1//EN"
 "http://www.w3.org/Graphics/SVG/1.1/DTD/svg11.dtd">
<!-- Generated by graphviz version 11.0.0 (20240428.1522)
 -->
<!-- Pages: 1 -->
<svg width="1541pt" height="201pt"
 viewBox="0.00 0.00 1540.73 201.00" xmlns="http://www.w3.org/2000/svg" xmlns:xlink="http://www.w3.org/1999/xlink">
<g id="graph0" class="graph" transform="scale(1 1) rotate(0) translate(4 197)">
<polygon fill="#ffffff" stroke="none" points="-4,4 -4,-197 1536.73,-197 1536.73,4 -4,4"/>
<!-- X1 -->
<g id="node1" class="node">
<title>X1</title>
<polygon fill="#ffffff" stroke="black" points="188.25,-159 0,-159 0,-14 188.25,-14 188.25,-159"/>
<polygon fill="none" stroke="black" points="0,-134.5 0,-159 188.25,-159 188.25,-134.5 0,-134.5"/>
<text text-anchor="start" x="85.13" y="-141.7" font-family="arial" font-size="14.00">X1</text>
<polygon fill="none" stroke="black" points="0,-110 0,-134.5 97.25,-134.5 97.25,-110 0,-110"/>
<text text-anchor="start" x="4" y="-117.2" font-family="arial" font-size="14.00">Molex KK 254</text>
<polygon fill="none" stroke="black" points="97.25,-110 97.25,-134.5 148.75,-134.5 148.75,-110 97.25,-110"/>
<text text-anchor="start" x="101.25" y="-117.2" font-family="arial" font-size="14.00">female</text>
<polygon fill="none" stroke="black" points="148.75,-110 148.75,-134.5 188.25,-134.5 188.25,-110 148.75,-110"/>
<text text-anchor="start" x="152.75" y="-117.2" font-family="arial" font-size="14.00">4&#45;pin</text>
<polygon fill="none" stroke="black" points="0,-86 0,-110 105.63,-110 105.63,-86 0,-86"/>
<text text-anchor="start" x="37.06" y="-92.7" font-family="arial" font-size="14.00">GND</text>
<polygon fill="none" stroke="black" points="105.63,-86 105.63,-110 188.25,-110 188.25,-86 105.63,-86"/>
<text text-anchor="start" x="142.81" y="-92.7" font-family="arial" font-size="14.00">1</text>
<polygon fill="none" stroke="black" points="0,-62 0,-86 105.63,-86 105.63,-62 0,-62"/>
<text text-anchor="start" x="37.44" y="-68.7" font-family="arial" font-size="14.00">VCC</text>
<polygon fill="none" stroke="black" points="105.63,-62 105.63,-86 188.25,-86 188.25,-62 105.63,-62"/>
<text text-anchor="start" x="142.81" y="-68.7" font-family="arial" font-size="14.00">2</text>
<polygon fill="none" stroke="black" points="0,-38 0,-62 105.63,-62 105.63,-38 0,-38"/>
<text text-anchor="start" x="38.56" y="-44.7" font-family="arial" font-size="14.00">SCL</text>
<polygon fill="none" stroke="black" points="105.63,-38 105.63,-62 188.25,-62 188.25,-38 105.63,-38"/>
<text text-anchor="start" x="142.81" y="-44.7" font-family="arial" font-size="14.00">3</text>
<polygon fill="none" stroke="black" points="0,-14 0,-38 105.63,-38 105.63,-14 0,-14"/>
<text text-anchor="start" x="37.81" y="-20.7" font-family="arial" font-size="14.00">SDA</text>
<polygon fill="none" stroke="black" points="105.63,-14 105.63,-38 188.25,-38 188.25,-14 105.63,-14"/>
<text text-anchor="start" x="142.81" y="-20.7" font-family="arial" font-size="14.00">4</text>
</g>
<!-- W1 -->
<g id="node2" class="node">
<title>W1</title>
<polygon fill="#ffffff" stroke="black" stroke-dasharray="5,2" points="528.25,-193 332.25,-193 332.25,0 528.25,0 528.25,-193"/>
<polygon fill="none" stroke="black" points="332.25,-168.5 332.25,-193 528.25,-193 528.25,-168.5 332.25,-168.5"/>
<text text-anchor="start" x="419" y="-175.7" font-family="arial" font-size="14.00">W1</text>
<polygon fill="none" stroke="black" points="332.25,-144 332.25,-168.5 370.75,-168.5 370.75,-144 332.25,-144"/>
<text text-anchor="start" x="339.88" y="-151.2" font-family="arial" font-size="14.00">I2C</text>
<polygon fill="none" stroke="black" points="370.75,-144 370.75,-168.5 401,-168.5 401,-144 370.75,-144"/>
<text text-anchor="start" x="378.38" y="-151.2" font-family="arial" font-size="14.00">4x</text>
<polygon fill="none" stroke="black" points="401,-144 401,-168.5 477,-168.5 477,-144 401,-144"/>
<text text-anchor="start" x="408.63" y="-151.2" font-family="arial" font-size="14.00">0.25 mm²</text>
<polygon fill="none" stroke="black" points="477,-144 477,-168.5 528.25,-168.5 528.25,-144 477,-144"/>
<text text-anchor="start" x="484.63" y="-151.2" font-family="arial" font-size="14.00">0.2 m</text>
<text text-anchor="start" x="364.88" y="-128.7" font-family="arial" font-size="14.00"> </text>
<text text-anchor="start" x="334.13" y="-108.7" font-family="arial" font-size="14.00">X1:1:GND</text>
<text text-anchor="start" x="403.63" y="-108.7" font-family="arial" font-size="14.00"> &#160;&#160;&#160;&#160;PK &#160;&#160;&#160;</text>
<text text-anchor="start" x="461.13" y="-108.7" font-family="arial" font-size="14.00">X2:1:GND</text>
<text text-anchor="start" x="334.5" y="-82.7" font-family="arial" font-size="14.00">X1:2:VCC</text>
<text text-anchor="start" x="403.25" y="-82.7" font-family="arial" font-size="14.00"> &#160;&#160;&#160;&#160;TQ &#160;&#160;&#160;</text>
<text text-anchor="start" x="461.5" y="-82.7" font-family="arial" font-size="14.00">X2:2:VCC</text>
<text text-anchor="start" x="335.63" y="-56.7" font-family="arial" font-size="14.00">X1:3:SCL</text>
<text text-anchor="start" x="404" y="-56.7" font-family="arial" font-size="14.00"> &#160;&#160;&#160;&#160;YE &#160;&#160;&#160;</text>
<text text-anchor="start" x="462.63" y="-56.7" font-family="arial" font-size="14.00">X2:3:SCL</text>
<text text-anchor="start" x="334.88" y="-30.7" font-family="arial" font-size="14.00">X1:4:SDA</text>
<text text-anchor="start" x="404" y="-30.7" font-family="arial" font-size="14.00"> &#160;&#160;&#160;&#160;VT &#160;&#160;&#160;</text>
<text text-anchor="start" x="461.88" y="-30.7" font-family="arial" font-size="14.00">X2:4:SDA</text>
<text text-anchor="start" x="364.88" y="-4.7" font-family="arial" font-size="14.00"> </text>
</g>
<!-- X1&#45;&#45;W1 -->
<g id="edge1" class="edge">
<title>X1:e&#45;&#45;W1:w</title>
<path fill="none" stroke="#000000" stroke-width="2" d="M188.25,-96C252.63,-96.04 268.61,-99.04 332.25,-99"/>
<path fill="none" stroke="#ff66cc" stroke-width="2" d="M188.25,-98C252.26,-98 268.24,-101 332.25,-101"/>
<path fill="none" stroke="#000000" stroke-width="2" d="M188.25,-100C251.89,-99.97 267.87,-102.97 332.25,-103"/>
</g>
<!-- X1&#45;&#45;W1 -->
<g id="edge2" class="edge">
<title>X1:e&#45;&#45;W1:w</title>
<path fill="none" stroke="#000000" stroke-width="2" d="M188.25,-72C252.38,-72.01 268.38,-73.01 332.25,-73"/>
<path fill="none" stroke="#00ffff" stroke-width="2" d="M188.25,-74C252.25,-74 268.25,-75 332.25,-75"/>
<path fill="none" stroke="#000000" stroke-width="2" d="M188.25,-76C252.13,-76 268.13,-77 332.25,-77"/>
</g>
<!-- X1&#45;&#45;W1 -->
<g id="edge3" class="edge">
<title>X1:e&#45;&#45;W1:w</title>
<path fill="none" stroke="#000000" stroke-width="2" d="M188.25,-48C252.13,-48.01 268.13,-47.01 332.25,-47"/>
<path fill="none" stroke="#ffff00" stroke-width="2" d="M188.25,-50C252.25,-50 268.25,-49 332.25,-49"/>
<path fill="none" stroke="#000000" stroke-width="2" d="M188.25,-52C252.38,-52 268.38,-51 332.25,-51"/>
</g>
<!-- X1&#45;&#45;W1 -->
<g id="edge4" class="edge">
<title>X1:e&#45;&#45;W1:w</title>
<path fill="none" stroke="#000000" stroke-width="2" d="M188.25,-24C251.89,-24.04 267.87,-21.04 332.25,-21"/>
<path fill="none" stroke="#8000ff" stroke-width="2" d="M188.25,-26C252.26,-26 268.24,-23 332.25,-23"/>
<path fill="none" stroke="#000000" stroke-width="2" d="M188.25,-28C252.63,-27.97 268.61,-24.97 332.25,-25"/>
</g>
<!-- W1&#45;&#45;W1 -->
<g id="edge5" class="edge">
<title>W1:w&#45;&#45;W1:e</title>
<path fill="none" stroke="#000000" stroke-width="2" d="M332.25,-99C397.58,-99 462.92,-99 528.25,-99"/>
<path fill="none" stroke="#ff66cc" stroke-width="2" d="M332.25,-101C397.58,-101 462.92,-101 528.25,-101"/>
<path fill="none" stroke="#000000" stroke-width="2" d="M332.25,-103C397.58,-103 462.92,-103 528.25,-103"/>
</g>
<!-- W1&#45;&#45;W1 -->
<g id="edge6" class="edge">
<title>W1:w&#45;&#45;W1:e</title>
<path fill="none" stroke="#000000" stroke-width="2" d="M332.25,-73C397.58,-73 462.92,-73 528.25,-73"/>
<path fill="none" stroke="#00ffff" stroke-width="2" d="M332.25,-75C397.58,-75 462.92,-75 528.25,-75"/>
<path fill="none" stroke="#000000" stroke-width="2" d="M332.25,-77C397.58,-77 462.92,-77 528.25,-77"/>
</g>
<!-- W1&#45;&#45;W1 -->
<g id="edge7" class="edge">
<title>W1:w&#45;&#45;W1:e</title>
<path fill="none" stroke="#000000" stroke-width="2" d="M332.25,-47C397.58,-47 462.92,-47 528.25,-47"/>
<path fill="none" stroke="#ffff00" stroke-width="2" d="M332.25,-49C397.58,-49 462.92,-49 528.25,-49"/>
<path fill="none" stroke="#000000" stroke-width="2" d="M332.25,-51C397.58,-51 462.92,-51 528.25,-51"/>
</g>
<!-- W1&#45;&#45;W1 -->
<g id="edge8" class="edge">
<title>W1:w&#45;&#45;W1:e</title>
<path fill="none" stroke="#000000" stroke-width="2" d="M332.25,-21C397.58,-21 462.92,-21 528.25,-21"/>
<path fill="none" stroke="#8000ff" stroke-width="2" d="M332.25,-23C397.58,-23 462.92,-23 528.25,-23"/>
<path fill="none" stroke="#000000" stroke-width="2" d="M332.25,-25C397.58,-25 462.92,-25 528.25,-25"/>
</g>
<!-- X2 -->
<g id="node3" class="node">
<title>X2</title>
<polygon fill="#ffffff" stroke="black" points="860.51,-159 672.26,-159 672.26,-14 860.51,-14 860.51,-159"/>
<polygon fill="none" stroke="black" points="672.26,-134.5 672.26,-159 860.51,-159 860.51,-134.5 672.26,-134.5"/>
<text text-anchor="start" x="757.38" y="-141.7" font-family="arial" font-size="14.00">X2</text>
<polygon fill="none" stroke="black" points="672.26,-110 672.26,-134.5 769.51,-134.5 769.51,-110 672.26,-110"/>
<text text-anchor="start" x="676.26" y="-117.2" font-family="arial" font-size="14.00">Molex KK 254</text>
<polygon fill="none" stroke="black" points="769.51,-110 769.51,-134.5 821.01,-134.5 821.01,-110 769.51,-110"/>
<text text-anchor="start" x="773.51" y="-117.2" font-family="arial" font-size="14.00">female</text>
<polygon fill="none" stroke="black" points="821.01,-110 821.01,-134.5 860.51,-134.5 860.51,-110 821.01,-110"/>
<text text-anchor="start" x="825.01" y="-117.2" font-family="arial" font-size="14.00">4&#45;pin</text>
<polygon fill="none" stroke="black" points="672.26,-86 672.26,-110 727.34,-110 727.34,-86 672.26,-86"/>
<text text-anchor="start" x="695.67" y="-92.7" font-family="arial" font-size="14.00">1</text>
<polygon fill="none" stroke="black" points="727.34,-86 727.34,-110 805.42,-110 805.42,-86 727.34,-86"/>
<text text-anchor="start" x="750.63" y="-92.7" font-family="arial" font-size="14.00">GND</text>
<polygon fill="none" stroke="black" points="805.42,-86 805.42,-110 860.51,-110 860.51,-86 805.42,-86"/>
<text text-anchor="start" x="828.84" y="-92.7" font-family="arial" font-size="14.00">1</text>
<polygon fill="none" stroke="black" points="672.26,-62 672.26,-86 727.34,-86 727.34,-62 672.26,-62"/>
<text text-anchor="start" x="695.67" y="-68.7" font-family="arial" font-size="14.00">2</text>
<polygon fill="none" stroke="black" points="727.34,-62 727.34,-86 805.42,-86 805.42,-62 727.34,-62"/>
<text text-anchor="start" x="751.01" y="-68.7" font-family="arial" font-size="14.00">VCC</text>
<polygon fill="none" stroke="black" points="805.42,-62 805.42,-86 860.51,-86 860.51,-62 805.42,-62"/>
<text text-anchor="start" x="828.84" y="-68.7" font-family="arial" font-size="14.00">2</text>
<polygon fill="none" stroke="black" points="672.26,-38 672.26,-62 727.34,-62 727.34,-38 672.26,-38"/>
<text text-anchor="start" x="695.67" y="-44.7" font-family="arial" font-size="14.00">3</text>
<polygon fill="none" stroke="black" points="727.34,-38 727.34,-62 805.42,-62 805.42,-38 727.34,-38"/>
<text text-anchor="start" x="752.13" y="-44.7" font-family="arial" font-size="14.00">SCL</text>
<polygon fill="none" stroke="black" points="805.42,-38 805.42,-62 860.51,-62 860.51,-38 805.42,-38"/>
<text text-anchor="start" x="828.84" y="-44.7" font-family="arial" font-size="14.00">3</text>
<polygon fill="none" stroke="black" points="672.26,-14 672.26,-38 727.34,-38 727.34,-14 672.26,-14"/>
<text text-anchor="start" x="695.67" y="-20.7" font-family="arial" font-size="14.00">4</text>
<polygon fill="none" stroke="black" points="727.34,-14 727.34,-38 805.42,-38 805.42,-14 727.34,-14"/>
<text text-anchor="start" x="751.38" y="-20.7" font-family="arial" font-size="14.00">SDA</text>
<polygon fill="none" stroke="black" points="805.42,-14 805.42,-38 860.51,-38 860.51,-14 805.42,-14"/>
<text text-anchor="start" x="828.84" y="-20.7" font-family="arial" font-size="14.00">4</text>
</g>
<!-- W1&#45;&#45;X2 -->
<g id="edge9" class="edge">
<title>W1:e&#45;&#45;X2:w</title>
<path fill="none" stroke="#000000" stroke-width="2" d="M528.25,-99C591.89,-99.04 607.87,-96.04 672.25,-96"/>
<path fill="none" stroke="#ff66cc" stroke-width="2" d="M528.25,-101C592.26,-101 608.24,-98 672.25,-98"/>
<path fill="none" stroke="#000000" stroke-width="2" d="M528.25,-103C592.63,-102.97 608.61,-99.97 672.25,-100"/>
</g>
<!-- W1&#45;&#45;X2 -->
<g id="edge10" class="edge">
<title>W1:e&#45;&#45;X2:w</title>
<path fill="none" stroke="#000000" stroke-width="2" d="M528.25,-73C592.13,-73.01 608.13,-72.01 672.25,-72"/>
<path fill="none" stroke="#00ffff" stroke-width="2" d="M528.25,-75C592.25,-75 608.25,-74 672.25,-74"/>
<path fill="none" stroke="#000000" stroke-width="2" d="M528.25,-77C592.38,-77 608.38,-76 672.25,-76"/>
</g>
<!-- W1&#45;&#45;X2 -->
<g id="edge11" class="edge">
<title>W1:e&#45;&#45;X2:w</title>
<path fill="none" stroke="#000000" stroke-width="2" d="M528.25,-47C592.38,-47.01 608.38,-48.01 672.25,-48"/>
<path fill="none" stroke="#ffff00" stroke-width="2" d="M528.25,-49C592.25,-49 608.25,-50 672.25,-50"/>
<path fill="none" stroke="#000000" stroke-width="2" d="M528.25,-51C592.13,-51 608.13,-52 672.25,-52"/>
</g>
<!-- W1&#45;&#45;X2 -->
<g id="edge12" class="edge">
<title>W1:e&#45;&#45;X2:w</title>
<path fill="none" stroke="#000000" stroke-width="2" d="M528.25,-21C592.63,-21.04 608.61,-24.04 672.25,-24"/>
<path fill="none" stroke="#8000ff" stroke-width="2" d="M528.25,-23C592.26,-23 608.24,-26 672.25,-26"/>
<path fill="none" stroke="#000000" stroke-width="2" d="M528.25,-25C591.89,-24.97 607.87,-27.97 672.25,-28"/>
</g>
<!-- W2 -->
<g id="node4" class="node">
<title>W2</title>
<polygon fill="#ffffff" stroke="black" stroke-dasharray="5,2" points="1200.5,-193 1004.5,-193 1004.5,0 1200.5,0 1200.5,-193"/>
<polygon fill="none" stroke="black" points="1004.5,-168.5 1004.5,-193 1200.5,-193 1200.5,-168.5 1004.5,-168.5"/>
<text text-anchor="start" x="1091.25" y="-175.7" font-family="arial" font-size="14.00">W2</text>
<polygon fill="none" stroke="black" points="1004.5,-144 1004.5,-168.5 1043,-168.5 1043,-144 1004.5,-144"/>
<text text-anchor="start" x="1012.13" y="-151.2" font-family="arial" font-size="14.00">I2C</text>
<polygon fill="none" stroke="black" points="1043,-144 1043,-168.5 1073.25,-168.5 1073.25,-144 1043,-144"/>
<text text-anchor="start" x="1050.63" y="-151.2" font-family="arial" font-size="14.00">4x</text>
<polygon fill="none" stroke="black" points="1073.25,-144 1073.25,-168.5 1149.25,-168.5 1149.25,-144 1073.25,-144"/>
<text text-anchor="start" x="1080.88" y="-151.2" font-family="arial" font-size="14.00">0.25 mm²</text>
<polygon fill="none" stroke="black" points="1149.25,-144 1149.25,-168.5 1200.5,-168.5 1200.5,-144 1149.25,-144"/>
<text text-anchor="start" x="1156.88" y="-151.2" font-family="arial" font-size="14.00">0.2 m</text>
<text text-anchor="start" x="1037.13" y="-128.7" font-family="arial" font-size="14.00"> </text>
<text text-anchor="start" x="1006.38" y="-108.7" font-family="arial" font-size="14.00">X2:1:GND</text>
<text text-anchor="start" x="1075.88" y="-108.7" font-family="arial" font-size="14.00"> &#160;&#160;&#160;&#160;PK &#160;&#160;&#160;</text>
<text text-anchor="start" x="1133.38" y="-108.7" font-family="arial" font-size="14.00">X3:1:GND</text>
<text text-anchor="start" x="1006.75" y="-82.7" font-family="arial" font-size="14.00">X2:2:VCC</text>
<text text-anchor="start" x="1075.5" y="-82.7" font-family="arial" font-size="14.00"> &#160;&#160;&#160;&#160;TQ &#160;&#160;&#160;</text>
<text text-anchor="start" x="1133.75" y="-82.7" font-family="arial" font-size="14.00">X3:2:VCC</text>
<text text-anchor="start" x="1007.88" y="-56.7" font-family="arial" font-size="14.00">X2:3:SCL</text>
<text text-anchor="start" x="1076.25" y="-56.7" font-family="arial" font-size="14.00"> &#160;&#160;&#160;&#160;YE &#160;&#160;&#160;</text>
<text text-anchor="start" x="1134.88" y="-56.7" font-family="arial" font-size="14.00">X3:3:SCL</text>
<text text-anchor="start" x="1007.13" y="-30.7" font-family="arial" font-size="14.00">X2:4:SDA</text>
<text text-anchor="start" x="1076.25" y="-30.7" font-family="arial" font-size="14.00"> &#160;&#160;&#160;&#160;VT &#160;&#160;&#160;</text>
<text text-anchor="start" x="1134.13" y="-30.7" font-family="arial" font-size="14.00">X3:4:SDA</text>
<text text-anchor="start" x="1037.13" y="-4.7" font-family="arial" font-size="14.00"> </text>
</g>
<!-- X2&#45;&#45;W2 -->
<g id="edge13" class="edge">
<title>X2:e&#45;&#45;W2:w</title>
<path fill="none" stroke="#000000" stroke-width="2" d="M860.5,-96C924.88,-96.04 940.86,-99.04 1004.5,-99"/>
<path fill="none" stroke="#ff66cc" stroke-width="2" d="M860.5,-98C924.51,-98 940.49,-101 1004.5,-101"/>
<path fill="none" stroke="#000000" stroke-width="2" d="M860.5,-100C924.14,-99.97 940.12,-102.97 1004.5,-103"/>
</g>
<!-- X2&#45;&#45;W2 -->
<g id="edge14" class="edge">
<title>X2:e&#45;&#45;W2:w</title>
<path fill="none" stroke="#000000" stroke-width="2" d="M860.5,-72C924.63,-72.01 940.63,-73.01 1004.5,-73"/>
<path fill="none" stroke="#00ffff" stroke-width="2" d="M860.5,-74C924.5,-74 940.5,-75 1004.5,-75"/>
<path fill="none" stroke="#000000" stroke-width="2" d="M860.5,-76C924.38,-76 940.38,-77 1004.5,-77"/>
</g>
<!-- X2&#45;&#45;W2 -->
<g id="edge15" class="edge">
<title>X2:e&#45;&#45;W2:w</title>
<path fill="none" stroke="#000000" stroke-width="2" d="M860.5,-48C924.38,-48.01 940.38,-47.01 1004.5,-47"/>
<path fill="none" stroke="#ffff00" stroke-width="2" d="M860.5,-50C924.5,-50 940.5,-49 1004.5,-49"/>
<path fill="none" stroke="#000000" stroke-width="2" d="M860.5,-52C924.63,-52 940.63,-51 1004.5,-51"/>
</g>
<!-- X2&#45;&#45;W2 -->
<g id="edge16" class="edge">
<title>X2:e&#45;&#45;W2:w</title>
<path fill="none" stroke="#000000" stroke-width="2" d="M860.5,-24C924.14,-24.04 940.12,-21.04 1004.5,-21"/>
<path fill="none" stroke="#8000ff" stroke-width="2" d="M860.5,-26C924.51,-26 940.49,-23 1004.5,-23"/>
<path fill="none" stroke="#000000" stroke-width="2" d="M860.5,-28C924.88,-27.97 940.86,-24.97 1004.5,-25"/>
</g>
<!-- W2&#45;&#45;W2 -->
<g id="edge17" class="edge">
<title>W2:w&#45;&#45;W2:e</title>
<path fill="none" stroke="#000000" stroke-width="2" d="M1004.5,-99C1069.83,-99 1135.17,-99 1200.5,-99"/>
<path fill="none" stroke="#ff66cc" stroke-width="2" d="M1004.5,-101C1069.83,-101 1135.17,-101 1200.5,-101"/>
<path fill="none" stroke="#000000" stroke-width="2" d="M1004.5,-103C1069.83,-103 1135.17,-103 1200.5,-103"/>
</g>
<!-- W2&#45;&#45;W2 -->
<g id="edge18" class="edge">
<title>W2:w&#45;&#45;W2:e</title>
<path fill="none" stroke="#000000" stroke-width="2" d="M1004.5,-73C1069.83,-73 1135.17,-73 1200.5,-73"/>
<path fill="none" stroke="#00ffff" stroke-width="2" d="M1004.5,-75C1069.83,-75 1135.17,-75 1200.5,-75"/>
<path fill="none" stroke="#000000" stroke-width="2" d="M1004.5,-77C1069.83,-77 1135.17,-77 1200.5,-77"/>
</g>
<!-- W2&#45;&#45;W2 -->
<g id="edge19" class="edge">
<title>W2:w&#45;&#45;W2:e</title>
<path fill="none" stroke="#000000" stroke-width="2" d="M1004.5,-47C1069.83,-47 1135.17,-47 1200.5,-47"/>
<path fill="none" stroke="#ffff00" stroke-width="2" d="M1004.5,-49C1069.83,-49 1135.17,-49 1200.5,-49"/>
<path fill="none" stroke="#000000" stroke-width="2" d="M1004.5,-51C1069.83,-51 1135.17,-51 1200.5,-51"/>
</g>
<!-- W2&#45;&#45;W2 -->
<g id="edge20" class="edge">
<title>W2:w&#45;&#45;W2:e</title>
<path fill="none" stroke="#000000" stroke-width="2" d="M1004.5,-21C1069.83,-21 1135.17,-21 1200.5,-21"/>
<path fill="none" stroke="#8000ff" stroke-width="2" d="M1004.5,-23C1069.83,-23 1135.17,-23 1200.5,-23"/>
<path fill="none" stroke="#000000" stroke-width="2" d="M1004.5,-25C1069.83,-25 1135.17,-25 1200.5,-25"/>
</g>
<!-- X3 -->
<g id="node5" class="node">
<title>X3</title>
<polygon fill="#ffffff" stroke="black" points="1532.73,-159 1344.47,-159 1344.47,-14 1532.73,-14 1532.73,-159"/>
<polygon fill="none" stroke="black" points="1344.48,-134.5 1344.48,-159 1532.73,-159 1532.73,-134.5 1344.48,-134.5"/>
<text text-anchor="start" x="1429.6" y="-141.7" font-family="arial" font-size="14.00">X3</text>
<polygon fill="none" stroke="black" points="1344.48,-110 1344.48,-134.5 1441.73,-134.5 1441.73,-110 1344.48,-110"/>
<text text-anchor="start" x="1348.48" y="-117.2" font-family="arial" font-size="14.00">Molex KK 254</text>
<polygon fill="none" stroke="black" points="1441.73,-110 1441.73,-134.5 1493.23,-134.5 1493.23,-110 1441.73,-110"/>
<text text-anchor="start" x="1445.73" y="-117.2" font-family="arial" font-size="14.00">female</text>
<polygon fill="none" stroke="black" points="1493.23,-110 1493.23,-134.5 1532.73,-134.5 1532.73,-110 1493.23,-110"/>
<text text-anchor="start" x="1497.23" y="-117.2" font-family="arial" font-size="14.00">4&#45;pin</text>
<polygon fill="none" stroke="black" points="1344.48,-86 1344.48,-110 1427.1,-110 1427.1,-86 1344.48,-86"/>
<text text-anchor="start" x="1381.66" y="-92.7" font-family="arial" font-size="14.00">1</text>
<polygon fill="none" stroke="black" points="1427.1,-86 1427.1,-110 1532.73,-110 1532.73,-86 1427.1,-86"/>
<text text-anchor="start" x="1464.16" y="-92.7" font-family="arial" font-size="14.00">GND</text>
<polygon fill="none" stroke="black" points="1344.48,-62 1344.48,-86 1427.1,-86 1427.1,-62 1344.48,-62"/>
<text text-anchor="start" x="1381.66" y="-68.7" font-family="arial" font-size="14.00">2</text>
<polygon fill="none" stroke="black" points="1427.1,-62 1427.1,-86 1532.73,-86 1532.73,-62 1427.1,-62"/>
<text text-anchor="start" x="1464.54" y="-68.7" font-family="arial" font-size="14.00">VCC</text>
<polygon fill="none" stroke="black" points="1344.48,-38 1344.48,-62 1427.1,-62 1427.1,-38 1344.48,-38"/>
<text text-anchor="start" x="1381.66" y="-44.7" font-family="arial" font-size="14.00">3</text>
<polygon fill="none" stroke="black" points="1427.1,-38 1427.1,-62 1532.73,-62 1532.73,-38 1427.1,-38"/>
<text text-anchor="start" x="1465.66" y="-44.7" font-family="arial" font-size="14.00">SCL</text>
<polygon fill="none" stroke="black" points="1344.48,-14 1344.48,-38 1427.1,-38 1427.1,-14 1344.48,-14"/>
<text text-anchor="start" x="1381.66" y="-20.7" font-family="arial" font-size="14.00">4</text>
<polygon fill="none" stroke="black" points="1427.1,-14 1427.1,-38 1532.73,-38 1532.73,-14 1427.1,-14"/>
<text text-anchor="start" x="1464.91" y="-20.7" font-family="arial" font-size="14.00">SDA</text>
</g>
<!-- W2&#45;&#45;X3 -->
<g id="edge21" class="edge">
<title>W2:e&#45;&#45;X3:w</title>
<path fill="none" stroke="#000000" stroke-width="2" d="M1200.5,-99C1264.13,-99.04 1280.13,-96.04 1344.5,-96"/>
<path fill="none" stroke="#ff66cc" stroke-width="2" d="M1200.5,-101C1264.5,-101 1280.5,-98 1344.5,-98"/>
<path fill="none" stroke="#000000" stroke-width="2" d="M1200.5,-103C1264.87,-102.97 1280.87,-99.97 1344.5,-100"/>
</g>
<!-- W2&#45;&#45;X3 -->
<g id="edge22" class="edge">
<title>W2:e&#45;&#45;X3:w</title>
<path fill="none" stroke="#000000" stroke-width="2" d="M1200.5,-73C1264.38,-73.01 1280.38,-72.01 1344.5,-72"/>
<path fill="none" stroke="#00ffff" stroke-width="2" d="M1200.5,-75C1264.5,-75 1280.5,-74 1344.5,-74"/>
<path fill="none" stroke="#000000" stroke-width="2" d="M1200.5,-77C1264.63,-77 1280.63,-76 1344.5,-76"/>
</g>
<!-- W2&#45;&#45;X3 -->
<g id="edge23" class="edge">
<title>W2:e&#45;&#45;X3:w</title>
<path fill="none" stroke="#000000" stroke-width="2" d="M1200.5,-47C1264.63,-47.01 1280.63,-48.01 1344.5,-48"/>
<path fill="none" stroke="#ffff00" stroke-width="2" d="M1200.5,-49C1264.5,-49 1280.5,-50 1344.5,-50"/>
<path fill="none" stroke="#000000" stroke-width="2" d="M1200.5,-51C1264.38,-51 1280.38,-52 1344.5,-52"/>
</g>
<!-- W2&#45;&#45;X3 -->
<g id="edge24" class="edge">
<title>W2:e&#45;&#45;X3:w</title>
<path fill="none" stroke="#000000" stroke-width="2" d="M1200.5,-21C1264.87,-21.04 1280.87,-24.04 1344.5,-24"/>
<path fill="none" stroke="#8000ff" stroke-width="2" d="M1200.5,-23C1264.5,-23 1280.5,-26 1344.5,-26"/>
<path fill="none" stroke="#000000" stroke-width="2" d="M1200.5,-25C1264.13,-24.97 1280.13,-27.97 1344.5,-28"/>
</g>
</g>
</svg>
