<?xml version="1.0" encoding="UTF-8" standalone="no"?>
<!DOCTYPE svg PUBLIC "-//W3C//DTD SVG 1.1//EN"
 "http://www.w3.org/Graphics/SVG/1.1/DTD/svg11.dtd">
<!-- Generated by graphviz version 2.38.0 (20140413.2041)
 -->
<!-- Title: %3 Pages: 1 -->
<svg width="1502pt" height="160pt"
 viewBox="0.00 0.00 1502.00 159.50" xmlns="http://www.w3.org/2000/svg" xmlns:xlink="http://www.w3.org/1999/xlink">
<g id="graph0" class="graph" transform="scale(1 1) rotate(0) translate(4 155.5)">
<title>%3</title>
<polygon fill="#fffbf8" stroke="none" points="-4,4 -4,-155.5 1498,-155.5 1498,4 -4,4"/>
<!-- X1 -->
<g id="node1" class="node"><title>X1</title>
<polygon fill="white" stroke="black" points="0,-0.5 0,-138.5 214,-138.5 214,-0.5 0,-0.5"/>
<text text-anchor="middle" x="107" y="-123.3" font-family="arial" font-size="14.00">X1</text>
<polyline fill="none" stroke="black" points="0,-115.5 214,-115.5 "/>
<text text-anchor="middle" x="53" y="-100.3" font-family="arial" font-size="14.00">Molex KK 254</text>
<polyline fill="none" stroke="black" points="106,-92.5 106,-115.5 "/>
<text text-anchor="middle" x="136" y="-100.3" font-family="arial" font-size="14.00">female</text>
<polyline fill="none" stroke="black" points="166,-92.5 166,-115.5 "/>
<text text-anchor="middle" x="190" y="-100.3" font-family="arial" font-size="14.00">4&#45;pin</text>
<polyline fill="none" stroke="black" points="0,-92.5 214,-92.5 "/>
<text text-anchor="middle" x="59" y="-77.3" font-family="arial" font-size="14.00">GND</text>
<polyline fill="none" stroke="black" points="0,-69.5 118,-69.5 "/>
<text text-anchor="middle" x="59" y="-54.3" font-family="arial" font-size="14.00">VCC</text>
<polyline fill="none" stroke="black" points="0,-46.5 118,-46.5 "/>
<text text-anchor="middle" x="59" y="-31.3" font-family="arial" font-size="14.00">SCL</text>
<polyline fill="none" stroke="black" points="0,-23.5 118,-23.5 "/>
<text text-anchor="middle" x="59" y="-8.3" font-family="arial" font-size="14.00">SDA</text>
<polyline fill="none" stroke="black" points="118,-0.5 118,-92.5 "/>
<text text-anchor="middle" x="166" y="-77.3" font-family="arial" font-size="14.00">1</text>
<polyline fill="none" stroke="black" points="118,-69.5 214,-69.5 "/>
<text text-anchor="middle" x="166" y="-54.3" font-family="arial" font-size="14.00">2</text>
<polyline fill="none" stroke="black" points="118,-46.5 214,-46.5 "/>
<text text-anchor="middle" x="166" y="-31.3" font-family="arial" font-size="14.00">3</text>
<polyline fill="none" stroke="black" points="118,-23.5 214,-23.5 "/>
<text text-anchor="middle" x="166" y="-8.3" font-family="arial" font-size="14.00">4</text>
</g>
<!-- W1 -->
<g id="node4" class="node"><title>W1</title>
<polygon fill="white" stroke="black" stroke-dasharray="5,2" points="496,-151.5 358,-151.5 358,-1.5 496,-1.5 496,-151.5"/>
<polygon fill="none" stroke="black" points="358,-128.5 358,-151.5 496,-151.5 496,-128.5 358,-128.5"/>
<text text-anchor="start" x="415.5" y="-136.3" font-family="arial" font-size="14.00">W1</text>
<polygon fill="none" stroke="black" points="358,-105.5 358,-128.5 382,-128.5 382,-105.5 358,-105.5"/>
<text text-anchor="start" x="362" y="-113.3" font-family="arial" font-size="14.00">4x</text>
<polygon fill="none" stroke="black" points="382,-105.5 382,-128.5 451,-128.5 451,-105.5 382,-105.5"/>
<text text-anchor="start" x="386" y="-113.3" font-family="arial" font-size="14.00">0.25 mm²</text>
<polygon fill="none" stroke="black" points="451,-105.5 451,-128.5 496,-128.5 496,-105.5 451,-105.5"/>
<text text-anchor="start" x="455" y="-113.3" font-family="arial" font-size="14.00">0.2 m</text>
<text text-anchor="start" x="367.5" y="-92.3" font-family="arial" font-size="14.00">X1:1</text>
<text text-anchor="start" x="417.5" y="-92.3" font-family="arial" font-size="14.00">PK</text>
<text text-anchor="start" x="456" y="-92.3" font-family="arial" font-size="14.00">X2:1</text>
<polygon fill="#000000" stroke="none" points="358,-84.5 358,-86.5 496,-86.5 496,-84.5 358,-84.5"/>
<polygon fill="#ff66cc" stroke="none" points="358,-82.5 358,-84.5 496,-84.5 496,-82.5 358,-82.5"/>
<polygon fill="#000000" stroke="none" points="358,-80.5 358,-82.5 496,-82.5 496,-80.5 358,-80.5"/>
<text text-anchor="start" x="367.5" y="-67.3" font-family="arial" font-size="14.00">X1:2</text>
<text text-anchor="start" x="417" y="-67.3" font-family="arial" font-size="14.00">TQ</text>
<text text-anchor="start" x="456" y="-67.3" font-family="arial" font-size="14.00">X2:2</text>
<polygon fill="#000000" stroke="none" points="358,-59.5 358,-61.5 496,-61.5 496,-59.5 358,-59.5"/>
<polygon fill="#00ffff" stroke="none" points="358,-57.5 358,-59.5 496,-59.5 496,-57.5 358,-57.5"/>
<polygon fill="#000000" stroke="none" points="358,-55.5 358,-57.5 496,-57.5 496,-55.5 358,-55.5"/>
<text text-anchor="start" x="367.5" y="-42.3" font-family="arial" font-size="14.00">X1:3</text>
<text text-anchor="start" x="418" y="-42.3" font-family="arial" font-size="14.00">YE</text>
<text text-anchor="start" x="456" y="-42.3" font-family="arial" font-size="14.00">X2:3</text>
<polygon fill="#000000" stroke="none" points="358,-34.5 358,-36.5 496,-36.5 496,-34.5 358,-34.5"/>
<polygon fill="#ffff00" stroke="none" points="358,-32.5 358,-34.5 496,-34.5 496,-32.5 358,-32.5"/>
<polygon fill="#000000" stroke="none" points="358,-30.5 358,-32.5 496,-32.5 496,-30.5 358,-30.5"/>
<text text-anchor="start" x="367.5" y="-17.3" font-family="arial" font-size="14.00">X1:4</text>
<text text-anchor="start" x="418" y="-17.3" font-family="arial" font-size="14.00">VT</text>
<text text-anchor="start" x="456" y="-17.3" font-family="arial" font-size="14.00">X2:4</text>
<polygon fill="#000000" stroke="none" points="358,-9.5 358,-11.5 496,-11.5 496,-9.5 358,-9.5"/>
<polygon fill="#8000ff" stroke="none" points="358,-7.5 358,-9.5 496,-9.5 496,-7.5 358,-7.5"/>
<polygon fill="#000000" stroke="none" points="358,-5.5 358,-7.5 496,-7.5 496,-5.5 358,-5.5"/>
</g>
<!-- X1&#45;&#45;W1 -->
<g id="edge1" class="edge"><title>X1:p1r:e&#45;&#45;W1:w1:w</title>
<path fill="none" stroke="#000000" stroke-width="2" d="M214,-79.5C278.254,-79.5155 294.242,-81.5155 358,-81.5"/>
<path fill="none" stroke="#ff66cc" stroke-width="2" d="M214,-81.5C278.006,-81.5 293.994,-83.5 358,-83.5"/>
<path fill="none" stroke="#000000" stroke-width="2" d="M214,-83.5C277.758,-83.4845 293.746,-85.4845 358,-85.5"/>
</g>
<!-- X1&#45;&#45;W1 -->
<g id="edge3" class="edge"><title>X1:p2r:e&#45;&#45;W1:w2:w</title>
<path fill="none" stroke="#000000" stroke-width="2" d="M214,-55.5C278.126,-55.5039 294.123,-56.5039 358,-56.5"/>
<path fill="none" stroke="#00ffff" stroke-width="2" d="M214,-57.5C278.002,-57.5 293.998,-58.5 358,-58.5"/>
<path fill="none" stroke="#000000" stroke-width="2" d="M214,-59.5C277.877,-59.4961 293.874,-60.4961 358,-60.5"/>
</g>
<!-- X1&#45;&#45;W1 -->
<g id="edge5" class="edge"><title>X1:p3r:e&#45;&#45;W1:w3:w</title>
<path fill="none" stroke="#000000" stroke-width="2" d="M214,-32.5C277.877,-32.5039 293.874,-31.5039 358,-31.5"/>
<path fill="none" stroke="#ffff00" stroke-width="2" d="M214,-34.5C278.002,-34.5 293.998,-33.5 358,-33.5"/>
<path fill="none" stroke="#000000" stroke-width="2" d="M214,-36.5C278.126,-36.4961 294.123,-35.4961 358,-35.5"/>
</g>
<!-- X1&#45;&#45;W1 -->
<g id="edge7" class="edge"><title>X1:p4r:e&#45;&#45;W1:w4:w</title>
<path fill="none" stroke="#000000" stroke-width="2" d="M214,-9.5C277.645,-9.53437 293.617,-6.53437 358,-6.5"/>
<path fill="none" stroke="#8000ff" stroke-width="2" d="M214,-11.5C278.014,-11.5 293.986,-8.5 358,-8.5"/>
<path fill="none" stroke="#000000" stroke-width="2" d="M214,-13.5C278.383,-13.4656 294.355,-10.4656 358,-10.5"/>
</g>
<!-- X2 -->
<g id="node2" class="node"><title>X2</title>
<polygon fill="white" stroke="black" points="640,-0.5 640,-138.5 854,-138.5 854,-0.5 640,-0.5"/>
<text text-anchor="middle" x="747" y="-123.3" font-family="arial" font-size="14.00">X2</text>
<polyline fill="none" stroke="black" points="640,-115.5 854,-115.5 "/>
<text text-anchor="middle" x="693" y="-100.3" font-family="arial" font-size="14.00">Molex KK 254</text>
<polyline fill="none" stroke="black" points="746,-92.5 746,-115.5 "/>
<text text-anchor="middle" x="776" y="-100.3" font-family="arial" font-size="14.00">female</text>
<polyline fill="none" stroke="black" points="806,-92.5 806,-115.5 "/>
<text text-anchor="middle" x="830" y="-100.3" font-family="arial" font-size="14.00">4&#45;pin</text>
<polyline fill="none" stroke="black" points="640,-92.5 854,-92.5 "/>
<text text-anchor="middle" x="671.5" y="-77.3" font-family="arial" font-size="14.00">1</text>
<polyline fill="none" stroke="black" points="640,-69.5 703,-69.5 "/>
<text text-anchor="middle" x="671.5" y="-54.3" font-family="arial" font-size="14.00">2</text>
<polyline fill="none" stroke="black" points="640,-46.5 703,-46.5 "/>
<text text-anchor="middle" x="671.5" y="-31.3" font-family="arial" font-size="14.00">3</text>
<polyline fill="none" stroke="black" points="640,-23.5 703,-23.5 "/>
<text text-anchor="middle" x="671.5" y="-8.3" font-family="arial" font-size="14.00">4</text>
<polyline fill="none" stroke="black" points="703,-0.5 703,-92.5 "/>
<text text-anchor="middle" x="746.5" y="-77.3" font-family="arial" font-size="14.00">GND</text>
<polyline fill="none" stroke="black" points="703,-69.5 790,-69.5 "/>
<text text-anchor="middle" x="746.5" y="-54.3" font-family="arial" font-size="14.00">VCC</text>
<polyline fill="none" stroke="black" points="703,-46.5 790,-46.5 "/>
<text text-anchor="middle" x="746.5" y="-31.3" font-family="arial" font-size="14.00">SCL</text>
<polyline fill="none" stroke="black" points="703,-23.5 790,-23.5 "/>
<text text-anchor="middle" x="746.5" y="-8.3" font-family="arial" font-size="14.00">SDA</text>
<polyline fill="none" stroke="black" points="790,-0.5 790,-92.5 "/>
<text text-anchor="middle" x="822" y="-77.3" font-family="arial" font-size="14.00">1</text>
<polyline fill="none" stroke="black" points="790,-69.5 854,-69.5 "/>
<text text-anchor="middle" x="822" y="-54.3" font-family="arial" font-size="14.00">2</text>
<polyline fill="none" stroke="black" points="790,-46.5 854,-46.5 "/>
<text text-anchor="middle" x="822" y="-31.3" font-family="arial" font-size="14.00">3</text>
<polyline fill="none" stroke="black" points="790,-23.5 854,-23.5 "/>
<text text-anchor="middle" x="822" y="-8.3" font-family="arial" font-size="14.00">4</text>
</g>
<!-- W2 -->
<g id="node5" class="node"><title>W2</title>
<polygon fill="white" stroke="black" stroke-dasharray="5,2" points="1136,-151.5 998,-151.5 998,-1.5 1136,-1.5 1136,-151.5"/>
<polygon fill="none" stroke="black" points="998,-128.5 998,-151.5 1136,-151.5 1136,-128.5 998,-128.5"/>
<text text-anchor="start" x="1055.5" y="-136.3" font-family="arial" font-size="14.00">W2</text>
<polygon fill="none" stroke="black" points="998,-105.5 998,-128.5 1022,-128.5 1022,-105.5 998,-105.5"/>
<text text-anchor="start" x="1002" y="-113.3" font-family="arial" font-size="14.00">4x</text>
<polygon fill="none" stroke="black" points="1022,-105.5 1022,-128.5 1091,-128.5 1091,-105.5 1022,-105.5"/>
<text text-anchor="start" x="1026" y="-113.3" font-family="arial" font-size="14.00">0.25 mm²</text>
<polygon fill="none" stroke="black" points="1091,-105.5 1091,-128.5 1136,-128.5 1136,-105.5 1091,-105.5"/>
<text text-anchor="start" x="1095" y="-113.3" font-family="arial" font-size="14.00">0.2 m</text>
<text text-anchor="start" x="1007.5" y="-92.3" font-family="arial" font-size="14.00">X2:1</text>
<text text-anchor="start" x="1057.5" y="-92.3" font-family="arial" font-size="14.00">PK</text>
<text text-anchor="start" x="1096" y="-92.3" font-family="arial" font-size="14.00">X3:1</text>
<polygon fill="#000000" stroke="none" points="998,-84.5 998,-86.5 1136,-86.5 1136,-84.5 998,-84.5"/>
<polygon fill="#ff66cc" stroke="none" points="998,-82.5 998,-84.5 1136,-84.5 1136,-82.5 998,-82.5"/>
<polygon fill="#000000" stroke="none" points="998,-80.5 998,-82.5 1136,-82.5 1136,-80.5 998,-80.5"/>
<text text-anchor="start" x="1007.5" y="-67.3" font-family="arial" font-size="14.00">X2:2</text>
<text text-anchor="start" x="1057" y="-67.3" font-family="arial" font-size="14.00">TQ</text>
<text text-anchor="start" x="1096" y="-67.3" font-family="arial" font-size="14.00">X3:2</text>
<polygon fill="#000000" stroke="none" points="998,-59.5 998,-61.5 1136,-61.5 1136,-59.5 998,-59.5"/>
<polygon fill="#00ffff" stroke="none" points="998,-57.5 998,-59.5 1136,-59.5 1136,-57.5 998,-57.5"/>
<polygon fill="#000000" stroke="none" points="998,-55.5 998,-57.5 1136,-57.5 1136,-55.5 998,-55.5"/>
<text text-anchor="start" x="1007.5" y="-42.3" font-family="arial" font-size="14.00">X2:3</text>
<text text-anchor="start" x="1058" y="-42.3" font-family="arial" font-size="14.00">YE</text>
<text text-anchor="start" x="1096" y="-42.3" font-family="arial" font-size="14.00">X3:3</text>
<polygon fill="#000000" stroke="none" points="998,-34.5 998,-36.5 1136,-36.5 1136,-34.5 998,-34.5"/>
<polygon fill="#ffff00" stroke="none" points="998,-32.5 998,-34.5 1136,-34.5 1136,-32.5 998,-32.5"/>
<polygon fill="#000000" stroke="none" points="998,-30.5 998,-32.5 1136,-32.5 1136,-30.5 998,-30.5"/>
<text text-anchor="start" x="1007.5" y="-17.3" font-family="arial" font-size="14.00">X2:4</text>
<text text-anchor="start" x="1058" y="-17.3" font-family="arial" font-size="14.00">VT</text>
<text text-anchor="start" x="1096" y="-17.3" font-family="arial" font-size="14.00">X3:4</text>
<polygon fill="#000000" stroke="none" points="998,-9.5 998,-11.5 1136,-11.5 1136,-9.5 998,-9.5"/>
<polygon fill="#8000ff" stroke="none" points="998,-7.5 998,-9.5 1136,-9.5 1136,-7.5 998,-7.5"/>
<polygon fill="#000000" stroke="none" points="998,-5.5 998,-7.5 1136,-7.5 1136,-5.5 998,-5.5"/>
</g>
<!-- X2&#45;&#45;W2 -->
<g id="edge9" class="edge"><title>X2:p1r:e&#45;&#45;W2:w1:w</title>
<path fill="none" stroke="#000000" stroke-width="2" d="M854,-79.5C918.254,-79.5155 934.242,-81.5155 998,-81.5"/>
<path fill="none" stroke="#ff66cc" stroke-width="2" d="M854,-81.5C918.006,-81.5 933.994,-83.5 998,-83.5"/>
<path fill="none" stroke="#000000" stroke-width="2" d="M854,-83.5C917.758,-83.4845 933.746,-85.4845 998,-85.5"/>
</g>
<!-- X2&#45;&#45;W2 -->
<g id="edge11" class="edge"><title>X2:p2r:e&#45;&#45;W2:w2:w</title>
<path fill="none" stroke="#000000" stroke-width="2" d="M854,-55.5C918.126,-55.5039 934.123,-56.5039 998,-56.5"/>
<path fill="none" stroke="#00ffff" stroke-width="2" d="M854,-57.5C918.002,-57.5 933.998,-58.5 998,-58.5"/>
<path fill="none" stroke="#000000" stroke-width="2" d="M854,-59.5C917.877,-59.4961 933.874,-60.4961 998,-60.5"/>
</g>
<!-- X2&#45;&#45;W2 -->
<g id="edge13" class="edge"><title>X2:p3r:e&#45;&#45;W2:w3:w</title>
<path fill="none" stroke="#000000" stroke-width="2" d="M854,-32.5C917.877,-32.5039 933.874,-31.5039 998,-31.5"/>
<path fill="none" stroke="#ffff00" stroke-width="2" d="M854,-34.5C918.002,-34.5 933.998,-33.5 998,-33.5"/>
<path fill="none" stroke="#000000" stroke-width="2" d="M854,-36.5C918.126,-36.4961 934.123,-35.4961 998,-35.5"/>
</g>
<!-- X2&#45;&#45;W2 -->
<g id="edge15" class="edge"><title>X2:p4r:e&#45;&#45;W2:w4:w</title>
<path fill="none" stroke="#000000" stroke-width="2" d="M854,-9.5C917.645,-9.53437 933.617,-6.53437 998,-6.5"/>
<path fill="none" stroke="#8000ff" stroke-width="2" d="M854,-11.5C918.014,-11.5 933.986,-8.5 998,-8.5"/>
<path fill="none" stroke="#000000" stroke-width="2" d="M854,-13.5C918.383,-13.4656 934.355,-10.4656 998,-10.5"/>
</g>
<!-- X3 -->
<g id="node3" class="node"><title>X3</title>
<polygon fill="white" stroke="black" points="1280,-0.5 1280,-138.5 1494,-138.5 1494,-0.5 1280,-0.5"/>
<text text-anchor="middle" x="1387" y="-123.3" font-family="arial" font-size="14.00">X3</text>
<polyline fill="none" stroke="black" points="1280,-115.5 1494,-115.5 "/>
<text text-anchor="middle" x="1333" y="-100.3" font-family="arial" font-size="14.00">Molex KK 254</text>
<polyline fill="none" stroke="black" points="1386,-92.5 1386,-115.5 "/>
<text text-anchor="middle" x="1416" y="-100.3" font-family="arial" font-size="14.00">female</text>
<polyline fill="none" stroke="black" points="1446,-92.5 1446,-115.5 "/>
<text text-anchor="middle" x="1470" y="-100.3" font-family="arial" font-size="14.00">4&#45;pin</text>
<polyline fill="none" stroke="black" points="1280,-92.5 1494,-92.5 "/>
<text text-anchor="middle" x="1327.5" y="-77.3" font-family="arial" font-size="14.00">1</text>
<polyline fill="none" stroke="black" points="1280,-69.5 1375,-69.5 "/>
<text text-anchor="middle" x="1327.5" y="-54.3" font-family="arial" font-size="14.00">2</text>
<polyline fill="none" stroke="black" points="1280,-46.5 1375,-46.5 "/>
<text text-anchor="middle" x="1327.5" y="-31.3" font-family="arial" font-size="14.00">3</text>
<polyline fill="none" stroke="black" points="1280,-23.5 1375,-23.5 "/>
<text text-anchor="middle" x="1327.5" y="-8.3" font-family="arial" font-size="14.00">4</text>
<polyline fill="none" stroke="black" points="1375,-0.5 1375,-92.5 "/>
<text text-anchor="middle" x="1434.5" y="-77.3" font-family="arial" font-size="14.00">GND</text>
<polyline fill="none" stroke="black" points="1375,-69.5 1494,-69.5 "/>
<text text-anchor="middle" x="1434.5" y="-54.3" font-family="arial" font-size="14.00">VCC</text>
<polyline fill="none" stroke="black" points="1375,-46.5 1494,-46.5 "/>
<text text-anchor="middle" x="1434.5" y="-31.3" font-family="arial" font-size="14.00">SCL</text>
<polyline fill="none" stroke="black" points="1375,-23.5 1494,-23.5 "/>
<text text-anchor="middle" x="1434.5" y="-8.3" font-family="arial" font-size="14.00">SDA</text>
</g>
<!-- W1&#45;&#45;X2 -->
<g id="edge2" class="edge"><title>W1:w1:e&#45;&#45;X2:p1l:w</title>
<path fill="none" stroke="#000000" stroke-width="2" d="M496,-81.5C559.758,-81.5155 575.746,-79.5155 640,-79.5"/>
<path fill="none" stroke="#ff66cc" stroke-width="2" d="M496,-83.5C560.006,-83.5 575.994,-81.5 640,-81.5"/>
<path fill="none" stroke="#000000" stroke-width="2" d="M496,-85.5C560.254,-85.4845 576.242,-83.4845 640,-83.5"/>
</g>
<!-- W1&#45;&#45;X2 -->
<g id="edge4" class="edge"><title>W1:w2:e&#45;&#45;X2:p2l:w</title>
<path fill="none" stroke="#000000" stroke-width="2" d="M496,-56.5C559.877,-56.5039 575.874,-55.5039 640,-55.5"/>
<path fill="none" stroke="#00ffff" stroke-width="2" d="M496,-58.5C560.002,-58.5 575.998,-57.5 640,-57.5"/>
<path fill="none" stroke="#000000" stroke-width="2" d="M496,-60.5C560.126,-60.4961 576.123,-59.4961 640,-59.5"/>
</g>
<!-- W1&#45;&#45;X2 -->
<g id="edge6" class="edge"><title>W1:w3:e&#45;&#45;X2:p3l:w</title>
<path fill="none" stroke="#000000" stroke-width="2" d="M496,-31.5C560.126,-31.5039 576.123,-32.5039 640,-32.5"/>
<path fill="none" stroke="#ffff00" stroke-width="2" d="M496,-33.5C560.002,-33.5 575.998,-34.5 640,-34.5"/>
<path fill="none" stroke="#000000" stroke-width="2" d="M496,-35.5C559.877,-35.4961 575.874,-36.4961 640,-36.5"/>
</g>
<!-- W1&#45;&#45;X2 -->
<g id="edge8" class="edge"><title>W1:w4:e&#45;&#45;X2:p4l:w</title>
<path fill="none" stroke="#000000" stroke-width="2" d="M496,-6.5C560.383,-6.53437 576.355,-9.53437 640,-9.5"/>
<path fill="none" stroke="#8000ff" stroke-width="2" d="M496,-8.5C560.014,-8.5 575.986,-11.5 640,-11.5"/>
<path fill="none" stroke="#000000" stroke-width="2" d="M496,-10.5C559.645,-10.4656 575.617,-13.4656 640,-13.5"/>
</g>
<!-- W2&#45;&#45;X3 -->
<g id="edge10" class="edge"><title>W2:w1:e&#45;&#45;X3:p1l:w</title>
<path fill="none" stroke="#000000" stroke-width="2" d="M1136,-81.5C1199.76,-81.5155 1215.75,-79.5155 1280,-79.5"/>
<path fill="none" stroke="#ff66cc" stroke-width="2" d="M1136,-83.5C1200.01,-83.5 1215.99,-81.5 1280,-81.5"/>
<path fill="none" stroke="#000000" stroke-width="2" d="M1136,-85.5C1200.25,-85.4845 1216.24,-83.4845 1280,-83.5"/>
</g>
<!-- W2&#45;&#45;X3 -->
<g id="edge12" class="edge"><title>W2:w2:e&#45;&#45;X3:p2l:w</title>
<path fill="none" stroke="#000000" stroke-width="2" d="M1136,-56.5C1199.88,-56.5039 1215.87,-55.5039 1280,-55.5"/>
<path fill="none" stroke="#00ffff" stroke-width="2" d="M1136,-58.5C1200,-58.5 1216,-57.5 1280,-57.5"/>
<path fill="none" stroke="#000000" stroke-width="2" d="M1136,-60.5C1200.13,-60.4961 1216.12,-59.4961 1280,-59.5"/>
</g>
<!-- W2&#45;&#45;X3 -->
<g id="edge14" class="edge"><title>W2:w3:e&#45;&#45;X3:p3l:w</title>
<path fill="none" stroke="#000000" stroke-width="2" d="M1136,-31.5C1200.13,-31.5039 1216.12,-32.5039 1280,-32.5"/>
<path fill="none" stroke="#ffff00" stroke-width="2" d="M1136,-33.5C1200,-33.5 1216,-34.5 1280,-34.5"/>
<path fill="none" stroke="#000000" stroke-width="2" d="M1136,-35.5C1199.88,-35.4961 1215.87,-36.4961 1280,-36.5"/>
</g>
<!-- W2&#45;&#45;X3 -->
<g id="edge16" class="edge"><title>W2:w4:e&#45;&#45;X3:p4l:w</title>
<path fill="none" stroke="#000000" stroke-width="2" d="M1136,-6.5C1200.38,-6.53437 1216.36,-9.53437 1280,-9.5"/>
<path fill="none" stroke="#8000ff" stroke-width="2" d="M1136,-8.5C1200.01,-8.5 1215.99,-11.5 1280,-11.5"/>
<path fill="none" stroke="#000000" stroke-width="2" d="M1136,-10.5C1199.64,-10.4656 1215.62,-13.4656 1280,-13.5"/>
</g>
</g>
</svg>
