<?xml version="1.0" encoding="UTF-8" standalone="no"?>
<!DOCTYPE svg PUBLIC "-//W3C//DTD SVG 1.1//EN"
 "http://www.w3.org/Graphics/SVG/1.1/DTD/svg11.dtd">
<!-- Generated by graphviz version 2.49.1 (20210923.0004)
 -->
<!-- Pages: 1 -->
<svg width="1535pt" height="192pt"
 viewBox="0.00 0.00 1535.00 192.00" xmlns="http://www.w3.org/2000/svg" xmlns:xlink="http://www.w3.org/1999/xlink">
<g id="graph0" class="graph" transform="scale(1 1) rotate(0) translate(4 188)">
<polygon fill="#ffffff" stroke="transparent" points="-4,4 -4,-188 1531,-188 1531,4 -4,4"/>
<!-- X1 -->
<g id="node1" class="node">
<title>X1</title>
<polygon fill="#ffffff" stroke="black" points="187,-152 0,-152 0,-14 187,-14 187,-152"/>
<polygon fill="none" stroke="black" points="0.5,-129 0.5,-152 187.5,-152 187.5,-129 0.5,-129"/>
<text text-anchor="start" x="85" y="-136.8" font-family="arial" font-size="14.00">X1</text>
<polygon fill="none" stroke="black" points="0.5,-106 0.5,-129 96.5,-129 96.5,-106 0.5,-106"/>
<text text-anchor="start" x="4.5" y="-113.8" font-family="arial" font-size="14.00">Molex KK 254</text>
<polygon fill="none" stroke="black" points="96.5,-106 96.5,-129 147.5,-129 147.5,-106 96.5,-106"/>
<text text-anchor="start" x="100.5" y="-113.8" font-family="arial" font-size="14.00">female</text>
<polygon fill="none" stroke="black" points="147.5,-106 147.5,-129 187.5,-129 187.5,-106 147.5,-106"/>
<text text-anchor="start" x="151.5" y="-113.8" font-family="arial" font-size="14.00">4&#45;pin</text>
<polygon fill="none" stroke="black" points="0.5,-83 0.5,-106 106.5,-106 106.5,-83 0.5,-83"/>
<text text-anchor="start" x="37.5" y="-90.8" font-family="arial" font-size="14.00">GND</text>
<polygon fill="none" stroke="black" points="106.5,-83 106.5,-106 187.5,-106 187.5,-83 106.5,-83"/>
<text text-anchor="start" x="143" y="-90.8" font-family="arial" font-size="14.00">1</text>
<polygon fill="none" stroke="black" points="0.5,-60 0.5,-83 106.5,-83 106.5,-60 0.5,-60"/>
<text text-anchor="start" x="38.5" y="-67.8" font-family="arial" font-size="14.00">VCC</text>
<polygon fill="none" stroke="black" points="106.5,-60 106.5,-83 187.5,-83 187.5,-60 106.5,-60"/>
<text text-anchor="start" x="143" y="-67.8" font-family="arial" font-size="14.00">2</text>
<polygon fill="none" stroke="black" points="0.5,-37 0.5,-60 106.5,-60 106.5,-37 0.5,-37"/>
<text text-anchor="start" x="39.5" y="-44.8" font-family="arial" font-size="14.00">SCL</text>
<polygon fill="none" stroke="black" points="106.5,-37 106.5,-60 187.5,-60 187.5,-37 106.5,-37"/>
<text text-anchor="start" x="143" y="-44.8" font-family="arial" font-size="14.00">3</text>
<polygon fill="none" stroke="black" points="0.5,-14 0.5,-37 106.5,-37 106.5,-14 0.5,-14"/>
<text text-anchor="start" x="39" y="-21.8" font-family="arial" font-size="14.00">SDA</text>
<polygon fill="none" stroke="black" points="106.5,-14 106.5,-37 187.5,-37 187.5,-14 106.5,-14"/>
<text text-anchor="start" x="143" y="-21.8" font-family="arial" font-size="14.00">4</text>
</g>
<!-- W1 -->
<g id="node4" class="node">
<title>W1</title>
<polygon fill="#ffffff" stroke="black" stroke-dasharray="5,2" points="526,-184 331,-184 331,0 526,0 526,-184"/>
<polygon fill="none" stroke="black" points="331.5,-161 331.5,-184 526.5,-184 526.5,-161 331.5,-161"/>
<text text-anchor="start" x="418.5" y="-168.8" font-family="arial" font-size="14.00">W1</text>
<polygon fill="none" stroke="black" points="331.5,-138 331.5,-161 369.5,-161 369.5,-138 331.5,-138"/>
<text text-anchor="start" x="339.5" y="-145.8" font-family="arial" font-size="14.00">I2C</text>
<polygon fill="none" stroke="black" points="369.5,-138 369.5,-161 400.5,-161 400.5,-138 369.5,-138"/>
<text text-anchor="start" x="377.5" y="-145.8" font-family="arial" font-size="14.00">4x</text>
<polygon fill="none" stroke="black" points="400.5,-138 400.5,-161 475.5,-161 475.5,-138 400.5,-138"/>
<text text-anchor="start" x="408" y="-145.8" font-family="arial" font-size="14.00">0.25 mm²</text>
<polygon fill="none" stroke="black" points="475.5,-138 475.5,-161 526.5,-161 526.5,-138 475.5,-138"/>
<text text-anchor="start" x="483" y="-145.8" font-family="arial" font-size="14.00">0.2 m</text>
<text text-anchor="start" x="363.5" y="-124.8" font-family="arial" font-size="14.00"> </text>
<text text-anchor="start" x="333.5" y="-105.8" font-family="arial" font-size="14.00">X1:1:GND</text>
<text text-anchor="start" x="402" y="-105.8" font-family="arial" font-size="14.00"> &#160;&#160;&#160;&#160;PK &#160;&#160;&#160;</text>
<text text-anchor="start" x="460.5" y="-105.8" font-family="arial" font-size="14.00">X2:1:GND</text>
<polygon fill="#000000" stroke="transparent" points="331.5,-98 331.5,-100 526.5,-100 526.5,-98 331.5,-98"/>
<polygon fill="#ff66cc" stroke="transparent" points="331.5,-96 331.5,-98 526.5,-98 526.5,-96 331.5,-96"/>
<polygon fill="#000000" stroke="transparent" points="331.5,-94 331.5,-96 526.5,-96 526.5,-94 331.5,-94"/>
<text text-anchor="start" x="334" y="-80.8" font-family="arial" font-size="14.00">X1:2:VCC</text>
<text text-anchor="start" x="401.5" y="-80.8" font-family="arial" font-size="14.00"> &#160;&#160;&#160;&#160;TQ &#160;&#160;&#160;</text>
<text text-anchor="start" x="461" y="-80.8" font-family="arial" font-size="14.00">X2:2:VCC</text>
<polygon fill="#000000" stroke="transparent" points="331.5,-73 331.5,-75 526.5,-75 526.5,-73 331.5,-73"/>
<polygon fill="#00ffff" stroke="transparent" points="331.5,-71 331.5,-73 526.5,-73 526.5,-71 331.5,-71"/>
<polygon fill="#000000" stroke="transparent" points="331.5,-69 331.5,-71 526.5,-71 526.5,-69 331.5,-69"/>
<text text-anchor="start" x="335.5" y="-55.8" font-family="arial" font-size="14.00">X1:3:SCL</text>
<text text-anchor="start" x="402" y="-55.8" font-family="arial" font-size="14.00"> &#160;&#160;&#160;&#160;YE &#160;&#160;&#160;</text>
<text text-anchor="start" x="462.5" y="-55.8" font-family="arial" font-size="14.00">X2:3:SCL</text>
<polygon fill="#000000" stroke="transparent" points="331.5,-48 331.5,-50 526.5,-50 526.5,-48 331.5,-48"/>
<polygon fill="#ffff00" stroke="transparent" points="331.5,-46 331.5,-48 526.5,-48 526.5,-46 331.5,-46"/>
<polygon fill="#000000" stroke="transparent" points="331.5,-44 331.5,-46 526.5,-46 526.5,-44 331.5,-44"/>
<text text-anchor="start" x="334.5" y="-30.8" font-family="arial" font-size="14.00">X1:4:SDA</text>
<text text-anchor="start" x="402.5" y="-30.8" font-family="arial" font-size="14.00"> &#160;&#160;&#160;&#160;VT &#160;&#160;&#160;</text>
<text text-anchor="start" x="461.5" y="-30.8" font-family="arial" font-size="14.00">X2:4:SDA</text>
<polygon fill="#000000" stroke="transparent" points="331.5,-23 331.5,-25 526.5,-25 526.5,-23 331.5,-23"/>
<polygon fill="#8000ff" stroke="transparent" points="331.5,-21 331.5,-23 526.5,-23 526.5,-21 331.5,-21"/>
<polygon fill="#000000" stroke="transparent" points="331.5,-19 331.5,-21 526.5,-21 526.5,-19 331.5,-19"/>
<text text-anchor="start" x="363.5" y="-5.8" font-family="arial" font-size="14.00"> </text>
</g>
<!-- X1&#45;&#45;W1 -->
<g id="edge1" class="edge">
<title>X1:e&#45;&#45;W1:w</title>
<path fill="none" stroke="#000000" stroke-width="2" d="M187,-93C251.25,-93.02 267.24,-95.02 331,-95"/>
<path fill="none" stroke="#ff66cc" stroke-width="2" d="M187,-95C251.01,-95 266.99,-97 331,-97"/>
<path fill="none" stroke="#000000" stroke-width="2" d="M187,-97C250.76,-96.98 266.75,-98.98 331,-99"/>
</g>
<!-- X1&#45;&#45;W1 -->
<g id="edge3" class="edge">
<title>X1:e&#45;&#45;W1:w</title>
<path fill="none" stroke="#000000" stroke-width="2" d="M187,-69C251.13,-69 267.12,-70 331,-70"/>
<path fill="none" stroke="#00ffff" stroke-width="2" d="M187,-71C251,-71 267,-72 331,-72"/>
<path fill="none" stroke="#000000" stroke-width="2" d="M187,-73C250.88,-73 266.87,-74 331,-74"/>
</g>
<!-- X1&#45;&#45;W1 -->
<g id="edge5" class="edge">
<title>X1:e&#45;&#45;W1:w</title>
<path fill="none" stroke="#000000" stroke-width="2" d="M187,-46C250.88,-46 266.87,-45 331,-45"/>
<path fill="none" stroke="#ffff00" stroke-width="2" d="M187,-48C251,-48 267,-47 331,-47"/>
<path fill="none" stroke="#000000" stroke-width="2" d="M187,-50C251.13,-50 267.12,-49 331,-49"/>
</g>
<!-- X1&#45;&#45;W1 -->
<g id="edge7" class="edge">
<title>X1:e&#45;&#45;W1:w</title>
<path fill="none" stroke="#000000" stroke-width="2" d="M187,-23C250.64,-23.03 266.62,-20.03 331,-20"/>
<path fill="none" stroke="#8000ff" stroke-width="2" d="M187,-25C251.01,-25 266.99,-22 331,-22"/>
<path fill="none" stroke="#000000" stroke-width="2" d="M187,-27C251.38,-26.97 267.36,-23.97 331,-24"/>
</g>
<!-- X2 -->
<g id="node2" class="node">
<title>X2</title>
<polygon fill="#ffffff" stroke="black" points="857,-152 670,-152 670,-14 857,-14 857,-152"/>
<polygon fill="none" stroke="black" points="670.5,-129 670.5,-152 857.5,-152 857.5,-129 670.5,-129"/>
<text text-anchor="start" x="755" y="-136.8" font-family="arial" font-size="14.00">X2</text>
<polygon fill="none" stroke="black" points="670.5,-106 670.5,-129 766.5,-129 766.5,-106 670.5,-106"/>
<text text-anchor="start" x="674.5" y="-113.8" font-family="arial" font-size="14.00">Molex KK 254</text>
<polygon fill="none" stroke="black" points="766.5,-106 766.5,-129 817.5,-129 817.5,-106 766.5,-106"/>
<text text-anchor="start" x="770.5" y="-113.8" font-family="arial" font-size="14.00">female</text>
<polygon fill="none" stroke="black" points="817.5,-106 817.5,-129 857.5,-129 857.5,-106 817.5,-106"/>
<text text-anchor="start" x="821.5" y="-113.8" font-family="arial" font-size="14.00">4&#45;pin</text>
<polygon fill="none" stroke="black" points="670.5,-83 670.5,-106 725.5,-106 725.5,-83 670.5,-83"/>
<text text-anchor="start" x="694" y="-90.8" font-family="arial" font-size="14.00">1</text>
<polygon fill="none" stroke="black" points="725.5,-83 725.5,-106 803.5,-106 803.5,-83 725.5,-83"/>
<text text-anchor="start" x="748.5" y="-90.8" font-family="arial" font-size="14.00">GND</text>
<polygon fill="none" stroke="black" points="803.5,-83 803.5,-106 857.5,-106 857.5,-83 803.5,-83"/>
<text text-anchor="start" x="826.5" y="-90.8" font-family="arial" font-size="14.00">1</text>
<polygon fill="none" stroke="black" points="670.5,-60 670.5,-83 725.5,-83 725.5,-60 670.5,-60"/>
<text text-anchor="start" x="694" y="-67.8" font-family="arial" font-size="14.00">2</text>
<polygon fill="none" stroke="black" points="725.5,-60 725.5,-83 803.5,-83 803.5,-60 725.5,-60"/>
<text text-anchor="start" x="749.5" y="-67.8" font-family="arial" font-size="14.00">VCC</text>
<polygon fill="none" stroke="black" points="803.5,-60 803.5,-83 857.5,-83 857.5,-60 803.5,-60"/>
<text text-anchor="start" x="826.5" y="-67.8" font-family="arial" font-size="14.00">2</text>
<polygon fill="none" stroke="black" points="670.5,-37 670.5,-60 725.5,-60 725.5,-37 670.5,-37"/>
<text text-anchor="start" x="694" y="-44.8" font-family="arial" font-size="14.00">3</text>
<polygon fill="none" stroke="black" points="725.5,-37 725.5,-60 803.5,-60 803.5,-37 725.5,-37"/>
<text text-anchor="start" x="750.5" y="-44.8" font-family="arial" font-size="14.00">SCL</text>
<polygon fill="none" stroke="black" points="803.5,-37 803.5,-60 857.5,-60 857.5,-37 803.5,-37"/>
<text text-anchor="start" x="826.5" y="-44.8" font-family="arial" font-size="14.00">3</text>
<polygon fill="none" stroke="black" points="670.5,-14 670.5,-37 725.5,-37 725.5,-14 670.5,-14"/>
<text text-anchor="start" x="694" y="-21.8" font-family="arial" font-size="14.00">4</text>
<polygon fill="none" stroke="black" points="725.5,-14 725.5,-37 803.5,-37 803.5,-14 725.5,-14"/>
<text text-anchor="start" x="750" y="-21.8" font-family="arial" font-size="14.00">SDA</text>
<polygon fill="none" stroke="black" points="803.5,-14 803.5,-37 857.5,-37 857.5,-14 803.5,-14"/>
<text text-anchor="start" x="826.5" y="-21.8" font-family="arial" font-size="14.00">4</text>
</g>
<!-- W2 -->
<g id="node5" class="node">
<title>W2</title>
<polygon fill="#ffffff" stroke="black" stroke-dasharray="5,2" points="1196,-184 1001,-184 1001,0 1196,0 1196,-184"/>
<polygon fill="none" stroke="black" points="1001.5,-161 1001.5,-184 1196.5,-184 1196.5,-161 1001.5,-161"/>
<text text-anchor="start" x="1088.5" y="-168.8" font-family="arial" font-size="14.00">W2</text>
<polygon fill="none" stroke="black" points="1001.5,-138 1001.5,-161 1039.5,-161 1039.5,-138 1001.5,-138"/>
<text text-anchor="start" x="1009.5" y="-145.8" font-family="arial" font-size="14.00">I2C</text>
<polygon fill="none" stroke="black" points="1039.5,-138 1039.5,-161 1070.5,-161 1070.5,-138 1039.5,-138"/>
<text text-anchor="start" x="1047.5" y="-145.8" font-family="arial" font-size="14.00">4x</text>
<polygon fill="none" stroke="black" points="1070.5,-138 1070.5,-161 1145.5,-161 1145.5,-138 1070.5,-138"/>
<text text-anchor="start" x="1078" y="-145.8" font-family="arial" font-size="14.00">0.25 mm²</text>
<polygon fill="none" stroke="black" points="1145.5,-138 1145.5,-161 1196.5,-161 1196.5,-138 1145.5,-138"/>
<text text-anchor="start" x="1153" y="-145.8" font-family="arial" font-size="14.00">0.2 m</text>
<text text-anchor="start" x="1033.5" y="-124.8" font-family="arial" font-size="14.00"> </text>
<text text-anchor="start" x="1003.5" y="-105.8" font-family="arial" font-size="14.00">X2:1:GND</text>
<text text-anchor="start" x="1072" y="-105.8" font-family="arial" font-size="14.00"> &#160;&#160;&#160;&#160;PK &#160;&#160;&#160;</text>
<text text-anchor="start" x="1130.5" y="-105.8" font-family="arial" font-size="14.00">X3:1:GND</text>
<polygon fill="#000000" stroke="transparent" points="1001.5,-98 1001.5,-100 1196.5,-100 1196.5,-98 1001.5,-98"/>
<polygon fill="#ff66cc" stroke="transparent" points="1001.5,-96 1001.5,-98 1196.5,-98 1196.5,-96 1001.5,-96"/>
<polygon fill="#000000" stroke="transparent" points="1001.5,-94 1001.5,-96 1196.5,-96 1196.5,-94 1001.5,-94"/>
<text text-anchor="start" x="1004" y="-80.8" font-family="arial" font-size="14.00">X2:2:VCC</text>
<text text-anchor="start" x="1071.5" y="-80.8" font-family="arial" font-size="14.00"> &#160;&#160;&#160;&#160;TQ &#160;&#160;&#160;</text>
<text text-anchor="start" x="1131" y="-80.8" font-family="arial" font-size="14.00">X3:2:VCC</text>
<polygon fill="#000000" stroke="transparent" points="1001.5,-73 1001.5,-75 1196.5,-75 1196.5,-73 1001.5,-73"/>
<polygon fill="#00ffff" stroke="transparent" points="1001.5,-71 1001.5,-73 1196.5,-73 1196.5,-71 1001.5,-71"/>
<polygon fill="#000000" stroke="transparent" points="1001.5,-69 1001.5,-71 1196.5,-71 1196.5,-69 1001.5,-69"/>
<text text-anchor="start" x="1005.5" y="-55.8" font-family="arial" font-size="14.00">X2:3:SCL</text>
<text text-anchor="start" x="1072" y="-55.8" font-family="arial" font-size="14.00"> &#160;&#160;&#160;&#160;YE &#160;&#160;&#160;</text>
<text text-anchor="start" x="1132.5" y="-55.8" font-family="arial" font-size="14.00">X3:3:SCL</text>
<polygon fill="#000000" stroke="transparent" points="1001.5,-48 1001.5,-50 1196.5,-50 1196.5,-48 1001.5,-48"/>
<polygon fill="#ffff00" stroke="transparent" points="1001.5,-46 1001.5,-48 1196.5,-48 1196.5,-46 1001.5,-46"/>
<polygon fill="#000000" stroke="transparent" points="1001.5,-44 1001.5,-46 1196.5,-46 1196.5,-44 1001.5,-44"/>
<text text-anchor="start" x="1004.5" y="-30.8" font-family="arial" font-size="14.00">X2:4:SDA</text>
<text text-anchor="start" x="1072.5" y="-30.8" font-family="arial" font-size="14.00"> &#160;&#160;&#160;&#160;VT &#160;&#160;&#160;</text>
<text text-anchor="start" x="1131.5" y="-30.8" font-family="arial" font-size="14.00">X3:4:SDA</text>
<polygon fill="#000000" stroke="transparent" points="1001.5,-23 1001.5,-25 1196.5,-25 1196.5,-23 1001.5,-23"/>
<polygon fill="#8000ff" stroke="transparent" points="1001.5,-21 1001.5,-23 1196.5,-23 1196.5,-21 1001.5,-21"/>
<polygon fill="#000000" stroke="transparent" points="1001.5,-19 1001.5,-21 1196.5,-21 1196.5,-19 1001.5,-19"/>
<text text-anchor="start" x="1033.5" y="-5.8" font-family="arial" font-size="14.00"> </text>
</g>
<!-- X2&#45;&#45;W2 -->
<g id="edge9" class="edge">
<title>X2:e&#45;&#45;W2:w</title>
<path fill="none" stroke="#000000" stroke-width="2" d="M857,-93C921.25,-93.02 937.24,-95.02 1001,-95"/>
<path fill="none" stroke="#ff66cc" stroke-width="2" d="M857,-95C921.01,-95 936.99,-97 1001,-97"/>
<path fill="none" stroke="#000000" stroke-width="2" d="M857,-97C920.76,-96.98 936.75,-98.98 1001,-99"/>
</g>
<!-- X2&#45;&#45;W2 -->
<g id="edge11" class="edge">
<title>X2:e&#45;&#45;W2:w</title>
<path fill="none" stroke="#000000" stroke-width="2" d="M857,-69C921.13,-69 937.12,-70 1001,-70"/>
<path fill="none" stroke="#00ffff" stroke-width="2" d="M857,-71C921,-71 937,-72 1001,-72"/>
<path fill="none" stroke="#000000" stroke-width="2" d="M857,-73C920.88,-73 936.87,-74 1001,-74"/>
</g>
<!-- X2&#45;&#45;W2 -->
<g id="edge13" class="edge">
<title>X2:e&#45;&#45;W2:w</title>
<path fill="none" stroke="#000000" stroke-width="2" d="M857,-46C920.88,-46 936.87,-45 1001,-45"/>
<path fill="none" stroke="#ffff00" stroke-width="2" d="M857,-48C921,-48 937,-47 1001,-47"/>
<path fill="none" stroke="#000000" stroke-width="2" d="M857,-50C921.13,-50 937.12,-49 1001,-49"/>
</g>
<!-- X2&#45;&#45;W2 -->
<g id="edge15" class="edge">
<title>X2:e&#45;&#45;W2:w</title>
<path fill="none" stroke="#000000" stroke-width="2" d="M857,-23C920.64,-23.03 936.62,-20.03 1001,-20"/>
<path fill="none" stroke="#8000ff" stroke-width="2" d="M857,-25C921.01,-25 936.99,-22 1001,-22"/>
<path fill="none" stroke="#000000" stroke-width="2" d="M857,-27C921.38,-26.97 937.36,-23.97 1001,-24"/>
</g>
<!-- X3 -->
<g id="node3" class="node">
<title>X3</title>
<polygon fill="#ffffff" stroke="black" points="1527,-152 1340,-152 1340,-14 1527,-14 1527,-152"/>
<polygon fill="none" stroke="black" points="1340.5,-129 1340.5,-152 1527.5,-152 1527.5,-129 1340.5,-129"/>
<text text-anchor="start" x="1425" y="-136.8" font-family="arial" font-size="14.00">X3</text>
<polygon fill="none" stroke="black" points="1340.5,-106 1340.5,-129 1436.5,-129 1436.5,-106 1340.5,-106"/>
<text text-anchor="start" x="1344.5" y="-113.8" font-family="arial" font-size="14.00">Molex KK 254</text>
<polygon fill="none" stroke="black" points="1436.5,-106 1436.5,-129 1487.5,-129 1487.5,-106 1436.5,-106"/>
<text text-anchor="start" x="1440.5" y="-113.8" font-family="arial" font-size="14.00">female</text>
<polygon fill="none" stroke="black" points="1487.5,-106 1487.5,-129 1527.5,-129 1527.5,-106 1487.5,-106"/>
<text text-anchor="start" x="1491.5" y="-113.8" font-family="arial" font-size="14.00">4&#45;pin</text>
<polygon fill="none" stroke="black" points="1340.5,-83 1340.5,-106 1422.5,-106 1422.5,-83 1340.5,-83"/>
<text text-anchor="start" x="1377.5" y="-90.8" font-family="arial" font-size="14.00">1</text>
<polygon fill="none" stroke="black" points="1422.5,-83 1422.5,-106 1527.5,-106 1527.5,-83 1422.5,-83"/>
<text text-anchor="start" x="1459" y="-90.8" font-family="arial" font-size="14.00">GND</text>
<polygon fill="none" stroke="black" points="1340.5,-60 1340.5,-83 1422.5,-83 1422.5,-60 1340.5,-60"/>
<text text-anchor="start" x="1377.5" y="-67.8" font-family="arial" font-size="14.00">2</text>
<polygon fill="none" stroke="black" points="1422.5,-60 1422.5,-83 1527.5,-83 1527.5,-60 1422.5,-60"/>
<text text-anchor="start" x="1460" y="-67.8" font-family="arial" font-size="14.00">VCC</text>
<polygon fill="none" stroke="black" points="1340.5,-37 1340.5,-60 1422.5,-60 1422.5,-37 1340.5,-37"/>
<text text-anchor="start" x="1377.5" y="-44.8" font-family="arial" font-size="14.00">3</text>
<polygon fill="none" stroke="black" points="1422.5,-37 1422.5,-60 1527.5,-60 1527.5,-37 1422.5,-37"/>
<text text-anchor="start" x="1461" y="-44.8" font-family="arial" font-size="14.00">SCL</text>
<polygon fill="none" stroke="black" points="1340.5,-14 1340.5,-37 1422.5,-37 1422.5,-14 1340.5,-14"/>
<text text-anchor="start" x="1377.5" y="-21.8" font-family="arial" font-size="14.00">4</text>
<polygon fill="none" stroke="black" points="1422.5,-14 1422.5,-37 1527.5,-37 1527.5,-14 1422.5,-14"/>
<text text-anchor="start" x="1460.5" y="-21.8" font-family="arial" font-size="14.00">SDA</text>
</g>
<!-- W1&#45;&#45;X2 -->
<g id="edge2" class="edge">
<title>W1:e&#45;&#45;X2:w</title>
<path fill="none" stroke="#000000" stroke-width="2" d="M526,-95C589.76,-95.02 605.75,-93.02 670,-93"/>
<path fill="none" stroke="#ff66cc" stroke-width="2" d="M526,-97C590.01,-97 605.99,-95 670,-95"/>
<path fill="none" stroke="#000000" stroke-width="2" d="M526,-99C590.25,-98.98 606.24,-96.98 670,-97"/>
</g>
<!-- W1&#45;&#45;X2 -->
<g id="edge4" class="edge">
<title>W1:e&#45;&#45;X2:w</title>
<path fill="none" stroke="#000000" stroke-width="2" d="M526,-70C589.88,-70 605.87,-69 670,-69"/>
<path fill="none" stroke="#00ffff" stroke-width="2" d="M526,-72C590,-72 606,-71 670,-71"/>
<path fill="none" stroke="#000000" stroke-width="2" d="M526,-74C590.13,-74 606.12,-73 670,-73"/>
</g>
<!-- W1&#45;&#45;X2 -->
<g id="edge6" class="edge">
<title>W1:e&#45;&#45;X2:w</title>
<path fill="none" stroke="#000000" stroke-width="2" d="M526,-45C590.13,-45 606.12,-46 670,-46"/>
<path fill="none" stroke="#ffff00" stroke-width="2" d="M526,-47C590,-47 606,-48 670,-48"/>
<path fill="none" stroke="#000000" stroke-width="2" d="M526,-49C589.88,-49 605.87,-50 670,-50"/>
</g>
<!-- W1&#45;&#45;X2 -->
<g id="edge8" class="edge">
<title>W1:e&#45;&#45;X2:w</title>
<path fill="none" stroke="#000000" stroke-width="2" d="M526,-20C590.38,-20.03 606.36,-23.03 670,-23"/>
<path fill="none" stroke="#8000ff" stroke-width="2" d="M526,-22C590.01,-22 605.99,-25 670,-25"/>
<path fill="none" stroke="#000000" stroke-width="2" d="M526,-24C589.64,-23.97 605.62,-26.97 670,-27"/>
</g>
<!-- W2&#45;&#45;X3 -->
<g id="edge10" class="edge">
<title>W2:e&#45;&#45;X3:w</title>
<path fill="none" stroke="#000000" stroke-width="2" d="M1196,-95C1259.76,-95.02 1275.75,-93.02 1340,-93"/>
<path fill="none" stroke="#ff66cc" stroke-width="2" d="M1196,-97C1260.01,-97 1275.99,-95 1340,-95"/>
<path fill="none" stroke="#000000" stroke-width="2" d="M1196,-99C1260.25,-98.98 1276.24,-96.98 1340,-97"/>
</g>
<!-- W2&#45;&#45;X3 -->
<g id="edge12" class="edge">
<title>W2:e&#45;&#45;X3:w</title>
<path fill="none" stroke="#000000" stroke-width="2" d="M1196,-70C1259.88,-70 1275.87,-69 1340,-69"/>
<path fill="none" stroke="#00ffff" stroke-width="2" d="M1196,-72C1260,-72 1276,-71 1340,-71"/>
<path fill="none" stroke="#000000" stroke-width="2" d="M1196,-74C1260.13,-74 1276.12,-73 1340,-73"/>
</g>
<!-- W2&#45;&#45;X3 -->
<g id="edge14" class="edge">
<title>W2:e&#45;&#45;X3:w</title>
<path fill="none" stroke="#000000" stroke-width="2" d="M1196,-45C1260.13,-45 1276.12,-46 1340,-46"/>
<path fill="none" stroke="#ffff00" stroke-width="2" d="M1196,-47C1260,-47 1276,-48 1340,-48"/>
<path fill="none" stroke="#000000" stroke-width="2" d="M1196,-49C1259.88,-49 1275.87,-50 1340,-50"/>
</g>
<!-- W2&#45;&#45;X3 -->
<g id="edge16" class="edge">
<title>W2:e&#45;&#45;X3:w</title>
<path fill="none" stroke="#000000" stroke-width="2" d="M1196,-20C1260.38,-20.03 1276.36,-23.03 1340,-23"/>
<path fill="none" stroke="#8000ff" stroke-width="2" d="M1196,-22C1260.01,-22 1275.99,-25 1340,-25"/>
<path fill="none" stroke="#000000" stroke-width="2" d="M1196,-24C1259.64,-23.97 1275.62,-26.97 1340,-27"/>
</g>
</g>
</svg>
