<?xml version="1.0" encoding="UTF-8" standalone="no"?>
<!DOCTYPE svg PUBLIC "-//W3C//DTD SVG 1.1//EN"
 "http://www.w3.org/Graphics/SVG/1.1/DTD/svg11.dtd">
<!-- Generated by graphviz version 7.1.0 (20230121.1956)
 -->
<!-- Pages: 1 -->
<svg width="1514pt" height="192pt"
 viewBox="0.00 0.00 1514.00 192.00" xmlns="http://www.w3.org/2000/svg" xmlns:xlink="http://www.w3.org/1999/xlink">
<g id="graph0" class="graph" transform="scale(1 1) rotate(0) translate(4 188)">
<polygon fill="#ffffff" stroke="none" points="-4,4 -4,-188 1510,-188 1510,4 -4,4"/>
<!-- X1 -->
<g id="node1" class="node">
<title>X1</title>
<polygon fill="#ffffff" stroke="black" points="182,-152 0,-152 0,-14 182,-14 182,-152"/>
<polygon fill="none" stroke="black" points="0,-129 0,-152 182,-152 182,-129 0,-129"/>
<text text-anchor="start" x="82.5" y="-136.8" font-family="arial" font-size="14.00">X1</text>
<polygon fill="none" stroke="black" points="0,-106 0,-129 93,-129 93,-106 0,-106"/>
<text text-anchor="start" x="4" y="-113.8" font-family="arial" font-size="14.00">Molex KK 254</text>
<polygon fill="none" stroke="black" points="93,-106 93,-129 143,-129 143,-106 93,-106"/>
<text text-anchor="start" x="97" y="-113.8" font-family="arial" font-size="14.00">female</text>
<polygon fill="none" stroke="black" points="143,-106 143,-129 182,-129 182,-106 143,-106"/>
<text text-anchor="start" x="147" y="-113.8" font-family="arial" font-size="14.00">4&#45;pin</text>
<polygon fill="none" stroke="black" points="0,-83 0,-106 103,-106 103,-83 0,-83"/>
<text text-anchor="start" x="36" y="-90.8" font-family="arial" font-size="14.00">GND</text>
<polygon fill="none" stroke="black" points="103,-83 103,-106 182,-106 182,-83 103,-83"/>
<text text-anchor="start" x="138.5" y="-90.8" font-family="arial" font-size="14.00">1</text>
<polygon fill="none" stroke="black" points="0,-60 0,-83 103,-83 103,-60 0,-60"/>
<text text-anchor="start" x="37" y="-67.8" font-family="arial" font-size="14.00">VCC</text>
<polygon fill="none" stroke="black" points="103,-60 103,-83 182,-83 182,-60 103,-60"/>
<text text-anchor="start" x="138.5" y="-67.8" font-family="arial" font-size="14.00">2</text>
<polygon fill="none" stroke="black" points="0,-37 0,-60 103,-60 103,-37 0,-37"/>
<text text-anchor="start" x="38" y="-44.8" font-family="arial" font-size="14.00">SCL</text>
<polygon fill="none" stroke="black" points="103,-37 103,-60 182,-60 182,-37 103,-37"/>
<text text-anchor="start" x="138.5" y="-44.8" font-family="arial" font-size="14.00">3</text>
<polygon fill="none" stroke="black" points="0,-14 0,-37 103,-37 103,-14 0,-14"/>
<text text-anchor="start" x="37.5" y="-21.8" font-family="arial" font-size="14.00">SDA</text>
<polygon fill="none" stroke="black" points="103,-14 103,-37 182,-37 182,-14 103,-14"/>
<text text-anchor="start" x="138.5" y="-21.8" font-family="arial" font-size="14.00">4</text>
</g>
<!-- W1 -->
<g id="node4" class="node">
<title>W1</title>
<polygon fill="#ffffff" stroke="black" stroke-dasharray="5,2" points="518,-184 326,-184 326,0 518,0 518,-184"/>
<polygon fill="none" stroke="black" points="326,-161 326,-184 518,-184 518,-161 326,-161"/>
<text text-anchor="start" x="411" y="-168.8" font-family="arial" font-size="14.00">W1</text>
<polygon fill="none" stroke="black" points="326,-138 326,-161 364,-161 364,-138 326,-138"/>
<text text-anchor="start" x="334" y="-145.8" font-family="arial" font-size="14.00">I2C</text>
<polygon fill="none" stroke="black" points="364,-138 364,-161 394,-161 394,-138 364,-138"/>
<text text-anchor="start" x="371.5" y="-145.8" font-family="arial" font-size="14.00">4x</text>
<polygon fill="none" stroke="black" points="394,-138 394,-161 468,-161 468,-138 394,-138"/>
<text text-anchor="start" x="401.5" y="-145.8" font-family="arial" font-size="14.00">0.25 mm²</text>
<polygon fill="none" stroke="black" points="468,-138 468,-161 518,-161 518,-138 468,-138"/>
<text text-anchor="start" x="475.5" y="-145.8" font-family="arial" font-size="14.00">0.2 m</text>
<text text-anchor="start" x="357.5" y="-124.8" font-family="arial" font-size="14.00"> </text>
<text text-anchor="start" x="328" y="-105.8" font-family="arial" font-size="14.00">X1:1:GND</text>
<text text-anchor="start" x="396" y="-105.8" font-family="arial" font-size="14.00"> &#160;&#160;&#160;&#160;PK &#160;&#160;&#160;</text>
<text text-anchor="start" x="453" y="-105.8" font-family="arial" font-size="14.00">X2:1:GND</text>
<polygon fill="#000000" stroke="none" points="326,-98 326,-100 518,-100 518,-98 326,-98"/>
<polygon fill="#ff66cc" stroke="none" points="326,-96 326,-98 518,-98 518,-96 326,-96"/>
<polygon fill="#000000" stroke="none" points="326,-94 326,-96 518,-96 518,-94 326,-94"/>
<text text-anchor="start" x="329" y="-80.8" font-family="arial" font-size="14.00">X1:2:VCC</text>
<text text-anchor="start" x="395" y="-80.8" font-family="arial" font-size="14.00"> &#160;&#160;&#160;&#160;TQ &#160;&#160;&#160;</text>
<text text-anchor="start" x="454" y="-80.8" font-family="arial" font-size="14.00">X2:2:VCC</text>
<polygon fill="#000000" stroke="none" points="326,-73 326,-75 518,-75 518,-73 326,-73"/>
<polygon fill="#00ffff" stroke="none" points="326,-71 326,-73 518,-73 518,-71 326,-71"/>
<polygon fill="#000000" stroke="none" points="326,-69 326,-71 518,-71 518,-69 326,-69"/>
<text text-anchor="start" x="330.5" y="-55.8" font-family="arial" font-size="14.00">X1:3:SCL</text>
<text text-anchor="start" x="396" y="-55.8" font-family="arial" font-size="14.00"> &#160;&#160;&#160;&#160;YE &#160;&#160;&#160;</text>
<text text-anchor="start" x="455.5" y="-55.8" font-family="arial" font-size="14.00">X2:3:SCL</text>
<polygon fill="#000000" stroke="none" points="326,-48 326,-50 518,-50 518,-48 326,-48"/>
<polygon fill="#ffff00" stroke="none" points="326,-46 326,-48 518,-48 518,-46 326,-46"/>
<polygon fill="#000000" stroke="none" points="326,-44 326,-46 518,-46 518,-44 326,-44"/>
<text text-anchor="start" x="329.5" y="-30.8" font-family="arial" font-size="14.00">X1:4:SDA</text>
<text text-anchor="start" x="396" y="-30.8" font-family="arial" font-size="14.00"> &#160;&#160;&#160;&#160;VT &#160;&#160;&#160;</text>
<text text-anchor="start" x="454.5" y="-30.8" font-family="arial" font-size="14.00">X2:4:SDA</text>
<polygon fill="#000000" stroke="none" points="326,-23 326,-25 518,-25 518,-23 326,-23"/>
<polygon fill="#8000ff" stroke="none" points="326,-21 326,-23 518,-23 518,-21 326,-21"/>
<polygon fill="#000000" stroke="none" points="326,-19 326,-21 518,-21 518,-19 326,-19"/>
<text text-anchor="start" x="357.5" y="-5.8" font-family="arial" font-size="14.00"> </text>
</g>
<!-- X1&#45;&#45;W1 -->
<g id="edge1" class="edge">
<title>X1:e&#45;&#45;W1:w</title>
<path fill="none" stroke="#000000" stroke-width="2" d="M182,-93C246.25,-93.02 262.24,-95.02 326,-95"/>
<path fill="none" stroke="#ff66cc" stroke-width="2" d="M182,-95C246.01,-95 261.99,-97 326,-97"/>
<path fill="none" stroke="#000000" stroke-width="2" d="M182,-97C245.76,-96.98 261.75,-98.98 326,-99"/>
</g>
<!-- X1&#45;&#45;W1 -->
<g id="edge3" class="edge">
<title>X1:e&#45;&#45;W1:w</title>
<path fill="none" stroke="#000000" stroke-width="2" d="M182,-69C246.13,-69 262.12,-70 326,-70"/>
<path fill="none" stroke="#00ffff" stroke-width="2" d="M182,-71C246,-71 262,-72 326,-72"/>
<path fill="none" stroke="#000000" stroke-width="2" d="M182,-73C245.88,-73 261.87,-74 326,-74"/>
</g>
<!-- X1&#45;&#45;W1 -->
<g id="edge5" class="edge">
<title>X1:e&#45;&#45;W1:w</title>
<path fill="none" stroke="#000000" stroke-width="2" d="M182,-46C245.88,-46 261.87,-45 326,-45"/>
<path fill="none" stroke="#ffff00" stroke-width="2" d="M182,-48C246,-48 262,-47 326,-47"/>
<path fill="none" stroke="#000000" stroke-width="2" d="M182,-50C246.13,-50 262.12,-49 326,-49"/>
</g>
<!-- X1&#45;&#45;W1 -->
<g id="edge7" class="edge">
<title>X1:e&#45;&#45;W1:w</title>
<path fill="none" stroke="#000000" stroke-width="2" d="M182,-23C245.64,-23.03 261.62,-20.03 326,-20"/>
<path fill="none" stroke="#8000ff" stroke-width="2" d="M182,-25C246.01,-25 261.99,-22 326,-22"/>
<path fill="none" stroke="#000000" stroke-width="2" d="M182,-27C246.38,-26.97 262.36,-23.97 326,-24"/>
</g>
<!-- X2 -->
<g id="node2" class="node">
<title>X2</title>
<polygon fill="#ffffff" stroke="black" points="844,-152 662,-152 662,-14 844,-14 844,-152"/>
<polygon fill="none" stroke="black" points="662,-129 662,-152 844,-152 844,-129 662,-129"/>
<text text-anchor="start" x="744.5" y="-136.8" font-family="arial" font-size="14.00">X2</text>
<polygon fill="none" stroke="black" points="662,-106 662,-129 755,-129 755,-106 662,-106"/>
<text text-anchor="start" x="666" y="-113.8" font-family="arial" font-size="14.00">Molex KK 254</text>
<polygon fill="none" stroke="black" points="755,-106 755,-129 805,-129 805,-106 755,-106"/>
<text text-anchor="start" x="759" y="-113.8" font-family="arial" font-size="14.00">female</text>
<polygon fill="none" stroke="black" points="805,-106 805,-129 844,-129 844,-106 805,-106"/>
<text text-anchor="start" x="809" y="-113.8" font-family="arial" font-size="14.00">4&#45;pin</text>
<polygon fill="none" stroke="black" points="662,-83 662,-106 715,-106 715,-83 662,-83"/>
<text text-anchor="start" x="684.5" y="-90.8" font-family="arial" font-size="14.00">1</text>
<polygon fill="none" stroke="black" points="715,-83 715,-106 791,-106 791,-83 715,-83"/>
<text text-anchor="start" x="737.5" y="-90.8" font-family="arial" font-size="14.00">GND</text>
<polygon fill="none" stroke="black" points="791,-83 791,-106 844,-106 844,-83 791,-83"/>
<text text-anchor="start" x="813.5" y="-90.8" font-family="arial" font-size="14.00">1</text>
<polygon fill="none" stroke="black" points="662,-60 662,-83 715,-83 715,-60 662,-60"/>
<text text-anchor="start" x="684.5" y="-67.8" font-family="arial" font-size="14.00">2</text>
<polygon fill="none" stroke="black" points="715,-60 715,-83 791,-83 791,-60 715,-60"/>
<text text-anchor="start" x="738.5" y="-67.8" font-family="arial" font-size="14.00">VCC</text>
<polygon fill="none" stroke="black" points="791,-60 791,-83 844,-83 844,-60 791,-60"/>
<text text-anchor="start" x="813.5" y="-67.8" font-family="arial" font-size="14.00">2</text>
<polygon fill="none" stroke="black" points="662,-37 662,-60 715,-60 715,-37 662,-37"/>
<text text-anchor="start" x="684.5" y="-44.8" font-family="arial" font-size="14.00">3</text>
<polygon fill="none" stroke="black" points="715,-37 715,-60 791,-60 791,-37 715,-37"/>
<text text-anchor="start" x="739.5" y="-44.8" font-family="arial" font-size="14.00">SCL</text>
<polygon fill="none" stroke="black" points="791,-37 791,-60 844,-60 844,-37 791,-37"/>
<text text-anchor="start" x="813.5" y="-44.8" font-family="arial" font-size="14.00">3</text>
<polygon fill="none" stroke="black" points="662,-14 662,-37 715,-37 715,-14 662,-14"/>
<text text-anchor="start" x="684.5" y="-21.8" font-family="arial" font-size="14.00">4</text>
<polygon fill="none" stroke="black" points="715,-14 715,-37 791,-37 791,-14 715,-14"/>
<text text-anchor="start" x="739" y="-21.8" font-family="arial" font-size="14.00">SDA</text>
<polygon fill="none" stroke="black" points="791,-14 791,-37 844,-37 844,-14 791,-14"/>
<text text-anchor="start" x="813.5" y="-21.8" font-family="arial" font-size="14.00">4</text>
</g>
<!-- W2 -->
<g id="node5" class="node">
<title>W2</title>
<polygon fill="#ffffff" stroke="black" stroke-dasharray="5,2" points="1180,-184 988,-184 988,0 1180,0 1180,-184"/>
<polygon fill="none" stroke="black" points="988,-161 988,-184 1180,-184 1180,-161 988,-161"/>
<text text-anchor="start" x="1073" y="-168.8" font-family="arial" font-size="14.00">W2</text>
<polygon fill="none" stroke="black" points="988,-138 988,-161 1026,-161 1026,-138 988,-138"/>
<text text-anchor="start" x="996" y="-145.8" font-family="arial" font-size="14.00">I2C</text>
<polygon fill="none" stroke="black" points="1026,-138 1026,-161 1056,-161 1056,-138 1026,-138"/>
<text text-anchor="start" x="1033.5" y="-145.8" font-family="arial" font-size="14.00">4x</text>
<polygon fill="none" stroke="black" points="1056,-138 1056,-161 1130,-161 1130,-138 1056,-138"/>
<text text-anchor="start" x="1063.5" y="-145.8" font-family="arial" font-size="14.00">0.25 mm²</text>
<polygon fill="none" stroke="black" points="1130,-138 1130,-161 1180,-161 1180,-138 1130,-138"/>
<text text-anchor="start" x="1137.5" y="-145.8" font-family="arial" font-size="14.00">0.2 m</text>
<text text-anchor="start" x="1019.5" y="-124.8" font-family="arial" font-size="14.00"> </text>
<text text-anchor="start" x="990" y="-105.8" font-family="arial" font-size="14.00">X2:1:GND</text>
<text text-anchor="start" x="1058" y="-105.8" font-family="arial" font-size="14.00"> &#160;&#160;&#160;&#160;PK &#160;&#160;&#160;</text>
<text text-anchor="start" x="1115" y="-105.8" font-family="arial" font-size="14.00">X3:1:GND</text>
<polygon fill="#000000" stroke="none" points="988,-98 988,-100 1180,-100 1180,-98 988,-98"/>
<polygon fill="#ff66cc" stroke="none" points="988,-96 988,-98 1180,-98 1180,-96 988,-96"/>
<polygon fill="#000000" stroke="none" points="988,-94 988,-96 1180,-96 1180,-94 988,-94"/>
<text text-anchor="start" x="991" y="-80.8" font-family="arial" font-size="14.00">X2:2:VCC</text>
<text text-anchor="start" x="1057" y="-80.8" font-family="arial" font-size="14.00"> &#160;&#160;&#160;&#160;TQ &#160;&#160;&#160;</text>
<text text-anchor="start" x="1116" y="-80.8" font-family="arial" font-size="14.00">X3:2:VCC</text>
<polygon fill="#000000" stroke="none" points="988,-73 988,-75 1180,-75 1180,-73 988,-73"/>
<polygon fill="#00ffff" stroke="none" points="988,-71 988,-73 1180,-73 1180,-71 988,-71"/>
<polygon fill="#000000" stroke="none" points="988,-69 988,-71 1180,-71 1180,-69 988,-69"/>
<text text-anchor="start" x="992.5" y="-55.8" font-family="arial" font-size="14.00">X2:3:SCL</text>
<text text-anchor="start" x="1058" y="-55.8" font-family="arial" font-size="14.00"> &#160;&#160;&#160;&#160;YE &#160;&#160;&#160;</text>
<text text-anchor="start" x="1117.5" y="-55.8" font-family="arial" font-size="14.00">X3:3:SCL</text>
<polygon fill="#000000" stroke="none" points="988,-48 988,-50 1180,-50 1180,-48 988,-48"/>
<polygon fill="#ffff00" stroke="none" points="988,-46 988,-48 1180,-48 1180,-46 988,-46"/>
<polygon fill="#000000" stroke="none" points="988,-44 988,-46 1180,-46 1180,-44 988,-44"/>
<text text-anchor="start" x="991.5" y="-30.8" font-family="arial" font-size="14.00">X2:4:SDA</text>
<text text-anchor="start" x="1058" y="-30.8" font-family="arial" font-size="14.00"> &#160;&#160;&#160;&#160;VT &#160;&#160;&#160;</text>
<text text-anchor="start" x="1116.5" y="-30.8" font-family="arial" font-size="14.00">X3:4:SDA</text>
<polygon fill="#000000" stroke="none" points="988,-23 988,-25 1180,-25 1180,-23 988,-23"/>
<polygon fill="#8000ff" stroke="none" points="988,-21 988,-23 1180,-23 1180,-21 988,-21"/>
<polygon fill="#000000" stroke="none" points="988,-19 988,-21 1180,-21 1180,-19 988,-19"/>
<text text-anchor="start" x="1019.5" y="-5.8" font-family="arial" font-size="14.00"> </text>
</g>
<!-- X2&#45;&#45;W2 -->
<g id="edge9" class="edge">
<title>X2:e&#45;&#45;W2:w</title>
<path fill="none" stroke="#000000" stroke-width="2" d="M844,-93C908.25,-93.02 924.24,-95.02 988,-95"/>
<path fill="none" stroke="#ff66cc" stroke-width="2" d="M844,-95C908.01,-95 923.99,-97 988,-97"/>
<path fill="none" stroke="#000000" stroke-width="2" d="M844,-97C907.76,-96.98 923.75,-98.98 988,-99"/>
</g>
<!-- X2&#45;&#45;W2 -->
<g id="edge11" class="edge">
<title>X2:e&#45;&#45;W2:w</title>
<path fill="none" stroke="#000000" stroke-width="2" d="M844,-69C908.13,-69 924.12,-70 988,-70"/>
<path fill="none" stroke="#00ffff" stroke-width="2" d="M844,-71C908,-71 924,-72 988,-72"/>
<path fill="none" stroke="#000000" stroke-width="2" d="M844,-73C907.88,-73 923.87,-74 988,-74"/>
</g>
<!-- X2&#45;&#45;W2 -->
<g id="edge13" class="edge">
<title>X2:e&#45;&#45;W2:w</title>
<path fill="none" stroke="#000000" stroke-width="2" d="M844,-46C907.88,-46 923.87,-45 988,-45"/>
<path fill="none" stroke="#ffff00" stroke-width="2" d="M844,-48C908,-48 924,-47 988,-47"/>
<path fill="none" stroke="#000000" stroke-width="2" d="M844,-50C908.13,-50 924.12,-49 988,-49"/>
</g>
<!-- X2&#45;&#45;W2 -->
<g id="edge15" class="edge">
<title>X2:e&#45;&#45;W2:w</title>
<path fill="none" stroke="#000000" stroke-width="2" d="M844,-23C907.64,-23.03 923.62,-20.03 988,-20"/>
<path fill="none" stroke="#8000ff" stroke-width="2" d="M844,-25C908.01,-25 923.99,-22 988,-22"/>
<path fill="none" stroke="#000000" stroke-width="2" d="M844,-27C908.38,-26.97 924.36,-23.97 988,-24"/>
</g>
<!-- X3 -->
<g id="node3" class="node">
<title>X3</title>
<polygon fill="#ffffff" stroke="black" points="1506,-152 1324,-152 1324,-14 1506,-14 1506,-152"/>
<polygon fill="none" stroke="black" points="1324,-129 1324,-152 1506,-152 1506,-129 1324,-129"/>
<text text-anchor="start" x="1406.5" y="-136.8" font-family="arial" font-size="14.00">X3</text>
<polygon fill="none" stroke="black" points="1324,-106 1324,-129 1417,-129 1417,-106 1324,-106"/>
<text text-anchor="start" x="1328" y="-113.8" font-family="arial" font-size="14.00">Molex KK 254</text>
<polygon fill="none" stroke="black" points="1417,-106 1417,-129 1467,-129 1467,-106 1417,-106"/>
<text text-anchor="start" x="1421" y="-113.8" font-family="arial" font-size="14.00">female</text>
<polygon fill="none" stroke="black" points="1467,-106 1467,-129 1506,-129 1506,-106 1467,-106"/>
<text text-anchor="start" x="1471" y="-113.8" font-family="arial" font-size="14.00">4&#45;pin</text>
<polygon fill="none" stroke="black" points="1324,-83 1324,-106 1404,-106 1404,-83 1324,-83"/>
<text text-anchor="start" x="1360" y="-90.8" font-family="arial" font-size="14.00">1</text>
<polygon fill="none" stroke="black" points="1404,-83 1404,-106 1506,-106 1506,-83 1404,-83"/>
<text text-anchor="start" x="1439.5" y="-90.8" font-family="arial" font-size="14.00">GND</text>
<polygon fill="none" stroke="black" points="1324,-60 1324,-83 1404,-83 1404,-60 1324,-60"/>
<text text-anchor="start" x="1360" y="-67.8" font-family="arial" font-size="14.00">2</text>
<polygon fill="none" stroke="black" points="1404,-60 1404,-83 1506,-83 1506,-60 1404,-60"/>
<text text-anchor="start" x="1440.5" y="-67.8" font-family="arial" font-size="14.00">VCC</text>
<polygon fill="none" stroke="black" points="1324,-37 1324,-60 1404,-60 1404,-37 1324,-37"/>
<text text-anchor="start" x="1360" y="-44.8" font-family="arial" font-size="14.00">3</text>
<polygon fill="none" stroke="black" points="1404,-37 1404,-60 1506,-60 1506,-37 1404,-37"/>
<text text-anchor="start" x="1441.5" y="-44.8" font-family="arial" font-size="14.00">SCL</text>
<polygon fill="none" stroke="black" points="1324,-14 1324,-37 1404,-37 1404,-14 1324,-14"/>
<text text-anchor="start" x="1360" y="-21.8" font-family="arial" font-size="14.00">4</text>
<polygon fill="none" stroke="black" points="1404,-14 1404,-37 1506,-37 1506,-14 1404,-14"/>
<text text-anchor="start" x="1441" y="-21.8" font-family="arial" font-size="14.00">SDA</text>
</g>
<!-- W1&#45;&#45;X2 -->
<g id="edge2" class="edge">
<title>W1:e&#45;&#45;X2:w</title>
<path fill="none" stroke="#000000" stroke-width="2" d="M518,-95C581.76,-95.02 597.75,-93.02 662,-93"/>
<path fill="none" stroke="#ff66cc" stroke-width="2" d="M518,-97C582.01,-97 597.99,-95 662,-95"/>
<path fill="none" stroke="#000000" stroke-width="2" d="M518,-99C582.25,-98.98 598.24,-96.98 662,-97"/>
</g>
<!-- W1&#45;&#45;X2 -->
<g id="edge4" class="edge">
<title>W1:e&#45;&#45;X2:w</title>
<path fill="none" stroke="#000000" stroke-width="2" d="M518,-70C581.88,-70 597.87,-69 662,-69"/>
<path fill="none" stroke="#00ffff" stroke-width="2" d="M518,-72C582,-72 598,-71 662,-71"/>
<path fill="none" stroke="#000000" stroke-width="2" d="M518,-74C582.13,-74 598.12,-73 662,-73"/>
</g>
<!-- W1&#45;&#45;X2 -->
<g id="edge6" class="edge">
<title>W1:e&#45;&#45;X2:w</title>
<path fill="none" stroke="#000000" stroke-width="2" d="M518,-45C582.13,-45 598.12,-46 662,-46"/>
<path fill="none" stroke="#ffff00" stroke-width="2" d="M518,-47C582,-47 598,-48 662,-48"/>
<path fill="none" stroke="#000000" stroke-width="2" d="M518,-49C581.88,-49 597.87,-50 662,-50"/>
</g>
<!-- W1&#45;&#45;X2 -->
<g id="edge8" class="edge">
<title>W1:e&#45;&#45;X2:w</title>
<path fill="none" stroke="#000000" stroke-width="2" d="M518,-20C582.38,-20.03 598.36,-23.03 662,-23"/>
<path fill="none" stroke="#8000ff" stroke-width="2" d="M518,-22C582.01,-22 597.99,-25 662,-25"/>
<path fill="none" stroke="#000000" stroke-width="2" d="M518,-24C581.64,-23.97 597.62,-26.97 662,-27"/>
</g>
<!-- W2&#45;&#45;X3 -->
<g id="edge10" class="edge">
<title>W2:e&#45;&#45;X3:w</title>
<path fill="none" stroke="#000000" stroke-width="2" d="M1180,-95C1243.76,-95.02 1259.75,-93.02 1324,-93"/>
<path fill="none" stroke="#ff66cc" stroke-width="2" d="M1180,-97C1244.01,-97 1259.99,-95 1324,-95"/>
<path fill="none" stroke="#000000" stroke-width="2" d="M1180,-99C1244.25,-98.98 1260.24,-96.98 1324,-97"/>
</g>
<!-- W2&#45;&#45;X3 -->
<g id="edge12" class="edge">
<title>W2:e&#45;&#45;X3:w</title>
<path fill="none" stroke="#000000" stroke-width="2" d="M1180,-70C1243.88,-70 1259.87,-69 1324,-69"/>
<path fill="none" stroke="#00ffff" stroke-width="2" d="M1180,-72C1244,-72 1260,-71 1324,-71"/>
<path fill="none" stroke="#000000" stroke-width="2" d="M1180,-74C1244.13,-74 1260.12,-73 1324,-73"/>
</g>
<!-- W2&#45;&#45;X3 -->
<g id="edge14" class="edge">
<title>W2:e&#45;&#45;X3:w</title>
<path fill="none" stroke="#000000" stroke-width="2" d="M1180,-45C1244.13,-45 1260.12,-46 1324,-46"/>
<path fill="none" stroke="#ffff00" stroke-width="2" d="M1180,-47C1244,-47 1260,-48 1324,-48"/>
<path fill="none" stroke="#000000" stroke-width="2" d="M1180,-49C1243.88,-49 1259.87,-50 1324,-50"/>
</g>
<!-- W2&#45;&#45;X3 -->
<g id="edge16" class="edge">
<title>W2:e&#45;&#45;X3:w</title>
<path fill="none" stroke="#000000" stroke-width="2" d="M1180,-20C1244.38,-20.03 1260.36,-23.03 1324,-23"/>
<path fill="none" stroke="#8000ff" stroke-width="2" d="M1180,-22C1244.01,-22 1259.99,-25 1324,-25"/>
<path fill="none" stroke="#000000" stroke-width="2" d="M1180,-24C1243.64,-23.97 1259.62,-26.97 1324,-27"/>
</g>
</g>
</svg>
