<?xml version="1.0" encoding="UTF-8" standalone="no"?>
<!DOCTYPE svg PUBLIC "-//W3C//DTD SVG 1.1//EN"
 "http://www.w3.org/Graphics/SVG/1.1/DTD/svg11.dtd">
<!-- Generated by graphviz version 2.44.0 (20200408.0750)
 -->
<!-- Pages: 1 -->
<svg width="1468pt" height="165pt"
 viewBox="0.00 0.00 1468.00 165.00" xmlns="http://www.w3.org/2000/svg" xmlns:xlink="http://www.w3.org/1999/xlink">
<g id="graph0" class="graph" transform="scale(1 1) rotate(0) translate(4 161)">
<polygon fill="white" stroke="transparent" points="-4,4 -4,-161 1464,-161 1464,4 -4,4"/>
<!-- X1 -->
<g id="node1" class="node">
<title>X1</title>
<polygon fill="white" stroke="black" points="0,-13.5 0,-151.5 206,-151.5 206,-13.5 0,-13.5"/>
<text text-anchor="middle" x="103" y="-136.3" font-family="arial" font-size="14.00">X1</text>
<polyline fill="none" stroke="black" points="0,-128.5 206,-128.5 "/>
<text text-anchor="middle" x="50.5" y="-113.3" font-family="arial" font-size="14.00">Molex KK 254</text>
<polyline fill="none" stroke="black" points="101,-105.5 101,-128.5 "/>
<text text-anchor="middle" x="130" y="-113.3" font-family="arial" font-size="14.00">female</text>
<polyline fill="none" stroke="black" points="159,-105.5 159,-128.5 "/>
<text text-anchor="middle" x="182.5" y="-113.3" font-family="arial" font-size="14.00">4&#45;pin</text>
<polyline fill="none" stroke="black" points="0,-105.5 206,-105.5 "/>
<text text-anchor="middle" x="57" y="-90.3" font-family="arial" font-size="14.00">GND</text>
<polyline fill="none" stroke="black" points="0,-82.5 114,-82.5 "/>
<text text-anchor="middle" x="57" y="-67.3" font-family="arial" font-size="14.00">VCC</text>
<polyline fill="none" stroke="black" points="0,-59.5 114,-59.5 "/>
<text text-anchor="middle" x="57" y="-44.3" font-family="arial" font-size="14.00">SCL</text>
<polyline fill="none" stroke="black" points="0,-36.5 114,-36.5 "/>
<text text-anchor="middle" x="57" y="-21.3" font-family="arial" font-size="14.00">SDA</text>
<polyline fill="none" stroke="black" points="114,-13.5 114,-105.5 "/>
<text text-anchor="middle" x="160" y="-90.3" font-family="arial" font-size="14.00">1</text>
<polyline fill="none" stroke="black" points="114,-82.5 206,-82.5 "/>
<text text-anchor="middle" x="160" y="-67.3" font-family="arial" font-size="14.00">2</text>
<polyline fill="none" stroke="black" points="114,-59.5 206,-59.5 "/>
<text text-anchor="middle" x="160" y="-44.3" font-family="arial" font-size="14.00">3</text>
<polyline fill="none" stroke="black" points="114,-36.5 206,-36.5 "/>
<text text-anchor="middle" x="160" y="-21.3" font-family="arial" font-size="14.00">4</text>
</g>
<!-- W1 -->
<g id="node4" class="node">
<title>W1</title>
<polygon fill="white" stroke="black" stroke-dasharray="5,2" points="483,-157 350,-157 350,0 483,0 483,-157"/>
<polygon fill="none" stroke="black" points="350.5,-133.5 350.5,-156.5 373.5,-156.5 373.5,-133.5 350.5,-133.5"/>
<text text-anchor="start" x="354.5" y="-141.3" font-family="arial" font-size="14.00">4x</text>
<polygon fill="none" stroke="black" points="373.5,-133.5 373.5,-156.5 440.5,-156.5 440.5,-133.5 373.5,-133.5"/>
<text text-anchor="start" x="377.5" y="-141.3" font-family="arial" font-size="14.00">0.25 mm²</text>
<polygon fill="none" stroke="black" points="440.5,-133.5 440.5,-156.5 483.5,-156.5 483.5,-133.5 440.5,-133.5"/>
<text text-anchor="start" x="444.5" y="-141.3" font-family="arial" font-size="14.00">0.2 m</text>
<text text-anchor="start" x="415" y="-122.3" font-family="arial" font-size="14.00"> </text>
<text text-anchor="start" x="360" y="-105.3" font-family="arial" font-size="14.00">X1:1</text>
<text text-anchor="start" x="407.5" y="-105.3" font-family="arial" font-size="14.00">PK</text>
<text text-anchor="start" x="446" y="-105.3" font-family="arial" font-size="14.00">X2:1</text>
<polygon fill="#ff66cc" stroke="transparent" points="350.5,-93.5 350.5,-99.5 483.5,-99.5 483.5,-93.5 350.5,-93.5"/>
<polyline fill="none" stroke="black" stroke-width="2" points="351.5,-94.5 482.5,-94.5 "/>
<polyline fill="none" stroke="black" stroke-width="2" points="482.5,-98.5 351.5,-98.5 "/>
<text text-anchor="start" x="360" y="-80.3" font-family="arial" font-size="14.00">X1:2</text>
<text text-anchor="start" x="407" y="-80.3" font-family="arial" font-size="14.00">TQ</text>
<text text-anchor="start" x="446" y="-80.3" font-family="arial" font-size="14.00">X2:2</text>
<polygon fill="#00ffff" stroke="transparent" stroke-width="2" points="350.5,-68.5 350.5,-74.5 483.5,-74.5 483.5,-68.5 350.5,-68.5"/>
<polyline fill="none" stroke="black" stroke-width="2" points="351.5,-69.5 482.5,-69.5 "/>
<polyline fill="none" stroke="black" stroke-width="2" points="482.5,-73.5 351.5,-73.5 "/>
<text text-anchor="start" x="360" y="-55.3" font-family="arial" font-size="14.00">X1:3</text>
<text text-anchor="start" x="407.5" y="-55.3" font-family="arial" font-size="14.00">YE</text>
<text text-anchor="start" x="446" y="-55.3" font-family="arial" font-size="14.00">X2:3</text>
<polygon fill="#ffff00" stroke="transparent" stroke-width="2" points="350.5,-43.5 350.5,-49.5 483.5,-49.5 483.5,-43.5 350.5,-43.5"/>
<polyline fill="none" stroke="black" stroke-width="2" points="351.5,-44.5 482.5,-44.5 "/>
<polyline fill="none" stroke="black" stroke-width="2" points="482.5,-48.5 351.5,-48.5 "/>
<text text-anchor="start" x="360" y="-30.3" font-family="arial" font-size="14.00">X1:4</text>
<text text-anchor="start" x="408" y="-30.3" font-family="arial" font-size="14.00">VT</text>
<text text-anchor="start" x="446" y="-30.3" font-family="arial" font-size="14.00">X2:4</text>
<polygon fill="#8000ff" stroke="transparent" stroke-width="2" points="350.5,-18.5 350.5,-24.5 483.5,-24.5 483.5,-18.5 350.5,-18.5"/>
<polyline fill="none" stroke="black" stroke-width="2" points="351.5,-19.5 482.5,-19.5 "/>
<polyline fill="none" stroke="black" stroke-width="2" points="482.5,-23.5 351.5,-23.5 "/>
<text text-anchor="start" x="372" y="-5.3" font-family="arial" font-size="14.00"> </text>
</g>
<!-- X1&#45;&#45;W1 -->
<g id="edge1" class="edge">
<title>X1:e&#45;&#45;W1:w</title>
<path fill="none" stroke="#000000" stroke-width="2" d="M206,-92.5C270.25,-92.52 286.24,-94.52 350,-94.5"/>
<path fill="none" stroke="#ff66cc" stroke-width="2" d="M206,-94.5C270.01,-94.5 285.99,-96.5 350,-96.5"/>
<path fill="none" stroke="#000000" stroke-width="2" d="M206,-96.5C269.76,-96.48 285.75,-98.48 350,-98.5"/>
</g>
<!-- X1&#45;&#45;W1 -->
<g id="edge3" class="edge">
<title>X1:e&#45;&#45;W1:w</title>
<path fill="none" stroke="#000000" stroke-width="2" d="M206,-68.5C270.13,-68.5 286.12,-69.5 350,-69.5"/>
<path fill="none" stroke="#00ffff" stroke-width="2" d="M206,-70.5C270,-70.5 286,-71.5 350,-71.5"/>
<path fill="none" stroke="#000000" stroke-width="2" d="M206,-72.5C269.88,-72.5 285.87,-73.5 350,-73.5"/>
</g>
<!-- X1&#45;&#45;W1 -->
<g id="edge5" class="edge">
<title>X1:e&#45;&#45;W1:w</title>
<path fill="none" stroke="#000000" stroke-width="2" d="M206,-45.5C269.88,-45.5 285.87,-44.5 350,-44.5"/>
<path fill="none" stroke="#ffff00" stroke-width="2" d="M206,-47.5C270,-47.5 286,-46.5 350,-46.5"/>
<path fill="none" stroke="#000000" stroke-width="2" d="M206,-49.5C270.13,-49.5 286.12,-48.5 350,-48.5"/>
</g>
<!-- X1&#45;&#45;W1 -->
<g id="edge7" class="edge">
<title>X1:e&#45;&#45;W1:w</title>
<path fill="none" stroke="#000000" stroke-width="2" d="M206,-22.5C269.64,-22.53 285.62,-19.53 350,-19.5"/>
<path fill="none" stroke="#8000ff" stroke-width="2" d="M206,-24.5C270.01,-24.5 285.99,-21.5 350,-21.5"/>
<path fill="none" stroke="#000000" stroke-width="2" d="M206,-26.5C270.38,-26.47 286.36,-23.47 350,-23.5"/>
</g>
<!-- X2 -->
<g id="node2" class="node">
<title>X2</title>
<polygon fill="white" stroke="black" points="627,-13.5 627,-151.5 833,-151.5 833,-13.5 627,-13.5"/>
<text text-anchor="middle" x="730" y="-136.3" font-family="arial" font-size="14.00">X2</text>
<polyline fill="none" stroke="black" points="627,-128.5 833,-128.5 "/>
<text text-anchor="middle" x="677.5" y="-113.3" font-family="arial" font-size="14.00">Molex KK 254</text>
<polyline fill="none" stroke="black" points="728,-105.5 728,-128.5 "/>
<text text-anchor="middle" x="757" y="-113.3" font-family="arial" font-size="14.00">female</text>
<polyline fill="none" stroke="black" points="786,-105.5 786,-128.5 "/>
<text text-anchor="middle" x="809.5" y="-113.3" font-family="arial" font-size="14.00">4&#45;pin</text>
<polyline fill="none" stroke="black" points="627,-105.5 833,-105.5 "/>
<text text-anchor="middle" x="657.5" y="-90.3" font-family="arial" font-size="14.00">1</text>
<polyline fill="none" stroke="black" points="627,-82.5 688,-82.5 "/>
<text text-anchor="middle" x="657.5" y="-67.3" font-family="arial" font-size="14.00">2</text>
<polyline fill="none" stroke="black" points="627,-59.5 688,-59.5 "/>
<text text-anchor="middle" x="657.5" y="-44.3" font-family="arial" font-size="14.00">3</text>
<polyline fill="none" stroke="black" points="627,-36.5 688,-36.5 "/>
<text text-anchor="middle" x="657.5" y="-21.3" font-family="arial" font-size="14.00">4</text>
<polyline fill="none" stroke="black" points="688,-13.5 688,-105.5 "/>
<text text-anchor="middle" x="730" y="-90.3" font-family="arial" font-size="14.00">GND</text>
<polyline fill="none" stroke="black" points="688,-82.5 772,-82.5 "/>
<text text-anchor="middle" x="730" y="-67.3" font-family="arial" font-size="14.00">VCC</text>
<polyline fill="none" stroke="black" points="688,-59.5 772,-59.5 "/>
<text text-anchor="middle" x="730" y="-44.3" font-family="arial" font-size="14.00">SCL</text>
<polyline fill="none" stroke="black" points="688,-36.5 772,-36.5 "/>
<text text-anchor="middle" x="730" y="-21.3" font-family="arial" font-size="14.00">SDA</text>
<polyline fill="none" stroke="black" points="772,-13.5 772,-105.5 "/>
<text text-anchor="middle" x="802.5" y="-90.3" font-family="arial" font-size="14.00">1</text>
<polyline fill="none" stroke="black" points="772,-82.5 833,-82.5 "/>
<text text-anchor="middle" x="802.5" y="-67.3" font-family="arial" font-size="14.00">2</text>
<polyline fill="none" stroke="black" points="772,-59.5 833,-59.5 "/>
<text text-anchor="middle" x="802.5" y="-44.3" font-family="arial" font-size="14.00">3</text>
<polyline fill="none" stroke="black" points="772,-36.5 833,-36.5 "/>
<text text-anchor="middle" x="802.5" y="-21.3" font-family="arial" font-size="14.00">4</text>
</g>
<!-- W2 -->
<g id="node5" class="node">
<title>W2</title>
<polygon fill="white" stroke="black" stroke-dasharray="5,2" points="1110,-157 977,-157 977,0 1110,0 1110,-157"/>
<polygon fill="none" stroke="black" points="977.5,-133.5 977.5,-156.5 1000.5,-156.5 1000.5,-133.5 977.5,-133.5"/>
<text text-anchor="start" x="981.5" y="-141.3" font-family="arial" font-size="14.00">4x</text>
<polygon fill="none" stroke="black" points="1000.5,-133.5 1000.5,-156.5 1067.5,-156.5 1067.5,-133.5 1000.5,-133.5"/>
<text text-anchor="start" x="1004.5" y="-141.3" font-family="arial" font-size="14.00">0.25 mm²</text>
<polygon fill="none" stroke="black" points="1067.5,-133.5 1067.5,-156.5 1110.5,-156.5 1110.5,-133.5 1067.5,-133.5"/>
<text text-anchor="start" x="1071.5" y="-141.3" font-family="arial" font-size="14.00">0.2 m</text>
<text text-anchor="start" x="1042" y="-122.3" font-family="arial" font-size="14.00"> </text>
<text text-anchor="start" x="987" y="-105.3" font-family="arial" font-size="14.00">X2:1</text>
<text text-anchor="start" x="1034.5" y="-105.3" font-family="arial" font-size="14.00">PK</text>
<text text-anchor="start" x="1073" y="-105.3" font-family="arial" font-size="14.00">X3:1</text>
<polygon fill="#ff66cc" stroke="transparent" points="977.5,-93.5 977.5,-99.5 1110.5,-99.5 1110.5,-93.5 977.5,-93.5"/>
<polyline fill="none" stroke="black" stroke-width="2" points="978.5,-94.5 1109.5,-94.5 "/>
<polyline fill="none" stroke="black" stroke-width="2" points="1109.5,-98.5 978.5,-98.5 "/>
<text text-anchor="start" x="987" y="-80.3" font-family="arial" font-size="14.00">X2:2</text>
<text text-anchor="start" x="1034" y="-80.3" font-family="arial" font-size="14.00">TQ</text>
<text text-anchor="start" x="1073" y="-80.3" font-family="arial" font-size="14.00">X3:2</text>
<polygon fill="#00ffff" stroke="transparent" stroke-width="2" points="977.5,-68.5 977.5,-74.5 1110.5,-74.5 1110.5,-68.5 977.5,-68.5"/>
<polyline fill="none" stroke="black" stroke-width="2" points="978.5,-69.5 1109.5,-69.5 "/>
<polyline fill="none" stroke="black" stroke-width="2" points="1109.5,-73.5 978.5,-73.5 "/>
<text text-anchor="start" x="987" y="-55.3" font-family="arial" font-size="14.00">X2:3</text>
<text text-anchor="start" x="1034.5" y="-55.3" font-family="arial" font-size="14.00">YE</text>
<text text-anchor="start" x="1073" y="-55.3" font-family="arial" font-size="14.00">X3:3</text>
<polygon fill="#ffff00" stroke="transparent" stroke-width="2" points="977.5,-43.5 977.5,-49.5 1110.5,-49.5 1110.5,-43.5 977.5,-43.5"/>
<polyline fill="none" stroke="black" stroke-width="2" points="978.5,-44.5 1109.5,-44.5 "/>
<polyline fill="none" stroke="black" stroke-width="2" points="1109.5,-48.5 978.5,-48.5 "/>
<text text-anchor="start" x="987" y="-30.3" font-family="arial" font-size="14.00">X2:4</text>
<text text-anchor="start" x="1035" y="-30.3" font-family="arial" font-size="14.00">VT</text>
<text text-anchor="start" x="1073" y="-30.3" font-family="arial" font-size="14.00">X3:4</text>
<polygon fill="#8000ff" stroke="transparent" stroke-width="2" points="977.5,-18.5 977.5,-24.5 1110.5,-24.5 1110.5,-18.5 977.5,-18.5"/>
<polyline fill="none" stroke="black" stroke-width="2" points="978.5,-19.5 1109.5,-19.5 "/>
<polyline fill="none" stroke="black" stroke-width="2" points="1109.5,-23.5 978.5,-23.5 "/>
<text text-anchor="start" x="999" y="-5.3" font-family="arial" font-size="14.00"> </text>
</g>
<!-- X2&#45;&#45;W2 -->
<g id="edge9" class="edge">
<title>X2:e&#45;&#45;W2:w</title>
<path fill="none" stroke="#000000" stroke-width="2" d="M833,-92.5C897.25,-92.52 913.24,-94.52 977,-94.5"/>
<path fill="none" stroke="#ff66cc" stroke-width="2" d="M833,-94.5C897.01,-94.5 912.99,-96.5 977,-96.5"/>
<path fill="none" stroke="#000000" stroke-width="2" d="M833,-96.5C896.76,-96.48 912.75,-98.48 977,-98.5"/>
</g>
<!-- X2&#45;&#45;W2 -->
<g id="edge11" class="edge">
<title>X2:e&#45;&#45;W2:w</title>
<path fill="none" stroke="#000000" stroke-width="2" d="M833,-68.5C897.13,-68.5 913.12,-69.5 977,-69.5"/>
<path fill="none" stroke="#00ffff" stroke-width="2" d="M833,-70.5C897,-70.5 913,-71.5 977,-71.5"/>
<path fill="none" stroke="#000000" stroke-width="2" d="M833,-72.5C896.88,-72.5 912.87,-73.5 977,-73.5"/>
</g>
<!-- X2&#45;&#45;W2 -->
<g id="edge13" class="edge">
<title>X2:e&#45;&#45;W2:w</title>
<path fill="none" stroke="#000000" stroke-width="2" d="M833,-45.5C896.88,-45.5 912.87,-44.5 977,-44.5"/>
<path fill="none" stroke="#ffff00" stroke-width="2" d="M833,-47.5C897,-47.5 913,-46.5 977,-46.5"/>
<path fill="none" stroke="#000000" stroke-width="2" d="M833,-49.5C897.13,-49.5 913.12,-48.5 977,-48.5"/>
</g>
<!-- X2&#45;&#45;W2 -->
<g id="edge15" class="edge">
<title>X2:e&#45;&#45;W2:w</title>
<path fill="none" stroke="#000000" stroke-width="2" d="M833,-22.5C896.64,-22.53 912.62,-19.53 977,-19.5"/>
<path fill="none" stroke="#8000ff" stroke-width="2" d="M833,-24.5C897.01,-24.5 912.99,-21.5 977,-21.5"/>
<path fill="none" stroke="#000000" stroke-width="2" d="M833,-26.5C897.38,-26.47 913.36,-23.47 977,-23.5"/>
</g>
<!-- X3 -->
<g id="node3" class="node">
<title>X3</title>
<polygon fill="white" stroke="black" points="1254,-13.5 1254,-151.5 1460,-151.5 1460,-13.5 1254,-13.5"/>
<text text-anchor="middle" x="1357" y="-136.3" font-family="arial" font-size="14.00">X3</text>
<polyline fill="none" stroke="black" points="1254,-128.5 1460,-128.5 "/>
<text text-anchor="middle" x="1304.5" y="-113.3" font-family="arial" font-size="14.00">Molex KK 254</text>
<polyline fill="none" stroke="black" points="1355,-105.5 1355,-128.5 "/>
<text text-anchor="middle" x="1384" y="-113.3" font-family="arial" font-size="14.00">female</text>
<polyline fill="none" stroke="black" points="1413,-105.5 1413,-128.5 "/>
<text text-anchor="middle" x="1436.5" y="-113.3" font-family="arial" font-size="14.00">4&#45;pin</text>
<polyline fill="none" stroke="black" points="1254,-105.5 1460,-105.5 "/>
<text text-anchor="middle" x="1299.5" y="-90.3" font-family="arial" font-size="14.00">1</text>
<polyline fill="none" stroke="black" points="1254,-82.5 1345,-82.5 "/>
<text text-anchor="middle" x="1299.5" y="-67.3" font-family="arial" font-size="14.00">2</text>
<polyline fill="none" stroke="black" points="1254,-59.5 1345,-59.5 "/>
<text text-anchor="middle" x="1299.5" y="-44.3" font-family="arial" font-size="14.00">3</text>
<polyline fill="none" stroke="black" points="1254,-36.5 1345,-36.5 "/>
<text text-anchor="middle" x="1299.5" y="-21.3" font-family="arial" font-size="14.00">4</text>
<polyline fill="none" stroke="black" points="1345,-13.5 1345,-105.5 "/>
<text text-anchor="middle" x="1402.5" y="-90.3" font-family="arial" font-size="14.00">GND</text>
<polyline fill="none" stroke="black" points="1345,-82.5 1460,-82.5 "/>
<text text-anchor="middle" x="1402.5" y="-67.3" font-family="arial" font-size="14.00">VCC</text>
<polyline fill="none" stroke="black" points="1345,-59.5 1460,-59.5 "/>
<text text-anchor="middle" x="1402.5" y="-44.3" font-family="arial" font-size="14.00">SCL</text>
<polyline fill="none" stroke="black" points="1345,-36.5 1460,-36.5 "/>
<text text-anchor="middle" x="1402.5" y="-21.3" font-family="arial" font-size="14.00">SDA</text>
</g>
<!-- W1&#45;&#45;X2 -->
<g id="edge2" class="edge">
<title>W1:e&#45;&#45;X2:w</title>
<path fill="none" stroke="#000000" stroke-width="2" d="M483,-94.5C546.76,-94.52 562.75,-92.52 627,-92.5"/>
<path fill="none" stroke="#ff66cc" stroke-width="2" d="M483,-96.5C547.01,-96.5 562.99,-94.5 627,-94.5"/>
<path fill="none" stroke="#000000" stroke-width="2" d="M483,-98.5C547.25,-98.48 563.24,-96.48 627,-96.5"/>
</g>
<!-- W1&#45;&#45;X2 -->
<g id="edge4" class="edge">
<title>W1:e&#45;&#45;X2:w</title>
<path fill="none" stroke="#000000" stroke-width="2" d="M483,-69.5C546.88,-69.5 562.87,-68.5 627,-68.5"/>
<path fill="none" stroke="#00ffff" stroke-width="2" d="M483,-71.5C547,-71.5 563,-70.5 627,-70.5"/>
<path fill="none" stroke="#000000" stroke-width="2" d="M483,-73.5C547.13,-73.5 563.12,-72.5 627,-72.5"/>
</g>
<!-- W1&#45;&#45;X2 -->
<g id="edge6" class="edge">
<title>W1:e&#45;&#45;X2:w</title>
<path fill="none" stroke="#000000" stroke-width="2" d="M483,-44.5C547.13,-44.5 563.12,-45.5 627,-45.5"/>
<path fill="none" stroke="#ffff00" stroke-width="2" d="M483,-46.5C547,-46.5 563,-47.5 627,-47.5"/>
<path fill="none" stroke="#000000" stroke-width="2" d="M483,-48.5C546.88,-48.5 562.87,-49.5 627,-49.5"/>
</g>
<!-- W1&#45;&#45;X2 -->
<g id="edge8" class="edge">
<title>W1:e&#45;&#45;X2:w</title>
<path fill="none" stroke="#000000" stroke-width="2" d="M483,-19.5C547.38,-19.53 563.36,-22.53 627,-22.5"/>
<path fill="none" stroke="#8000ff" stroke-width="2" d="M483,-21.5C547.01,-21.5 562.99,-24.5 627,-24.5"/>
<path fill="none" stroke="#000000" stroke-width="2" d="M483,-23.5C546.64,-23.47 562.62,-26.47 627,-26.5"/>
</g>
<!-- W2&#45;&#45;X3 -->
<g id="edge10" class="edge">
<title>W2:e&#45;&#45;X3:w</title>
<path fill="none" stroke="#000000" stroke-width="2" d="M1110,-94.5C1173.76,-94.52 1189.75,-92.52 1254,-92.5"/>
<path fill="none" stroke="#ff66cc" stroke-width="2" d="M1110,-96.5C1174.01,-96.5 1189.99,-94.5 1254,-94.5"/>
<path fill="none" stroke="#000000" stroke-width="2" d="M1110,-98.5C1174.25,-98.48 1190.24,-96.48 1254,-96.5"/>
</g>
<!-- W2&#45;&#45;X3 -->
<g id="edge12" class="edge">
<title>W2:e&#45;&#45;X3:w</title>
<path fill="none" stroke="#000000" stroke-width="2" d="M1110,-69.5C1173.88,-69.5 1189.87,-68.5 1254,-68.5"/>
<path fill="none" stroke="#00ffff" stroke-width="2" d="M1110,-71.5C1174,-71.5 1190,-70.5 1254,-70.5"/>
<path fill="none" stroke="#000000" stroke-width="2" d="M1110,-73.5C1174.13,-73.5 1190.12,-72.5 1254,-72.5"/>
</g>
<!-- W2&#45;&#45;X3 -->
<g id="edge14" class="edge">
<title>W2:e&#45;&#45;X3:w</title>
<path fill="none" stroke="#000000" stroke-width="2" d="M1110,-44.5C1174.13,-44.5 1190.12,-45.5 1254,-45.5"/>
<path fill="none" stroke="#ffff00" stroke-width="2" d="M1110,-46.5C1174,-46.5 1190,-47.5 1254,-47.5"/>
<path fill="none" stroke="#000000" stroke-width="2" d="M1110,-48.5C1173.88,-48.5 1189.87,-49.5 1254,-49.5"/>
</g>
<!-- W2&#45;&#45;X3 -->
<g id="edge16" class="edge">
<title>W2:e&#45;&#45;X3:w</title>
<path fill="none" stroke="#000000" stroke-width="2" d="M1110,-19.5C1174.38,-19.53 1190.36,-22.53 1254,-22.5"/>
<path fill="none" stroke="#8000ff" stroke-width="2" d="M1110,-21.5C1174.01,-21.5 1189.99,-24.5 1254,-24.5"/>
<path fill="none" stroke="#000000" stroke-width="2" d="M1110,-23.5C1173.64,-23.47 1189.62,-26.47 1254,-26.5"/>
</g>
</g>
</svg>
