<?xml version="1.0" encoding="UTF-8" standalone="no"?>
<!DOCTYPE svg PUBLIC "-//W3C//DTD SVG 1.1//EN"
 "http://www.w3.org/Graphics/SVG/1.1/DTD/svg11.dtd">
<!-- Generated by graphviz version 2.44.0 (20200408.0750)
 -->
<!-- Pages: 1 -->
<svg width="1492pt" height="153pt"
 viewBox="0.00 0.00 1492.00 152.50" xmlns="http://www.w3.org/2000/svg" xmlns:xlink="http://www.w3.org/1999/xlink">
<g id="graph0" class="graph" transform="scale(1 1) rotate(0) translate(4 148.5)">
<g id="clust1" class="cluster">
<title>cluster_W1</title>
<polygon fill="white" stroke="black" stroke-dasharray="5,2" points="342,-8 342,-134 503,-134 503,-8 342,-8"/>
<text text-anchor="middle" x="422.5" y="-118.8" font-family="arial" font-size="14.00">4x &#160;| &#160;0.25 mm² &#160;| &#160;0.2 m</text>
<text text-anchor="middle" x="422.5" y="-103.8" font-family="arial" font-size="14.00"> </text>
</g>
<g id="clust2" class="cluster">
<title>cluster_W2</title>
<polygon fill="white" stroke="black" stroke-dasharray="5,2" points="981,-8 981,-134 1142,-134 1142,-8 981,-8"/>
<text text-anchor="middle" x="1061.5" y="-118.8" font-family="arial" font-size="14.00">4x &#160;| &#160;0.25 mm² &#160;| &#160;0.2 m</text>
<text text-anchor="middle" x="1061.5" y="-103.8" font-family="arial" font-size="14.00"> </text>
</g>
<!-- X1 -->
<g id="node1" class="node">
<title>X1</title>
<polygon fill="white" stroke="black" points="0,-6 0,-144 206,-144 206,-6 0,-6"/>
<text text-anchor="middle" x="103" y="-128.8" font-family="arial" font-size="14.00">X1</text>
<polyline fill="none" stroke="black" points="0,-121 206,-121 "/>
<text text-anchor="middle" x="50.5" y="-105.8" font-family="arial" font-size="14.00">Molex KK 254</text>
<polyline fill="none" stroke="black" points="101,-98 101,-121 "/>
<text text-anchor="middle" x="130" y="-105.8" font-family="arial" font-size="14.00">female</text>
<polyline fill="none" stroke="black" points="159,-98 159,-121 "/>
<text text-anchor="middle" x="182.5" y="-105.8" font-family="arial" font-size="14.00">4&#45;pin</text>
<polyline fill="none" stroke="black" points="0,-98 206,-98 "/>
<text text-anchor="middle" x="57" y="-82.8" font-family="arial" font-size="14.00">GND</text>
<polyline fill="none" stroke="black" points="0,-75 114,-75 "/>
<text text-anchor="middle" x="57" y="-59.8" font-family="arial" font-size="14.00">VCC</text>
<polyline fill="none" stroke="black" points="0,-52 114,-52 "/>
<text text-anchor="middle" x="57" y="-36.8" font-family="arial" font-size="14.00">SCL</text>
<polyline fill="none" stroke="black" points="0,-29 114,-29 "/>
<text text-anchor="middle" x="57" y="-13.8" font-family="arial" font-size="14.00">SDA</text>
<polyline fill="none" stroke="black" points="114,-6 114,-98 "/>
<text text-anchor="middle" x="160" y="-82.8" font-family="arial" font-size="14.00">1</text>
<polyline fill="none" stroke="black" points="114,-75 206,-75 "/>
<text text-anchor="middle" x="160" y="-59.8" font-family="arial" font-size="14.00">2</text>
<polyline fill="none" stroke="black" points="114,-52 206,-52 "/>
<text text-anchor="middle" x="160" y="-36.8" font-family="arial" font-size="14.00">3</text>
<polyline fill="none" stroke="black" points="114,-29 206,-29 "/>
<text text-anchor="middle" x="160" y="-13.8" font-family="arial" font-size="14.00">4</text>
</g>
<!-- W1_w1l -->
<g id="node4" class="node">
<title>W1_w1l</title>
<ellipse fill="white" stroke="black" cx="350" cy="-88" rx="0" ry="0"/>
</g>
<!-- X1&#45;&#45;W1_w1l -->
<g id="edge2" class="edge">
<title>X1:p1r&#45;&#45;W1_w1l:w</title>
<path fill="none" stroke="#000000" stroke-width="2" d="M206,-85C269.68,-85 285.57,-86 349,-86"/>
<path fill="none" stroke="#ff66cc" stroke-width="2" d="M206,-87C269.56,-87 285.44,-88 349,-88"/>
<path fill="none" stroke="#000000" stroke-width="2" d="M206,-89C269.43,-89 285.32,-90 349,-90"/>
<text text-anchor="middle" x="343.99" y="-92.95" font-family="arial" font-size="14.00"> &#160;&#160;&#160;&#160;&#160;&#160;&#160;&#160;&#160;&#160;&#160;X1:1</text>
</g>
<!-- W1_w2l -->
<g id="node6" class="node">
<title>W1_w2l</title>
<ellipse fill="white" stroke="black" cx="350" cy="-64" rx="0" ry="0"/>
</g>
<!-- X1&#45;&#45;W1_w2l -->
<g id="edge5" class="edge">
<title>X1:p2r&#45;&#45;W1_w2l:w</title>
<path fill="none" stroke="#000000" stroke-width="2" d="M206,-61C269.68,-61 285.57,-62 349,-62"/>
<path fill="none" stroke="#00ffff" stroke-width="2" d="M206,-63C269.56,-63 285.44,-64 349,-64"/>
<path fill="none" stroke="#000000" stroke-width="2" d="M206,-65C269.43,-65 285.32,-66 349,-66"/>
<text text-anchor="middle" x="343.99" y="-68.95" font-family="arial" font-size="14.00"> &#160;&#160;&#160;&#160;&#160;&#160;&#160;&#160;&#160;&#160;&#160;X1:2</text>
</g>
<!-- W1_w3l -->
<g id="node8" class="node">
<title>W1_w3l</title>
<ellipse fill="white" stroke="black" cx="350" cy="-40" rx="0" ry="0"/>
</g>
<!-- X1&#45;&#45;W1_w3l -->
<g id="edge8" class="edge">
<title>X1:p3r&#45;&#45;W1_w3l:w</title>
<path fill="none" stroke="#000000" stroke-width="2" d="M206,-38C269.56,-38 285.44,-38 349,-38"/>
<path fill="none" stroke="#ffff00" stroke-width="2" d="M206,-40C269.56,-40 285.44,-40 349,-40"/>
<path fill="none" stroke="#000000" stroke-width="2" d="M206,-42C269.56,-42 285.44,-42 349,-42"/>
<text text-anchor="middle" x="344" y="-44.96" font-family="arial" font-size="14.00"> &#160;&#160;&#160;&#160;&#160;&#160;&#160;&#160;&#160;&#160;&#160;X1:3</text>
</g>
<!-- W1_w4l -->
<g id="node10" class="node">
<title>W1_w4l</title>
<ellipse fill="white" stroke="black" cx="350" cy="-16" rx="0" ry="0"/>
</g>
<!-- X1&#45;&#45;W1_w4l -->
<g id="edge11" class="edge">
<title>X1:p4r&#45;&#45;W1_w4l:w</title>
<path fill="none" stroke="#000000" stroke-width="2" d="M206,-15C269.43,-15 285.32,-14 349,-14"/>
<path fill="none" stroke="#8000ff" stroke-width="2" d="M206,-17C269.56,-17 285.44,-16 349,-16"/>
<path fill="none" stroke="#000000" stroke-width="2" d="M206,-19C269.68,-19 285.57,-18 349,-18"/>
<text text-anchor="middle" x="344.01" y="-20.97" font-family="arial" font-size="14.00"> &#160;&#160;&#160;&#160;&#160;&#160;&#160;&#160;&#160;&#160;&#160;X1:4</text>
</g>
<!-- X2 -->
<g id="node2" class="node">
<title>X2</title>
<polygon fill="white" stroke="black" points="639,-6 639,-144 845,-144 845,-6 639,-6"/>
<text text-anchor="middle" x="742" y="-128.8" font-family="arial" font-size="14.00">X2</text>
<polyline fill="none" stroke="black" points="639,-121 845,-121 "/>
<text text-anchor="middle" x="689.5" y="-105.8" font-family="arial" font-size="14.00">Molex KK 254</text>
<polyline fill="none" stroke="black" points="740,-98 740,-121 "/>
<text text-anchor="middle" x="769" y="-105.8" font-family="arial" font-size="14.00">female</text>
<polyline fill="none" stroke="black" points="798,-98 798,-121 "/>
<text text-anchor="middle" x="821.5" y="-105.8" font-family="arial" font-size="14.00">4&#45;pin</text>
<polyline fill="none" stroke="black" points="639,-98 845,-98 "/>
<text text-anchor="middle" x="669.5" y="-82.8" font-family="arial" font-size="14.00">1</text>
<polyline fill="none" stroke="black" points="639,-75 700,-75 "/>
<text text-anchor="middle" x="669.5" y="-59.8" font-family="arial" font-size="14.00">2</text>
<polyline fill="none" stroke="black" points="639,-52 700,-52 "/>
<text text-anchor="middle" x="669.5" y="-36.8" font-family="arial" font-size="14.00">3</text>
<polyline fill="none" stroke="black" points="639,-29 700,-29 "/>
<text text-anchor="middle" x="669.5" y="-13.8" font-family="arial" font-size="14.00">4</text>
<polyline fill="none" stroke="black" points="700,-6 700,-98 "/>
<text text-anchor="middle" x="742" y="-82.8" font-family="arial" font-size="14.00">GND</text>
<polyline fill="none" stroke="black" points="700,-75 784,-75 "/>
<text text-anchor="middle" x="742" y="-59.8" font-family="arial" font-size="14.00">VCC</text>
<polyline fill="none" stroke="black" points="700,-52 784,-52 "/>
<text text-anchor="middle" x="742" y="-36.8" font-family="arial" font-size="14.00">SCL</text>
<polyline fill="none" stroke="black" points="700,-29 784,-29 "/>
<text text-anchor="middle" x="742" y="-13.8" font-family="arial" font-size="14.00">SDA</text>
<polyline fill="none" stroke="black" points="784,-6 784,-98 "/>
<text text-anchor="middle" x="814.5" y="-82.8" font-family="arial" font-size="14.00">1</text>
<polyline fill="none" stroke="black" points="784,-75 845,-75 "/>
<text text-anchor="middle" x="814.5" y="-59.8" font-family="arial" font-size="14.00">2</text>
<polyline fill="none" stroke="black" points="784,-52 845,-52 "/>
<text text-anchor="middle" x="814.5" y="-36.8" font-family="arial" font-size="14.00">3</text>
<polyline fill="none" stroke="black" points="784,-29 845,-29 "/>
<text text-anchor="middle" x="814.5" y="-13.8" font-family="arial" font-size="14.00">4</text>
</g>
<!-- W2_w1l -->
<g id="node12" class="node">
<title>W2_w1l</title>
<ellipse fill="white" stroke="black" cx="989" cy="-88" rx="0" ry="0"/>
</g>
<!-- X2&#45;&#45;W2_w1l -->
<g id="edge14" class="edge">
<title>X2:p1r&#45;&#45;W2_w1l:w</title>
<path fill="none" stroke="#000000" stroke-width="2" d="M845,-85C908.68,-85 924.57,-86 988,-86"/>
<path fill="none" stroke="#ff66cc" stroke-width="2" d="M845,-87C908.56,-87 924.44,-88 988,-88"/>
<path fill="none" stroke="#000000" stroke-width="2" d="M845,-89C908.43,-89 924.32,-90 988,-90"/>
<text text-anchor="middle" x="982.99" y="-92.95" font-family="arial" font-size="14.00"> &#160;&#160;&#160;&#160;&#160;&#160;&#160;&#160;&#160;&#160;&#160;X2:1</text>
</g>
<!-- W2_w2l -->
<g id="node14" class="node">
<title>W2_w2l</title>
<ellipse fill="white" stroke="black" cx="989" cy="-64" rx="0" ry="0"/>
</g>
<!-- X2&#45;&#45;W2_w2l -->
<g id="edge17" class="edge">
<title>X2:p2r&#45;&#45;W2_w2l:w</title>
<path fill="none" stroke="#000000" stroke-width="2" d="M845,-61C908.68,-61 924.57,-62 988,-62"/>
<path fill="none" stroke="#00ffff" stroke-width="2" d="M845,-63C908.56,-63 924.44,-64 988,-64"/>
<path fill="none" stroke="#000000" stroke-width="2" d="M845,-65C908.43,-65 924.32,-66 988,-66"/>
<text text-anchor="middle" x="982.99" y="-68.95" font-family="arial" font-size="14.00"> &#160;&#160;&#160;&#160;&#160;&#160;&#160;&#160;&#160;&#160;&#160;X2:2</text>
</g>
<!-- W2_w3l -->
<g id="node16" class="node">
<title>W2_w3l</title>
<ellipse fill="white" stroke="black" cx="989" cy="-40" rx="0" ry="0"/>
</g>
<!-- X2&#45;&#45;W2_w3l -->
<g id="edge20" class="edge">
<title>X2:p3r&#45;&#45;W2_w3l:w</title>
<path fill="none" stroke="#000000" stroke-width="2" d="M845,-38C908.56,-38 924.44,-38 988,-38"/>
<path fill="none" stroke="#ffff00" stroke-width="2" d="M845,-40C908.56,-40 924.44,-40 988,-40"/>
<path fill="none" stroke="#000000" stroke-width="2" d="M845,-42C908.56,-42 924.44,-42 988,-42"/>
<text text-anchor="middle" x="983" y="-44.96" font-family="arial" font-size="14.00"> &#160;&#160;&#160;&#160;&#160;&#160;&#160;&#160;&#160;&#160;&#160;X2:3</text>
</g>
<!-- W2_w4l -->
<g id="node18" class="node">
<title>W2_w4l</title>
<ellipse fill="white" stroke="black" cx="989" cy="-16" rx="0" ry="0"/>
</g>
<!-- X2&#45;&#45;W2_w4l -->
<g id="edge23" class="edge">
<title>X2:p4r&#45;&#45;W2_w4l:w</title>
<path fill="none" stroke="#000000" stroke-width="2" d="M845,-15C908.43,-15 924.32,-14 988,-14"/>
<path fill="none" stroke="#8000ff" stroke-width="2" d="M845,-17C908.56,-17 924.44,-16 988,-16"/>
<path fill="none" stroke="#000000" stroke-width="2" d="M845,-19C908.68,-19 924.57,-18 988,-18"/>
<text text-anchor="middle" x="983.01" y="-20.97" font-family="arial" font-size="14.00"> &#160;&#160;&#160;&#160;&#160;&#160;&#160;&#160;&#160;&#160;&#160;X2:4</text>
</g>
<!-- X3 -->
<g id="node3" class="node">
<title>X3</title>
<polygon fill="white" stroke="black" points="1278,-6 1278,-144 1484,-144 1484,-6 1278,-6"/>
<text text-anchor="middle" x="1381" y="-128.8" font-family="arial" font-size="14.00">X3</text>
<polyline fill="none" stroke="black" points="1278,-121 1484,-121 "/>
<text text-anchor="middle" x="1328.5" y="-105.8" font-family="arial" font-size="14.00">Molex KK 254</text>
<polyline fill="none" stroke="black" points="1379,-98 1379,-121 "/>
<text text-anchor="middle" x="1408" y="-105.8" font-family="arial" font-size="14.00">female</text>
<polyline fill="none" stroke="black" points="1437,-98 1437,-121 "/>
<text text-anchor="middle" x="1460.5" y="-105.8" font-family="arial" font-size="14.00">4&#45;pin</text>
<polyline fill="none" stroke="black" points="1278,-98 1484,-98 "/>
<text text-anchor="middle" x="1323.5" y="-82.8" font-family="arial" font-size="14.00">1</text>
<polyline fill="none" stroke="black" points="1278,-75 1369,-75 "/>
<text text-anchor="middle" x="1323.5" y="-59.8" font-family="arial" font-size="14.00">2</text>
<polyline fill="none" stroke="black" points="1278,-52 1369,-52 "/>
<text text-anchor="middle" x="1323.5" y="-36.8" font-family="arial" font-size="14.00">3</text>
<polyline fill="none" stroke="black" points="1278,-29 1369,-29 "/>
<text text-anchor="middle" x="1323.5" y="-13.8" font-family="arial" font-size="14.00">4</text>
<polyline fill="none" stroke="black" points="1369,-6 1369,-98 "/>
<text text-anchor="middle" x="1426.5" y="-82.8" font-family="arial" font-size="14.00">GND</text>
<polyline fill="none" stroke="black" points="1369,-75 1484,-75 "/>
<text text-anchor="middle" x="1426.5" y="-59.8" font-family="arial" font-size="14.00">VCC</text>
<polyline fill="none" stroke="black" points="1369,-52 1484,-52 "/>
<text text-anchor="middle" x="1426.5" y="-36.8" font-family="arial" font-size="14.00">SCL</text>
<polyline fill="none" stroke="black" points="1369,-29 1484,-29 "/>
<text text-anchor="middle" x="1426.5" y="-13.8" font-family="arial" font-size="14.00">SDA</text>
</g>
<!-- W1_w1r -->
<g id="node5" class="node">
<title>W1_w1r</title>
<ellipse fill="white" stroke="black" cx="494" cy="-88" rx="0" ry="0"/>
</g>
<!-- W1_w1l&#45;&#45;W1_w1r -->
<g id="edge1" class="edge">
<title>W1_w1l&#45;&#45;W1_w1r</title>
<path fill="none" stroke="#000000" stroke-width="2" d="M351.1,-86C355.34,-86 488.73,-86 492.9,-86"/>
<path fill="none" stroke="#ff66cc" stroke-width="2" d="M351.1,-88C355.34,-88 488.73,-88 492.9,-88"/>
<path fill="none" stroke="#000000" stroke-width="2" d="M351.1,-90C355.34,-90 488.73,-90 492.9,-90"/>
<text text-anchor="middle" x="356.1" y="-92.96" font-family="arial" font-size="14.00"> &#160;&#160;&#160;&#160;&#160;&#160;&#160;&#160;&#160;&#160;&#160;&#160;&#160;&#160;&#160;&#160;&#160;&#160;&#160;&#160;&#160;&#160;&#160;&#160;&#160;&#160;&#160;&#160;&#160;&#160;&#160;&#160;&#160;&#160;PK</text>
</g>
<!-- W1_w1r&#45;&#45;X2 -->
<g id="edge3" class="edge">
<title>W1_w1r:e&#45;&#45;X2:p1l</title>
<path fill="none" stroke="#000000" stroke-width="2" d="M495,-86C558.88,-86 574.87,-85 639,-85"/>
<path fill="none" stroke="#ff66cc" stroke-width="2" d="M495,-88C559,-88 575,-87 639,-87"/>
<path fill="none" stroke="#000000" stroke-width="2" d="M495,-90C559.13,-90 575.12,-89 639,-89"/>
<text text-anchor="middle" x="500.01" y="-92.95" font-family="arial" font-size="14.00">X2:1 &#160;&#160;&#160;&#160;&#160;&#160;&#160;&#160;&#160;&#160;&#160;</text>
</g>
<!-- W1_w2r -->
<g id="node7" class="node">
<title>W1_w2r</title>
<ellipse fill="white" stroke="black" cx="494" cy="-64" rx="0" ry="0"/>
</g>
<!-- W1_w2l&#45;&#45;W1_w2r -->
<g id="edge4" class="edge">
<title>W1_w2l&#45;&#45;W1_w2r</title>
<path fill="none" stroke="#000000" stroke-width="2" d="M351.1,-62C355.34,-62 488.73,-62 492.9,-62"/>
<path fill="none" stroke="#00ffff" stroke-width="2" d="M351.1,-64C355.34,-64 488.73,-64 492.9,-64"/>
<path fill="none" stroke="#000000" stroke-width="2" d="M351.1,-66C355.34,-66 488.73,-66 492.9,-66"/>
<text text-anchor="middle" x="356.1" y="-68.96" font-family="arial" font-size="14.00"> &#160;&#160;&#160;&#160;&#160;&#160;&#160;&#160;&#160;&#160;&#160;&#160;&#160;&#160;&#160;&#160;&#160;&#160;&#160;&#160;&#160;&#160;&#160;&#160;&#160;&#160;&#160;&#160;&#160;&#160;&#160;&#160;&#160;&#160;TQ</text>
</g>
<!-- W1_w2r&#45;&#45;X2 -->
<g id="edge6" class="edge">
<title>W1_w2r:e&#45;&#45;X2:p2l</title>
<path fill="none" stroke="#000000" stroke-width="2" d="M495,-62C558.88,-62 574.87,-61 639,-61"/>
<path fill="none" stroke="#00ffff" stroke-width="2" d="M495,-64C559,-64 575,-63 639,-63"/>
<path fill="none" stroke="#000000" stroke-width="2" d="M495,-66C559.13,-66 575.12,-65 639,-65"/>
<text text-anchor="middle" x="500.01" y="-68.95" font-family="arial" font-size="14.00">X2:2 &#160;&#160;&#160;&#160;&#160;&#160;&#160;&#160;&#160;&#160;&#160;</text>
</g>
<!-- W1_w3r -->
<g id="node9" class="node">
<title>W1_w3r</title>
<ellipse fill="white" stroke="black" cx="494" cy="-40" rx="0" ry="0"/>
</g>
<!-- W1_w3l&#45;&#45;W1_w3r -->
<g id="edge7" class="edge">
<title>W1_w3l&#45;&#45;W1_w3r</title>
<path fill="none" stroke="#000000" stroke-width="2" d="M351.1,-38C355.34,-38 488.73,-38 492.9,-38"/>
<path fill="none" stroke="#ffff00" stroke-width="2" d="M351.1,-40C355.34,-40 488.73,-40 492.9,-40"/>
<path fill="none" stroke="#000000" stroke-width="2" d="M351.1,-42C355.34,-42 488.73,-42 492.9,-42"/>
<text text-anchor="middle" x="356.1" y="-44.96" font-family="arial" font-size="14.00"> &#160;&#160;&#160;&#160;&#160;&#160;&#160;&#160;&#160;&#160;&#160;&#160;&#160;&#160;&#160;&#160;&#160;&#160;&#160;&#160;&#160;&#160;&#160;&#160;&#160;&#160;&#160;&#160;&#160;&#160;&#160;&#160;&#160;&#160;YE</text>
</g>
<!-- W1_w3r&#45;&#45;X2 -->
<g id="edge9" class="edge">
<title>W1_w3r:e&#45;&#45;X2:p3l</title>
<path fill="none" stroke="#000000" stroke-width="2" d="M495,-38C559,-38 575,-38 639,-38"/>
<path fill="none" stroke="#ffff00" stroke-width="2" d="M495,-40C559,-40 575,-40 639,-40"/>
<path fill="none" stroke="#000000" stroke-width="2" d="M495,-42C559,-42 575,-42 639,-42"/>
<text text-anchor="middle" x="500" y="-44.96" font-family="arial" font-size="14.00">X2:3 &#160;&#160;&#160;&#160;&#160;&#160;&#160;&#160;&#160;&#160;&#160;</text>
</g>
<!-- W1_w4r -->
<g id="node11" class="node">
<title>W1_w4r</title>
<ellipse fill="white" stroke="black" cx="494" cy="-16" rx="0" ry="0"/>
</g>
<!-- W1_w4l&#45;&#45;W1_w4r -->
<g id="edge10" class="edge">
<title>W1_w4l&#45;&#45;W1_w4r</title>
<path fill="none" stroke="#000000" stroke-width="2" d="M351.1,-14C355.34,-14 488.73,-14 492.9,-14"/>
<path fill="none" stroke="#8000ff" stroke-width="2" d="M351.1,-16C355.34,-16 488.73,-16 492.9,-16"/>
<path fill="none" stroke="#000000" stroke-width="2" d="M351.1,-18C355.34,-18 488.73,-18 492.9,-18"/>
<text text-anchor="middle" x="356.1" y="-20.96" font-family="arial" font-size="14.00"> &#160;&#160;&#160;&#160;&#160;&#160;&#160;&#160;&#160;&#160;&#160;&#160;&#160;&#160;&#160;&#160;&#160;&#160;&#160;&#160;&#160;&#160;&#160;&#160;&#160;&#160;&#160;&#160;&#160;&#160;&#160;&#160;&#160;&#160;VT</text>
</g>
<!-- W1_w4r&#45;&#45;X2 -->
<g id="edge12" class="edge">
<title>W1_w4r:e&#45;&#45;X2:p4l</title>
<path fill="none" stroke="#000000" stroke-width="2" d="M495,-14C559.13,-14 575.12,-15 639,-15"/>
<path fill="none" stroke="#8000ff" stroke-width="2" d="M495,-16C559,-16 575,-17 639,-17"/>
<path fill="none" stroke="#000000" stroke-width="2" d="M495,-18C558.88,-18 574.87,-19 639,-19"/>
<text text-anchor="middle" x="499.99" y="-20.97" font-family="arial" font-size="14.00">X2:4 &#160;&#160;&#160;&#160;&#160;&#160;&#160;&#160;&#160;&#160;&#160;</text>
</g>
<!-- W2_w1r -->
<g id="node13" class="node">
<title>W2_w1r</title>
<ellipse fill="white" stroke="black" cx="1133" cy="-88" rx="0" ry="0"/>
</g>
<!-- W2_w1l&#45;&#45;W2_w1r -->
<g id="edge13" class="edge">
<title>W2_w1l&#45;&#45;W2_w1r</title>
<path fill="none" stroke="#000000" stroke-width="2" d="M990.1,-86C994.34,-86 1127.73,-86 1131.9,-86"/>
<path fill="none" stroke="#ff66cc" stroke-width="2" d="M990.1,-88C994.34,-88 1127.73,-88 1131.9,-88"/>
<path fill="none" stroke="#000000" stroke-width="2" d="M990.1,-90C994.34,-90 1127.73,-90 1131.9,-90"/>
<text text-anchor="middle" x="995.1" y="-92.96" font-family="arial" font-size="14.00"> &#160;&#160;&#160;&#160;&#160;&#160;&#160;&#160;&#160;&#160;&#160;&#160;&#160;&#160;&#160;&#160;&#160;&#160;&#160;&#160;&#160;&#160;&#160;&#160;&#160;&#160;&#160;&#160;&#160;&#160;&#160;&#160;&#160;&#160;PK</text>
</g>
<!-- W2_w1r&#45;&#45;X3 -->
<g id="edge15" class="edge">
<title>W2_w1r:e&#45;&#45;X3:p1l</title>
<path fill="none" stroke="#000000" stroke-width="2" d="M1134,-86C1197.88,-86 1213.87,-85 1278,-85"/>
<path fill="none" stroke="#ff66cc" stroke-width="2" d="M1134,-88C1198,-88 1214,-87 1278,-87"/>
<path fill="none" stroke="#000000" stroke-width="2" d="M1134,-90C1198.13,-90 1214.12,-89 1278,-89"/>
<text text-anchor="middle" x="1139.01" y="-92.95" font-family="arial" font-size="14.00">X3:1 &#160;&#160;&#160;&#160;&#160;&#160;&#160;&#160;&#160;&#160;&#160;</text>
</g>
<!-- W2_w2r -->
<g id="node15" class="node">
<title>W2_w2r</title>
<ellipse fill="white" stroke="black" cx="1133" cy="-64" rx="0" ry="0"/>
</g>
<!-- W2_w2l&#45;&#45;W2_w2r -->
<g id="edge16" class="edge">
<title>W2_w2l&#45;&#45;W2_w2r</title>
<path fill="none" stroke="#000000" stroke-width="2" d="M990.1,-62C994.34,-62 1127.73,-62 1131.9,-62"/>
<path fill="none" stroke="#00ffff" stroke-width="2" d="M990.1,-64C994.34,-64 1127.73,-64 1131.9,-64"/>
<path fill="none" stroke="#000000" stroke-width="2" d="M990.1,-66C994.34,-66 1127.73,-66 1131.9,-66"/>
<text text-anchor="middle" x="995.1" y="-68.96" font-family="arial" font-size="14.00"> &#160;&#160;&#160;&#160;&#160;&#160;&#160;&#160;&#160;&#160;&#160;&#160;&#160;&#160;&#160;&#160;&#160;&#160;&#160;&#160;&#160;&#160;&#160;&#160;&#160;&#160;&#160;&#160;&#160;&#160;&#160;&#160;&#160;&#160;TQ</text>
</g>
<!-- W2_w2r&#45;&#45;X3 -->
<g id="edge18" class="edge">
<title>W2_w2r:e&#45;&#45;X3:p2l</title>
<path fill="none" stroke="#000000" stroke-width="2" d="M1134,-62C1197.88,-62 1213.87,-61 1278,-61"/>
<path fill="none" stroke="#00ffff" stroke-width="2" d="M1134,-64C1198,-64 1214,-63 1278,-63"/>
<path fill="none" stroke="#000000" stroke-width="2" d="M1134,-66C1198.13,-66 1214.12,-65 1278,-65"/>
<text text-anchor="middle" x="1139.01" y="-68.95" font-family="arial" font-size="14.00">X3:2 &#160;&#160;&#160;&#160;&#160;&#160;&#160;&#160;&#160;&#160;&#160;</text>
</g>
<!-- W2_w3r -->
<g id="node17" class="node">
<title>W2_w3r</title>
<ellipse fill="white" stroke="black" cx="1133" cy="-40" rx="0" ry="0"/>
</g>
<!-- W2_w3l&#45;&#45;W2_w3r -->
<g id="edge19" class="edge">
<title>W2_w3l&#45;&#45;W2_w3r</title>
<path fill="none" stroke="#000000" stroke-width="2" d="M990.1,-38C994.34,-38 1127.73,-38 1131.9,-38"/>
<path fill="none" stroke="#ffff00" stroke-width="2" d="M990.1,-40C994.34,-40 1127.73,-40 1131.9,-40"/>
<path fill="none" stroke="#000000" stroke-width="2" d="M990.1,-42C994.34,-42 1127.73,-42 1131.9,-42"/>
<text text-anchor="middle" x="995.1" y="-44.96" font-family="arial" font-size="14.00"> &#160;&#160;&#160;&#160;&#160;&#160;&#160;&#160;&#160;&#160;&#160;&#160;&#160;&#160;&#160;&#160;&#160;&#160;&#160;&#160;&#160;&#160;&#160;&#160;&#160;&#160;&#160;&#160;&#160;&#160;&#160;&#160;&#160;&#160;YE</text>
</g>
<!-- W2_w3r&#45;&#45;X3 -->
<g id="edge21" class="edge">
<title>W2_w3r:e&#45;&#45;X3:p3l</title>
<path fill="none" stroke="#000000" stroke-width="2" d="M1134,-38C1198,-38 1214,-38 1278,-38"/>
<path fill="none" stroke="#ffff00" stroke-width="2" d="M1134,-40C1198,-40 1214,-40 1278,-40"/>
<path fill="none" stroke="#000000" stroke-width="2" d="M1134,-42C1198,-42 1214,-42 1278,-42"/>
<text text-anchor="middle" x="1139" y="-44.96" font-family="arial" font-size="14.00">X3:3 &#160;&#160;&#160;&#160;&#160;&#160;&#160;&#160;&#160;&#160;&#160;</text>
</g>
<!-- W2_w4r -->
<g id="node19" class="node">
<title>W2_w4r</title>
<ellipse fill="white" stroke="black" cx="1133" cy="-16" rx="0" ry="0"/>
</g>
<!-- W2_w4l&#45;&#45;W2_w4r -->
<g id="edge22" class="edge">
<title>W2_w4l&#45;&#45;W2_w4r</title>
<path fill="none" stroke="#000000" stroke-width="2" d="M990.1,-14C994.34,-14 1127.73,-14 1131.9,-14"/>
<path fill="none" stroke="#8000ff" stroke-width="2" d="M990.1,-16C994.34,-16 1127.73,-16 1131.9,-16"/>
<path fill="none" stroke="#000000" stroke-width="2" d="M990.1,-18C994.34,-18 1127.73,-18 1131.9,-18"/>
<text text-anchor="middle" x="995.1" y="-20.96" font-family="arial" font-size="14.00"> &#160;&#160;&#160;&#160;&#160;&#160;&#160;&#160;&#160;&#160;&#160;&#160;&#160;&#160;&#160;&#160;&#160;&#160;&#160;&#160;&#160;&#160;&#160;&#160;&#160;&#160;&#160;&#160;&#160;&#160;&#160;&#160;&#160;&#160;VT</text>
</g>
<!-- W2_w4r&#45;&#45;X3 -->
<g id="edge24" class="edge">
<title>W2_w4r:e&#45;&#45;X3:p4l</title>
<path fill="none" stroke="#000000" stroke-width="2" d="M1134,-14C1198.13,-14 1214.12,-15 1278,-15"/>
<path fill="none" stroke="#8000ff" stroke-width="2" d="M1134,-16C1198,-16 1214,-17 1278,-17"/>
<path fill="none" stroke="#000000" stroke-width="2" d="M1134,-18C1197.88,-18 1213.87,-19 1278,-19"/>
<text text-anchor="middle" x="1138.99" y="-20.97" font-family="arial" font-size="14.00">X3:4 &#160;&#160;&#160;&#160;&#160;&#160;&#160;&#160;&#160;&#160;&#160;</text>
</g>
</g>
</svg>
