<?xml version="1.0" encoding="UTF-8" standalone="no"?>
<!DOCTYPE svg PUBLIC "-//W3C//DTD SVG 1.1//EN"
 "http://www.w3.org/Graphics/SVG/1.1/DTD/svg11.dtd">
<!-- Generated by graphviz version 2.44.0 (0)
 -->
<!-- Pages: 1 -->
<svg width="906pt" height="1004pt"
 viewBox="0.00 0.00 906.00 1004.00" xmlns="http://www.w3.org/2000/svg" xmlns:xlink="http://www.w3.org/1999/xlink">
<g id="graph0" class="graph" transform="scale(1 1) rotate(0) translate(4 1000)">
<polygon fill="white" stroke="transparent" points="-4,4 -4,-1000 902,-1000 902,4 -4,4"/>
<!-- X1 -->
<g id="node1" class="node">
<title>X1</title>
<polygon fill="white" stroke="black" points="0,-830 0,-968 206,-968 206,-830 0,-830"/>
<text text-anchor="middle" x="103" y="-952.8" font-family="arial" font-size="14.00">X1</text>
<polyline fill="none" stroke="black" points="0,-945 206,-945 "/>
<text text-anchor="middle" x="50.5" y="-929.8" font-family="arial" font-size="14.00">Molex KK 254</text>
<polyline fill="none" stroke="black" points="101,-922 101,-945 "/>
<text text-anchor="middle" x="130" y="-929.8" font-family="arial" font-size="14.00">female</text>
<polyline fill="none" stroke="black" points="159,-922 159,-945 "/>
<text text-anchor="middle" x="182.5" y="-929.8" font-family="arial" font-size="14.00">4&#45;pin</text>
<polyline fill="none" stroke="black" points="0,-922 206,-922 "/>
<text text-anchor="middle" x="57" y="-906.8" font-family="arial" font-size="14.00">GND</text>
<polyline fill="none" stroke="black" points="0,-899 114,-899 "/>
<text text-anchor="middle" x="57" y="-883.8" font-family="arial" font-size="14.00">VCC</text>
<polyline fill="none" stroke="black" points="0,-876 114,-876 "/>
<text text-anchor="middle" x="57" y="-860.8" font-family="arial" font-size="14.00">SCL</text>
<polyline fill="none" stroke="black" points="0,-853 114,-853 "/>
<text text-anchor="middle" x="57" y="-837.8" font-family="arial" font-size="14.00">SDA</text>
<polyline fill="none" stroke="black" points="114,-830 114,-922 "/>
<text text-anchor="middle" x="160" y="-906.8" font-family="arial" font-size="14.00">1</text>
<polyline fill="none" stroke="black" points="114,-899 206,-899 "/>
<text text-anchor="middle" x="160" y="-883.8" font-family="arial" font-size="14.00">2</text>
<polyline fill="none" stroke="black" points="114,-876 206,-876 "/>
<text text-anchor="middle" x="160" y="-860.8" font-family="arial" font-size="14.00">3</text>
<polyline fill="none" stroke="black" points="114,-853 206,-853 "/>
<text text-anchor="middle" x="160" y="-837.8" font-family="arial" font-size="14.00">4</text>
</g>
<!-- W1 -->
<g id="node7" class="node">
<title>W1</title>
<polygon fill="white" stroke="black" stroke-dasharray="5,2" points="548,-996 350,-996 350,-816 548,-816 548,-996"/>
<polygon fill="none" stroke="black" points="350,-973 350,-996 548,-996 548,-973 350,-973"/>
<text text-anchor="start" x="438" y="-980.8" font-family="arial" font-size="14.00">W1</text>
<polygon fill="none" stroke="black" points="350,-950 350,-973 373,-973 373,-950 350,-950"/>
<text text-anchor="start" x="354" y="-957.8" font-family="arial" font-size="14.00">4x</text>
<polygon fill="none" stroke="black" points="373,-950 373,-973 505,-973 505,-950 373,-950"/>
<text text-anchor="start" x="377" y="-957.8" font-family="arial" font-size="14.00">0.25 mm² (24 AWG)</text>
<polygon fill="none" stroke="black" points="505,-950 505,-973 548,-973 548,-950 505,-950"/>
<text text-anchor="start" x="509" y="-957.8" font-family="arial" font-size="14.00">0.2 m</text>
<text text-anchor="start" x="447" y="-938.8" font-family="arial" font-size="14.00"> </text>
<text text-anchor="start" x="370.5" y="-921.8" font-family="arial" font-size="14.00">X1:1</text>
<text text-anchor="start" x="440" y="-921.8" font-family="arial" font-size="14.00">PK</text>
<text text-anchor="start" x="500" y="-921.8" font-family="arial" font-size="14.00">X2:1</text>
<polygon fill="#ff66cc" stroke="transparent" points="350,-910 350,-916 548,-916 548,-910 350,-910"/>
<polyline fill="none" stroke="black" stroke-width="2" points="351,-911 547,-911 "/>
<polyline fill="none" stroke="black" stroke-width="2" points="547,-915 351,-915 "/>
<text text-anchor="start" x="370.5" y="-896.8" font-family="arial" font-size="14.00">X1:2</text>
<text text-anchor="start" x="439.5" y="-896.8" font-family="arial" font-size="14.00">TQ</text>
<text text-anchor="start" x="500" y="-896.8" font-family="arial" font-size="14.00">X2:2</text>
<polygon fill="#00ffff" stroke="transparent" stroke-width="2" points="350,-885 350,-891 548,-891 548,-885 350,-885"/>
<polyline fill="none" stroke="black" stroke-width="2" points="351,-886 547,-886 "/>
<polyline fill="none" stroke="black" stroke-width="2" points="547,-890 351,-890 "/>
<text text-anchor="start" x="370.5" y="-871.8" font-family="arial" font-size="14.00">X1:3</text>
<text text-anchor="start" x="440" y="-871.8" font-family="arial" font-size="14.00">YE</text>
<text text-anchor="start" x="500" y="-871.8" font-family="arial" font-size="14.00">X2:3</text>
<polygon fill="#ffff00" stroke="transparent" stroke-width="2" points="350,-860 350,-866 548,-866 548,-860 350,-860"/>
<polyline fill="none" stroke="black" stroke-width="2" points="351,-861 547,-861 "/>
<polyline fill="none" stroke="black" stroke-width="2" points="547,-865 351,-865 "/>
<text text-anchor="start" x="370.5" y="-846.8" font-family="arial" font-size="14.00">X1:4</text>
<text text-anchor="start" x="440.5" y="-846.8" font-family="arial" font-size="14.00">VT</text>
<text text-anchor="start" x="500" y="-846.8" font-family="arial" font-size="14.00">X2:4</text>
<polygon fill="#8000ff" stroke="transparent" stroke-width="2" points="350,-835 350,-841 548,-841 548,-835 350,-835"/>
<polyline fill="none" stroke="black" stroke-width="2" points="351,-836 547,-836 "/>
<polyline fill="none" stroke="black" stroke-width="2" points="547,-840 351,-840 "/>
<text text-anchor="start" x="382.5" y="-821.8" font-family="arial" font-size="14.00"> </text>
</g>
<!-- X1&#45;&#45;W1 -->
<g id="edge1" class="edge">
<title>X1:e&#45;&#45;W1:w</title>
<path fill="none" stroke="#000000" stroke-width="2" d="M206,-909C270.25,-909.02 286.24,-911.02 350,-911"/>
<path fill="none" stroke="#ff66cc" stroke-width="2" d="M206,-911C270.01,-911 285.99,-913 350,-913"/>
<path fill="none" stroke="#000000" stroke-width="2" d="M206,-913C269.76,-912.98 285.75,-914.98 350,-915"/>
</g>
<!-- X1&#45;&#45;W1 -->
<g id="edge3" class="edge">
<title>X1:e&#45;&#45;W1:w</title>
<path fill="none" stroke="#000000" stroke-width="2" d="M206,-885C270.13,-885 286.12,-886 350,-886"/>
<path fill="none" stroke="#00ffff" stroke-width="2" d="M206,-887C270,-887 286,-888 350,-888"/>
<path fill="none" stroke="#000000" stroke-width="2" d="M206,-889C269.88,-889 285.87,-890 350,-890"/>
</g>
<!-- X1&#45;&#45;W1 -->
<g id="edge5" class="edge">
<title>X1:e&#45;&#45;W1:w</title>
<path fill="none" stroke="#000000" stroke-width="2" d="M206,-862C269.88,-862 285.87,-861 350,-861"/>
<path fill="none" stroke="#ffff00" stroke-width="2" d="M206,-864C270,-864 286,-863 350,-863"/>
<path fill="none" stroke="#000000" stroke-width="2" d="M206,-866C270.13,-866 286.12,-865 350,-865"/>
</g>
<!-- X1&#45;&#45;W1 -->
<g id="edge7" class="edge">
<title>X1:e&#45;&#45;W1:w</title>
<path fill="none" stroke="#000000" stroke-width="2" d="M206,-839C269.64,-839.03 285.62,-836.03 350,-836"/>
<path fill="none" stroke="#8000ff" stroke-width="2" d="M206,-841C270.01,-841 285.99,-838 350,-838"/>
<path fill="none" stroke="#000000" stroke-width="2" d="M206,-843C270.38,-842.97 286.36,-839.97 350,-840"/>
</g>
<!-- X2 -->
<g id="node2" class="node">
<title>X2</title>
<polygon fill="white" stroke="black" points="692,-727 692,-865 898,-865 898,-727 692,-727"/>
<text text-anchor="middle" x="795" y="-849.8" font-family="arial" font-size="14.00">X2</text>
<polyline fill="none" stroke="black" points="692,-842 898,-842 "/>
<text text-anchor="middle" x="742.5" y="-826.8" font-family="arial" font-size="14.00">Molex KK 254</text>
<polyline fill="none" stroke="black" points="793,-819 793,-842 "/>
<text text-anchor="middle" x="822" y="-826.8" font-family="arial" font-size="14.00">female</text>
<polyline fill="none" stroke="black" points="851,-819 851,-842 "/>
<text text-anchor="middle" x="874.5" y="-826.8" font-family="arial" font-size="14.00">4&#45;pin</text>
<polyline fill="none" stroke="black" points="692,-819 898,-819 "/>
<text text-anchor="middle" x="737.5" y="-803.8" font-family="arial" font-size="14.00">1</text>
<polyline fill="none" stroke="black" points="692,-796 783,-796 "/>
<text text-anchor="middle" x="737.5" y="-780.8" font-family="arial" font-size="14.00">2</text>
<polyline fill="none" stroke="black" points="692,-773 783,-773 "/>
<text text-anchor="middle" x="737.5" y="-757.8" font-family="arial" font-size="14.00">3</text>
<polyline fill="none" stroke="black" points="692,-750 783,-750 "/>
<text text-anchor="middle" x="737.5" y="-734.8" font-family="arial" font-size="14.00">4</text>
<polyline fill="none" stroke="black" points="783,-727 783,-819 "/>
<text text-anchor="middle" x="840.5" y="-803.8" font-family="arial" font-size="14.00">GND</text>
<polyline fill="none" stroke="black" points="783,-796 898,-796 "/>
<text text-anchor="middle" x="840.5" y="-780.8" font-family="arial" font-size="14.00">VCC</text>
<polyline fill="none" stroke="black" points="783,-773 898,-773 "/>
<text text-anchor="middle" x="840.5" y="-757.8" font-family="arial" font-size="14.00">SCL</text>
<polyline fill="none" stroke="black" points="783,-750 898,-750 "/>
<text text-anchor="middle" x="840.5" y="-734.8" font-family="arial" font-size="14.00">SDA</text>
</g>
<!-- X3 -->
<g id="node3" class="node">
<title>X3</title>
<polygon fill="white" stroke="black" points="0,-524 0,-662 206,-662 206,-524 0,-524"/>
<text text-anchor="middle" x="103" y="-646.8" font-family="arial" font-size="14.00">X3</text>
<polyline fill="none" stroke="black" points="0,-639 206,-639 "/>
<text text-anchor="middle" x="50.5" y="-623.8" font-family="arial" font-size="14.00">Molex KK 254</text>
<polyline fill="none" stroke="black" points="101,-616 101,-639 "/>
<text text-anchor="middle" x="130" y="-623.8" font-family="arial" font-size="14.00">female</text>
<polyline fill="none" stroke="black" points="159,-616 159,-639 "/>
<text text-anchor="middle" x="182.5" y="-623.8" font-family="arial" font-size="14.00">4&#45;pin</text>
<polyline fill="none" stroke="black" points="0,-616 206,-616 "/>
<text text-anchor="middle" x="57" y="-600.8" font-family="arial" font-size="14.00">GND</text>
<polyline fill="none" stroke="black" points="0,-593 114,-593 "/>
<text text-anchor="middle" x="57" y="-577.8" font-family="arial" font-size="14.00">VCC</text>
<polyline fill="none" stroke="black" points="0,-570 114,-570 "/>
<text text-anchor="middle" x="57" y="-554.8" font-family="arial" font-size="14.00">SCL</text>
<polyline fill="none" stroke="black" points="0,-547 114,-547 "/>
<text text-anchor="middle" x="57" y="-531.8" font-family="arial" font-size="14.00">SDA</text>
<polyline fill="none" stroke="black" points="114,-524 114,-616 "/>
<text text-anchor="middle" x="160" y="-600.8" font-family="arial" font-size="14.00">1</text>
<polyline fill="none" stroke="black" points="114,-593 206,-593 "/>
<text text-anchor="middle" x="160" y="-577.8" font-family="arial" font-size="14.00">2</text>
<polyline fill="none" stroke="black" points="114,-570 206,-570 "/>
<text text-anchor="middle" x="160" y="-554.8" font-family="arial" font-size="14.00">3</text>
<polyline fill="none" stroke="black" points="114,-547 206,-547 "/>
<text text-anchor="middle" x="160" y="-531.8" font-family="arial" font-size="14.00">4</text>
</g>
<!-- W2 -->
<g id="node8" class="node">
<title>W2</title>
<polygon fill="white" stroke="black" stroke-dasharray="5,2" points="548,-792 350,-792 350,-612 548,-612 548,-792"/>
<polygon fill="none" stroke="black" points="350,-769 350,-792 548,-792 548,-769 350,-769"/>
<text text-anchor="start" x="438" y="-776.8" font-family="arial" font-size="14.00">W2</text>
<polygon fill="none" stroke="black" points="350,-746 350,-769 373,-769 373,-746 350,-746"/>
<text text-anchor="start" x="354" y="-753.8" font-family="arial" font-size="14.00">4x</text>
<polygon fill="none" stroke="black" points="373,-746 373,-769 505,-769 505,-746 373,-746"/>
<text text-anchor="start" x="377" y="-753.8" font-family="arial" font-size="14.00">0.25 mm² (24 AWG)</text>
<polygon fill="none" stroke="black" points="505,-746 505,-769 548,-769 548,-746 505,-746"/>
<text text-anchor="start" x="509" y="-753.8" font-family="arial" font-size="14.00">0.2 m</text>
<text text-anchor="start" x="447" y="-734.8" font-family="arial" font-size="14.00"> </text>
<text text-anchor="start" x="370.5" y="-717.8" font-family="arial" font-size="14.00">X3:1</text>
<text text-anchor="start" x="440" y="-717.8" font-family="arial" font-size="14.00">PK</text>
<text text-anchor="start" x="500" y="-717.8" font-family="arial" font-size="14.00">X2:1</text>
<polygon fill="#ff66cc" stroke="transparent" points="350,-706 350,-712 548,-712 548,-706 350,-706"/>
<polyline fill="none" stroke="black" stroke-width="2" points="351,-707 547,-707 "/>
<polyline fill="none" stroke="black" stroke-width="2" points="547,-711 351,-711 "/>
<text text-anchor="start" x="370.5" y="-692.8" font-family="arial" font-size="14.00">X3:2</text>
<text text-anchor="start" x="439.5" y="-692.8" font-family="arial" font-size="14.00">TQ</text>
<text text-anchor="start" x="500" y="-692.8" font-family="arial" font-size="14.00">X2:2</text>
<polygon fill="#00ffff" stroke="transparent" stroke-width="2" points="350,-681 350,-687 548,-687 548,-681 350,-681"/>
<polyline fill="none" stroke="black" stroke-width="2" points="351,-682 547,-682 "/>
<polyline fill="none" stroke="black" stroke-width="2" points="547,-686 351,-686 "/>
<text text-anchor="start" x="370.5" y="-667.8" font-family="arial" font-size="14.00">X3:3</text>
<text text-anchor="start" x="440" y="-667.8" font-family="arial" font-size="14.00">YE</text>
<text text-anchor="start" x="500" y="-667.8" font-family="arial" font-size="14.00">X2:3</text>
<polygon fill="#ffff00" stroke="transparent" stroke-width="2" points="350,-656 350,-662 548,-662 548,-656 350,-656"/>
<polyline fill="none" stroke="black" stroke-width="2" points="351,-657 547,-657 "/>
<polyline fill="none" stroke="black" stroke-width="2" points="547,-661 351,-661 "/>
<text text-anchor="start" x="370.5" y="-642.8" font-family="arial" font-size="14.00">X3:4</text>
<text text-anchor="start" x="440.5" y="-642.8" font-family="arial" font-size="14.00">VT</text>
<text text-anchor="start" x="500" y="-642.8" font-family="arial" font-size="14.00">X2:4</text>
<polygon fill="#8000ff" stroke="transparent" stroke-width="2" points="350,-631 350,-637 548,-637 548,-631 350,-631"/>
<polyline fill="none" stroke="black" stroke-width="2" points="351,-632 547,-632 "/>
<polyline fill="none" stroke="black" stroke-width="2" points="547,-636 351,-636 "/>
<text text-anchor="start" x="382.5" y="-617.8" font-family="arial" font-size="14.00"> </text>
</g>
<!-- X3&#45;&#45;W2 -->
<g id="edge9" class="edge">
<title>X3:e&#45;&#45;W2:w</title>
<path fill="none" stroke="#000000" stroke-width="2" d="M206,-603C286.93,-605.26 273.04,-709.26 350,-707"/>
<path fill="none" stroke="#ff66cc" stroke-width="2" d="M206,-605C284.95,-605 271.05,-709 350,-709"/>
<path fill="none" stroke="#000000" stroke-width="2" d="M206,-607C282.96,-604.74 269.07,-708.74 350,-711"/>
</g>
<!-- X3&#45;&#45;W2 -->
<g id="edge11" class="edge">
<title>X3:e&#45;&#45;W2:w</title>
<path fill="none" stroke="#000000" stroke-width="2" d="M206,-579C286.67,-581.26 273.3,-684.26 350,-682"/>
<path fill="none" stroke="#00ffff" stroke-width="2" d="M206,-581C284.69,-581 271.31,-684 350,-684"/>
<path fill="none" stroke="#000000" stroke-width="2" d="M206,-583C282.7,-580.74 269.33,-683.74 350,-686"/>
</g>
<!-- X3&#45;&#45;W2 -->
<g id="edge13" class="edge">
<title>X3:e&#45;&#45;W2:w</title>
<path fill="none" stroke="#000000" stroke-width="2" d="M206,-556C286.16,-558.24 273.81,-659.24 350,-657"/>
<path fill="none" stroke="#ffff00" stroke-width="2" d="M206,-558C284.17,-558 271.83,-659 350,-659"/>
<path fill="none" stroke="#000000" stroke-width="2" d="M206,-560C282.19,-557.76 269.84,-658.76 350,-661"/>
</g>
<!-- X3&#45;&#45;W2 -->
<g id="edge15" class="edge">
<title>X3:e&#45;&#45;W2:w</title>
<path fill="none" stroke="#000000" stroke-width="2" d="M206,-533C285.65,-535.23 274.32,-634.23 350,-632"/>
<path fill="none" stroke="#8000ff" stroke-width="2" d="M206,-535C283.67,-535 272.33,-634 350,-634"/>
<path fill="none" stroke="#000000" stroke-width="2" d="M206,-537C281.68,-534.77 270.35,-633.77 350,-636"/>
</g>
<!-- W3 -->
<g id="node9" class="node">
<title>W3</title>
<polygon fill="white" stroke="black" stroke-dasharray="5,2" points="548,-588 350,-588 350,-408 548,-408 548,-588"/>
<polygon fill="none" stroke="black" points="350,-565 350,-588 548,-588 548,-565 350,-565"/>
<text text-anchor="start" x="438" y="-572.8" font-family="arial" font-size="14.00">W3</text>
<polygon fill="none" stroke="black" points="350,-542 350,-565 373,-565 373,-542 350,-542"/>
<text text-anchor="start" x="354" y="-549.8" font-family="arial" font-size="14.00">4x</text>
<polygon fill="none" stroke="black" points="373,-542 373,-565 505,-565 505,-542 373,-542"/>
<text text-anchor="start" x="377" y="-549.8" font-family="arial" font-size="14.00">0.25 mm² (24 AWG)</text>
<polygon fill="none" stroke="black" points="505,-542 505,-565 548,-565 548,-542 505,-542"/>
<text text-anchor="start" x="509" y="-549.8" font-family="arial" font-size="14.00">0.2 m</text>
<text text-anchor="start" x="447" y="-530.8" font-family="arial" font-size="14.00"> </text>
<text text-anchor="start" x="370.5" y="-513.8" font-family="arial" font-size="14.00">X3:1</text>
<text text-anchor="start" x="440" y="-513.8" font-family="arial" font-size="14.00">PK</text>
<text text-anchor="start" x="500" y="-513.8" font-family="arial" font-size="14.00">X4:1</text>
<polygon fill="#ff66cc" stroke="transparent" points="350,-502 350,-508 548,-508 548,-502 350,-502"/>
<polyline fill="none" stroke="black" stroke-width="2" points="351,-503 547,-503 "/>
<polyline fill="none" stroke="black" stroke-width="2" points="547,-507 351,-507 "/>
<text text-anchor="start" x="370.5" y="-488.8" font-family="arial" font-size="14.00">X3:2</text>
<text text-anchor="start" x="439.5" y="-488.8" font-family="arial" font-size="14.00">TQ</text>
<text text-anchor="start" x="500" y="-488.8" font-family="arial" font-size="14.00">X4:2</text>
<polygon fill="#00ffff" stroke="transparent" stroke-width="2" points="350,-477 350,-483 548,-483 548,-477 350,-477"/>
<polyline fill="none" stroke="black" stroke-width="2" points="351,-478 547,-478 "/>
<polyline fill="none" stroke="black" stroke-width="2" points="547,-482 351,-482 "/>
<text text-anchor="start" x="370.5" y="-463.8" font-family="arial" font-size="14.00">X3:3</text>
<text text-anchor="start" x="440" y="-463.8" font-family="arial" font-size="14.00">YE</text>
<text text-anchor="start" x="500" y="-463.8" font-family="arial" font-size="14.00">X4:3</text>
<polygon fill="#ffff00" stroke="transparent" stroke-width="2" points="350,-452 350,-458 548,-458 548,-452 350,-452"/>
<polyline fill="none" stroke="black" stroke-width="2" points="351,-453 547,-453 "/>
<polyline fill="none" stroke="black" stroke-width="2" points="547,-457 351,-457 "/>
<text text-anchor="start" x="370.5" y="-438.8" font-family="arial" font-size="14.00">X3:4</text>
<text text-anchor="start" x="440.5" y="-438.8" font-family="arial" font-size="14.00">VT</text>
<text text-anchor="start" x="500" y="-438.8" font-family="arial" font-size="14.00">X4:4</text>
<polygon fill="#8000ff" stroke="transparent" stroke-width="2" points="350,-427 350,-433 548,-433 548,-427 350,-427"/>
<polyline fill="none" stroke="black" stroke-width="2" points="351,-428 547,-428 "/>
<polyline fill="none" stroke="black" stroke-width="2" points="547,-432 351,-432 "/>
<text text-anchor="start" x="382.5" y="-413.8" font-family="arial" font-size="14.00"> </text>
</g>
<!-- X3&#45;&#45;W3 -->
<g id="edge17" class="edge">
<title>X3:e&#45;&#45;W3:w</title>
<path fill="none" stroke="#000000" stroke-width="2" d="M206,-603C281.93,-605.24 270.1,-505.24 350,-503"/>
<path fill="none" stroke="#ff66cc" stroke-width="2" d="M206,-605C283.92,-605 272.08,-505 350,-505"/>
<path fill="none" stroke="#000000" stroke-width="2" d="M206,-607C285.9,-604.76 274.07,-504.76 350,-507"/>
</g>
<!-- X3&#45;&#45;W3 -->
<g id="edge19" class="edge">
<title>X3:e&#45;&#45;W3:w</title>
<path fill="none" stroke="#000000" stroke-width="2" d="M206,-579C282.19,-581.24 269.84,-480.24 350,-478"/>
<path fill="none" stroke="#00ffff" stroke-width="2" d="M206,-581C284.17,-581 271.83,-480 350,-480"/>
<path fill="none" stroke="#000000" stroke-width="2" d="M206,-583C286.16,-580.76 273.81,-479.76 350,-482"/>
</g>
<!-- X3&#45;&#45;W3 -->
<g id="edge21" class="edge">
<title>X3:e&#45;&#45;W3:w</title>
<path fill="none" stroke="#000000" stroke-width="2" d="M206,-556C282.7,-558.26 269.33,-455.26 350,-453"/>
<path fill="none" stroke="#ffff00" stroke-width="2" d="M206,-558C284.69,-558 271.31,-455 350,-455"/>
<path fill="none" stroke="#000000" stroke-width="2" d="M206,-560C286.67,-557.74 273.3,-454.74 350,-457"/>
</g>
<!-- X3&#45;&#45;W3 -->
<g id="edge23" class="edge">
<title>X3:e&#45;&#45;W3:w</title>
<path fill="none" stroke="#000000" stroke-width="2" d="M206,-533C283.23,-535.27 268.81,-430.27 350,-428"/>
<path fill="none" stroke="#8000ff" stroke-width="2" d="M206,-535C285.21,-535 270.79,-430 350,-430"/>
<path fill="none" stroke="#000000" stroke-width="2" d="M206,-537C287.19,-534.73 272.77,-429.73 350,-432"/>
</g>
<!-- X4 -->
<g id="node4" class="node">
<title>X4</title>
<polygon fill="white" stroke="black" points="692,-320 692,-458 898,-458 898,-320 692,-320"/>
<text text-anchor="middle" x="795" y="-442.8" font-family="arial" font-size="14.00">X4</text>
<polyline fill="none" stroke="black" points="692,-435 898,-435 "/>
<text text-anchor="middle" x="742.5" y="-419.8" font-family="arial" font-size="14.00">Molex KK 254</text>
<polyline fill="none" stroke="black" points="793,-412 793,-435 "/>
<text text-anchor="middle" x="822" y="-419.8" font-family="arial" font-size="14.00">female</text>
<polyline fill="none" stroke="black" points="851,-412 851,-435 "/>
<text text-anchor="middle" x="874.5" y="-419.8" font-family="arial" font-size="14.00">4&#45;pin</text>
<polyline fill="none" stroke="black" points="692,-412 898,-412 "/>
<text text-anchor="middle" x="737.5" y="-396.8" font-family="arial" font-size="14.00">1</text>
<polyline fill="none" stroke="black" points="692,-389 783,-389 "/>
<text text-anchor="middle" x="737.5" y="-373.8" font-family="arial" font-size="14.00">2</text>
<polyline fill="none" stroke="black" points="692,-366 783,-366 "/>
<text text-anchor="middle" x="737.5" y="-350.8" font-family="arial" font-size="14.00">3</text>
<polyline fill="none" stroke="black" points="692,-343 783,-343 "/>
<text text-anchor="middle" x="737.5" y="-327.8" font-family="arial" font-size="14.00">4</text>
<polyline fill="none" stroke="black" points="783,-320 783,-412 "/>
<text text-anchor="middle" x="840.5" y="-396.8" font-family="arial" font-size="14.00">GND</text>
<polyline fill="none" stroke="black" points="783,-389 898,-389 "/>
<text text-anchor="middle" x="840.5" y="-373.8" font-family="arial" font-size="14.00">VCC</text>
<polyline fill="none" stroke="black" points="783,-366 898,-366 "/>
<text text-anchor="middle" x="840.5" y="-350.8" font-family="arial" font-size="14.00">SCL</text>
<polyline fill="none" stroke="black" points="783,-343 898,-343 "/>
<text text-anchor="middle" x="840.5" y="-327.8" font-family="arial" font-size="14.00">SDA</text>
</g>
<!-- X5 -->
<g id="node5" class="node">
<title>X5</title>
<polygon fill="white" stroke="black" points="0,-115 0,-253 206,-253 206,-115 0,-115"/>
<text text-anchor="middle" x="103" y="-237.8" font-family="arial" font-size="14.00">X5</text>
<polyline fill="none" stroke="black" points="0,-230 206,-230 "/>
<text text-anchor="middle" x="50.5" y="-214.8" font-family="arial" font-size="14.00">Molex KK 254</text>
<polyline fill="none" stroke="black" points="101,-207 101,-230 "/>
<text text-anchor="middle" x="130" y="-214.8" font-family="arial" font-size="14.00">female</text>
<polyline fill="none" stroke="black" points="159,-207 159,-230 "/>
<text text-anchor="middle" x="182.5" y="-214.8" font-family="arial" font-size="14.00">4&#45;pin</text>
<polyline fill="none" stroke="black" points="0,-207 206,-207 "/>
<text text-anchor="middle" x="57" y="-191.8" font-family="arial" font-size="14.00">GND</text>
<polyline fill="none" stroke="black" points="0,-184 114,-184 "/>
<text text-anchor="middle" x="57" y="-168.8" font-family="arial" font-size="14.00">VCC</text>
<polyline fill="none" stroke="black" points="0,-161 114,-161 "/>
<text text-anchor="middle" x="57" y="-145.8" font-family="arial" font-size="14.00">SCL</text>
<polyline fill="none" stroke="black" points="0,-138 114,-138 "/>
<text text-anchor="middle" x="57" y="-122.8" font-family="arial" font-size="14.00">SDA</text>
<polyline fill="none" stroke="black" points="114,-115 114,-207 "/>
<text text-anchor="middle" x="160" y="-191.8" font-family="arial" font-size="14.00">1</text>
<polyline fill="none" stroke="black" points="114,-184 206,-184 "/>
<text text-anchor="middle" x="160" y="-168.8" font-family="arial" font-size="14.00">2</text>
<polyline fill="none" stroke="black" points="114,-161 206,-161 "/>
<text text-anchor="middle" x="160" y="-145.8" font-family="arial" font-size="14.00">3</text>
<polyline fill="none" stroke="black" points="114,-138 206,-138 "/>
<text text-anchor="middle" x="160" y="-122.8" font-family="arial" font-size="14.00">4</text>
</g>
<!-- W4 -->
<g id="node10" class="node">
<title>W4</title>
<polygon fill="white" stroke="black" stroke-dasharray="5,2" points="548,-384 350,-384 350,-204 548,-204 548,-384"/>
<polygon fill="none" stroke="black" points="350,-361 350,-384 548,-384 548,-361 350,-361"/>
<text text-anchor="start" x="438" y="-368.8" font-family="arial" font-size="14.00">W4</text>
<polygon fill="none" stroke="black" points="350,-338 350,-361 373,-361 373,-338 350,-338"/>
<text text-anchor="start" x="354" y="-345.8" font-family="arial" font-size="14.00">4x</text>
<polygon fill="none" stroke="black" points="373,-338 373,-361 505,-361 505,-338 373,-338"/>
<text text-anchor="start" x="377" y="-345.8" font-family="arial" font-size="14.00">24 AWG (0.25 mm²)</text>
<polygon fill="none" stroke="black" points="505,-338 505,-361 548,-361 548,-338 505,-338"/>
<text text-anchor="start" x="509" y="-345.8" font-family="arial" font-size="14.00">0.2 m</text>
<text text-anchor="start" x="447" y="-326.8" font-family="arial" font-size="14.00"> </text>
<text text-anchor="start" x="370.5" y="-309.8" font-family="arial" font-size="14.00">X5:1</text>
<text text-anchor="start" x="440" y="-309.8" font-family="arial" font-size="14.00">PK</text>
<text text-anchor="start" x="500" y="-309.8" font-family="arial" font-size="14.00">X4:1</text>
<polygon fill="#ff66cc" stroke="transparent" points="350,-298 350,-304 548,-304 548,-298 350,-298"/>
<polyline fill="none" stroke="black" stroke-width="2" points="351,-299 547,-299 "/>
<polyline fill="none" stroke="black" stroke-width="2" points="547,-303 351,-303 "/>
<text text-anchor="start" x="370.5" y="-284.8" font-family="arial" font-size="14.00">X5:2</text>
<text text-anchor="start" x="439.5" y="-284.8" font-family="arial" font-size="14.00">TQ</text>
<text text-anchor="start" x="500" y="-284.8" font-family="arial" font-size="14.00">X4:2</text>
<polygon fill="#00ffff" stroke="transparent" stroke-width="2" points="350,-273 350,-279 548,-279 548,-273 350,-273"/>
<polyline fill="none" stroke="black" stroke-width="2" points="351,-274 547,-274 "/>
<polyline fill="none" stroke="black" stroke-width="2" points="547,-278 351,-278 "/>
<text text-anchor="start" x="370.5" y="-259.8" font-family="arial" font-size="14.00">X5:3</text>
<text text-anchor="start" x="440" y="-259.8" font-family="arial" font-size="14.00">YE</text>
<text text-anchor="start" x="500" y="-259.8" font-family="arial" font-size="14.00">X4:3</text>
<polygon fill="#ffff00" stroke="transparent" stroke-width="2" points="350,-248 350,-254 548,-254 548,-248 350,-248"/>
<polyline fill="none" stroke="black" stroke-width="2" points="351,-249 547,-249 "/>
<polyline fill="none" stroke="black" stroke-width="2" points="547,-253 351,-253 "/>
<text text-anchor="start" x="370.5" y="-234.8" font-family="arial" font-size="14.00">X5:4</text>
<text text-anchor="start" x="440.5" y="-234.8" font-family="arial" font-size="14.00">VT</text>
<text text-anchor="start" x="500" y="-234.8" font-family="arial" font-size="14.00">X4:4</text>
<polygon fill="#8000ff" stroke="transparent" stroke-width="2" points="350,-223 350,-229 548,-229 548,-223 350,-223"/>
<polyline fill="none" stroke="black" stroke-width="2" points="351,-224 547,-224 "/>
<polyline fill="none" stroke="black" stroke-width="2" points="547,-228 351,-228 "/>
<text text-anchor="start" x="382.5" y="-209.8" font-family="arial" font-size="14.00"> </text>
</g>
<!-- X5&#45;&#45;W4 -->
<g id="edge25" class="edge">
<title>X5:e&#45;&#45;W4:w</title>
<path fill="none" stroke="#000000" stroke-width="2" d="M206,-194C287.19,-196.27 272.77,-301.27 350,-299"/>
<path fill="none" stroke="#ff66cc" stroke-width="2" d="M206,-196C285.21,-196 270.79,-301 350,-301"/>
<path fill="none" stroke="#000000" stroke-width="2" d="M206,-198C283.23,-195.73 268.81,-300.73 350,-303"/>
</g>
<!-- X5&#45;&#45;W4 -->
<g id="edge27" class="edge">
<title>X5:e&#45;&#45;W4:w</title>
<path fill="none" stroke="#000000" stroke-width="2" d="M206,-170C286.93,-172.26 273.04,-276.26 350,-274"/>
<path fill="none" stroke="#00ffff" stroke-width="2" d="M206,-172C284.95,-172 271.05,-276 350,-276"/>
<path fill="none" stroke="#000000" stroke-width="2" d="M206,-174C282.96,-171.74 269.07,-275.74 350,-278"/>
</g>
<!-- X5&#45;&#45;W4 -->
<g id="edge29" class="edge">
<title>X5:e&#45;&#45;W4:w</title>
<path fill="none" stroke="#000000" stroke-width="2" d="M206,-147C286.41,-149.25 273.56,-251.25 350,-249"/>
<path fill="none" stroke="#ffff00" stroke-width="2" d="M206,-149C284.43,-149 271.57,-251 350,-251"/>
<path fill="none" stroke="#000000" stroke-width="2" d="M206,-151C282.44,-148.75 269.59,-250.75 350,-253"/>
</g>
<!-- X5&#45;&#45;W4 -->
<g id="edge31" class="edge">
<title>X5:e&#45;&#45;W4:w</title>
<path fill="none" stroke="#000000" stroke-width="2" d="M206,-124C285.9,-126.24 274.07,-226.24 350,-224"/>
<path fill="none" stroke="#8000ff" stroke-width="2" d="M206,-126C283.92,-126 272.08,-226 350,-226"/>
<path fill="none" stroke="#000000" stroke-width="2" d="M206,-128C281.93,-125.76 270.1,-225.76 350,-228"/>
</g>
<!-- W5 -->
<g id="node11" class="node">
<title>W5</title>
<polygon fill="white" stroke="black" stroke-dasharray="5,2" points="548,-180 350,-180 350,0 548,0 548,-180"/>
<polygon fill="none" stroke="black" points="350,-157 350,-180 548,-180 548,-157 350,-157"/>
<text text-anchor="start" x="438" y="-164.8" font-family="arial" font-size="14.00">W5</text>
<polygon fill="none" stroke="black" points="350,-134 350,-157 373,-157 373,-134 350,-134"/>
<text text-anchor="start" x="354" y="-141.8" font-family="arial" font-size="14.00">4x</text>
<polygon fill="none" stroke="black" points="373,-134 373,-157 505,-157 505,-134 373,-134"/>
<text text-anchor="start" x="377" y="-141.8" font-family="arial" font-size="14.00">24 AWG (0.25 mm²)</text>
<polygon fill="none" stroke="black" points="505,-134 505,-157 548,-157 548,-134 505,-134"/>
<text text-anchor="start" x="509" y="-141.8" font-family="arial" font-size="14.00">0.2 m</text>
<text text-anchor="start" x="447" y="-122.8" font-family="arial" font-size="14.00"> </text>
<text text-anchor="start" x="370.5" y="-105.8" font-family="arial" font-size="14.00">X5:1</text>
<text text-anchor="start" x="440" y="-105.8" font-family="arial" font-size="14.00">PK</text>
<text text-anchor="start" x="500" y="-105.8" font-family="arial" font-size="14.00">X6:1</text>
<polygon fill="#ff66cc" stroke="transparent" points="350,-94 350,-100 548,-100 548,-94 350,-94"/>
<polyline fill="none" stroke="black" stroke-width="2" points="351,-95 547,-95 "/>
<polyline fill="none" stroke="black" stroke-width="2" points="547,-99 351,-99 "/>
<text text-anchor="start" x="370.5" y="-80.8" font-family="arial" font-size="14.00">X5:2</text>
<text text-anchor="start" x="439.5" y="-80.8" font-family="arial" font-size="14.00">TQ</text>
<text text-anchor="start" x="500" y="-80.8" font-family="arial" font-size="14.00">X6:2</text>
<polygon fill="#00ffff" stroke="transparent" stroke-width="2" points="350,-69 350,-75 548,-75 548,-69 350,-69"/>
<polyline fill="none" stroke="black" stroke-width="2" points="351,-70 547,-70 "/>
<polyline fill="none" stroke="black" stroke-width="2" points="547,-74 351,-74 "/>
<text text-anchor="start" x="370.5" y="-55.8" font-family="arial" font-size="14.00">X5:3</text>
<text text-anchor="start" x="440" y="-55.8" font-family="arial" font-size="14.00">YE</text>
<text text-anchor="start" x="500" y="-55.8" font-family="arial" font-size="14.00">X6:3</text>
<polygon fill="#ffff00" stroke="transparent" stroke-width="2" points="350,-44 350,-50 548,-50 548,-44 350,-44"/>
<polyline fill="none" stroke="black" stroke-width="2" points="351,-45 547,-45 "/>
<polyline fill="none" stroke="black" stroke-width="2" points="547,-49 351,-49 "/>
<text text-anchor="start" x="370.5" y="-30.8" font-family="arial" font-size="14.00">X5:4</text>
<text text-anchor="start" x="440.5" y="-30.8" font-family="arial" font-size="14.00">VT</text>
<text text-anchor="start" x="500" y="-30.8" font-family="arial" font-size="14.00">X6:4</text>
<polygon fill="#8000ff" stroke="transparent" stroke-width="2" points="350,-19 350,-25 548,-25 548,-19 350,-19"/>
<polyline fill="none" stroke="black" stroke-width="2" points="351,-20 547,-20 "/>
<polyline fill="none" stroke="black" stroke-width="2" points="547,-24 351,-24 "/>
<text text-anchor="start" x="382.5" y="-5.8" font-family="arial" font-size="14.00"> </text>
</g>
<!-- X5&#45;&#45;W5 -->
<g id="edge33" class="edge">
<title>X5:e&#45;&#45;W5:w</title>
<path fill="none" stroke="#000000" stroke-width="2" d="M206,-194C281.68,-196.23 270.35,-97.23 350,-95"/>
<path fill="none" stroke="#ff66cc" stroke-width="2" d="M206,-196C283.67,-196 272.33,-97 350,-97"/>
<path fill="none" stroke="#000000" stroke-width="2" d="M206,-198C285.65,-195.77 274.32,-96.77 350,-99"/>
</g>
<!-- X5&#45;&#45;W5 -->
<g id="edge35" class="edge">
<title>X5:e&#45;&#45;W5:w</title>
<path fill="none" stroke="#000000" stroke-width="2" d="M206,-170C281.93,-172.24 270.1,-72.24 350,-70"/>
<path fill="none" stroke="#00ffff" stroke-width="2" d="M206,-172C283.92,-172 272.08,-72 350,-72"/>
<path fill="none" stroke="#000000" stroke-width="2" d="M206,-174C285.9,-171.76 274.07,-71.76 350,-74"/>
</g>
<!-- X5&#45;&#45;W5 -->
<g id="edge37" class="edge">
<title>X5:e&#45;&#45;W5:w</title>
<path fill="none" stroke="#000000" stroke-width="2" d="M206,-147C282.44,-149.25 269.59,-47.25 350,-45"/>
<path fill="none" stroke="#ffff00" stroke-width="2" d="M206,-149C284.43,-149 271.57,-47 350,-47"/>
<path fill="none" stroke="#000000" stroke-width="2" d="M206,-151C286.41,-148.75 273.56,-46.75 350,-49"/>
</g>
<!-- X5&#45;&#45;W5 -->
<g id="edge39" class="edge">
<title>X5:e&#45;&#45;W5:w</title>
<path fill="none" stroke="#000000" stroke-width="2" d="M206,-124C282.96,-126.26 269.07,-22.26 350,-20"/>
<path fill="none" stroke="#8000ff" stroke-width="2" d="M206,-126C284.95,-126 271.05,-22 350,-22"/>
<path fill="none" stroke="#000000" stroke-width="2" d="M206,-128C286.93,-125.74 273.04,-21.74 350,-24"/>
</g>
<!-- X6 -->
<g id="node6" class="node">
<title>X6</title>
<polygon fill="white" stroke="black" points="692,-14 692,-152 898,-152 898,-14 692,-14"/>
<text text-anchor="middle" x="795" y="-136.8" font-family="arial" font-size="14.00">X6</text>
<polyline fill="none" stroke="black" points="692,-129 898,-129 "/>
<text text-anchor="middle" x="742.5" y="-113.8" font-family="arial" font-size="14.00">Molex KK 254</text>
<polyline fill="none" stroke="black" points="793,-106 793,-129 "/>
<text text-anchor="middle" x="822" y="-113.8" font-family="arial" font-size="14.00">female</text>
<polyline fill="none" stroke="black" points="851,-106 851,-129 "/>
<text text-anchor="middle" x="874.5" y="-113.8" font-family="arial" font-size="14.00">4&#45;pin</text>
<polyline fill="none" stroke="black" points="692,-106 898,-106 "/>
<text text-anchor="middle" x="737.5" y="-90.8" font-family="arial" font-size="14.00">1</text>
<polyline fill="none" stroke="black" points="692,-83 783,-83 "/>
<text text-anchor="middle" x="737.5" y="-67.8" font-family="arial" font-size="14.00">2</text>
<polyline fill="none" stroke="black" points="692,-60 783,-60 "/>
<text text-anchor="middle" x="737.5" y="-44.8" font-family="arial" font-size="14.00">3</text>
<polyline fill="none" stroke="black" points="692,-37 783,-37 "/>
<text text-anchor="middle" x="737.5" y="-21.8" font-family="arial" font-size="14.00">4</text>
<polyline fill="none" stroke="black" points="783,-14 783,-106 "/>
<text text-anchor="middle" x="840.5" y="-90.8" font-family="arial" font-size="14.00">GND</text>
<polyline fill="none" stroke="black" points="783,-83 898,-83 "/>
<text text-anchor="middle" x="840.5" y="-67.8" font-family="arial" font-size="14.00">VCC</text>
<polyline fill="none" stroke="black" points="783,-60 898,-60 "/>
<text text-anchor="middle" x="840.5" y="-44.8" font-family="arial" font-size="14.00">SCL</text>
<polyline fill="none" stroke="black" points="783,-37 898,-37 "/>
<text text-anchor="middle" x="840.5" y="-21.8" font-family="arial" font-size="14.00">SDA</text>
</g>
<!-- W1&#45;&#45;X2 -->
<g id="edge2" class="edge">
<title>W1:e&#45;&#45;X2:w</title>
<path fill="none" stroke="#000000" stroke-width="2" d="M548,-911C625.23,-913.27 610.81,-808.27 692,-806"/>
<path fill="none" stroke="#ff66cc" stroke-width="2" d="M548,-913C627.21,-913 612.79,-808 692,-808"/>
<path fill="none" stroke="#000000" stroke-width="2" d="M548,-915C629.19,-912.73 614.77,-807.73 692,-810"/>
</g>
<!-- W1&#45;&#45;X2 -->
<g id="edge4" class="edge">
<title>W1:e&#45;&#45;X2:w</title>
<path fill="none" stroke="#000000" stroke-width="2" d="M548,-886C624.96,-888.26 611.07,-784.26 692,-782"/>
<path fill="none" stroke="#00ffff" stroke-width="2" d="M548,-888C626.95,-888 613.05,-784 692,-784"/>
<path fill="none" stroke="#000000" stroke-width="2" d="M548,-890C628.93,-887.74 615.04,-783.74 692,-786"/>
</g>
<!-- W1&#45;&#45;X2 -->
<g id="edge6" class="edge">
<title>W1:e&#45;&#45;X2:w</title>
<path fill="none" stroke="#000000" stroke-width="2" d="M548,-861C624.44,-863.25 611.59,-761.25 692,-759"/>
<path fill="none" stroke="#ffff00" stroke-width="2" d="M548,-863C626.43,-863 613.57,-761 692,-761"/>
<path fill="none" stroke="#000000" stroke-width="2" d="M548,-865C628.41,-862.75 615.56,-760.75 692,-763"/>
</g>
<!-- W1&#45;&#45;X2 -->
<g id="edge8" class="edge">
<title>W1:e&#45;&#45;X2:w</title>
<path fill="none" stroke="#000000" stroke-width="2" d="M548,-836C623.93,-838.24 612.1,-738.24 692,-736"/>
<path fill="none" stroke="#8000ff" stroke-width="2" d="M548,-838C625.92,-838 614.08,-738 692,-738"/>
<path fill="none" stroke="#000000" stroke-width="2" d="M548,-840C627.9,-837.76 616.07,-737.76 692,-740"/>
</g>
<!-- W2&#45;&#45;X2 -->
<g id="edge10" class="edge">
<title>W2:e&#45;&#45;X2:w</title>
<path fill="none" stroke="#000000" stroke-width="2" d="M548,-707C627.65,-709.23 616.32,-808.23 692,-806"/>
<path fill="none" stroke="#ff66cc" stroke-width="2" d="M548,-709C625.67,-709 614.33,-808 692,-808"/>
<path fill="none" stroke="#000000" stroke-width="2" d="M548,-711C623.68,-708.77 612.35,-807.77 692,-810"/>
</g>
<!-- W2&#45;&#45;X2 -->
<g id="edge12" class="edge">
<title>W2:e&#45;&#45;X2:w</title>
<path fill="none" stroke="#000000" stroke-width="2" d="M548,-682C627.9,-684.24 616.07,-784.24 692,-782"/>
<path fill="none" stroke="#00ffff" stroke-width="2" d="M548,-684C625.92,-684 614.08,-784 692,-784"/>
<path fill="none" stroke="#000000" stroke-width="2" d="M548,-686C623.93,-683.76 612.1,-783.76 692,-786"/>
</g>
<!-- W2&#45;&#45;X2 -->
<g id="edge14" class="edge">
<title>W2:e&#45;&#45;X2:w</title>
<path fill="none" stroke="#000000" stroke-width="2" d="M548,-657C628.41,-659.25 615.56,-761.25 692,-759"/>
<path fill="none" stroke="#ffff00" stroke-width="2" d="M548,-659C626.43,-659 613.57,-761 692,-761"/>
<path fill="none" stroke="#000000" stroke-width="2" d="M548,-661C624.44,-658.75 611.59,-760.75 692,-763"/>
</g>
<!-- W2&#45;&#45;X2 -->
<g id="edge16" class="edge">
<title>W2:e&#45;&#45;X2:w</title>
<path fill="none" stroke="#000000" stroke-width="2" d="M548,-632C628.93,-634.26 615.04,-738.26 692,-736"/>
<path fill="none" stroke="#8000ff" stroke-width="2" d="M548,-634C626.95,-634 613.05,-738 692,-738"/>
<path fill="none" stroke="#000000" stroke-width="2" d="M548,-636C624.96,-633.74 611.07,-737.74 692,-740"/>
</g>
<!-- W3&#45;&#45;X4 -->
<g id="edge18" class="edge">
<title>W3:e&#45;&#45;X4:w</title>
<path fill="none" stroke="#000000" stroke-width="2" d="M548,-503C624.96,-505.26 611.07,-401.26 692,-399"/>
<path fill="none" stroke="#ff66cc" stroke-width="2" d="M548,-505C626.95,-505 613.05,-401 692,-401"/>
<path fill="none" stroke="#000000" stroke-width="2" d="M548,-507C628.93,-504.74 615.04,-400.74 692,-403"/>
</g>
<!-- W3&#45;&#45;X4 -->
<g id="edge20" class="edge">
<title>W3:e&#45;&#45;X4:w</title>
<path fill="none" stroke="#000000" stroke-width="2" d="M548,-478C624.7,-480.26 611.33,-377.26 692,-375"/>
<path fill="none" stroke="#00ffff" stroke-width="2" d="M548,-480C626.69,-480 613.31,-377 692,-377"/>
<path fill="none" stroke="#000000" stroke-width="2" d="M548,-482C628.67,-479.74 615.3,-376.74 692,-379"/>
</g>
<!-- W3&#45;&#45;X4 -->
<g id="edge22" class="edge">
<title>W3:e&#45;&#45;X4:w</title>
<path fill="none" stroke="#000000" stroke-width="2" d="M548,-453C624.19,-455.24 611.84,-354.24 692,-352"/>
<path fill="none" stroke="#ffff00" stroke-width="2" d="M548,-455C626.17,-455 613.83,-354 692,-354"/>
<path fill="none" stroke="#000000" stroke-width="2" d="M548,-457C628.16,-454.76 615.81,-353.76 692,-356"/>
</g>
<!-- W3&#45;&#45;X4 -->
<g id="edge24" class="edge">
<title>W3:e&#45;&#45;X4:w</title>
<path fill="none" stroke="#000000" stroke-width="2" d="M548,-428C623.68,-430.23 612.35,-331.23 692,-329"/>
<path fill="none" stroke="#8000ff" stroke-width="2" d="M548,-430C625.67,-430 614.33,-331 692,-331"/>
<path fill="none" stroke="#000000" stroke-width="2" d="M548,-432C627.65,-429.77 616.32,-330.77 692,-333"/>
</g>
<!-- W4&#45;&#45;X4 -->
<g id="edge26" class="edge">
<title>W4:e&#45;&#45;X4:w</title>
<path fill="none" stroke="#000000" stroke-width="2" d="M548,-299C627.9,-301.24 616.07,-401.24 692,-399"/>
<path fill="none" stroke="#ff66cc" stroke-width="2" d="M548,-301C625.92,-301 614.08,-401 692,-401"/>
<path fill="none" stroke="#000000" stroke-width="2" d="M548,-303C623.93,-300.76 612.1,-400.76 692,-403"/>
</g>
<!-- W4&#45;&#45;X4 -->
<g id="edge28" class="edge">
<title>W4:e&#45;&#45;X4:w</title>
<path fill="none" stroke="#000000" stroke-width="2" d="M548,-274C628.16,-276.24 615.81,-377.24 692,-375"/>
<path fill="none" stroke="#00ffff" stroke-width="2" d="M548,-276C626.17,-276 613.83,-377 692,-377"/>
<path fill="none" stroke="#000000" stroke-width="2" d="M548,-278C624.19,-275.76 611.84,-376.76 692,-379"/>
</g>
<!-- W4&#45;&#45;X4 -->
<g id="edge30" class="edge">
<title>W4:e&#45;&#45;X4:w</title>
<path fill="none" stroke="#000000" stroke-width="2" d="M548,-249C628.67,-251.26 615.3,-354.26 692,-352"/>
<path fill="none" stroke="#ffff00" stroke-width="2" d="M548,-251C626.69,-251 613.31,-354 692,-354"/>
<path fill="none" stroke="#000000" stroke-width="2" d="M548,-253C624.7,-250.74 611.33,-353.74 692,-356"/>
</g>
<!-- W4&#45;&#45;X4 -->
<g id="edge32" class="edge">
<title>W4:e&#45;&#45;X4:w</title>
<path fill="none" stroke="#000000" stroke-width="2" d="M548,-224C629.19,-226.27 614.77,-331.27 692,-329"/>
<path fill="none" stroke="#8000ff" stroke-width="2" d="M548,-226C627.21,-226 612.79,-331 692,-331"/>
<path fill="none" stroke="#000000" stroke-width="2" d="M548,-228C625.23,-225.73 610.81,-330.73 692,-333"/>
</g>
<!-- W5&#45;&#45;X6 -->
<g id="edge34" class="edge">
<title>W5:e&#45;&#45;X6:w</title>
<path fill="none" stroke="#000000" stroke-width="2" d="M548,-95C611.76,-95.02 627.75,-93.02 692,-93"/>
<path fill="none" stroke="#ff66cc" stroke-width="2" d="M548,-97C612.01,-97 627.99,-95 692,-95"/>
<path fill="none" stroke="#000000" stroke-width="2" d="M548,-99C612.25,-98.98 628.24,-96.98 692,-97"/>
</g>
<!-- W5&#45;&#45;X6 -->
<g id="edge36" class="edge">
<title>W5:e&#45;&#45;X6:w</title>
<path fill="none" stroke="#000000" stroke-width="2" d="M548,-70C611.88,-70 627.87,-69 692,-69"/>
<path fill="none" stroke="#00ffff" stroke-width="2" d="M548,-72C612,-72 628,-71 692,-71"/>
<path fill="none" stroke="#000000" stroke-width="2" d="M548,-74C612.13,-74 628.12,-73 692,-73"/>
</g>
<!-- W5&#45;&#45;X6 -->
<g id="edge38" class="edge">
<title>W5:e&#45;&#45;X6:w</title>
<path fill="none" stroke="#000000" stroke-width="2" d="M548,-45C612.13,-45 628.12,-46 692,-46"/>
<path fill="none" stroke="#ffff00" stroke-width="2" d="M548,-47C612,-47 628,-48 692,-48"/>
<path fill="none" stroke="#000000" stroke-width="2" d="M548,-49C611.88,-49 627.87,-50 692,-50"/>
</g>
<!-- W5&#45;&#45;X6 -->
<g id="edge40" class="edge">
<title>W5:e&#45;&#45;X6:w</title>
<path fill="none" stroke="#000000" stroke-width="2" d="M548,-20C612.38,-20.03 628.36,-23.03 692,-23"/>
<path fill="none" stroke="#8000ff" stroke-width="2" d="M548,-22C612.01,-22 627.99,-25 692,-25"/>
<path fill="none" stroke="#000000" stroke-width="2" d="M548,-24C611.64,-23.97 627.62,-26.97 692,-27"/>
</g>
</g>
</svg>
