<?xml version="1.0" encoding="UTF-8" standalone="no"?>
<!DOCTYPE svg PUBLIC "-//W3C//DTD SVG 1.1//EN"
 "http://www.w3.org/Graphics/SVG/1.1/DTD/svg11.dtd">
<!-- Generated by graphviz version 2.44.0 (20200408.0750)
 -->
<!-- Pages: 1 -->
<svg width="841pt" height="889pt"
 viewBox="0.00 0.00 841.00 889.00" xmlns="http://www.w3.org/2000/svg" xmlns:xlink="http://www.w3.org/1999/xlink">
<g id="graph0" class="graph" transform="scale(1 1) rotate(0) translate(4 885)">
<polygon fill="white" stroke="transparent" points="-4,4 -4,-885 837,-885 837,4 -4,4"/>
<!-- X1 -->
<g id="node1" class="node">
<title>X1</title>
<polygon fill="white" stroke="black" points="0,-737.5 0,-875.5 206,-875.5 206,-737.5 0,-737.5"/>
<text text-anchor="middle" x="103" y="-860.3" font-family="arial" font-size="14.00">X1</text>
<polyline fill="none" stroke="black" points="0,-852.5 206,-852.5 "/>
<text text-anchor="middle" x="50.5" y="-837.3" font-family="arial" font-size="14.00">Molex KK 254</text>
<polyline fill="none" stroke="black" points="101,-829.5 101,-852.5 "/>
<text text-anchor="middle" x="130" y="-837.3" font-family="arial" font-size="14.00">female</text>
<polyline fill="none" stroke="black" points="159,-829.5 159,-852.5 "/>
<text text-anchor="middle" x="182.5" y="-837.3" font-family="arial" font-size="14.00">4&#45;pin</text>
<polyline fill="none" stroke="black" points="0,-829.5 206,-829.5 "/>
<text text-anchor="middle" x="57" y="-814.3" font-family="arial" font-size="14.00">GND</text>
<polyline fill="none" stroke="black" points="0,-806.5 114,-806.5 "/>
<text text-anchor="middle" x="57" y="-791.3" font-family="arial" font-size="14.00">VCC</text>
<polyline fill="none" stroke="black" points="0,-783.5 114,-783.5 "/>
<text text-anchor="middle" x="57" y="-768.3" font-family="arial" font-size="14.00">SCL</text>
<polyline fill="none" stroke="black" points="0,-760.5 114,-760.5 "/>
<text text-anchor="middle" x="57" y="-745.3" font-family="arial" font-size="14.00">SDA</text>
<polyline fill="none" stroke="black" points="114,-737.5 114,-829.5 "/>
<text text-anchor="middle" x="160" y="-814.3" font-family="arial" font-size="14.00">1</text>
<polyline fill="none" stroke="black" points="114,-806.5 206,-806.5 "/>
<text text-anchor="middle" x="160" y="-791.3" font-family="arial" font-size="14.00">2</text>
<polyline fill="none" stroke="black" points="114,-783.5 206,-783.5 "/>
<text text-anchor="middle" x="160" y="-768.3" font-family="arial" font-size="14.00">3</text>
<polyline fill="none" stroke="black" points="114,-760.5 206,-760.5 "/>
<text text-anchor="middle" x="160" y="-745.3" font-family="arial" font-size="14.00">4</text>
</g>
<!-- W1 -->
<g id="node7" class="node">
<title>W1</title>
<polygon fill="white" stroke="black" stroke-dasharray="5,2" points="483,-881 350,-881 350,-724 483,-724 483,-881"/>
<polygon fill="none" stroke="black" points="350.5,-857.5 350.5,-880.5 373.5,-880.5 373.5,-857.5 350.5,-857.5"/>
<text text-anchor="start" x="354.5" y="-865.3" font-family="arial" font-size="14.00">4x</text>
<polygon fill="none" stroke="black" points="373.5,-857.5 373.5,-880.5 440.5,-880.5 440.5,-857.5 373.5,-857.5"/>
<text text-anchor="start" x="377.5" y="-865.3" font-family="arial" font-size="14.00">0.25 mm²</text>
<polygon fill="none" stroke="black" points="440.5,-857.5 440.5,-880.5 483.5,-880.5 483.5,-857.5 440.5,-857.5"/>
<text text-anchor="start" x="444.5" y="-865.3" font-family="arial" font-size="14.00">0.2 m</text>
<text text-anchor="start" x="415" y="-846.3" font-family="arial" font-size="14.00"> </text>
<text text-anchor="start" x="360" y="-829.3" font-family="arial" font-size="14.00">X1:1</text>
<text text-anchor="start" x="407.5" y="-829.3" font-family="arial" font-size="14.00">PK</text>
<text text-anchor="start" x="446" y="-829.3" font-family="arial" font-size="14.00">X2:1</text>
<polygon fill="#ff66cc" stroke="transparent" points="350.5,-817.5 350.5,-823.5 483.5,-823.5 483.5,-817.5 350.5,-817.5"/>
<polyline fill="none" stroke="black" stroke-width="2" points="351.5,-818.5 482.5,-818.5 "/>
<polyline fill="none" stroke="black" stroke-width="2" points="482.5,-822.5 351.5,-822.5 "/>
<text text-anchor="start" x="360" y="-804.3" font-family="arial" font-size="14.00">X1:2</text>
<text text-anchor="start" x="407" y="-804.3" font-family="arial" font-size="14.00">TQ</text>
<text text-anchor="start" x="446" y="-804.3" font-family="arial" font-size="14.00">X2:2</text>
<polygon fill="#00ffff" stroke="transparent" stroke-width="2" points="350.5,-792.5 350.5,-798.5 483.5,-798.5 483.5,-792.5 350.5,-792.5"/>
<polyline fill="none" stroke="black" stroke-width="2" points="351.5,-793.5 482.5,-793.5 "/>
<polyline fill="none" stroke="black" stroke-width="2" points="482.5,-797.5 351.5,-797.5 "/>
<text text-anchor="start" x="360" y="-779.3" font-family="arial" font-size="14.00">X1:3</text>
<text text-anchor="start" x="407.5" y="-779.3" font-family="arial" font-size="14.00">YE</text>
<text text-anchor="start" x="446" y="-779.3" font-family="arial" font-size="14.00">X2:3</text>
<polygon fill="#ffff00" stroke="transparent" stroke-width="2" points="350.5,-767.5 350.5,-773.5 483.5,-773.5 483.5,-767.5 350.5,-767.5"/>
<polyline fill="none" stroke="black" stroke-width="2" points="351.5,-768.5 482.5,-768.5 "/>
<polyline fill="none" stroke="black" stroke-width="2" points="482.5,-772.5 351.5,-772.5 "/>
<text text-anchor="start" x="360" y="-754.3" font-family="arial" font-size="14.00">X1:4</text>
<text text-anchor="start" x="408" y="-754.3" font-family="arial" font-size="14.00">VT</text>
<text text-anchor="start" x="446" y="-754.3" font-family="arial" font-size="14.00">X2:4</text>
<polygon fill="#8000ff" stroke="transparent" stroke-width="2" points="350.5,-742.5 350.5,-748.5 483.5,-748.5 483.5,-742.5 350.5,-742.5"/>
<polyline fill="none" stroke="black" stroke-width="2" points="351.5,-743.5 482.5,-743.5 "/>
<polyline fill="none" stroke="black" stroke-width="2" points="482.5,-747.5 351.5,-747.5 "/>
<text text-anchor="start" x="372" y="-729.3" font-family="arial" font-size="14.00"> </text>
</g>
<!-- X1&#45;&#45;W1 -->
<g id="edge1" class="edge">
<title>X1:e&#45;&#45;W1:w</title>
<path fill="none" stroke="#000000" stroke-width="2" d="M206,-816.5C270.25,-816.52 286.24,-818.52 350,-818.5"/>
<path fill="none" stroke="#ff66cc" stroke-width="2" d="M206,-818.5C270.01,-818.5 285.99,-820.5 350,-820.5"/>
<path fill="none" stroke="#000000" stroke-width="2" d="M206,-820.5C269.76,-820.48 285.75,-822.48 350,-822.5"/>
</g>
<!-- X1&#45;&#45;W1 -->
<g id="edge3" class="edge">
<title>X1:e&#45;&#45;W1:w</title>
<path fill="none" stroke="#000000" stroke-width="2" d="M206,-792.5C270.13,-792.5 286.12,-793.5 350,-793.5"/>
<path fill="none" stroke="#00ffff" stroke-width="2" d="M206,-794.5C270,-794.5 286,-795.5 350,-795.5"/>
<path fill="none" stroke="#000000" stroke-width="2" d="M206,-796.5C269.88,-796.5 285.87,-797.5 350,-797.5"/>
</g>
<!-- X1&#45;&#45;W1 -->
<g id="edge5" class="edge">
<title>X1:e&#45;&#45;W1:w</title>
<path fill="none" stroke="#000000" stroke-width="2" d="M206,-769.5C269.88,-769.5 285.87,-768.5 350,-768.5"/>
<path fill="none" stroke="#ffff00" stroke-width="2" d="M206,-771.5C270,-771.5 286,-770.5 350,-770.5"/>
<path fill="none" stroke="#000000" stroke-width="2" d="M206,-773.5C270.13,-773.5 286.12,-772.5 350,-772.5"/>
</g>
<!-- X1&#45;&#45;W1 -->
<g id="edge7" class="edge">
<title>X1:e&#45;&#45;W1:w</title>
<path fill="none" stroke="#000000" stroke-width="2" d="M206,-746.5C269.64,-746.53 285.62,-743.53 350,-743.5"/>
<path fill="none" stroke="#8000ff" stroke-width="2" d="M206,-748.5C270.01,-748.5 285.99,-745.5 350,-745.5"/>
<path fill="none" stroke="#000000" stroke-width="2" d="M206,-750.5C270.38,-750.47 286.36,-747.47 350,-747.5"/>
</g>
<!-- X2 -->
<g id="node2" class="node">
<title>X2</title>
<polygon fill="white" stroke="black" points="627,-646.5 627,-784.5 833,-784.5 833,-646.5 627,-646.5"/>
<text text-anchor="middle" x="730" y="-769.3" font-family="arial" font-size="14.00">X2</text>
<polyline fill="none" stroke="black" points="627,-761.5 833,-761.5 "/>
<text text-anchor="middle" x="677.5" y="-746.3" font-family="arial" font-size="14.00">Molex KK 254</text>
<polyline fill="none" stroke="black" points="728,-738.5 728,-761.5 "/>
<text text-anchor="middle" x="757" y="-746.3" font-family="arial" font-size="14.00">female</text>
<polyline fill="none" stroke="black" points="786,-738.5 786,-761.5 "/>
<text text-anchor="middle" x="809.5" y="-746.3" font-family="arial" font-size="14.00">4&#45;pin</text>
<polyline fill="none" stroke="black" points="627,-738.5 833,-738.5 "/>
<text text-anchor="middle" x="672.5" y="-723.3" font-family="arial" font-size="14.00">1</text>
<polyline fill="none" stroke="black" points="627,-715.5 718,-715.5 "/>
<text text-anchor="middle" x="672.5" y="-700.3" font-family="arial" font-size="14.00">2</text>
<polyline fill="none" stroke="black" points="627,-692.5 718,-692.5 "/>
<text text-anchor="middle" x="672.5" y="-677.3" font-family="arial" font-size="14.00">3</text>
<polyline fill="none" stroke="black" points="627,-669.5 718,-669.5 "/>
<text text-anchor="middle" x="672.5" y="-654.3" font-family="arial" font-size="14.00">4</text>
<polyline fill="none" stroke="black" points="718,-646.5 718,-738.5 "/>
<text text-anchor="middle" x="775.5" y="-723.3" font-family="arial" font-size="14.00">GND</text>
<polyline fill="none" stroke="black" points="718,-715.5 833,-715.5 "/>
<text text-anchor="middle" x="775.5" y="-700.3" font-family="arial" font-size="14.00">VCC</text>
<polyline fill="none" stroke="black" points="718,-692.5 833,-692.5 "/>
<text text-anchor="middle" x="775.5" y="-677.3" font-family="arial" font-size="14.00">SCL</text>
<polyline fill="none" stroke="black" points="718,-669.5 833,-669.5 "/>
<text text-anchor="middle" x="775.5" y="-654.3" font-family="arial" font-size="14.00">SDA</text>
</g>
<!-- X3 -->
<g id="node3" class="node">
<title>X3</title>
<polygon fill="white" stroke="black" points="0,-465.5 0,-603.5 206,-603.5 206,-465.5 0,-465.5"/>
<text text-anchor="middle" x="103" y="-588.3" font-family="arial" font-size="14.00">X3</text>
<polyline fill="none" stroke="black" points="0,-580.5 206,-580.5 "/>
<text text-anchor="middle" x="50.5" y="-565.3" font-family="arial" font-size="14.00">Molex KK 254</text>
<polyline fill="none" stroke="black" points="101,-557.5 101,-580.5 "/>
<text text-anchor="middle" x="130" y="-565.3" font-family="arial" font-size="14.00">female</text>
<polyline fill="none" stroke="black" points="159,-557.5 159,-580.5 "/>
<text text-anchor="middle" x="182.5" y="-565.3" font-family="arial" font-size="14.00">4&#45;pin</text>
<polyline fill="none" stroke="black" points="0,-557.5 206,-557.5 "/>
<text text-anchor="middle" x="57" y="-542.3" font-family="arial" font-size="14.00">GND</text>
<polyline fill="none" stroke="black" points="0,-534.5 114,-534.5 "/>
<text text-anchor="middle" x="57" y="-519.3" font-family="arial" font-size="14.00">VCC</text>
<polyline fill="none" stroke="black" points="0,-511.5 114,-511.5 "/>
<text text-anchor="middle" x="57" y="-496.3" font-family="arial" font-size="14.00">SCL</text>
<polyline fill="none" stroke="black" points="0,-488.5 114,-488.5 "/>
<text text-anchor="middle" x="57" y="-473.3" font-family="arial" font-size="14.00">SDA</text>
<polyline fill="none" stroke="black" points="114,-465.5 114,-557.5 "/>
<text text-anchor="middle" x="160" y="-542.3" font-family="arial" font-size="14.00">1</text>
<polyline fill="none" stroke="black" points="114,-534.5 206,-534.5 "/>
<text text-anchor="middle" x="160" y="-519.3" font-family="arial" font-size="14.00">2</text>
<polyline fill="none" stroke="black" points="114,-511.5 206,-511.5 "/>
<text text-anchor="middle" x="160" y="-496.3" font-family="arial" font-size="14.00">3</text>
<polyline fill="none" stroke="black" points="114,-488.5 206,-488.5 "/>
<text text-anchor="middle" x="160" y="-473.3" font-family="arial" font-size="14.00">4</text>
</g>
<!-- W2 -->
<g id="node8" class="node">
<title>W2</title>
<polygon fill="white" stroke="black" stroke-dasharray="5,2" points="483,-700 350,-700 350,-543 483,-543 483,-700"/>
<polygon fill="none" stroke="black" points="350.5,-676.5 350.5,-699.5 373.5,-699.5 373.5,-676.5 350.5,-676.5"/>
<text text-anchor="start" x="354.5" y="-684.3" font-family="arial" font-size="14.00">4x</text>
<polygon fill="none" stroke="black" points="373.5,-676.5 373.5,-699.5 440.5,-699.5 440.5,-676.5 373.5,-676.5"/>
<text text-anchor="start" x="377.5" y="-684.3" font-family="arial" font-size="14.00">0.25 mm²</text>
<polygon fill="none" stroke="black" points="440.5,-676.5 440.5,-699.5 483.5,-699.5 483.5,-676.5 440.5,-676.5"/>
<text text-anchor="start" x="444.5" y="-684.3" font-family="arial" font-size="14.00">0.2 m</text>
<text text-anchor="start" x="415" y="-665.3" font-family="arial" font-size="14.00"> </text>
<text text-anchor="start" x="360" y="-648.3" font-family="arial" font-size="14.00">X3:1</text>
<text text-anchor="start" x="407.5" y="-648.3" font-family="arial" font-size="14.00">PK</text>
<text text-anchor="start" x="446" y="-648.3" font-family="arial" font-size="14.00">X2:1</text>
<polygon fill="#ff66cc" stroke="transparent" points="350.5,-636.5 350.5,-642.5 483.5,-642.5 483.5,-636.5 350.5,-636.5"/>
<polyline fill="none" stroke="black" stroke-width="2" points="351.5,-637.5 482.5,-637.5 "/>
<polyline fill="none" stroke="black" stroke-width="2" points="482.5,-641.5 351.5,-641.5 "/>
<text text-anchor="start" x="360" y="-623.3" font-family="arial" font-size="14.00">X3:2</text>
<text text-anchor="start" x="407" y="-623.3" font-family="arial" font-size="14.00">TQ</text>
<text text-anchor="start" x="446" y="-623.3" font-family="arial" font-size="14.00">X2:2</text>
<polygon fill="#00ffff" stroke="transparent" stroke-width="2" points="350.5,-611.5 350.5,-617.5 483.5,-617.5 483.5,-611.5 350.5,-611.5"/>
<polyline fill="none" stroke="black" stroke-width="2" points="351.5,-612.5 482.5,-612.5 "/>
<polyline fill="none" stroke="black" stroke-width="2" points="482.5,-616.5 351.5,-616.5 "/>
<text text-anchor="start" x="360" y="-598.3" font-family="arial" font-size="14.00">X3:3</text>
<text text-anchor="start" x="407.5" y="-598.3" font-family="arial" font-size="14.00">YE</text>
<text text-anchor="start" x="446" y="-598.3" font-family="arial" font-size="14.00">X2:3</text>
<polygon fill="#ffff00" stroke="transparent" stroke-width="2" points="350.5,-586.5 350.5,-592.5 483.5,-592.5 483.5,-586.5 350.5,-586.5"/>
<polyline fill="none" stroke="black" stroke-width="2" points="351.5,-587.5 482.5,-587.5 "/>
<polyline fill="none" stroke="black" stroke-width="2" points="482.5,-591.5 351.5,-591.5 "/>
<text text-anchor="start" x="360" y="-573.3" font-family="arial" font-size="14.00">X3:4</text>
<text text-anchor="start" x="408" y="-573.3" font-family="arial" font-size="14.00">VT</text>
<text text-anchor="start" x="446" y="-573.3" font-family="arial" font-size="14.00">X2:4</text>
<polygon fill="#8000ff" stroke="transparent" stroke-width="2" points="350.5,-561.5 350.5,-567.5 483.5,-567.5 483.5,-561.5 350.5,-561.5"/>
<polyline fill="none" stroke="black" stroke-width="2" points="351.5,-562.5 482.5,-562.5 "/>
<polyline fill="none" stroke="black" stroke-width="2" points="482.5,-566.5 351.5,-566.5 "/>
<text text-anchor="start" x="372" y="-548.3" font-family="arial" font-size="14.00"> </text>
</g>
<!-- X3&#45;&#45;W2 -->
<g id="edge9" class="edge">
<title>X3:e&#45;&#45;W2:w</title>
<path fill="none" stroke="#000000" stroke-width="2" d="M206,-544.5C284.18,-546.68 275.81,-639.68 350,-637.5"/>
<path fill="none" stroke="#ff66cc" stroke-width="2" d="M206,-546.5C282.19,-546.5 273.81,-639.5 350,-639.5"/>
<path fill="none" stroke="#000000" stroke-width="2" d="M206,-548.5C280.19,-546.32 271.82,-639.32 350,-641.5"/>
</g>
<!-- X3&#45;&#45;W2 -->
<g id="edge11" class="edge">
<title>X3:e&#45;&#45;W2:w</title>
<path fill="none" stroke="#000000" stroke-width="2" d="M206,-520.5C283.94,-522.67 276.05,-614.67 350,-612.5"/>
<path fill="none" stroke="#00ffff" stroke-width="2" d="M206,-522.5C281.95,-522.5 274.05,-614.5 350,-614.5"/>
<path fill="none" stroke="#000000" stroke-width="2" d="M206,-524.5C279.95,-522.33 272.06,-614.33 350,-616.5"/>
</g>
<!-- X3&#45;&#45;W2 -->
<g id="edge13" class="edge">
<title>X3:e&#45;&#45;W2:w</title>
<path fill="none" stroke="#000000" stroke-width="2" d="M206,-497.5C283.47,-499.65 276.52,-589.65 350,-587.5"/>
<path fill="none" stroke="#ffff00" stroke-width="2" d="M206,-499.5C281.47,-499.5 274.53,-589.5 350,-589.5"/>
<path fill="none" stroke="#000000" stroke-width="2" d="M206,-501.5C279.48,-499.35 272.53,-589.35 350,-591.5"/>
</g>
<!-- X3&#45;&#45;W2 -->
<g id="edge15" class="edge">
<title>X3:e&#45;&#45;W2:w</title>
<path fill="none" stroke="#000000" stroke-width="2" d="M206,-474.5C283,-476.64 276.99,-564.64 350,-562.5"/>
<path fill="none" stroke="#8000ff" stroke-width="2" d="M206,-476.5C281,-476.5 275,-564.5 350,-564.5"/>
<path fill="none" stroke="#000000" stroke-width="2" d="M206,-478.5C279.01,-476.36 273,-564.36 350,-566.5"/>
</g>
<!-- W3 -->
<g id="node9" class="node">
<title>W3</title>
<polygon fill="white" stroke="black" stroke-dasharray="5,2" points="483,-519 350,-519 350,-362 483,-362 483,-519"/>
<polygon fill="none" stroke="black" points="350.5,-495.5 350.5,-518.5 373.5,-518.5 373.5,-495.5 350.5,-495.5"/>
<text text-anchor="start" x="354.5" y="-503.3" font-family="arial" font-size="14.00">4x</text>
<polygon fill="none" stroke="black" points="373.5,-495.5 373.5,-518.5 440.5,-518.5 440.5,-495.5 373.5,-495.5"/>
<text text-anchor="start" x="377.5" y="-503.3" font-family="arial" font-size="14.00">0.25 mm²</text>
<polygon fill="none" stroke="black" points="440.5,-495.5 440.5,-518.5 483.5,-518.5 483.5,-495.5 440.5,-495.5"/>
<text text-anchor="start" x="444.5" y="-503.3" font-family="arial" font-size="14.00">0.2 m</text>
<text text-anchor="start" x="415" y="-484.3" font-family="arial" font-size="14.00"> </text>
<text text-anchor="start" x="360" y="-467.3" font-family="arial" font-size="14.00">X3:1</text>
<text text-anchor="start" x="407.5" y="-467.3" font-family="arial" font-size="14.00">PK</text>
<text text-anchor="start" x="446" y="-467.3" font-family="arial" font-size="14.00">X4:1</text>
<polygon fill="#ff66cc" stroke="transparent" points="350.5,-455.5 350.5,-461.5 483.5,-461.5 483.5,-455.5 350.5,-455.5"/>
<polyline fill="none" stroke="black" stroke-width="2" points="351.5,-456.5 482.5,-456.5 "/>
<polyline fill="none" stroke="black" stroke-width="2" points="482.5,-460.5 351.5,-460.5 "/>
<text text-anchor="start" x="360" y="-442.3" font-family="arial" font-size="14.00">X3:2</text>
<text text-anchor="start" x="407" y="-442.3" font-family="arial" font-size="14.00">TQ</text>
<text text-anchor="start" x="446" y="-442.3" font-family="arial" font-size="14.00">X4:2</text>
<polygon fill="#00ffff" stroke="transparent" stroke-width="2" points="350.5,-430.5 350.5,-436.5 483.5,-436.5 483.5,-430.5 350.5,-430.5"/>
<polyline fill="none" stroke="black" stroke-width="2" points="351.5,-431.5 482.5,-431.5 "/>
<polyline fill="none" stroke="black" stroke-width="2" points="482.5,-435.5 351.5,-435.5 "/>
<text text-anchor="start" x="360" y="-417.3" font-family="arial" font-size="14.00">X3:3</text>
<text text-anchor="start" x="407.5" y="-417.3" font-family="arial" font-size="14.00">YE</text>
<text text-anchor="start" x="446" y="-417.3" font-family="arial" font-size="14.00">X4:3</text>
<polygon fill="#ffff00" stroke="transparent" stroke-width="2" points="350.5,-405.5 350.5,-411.5 483.5,-411.5 483.5,-405.5 350.5,-405.5"/>
<polyline fill="none" stroke="black" stroke-width="2" points="351.5,-406.5 482.5,-406.5 "/>
<polyline fill="none" stroke="black" stroke-width="2" points="482.5,-410.5 351.5,-410.5 "/>
<text text-anchor="start" x="360" y="-392.3" font-family="arial" font-size="14.00">X3:4</text>
<text text-anchor="start" x="408" y="-392.3" font-family="arial" font-size="14.00">VT</text>
<text text-anchor="start" x="446" y="-392.3" font-family="arial" font-size="14.00">X4:4</text>
<polygon fill="#8000ff" stroke="transparent" stroke-width="2" points="350.5,-380.5 350.5,-386.5 483.5,-386.5 483.5,-380.5 350.5,-380.5"/>
<polyline fill="none" stroke="black" stroke-width="2" points="351.5,-381.5 482.5,-381.5 "/>
<polyline fill="none" stroke="black" stroke-width="2" points="482.5,-385.5 351.5,-385.5 "/>
<text text-anchor="start" x="372" y="-367.3" font-family="arial" font-size="14.00"> </text>
</g>
<!-- X3&#45;&#45;W3 -->
<g id="edge17" class="edge">
<title>X3:e&#45;&#45;W3:w</title>
<path fill="none" stroke="#000000" stroke-width="2" d="M206,-544.5C279.01,-546.64 273,-458.64 350,-456.5"/>
<path fill="none" stroke="#ff66cc" stroke-width="2" d="M206,-546.5C281,-546.5 275,-458.5 350,-458.5"/>
<path fill="none" stroke="#000000" stroke-width="2" d="M206,-548.5C283,-546.36 276.99,-458.36 350,-460.5"/>
</g>
<!-- X3&#45;&#45;W3 -->
<g id="edge19" class="edge">
<title>X3:e&#45;&#45;W3:w</title>
<path fill="none" stroke="#000000" stroke-width="2" d="M206,-520.5C279.24,-522.65 272.77,-433.65 350,-431.5"/>
<path fill="none" stroke="#00ffff" stroke-width="2" d="M206,-522.5C281.24,-522.5 274.76,-433.5 350,-433.5"/>
<path fill="none" stroke="#000000" stroke-width="2" d="M206,-524.5C283.23,-522.35 276.76,-433.35 350,-435.5"/>
</g>
<!-- X3&#45;&#45;W3 -->
<g id="edge21" class="edge">
<title>X3:e&#45;&#45;W3:w</title>
<path fill="none" stroke="#000000" stroke-width="2" d="M206,-497.5C279.71,-499.66 272.3,-408.66 350,-406.5"/>
<path fill="none" stroke="#ffff00" stroke-width="2" d="M206,-499.5C281.71,-499.5 274.29,-408.5 350,-408.5"/>
<path fill="none" stroke="#000000" stroke-width="2" d="M206,-501.5C283.7,-499.34 276.29,-408.34 350,-410.5"/>
</g>
<!-- X3&#45;&#45;W3 -->
<g id="edge23" class="edge">
<title>X3:e&#45;&#45;W3:w</title>
<path fill="none" stroke="#000000" stroke-width="2" d="M206,-474.5C280.19,-476.68 271.82,-383.68 350,-381.5"/>
<path fill="none" stroke="#8000ff" stroke-width="2" d="M206,-476.5C282.19,-476.5 273.81,-383.5 350,-383.5"/>
<path fill="none" stroke="#000000" stroke-width="2" d="M206,-478.5C284.18,-476.32 275.81,-383.32 350,-385.5"/>
</g>
<!-- X4 -->
<g id="node4" class="node">
<title>X4</title>
<polygon fill="white" stroke="black" points="627,-284.5 627,-422.5 833,-422.5 833,-284.5 627,-284.5"/>
<text text-anchor="middle" x="730" y="-407.3" font-family="arial" font-size="14.00">X4</text>
<polyline fill="none" stroke="black" points="627,-399.5 833,-399.5 "/>
<text text-anchor="middle" x="677.5" y="-384.3" font-family="arial" font-size="14.00">Molex KK 254</text>
<polyline fill="none" stroke="black" points="728,-376.5 728,-399.5 "/>
<text text-anchor="middle" x="757" y="-384.3" font-family="arial" font-size="14.00">female</text>
<polyline fill="none" stroke="black" points="786,-376.5 786,-399.5 "/>
<text text-anchor="middle" x="809.5" y="-384.3" font-family="arial" font-size="14.00">4&#45;pin</text>
<polyline fill="none" stroke="black" points="627,-376.5 833,-376.5 "/>
<text text-anchor="middle" x="672.5" y="-361.3" font-family="arial" font-size="14.00">1</text>
<polyline fill="none" stroke="black" points="627,-353.5 718,-353.5 "/>
<text text-anchor="middle" x="672.5" y="-338.3" font-family="arial" font-size="14.00">2</text>
<polyline fill="none" stroke="black" points="627,-330.5 718,-330.5 "/>
<text text-anchor="middle" x="672.5" y="-315.3" font-family="arial" font-size="14.00">3</text>
<polyline fill="none" stroke="black" points="627,-307.5 718,-307.5 "/>
<text text-anchor="middle" x="672.5" y="-292.3" font-family="arial" font-size="14.00">4</text>
<polyline fill="none" stroke="black" points="718,-284.5 718,-376.5 "/>
<text text-anchor="middle" x="775.5" y="-361.3" font-family="arial" font-size="14.00">GND</text>
<polyline fill="none" stroke="black" points="718,-353.5 833,-353.5 "/>
<text text-anchor="middle" x="775.5" y="-338.3" font-family="arial" font-size="14.00">VCC</text>
<polyline fill="none" stroke="black" points="718,-330.5 833,-330.5 "/>
<text text-anchor="middle" x="775.5" y="-315.3" font-family="arial" font-size="14.00">SCL</text>
<polyline fill="none" stroke="black" points="718,-307.5 833,-307.5 "/>
<text text-anchor="middle" x="775.5" y="-292.3" font-family="arial" font-size="14.00">SDA</text>
</g>
<!-- X5 -->
<g id="node5" class="node">
<title>X5</title>
<polygon fill="white" stroke="black" points="0,-103.5 0,-241.5 206,-241.5 206,-103.5 0,-103.5"/>
<text text-anchor="middle" x="103" y="-226.3" font-family="arial" font-size="14.00">X5</text>
<polyline fill="none" stroke="black" points="0,-218.5 206,-218.5 "/>
<text text-anchor="middle" x="50.5" y="-203.3" font-family="arial" font-size="14.00">Molex KK 254</text>
<polyline fill="none" stroke="black" points="101,-195.5 101,-218.5 "/>
<text text-anchor="middle" x="130" y="-203.3" font-family="arial" font-size="14.00">female</text>
<polyline fill="none" stroke="black" points="159,-195.5 159,-218.5 "/>
<text text-anchor="middle" x="182.5" y="-203.3" font-family="arial" font-size="14.00">4&#45;pin</text>
<polyline fill="none" stroke="black" points="0,-195.5 206,-195.5 "/>
<text text-anchor="middle" x="57" y="-180.3" font-family="arial" font-size="14.00">GND</text>
<polyline fill="none" stroke="black" points="0,-172.5 114,-172.5 "/>
<text text-anchor="middle" x="57" y="-157.3" font-family="arial" font-size="14.00">VCC</text>
<polyline fill="none" stroke="black" points="0,-149.5 114,-149.5 "/>
<text text-anchor="middle" x="57" y="-134.3" font-family="arial" font-size="14.00">SCL</text>
<polyline fill="none" stroke="black" points="0,-126.5 114,-126.5 "/>
<text text-anchor="middle" x="57" y="-111.3" font-family="arial" font-size="14.00">SDA</text>
<polyline fill="none" stroke="black" points="114,-103.5 114,-195.5 "/>
<text text-anchor="middle" x="160" y="-180.3" font-family="arial" font-size="14.00">1</text>
<polyline fill="none" stroke="black" points="114,-172.5 206,-172.5 "/>
<text text-anchor="middle" x="160" y="-157.3" font-family="arial" font-size="14.00">2</text>
<polyline fill="none" stroke="black" points="114,-149.5 206,-149.5 "/>
<text text-anchor="middle" x="160" y="-134.3" font-family="arial" font-size="14.00">3</text>
<polyline fill="none" stroke="black" points="114,-126.5 206,-126.5 "/>
<text text-anchor="middle" x="160" y="-111.3" font-family="arial" font-size="14.00">4</text>
</g>
<!-- W4 -->
<g id="node10" class="node">
<title>W4</title>
<polygon fill="white" stroke="black" stroke-dasharray="5,2" points="483,-338 350,-338 350,-181 483,-181 483,-338"/>
<polygon fill="none" stroke="black" points="350.5,-314.5 350.5,-337.5 373.5,-337.5 373.5,-314.5 350.5,-314.5"/>
<text text-anchor="start" x="354.5" y="-322.3" font-family="arial" font-size="14.00">4x</text>
<polygon fill="none" stroke="black" points="373.5,-314.5 373.5,-337.5 440.5,-337.5 440.5,-314.5 373.5,-314.5"/>
<text text-anchor="start" x="377.5" y="-322.3" font-family="arial" font-size="14.00">0.25 mm²</text>
<polygon fill="none" stroke="black" points="440.5,-314.5 440.5,-337.5 483.5,-337.5 483.5,-314.5 440.5,-314.5"/>
<text text-anchor="start" x="444.5" y="-322.3" font-family="arial" font-size="14.00">0.2 m</text>
<text text-anchor="start" x="415" y="-303.3" font-family="arial" font-size="14.00"> </text>
<text text-anchor="start" x="360" y="-286.3" font-family="arial" font-size="14.00">X5:1</text>
<text text-anchor="start" x="407.5" y="-286.3" font-family="arial" font-size="14.00">PK</text>
<text text-anchor="start" x="446" y="-286.3" font-family="arial" font-size="14.00">X4:1</text>
<polygon fill="#ff66cc" stroke="transparent" points="350.5,-274.5 350.5,-280.5 483.5,-280.5 483.5,-274.5 350.5,-274.5"/>
<polyline fill="none" stroke="black" stroke-width="2" points="351.5,-275.5 482.5,-275.5 "/>
<polyline fill="none" stroke="black" stroke-width="2" points="482.5,-279.5 351.5,-279.5 "/>
<text text-anchor="start" x="360" y="-261.3" font-family="arial" font-size="14.00">X5:2</text>
<text text-anchor="start" x="407" y="-261.3" font-family="arial" font-size="14.00">TQ</text>
<text text-anchor="start" x="446" y="-261.3" font-family="arial" font-size="14.00">X4:2</text>
<polygon fill="#00ffff" stroke="transparent" stroke-width="2" points="350.5,-249.5 350.5,-255.5 483.5,-255.5 483.5,-249.5 350.5,-249.5"/>
<polyline fill="none" stroke="black" stroke-width="2" points="351.5,-250.5 482.5,-250.5 "/>
<polyline fill="none" stroke="black" stroke-width="2" points="482.5,-254.5 351.5,-254.5 "/>
<text text-anchor="start" x="360" y="-236.3" font-family="arial" font-size="14.00">X5:3</text>
<text text-anchor="start" x="407.5" y="-236.3" font-family="arial" font-size="14.00">YE</text>
<text text-anchor="start" x="446" y="-236.3" font-family="arial" font-size="14.00">X4:3</text>
<polygon fill="#ffff00" stroke="transparent" stroke-width="2" points="350.5,-224.5 350.5,-230.5 483.5,-230.5 483.5,-224.5 350.5,-224.5"/>
<polyline fill="none" stroke="black" stroke-width="2" points="351.5,-225.5 482.5,-225.5 "/>
<polyline fill="none" stroke="black" stroke-width="2" points="482.5,-229.5 351.5,-229.5 "/>
<text text-anchor="start" x="360" y="-211.3" font-family="arial" font-size="14.00">X5:4</text>
<text text-anchor="start" x="408" y="-211.3" font-family="arial" font-size="14.00">VT</text>
<text text-anchor="start" x="446" y="-211.3" font-family="arial" font-size="14.00">X4:4</text>
<polygon fill="#8000ff" stroke="transparent" stroke-width="2" points="350.5,-199.5 350.5,-205.5 483.5,-205.5 483.5,-199.5 350.5,-199.5"/>
<polyline fill="none" stroke="black" stroke-width="2" points="351.5,-200.5 482.5,-200.5 "/>
<polyline fill="none" stroke="black" stroke-width="2" points="482.5,-204.5 351.5,-204.5 "/>
<text text-anchor="start" x="372" y="-186.3" font-family="arial" font-size="14.00"> </text>
</g>
<!-- X5&#45;&#45;W4 -->
<g id="edge25" class="edge">
<title>X5:e&#45;&#45;W4:w</title>
<path fill="none" stroke="#000000" stroke-width="2" d="M206,-182.5C284.18,-184.68 275.81,-277.68 350,-275.5"/>
<path fill="none" stroke="#ff66cc" stroke-width="2" d="M206,-184.5C282.19,-184.5 273.81,-277.5 350,-277.5"/>
<path fill="none" stroke="#000000" stroke-width="2" d="M206,-186.5C280.19,-184.32 271.82,-277.32 350,-279.5"/>
</g>
<!-- X5&#45;&#45;W4 -->
<g id="edge27" class="edge">
<title>X5:e&#45;&#45;W4:w</title>
<path fill="none" stroke="#000000" stroke-width="2" d="M206,-158.5C283.94,-160.67 276.05,-252.67 350,-250.5"/>
<path fill="none" stroke="#00ffff" stroke-width="2" d="M206,-160.5C281.95,-160.5 274.05,-252.5 350,-252.5"/>
<path fill="none" stroke="#000000" stroke-width="2" d="M206,-162.5C279.95,-160.33 272.06,-252.33 350,-254.5"/>
</g>
<!-- X5&#45;&#45;W4 -->
<g id="edge29" class="edge">
<title>X5:e&#45;&#45;W4:w</title>
<path fill="none" stroke="#000000" stroke-width="2" d="M206,-135.5C283.47,-137.65 276.52,-227.65 350,-225.5"/>
<path fill="none" stroke="#ffff00" stroke-width="2" d="M206,-137.5C281.47,-137.5 274.53,-227.5 350,-227.5"/>
<path fill="none" stroke="#000000" stroke-width="2" d="M206,-139.5C279.48,-137.35 272.53,-227.35 350,-229.5"/>
</g>
<!-- X5&#45;&#45;W4 -->
<g id="edge31" class="edge">
<title>X5:e&#45;&#45;W4:w</title>
<path fill="none" stroke="#000000" stroke-width="2" d="M206,-112.5C283,-114.64 276.99,-202.64 350,-200.5"/>
<path fill="none" stroke="#8000ff" stroke-width="2" d="M206,-114.5C281,-114.5 275,-202.5 350,-202.5"/>
<path fill="none" stroke="#000000" stroke-width="2" d="M206,-116.5C279.01,-114.36 273,-202.36 350,-204.5"/>
</g>
<!-- W5 -->
<g id="node11" class="node">
<title>W5</title>
<polygon fill="white" stroke="black" stroke-dasharray="5,2" points="483,-157 350,-157 350,0 483,0 483,-157"/>
<polygon fill="none" stroke="black" points="350.5,-133.5 350.5,-156.5 373.5,-156.5 373.5,-133.5 350.5,-133.5"/>
<text text-anchor="start" x="354.5" y="-141.3" font-family="arial" font-size="14.00">4x</text>
<polygon fill="none" stroke="black" points="373.5,-133.5 373.5,-156.5 440.5,-156.5 440.5,-133.5 373.5,-133.5"/>
<text text-anchor="start" x="377.5" y="-141.3" font-family="arial" font-size="14.00">0.25 mm²</text>
<polygon fill="none" stroke="black" points="440.5,-133.5 440.5,-156.5 483.5,-156.5 483.5,-133.5 440.5,-133.5"/>
<text text-anchor="start" x="444.5" y="-141.3" font-family="arial" font-size="14.00">0.2 m</text>
<text text-anchor="start" x="415" y="-122.3" font-family="arial" font-size="14.00"> </text>
<text text-anchor="start" x="360" y="-105.3" font-family="arial" font-size="14.00">X5:1</text>
<text text-anchor="start" x="407.5" y="-105.3" font-family="arial" font-size="14.00">PK</text>
<text text-anchor="start" x="446" y="-105.3" font-family="arial" font-size="14.00">X6:1</text>
<polygon fill="#ff66cc" stroke="transparent" points="350.5,-93.5 350.5,-99.5 483.5,-99.5 483.5,-93.5 350.5,-93.5"/>
<polyline fill="none" stroke="black" stroke-width="2" points="351.5,-94.5 482.5,-94.5 "/>
<polyline fill="none" stroke="black" stroke-width="2" points="482.5,-98.5 351.5,-98.5 "/>
<text text-anchor="start" x="360" y="-80.3" font-family="arial" font-size="14.00">X5:2</text>
<text text-anchor="start" x="407" y="-80.3" font-family="arial" font-size="14.00">TQ</text>
<text text-anchor="start" x="446" y="-80.3" font-family="arial" font-size="14.00">X6:2</text>
<polygon fill="#00ffff" stroke="transparent" stroke-width="2" points="350.5,-68.5 350.5,-74.5 483.5,-74.5 483.5,-68.5 350.5,-68.5"/>
<polyline fill="none" stroke="black" stroke-width="2" points="351.5,-69.5 482.5,-69.5 "/>
<polyline fill="none" stroke="black" stroke-width="2" points="482.5,-73.5 351.5,-73.5 "/>
<text text-anchor="start" x="360" y="-55.3" font-family="arial" font-size="14.00">X5:3</text>
<text text-anchor="start" x="407.5" y="-55.3" font-family="arial" font-size="14.00">YE</text>
<text text-anchor="start" x="446" y="-55.3" font-family="arial" font-size="14.00">X6:3</text>
<polygon fill="#ffff00" stroke="transparent" stroke-width="2" points="350.5,-43.5 350.5,-49.5 483.5,-49.5 483.5,-43.5 350.5,-43.5"/>
<polyline fill="none" stroke="black" stroke-width="2" points="351.5,-44.5 482.5,-44.5 "/>
<polyline fill="none" stroke="black" stroke-width="2" points="482.5,-48.5 351.5,-48.5 "/>
<text text-anchor="start" x="360" y="-30.3" font-family="arial" font-size="14.00">X5:4</text>
<text text-anchor="start" x="408" y="-30.3" font-family="arial" font-size="14.00">VT</text>
<text text-anchor="start" x="446" y="-30.3" font-family="arial" font-size="14.00">X6:4</text>
<polygon fill="#8000ff" stroke="transparent" stroke-width="2" points="350.5,-18.5 350.5,-24.5 483.5,-24.5 483.5,-18.5 350.5,-18.5"/>
<polyline fill="none" stroke="black" stroke-width="2" points="351.5,-19.5 482.5,-19.5 "/>
<polyline fill="none" stroke="black" stroke-width="2" points="482.5,-23.5 351.5,-23.5 "/>
<text text-anchor="start" x="372" y="-5.3" font-family="arial" font-size="14.00"> </text>
</g>
<!-- X5&#45;&#45;W5 -->
<g id="edge33" class="edge">
<title>X5:e&#45;&#45;W5:w</title>
<path fill="none" stroke="#000000" stroke-width="2" d="M206,-182.5C279.01,-184.64 273,-96.64 350,-94.5"/>
<path fill="none" stroke="#ff66cc" stroke-width="2" d="M206,-184.5C281,-184.5 275,-96.5 350,-96.5"/>
<path fill="none" stroke="#000000" stroke-width="2" d="M206,-186.5C283,-184.36 276.99,-96.36 350,-98.5"/>
</g>
<!-- X5&#45;&#45;W5 -->
<g id="edge35" class="edge">
<title>X5:e&#45;&#45;W5:w</title>
<path fill="none" stroke="#000000" stroke-width="2" d="M206,-158.5C279.24,-160.65 272.77,-71.65 350,-69.5"/>
<path fill="none" stroke="#00ffff" stroke-width="2" d="M206,-160.5C281.24,-160.5 274.76,-71.5 350,-71.5"/>
<path fill="none" stroke="#000000" stroke-width="2" d="M206,-162.5C283.23,-160.35 276.76,-71.35 350,-73.5"/>
</g>
<!-- X5&#45;&#45;W5 -->
<g id="edge37" class="edge">
<title>X5:e&#45;&#45;W5:w</title>
<path fill="none" stroke="#000000" stroke-width="2" d="M206,-135.5C279.71,-137.66 272.3,-46.66 350,-44.5"/>
<path fill="none" stroke="#ffff00" stroke-width="2" d="M206,-137.5C281.71,-137.5 274.29,-46.5 350,-46.5"/>
<path fill="none" stroke="#000000" stroke-width="2" d="M206,-139.5C283.7,-137.34 276.29,-46.34 350,-48.5"/>
</g>
<!-- X5&#45;&#45;W5 -->
<g id="edge39" class="edge">
<title>X5:e&#45;&#45;W5:w</title>
<path fill="none" stroke="#000000" stroke-width="2" d="M206,-112.5C280.19,-114.68 271.82,-21.68 350,-19.5"/>
<path fill="none" stroke="#8000ff" stroke-width="2" d="M206,-114.5C282.19,-114.5 273.81,-21.5 350,-21.5"/>
<path fill="none" stroke="#000000" stroke-width="2" d="M206,-116.5C284.18,-114.32 275.81,-21.32 350,-23.5"/>
</g>
<!-- X6 -->
<g id="node6" class="node">
<title>X6</title>
<polygon fill="white" stroke="black" points="627,-13.5 627,-151.5 833,-151.5 833,-13.5 627,-13.5"/>
<text text-anchor="middle" x="730" y="-136.3" font-family="arial" font-size="14.00">X6</text>
<polyline fill="none" stroke="black" points="627,-128.5 833,-128.5 "/>
<text text-anchor="middle" x="677.5" y="-113.3" font-family="arial" font-size="14.00">Molex KK 254</text>
<polyline fill="none" stroke="black" points="728,-105.5 728,-128.5 "/>
<text text-anchor="middle" x="757" y="-113.3" font-family="arial" font-size="14.00">female</text>
<polyline fill="none" stroke="black" points="786,-105.5 786,-128.5 "/>
<text text-anchor="middle" x="809.5" y="-113.3" font-family="arial" font-size="14.00">4&#45;pin</text>
<polyline fill="none" stroke="black" points="627,-105.5 833,-105.5 "/>
<text text-anchor="middle" x="672.5" y="-90.3" font-family="arial" font-size="14.00">1</text>
<polyline fill="none" stroke="black" points="627,-82.5 718,-82.5 "/>
<text text-anchor="middle" x="672.5" y="-67.3" font-family="arial" font-size="14.00">2</text>
<polyline fill="none" stroke="black" points="627,-59.5 718,-59.5 "/>
<text text-anchor="middle" x="672.5" y="-44.3" font-family="arial" font-size="14.00">3</text>
<polyline fill="none" stroke="black" points="627,-36.5 718,-36.5 "/>
<text text-anchor="middle" x="672.5" y="-21.3" font-family="arial" font-size="14.00">4</text>
<polyline fill="none" stroke="black" points="718,-13.5 718,-105.5 "/>
<text text-anchor="middle" x="775.5" y="-90.3" font-family="arial" font-size="14.00">GND</text>
<polyline fill="none" stroke="black" points="718,-82.5 833,-82.5 "/>
<text text-anchor="middle" x="775.5" y="-67.3" font-family="arial" font-size="14.00">VCC</text>
<polyline fill="none" stroke="black" points="718,-59.5 833,-59.5 "/>
<text text-anchor="middle" x="775.5" y="-44.3" font-family="arial" font-size="14.00">SCL</text>
<polyline fill="none" stroke="black" points="718,-36.5 833,-36.5 "/>
<text text-anchor="middle" x="775.5" y="-21.3" font-family="arial" font-size="14.00">SDA</text>
</g>
<!-- W1&#45;&#45;X2 -->
<g id="edge2" class="edge">
<title>W1:e&#45;&#45;X2:w</title>
<path fill="none" stroke="#000000" stroke-width="2" d="M483,-818.5C557.19,-820.68 548.82,-727.68 627,-725.5"/>
<path fill="none" stroke="#ff66cc" stroke-width="2" d="M483,-820.5C559.19,-820.5 550.81,-727.5 627,-727.5"/>
<path fill="none" stroke="#000000" stroke-width="2" d="M483,-822.5C561.18,-820.32 552.81,-727.32 627,-729.5"/>
</g>
<!-- W1&#45;&#45;X2 -->
<g id="edge4" class="edge">
<title>W1:e&#45;&#45;X2:w</title>
<path fill="none" stroke="#000000" stroke-width="2" d="M483,-793.5C556.95,-795.67 549.06,-703.67 627,-701.5"/>
<path fill="none" stroke="#00ffff" stroke-width="2" d="M483,-795.5C558.95,-795.5 551.05,-703.5 627,-703.5"/>
<path fill="none" stroke="#000000" stroke-width="2" d="M483,-797.5C560.94,-795.33 553.05,-703.33 627,-705.5"/>
</g>
<!-- W1&#45;&#45;X2 -->
<g id="edge6" class="edge">
<title>W1:e&#45;&#45;X2:w</title>
<path fill="none" stroke="#000000" stroke-width="2" d="M483,-768.5C556.48,-770.65 549.53,-680.65 627,-678.5"/>
<path fill="none" stroke="#ffff00" stroke-width="2" d="M483,-770.5C558.47,-770.5 551.53,-680.5 627,-680.5"/>
<path fill="none" stroke="#000000" stroke-width="2" d="M483,-772.5C560.47,-770.35 553.52,-680.35 627,-682.5"/>
</g>
<!-- W1&#45;&#45;X2 -->
<g id="edge8" class="edge">
<title>W1:e&#45;&#45;X2:w</title>
<path fill="none" stroke="#000000" stroke-width="2" d="M483,-743.5C556.01,-745.64 550,-657.64 627,-655.5"/>
<path fill="none" stroke="#8000ff" stroke-width="2" d="M483,-745.5C558,-745.5 552,-657.5 627,-657.5"/>
<path fill="none" stroke="#000000" stroke-width="2" d="M483,-747.5C560,-745.36 553.99,-657.36 627,-659.5"/>
</g>
<!-- W2&#45;&#45;X2 -->
<g id="edge10" class="edge">
<title>W2:e&#45;&#45;X2:w</title>
<path fill="none" stroke="#000000" stroke-width="2" d="M483,-637.5C560,-639.64 553.99,-727.64 627,-725.5"/>
<path fill="none" stroke="#ff66cc" stroke-width="2" d="M483,-639.5C558,-639.5 552,-727.5 627,-727.5"/>
<path fill="none" stroke="#000000" stroke-width="2" d="M483,-641.5C556.01,-639.36 550,-727.36 627,-729.5"/>
</g>
<!-- W2&#45;&#45;X2 -->
<g id="edge12" class="edge">
<title>W2:e&#45;&#45;X2:w</title>
<path fill="none" stroke="#000000" stroke-width="2" d="M483,-612.5C560.23,-614.65 553.76,-703.65 627,-701.5"/>
<path fill="none" stroke="#00ffff" stroke-width="2" d="M483,-614.5C558.24,-614.5 551.76,-703.5 627,-703.5"/>
<path fill="none" stroke="#000000" stroke-width="2" d="M483,-616.5C556.24,-614.35 549.77,-703.35 627,-705.5"/>
</g>
<!-- W2&#45;&#45;X2 -->
<g id="edge14" class="edge">
<title>W2:e&#45;&#45;X2:w</title>
<path fill="none" stroke="#000000" stroke-width="2" d="M483,-587.5C560.7,-589.66 553.29,-680.66 627,-678.5"/>
<path fill="none" stroke="#ffff00" stroke-width="2" d="M483,-589.5C558.71,-589.5 551.29,-680.5 627,-680.5"/>
<path fill="none" stroke="#000000" stroke-width="2" d="M483,-591.5C556.71,-589.34 549.3,-680.34 627,-682.5"/>
</g>
<!-- W2&#45;&#45;X2 -->
<g id="edge16" class="edge">
<title>W2:e&#45;&#45;X2:w</title>
<path fill="none" stroke="#000000" stroke-width="2" d="M483,-562.5C561.18,-564.68 552.81,-657.68 627,-655.5"/>
<path fill="none" stroke="#8000ff" stroke-width="2" d="M483,-564.5C559.19,-564.5 550.81,-657.5 627,-657.5"/>
<path fill="none" stroke="#000000" stroke-width="2" d="M483,-566.5C557.19,-564.32 548.82,-657.32 627,-659.5"/>
</g>
<!-- W3&#45;&#45;X4 -->
<g id="edge18" class="edge">
<title>W3:e&#45;&#45;X4:w</title>
<path fill="none" stroke="#000000" stroke-width="2" d="M483,-456.5C557.19,-458.68 548.82,-365.68 627,-363.5"/>
<path fill="none" stroke="#ff66cc" stroke-width="2" d="M483,-458.5C559.19,-458.5 550.81,-365.5 627,-365.5"/>
<path fill="none" stroke="#000000" stroke-width="2" d="M483,-460.5C561.18,-458.32 552.81,-365.32 627,-367.5"/>
</g>
<!-- W3&#45;&#45;X4 -->
<g id="edge20" class="edge">
<title>W3:e&#45;&#45;X4:w</title>
<path fill="none" stroke="#000000" stroke-width="2" d="M483,-431.5C556.95,-433.67 549.06,-341.67 627,-339.5"/>
<path fill="none" stroke="#00ffff" stroke-width="2" d="M483,-433.5C558.95,-433.5 551.05,-341.5 627,-341.5"/>
<path fill="none" stroke="#000000" stroke-width="2" d="M483,-435.5C560.94,-433.33 553.05,-341.33 627,-343.5"/>
</g>
<!-- W3&#45;&#45;X4 -->
<g id="edge22" class="edge">
<title>W3:e&#45;&#45;X4:w</title>
<path fill="none" stroke="#000000" stroke-width="2" d="M483,-406.5C556.48,-408.65 549.53,-318.65 627,-316.5"/>
<path fill="none" stroke="#ffff00" stroke-width="2" d="M483,-408.5C558.47,-408.5 551.53,-318.5 627,-318.5"/>
<path fill="none" stroke="#000000" stroke-width="2" d="M483,-410.5C560.47,-408.35 553.52,-318.35 627,-320.5"/>
</g>
<!-- W3&#45;&#45;X4 -->
<g id="edge24" class="edge">
<title>W3:e&#45;&#45;X4:w</title>
<path fill="none" stroke="#000000" stroke-width="2" d="M483,-381.5C556.01,-383.64 550,-295.64 627,-293.5"/>
<path fill="none" stroke="#8000ff" stroke-width="2" d="M483,-383.5C558,-383.5 552,-295.5 627,-295.5"/>
<path fill="none" stroke="#000000" stroke-width="2" d="M483,-385.5C560,-383.36 553.99,-295.36 627,-297.5"/>
</g>
<!-- W4&#45;&#45;X4 -->
<g id="edge26" class="edge">
<title>W4:e&#45;&#45;X4:w</title>
<path fill="none" stroke="#000000" stroke-width="2" d="M483,-275.5C560,-277.64 553.99,-365.64 627,-363.5"/>
<path fill="none" stroke="#ff66cc" stroke-width="2" d="M483,-277.5C558,-277.5 552,-365.5 627,-365.5"/>
<path fill="none" stroke="#000000" stroke-width="2" d="M483,-279.5C556.01,-277.36 550,-365.36 627,-367.5"/>
</g>
<!-- W4&#45;&#45;X4 -->
<g id="edge28" class="edge">
<title>W4:e&#45;&#45;X4:w</title>
<path fill="none" stroke="#000000" stroke-width="2" d="M483,-250.5C560.23,-252.65 553.76,-341.65 627,-339.5"/>
<path fill="none" stroke="#00ffff" stroke-width="2" d="M483,-252.5C558.24,-252.5 551.76,-341.5 627,-341.5"/>
<path fill="none" stroke="#000000" stroke-width="2" d="M483,-254.5C556.24,-252.35 549.77,-341.35 627,-343.5"/>
</g>
<!-- W4&#45;&#45;X4 -->
<g id="edge30" class="edge">
<title>W4:e&#45;&#45;X4:w</title>
<path fill="none" stroke="#000000" stroke-width="2" d="M483,-225.5C560.7,-227.66 553.29,-318.66 627,-316.5"/>
<path fill="none" stroke="#ffff00" stroke-width="2" d="M483,-227.5C558.71,-227.5 551.29,-318.5 627,-318.5"/>
<path fill="none" stroke="#000000" stroke-width="2" d="M483,-229.5C556.71,-227.34 549.3,-318.34 627,-320.5"/>
</g>
<!-- W4&#45;&#45;X4 -->
<g id="edge32" class="edge">
<title>W4:e&#45;&#45;X4:w</title>
<path fill="none" stroke="#000000" stroke-width="2" d="M483,-200.5C561.18,-202.68 552.81,-295.68 627,-293.5"/>
<path fill="none" stroke="#8000ff" stroke-width="2" d="M483,-202.5C559.19,-202.5 550.81,-295.5 627,-295.5"/>
<path fill="none" stroke="#000000" stroke-width="2" d="M483,-204.5C557.19,-202.32 548.82,-295.32 627,-297.5"/>
</g>
<!-- W5&#45;&#45;X6 -->
<g id="edge34" class="edge">
<title>W5:e&#45;&#45;X6:w</title>
<path fill="none" stroke="#000000" stroke-width="2" d="M483,-94.5C546.76,-94.52 562.75,-92.52 627,-92.5"/>
<path fill="none" stroke="#ff66cc" stroke-width="2" d="M483,-96.5C547.01,-96.5 562.99,-94.5 627,-94.5"/>
<path fill="none" stroke="#000000" stroke-width="2" d="M483,-98.5C547.25,-98.48 563.24,-96.48 627,-96.5"/>
</g>
<!-- W5&#45;&#45;X6 -->
<g id="edge36" class="edge">
<title>W5:e&#45;&#45;X6:w</title>
<path fill="none" stroke="#000000" stroke-width="2" d="M483,-69.5C546.88,-69.5 562.87,-68.5 627,-68.5"/>
<path fill="none" stroke="#00ffff" stroke-width="2" d="M483,-71.5C547,-71.5 563,-70.5 627,-70.5"/>
<path fill="none" stroke="#000000" stroke-width="2" d="M483,-73.5C547.13,-73.5 563.12,-72.5 627,-72.5"/>
</g>
<!-- W5&#45;&#45;X6 -->
<g id="edge38" class="edge">
<title>W5:e&#45;&#45;X6:w</title>
<path fill="none" stroke="#000000" stroke-width="2" d="M483,-44.5C547.13,-44.5 563.12,-45.5 627,-45.5"/>
<path fill="none" stroke="#ffff00" stroke-width="2" d="M483,-46.5C547,-46.5 563,-47.5 627,-47.5"/>
<path fill="none" stroke="#000000" stroke-width="2" d="M483,-48.5C546.88,-48.5 562.87,-49.5 627,-49.5"/>
</g>
<!-- W5&#45;&#45;X6 -->
<g id="edge40" class="edge">
<title>W5:e&#45;&#45;X6:w</title>
<path fill="none" stroke="#000000" stroke-width="2" d="M483,-19.5C547.38,-19.53 563.36,-22.53 627,-22.5"/>
<path fill="none" stroke="#8000ff" stroke-width="2" d="M483,-21.5C547.01,-21.5 562.99,-24.5 627,-24.5"/>
<path fill="none" stroke="#000000" stroke-width="2" d="M483,-23.5C546.64,-23.47 562.62,-26.47 627,-26.5"/>
</g>
</g>
</svg>
