<?xml version="1.0" encoding="UTF-8" standalone="no"?>
<!DOCTYPE svg PUBLIC "-//W3C//DTD SVG 1.1//EN"
 "http://www.w3.org/Graphics/SVG/1.1/DTD/svg11.dtd">
<!-- Generated by graphviz version 2.44.0 (20200408.0750)
 -->
<!-- Pages: 1 -->
<svg width="793pt" height="1004pt"
 viewBox="0.00 0.00 793.00 1004.00" xmlns="http://www.w3.org/2000/svg" xmlns:xlink="http://www.w3.org/1999/xlink">
<g id="graph0" class="graph" transform="scale(1 1) rotate(0) translate(4 1000)">
<polygon fill="white" stroke="transparent" points="-4,4 -4,-1000 789,-1000 789,4 -4,4"/>
<!-- X1 -->
<g id="node1" class="node">
<title>X1</title>
<polygon fill="white" stroke="transparent" points="182,-968 0,-968 0,-830 182,-830 182,-968"/>
<polygon fill="none" stroke="black" points="0,-945 0,-968 182,-968 182,-945 0,-945"/>
<text text-anchor="start" x="82.5" y="-952.8" font-family="arial" font-size="14.00">X1</text>
<polygon fill="none" stroke="black" points="0,-922 0,-945 93,-945 93,-922 0,-922"/>
<text text-anchor="start" x="4" y="-929.8" font-family="arial" font-size="14.00">Molex KK 254</text>
<polygon fill="none" stroke="black" points="93,-922 93,-945 143,-945 143,-922 93,-922"/>
<text text-anchor="start" x="97" y="-929.8" font-family="arial" font-size="14.00">female</text>
<polygon fill="none" stroke="black" points="143,-922 143,-945 182,-945 182,-922 143,-922"/>
<text text-anchor="start" x="147" y="-929.8" font-family="arial" font-size="14.00">4&#45;pin</text>
<polygon fill="none" stroke="black" points="0,-899 0,-922 103,-922 103,-899 0,-899"/>
<text text-anchor="start" x="36" y="-906.8" font-family="arial" font-size="14.00">GND</text>
<polygon fill="none" stroke="black" points="103,-899 103,-922 182,-922 182,-899 103,-899"/>
<text text-anchor="start" x="138.5" y="-906.8" font-family="arial" font-size="14.00">1</text>
<polygon fill="none" stroke="black" points="0,-876 0,-899 103,-899 103,-876 0,-876"/>
<text text-anchor="start" x="37" y="-883.8" font-family="arial" font-size="14.00">VCC</text>
<polygon fill="none" stroke="black" points="103,-876 103,-899 182,-899 182,-876 103,-876"/>
<text text-anchor="start" x="138.5" y="-883.8" font-family="arial" font-size="14.00">2</text>
<polygon fill="none" stroke="black" points="0,-853 0,-876 103,-876 103,-853 0,-853"/>
<text text-anchor="start" x="38" y="-860.8" font-family="arial" font-size="14.00">SCL</text>
<polygon fill="none" stroke="black" points="103,-853 103,-876 182,-876 182,-853 103,-853"/>
<text text-anchor="start" x="138.5" y="-860.8" font-family="arial" font-size="14.00">3</text>
<polygon fill="none" stroke="black" points="0,-830 0,-853 103,-853 103,-830 0,-830"/>
<text text-anchor="start" x="37.5" y="-837.8" font-family="arial" font-size="14.00">SDA</text>
<polygon fill="none" stroke="black" points="103,-830 103,-853 182,-853 182,-830 103,-830"/>
<text text-anchor="start" x="138.5" y="-837.8" font-family="arial" font-size="14.00">4</text>
</g>
<!-- W1 -->
<g id="node7" class="node">
<title>W1</title>
<polygon fill="white" stroke="black" stroke-dasharray="5,2" points="459,-996 326,-996 326,-816 459,-816 459,-996"/>
<polygon fill="none" stroke="black" points="326.5,-973 326.5,-996 459.5,-996 459.5,-973 326.5,-973"/>
<text text-anchor="start" x="382" y="-980.8" font-family="arial" font-size="14.00">W1</text>
<polygon fill="none" stroke="black" points="326.5,-950 326.5,-973 349.5,-973 349.5,-950 326.5,-950"/>
<text text-anchor="start" x="330.5" y="-957.8" font-family="arial" font-size="14.00">4x</text>
<polygon fill="none" stroke="black" points="349.5,-950 349.5,-973 416.5,-973 416.5,-950 349.5,-950"/>
<text text-anchor="start" x="353.5" y="-957.8" font-family="arial" font-size="14.00">0.25 mm²</text>
<polygon fill="none" stroke="black" points="416.5,-950 416.5,-973 459.5,-973 459.5,-950 416.5,-950"/>
<text text-anchor="start" x="420.5" y="-957.8" font-family="arial" font-size="14.00">0.2 m</text>
<text text-anchor="start" x="391" y="-938.8" font-family="arial" font-size="14.00"> </text>
<text text-anchor="start" x="336" y="-921.8" font-family="arial" font-size="14.00">X1:1</text>
<text text-anchor="start" x="383.5" y="-921.8" font-family="arial" font-size="14.00">PK</text>
<text text-anchor="start" x="422" y="-921.8" font-family="arial" font-size="14.00">X2:1</text>
<polygon fill="#000000" stroke="transparent" points="326.5,-914 326.5,-916 459.5,-916 459.5,-914 326.5,-914"/>
<polygon fill="#ff66cc" stroke="transparent" points="326.5,-912 326.5,-914 459.5,-914 459.5,-912 326.5,-912"/>
<polygon fill="#000000" stroke="transparent" points="326.5,-910 326.5,-912 459.5,-912 459.5,-910 326.5,-910"/>
<text text-anchor="start" x="336" y="-896.8" font-family="arial" font-size="14.00">X1:2</text>
<text text-anchor="start" x="383" y="-896.8" font-family="arial" font-size="14.00">TQ</text>
<text text-anchor="start" x="422" y="-896.8" font-family="arial" font-size="14.00">X2:2</text>
<polygon fill="#000000" stroke="transparent" points="326.5,-889 326.5,-891 459.5,-891 459.5,-889 326.5,-889"/>
<polygon fill="#00ffff" stroke="transparent" points="326.5,-887 326.5,-889 459.5,-889 459.5,-887 326.5,-887"/>
<polygon fill="#000000" stroke="transparent" points="326.5,-885 326.5,-887 459.5,-887 459.5,-885 326.5,-885"/>
<text text-anchor="start" x="336" y="-871.8" font-family="arial" font-size="14.00">X1:3</text>
<text text-anchor="start" x="383.5" y="-871.8" font-family="arial" font-size="14.00">YE</text>
<text text-anchor="start" x="422" y="-871.8" font-family="arial" font-size="14.00">X2:3</text>
<polygon fill="#000000" stroke="transparent" points="326.5,-864 326.5,-866 459.5,-866 459.5,-864 326.5,-864"/>
<polygon fill="#ffff00" stroke="transparent" points="326.5,-862 326.5,-864 459.5,-864 459.5,-862 326.5,-862"/>
<polygon fill="#000000" stroke="transparent" points="326.5,-860 326.5,-862 459.5,-862 459.5,-860 326.5,-860"/>
<text text-anchor="start" x="336" y="-846.8" font-family="arial" font-size="14.00">X1:4</text>
<text text-anchor="start" x="384" y="-846.8" font-family="arial" font-size="14.00">VT</text>
<text text-anchor="start" x="422" y="-846.8" font-family="arial" font-size="14.00">X2:4</text>
<polygon fill="#000000" stroke="transparent" points="326.5,-839 326.5,-841 459.5,-841 459.5,-839 326.5,-839"/>
<polygon fill="#8000ff" stroke="transparent" points="326.5,-837 326.5,-839 459.5,-839 459.5,-837 326.5,-837"/>
<polygon fill="#000000" stroke="transparent" points="326.5,-835 326.5,-837 459.5,-837 459.5,-835 326.5,-835"/>
<text text-anchor="start" x="348" y="-821.8" font-family="arial" font-size="14.00"> </text>
</g>
<!-- X1&#45;&#45;W1 -->
<g id="edge1" class="edge">
<title>X1:e&#45;&#45;W1:w</title>
<path fill="none" stroke="#000000" stroke-width="2" d="M182,-909C246.25,-909.02 262.24,-911.02 326,-911"/>
<path fill="none" stroke="#ff66cc" stroke-width="2" d="M182,-911C246.01,-911 261.99,-913 326,-913"/>
<path fill="none" stroke="#000000" stroke-width="2" d="M182,-913C245.76,-912.98 261.75,-914.98 326,-915"/>
</g>
<!-- X1&#45;&#45;W1 -->
<g id="edge3" class="edge">
<title>X1:e&#45;&#45;W1:w</title>
<path fill="none" stroke="#000000" stroke-width="2" d="M182,-885C246.13,-885 262.12,-886 326,-886"/>
<path fill="none" stroke="#00ffff" stroke-width="2" d="M182,-887C246,-887 262,-888 326,-888"/>
<path fill="none" stroke="#000000" stroke-width="2" d="M182,-889C245.88,-889 261.87,-890 326,-890"/>
</g>
<!-- X1&#45;&#45;W1 -->
<g id="edge5" class="edge">
<title>X1:e&#45;&#45;W1:w</title>
<path fill="none" stroke="#000000" stroke-width="2" d="M182,-862C245.88,-862 261.87,-861 326,-861"/>
<path fill="none" stroke="#ffff00" stroke-width="2" d="M182,-864C246,-864 262,-863 326,-863"/>
<path fill="none" stroke="#000000" stroke-width="2" d="M182,-866C246.13,-866 262.12,-865 326,-865"/>
</g>
<!-- X1&#45;&#45;W1 -->
<g id="edge7" class="edge">
<title>X1:e&#45;&#45;W1:w</title>
<path fill="none" stroke="#000000" stroke-width="2" d="M182,-839C245.64,-839.03 261.62,-836.03 326,-836"/>
<path fill="none" stroke="#8000ff" stroke-width="2" d="M182,-841C246.01,-841 261.99,-838 326,-838"/>
<path fill="none" stroke="#000000" stroke-width="2" d="M182,-843C246.38,-842.97 262.36,-839.97 326,-840"/>
</g>
<!-- X2 -->
<g id="node2" class="node">
<title>X2</title>
<polygon fill="white" stroke="transparent" points="785,-865 603,-865 603,-727 785,-727 785,-865"/>
<polygon fill="none" stroke="black" points="603,-842 603,-865 785,-865 785,-842 603,-842"/>
<text text-anchor="start" x="685.5" y="-849.8" font-family="arial" font-size="14.00">X2</text>
<polygon fill="none" stroke="black" points="603,-819 603,-842 696,-842 696,-819 603,-819"/>
<text text-anchor="start" x="607" y="-826.8" font-family="arial" font-size="14.00">Molex KK 254</text>
<polygon fill="none" stroke="black" points="696,-819 696,-842 746,-842 746,-819 696,-819"/>
<text text-anchor="start" x="700" y="-826.8" font-family="arial" font-size="14.00">female</text>
<polygon fill="none" stroke="black" points="746,-819 746,-842 785,-842 785,-819 746,-819"/>
<text text-anchor="start" x="750" y="-826.8" font-family="arial" font-size="14.00">4&#45;pin</text>
<polygon fill="none" stroke="black" points="603,-796 603,-819 683,-819 683,-796 603,-796"/>
<text text-anchor="start" x="639" y="-803.8" font-family="arial" font-size="14.00">1</text>
<polygon fill="none" stroke="black" points="683,-796 683,-819 785,-819 785,-796 683,-796"/>
<text text-anchor="start" x="718.5" y="-803.8" font-family="arial" font-size="14.00">GND</text>
<polygon fill="none" stroke="black" points="603,-773 603,-796 683,-796 683,-773 603,-773"/>
<text text-anchor="start" x="639" y="-780.8" font-family="arial" font-size="14.00">2</text>
<polygon fill="none" stroke="black" points="683,-773 683,-796 785,-796 785,-773 683,-773"/>
<text text-anchor="start" x="719.5" y="-780.8" font-family="arial" font-size="14.00">VCC</text>
<polygon fill="none" stroke="black" points="603,-750 603,-773 683,-773 683,-750 603,-750"/>
<text text-anchor="start" x="639" y="-757.8" font-family="arial" font-size="14.00">3</text>
<polygon fill="none" stroke="black" points="683,-750 683,-773 785,-773 785,-750 683,-750"/>
<text text-anchor="start" x="720.5" y="-757.8" font-family="arial" font-size="14.00">SCL</text>
<polygon fill="none" stroke="black" points="603,-727 603,-750 683,-750 683,-727 603,-727"/>
<text text-anchor="start" x="639" y="-734.8" font-family="arial" font-size="14.00">4</text>
<polygon fill="none" stroke="black" points="683,-727 683,-750 785,-750 785,-727 683,-727"/>
<text text-anchor="start" x="720" y="-734.8" font-family="arial" font-size="14.00">SDA</text>
</g>
<!-- X3 -->
<g id="node3" class="node">
<title>X3</title>
<polygon fill="white" stroke="transparent" points="182,-662 0,-662 0,-524 182,-524 182,-662"/>
<polygon fill="none" stroke="black" points="0,-639 0,-662 182,-662 182,-639 0,-639"/>
<text text-anchor="start" x="82.5" y="-646.8" font-family="arial" font-size="14.00">X3</text>
<polygon fill="none" stroke="black" points="0,-616 0,-639 93,-639 93,-616 0,-616"/>
<text text-anchor="start" x="4" y="-623.8" font-family="arial" font-size="14.00">Molex KK 254</text>
<polygon fill="none" stroke="black" points="93,-616 93,-639 143,-639 143,-616 93,-616"/>
<text text-anchor="start" x="97" y="-623.8" font-family="arial" font-size="14.00">female</text>
<polygon fill="none" stroke="black" points="143,-616 143,-639 182,-639 182,-616 143,-616"/>
<text text-anchor="start" x="147" y="-623.8" font-family="arial" font-size="14.00">4&#45;pin</text>
<polygon fill="none" stroke="black" points="0,-593 0,-616 103,-616 103,-593 0,-593"/>
<text text-anchor="start" x="36" y="-600.8" font-family="arial" font-size="14.00">GND</text>
<polygon fill="none" stroke="black" points="103,-593 103,-616 182,-616 182,-593 103,-593"/>
<text text-anchor="start" x="138.5" y="-600.8" font-family="arial" font-size="14.00">1</text>
<polygon fill="none" stroke="black" points="0,-570 0,-593 103,-593 103,-570 0,-570"/>
<text text-anchor="start" x="37" y="-577.8" font-family="arial" font-size="14.00">VCC</text>
<polygon fill="none" stroke="black" points="103,-570 103,-593 182,-593 182,-570 103,-570"/>
<text text-anchor="start" x="138.5" y="-577.8" font-family="arial" font-size="14.00">2</text>
<polygon fill="none" stroke="black" points="0,-547 0,-570 103,-570 103,-547 0,-547"/>
<text text-anchor="start" x="38" y="-554.8" font-family="arial" font-size="14.00">SCL</text>
<polygon fill="none" stroke="black" points="103,-547 103,-570 182,-570 182,-547 103,-547"/>
<text text-anchor="start" x="138.5" y="-554.8" font-family="arial" font-size="14.00">3</text>
<polygon fill="none" stroke="black" points="0,-524 0,-547 103,-547 103,-524 0,-524"/>
<text text-anchor="start" x="37.5" y="-531.8" font-family="arial" font-size="14.00">SDA</text>
<polygon fill="none" stroke="black" points="103,-524 103,-547 182,-547 182,-524 103,-524"/>
<text text-anchor="start" x="138.5" y="-531.8" font-family="arial" font-size="14.00">4</text>
</g>
<!-- W2 -->
<g id="node8" class="node">
<title>W2</title>
<polygon fill="white" stroke="black" stroke-dasharray="5,2" points="459,-792 326,-792 326,-612 459,-612 459,-792"/>
<polygon fill="none" stroke="black" points="326.5,-769 326.5,-792 459.5,-792 459.5,-769 326.5,-769"/>
<text text-anchor="start" x="382" y="-776.8" font-family="arial" font-size="14.00">W2</text>
<polygon fill="none" stroke="black" points="326.5,-746 326.5,-769 349.5,-769 349.5,-746 326.5,-746"/>
<text text-anchor="start" x="330.5" y="-753.8" font-family="arial" font-size="14.00">4x</text>
<polygon fill="none" stroke="black" points="349.5,-746 349.5,-769 416.5,-769 416.5,-746 349.5,-746"/>
<text text-anchor="start" x="353.5" y="-753.8" font-family="arial" font-size="14.00">0.25 mm²</text>
<polygon fill="none" stroke="black" points="416.5,-746 416.5,-769 459.5,-769 459.5,-746 416.5,-746"/>
<text text-anchor="start" x="420.5" y="-753.8" font-family="arial" font-size="14.00">0.2 m</text>
<text text-anchor="start" x="391" y="-734.8" font-family="arial" font-size="14.00"> </text>
<text text-anchor="start" x="336" y="-717.8" font-family="arial" font-size="14.00">X3:1</text>
<text text-anchor="start" x="383.5" y="-717.8" font-family="arial" font-size="14.00">PK</text>
<text text-anchor="start" x="422" y="-717.8" font-family="arial" font-size="14.00">X2:1</text>
<polygon fill="#000000" stroke="transparent" points="326.5,-710 326.5,-712 459.5,-712 459.5,-710 326.5,-710"/>
<polygon fill="#ff66cc" stroke="transparent" points="326.5,-708 326.5,-710 459.5,-710 459.5,-708 326.5,-708"/>
<polygon fill="#000000" stroke="transparent" points="326.5,-706 326.5,-708 459.5,-708 459.5,-706 326.5,-706"/>
<text text-anchor="start" x="336" y="-692.8" font-family="arial" font-size="14.00">X3:2</text>
<text text-anchor="start" x="383" y="-692.8" font-family="arial" font-size="14.00">TQ</text>
<text text-anchor="start" x="422" y="-692.8" font-family="arial" font-size="14.00">X2:2</text>
<polygon fill="#000000" stroke="transparent" points="326.5,-685 326.5,-687 459.5,-687 459.5,-685 326.5,-685"/>
<polygon fill="#00ffff" stroke="transparent" points="326.5,-683 326.5,-685 459.5,-685 459.5,-683 326.5,-683"/>
<polygon fill="#000000" stroke="transparent" points="326.5,-681 326.5,-683 459.5,-683 459.5,-681 326.5,-681"/>
<text text-anchor="start" x="336" y="-667.8" font-family="arial" font-size="14.00">X3:3</text>
<text text-anchor="start" x="383.5" y="-667.8" font-family="arial" font-size="14.00">YE</text>
<text text-anchor="start" x="422" y="-667.8" font-family="arial" font-size="14.00">X2:3</text>
<polygon fill="#000000" stroke="transparent" points="326.5,-660 326.5,-662 459.5,-662 459.5,-660 326.5,-660"/>
<polygon fill="#ffff00" stroke="transparent" points="326.5,-658 326.5,-660 459.5,-660 459.5,-658 326.5,-658"/>
<polygon fill="#000000" stroke="transparent" points="326.5,-656 326.5,-658 459.5,-658 459.5,-656 326.5,-656"/>
<text text-anchor="start" x="336" y="-642.8" font-family="arial" font-size="14.00">X3:4</text>
<text text-anchor="start" x="384" y="-642.8" font-family="arial" font-size="14.00">VT</text>
<text text-anchor="start" x="422" y="-642.8" font-family="arial" font-size="14.00">X2:4</text>
<polygon fill="#000000" stroke="transparent" points="326.5,-635 326.5,-637 459.5,-637 459.5,-635 326.5,-635"/>
<polygon fill="#8000ff" stroke="transparent" points="326.5,-633 326.5,-635 459.5,-635 459.5,-633 326.5,-633"/>
<polygon fill="#000000" stroke="transparent" points="326.5,-631 326.5,-633 459.5,-633 459.5,-631 326.5,-631"/>
<text text-anchor="start" x="348" y="-617.8" font-family="arial" font-size="14.00"> </text>
</g>
<!-- X3&#45;&#45;W2 -->
<g id="edge9" class="edge">
<title>X3:e&#45;&#45;W2:w</title>
<path fill="none" stroke="#000000" stroke-width="2" d="M182,-603C262.93,-605.26 249.04,-709.26 326,-707"/>
<path fill="none" stroke="#ff66cc" stroke-width="2" d="M182,-605C260.95,-605 247.05,-709 326,-709"/>
<path fill="none" stroke="#000000" stroke-width="2" d="M182,-607C258.96,-604.74 245.07,-708.74 326,-711"/>
</g>
<!-- X3&#45;&#45;W2 -->
<g id="edge11" class="edge">
<title>X3:e&#45;&#45;W2:w</title>
<path fill="none" stroke="#000000" stroke-width="2" d="M182,-579C262.67,-581.26 249.3,-684.26 326,-682"/>
<path fill="none" stroke="#00ffff" stroke-width="2" d="M182,-581C260.69,-581 247.31,-684 326,-684"/>
<path fill="none" stroke="#000000" stroke-width="2" d="M182,-583C258.7,-580.74 245.33,-683.74 326,-686"/>
</g>
<!-- X3&#45;&#45;W2 -->
<g id="edge13" class="edge">
<title>X3:e&#45;&#45;W2:w</title>
<path fill="none" stroke="#000000" stroke-width="2" d="M182,-556C262.16,-558.24 249.81,-659.24 326,-657"/>
<path fill="none" stroke="#ffff00" stroke-width="2" d="M182,-558C260.17,-558 247.83,-659 326,-659"/>
<path fill="none" stroke="#000000" stroke-width="2" d="M182,-560C258.19,-557.76 245.84,-658.76 326,-661"/>
</g>
<!-- X3&#45;&#45;W2 -->
<g id="edge15" class="edge">
<title>X3:e&#45;&#45;W2:w</title>
<path fill="none" stroke="#000000" stroke-width="2" d="M182,-533C261.65,-535.23 250.32,-634.23 326,-632"/>
<path fill="none" stroke="#8000ff" stroke-width="2" d="M182,-535C259.67,-535 248.33,-634 326,-634"/>
<path fill="none" stroke="#000000" stroke-width="2" d="M182,-537C257.68,-534.77 246.35,-633.77 326,-636"/>
</g>
<!-- W3 -->
<g id="node9" class="node">
<title>W3</title>
<polygon fill="white" stroke="black" stroke-dasharray="5,2" points="459,-588 326,-588 326,-408 459,-408 459,-588"/>
<polygon fill="none" stroke="black" points="326.5,-565 326.5,-588 459.5,-588 459.5,-565 326.5,-565"/>
<text text-anchor="start" x="382" y="-572.8" font-family="arial" font-size="14.00">W3</text>
<polygon fill="none" stroke="black" points="326.5,-542 326.5,-565 349.5,-565 349.5,-542 326.5,-542"/>
<text text-anchor="start" x="330.5" y="-549.8" font-family="arial" font-size="14.00">4x</text>
<polygon fill="none" stroke="black" points="349.5,-542 349.5,-565 416.5,-565 416.5,-542 349.5,-542"/>
<text text-anchor="start" x="353.5" y="-549.8" font-family="arial" font-size="14.00">0.25 mm²</text>
<polygon fill="none" stroke="black" points="416.5,-542 416.5,-565 459.5,-565 459.5,-542 416.5,-542"/>
<text text-anchor="start" x="420.5" y="-549.8" font-family="arial" font-size="14.00">0.2 m</text>
<text text-anchor="start" x="391" y="-530.8" font-family="arial" font-size="14.00"> </text>
<text text-anchor="start" x="336" y="-513.8" font-family="arial" font-size="14.00">X3:1</text>
<text text-anchor="start" x="383.5" y="-513.8" font-family="arial" font-size="14.00">PK</text>
<text text-anchor="start" x="422" y="-513.8" font-family="arial" font-size="14.00">X4:1</text>
<polygon fill="#000000" stroke="transparent" points="326.5,-506 326.5,-508 459.5,-508 459.5,-506 326.5,-506"/>
<polygon fill="#ff66cc" stroke="transparent" points="326.5,-504 326.5,-506 459.5,-506 459.5,-504 326.5,-504"/>
<polygon fill="#000000" stroke="transparent" points="326.5,-502 326.5,-504 459.5,-504 459.5,-502 326.5,-502"/>
<text text-anchor="start" x="336" y="-488.8" font-family="arial" font-size="14.00">X3:2</text>
<text text-anchor="start" x="383" y="-488.8" font-family="arial" font-size="14.00">TQ</text>
<text text-anchor="start" x="422" y="-488.8" font-family="arial" font-size="14.00">X4:2</text>
<polygon fill="#000000" stroke="transparent" points="326.5,-481 326.5,-483 459.5,-483 459.5,-481 326.5,-481"/>
<polygon fill="#00ffff" stroke="transparent" points="326.5,-479 326.5,-481 459.5,-481 459.5,-479 326.5,-479"/>
<polygon fill="#000000" stroke="transparent" points="326.5,-477 326.5,-479 459.5,-479 459.5,-477 326.5,-477"/>
<text text-anchor="start" x="336" y="-463.8" font-family="arial" font-size="14.00">X3:3</text>
<text text-anchor="start" x="383.5" y="-463.8" font-family="arial" font-size="14.00">YE</text>
<text text-anchor="start" x="422" y="-463.8" font-family="arial" font-size="14.00">X4:3</text>
<polygon fill="#000000" stroke="transparent" points="326.5,-456 326.5,-458 459.5,-458 459.5,-456 326.5,-456"/>
<polygon fill="#ffff00" stroke="transparent" points="326.5,-454 326.5,-456 459.5,-456 459.5,-454 326.5,-454"/>
<polygon fill="#000000" stroke="transparent" points="326.5,-452 326.5,-454 459.5,-454 459.5,-452 326.5,-452"/>
<text text-anchor="start" x="336" y="-438.8" font-family="arial" font-size="14.00">X3:4</text>
<text text-anchor="start" x="384" y="-438.8" font-family="arial" font-size="14.00">VT</text>
<text text-anchor="start" x="422" y="-438.8" font-family="arial" font-size="14.00">X4:4</text>
<polygon fill="#000000" stroke="transparent" points="326.5,-431 326.5,-433 459.5,-433 459.5,-431 326.5,-431"/>
<polygon fill="#8000ff" stroke="transparent" points="326.5,-429 326.5,-431 459.5,-431 459.5,-429 326.5,-429"/>
<polygon fill="#000000" stroke="transparent" points="326.5,-427 326.5,-429 459.5,-429 459.5,-427 326.5,-427"/>
<text text-anchor="start" x="348" y="-413.8" font-family="arial" font-size="14.00"> </text>
</g>
<!-- X3&#45;&#45;W3 -->
<g id="edge17" class="edge">
<title>X3:e&#45;&#45;W3:w</title>
<path fill="none" stroke="#000000" stroke-width="2" d="M182,-603C257.93,-605.24 246.1,-505.24 326,-503"/>
<path fill="none" stroke="#ff66cc" stroke-width="2" d="M182,-605C259.92,-605 248.08,-505 326,-505"/>
<path fill="none" stroke="#000000" stroke-width="2" d="M182,-607C261.9,-604.76 250.07,-504.76 326,-507"/>
</g>
<!-- X3&#45;&#45;W3 -->
<g id="edge19" class="edge">
<title>X3:e&#45;&#45;W3:w</title>
<path fill="none" stroke="#000000" stroke-width="2" d="M182,-579C258.19,-581.24 245.84,-480.24 326,-478"/>
<path fill="none" stroke="#00ffff" stroke-width="2" d="M182,-581C260.17,-581 247.83,-480 326,-480"/>
<path fill="none" stroke="#000000" stroke-width="2" d="M182,-583C262.16,-580.76 249.81,-479.76 326,-482"/>
</g>
<!-- X3&#45;&#45;W3 -->
<g id="edge21" class="edge">
<title>X3:e&#45;&#45;W3:w</title>
<path fill="none" stroke="#000000" stroke-width="2" d="M182,-556C258.7,-558.26 245.33,-455.26 326,-453"/>
<path fill="none" stroke="#ffff00" stroke-width="2" d="M182,-558C260.69,-558 247.31,-455 326,-455"/>
<path fill="none" stroke="#000000" stroke-width="2" d="M182,-560C262.67,-557.74 249.3,-454.74 326,-457"/>
</g>
<!-- X3&#45;&#45;W3 -->
<g id="edge23" class="edge">
<title>X3:e&#45;&#45;W3:w</title>
<path fill="none" stroke="#000000" stroke-width="2" d="M182,-533C259.23,-535.27 244.81,-430.27 326,-428"/>
<path fill="none" stroke="#8000ff" stroke-width="2" d="M182,-535C261.21,-535 246.79,-430 326,-430"/>
<path fill="none" stroke="#000000" stroke-width="2" d="M182,-537C263.19,-534.73 248.77,-429.73 326,-432"/>
</g>
<!-- X4 -->
<g id="node4" class="node">
<title>X4</title>
<polygon fill="white" stroke="transparent" points="785,-458 603,-458 603,-320 785,-320 785,-458"/>
<polygon fill="none" stroke="black" points="603,-435 603,-458 785,-458 785,-435 603,-435"/>
<text text-anchor="start" x="685.5" y="-442.8" font-family="arial" font-size="14.00">X4</text>
<polygon fill="none" stroke="black" points="603,-412 603,-435 696,-435 696,-412 603,-412"/>
<text text-anchor="start" x="607" y="-419.8" font-family="arial" font-size="14.00">Molex KK 254</text>
<polygon fill="none" stroke="black" points="696,-412 696,-435 746,-435 746,-412 696,-412"/>
<text text-anchor="start" x="700" y="-419.8" font-family="arial" font-size="14.00">female</text>
<polygon fill="none" stroke="black" points="746,-412 746,-435 785,-435 785,-412 746,-412"/>
<text text-anchor="start" x="750" y="-419.8" font-family="arial" font-size="14.00">4&#45;pin</text>
<polygon fill="none" stroke="black" points="603,-389 603,-412 683,-412 683,-389 603,-389"/>
<text text-anchor="start" x="639" y="-396.8" font-family="arial" font-size="14.00">1</text>
<polygon fill="none" stroke="black" points="683,-389 683,-412 785,-412 785,-389 683,-389"/>
<text text-anchor="start" x="718.5" y="-396.8" font-family="arial" font-size="14.00">GND</text>
<polygon fill="none" stroke="black" points="603,-366 603,-389 683,-389 683,-366 603,-366"/>
<text text-anchor="start" x="639" y="-373.8" font-family="arial" font-size="14.00">2</text>
<polygon fill="none" stroke="black" points="683,-366 683,-389 785,-389 785,-366 683,-366"/>
<text text-anchor="start" x="719.5" y="-373.8" font-family="arial" font-size="14.00">VCC</text>
<polygon fill="none" stroke="black" points="603,-343 603,-366 683,-366 683,-343 603,-343"/>
<text text-anchor="start" x="639" y="-350.8" font-family="arial" font-size="14.00">3</text>
<polygon fill="none" stroke="black" points="683,-343 683,-366 785,-366 785,-343 683,-343"/>
<text text-anchor="start" x="720.5" y="-350.8" font-family="arial" font-size="14.00">SCL</text>
<polygon fill="none" stroke="black" points="603,-320 603,-343 683,-343 683,-320 603,-320"/>
<text text-anchor="start" x="639" y="-327.8" font-family="arial" font-size="14.00">4</text>
<polygon fill="none" stroke="black" points="683,-320 683,-343 785,-343 785,-320 683,-320"/>
<text text-anchor="start" x="720" y="-327.8" font-family="arial" font-size="14.00">SDA</text>
</g>
<!-- X5 -->
<g id="node5" class="node">
<title>X5</title>
<polygon fill="white" stroke="transparent" points="182,-253 0,-253 0,-115 182,-115 182,-253"/>
<polygon fill="none" stroke="black" points="0,-230 0,-253 182,-253 182,-230 0,-230"/>
<text text-anchor="start" x="82.5" y="-237.8" font-family="arial" font-size="14.00">X5</text>
<polygon fill="none" stroke="black" points="0,-207 0,-230 93,-230 93,-207 0,-207"/>
<text text-anchor="start" x="4" y="-214.8" font-family="arial" font-size="14.00">Molex KK 254</text>
<polygon fill="none" stroke="black" points="93,-207 93,-230 143,-230 143,-207 93,-207"/>
<text text-anchor="start" x="97" y="-214.8" font-family="arial" font-size="14.00">female</text>
<polygon fill="none" stroke="black" points="143,-207 143,-230 182,-230 182,-207 143,-207"/>
<text text-anchor="start" x="147" y="-214.8" font-family="arial" font-size="14.00">4&#45;pin</text>
<polygon fill="none" stroke="black" points="0,-184 0,-207 103,-207 103,-184 0,-184"/>
<text text-anchor="start" x="36" y="-191.8" font-family="arial" font-size="14.00">GND</text>
<polygon fill="none" stroke="black" points="103,-184 103,-207 182,-207 182,-184 103,-184"/>
<text text-anchor="start" x="138.5" y="-191.8" font-family="arial" font-size="14.00">1</text>
<polygon fill="none" stroke="black" points="0,-161 0,-184 103,-184 103,-161 0,-161"/>
<text text-anchor="start" x="37" y="-168.8" font-family="arial" font-size="14.00">VCC</text>
<polygon fill="none" stroke="black" points="103,-161 103,-184 182,-184 182,-161 103,-161"/>
<text text-anchor="start" x="138.5" y="-168.8" font-family="arial" font-size="14.00">2</text>
<polygon fill="none" stroke="black" points="0,-138 0,-161 103,-161 103,-138 0,-138"/>
<text text-anchor="start" x="38" y="-145.8" font-family="arial" font-size="14.00">SCL</text>
<polygon fill="none" stroke="black" points="103,-138 103,-161 182,-161 182,-138 103,-138"/>
<text text-anchor="start" x="138.5" y="-145.8" font-family="arial" font-size="14.00">3</text>
<polygon fill="none" stroke="black" points="0,-115 0,-138 103,-138 103,-115 0,-115"/>
<text text-anchor="start" x="37.5" y="-122.8" font-family="arial" font-size="14.00">SDA</text>
<polygon fill="none" stroke="black" points="103,-115 103,-138 182,-138 182,-115 103,-115"/>
<text text-anchor="start" x="138.5" y="-122.8" font-family="arial" font-size="14.00">4</text>
</g>
<!-- W4 -->
<g id="node10" class="node">
<title>W4</title>
<polygon fill="white" stroke="black" stroke-dasharray="5,2" points="459,-384 326,-384 326,-204 459,-204 459,-384"/>
<polygon fill="none" stroke="black" points="326.5,-361 326.5,-384 459.5,-384 459.5,-361 326.5,-361"/>
<text text-anchor="start" x="382" y="-368.8" font-family="arial" font-size="14.00">W4</text>
<polygon fill="none" stroke="black" points="326.5,-338 326.5,-361 349.5,-361 349.5,-338 326.5,-338"/>
<text text-anchor="start" x="330.5" y="-345.8" font-family="arial" font-size="14.00">4x</text>
<polygon fill="none" stroke="black" points="349.5,-338 349.5,-361 416.5,-361 416.5,-338 349.5,-338"/>
<text text-anchor="start" x="353.5" y="-345.8" font-family="arial" font-size="14.00">0.25 mm²</text>
<polygon fill="none" stroke="black" points="416.5,-338 416.5,-361 459.5,-361 459.5,-338 416.5,-338"/>
<text text-anchor="start" x="420.5" y="-345.8" font-family="arial" font-size="14.00">0.2 m</text>
<text text-anchor="start" x="391" y="-326.8" font-family="arial" font-size="14.00"> </text>
<text text-anchor="start" x="336" y="-309.8" font-family="arial" font-size="14.00">X5:1</text>
<text text-anchor="start" x="383.5" y="-309.8" font-family="arial" font-size="14.00">PK</text>
<text text-anchor="start" x="422" y="-309.8" font-family="arial" font-size="14.00">X4:1</text>
<polygon fill="#000000" stroke="transparent" points="326.5,-302 326.5,-304 459.5,-304 459.5,-302 326.5,-302"/>
<polygon fill="#ff66cc" stroke="transparent" points="326.5,-300 326.5,-302 459.5,-302 459.5,-300 326.5,-300"/>
<polygon fill="#000000" stroke="transparent" points="326.5,-298 326.5,-300 459.5,-300 459.5,-298 326.5,-298"/>
<text text-anchor="start" x="336" y="-284.8" font-family="arial" font-size="14.00">X5:2</text>
<text text-anchor="start" x="383" y="-284.8" font-family="arial" font-size="14.00">TQ</text>
<text text-anchor="start" x="422" y="-284.8" font-family="arial" font-size="14.00">X4:2</text>
<polygon fill="#000000" stroke="transparent" points="326.5,-277 326.5,-279 459.5,-279 459.5,-277 326.5,-277"/>
<polygon fill="#00ffff" stroke="transparent" points="326.5,-275 326.5,-277 459.5,-277 459.5,-275 326.5,-275"/>
<polygon fill="#000000" stroke="transparent" points="326.5,-273 326.5,-275 459.5,-275 459.5,-273 326.5,-273"/>
<text text-anchor="start" x="336" y="-259.8" font-family="arial" font-size="14.00">X5:3</text>
<text text-anchor="start" x="383.5" y="-259.8" font-family="arial" font-size="14.00">YE</text>
<text text-anchor="start" x="422" y="-259.8" font-family="arial" font-size="14.00">X4:3</text>
<polygon fill="#000000" stroke="transparent" points="326.5,-252 326.5,-254 459.5,-254 459.5,-252 326.5,-252"/>
<polygon fill="#ffff00" stroke="transparent" points="326.5,-250 326.5,-252 459.5,-252 459.5,-250 326.5,-250"/>
<polygon fill="#000000" stroke="transparent" points="326.5,-248 326.5,-250 459.5,-250 459.5,-248 326.5,-248"/>
<text text-anchor="start" x="336" y="-234.8" font-family="arial" font-size="14.00">X5:4</text>
<text text-anchor="start" x="384" y="-234.8" font-family="arial" font-size="14.00">VT</text>
<text text-anchor="start" x="422" y="-234.8" font-family="arial" font-size="14.00">X4:4</text>
<polygon fill="#000000" stroke="transparent" points="326.5,-227 326.5,-229 459.5,-229 459.5,-227 326.5,-227"/>
<polygon fill="#8000ff" stroke="transparent" points="326.5,-225 326.5,-227 459.5,-227 459.5,-225 326.5,-225"/>
<polygon fill="#000000" stroke="transparent" points="326.5,-223 326.5,-225 459.5,-225 459.5,-223 326.5,-223"/>
<text text-anchor="start" x="348" y="-209.8" font-family="arial" font-size="14.00"> </text>
</g>
<!-- X5&#45;&#45;W4 -->
<g id="edge25" class="edge">
<title>X5:e&#45;&#45;W4:w</title>
<path fill="none" stroke="#000000" stroke-width="2" d="M182,-194C263.19,-196.27 248.77,-301.27 326,-299"/>
<path fill="none" stroke="#ff66cc" stroke-width="2" d="M182,-196C261.21,-196 246.79,-301 326,-301"/>
<path fill="none" stroke="#000000" stroke-width="2" d="M182,-198C259.23,-195.73 244.81,-300.73 326,-303"/>
</g>
<!-- X5&#45;&#45;W4 -->
<g id="edge27" class="edge">
<title>X5:e&#45;&#45;W4:w</title>
<path fill="none" stroke="#000000" stroke-width="2" d="M182,-170C262.93,-172.26 249.04,-276.26 326,-274"/>
<path fill="none" stroke="#00ffff" stroke-width="2" d="M182,-172C260.95,-172 247.05,-276 326,-276"/>
<path fill="none" stroke="#000000" stroke-width="2" d="M182,-174C258.96,-171.74 245.07,-275.74 326,-278"/>
</g>
<!-- X5&#45;&#45;W4 -->
<g id="edge29" class="edge">
<title>X5:e&#45;&#45;W4:w</title>
<path fill="none" stroke="#000000" stroke-width="2" d="M182,-147C262.41,-149.25 249.56,-251.25 326,-249"/>
<path fill="none" stroke="#ffff00" stroke-width="2" d="M182,-149C260.43,-149 247.57,-251 326,-251"/>
<path fill="none" stroke="#000000" stroke-width="2" d="M182,-151C258.44,-148.75 245.59,-250.75 326,-253"/>
</g>
<!-- X5&#45;&#45;W4 -->
<g id="edge31" class="edge">
<title>X5:e&#45;&#45;W4:w</title>
<path fill="none" stroke="#000000" stroke-width="2" d="M182,-124C261.9,-126.24 250.07,-226.24 326,-224"/>
<path fill="none" stroke="#8000ff" stroke-width="2" d="M182,-126C259.92,-126 248.08,-226 326,-226"/>
<path fill="none" stroke="#000000" stroke-width="2" d="M182,-128C257.93,-125.76 246.1,-225.76 326,-228"/>
</g>
<!-- W5 -->
<g id="node11" class="node">
<title>W5</title>
<polygon fill="white" stroke="black" stroke-dasharray="5,2" points="459,-180 326,-180 326,0 459,0 459,-180"/>
<polygon fill="none" stroke="black" points="326.5,-157 326.5,-180 459.5,-180 459.5,-157 326.5,-157"/>
<text text-anchor="start" x="382" y="-164.8" font-family="arial" font-size="14.00">W5</text>
<polygon fill="none" stroke="black" points="326.5,-134 326.5,-157 349.5,-157 349.5,-134 326.5,-134"/>
<text text-anchor="start" x="330.5" y="-141.8" font-family="arial" font-size="14.00">4x</text>
<polygon fill="none" stroke="black" points="349.5,-134 349.5,-157 416.5,-157 416.5,-134 349.5,-134"/>
<text text-anchor="start" x="353.5" y="-141.8" font-family="arial" font-size="14.00">0.25 mm²</text>
<polygon fill="none" stroke="black" points="416.5,-134 416.5,-157 459.5,-157 459.5,-134 416.5,-134"/>
<text text-anchor="start" x="420.5" y="-141.8" font-family="arial" font-size="14.00">0.2 m</text>
<text text-anchor="start" x="391" y="-122.8" font-family="arial" font-size="14.00"> </text>
<text text-anchor="start" x="336" y="-105.8" font-family="arial" font-size="14.00">X5:1</text>
<text text-anchor="start" x="383.5" y="-105.8" font-family="arial" font-size="14.00">PK</text>
<text text-anchor="start" x="422" y="-105.8" font-family="arial" font-size="14.00">X6:1</text>
<polygon fill="#000000" stroke="transparent" points="326.5,-98 326.5,-100 459.5,-100 459.5,-98 326.5,-98"/>
<polygon fill="#ff66cc" stroke="transparent" points="326.5,-96 326.5,-98 459.5,-98 459.5,-96 326.5,-96"/>
<polygon fill="#000000" stroke="transparent" points="326.5,-94 326.5,-96 459.5,-96 459.5,-94 326.5,-94"/>
<text text-anchor="start" x="336" y="-80.8" font-family="arial" font-size="14.00">X5:2</text>
<text text-anchor="start" x="383" y="-80.8" font-family="arial" font-size="14.00">TQ</text>
<text text-anchor="start" x="422" y="-80.8" font-family="arial" font-size="14.00">X6:2</text>
<polygon fill="#000000" stroke="transparent" points="326.5,-73 326.5,-75 459.5,-75 459.5,-73 326.5,-73"/>
<polygon fill="#00ffff" stroke="transparent" points="326.5,-71 326.5,-73 459.5,-73 459.5,-71 326.5,-71"/>
<polygon fill="#000000" stroke="transparent" points="326.5,-69 326.5,-71 459.5,-71 459.5,-69 326.5,-69"/>
<text text-anchor="start" x="336" y="-55.8" font-family="arial" font-size="14.00">X5:3</text>
<text text-anchor="start" x="383.5" y="-55.8" font-family="arial" font-size="14.00">YE</text>
<text text-anchor="start" x="422" y="-55.8" font-family="arial" font-size="14.00">X6:3</text>
<polygon fill="#000000" stroke="transparent" points="326.5,-48 326.5,-50 459.5,-50 459.5,-48 326.5,-48"/>
<polygon fill="#ffff00" stroke="transparent" points="326.5,-46 326.5,-48 459.5,-48 459.5,-46 326.5,-46"/>
<polygon fill="#000000" stroke="transparent" points="326.5,-44 326.5,-46 459.5,-46 459.5,-44 326.5,-44"/>
<text text-anchor="start" x="336" y="-30.8" font-family="arial" font-size="14.00">X5:4</text>
<text text-anchor="start" x="384" y="-30.8" font-family="arial" font-size="14.00">VT</text>
<text text-anchor="start" x="422" y="-30.8" font-family="arial" font-size="14.00">X6:4</text>
<polygon fill="#000000" stroke="transparent" points="326.5,-23 326.5,-25 459.5,-25 459.5,-23 326.5,-23"/>
<polygon fill="#8000ff" stroke="transparent" points="326.5,-21 326.5,-23 459.5,-23 459.5,-21 326.5,-21"/>
<polygon fill="#000000" stroke="transparent" points="326.5,-19 326.5,-21 459.5,-21 459.5,-19 326.5,-19"/>
<text text-anchor="start" x="348" y="-5.8" font-family="arial" font-size="14.00"> </text>
</g>
<!-- X5&#45;&#45;W5 -->
<g id="edge33" class="edge">
<title>X5:e&#45;&#45;W5:w</title>
<path fill="none" stroke="#000000" stroke-width="2" d="M182,-194C257.68,-196.23 246.35,-97.23 326,-95"/>
<path fill="none" stroke="#ff66cc" stroke-width="2" d="M182,-196C259.67,-196 248.33,-97 326,-97"/>
<path fill="none" stroke="#000000" stroke-width="2" d="M182,-198C261.65,-195.77 250.32,-96.77 326,-99"/>
</g>
<!-- X5&#45;&#45;W5 -->
<g id="edge35" class="edge">
<title>X5:e&#45;&#45;W5:w</title>
<path fill="none" stroke="#000000" stroke-width="2" d="M182,-170C257.93,-172.24 246.1,-72.24 326,-70"/>
<path fill="none" stroke="#00ffff" stroke-width="2" d="M182,-172C259.92,-172 248.08,-72 326,-72"/>
<path fill="none" stroke="#000000" stroke-width="2" d="M182,-174C261.9,-171.76 250.07,-71.76 326,-74"/>
</g>
<!-- X5&#45;&#45;W5 -->
<g id="edge37" class="edge">
<title>X5:e&#45;&#45;W5:w</title>
<path fill="none" stroke="#000000" stroke-width="2" d="M182,-147C258.44,-149.25 245.59,-47.25 326,-45"/>
<path fill="none" stroke="#ffff00" stroke-width="2" d="M182,-149C260.43,-149 247.57,-47 326,-47"/>
<path fill="none" stroke="#000000" stroke-width="2" d="M182,-151C262.41,-148.75 249.56,-46.75 326,-49"/>
</g>
<!-- X5&#45;&#45;W5 -->
<g id="edge39" class="edge">
<title>X5:e&#45;&#45;W5:w</title>
<path fill="none" stroke="#000000" stroke-width="2" d="M182,-124C258.96,-126.26 245.07,-22.26 326,-20"/>
<path fill="none" stroke="#8000ff" stroke-width="2" d="M182,-126C260.95,-126 247.05,-22 326,-22"/>
<path fill="none" stroke="#000000" stroke-width="2" d="M182,-128C262.93,-125.74 249.04,-21.74 326,-24"/>
</g>
<!-- X6 -->
<g id="node6" class="node">
<title>X6</title>
<polygon fill="white" stroke="transparent" points="785,-152 603,-152 603,-14 785,-14 785,-152"/>
<polygon fill="none" stroke="black" points="603,-129 603,-152 785,-152 785,-129 603,-129"/>
<text text-anchor="start" x="685.5" y="-136.8" font-family="arial" font-size="14.00">X6</text>
<polygon fill="none" stroke="black" points="603,-106 603,-129 696,-129 696,-106 603,-106"/>
<text text-anchor="start" x="607" y="-113.8" font-family="arial" font-size="14.00">Molex KK 254</text>
<polygon fill="none" stroke="black" points="696,-106 696,-129 746,-129 746,-106 696,-106"/>
<text text-anchor="start" x="700" y="-113.8" font-family="arial" font-size="14.00">female</text>
<polygon fill="none" stroke="black" points="746,-106 746,-129 785,-129 785,-106 746,-106"/>
<text text-anchor="start" x="750" y="-113.8" font-family="arial" font-size="14.00">4&#45;pin</text>
<polygon fill="none" stroke="black" points="603,-83 603,-106 683,-106 683,-83 603,-83"/>
<text text-anchor="start" x="639" y="-90.8" font-family="arial" font-size="14.00">1</text>
<polygon fill="none" stroke="black" points="683,-83 683,-106 785,-106 785,-83 683,-83"/>
<text text-anchor="start" x="718.5" y="-90.8" font-family="arial" font-size="14.00">GND</text>
<polygon fill="none" stroke="black" points="603,-60 603,-83 683,-83 683,-60 603,-60"/>
<text text-anchor="start" x="639" y="-67.8" font-family="arial" font-size="14.00">2</text>
<polygon fill="none" stroke="black" points="683,-60 683,-83 785,-83 785,-60 683,-60"/>
<text text-anchor="start" x="719.5" y="-67.8" font-family="arial" font-size="14.00">VCC</text>
<polygon fill="none" stroke="black" points="603,-37 603,-60 683,-60 683,-37 603,-37"/>
<text text-anchor="start" x="639" y="-44.8" font-family="arial" font-size="14.00">3</text>
<polygon fill="none" stroke="black" points="683,-37 683,-60 785,-60 785,-37 683,-37"/>
<text text-anchor="start" x="720.5" y="-44.8" font-family="arial" font-size="14.00">SCL</text>
<polygon fill="none" stroke="black" points="603,-14 603,-37 683,-37 683,-14 603,-14"/>
<text text-anchor="start" x="639" y="-21.8" font-family="arial" font-size="14.00">4</text>
<polygon fill="none" stroke="black" points="683,-14 683,-37 785,-37 785,-14 683,-14"/>
<text text-anchor="start" x="720" y="-21.8" font-family="arial" font-size="14.00">SDA</text>
</g>
<!-- W1&#45;&#45;X2 -->
<g id="edge2" class="edge">
<title>W1:e&#45;&#45;X2:w</title>
<path fill="none" stroke="#000000" stroke-width="2" d="M459,-911C536.23,-913.27 521.81,-808.27 603,-806"/>
<path fill="none" stroke="#ff66cc" stroke-width="2" d="M459,-913C538.21,-913 523.79,-808 603,-808"/>
<path fill="none" stroke="#000000" stroke-width="2" d="M459,-915C540.19,-912.73 525.77,-807.73 603,-810"/>
</g>
<!-- W1&#45;&#45;X2 -->
<g id="edge4" class="edge">
<title>W1:e&#45;&#45;X2:w</title>
<path fill="none" stroke="#000000" stroke-width="2" d="M459,-886C535.96,-888.26 522.07,-784.26 603,-782"/>
<path fill="none" stroke="#00ffff" stroke-width="2" d="M459,-888C537.95,-888 524.05,-784 603,-784"/>
<path fill="none" stroke="#000000" stroke-width="2" d="M459,-890C539.93,-887.74 526.04,-783.74 603,-786"/>
</g>
<!-- W1&#45;&#45;X2 -->
<g id="edge6" class="edge">
<title>W1:e&#45;&#45;X2:w</title>
<path fill="none" stroke="#000000" stroke-width="2" d="M459,-861C535.44,-863.25 522.59,-761.25 603,-759"/>
<path fill="none" stroke="#ffff00" stroke-width="2" d="M459,-863C537.43,-863 524.57,-761 603,-761"/>
<path fill="none" stroke="#000000" stroke-width="2" d="M459,-865C539.41,-862.75 526.56,-760.75 603,-763"/>
</g>
<!-- W1&#45;&#45;X2 -->
<g id="edge8" class="edge">
<title>W1:e&#45;&#45;X2:w</title>
<path fill="none" stroke="#000000" stroke-width="2" d="M459,-836C534.93,-838.24 523.1,-738.24 603,-736"/>
<path fill="none" stroke="#8000ff" stroke-width="2" d="M459,-838C536.92,-838 525.08,-738 603,-738"/>
<path fill="none" stroke="#000000" stroke-width="2" d="M459,-840C538.9,-837.76 527.07,-737.76 603,-740"/>
</g>
<!-- W2&#45;&#45;X2 -->
<g id="edge10" class="edge">
<title>W2:e&#45;&#45;X2:w</title>
<path fill="none" stroke="#000000" stroke-width="2" d="M459,-707C538.65,-709.23 527.32,-808.23 603,-806"/>
<path fill="none" stroke="#ff66cc" stroke-width="2" d="M459,-709C536.67,-709 525.33,-808 603,-808"/>
<path fill="none" stroke="#000000" stroke-width="2" d="M459,-711C534.68,-708.77 523.35,-807.77 603,-810"/>
</g>
<!-- W2&#45;&#45;X2 -->
<g id="edge12" class="edge">
<title>W2:e&#45;&#45;X2:w</title>
<path fill="none" stroke="#000000" stroke-width="2" d="M459,-682C538.9,-684.24 527.07,-784.24 603,-782"/>
<path fill="none" stroke="#00ffff" stroke-width="2" d="M459,-684C536.92,-684 525.08,-784 603,-784"/>
<path fill="none" stroke="#000000" stroke-width="2" d="M459,-686C534.93,-683.76 523.1,-783.76 603,-786"/>
</g>
<!-- W2&#45;&#45;X2 -->
<g id="edge14" class="edge">
<title>W2:e&#45;&#45;X2:w</title>
<path fill="none" stroke="#000000" stroke-width="2" d="M459,-657C539.41,-659.25 526.56,-761.25 603,-759"/>
<path fill="none" stroke="#ffff00" stroke-width="2" d="M459,-659C537.43,-659 524.57,-761 603,-761"/>
<path fill="none" stroke="#000000" stroke-width="2" d="M459,-661C535.44,-658.75 522.59,-760.75 603,-763"/>
</g>
<!-- W2&#45;&#45;X2 -->
<g id="edge16" class="edge">
<title>W2:e&#45;&#45;X2:w</title>
<path fill="none" stroke="#000000" stroke-width="2" d="M459,-632C539.93,-634.26 526.04,-738.26 603,-736"/>
<path fill="none" stroke="#8000ff" stroke-width="2" d="M459,-634C537.95,-634 524.05,-738 603,-738"/>
<path fill="none" stroke="#000000" stroke-width="2" d="M459,-636C535.96,-633.74 522.07,-737.74 603,-740"/>
</g>
<!-- W3&#45;&#45;X4 -->
<g id="edge18" class="edge">
<title>W3:e&#45;&#45;X4:w</title>
<path fill="none" stroke="#000000" stroke-width="2" d="M459,-503C535.96,-505.26 522.07,-401.26 603,-399"/>
<path fill="none" stroke="#ff66cc" stroke-width="2" d="M459,-505C537.95,-505 524.05,-401 603,-401"/>
<path fill="none" stroke="#000000" stroke-width="2" d="M459,-507C539.93,-504.74 526.04,-400.74 603,-403"/>
</g>
<!-- W3&#45;&#45;X4 -->
<g id="edge20" class="edge">
<title>W3:e&#45;&#45;X4:w</title>
<path fill="none" stroke="#000000" stroke-width="2" d="M459,-478C535.7,-480.26 522.33,-377.26 603,-375"/>
<path fill="none" stroke="#00ffff" stroke-width="2" d="M459,-480C537.69,-480 524.31,-377 603,-377"/>
<path fill="none" stroke="#000000" stroke-width="2" d="M459,-482C539.67,-479.74 526.3,-376.74 603,-379"/>
</g>
<!-- W3&#45;&#45;X4 -->
<g id="edge22" class="edge">
<title>W3:e&#45;&#45;X4:w</title>
<path fill="none" stroke="#000000" stroke-width="2" d="M459,-453C535.19,-455.24 522.84,-354.24 603,-352"/>
<path fill="none" stroke="#ffff00" stroke-width="2" d="M459,-455C537.17,-455 524.83,-354 603,-354"/>
<path fill="none" stroke="#000000" stroke-width="2" d="M459,-457C539.16,-454.76 526.81,-353.76 603,-356"/>
</g>
<!-- W3&#45;&#45;X4 -->
<g id="edge24" class="edge">
<title>W3:e&#45;&#45;X4:w</title>
<path fill="none" stroke="#000000" stroke-width="2" d="M459,-428C534.68,-430.23 523.35,-331.23 603,-329"/>
<path fill="none" stroke="#8000ff" stroke-width="2" d="M459,-430C536.67,-430 525.33,-331 603,-331"/>
<path fill="none" stroke="#000000" stroke-width="2" d="M459,-432C538.65,-429.77 527.32,-330.77 603,-333"/>
</g>
<!-- W4&#45;&#45;X4 -->
<g id="edge26" class="edge">
<title>W4:e&#45;&#45;X4:w</title>
<path fill="none" stroke="#000000" stroke-width="2" d="M459,-299C538.9,-301.24 527.07,-401.24 603,-399"/>
<path fill="none" stroke="#ff66cc" stroke-width="2" d="M459,-301C536.92,-301 525.08,-401 603,-401"/>
<path fill="none" stroke="#000000" stroke-width="2" d="M459,-303C534.93,-300.76 523.1,-400.76 603,-403"/>
</g>
<!-- W4&#45;&#45;X4 -->
<g id="edge28" class="edge">
<title>W4:e&#45;&#45;X4:w</title>
<path fill="none" stroke="#000000" stroke-width="2" d="M459,-274C539.16,-276.24 526.81,-377.24 603,-375"/>
<path fill="none" stroke="#00ffff" stroke-width="2" d="M459,-276C537.17,-276 524.83,-377 603,-377"/>
<path fill="none" stroke="#000000" stroke-width="2" d="M459,-278C535.19,-275.76 522.84,-376.76 603,-379"/>
</g>
<!-- W4&#45;&#45;X4 -->
<g id="edge30" class="edge">
<title>W4:e&#45;&#45;X4:w</title>
<path fill="none" stroke="#000000" stroke-width="2" d="M459,-249C539.67,-251.26 526.3,-354.26 603,-352"/>
<path fill="none" stroke="#ffff00" stroke-width="2" d="M459,-251C537.69,-251 524.31,-354 603,-354"/>
<path fill="none" stroke="#000000" stroke-width="2" d="M459,-253C535.7,-250.74 522.33,-353.74 603,-356"/>
</g>
<!-- W4&#45;&#45;X4 -->
<g id="edge32" class="edge">
<title>W4:e&#45;&#45;X4:w</title>
<path fill="none" stroke="#000000" stroke-width="2" d="M459,-224C540.19,-226.27 525.77,-331.27 603,-329"/>
<path fill="none" stroke="#8000ff" stroke-width="2" d="M459,-226C538.21,-226 523.79,-331 603,-331"/>
<path fill="none" stroke="#000000" stroke-width="2" d="M459,-228C536.23,-225.73 521.81,-330.73 603,-333"/>
</g>
<!-- W5&#45;&#45;X6 -->
<g id="edge34" class="edge">
<title>W5:e&#45;&#45;X6:w</title>
<path fill="none" stroke="#000000" stroke-width="2" d="M459,-95C522.76,-95.02 538.75,-93.02 603,-93"/>
<path fill="none" stroke="#ff66cc" stroke-width="2" d="M459,-97C523.01,-97 538.99,-95 603,-95"/>
<path fill="none" stroke="#000000" stroke-width="2" d="M459,-99C523.25,-98.98 539.24,-96.98 603,-97"/>
</g>
<!-- W5&#45;&#45;X6 -->
<g id="edge36" class="edge">
<title>W5:e&#45;&#45;X6:w</title>
<path fill="none" stroke="#000000" stroke-width="2" d="M459,-70C522.88,-70 538.87,-69 603,-69"/>
<path fill="none" stroke="#00ffff" stroke-width="2" d="M459,-72C523,-72 539,-71 603,-71"/>
<path fill="none" stroke="#000000" stroke-width="2" d="M459,-74C523.13,-74 539.12,-73 603,-73"/>
</g>
<!-- W5&#45;&#45;X6 -->
<g id="edge38" class="edge">
<title>W5:e&#45;&#45;X6:w</title>
<path fill="none" stroke="#000000" stroke-width="2" d="M459,-45C523.13,-45 539.12,-46 603,-46"/>
<path fill="none" stroke="#ffff00" stroke-width="2" d="M459,-47C523,-47 539,-48 603,-48"/>
<path fill="none" stroke="#000000" stroke-width="2" d="M459,-49C522.88,-49 538.87,-50 603,-50"/>
</g>
<!-- W5&#45;&#45;X6 -->
<g id="edge40" class="edge">
<title>W5:e&#45;&#45;X6:w</title>
<path fill="none" stroke="#000000" stroke-width="2" d="M459,-20C523.38,-20.03 539.36,-23.03 603,-23"/>
<path fill="none" stroke="#8000ff" stroke-width="2" d="M459,-22C523.01,-22 538.99,-25 603,-25"/>
<path fill="none" stroke="#000000" stroke-width="2" d="M459,-24C522.64,-23.97 538.62,-26.97 603,-27"/>
</g>
</g>
</svg>
