<?xml version="1.0" encoding="UTF-8" standalone="no"?>
<!DOCTYPE svg PUBLIC "-//W3C//DTD SVG 1.1//EN"
 "http://www.w3.org/Graphics/SVG/1.1/DTD/svg11.dtd">
<!-- Generated by graphviz version 2.44.0 (20200408.0750)
 -->
<!-- Pages: 1 -->
<svg width="837pt" height="150pt"
 viewBox="0.00 0.00 837.00 150.00" xmlns="http://www.w3.org/2000/svg" xmlns:xlink="http://www.w3.org/1999/xlink">
<g id="graph0" class="graph" transform="scale(1 1) rotate(0) translate(4 146)">
<polygon fill="white" stroke="transparent" points="-4,4 -4,-146 833,-146 833,4 -4,4"/>
<!-- X1 -->
<g id="node1" class="node">
<title>X1</title>
<polygon fill="white" stroke="black" points="0,-0.5 0,-115.5 213,-115.5 213,-0.5 0,-0.5"/>
<text text-anchor="middle" x="106.5" y="-100.3" font-family="arial" font-size="14.00">X1</text>
<polyline fill="none" stroke="black" points="0,-92.5 213,-92.5 "/>
<text text-anchor="middle" x="48.5" y="-77.3" font-family="arial" font-size="14.00">TE 776164&#45;1</text>
<polyline fill="none" stroke="black" points="97,-69.5 97,-92.5 "/>
<text text-anchor="middle" x="127" y="-77.3" font-family="arial" font-size="14.00">female</text>
<polyline fill="none" stroke="black" points="157,-69.5 157,-92.5 "/>
<text text-anchor="middle" x="185" y="-77.3" font-family="arial" font-size="14.00">35&#45;pin</text>
<polyline fill="none" stroke="black" points="0,-69.5 213,-69.5 "/>
<text text-anchor="middle" x="106.5" y="-54.3" font-family="arial" font-size="14.00">5</text>
<polyline fill="none" stroke="black" points="0,-46.5 213,-46.5 "/>
<text text-anchor="middle" x="106.5" y="-31.3" font-family="arial" font-size="14.00">6</text>
<polyline fill="none" stroke="black" points="0,-23.5 213,-23.5 "/>
<text text-anchor="middle" x="106.5" y="-8.3" font-family="arial" font-size="14.00">Unconnected pins are not shown</text>
</g>
<!-- C1 -->
<g id="node3" class="node">
<title>C1</title>
<polygon fill="none" stroke="black" points="472,-142 357,-142 357,-12 472,-12 472,-142"/>
<polygon fill="none" stroke="black" points="357.5,-119 357.5,-142 472.5,-142 472.5,-119 357.5,-119"/>
<text text-anchor="start" x="406" y="-126.8" font-family="arial" font-size="14.00">C1</text>
<polygon fill="none" stroke="black" points="357.5,-96 357.5,-119 380.5,-119 380.5,-96 357.5,-96"/>
<text text-anchor="start" x="361.5" y="-103.8" font-family="arial" font-size="14.00">2x</text>
<polygon fill="none" stroke="black" points="380.5,-96 380.5,-119 440.5,-119 440.5,-96 380.5,-96"/>
<text text-anchor="start" x="384.5" y="-103.8" font-family="arial" font-size="14.00">20 AWG</text>
<polygon fill="none" stroke="black" points="440.5,-96 440.5,-119 472.5,-119 472.5,-96 440.5,-96"/>
<text text-anchor="start" x="444.5" y="-103.8" font-family="arial" font-size="14.00">1 m</text>
<text text-anchor="start" x="413" y="-84.8" font-family="arial" font-size="14.00"> </text>
<text text-anchor="start" x="364" y="-67.8" font-family="arial" font-size="14.00">X1:5</text>
<text text-anchor="start" x="406" y="-67.8" font-family="arial" font-size="14.00">YE</text>
<text text-anchor="start" x="438.5" y="-67.8" font-family="arial" font-size="14.00">X2:7</text>
<polygon fill="#ffff00" stroke="transparent" points="357.5,-56 357.5,-62 472.5,-62 472.5,-56 357.5,-56"/>
<polyline fill="none" stroke="black" stroke-width="2" points="358.5,-57 471.5,-57 "/>
<polyline fill="none" stroke="black" stroke-width="2" points="471.5,-61 358.5,-61 "/>
<text text-anchor="start" x="364" y="-42.8" font-family="arial" font-size="14.00">X1:6</text>
<text text-anchor="start" x="404.5" y="-42.8" font-family="arial" font-size="14.00">GN</text>
<text text-anchor="start" x="438.5" y="-42.8" font-family="arial" font-size="14.00">X2:2</text>
<polygon fill="#00ff00" stroke="transparent" stroke-width="2" points="357.5,-31 357.5,-37 472.5,-37 472.5,-31 357.5,-31"/>
<polyline fill="none" stroke="black" stroke-width="2" points="358.5,-32 471.5,-32 "/>
<polyline fill="none" stroke="black" stroke-width="2" points="471.5,-36 358.5,-36 "/>
<text text-anchor="start" x="376" y="-17.8" font-family="arial" font-size="14.00"> </text>
</g>
<!-- X1&#45;&#45;C1 -->
<g id="edge1" class="edge">
<title>X1:e&#45;&#45;C1:w</title>
<path fill="none" stroke="#000000" stroke-width="2" d="M213,-56C277.13,-56 293.12,-57 357,-57"/>
<path fill="none" stroke="#ffff00" stroke-width="2" d="M213,-58C277,-58 293,-59 357,-59"/>
<path fill="none" stroke="#000000" stroke-width="2" d="M213,-60C276.88,-60 292.87,-61 357,-61"/>
</g>
<!-- X1&#45;&#45;C1 -->
<g id="edge3" class="edge">
<title>X1:e&#45;&#45;C1:w</title>
<path fill="none" stroke="#000000" stroke-width="2" d="M213,-33C276.88,-33 292.87,-32 357,-32"/>
<path fill="none" stroke="#00ff00" stroke-width="2" d="M213,-35C277,-35 293,-34 357,-34"/>
<path fill="none" stroke="#000000" stroke-width="2" d="M213,-37C277.13,-37 293.12,-36 357,-36"/>
</g>
<!-- X2 -->
<g id="node2" class="node">
<title>X2</title>
<polygon fill="white" stroke="black" points="616,-0.5 616,-115.5 829,-115.5 829,-0.5 616,-0.5"/>
<text text-anchor="middle" x="722.5" y="-100.3" font-family="arial" font-size="14.00">X2</text>
<polyline fill="none" stroke="black" points="616,-92.5 829,-92.5 "/>
<text text-anchor="middle" x="652" y="-77.3" font-family="arial" font-size="14.00">D&#45;Sub</text>
<polyline fill="none" stroke="black" points="688,-69.5 688,-92.5 "/>
<text text-anchor="middle" x="726" y="-77.3" font-family="arial" font-size="14.00">female</text>
<polyline fill="none" stroke="black" points="764,-69.5 764,-92.5 "/>
<text text-anchor="middle" x="796.5" y="-77.3" font-family="arial" font-size="14.00">9&#45;pin</text>
<polyline fill="none" stroke="black" points="616,-69.5 829,-69.5 "/>
<text text-anchor="middle" x="722.5" y="-54.3" font-family="arial" font-size="14.00">2</text>
<polyline fill="none" stroke="black" points="616,-46.5 829,-46.5 "/>
<text text-anchor="middle" x="722.5" y="-31.3" font-family="arial" font-size="14.00">7</text>
<polyline fill="none" stroke="black" points="616,-23.5 829,-23.5 "/>
<text text-anchor="middle" x="722.5" y="-8.3" font-family="arial" font-size="14.00">Unconnected pins are not shown</text>
</g>
<!-- C1&#45;&#45;X2 -->
<g id="edge2" class="edge">
<title>C1:e&#45;&#45;X2:w</title>
<path fill="none" stroke="#000000" stroke-width="2" d="M472,-57C535.16,-57.98 549.4,-33.98 616,-33"/>
<path fill="none" stroke="#ffff00" stroke-width="2" d="M472,-59C536.88,-59 551.12,-35 616,-35"/>
<path fill="none" stroke="#000000" stroke-width="2" d="M472,-61C538.6,-60.02 552.84,-36.02 616,-37"/>
</g>
<!-- C1&#45;&#45;X2 -->
<g id="edge4" class="edge">
<title>C1:e&#45;&#45;X2:w</title>
<path fill="none" stroke="#000000" stroke-width="2" d="M472,-32C538.6,-32.98 552.84,-56.98 616,-56"/>
<path fill="none" stroke="#00ff00" stroke-width="2" d="M472,-34C536.88,-34 551.12,-58 616,-58"/>
<path fill="none" stroke="#000000" stroke-width="2" d="M472,-36C535.16,-35.02 549.4,-59.02 616,-60"/>
</g>
</g>
</svg>
