<?xml version="1.0" encoding="UTF-8" standalone="no"?>
<!DOCTYPE svg PUBLIC "-//W3C//DTD SVG 1.1//EN"
 "http://www.w3.org/Graphics/SVG/1.1/DTD/svg11.dtd">
<!-- Generated by graphviz version 12.1.2 (0)
 -->
<!-- Pages: 1 -->
<svg width="825pt" height="156pt"
 viewBox="0.00 0.00 825.00 156.12" xmlns="http://www.w3.org/2000/svg" xmlns:xlink="http://www.w3.org/1999/xlink">
<g id="graph0" class="graph" transform="scale(1 1) rotate(0) translate(4 152.12)">
<polygon fill="#ffffff" stroke="none" points="-4,4 -4,-152.12 821,-152.12 821,4 -4,4"/>
<!-- X1 -->
<g id="node1" class="node">
<title>X1</title>
<polygon fill="#ffffff" stroke="black" points="204.5,-118.75 0,-118.75 0,0 204.5,0 204.5,-118.75"/>
<polygon fill="#ffffff" stroke="none" points="0,0 0,-118.75 204.5,-118.75 204.5,0 0,0"/>
<polygon fill="none" stroke="black" points="0,-95 0,-118.75 204.5,-118.75 204.5,-95 0,-95"/>
<text text-anchor="start" x="94" y="-101.45" font-family="arial" font-size="14.00">X1</text>
<polygon fill="none" stroke="black" points="0,-71.25 0,-95 93.92,-95 93.92,-71.25 0,-71.25"/>
<text text-anchor="start" x="7.96" y="-77.7" font-family="arial" font-size="14.00">TE 776164&#45;1</text>
<polygon fill="none" stroke="black" points="93.92,-71.25 93.92,-95 151.08,-95 151.08,-71.25 93.92,-71.25"/>
<text text-anchor="start" x="101.88" y="-77.7" font-family="arial" font-size="14.00">female</text>
<polygon fill="none" stroke="black" points="151.08,-71.25 151.08,-95 204.5,-95 204.5,-71.25 151.08,-71.25"/>
<text text-anchor="start" x="159.04" y="-77.7" font-family="arial" font-size="14.00">35&#45;pin</text>
<polygon fill="none" stroke="black" points="0,-47.5 0,-71.25 204.5,-71.25 204.5,-47.5 0,-47.5"/>
<text text-anchor="start" x="98.5" y="-53.95" font-family="arial" font-size="14.00">5</text>
<polygon fill="none" stroke="black" points="0,-23.75 0,-47.5 204.5,-47.5 204.5,-23.75 0,-23.75"/>
<text text-anchor="start" x="98.5" y="-30.2" font-family="arial" font-size="14.00">6</text>
<polygon fill="none" stroke="black" points="0,0 0,-23.75 204.5,-23.75 204.5,0 0,0"/>
<text text-anchor="start" x="4" y="-6.45" font-family="arial" font-size="14.00">Unconnected pins are not shown</text>
</g>
<!-- C1 -->
<g id="node2" class="node">
<title>C1</title>
<polygon fill="#ffffff" stroke="black" points="468.5,-148.12 348.5,-148.12 348.5,-12.62 468.5,-12.62 468.5,-148.12"/>
<polygon fill="#ffffff" stroke="none" points="348.5,-12.62 348.5,-148.12 468.5,-148.12 468.5,-12.62 348.5,-12.62"/>
<polygon fill="none" stroke="black" points="348.5,-124.38 348.5,-148.12 468.5,-148.12 468.5,-124.38 348.5,-124.38"/>
<text text-anchor="start" x="399.88" y="-130.82" font-family="arial" font-size="14.00">C1</text>
<polygon fill="none" stroke="black" points="348.5,-100.62 348.5,-124.38 373,-124.38 373,-100.62 348.5,-100.62"/>
<text text-anchor="start" x="353.63" y="-107.08" font-family="arial" font-size="14.00">2x</text>
<polygon fill="none" stroke="black" points="373,-100.62 373,-124.38 435,-124.38 435,-100.62 373,-100.62"/>
<text text-anchor="start" x="378.13" y="-107.08" font-family="arial" font-size="14.00">20 AWG</text>
<polygon fill="none" stroke="black" points="435,-100.62 435,-124.38 468.5,-124.38 468.5,-100.62 435,-100.62"/>
<text text-anchor="start" x="440.13" y="-107.08" font-family="arial" font-size="14.00">1 m</text>
<text text-anchor="start" x="364.13" y="-85.33" font-family="arial" font-size="14.00"> </text>
<text text-anchor="start" x="350.25" y="-66.33" font-family="arial" font-size="14.00"> X1:5</text>
<text text-anchor="start" x="385.13" y="-66.33" font-family="arial" font-size="14.00"> </text>
<text text-anchor="start" x="393.88" y="-66.33" font-family="arial" font-size="14.00">1:YE</text>
<text text-anchor="start" x="428.13" y="-66.33" font-family="arial" font-size="14.00"> </text>
<text text-anchor="start" x="435.25" y="-66.33" font-family="arial" font-size="14.00">X2:7 </text>
<text text-anchor="start" x="350.25" y="-41.33" font-family="arial" font-size="14.00"> X1:6</text>
<text text-anchor="start" x="385.13" y="-41.33" font-family="arial" font-size="14.00"> </text>
<text text-anchor="start" x="392.38" y="-41.33" font-family="arial" font-size="14.00">2:GN</text>
<text text-anchor="start" x="428.13" y="-41.33" font-family="arial" font-size="14.00"> </text>
<text text-anchor="start" x="435.25" y="-41.33" font-family="arial" font-size="14.00">X2:2 </text>
<text text-anchor="start" x="364.13" y="-16.32" font-family="arial" font-size="14.00"> </text>
</g>
<!-- X1&#45;&#45;C1 -->
<g id="edge1" class="edge">
<title>X1:e&#45;&#45;C1:w</title>
<path fill="none" stroke="#000000" stroke-width="2" d="M204.5,-57.38C268.53,-57.38 284.53,-57.63 348.5,-57.63"/>
<path fill="none" stroke="#ffff00" stroke-width="2" d="M204.5,-59.38C268.5,-59.37 284.5,-59.62 348.5,-59.62"/>
<path fill="none" stroke="#000000" stroke-width="2" d="M204.5,-61.37C268.47,-61.37 284.47,-61.62 348.5,-61.62"/>
</g>
<!-- X1&#45;&#45;C1 -->
<g id="edge2" class="edge">
<title>X1:e&#45;&#45;C1:w</title>
<path fill="none" stroke="#000000" stroke-width="2" d="M204.5,-33.63C268.38,-33.63 284.38,-32.63 348.5,-32.63"/>
<path fill="none" stroke="#00aa00" stroke-width="2" d="M204.5,-35.62C268.5,-35.62 284.5,-34.62 348.5,-34.62"/>
<path fill="none" stroke="#000000" stroke-width="2" d="M204.5,-37.62C268.63,-37.62 284.63,-36.62 348.5,-36.62"/>
</g>
<!-- C1&#45;&#45;C1 -->
<g id="edge3" class="edge">
<title>C1:e&#45;&#45;C1:w</title>
<path fill="none" stroke="#000000" stroke-width="2" d="M468.5,-61.62C428.5,-61.62 388.5,-61.62 348.5,-61.62"/>
<path fill="none" stroke="#ffff00" stroke-width="2" d="M468.5,-59.63C428.5,-59.62 388.5,-59.62 348.5,-59.63"/>
<path fill="none" stroke="#000000" stroke-width="2" d="M468.5,-57.63C428.5,-57.62 388.5,-57.62 348.5,-57.63"/>
</g>
<!-- C1&#45;&#45;C1 -->
<g id="edge4" class="edge">
<title>C1:e&#45;&#45;C1:w</title>
<path fill="none" stroke="#000000" stroke-width="2" d="M468.5,-36.62C428.5,-36.62 388.5,-36.62 348.5,-36.62"/>
<path fill="none" stroke="#00aa00" stroke-width="2" d="M468.5,-34.63C428.5,-34.62 388.5,-34.62 348.5,-34.63"/>
<path fill="none" stroke="#000000" stroke-width="2" d="M468.5,-32.63C428.5,-32.62 388.5,-32.62 348.5,-32.63"/>
</g>
<!-- X2 -->
<g id="node3" class="node">
<title>X2</title>
<polygon fill="#ffffff" stroke="black" points="817,-118.75 612.5,-118.75 612.5,0 817,0 817,-118.75"/>
<polygon fill="#ffffff" stroke="none" points="612.5,0 612.5,-118.75 817,-118.75 817,0 612.5,0"/>
<polygon fill="none" stroke="black" points="612.5,-95 612.5,-118.75 817,-118.75 817,-95 612.5,-95"/>
<text text-anchor="start" x="706.5" y="-101.45" font-family="arial" font-size="14.00">X2</text>
<polygon fill="none" stroke="black" points="612.5,-71.25 612.5,-95 682.42,-95 682.42,-71.25 612.5,-71.25"/>
<text text-anchor="start" x="628.33" y="-77.7" font-family="arial" font-size="14.00">D&#45;Sub</text>
<polygon fill="none" stroke="black" points="682.42,-71.25 682.42,-95 755.33,-95 755.33,-71.25 682.42,-71.25"/>
<text text-anchor="start" x="698.25" y="-77.7" font-family="arial" font-size="14.00">female</text>
<polygon fill="none" stroke="black" points="755.33,-71.25 755.33,-95 817,-95 817,-71.25 755.33,-71.25"/>
<text text-anchor="start" x="771.17" y="-77.7" font-family="arial" font-size="14.00">9&#45;pin</text>
<polygon fill="none" stroke="black" points="612.5,-47.5 612.5,-71.25 817,-71.25 817,-47.5 612.5,-47.5"/>
<text text-anchor="start" x="711" y="-53.95" font-family="arial" font-size="14.00">2</text>
<polygon fill="none" stroke="black" points="612.5,-23.75 612.5,-47.5 817,-47.5 817,-23.75 612.5,-23.75"/>
<text text-anchor="start" x="711" y="-30.2" font-family="arial" font-size="14.00">7</text>
<polygon fill="none" stroke="black" points="612.5,0 612.5,-23.75 817,-23.75 817,0 612.5,0"/>
<text text-anchor="start" x="616.5" y="-6.45" font-family="arial" font-size="14.00">Unconnected pins are not shown</text>
</g>
<!-- C1&#45;&#45;X2 -->
<g id="edge5" class="edge">
<title>C1:e&#45;&#45;X2:w</title>
<path fill="none" stroke="#000000" stroke-width="2" d="M468.5,-57.63C531.66,-58.6 545.9,-34.6 612.5,-33.63"/>
<path fill="none" stroke="#ffff00" stroke-width="2" d="M468.5,-59.62C533.38,-59.63 547.62,-35.63 612.5,-35.62"/>
<path fill="none" stroke="#000000" stroke-width="2" d="M468.5,-61.62C535.1,-60.65 549.34,-36.65 612.5,-37.62"/>
</g>
<!-- C1&#45;&#45;X2 -->
<g id="edge6" class="edge">
<title>C1:e&#45;&#45;X2:w</title>
<path fill="none" stroke="#000000" stroke-width="2" d="M468.5,-32.63C535.18,-33.63 549.3,-58.38 612.5,-57.38"/>
<path fill="none" stroke="#00aa00" stroke-width="2" d="M468.5,-34.62C533.44,-34.62 547.56,-59.38 612.5,-59.38"/>
<path fill="none" stroke="#000000" stroke-width="2" d="M468.5,-36.62C531.7,-35.62 545.82,-60.37 612.5,-61.37"/>
</g>
</g>
</svg>
