<?xml version="1.0" encoding="UTF-8" standalone="no"?>
<!DOCTYPE svg PUBLIC "-//W3C//DTD SVG 1.1//EN"
 "http://www.w3.org/Graphics/SVG/1.1/DTD/svg11.dtd">
<!-- Generated by graphviz version 2.49.1 (20210923.0004)
 -->
<!-- Pages: 1 -->
<svg width="858pt" height="153pt"
 viewBox="0.00 0.00 858.00 152.50" xmlns="http://www.w3.org/2000/svg" xmlns:xlink="http://www.w3.org/1999/xlink">
<g id="graph0" class="graph" transform="scale(1 1) rotate(0) translate(4 148.5)">
<polygon fill="#ffffff" stroke="transparent" points="-4,4 -4,-148.5 854,-148.5 854,4 -4,4"/>
<!-- X1 -->
<g id="node1" class="node">
<title>X1</title>
<polygon fill="#ffffff" stroke="black" points="212,-115 0,-115 0,0 212,0 212,-115"/>
<polygon fill="none" stroke="black" points="0,-91.5 0,-114.5 212,-114.5 212,-91.5 0,-91.5"/>
<text text-anchor="start" x="97" y="-99.3" font-family="arial" font-size="14.00">X1</text>
<polygon fill="none" stroke="black" points="0,-68.5 0,-91.5 98,-91.5 98,-68.5 0,-68.5"/>
<text text-anchor="start" x="8.5" y="-76.3" font-family="arial" font-size="14.00">TE 776164&#45;1</text>
<polygon fill="none" stroke="black" points="98,-68.5 98,-91.5 157,-91.5 157,-68.5 98,-68.5"/>
<text text-anchor="start" x="106" y="-76.3" font-family="arial" font-size="14.00">female</text>
<polygon fill="none" stroke="black" points="157,-68.5 157,-91.5 212,-91.5 212,-68.5 157,-68.5"/>
<text text-anchor="start" x="165" y="-76.3" font-family="arial" font-size="14.00">35&#45;pin</text>
<polygon fill="none" stroke="black" points="0,-45.5 0,-68.5 212,-68.5 212,-45.5 0,-45.5"/>
<text text-anchor="start" x="102" y="-53.3" font-family="arial" font-size="14.00">5</text>
<polygon fill="none" stroke="black" points="0,-22.5 0,-45.5 212,-45.5 212,-22.5 0,-22.5"/>
<text text-anchor="start" x="102" y="-30.3" font-family="arial" font-size="14.00">6</text>
<polygon fill="none" stroke="black" points="0,0.5 0,-22.5 212,-22.5 212,0.5 0,0.5"/>
<text text-anchor="start" x="4" y="-7.3" font-family="arial" font-size="14.00">Unconnected pins are not shown</text>
</g>
<!-- C1 -->
<g id="node3" class="node">
<title>C1</title>
<polygon fill="#ffffff" stroke="black" points="494,-144.5 356,-144.5 356,-10.5 494,-10.5 494,-144.5"/>
<polygon fill="none" stroke="black" points="356,-121.5 356,-144.5 494,-144.5 494,-121.5 356,-121.5"/>
<text text-anchor="start" x="416" y="-129.3" font-family="arial" font-size="14.00">C1</text>
<polygon fill="none" stroke="black" points="356,-98.5 356,-121.5 387,-121.5 387,-98.5 356,-98.5"/>
<text text-anchor="start" x="364" y="-106.3" font-family="arial" font-size="14.00">2x</text>
<polygon fill="none" stroke="black" points="387,-98.5 387,-121.5 455,-121.5 455,-98.5 387,-98.5"/>
<text text-anchor="start" x="395" y="-106.3" font-family="arial" font-size="14.00">20 AWG</text>
<polygon fill="none" stroke="black" points="455,-98.5 455,-121.5 494,-121.5 494,-98.5 455,-98.5"/>
<text text-anchor="start" x="462.5" y="-106.3" font-family="arial" font-size="14.00">1 m</text>
<text text-anchor="start" x="370.5" y="-85.3" font-family="arial" font-size="14.00"> </text>
<text text-anchor="start" x="358" y="-66.3" font-family="arial" font-size="14.00">X1:5</text>
<text text-anchor="start" x="392" y="-66.3" font-family="arial" font-size="14.00"> &#160;&#160;&#160;&#160;1:YE &#160;&#160;&#160;</text>
<text text-anchor="start" x="463" y="-66.3" font-family="arial" font-size="14.00">X2:7</text>
<polygon fill="#000000" stroke="transparent" points="356,-58.5 356,-60.5 494,-60.5 494,-58.5 356,-58.5"/>
<polygon fill="#ffff00" stroke="transparent" points="356,-56.5 356,-58.5 494,-58.5 494,-56.5 356,-56.5"/>
<polygon fill="#000000" stroke="transparent" points="356,-54.5 356,-56.5 494,-56.5 494,-54.5 356,-54.5"/>
<text text-anchor="start" x="358" y="-41.3" font-family="arial" font-size="14.00">X1:6</text>
<text text-anchor="start" x="391" y="-41.3" font-family="arial" font-size="14.00"> &#160;&#160;&#160;&#160;2:GN &#160;&#160;&#160;</text>
<text text-anchor="start" x="463" y="-41.3" font-family="arial" font-size="14.00">X2:2</text>
<polygon fill="#000000" stroke="transparent" points="356,-33.5 356,-35.5 494,-35.5 494,-33.5 356,-33.5"/>
<polygon fill="#00ff00" stroke="transparent" points="356,-31.5 356,-33.5 494,-33.5 494,-31.5 356,-31.5"/>
<polygon fill="#000000" stroke="transparent" points="356,-29.5 356,-31.5 494,-31.5 494,-29.5 356,-29.5"/>
<text text-anchor="start" x="370.5" y="-16.3" font-family="arial" font-size="14.00"> </text>
</g>
<!-- X1&#45;&#45;C1 -->
<g id="edge1" class="edge">
<title>X1:e&#45;&#45;C1:w</title>
<path fill="none" stroke="#000000" stroke-width="2" d="M212,-54.5C276.13,-54.5 292.12,-55.5 356,-55.5"/>
<path fill="none" stroke="#ffff00" stroke-width="2" d="M212,-56.5C276,-56.5 292,-57.5 356,-57.5"/>
<path fill="none" stroke="#000000" stroke-width="2" d="M212,-58.5C275.88,-58.5 291.87,-59.5 356,-59.5"/>
</g>
<!-- X1&#45;&#45;C1 -->
<g id="edge3" class="edge">
<title>X1:e&#45;&#45;C1:w</title>
<path fill="none" stroke="#000000" stroke-width="2" d="M212,-31.5C275.88,-31.5 291.87,-30.5 356,-30.5"/>
<path fill="none" stroke="#00ff00" stroke-width="2" d="M212,-33.5C276,-33.5 292,-32.5 356,-32.5"/>
<path fill="none" stroke="#000000" stroke-width="2" d="M212,-35.5C276.13,-35.5 292.12,-34.5 356,-34.5"/>
</g>
<!-- X2 -->
<g id="node2" class="node">
<title>X2</title>
<polygon fill="#ffffff" stroke="black" points="850,-115 638,-115 638,0 850,0 850,-115"/>
<polygon fill="none" stroke="black" points="638,-91.5 638,-114.5 850,-114.5 850,-91.5 638,-91.5"/>
<text text-anchor="start" x="735" y="-99.3" font-family="arial" font-size="14.00">X2</text>
<polygon fill="none" stroke="black" points="638,-68.5 638,-91.5 711,-91.5 711,-68.5 638,-68.5"/>
<text text-anchor="start" x="654.5" y="-76.3" font-family="arial" font-size="14.00">D&#45;Sub</text>
<polygon fill="none" stroke="black" points="711,-68.5 711,-91.5 786,-91.5 786,-68.5 711,-68.5"/>
<text text-anchor="start" x="727" y="-76.3" font-family="arial" font-size="14.00">female</text>
<polygon fill="none" stroke="black" points="786,-68.5 786,-91.5 850,-91.5 850,-68.5 786,-68.5"/>
<text text-anchor="start" x="802" y="-76.3" font-family="arial" font-size="14.00">9&#45;pin</text>
<polygon fill="none" stroke="black" points="638,-45.5 638,-68.5 850,-68.5 850,-45.5 638,-45.5"/>
<text text-anchor="start" x="740" y="-53.3" font-family="arial" font-size="14.00">2</text>
<polygon fill="none" stroke="black" points="638,-22.5 638,-45.5 850,-45.5 850,-22.5 638,-22.5"/>
<text text-anchor="start" x="740" y="-30.3" font-family="arial" font-size="14.00">7</text>
<polygon fill="none" stroke="black" points="638,0.5 638,-22.5 850,-22.5 850,0.5 638,0.5"/>
<text text-anchor="start" x="642" y="-7.3" font-family="arial" font-size="14.00">Unconnected pins are not shown</text>
</g>
<!-- C1&#45;&#45;X2 -->
<g id="edge2" class="edge">
<title>C1:e&#45;&#45;X2:w</title>
<path fill="none" stroke="#000000" stroke-width="2" d="M494,-55.5C557.16,-56.48 571.4,-32.48 638,-31.5"/>
<path fill="none" stroke="#ffff00" stroke-width="2" d="M494,-57.5C558.88,-57.5 573.12,-33.5 638,-33.5"/>
<path fill="none" stroke="#000000" stroke-width="2" d="M494,-59.5C560.6,-58.52 574.84,-34.52 638,-35.5"/>
</g>
<!-- C1&#45;&#45;X2 -->
<g id="edge4" class="edge">
<title>C1:e&#45;&#45;X2:w</title>
<path fill="none" stroke="#000000" stroke-width="2" d="M494,-30.5C560.6,-31.48 574.84,-55.48 638,-54.5"/>
<path fill="none" stroke="#00ff00" stroke-width="2" d="M494,-32.5C558.88,-32.5 573.12,-56.5 638,-56.5"/>
<path fill="none" stroke="#000000" stroke-width="2" d="M494,-34.5C557.16,-33.52 571.4,-57.52 638,-58.5"/>
</g>
</g>
</svg>
