<?xml version="1.0" encoding="UTF-8" standalone="no"?>
<!DOCTYPE svg PUBLIC "-//W3C//DTD SVG 1.1//EN"
 "http://www.w3.org/Graphics/SVG/1.1/DTD/svg11.dtd">
<!-- Generated by graphviz version 7.1.0 (20230121.1956)
 -->
<!-- Pages: 1 -->
<svg width="841pt" height="153pt"
 viewBox="0.00 0.00 841.00 152.50" xmlns="http://www.w3.org/2000/svg" xmlns:xlink="http://www.w3.org/1999/xlink">
<g id="graph0" class="graph" transform="scale(1 1) rotate(0) translate(4 148.5)">
<polygon fill="#ffffff" stroke="none" points="-4,4 -4,-148.5 837,-148.5 837,4 -4,4"/>
<!-- X1 -->
<g id="node1" class="node">
<title>X1</title>
<polygon fill="#ffffff" stroke="black" points="205,-115 0,-115 0,0 205,0 205,-115"/>
<polygon fill="none" stroke="black" points="0.5,-91.5 0.5,-114.5 205.5,-114.5 205.5,-91.5 0.5,-91.5"/>
<text text-anchor="start" x="94.5" y="-99.3" font-family="arial" font-size="14.00">X1</text>
<polygon fill="none" stroke="black" points="0.5,-68.5 0.5,-91.5 95.5,-91.5 95.5,-68.5 0.5,-68.5"/>
<text text-anchor="start" x="8.5" y="-76.3" font-family="arial" font-size="14.00">TE 776164&#45;1</text>
<polygon fill="none" stroke="black" points="95.5,-68.5 95.5,-91.5 152.5,-91.5 152.5,-68.5 95.5,-68.5"/>
<text text-anchor="start" x="103" y="-76.3" font-family="arial" font-size="14.00">female</text>
<polygon fill="none" stroke="black" points="152.5,-68.5 152.5,-91.5 205.5,-91.5 205.5,-68.5 152.5,-68.5"/>
<text text-anchor="start" x="160" y="-76.3" font-family="arial" font-size="14.00">35&#45;pin</text>
<polygon fill="none" stroke="black" points="0.5,-45.5 0.5,-68.5 205.5,-68.5 205.5,-45.5 0.5,-45.5"/>
<text text-anchor="start" x="99" y="-53.3" font-family="arial" font-size="14.00">5</text>
<polygon fill="none" stroke="black" points="0.5,-22.5 0.5,-45.5 205.5,-45.5 205.5,-22.5 0.5,-22.5"/>
<text text-anchor="start" x="99" y="-30.3" font-family="arial" font-size="14.00">6</text>
<polygon fill="none" stroke="black" points="0.5,0.5 0.5,-22.5 205.5,-22.5 205.5,0.5 0.5,0.5"/>
<text text-anchor="start" x="4.5" y="-7.3" font-family="arial" font-size="14.00">Unconnected pins are not shown</text>
</g>
<!-- C1 -->
<g id="node3" class="node">
<title>C1</title>
<polygon fill="#ffffff" stroke="black" points="484,-144.5 349,-144.5 349,-10.5 484,-10.5 484,-144.5"/>
<polygon fill="none" stroke="black" points="349.5,-121.5 349.5,-144.5 484.5,-144.5 484.5,-121.5 349.5,-121.5"/>
<text text-anchor="start" x="408" y="-129.3" font-family="arial" font-size="14.00">C1</text>
<polygon fill="none" stroke="black" points="349.5,-98.5 349.5,-121.5 379.5,-121.5 379.5,-98.5 349.5,-98.5"/>
<text text-anchor="start" x="357" y="-106.3" font-family="arial" font-size="14.00">2x</text>
<polygon fill="none" stroke="black" points="379.5,-98.5 379.5,-121.5 446.5,-121.5 446.5,-98.5 379.5,-98.5"/>
<text text-anchor="start" x="387" y="-106.3" font-family="arial" font-size="14.00">20 AWG</text>
<polygon fill="none" stroke="black" points="446.5,-98.5 446.5,-121.5 484.5,-121.5 484.5,-98.5 446.5,-98.5"/>
<text text-anchor="start" x="453.5" y="-106.3" font-family="arial" font-size="14.00">1 m</text>
<text text-anchor="start" x="363.5" y="-85.3" font-family="arial" font-size="14.00"> </text>
<text text-anchor="start" x="351.5" y="-66.3" font-family="arial" font-size="14.00">X1:5</text>
<text text-anchor="start" x="385" y="-66.3" font-family="arial" font-size="14.00"> &#160;&#160;&#160;&#160;1:YE &#160;&#160;&#160;</text>
<text text-anchor="start" x="454.5" y="-66.3" font-family="arial" font-size="14.00">X2:7</text>
<polygon fill="#000000" stroke="none" points="349.5,-58.5 349.5,-60.5 484.5,-60.5 484.5,-58.5 349.5,-58.5"/>
<polygon fill="#ffff00" stroke="none" points="349.5,-56.5 349.5,-58.5 484.5,-58.5 484.5,-56.5 349.5,-56.5"/>
<polygon fill="#000000" stroke="none" points="349.5,-54.5 349.5,-56.5 484.5,-56.5 484.5,-54.5 349.5,-54.5"/>
<text text-anchor="start" x="351.5" y="-41.3" font-family="arial" font-size="14.00">X1:6</text>
<text text-anchor="start" x="383.5" y="-41.3" font-family="arial" font-size="14.00"> &#160;&#160;&#160;&#160;2:GN &#160;&#160;&#160;</text>
<text text-anchor="start" x="454.5" y="-41.3" font-family="arial" font-size="14.00">X2:2</text>
<polygon fill="#000000" stroke="none" points="349.5,-33.5 349.5,-35.5 484.5,-35.5 484.5,-33.5 349.5,-33.5"/>
<polygon fill="#00ff00" stroke="none" points="349.5,-31.5 349.5,-33.5 484.5,-33.5 484.5,-31.5 349.5,-31.5"/>
<polygon fill="#000000" stroke="none" points="349.5,-29.5 349.5,-31.5 484.5,-31.5 484.5,-29.5 349.5,-29.5"/>
<text text-anchor="start" x="363.5" y="-16.3" font-family="arial" font-size="14.00"> </text>
</g>
<!-- X1&#45;&#45;C1 -->
<g id="edge1" class="edge">
<title>X1:e&#45;&#45;C1:w</title>
<path fill="none" stroke="#000000" stroke-width="2" d="M205,-54.5C269.13,-54.5 285.12,-55.5 349,-55.5"/>
<path fill="none" stroke="#ffff00" stroke-width="2" d="M205,-56.5C269,-56.5 285,-57.5 349,-57.5"/>
<path fill="none" stroke="#000000" stroke-width="2" d="M205,-58.5C268.88,-58.5 284.87,-59.5 349,-59.5"/>
</g>
<!-- X1&#45;&#45;C1 -->
<g id="edge3" class="edge">
<title>X1:e&#45;&#45;C1:w</title>
<path fill="none" stroke="#000000" stroke-width="2" d="M205,-31.5C268.88,-31.5 284.87,-30.5 349,-30.5"/>
<path fill="none" stroke="#00ff00" stroke-width="2" d="M205,-33.5C269,-33.5 285,-32.5 349,-32.5"/>
<path fill="none" stroke="#000000" stroke-width="2" d="M205,-35.5C269.13,-35.5 285.12,-34.5 349,-34.5"/>
</g>
<!-- X2 -->
<g id="node2" class="node">
<title>X2</title>
<polygon fill="#ffffff" stroke="black" points="833,-115 628,-115 628,0 833,0 833,-115"/>
<polygon fill="none" stroke="black" points="628.5,-91.5 628.5,-114.5 833.5,-114.5 833.5,-91.5 628.5,-91.5"/>
<text text-anchor="start" x="722.5" y="-99.3" font-family="arial" font-size="14.00">X2</text>
<polygon fill="none" stroke="black" points="628.5,-68.5 628.5,-91.5 698.5,-91.5 698.5,-68.5 628.5,-68.5"/>
<text text-anchor="start" x="644" y="-76.3" font-family="arial" font-size="14.00">D&#45;Sub</text>
<polygon fill="none" stroke="black" points="698.5,-68.5 698.5,-91.5 771.5,-91.5 771.5,-68.5 698.5,-68.5"/>
<text text-anchor="start" x="714" y="-76.3" font-family="arial" font-size="14.00">female</text>
<polygon fill="none" stroke="black" points="771.5,-68.5 771.5,-91.5 833.5,-91.5 833.5,-68.5 771.5,-68.5"/>
<text text-anchor="start" x="787" y="-76.3" font-family="arial" font-size="14.00">9&#45;pin</text>
<polygon fill="none" stroke="black" points="628.5,-45.5 628.5,-68.5 833.5,-68.5 833.5,-45.5 628.5,-45.5"/>
<text text-anchor="start" x="727" y="-53.3" font-family="arial" font-size="14.00">2</text>
<polygon fill="none" stroke="black" points="628.5,-22.5 628.5,-45.5 833.5,-45.5 833.5,-22.5 628.5,-22.5"/>
<text text-anchor="start" x="727" y="-30.3" font-family="arial" font-size="14.00">7</text>
<polygon fill="none" stroke="black" points="628.5,0.5 628.5,-22.5 833.5,-22.5 833.5,0.5 628.5,0.5"/>
<text text-anchor="start" x="632.5" y="-7.3" font-family="arial" font-size="14.00">Unconnected pins are not shown</text>
</g>
<!-- C1&#45;&#45;X2 -->
<g id="edge2" class="edge">
<title>C1:e&#45;&#45;X2:w</title>
<path fill="none" stroke="#000000" stroke-width="2" d="M484,-55.5C547.16,-56.48 561.4,-32.48 628,-31.5"/>
<path fill="none" stroke="#ffff00" stroke-width="2" d="M484,-57.5C548.88,-57.5 563.12,-33.5 628,-33.5"/>
<path fill="none" stroke="#000000" stroke-width="2" d="M484,-59.5C550.6,-58.52 564.84,-34.52 628,-35.5"/>
</g>
<!-- C1&#45;&#45;X2 -->
<g id="edge4" class="edge">
<title>C1:e&#45;&#45;X2:w</title>
<path fill="none" stroke="#000000" stroke-width="2" d="M484,-30.5C550.6,-31.48 564.84,-55.48 628,-54.5"/>
<path fill="none" stroke="#00ff00" stroke-width="2" d="M484,-32.5C548.88,-32.5 563.12,-56.5 628,-56.5"/>
<path fill="none" stroke="#000000" stroke-width="2" d="M484,-34.5C547.16,-33.52 561.4,-57.52 628,-58.5"/>
</g>
</g>
</svg>
