<?xml version="1.0" encoding="UTF-8" standalone="no"?>
<!DOCTYPE svg PUBLIC "-//W3C//DTD SVG 1.1//EN"
 "http://www.w3.org/Graphics/SVG/1.1/DTD/svg11.dtd">
<!-- Generated by graphviz version 11.0.0 (20240428.1522)
 -->
<!-- Pages: 1 -->
<svg width="861pt" height="162pt"
 viewBox="0.00 0.00 861.00 161.75" xmlns="http://www.w3.org/2000/svg" xmlns:xlink="http://www.w3.org/1999/xlink">
<g id="graph0" class="graph" transform="scale(1 1) rotate(0) translate(4 157.75)">
<polygon fill="#ffffff" stroke="none" points="-4,4 -4,-157.75 857,-157.75 857,4 -4,4"/>
<!-- X1 -->
<g id="node1" class="node">
<title>X1</title>
<polygon fill="#ffffff" stroke="black" points="213.5,-122.5 0,-122.5 0,0 213.5,0 213.5,-122.5"/>
<polygon fill="none" stroke="black" points="0,-98 0,-122.5 213.5,-122.5 213.5,-98 0,-98"/>
<text text-anchor="start" x="97.75" y="-105.2" font-family="arial" font-size="14.00">X1</text>
<polygon fill="none" stroke="black" points="0,-73.5 0,-98 99.92,-98 99.92,-73.5 0,-73.5"/>
<text text-anchor="start" x="7.58" y="-80.7" font-family="arial" font-size="14.00">TE 776164&#45;1</text>
<polygon fill="none" stroke="black" points="99.92,-73.5 99.92,-98 158.58,-98 158.58,-73.5 99.92,-73.5"/>
<text text-anchor="start" x="107.5" y="-80.7" font-family="arial" font-size="14.00">female</text>
<polygon fill="none" stroke="black" points="158.58,-73.5 158.58,-98 213.5,-98 213.5,-73.5 158.58,-73.5"/>
<text text-anchor="start" x="166.17" y="-80.7" font-family="arial" font-size="14.00">35&#45;pin</text>
<polygon fill="none" stroke="black" points="0,-49 0,-73.5 213.5,-73.5 213.5,-49 0,-49"/>
<text text-anchor="start" x="102.63" y="-56.2" font-family="arial" font-size="14.00">5</text>
<polygon fill="none" stroke="black" points="0,-24.5 0,-49 213.5,-49 213.5,-24.5 0,-24.5"/>
<text text-anchor="start" x="102.63" y="-31.7" font-family="arial" font-size="14.00">6</text>
<polygon fill="none" stroke="black" points="0,0 0,-24.5 213.5,-24.5 213.5,0 0,0"/>
<text text-anchor="start" x="4" y="-7.2" font-family="arial" font-size="14.00">Unconnected pins are not shown</text>
</g>
<!-- C1 -->
<g id="node2" class="node">
<title>C1</title>
<polygon fill="#ffffff" stroke="black" points="495.5,-153.75 357.5,-153.75 357.5,-12.75 495.5,-12.75 495.5,-153.75"/>
<polygon fill="none" stroke="black" points="357.5,-129.25 357.5,-153.75 495.5,-153.75 495.5,-129.25 357.5,-129.25"/>
<text text-anchor="start" x="417.13" y="-136.45" font-family="arial" font-size="14.00">C1</text>
<polygon fill="none" stroke="black" points="357.5,-104.75 357.5,-129.25 387,-129.25 387,-104.75 357.5,-104.75"/>
<text text-anchor="start" x="364.75" y="-111.95" font-family="arial" font-size="14.00">2x</text>
<polygon fill="none" stroke="black" points="387,-104.75 387,-129.25 457,-129.25 457,-104.75 387,-104.75"/>
<text text-anchor="start" x="394.25" y="-111.95" font-family="arial" font-size="14.00">20 AWG</text>
<polygon fill="none" stroke="black" points="457,-104.75 457,-129.25 495.5,-129.25 495.5,-104.75 457,-104.75"/>
<text text-anchor="start" x="464.25" y="-111.95" font-family="arial" font-size="14.00">1 m</text>
<text text-anchor="start" x="372.63" y="-89.45" font-family="arial" font-size="14.00"> </text>
<text text-anchor="start" x="359.5" y="-69.45" font-family="arial" font-size="14.00">X1:5</text>
<text text-anchor="start" x="394.25" y="-69.45" font-family="arial" font-size="14.00"> &#160;&#160;&#160;&#160;1:YE &#160;&#160;&#160;</text>
<text text-anchor="start" x="463.5" y="-69.45" font-family="arial" font-size="14.00">X2:7</text>
<text text-anchor="start" x="359.5" y="-43.45" font-family="arial" font-size="14.00">X1:6</text>
<text text-anchor="start" x="393.13" y="-43.45" font-family="arial" font-size="14.00"> &#160;&#160;&#160;&#160;2:GN &#160;&#160;&#160;</text>
<text text-anchor="start" x="463.5" y="-43.45" font-family="arial" font-size="14.00">X2:2</text>
<text text-anchor="start" x="372.63" y="-17.45" font-family="arial" font-size="14.00"> </text>
</g>
<!-- X1&#45;&#45;C1 -->
<g id="edge1" class="edge">
<title>X1:e&#45;&#45;C1:w</title>
<path fill="none" stroke="#000000" stroke-width="2" d="M213.5,-59.25C277.56,-59.25 293.56,-59.75 357.5,-59.75"/>
<path fill="none" stroke="#ffff00" stroke-width="2" d="M213.5,-61.25C277.5,-61.25 293.5,-61.75 357.5,-61.75"/>
<path fill="none" stroke="#000000" stroke-width="2" d="M213.5,-63.25C277.44,-63.25 293.44,-63.75 357.5,-63.75"/>
</g>
<!-- X1&#45;&#45;C1 -->
<g id="edge2" class="edge">
<title>X1:e&#45;&#45;C1:w</title>
<path fill="none" stroke="#000000" stroke-width="2" d="M213.5,-34.75C277.38,-34.75 293.38,-33.75 357.5,-33.75"/>
<path fill="none" stroke="#00ff00" stroke-width="2" d="M213.5,-36.75C277.5,-36.75 293.5,-35.75 357.5,-35.75"/>
<path fill="none" stroke="#000000" stroke-width="2" d="M213.5,-38.75C277.63,-38.75 293.63,-37.75 357.5,-37.75"/>
</g>
<!-- C1&#45;&#45;C1 -->
<g id="edge3" class="edge">
<title>C1:w&#45;&#45;C1:e</title>
<path fill="none" stroke="#000000" stroke-width="2" d="M357.5,-59.75C403.5,-59.75 449.5,-59.75 495.5,-59.75"/>
<path fill="none" stroke="#ffff00" stroke-width="2" d="M357.5,-61.75C403.5,-61.75 449.5,-61.75 495.5,-61.75"/>
<path fill="none" stroke="#000000" stroke-width="2" d="M357.5,-63.75C403.5,-63.75 449.5,-63.75 495.5,-63.75"/>
</g>
<!-- C1&#45;&#45;C1 -->
<g id="edge4" class="edge">
<title>C1:w&#45;&#45;C1:e</title>
<path fill="none" stroke="#000000" stroke-width="2" d="M357.5,-33.75C403.5,-33.75 449.5,-33.75 495.5,-33.75"/>
<path fill="none" stroke="#00ff00" stroke-width="2" d="M357.5,-35.75C403.5,-35.75 449.5,-35.75 495.5,-35.75"/>
<path fill="none" stroke="#000000" stroke-width="2" d="M357.5,-37.75C403.5,-37.75 449.5,-37.75 495.5,-37.75"/>
</g>
<!-- X2 -->
<g id="node3" class="node">
<title>X2</title>
<polygon fill="#ffffff" stroke="black" points="853,-122.5 639.5,-122.5 639.5,0 853,0 853,-122.5"/>
<polygon fill="none" stroke="black" points="639.5,-98 639.5,-122.5 853,-122.5 853,-98 639.5,-98"/>
<text text-anchor="start" x="737.25" y="-105.2" font-family="arial" font-size="14.00">X2</text>
<polygon fill="none" stroke="black" points="639.5,-73.5 639.5,-98 712.67,-98 712.67,-73.5 639.5,-73.5"/>
<text text-anchor="start" x="655.83" y="-80.7" font-family="arial" font-size="14.00">D&#45;Sub</text>
<polygon fill="none" stroke="black" points="712.67,-73.5 712.67,-98 788.83,-98 788.83,-73.5 712.67,-73.5"/>
<text text-anchor="start" x="729" y="-80.7" font-family="arial" font-size="14.00">female</text>
<polygon fill="none" stroke="black" points="788.83,-73.5 788.83,-98 853,-98 853,-73.5 788.83,-73.5"/>
<text text-anchor="start" x="805.17" y="-80.7" font-family="arial" font-size="14.00">9&#45;pin</text>
<polygon fill="none" stroke="black" points="639.5,-49 639.5,-73.5 853,-73.5 853,-49 639.5,-49"/>
<text text-anchor="start" x="742.13" y="-56.2" font-family="arial" font-size="14.00">2</text>
<polygon fill="none" stroke="black" points="639.5,-24.5 639.5,-49 853,-49 853,-24.5 639.5,-24.5"/>
<text text-anchor="start" x="742.13" y="-31.7" font-family="arial" font-size="14.00">7</text>
<polygon fill="none" stroke="black" points="639.5,0 639.5,-24.5 853,-24.5 853,0 639.5,0"/>
<text text-anchor="start" x="643.5" y="-7.2" font-family="arial" font-size="14.00">Unconnected pins are not shown</text>
</g>
<!-- C1&#45;&#45;X2 -->
<g id="edge5" class="edge">
<title>C1:e&#45;&#45;X2:w</title>
<path fill="none" stroke="#000000" stroke-width="2" d="M495.5,-59.75C558.72,-60.77 572.8,-35.77 639.5,-34.75"/>
<path fill="none" stroke="#ffff00" stroke-width="2" d="M495.5,-61.75C560.46,-61.75 574.54,-36.75 639.5,-36.75"/>
<path fill="none" stroke="#000000" stroke-width="2" d="M495.5,-63.75C562.2,-62.73 576.28,-37.73 639.5,-38.75"/>
</g>
<!-- C1&#45;&#45;X2 -->
<g id="edge6" class="edge">
<title>C1:e&#45;&#45;X2:w</title>
<path fill="none" stroke="#000000" stroke-width="2" d="M495.5,-33.75C562.25,-34.79 576.25,-60.29 639.5,-59.25"/>
<path fill="none" stroke="#00ff00" stroke-width="2" d="M495.5,-35.75C560.5,-35.75 574.5,-61.25 639.5,-61.25"/>
<path fill="none" stroke="#000000" stroke-width="2" d="M495.5,-37.75C558.75,-36.71 572.75,-62.21 639.5,-63.25"/>
</g>
</g>
</svg>
