<?xml version="1.0" encoding="UTF-8" standalone="no"?>
<!DOCTYPE svg PUBLIC "-//W3C//DTD SVG 1.1//EN"
 "http://www.w3.org/Graphics/SVG/1.1/DTD/svg11.dtd">
<!-- Generated by graphviz version 2.38.0 (20140413.2041)
 -->
<!-- Title: %3 Pages: 1 -->
<svg width="1071pt" height="288pt"
 viewBox="0.00 0.00 1071.00 288.00" xmlns="http://www.w3.org/2000/svg" xmlns:xlink="http://www.w3.org/1999/xlink">
<g id="graph0" class="graph" transform="scale(1 1) rotate(0) translate(4 284)">
<title>%3</title>
<polygon fill="#fffbf8" stroke="none" points="-4,4 -4,-284 1067,-284 1067,4 -4,4"/>
<!-- X1 -->
<g id="node1" class="node"><title>X1</title>
<polygon fill="white" stroke="black" points="0,-18 0,-248 327,-248 327,-18 0,-18"/>
<text text-anchor="middle" x="163.5" y="-232.8" font-family="arial" font-size="14.00">X1</text>
<polyline fill="none" stroke="black" points="0,-225 327,-225 "/>
<text text-anchor="middle" x="116" y="-209.8" font-family="arial" font-size="14.00">Stewart Connector SS&#45;37000&#45;002</text>
<polyline fill="none" stroke="black" points="232,-202 232,-225 "/>
<text text-anchor="middle" x="255.5" y="-209.8" font-family="arial" font-size="14.00">male</text>
<polyline fill="none" stroke="black" points="279,-202 279,-225 "/>
<text text-anchor="middle" x="303" y="-209.8" font-family="arial" font-size="14.00">8&#45;pin</text>
<polyline fill="none" stroke="black" points="0,-202 327,-202 "/>
<text text-anchor="middle" x="87" y="-186.8" font-family="arial" font-size="14.00">DA+</text>
<polyline fill="none" stroke="black" points="0,-179 174,-179 "/>
<text text-anchor="middle" x="87" y="-163.8" font-family="arial" font-size="14.00">DA&#45;</text>
<polyline fill="none" stroke="black" points="0,-156 174,-156 "/>
<text text-anchor="middle" x="87" y="-140.8" font-family="arial" font-size="14.00">DB+</text>
<polyline fill="none" stroke="black" points="0,-133 174,-133 "/>
<text text-anchor="middle" x="87" y="-117.8" font-family="arial" font-size="14.00">DC+</text>
<polyline fill="none" stroke="black" points="0,-110 174,-110 "/>
<text text-anchor="middle" x="87" y="-94.8" font-family="arial" font-size="14.00">DC&#45;</text>
<polyline fill="none" stroke="black" points="0,-87 174,-87 "/>
<text text-anchor="middle" x="87" y="-71.8" font-family="arial" font-size="14.00">DB&#45;</text>
<polyline fill="none" stroke="black" points="0,-64 174,-64 "/>
<text text-anchor="middle" x="87" y="-48.8" font-family="arial" font-size="14.00">DD+</text>
<polyline fill="none" stroke="black" points="0,-41 174,-41 "/>
<text text-anchor="middle" x="87" y="-25.8" font-family="arial" font-size="14.00">DD&#45;</text>
<polyline fill="none" stroke="black" points="174,-18 174,-202 "/>
<text text-anchor="middle" x="250.5" y="-186.8" font-family="arial" font-size="14.00">1</text>
<polyline fill="none" stroke="black" points="174,-179 327,-179 "/>
<text text-anchor="middle" x="250.5" y="-163.8" font-family="arial" font-size="14.00">2</text>
<polyline fill="none" stroke="black" points="174,-156 327,-156 "/>
<text text-anchor="middle" x="250.5" y="-140.8" font-family="arial" font-size="14.00">3</text>
<polyline fill="none" stroke="black" points="174,-133 327,-133 "/>
<text text-anchor="middle" x="250.5" y="-117.8" font-family="arial" font-size="14.00">4</text>
<polyline fill="none" stroke="black" points="174,-110 327,-110 "/>
<text text-anchor="middle" x="250.5" y="-94.8" font-family="arial" font-size="14.00">5</text>
<polyline fill="none" stroke="black" points="174,-87 327,-87 "/>
<text text-anchor="middle" x="250.5" y="-71.8" font-family="arial" font-size="14.00">6</text>
<polyline fill="none" stroke="black" points="174,-64 327,-64 "/>
<text text-anchor="middle" x="250.5" y="-48.8" font-family="arial" font-size="14.00">7</text>
<polyline fill="none" stroke="black" points="174,-41 327,-41 "/>
<text text-anchor="middle" x="250.5" y="-25.8" font-family="arial" font-size="14.00">8</text>
</g>
<!-- W1 -->
<g id="node3" class="node"><title>W1</title>
<polygon fill="none" stroke="black" points="592,-280 471,-280 471,-0 592,-0 592,-280"/>
<polygon fill="none" stroke="black" points="471.5,-257 471.5,-280 592.5,-280 592.5,-257 471.5,-257"/>
<text text-anchor="start" x="520.5" y="-264.8" font-family="arial" font-size="14.00">W1</text>
<polygon fill="none" stroke="black" points="471.5,-234 471.5,-257 495.5,-257 495.5,-234 471.5,-234"/>
<text text-anchor="start" x="475.5" y="-241.8" font-family="arial" font-size="14.00">8x</text>
<polygon fill="none" stroke="black" points="495.5,-234 495.5,-257 559.5,-257 559.5,-234 495.5,-234"/>
<text text-anchor="start" x="499.5" y="-241.8" font-family="arial" font-size="14.00">24 AWG</text>
<polygon fill="none" stroke="black" points="559.5,-234 559.5,-257 592.5,-257 592.5,-234 559.5,-234"/>
<text text-anchor="start" x="563.5" y="-241.8" font-family="arial" font-size="14.00">1 m</text>
<text text-anchor="start" x="530" y="-222.8" font-family="arial" font-size="14.00"> </text>
<text text-anchor="start" x="473.5" y="-205.8" font-family="arial" font-size="14.00">X1:1</text>
<text text-anchor="start" x="509" y="-205.8" font-family="arial" font-size="14.00">WHGN</text>
<text text-anchor="start" x="559.5" y="-205.8" font-family="arial" font-size="14.00">X2:3</text>
<defs>
<linearGradient id="l_0" gradientUnits="userSpaceOnUse" x1="471.5" y1="-197" x2="592.5" y2="-197" >
<stop offset="0" style="stop-color:#ffffff;stop-opacity:1.;"/>
<stop offset="1" style="stop-color:#00ff00;stop-opacity:1.;"/>
</linearGradient>
</defs>
<polygon fill="url(#l_0)" stroke="none" points="471.5,-194 471.5,-200 592.5,-200 592.5,-194 471.5,-194"/>
<polyline fill="none" stroke="black" stroke-width="2" points="472.5,-195 591.5,-195 "/>
<polyline fill="none" stroke="black" stroke-width="2" points="591.5,-199 472.5,-199 "/>
<text text-anchor="start" x="473.5" y="-180.8" font-family="arial" font-size="14.00">X1:2</text>
<text text-anchor="start" x="521" y="-180.8" font-family="arial" font-size="14.00">GN</text>
<text text-anchor="start" x="559.5" y="-180.8" font-family="arial" font-size="14.00">X2:6</text>
<polygon fill="#00ff00" stroke="none" stroke-width="2" points="471.5,-169 471.5,-175 592.5,-175 592.5,-169 471.5,-169"/>
<polyline fill="none" stroke="black" stroke-width="2" points="472.5,-170 591.5,-170 "/>
<polyline fill="none" stroke="black" stroke-width="2" points="591.5,-174 472.5,-174 "/>
<text text-anchor="start" x="473.5" y="-155.8" font-family="arial" font-size="14.00">X1:3</text>
<text text-anchor="start" x="508.5" y="-155.8" font-family="arial" font-size="14.00">WHOG</text>
<text text-anchor="start" x="559.5" y="-155.8" font-family="arial" font-size="14.00">X2:1</text>
<defs>
<linearGradient id="l_1" gradientUnits="userSpaceOnUse" x1="471.5" y1="-147" x2="592.5" y2="-147" >
<stop offset="0" style="stop-color:#ffffff;stop-opacity:1.;"/>
<stop offset="1" style="stop-color:#ff8000;stop-opacity:1.;"/>
</linearGradient>
</defs>
<polygon fill="url(#l_1)" stroke="none" stroke-width="2" points="471.5,-144 471.5,-150 592.5,-150 592.5,-144 471.5,-144"/>
<polyline fill="none" stroke="black" stroke-width="2" points="472.5,-145 591.5,-145 "/>
<polyline fill="none" stroke="black" stroke-width="2" points="591.5,-149 472.5,-149 "/>
<text text-anchor="start" x="473.5" y="-130.8" font-family="arial" font-size="14.00">X1:4</text>
<text text-anchor="start" x="522" y="-130.8" font-family="arial" font-size="14.00">BU</text>
<text text-anchor="start" x="559.5" y="-130.8" font-family="arial" font-size="14.00">X2:7</text>
<polygon fill="#0066ff" stroke="none" stroke-width="2" points="471.5,-119 471.5,-125 592.5,-125 592.5,-119 471.5,-119"/>
<polyline fill="none" stroke="black" stroke-width="2" points="472.5,-120 591.5,-120 "/>
<polyline fill="none" stroke="black" stroke-width="2" points="591.5,-124 472.5,-124 "/>
<text text-anchor="start" x="473.5" y="-105.8" font-family="arial" font-size="14.00">X1:5</text>
<text text-anchor="start" x="510" y="-105.8" font-family="arial" font-size="14.00">WHBU</text>
<text text-anchor="start" x="559.5" y="-105.8" font-family="arial" font-size="14.00">X2:8</text>
<defs>
<linearGradient id="l_2" gradientUnits="userSpaceOnUse" x1="471.5" y1="-97" x2="592.5" y2="-97" >
<stop offset="0" style="stop-color:#ffffff;stop-opacity:1.;"/>
<stop offset="1" style="stop-color:#0066ff;stop-opacity:1.;"/>
</linearGradient>
</defs>
<polygon fill="url(#l_2)" stroke="none" stroke-width="2" points="471.5,-94 471.5,-100 592.5,-100 592.5,-94 471.5,-94"/>
<polyline fill="none" stroke="black" stroke-width="2" points="472.5,-95 591.5,-95 "/>
<polyline fill="none" stroke="black" stroke-width="2" points="591.5,-99 472.5,-99 "/>
<text text-anchor="start" x="473.5" y="-80.8" font-family="arial" font-size="14.00">X1:6</text>
<text text-anchor="start" x="520.5" y="-80.8" font-family="arial" font-size="14.00">OG</text>
<text text-anchor="start" x="559.5" y="-80.8" font-family="arial" font-size="14.00">X2:2</text>
<polygon fill="#ff8000" stroke="none" stroke-width="2" points="471.5,-69 471.5,-75 592.5,-75 592.5,-69 471.5,-69"/>
<polyline fill="none" stroke="black" stroke-width="2" points="472.5,-70 591.5,-70 "/>
<polyline fill="none" stroke="black" stroke-width="2" points="591.5,-74 472.5,-74 "/>
<text text-anchor="start" x="473.5" y="-55.8" font-family="arial" font-size="14.00">X1:7</text>
<text text-anchor="start" x="510" y="-55.8" font-family="arial" font-size="14.00">WHBN</text>
<text text-anchor="start" x="559.5" y="-55.8" font-family="arial" font-size="14.00">X2:4</text>
<defs>
<linearGradient id="l_3" gradientUnits="userSpaceOnUse" x1="471.5" y1="-47" x2="592.5" y2="-47" >
<stop offset="0" style="stop-color:#ffffff;stop-opacity:1.;"/>
<stop offset="1" style="stop-color:#a52a2a;stop-opacity:1.;"/>
</linearGradient>
</defs>
<polygon fill="url(#l_3)" stroke="none" stroke-width="2" points="471.5,-44 471.5,-50 592.5,-50 592.5,-44 471.5,-44"/>
<polyline fill="none" stroke="black" stroke-width="2" points="472.5,-45 591.5,-45 "/>
<polyline fill="none" stroke="black" stroke-width="2" points="591.5,-49 472.5,-49 "/>
<text text-anchor="start" x="473.5" y="-30.8" font-family="arial" font-size="14.00">X1:8</text>
<text text-anchor="start" x="522" y="-30.8" font-family="arial" font-size="14.00">BN</text>
<text text-anchor="start" x="559.5" y="-30.8" font-family="arial" font-size="14.00">X2:5</text>
<polygon fill="#a52a2a" stroke="none" stroke-width="2" points="471.5,-19 471.5,-25 592.5,-25 592.5,-19 471.5,-19"/>
<polyline fill="none" stroke="black" stroke-width="2" points="472.5,-20 591.5,-20 "/>
<polyline fill="none" stroke="black" stroke-width="2" points="591.5,-24 472.5,-24 "/>
<text text-anchor="start" x="487" y="-5.8" font-family="arial" font-size="14.00"> </text>
</g>
<!-- X1&#45;&#45;W1 -->
<g id="edge1" class="edge"><title>X1:p1r:e&#45;&#45;W1:w1:w</title>
<path fill="none" stroke="#000000" stroke-width="2" d="M327,-187C392.469,-187.258 408.358,-193.258 471,-193"/>
<path fill="none" stroke="#ffffff" stroke-width="2" d="M327,-189C391.762,-189.129 407.651,-195.129 471,-195"/>
<path fill="none" stroke="#00ff00" stroke-width="2" d="M327,-191C391.056,-191 406.944,-197 471,-197"/>
<path fill="none" stroke="#ffffff" stroke-width="2" d="M327,-193C390.349,-192.871 406.238,-198.871 471,-199"/>
<path fill="none" stroke="#000000" stroke-width="2" d="M327,-195C389.642,-194.742 405.531,-200.742 471,-201"/>
</g>
<!-- X1&#45;&#45;W1 -->
<g id="edge3" class="edge"><title>X1:p2r:e&#45;&#45;W1:w2:w</title>
<path fill="none" stroke="#000000" stroke-width="2" d="M327,-166C391.511,-166.06 407.462,-170.06 471,-170"/>
<path fill="none" stroke="#00ff00" stroke-width="2" d="M327,-168C391.025,-168 406.975,-172 471,-172"/>
<path fill="none" stroke="#000000" stroke-width="2" d="M327,-170C390.538,-169.94 406.489,-173.94 471,-174"/>
</g>
<!-- X1&#45;&#45;W1 -->
<g id="edge5" class="edge"><title>X1:p3r:e&#45;&#45;W1:w3:w</title>
<path fill="none" stroke="#000000" stroke-width="2" d="M327,-141C391.503,-141.031 407.49,-143.031 471,-143"/>
<path fill="none" stroke="#ffffff" stroke-width="2" d="M327,-143C391.254,-143.015 407.242,-145.015 471,-145"/>
<path fill="none" stroke="#ff8000" stroke-width="2" d="M327,-145C391.006,-145 406.994,-147 471,-147"/>
<path fill="none" stroke="#ffffff" stroke-width="2" d="M327,-147C390.758,-146.985 406.746,-148.985 471,-149"/>
<path fill="none" stroke="#000000" stroke-width="2" d="M327,-149C390.51,-148.969 406.497,-150.969 471,-151"/>
</g>
<!-- X1&#45;&#45;W1 -->
<g id="edge7" class="edge"><title>X1:p4r:e&#45;&#45;W1:w4:w</title>
<path fill="none" stroke="#000000" stroke-width="2" d="M327,-119C391.126,-119.004 407.123,-120.004 471,-120"/>
<path fill="none" stroke="#0066ff" stroke-width="2" d="M327,-121C391.002,-121 406.998,-122 471,-122"/>
<path fill="none" stroke="#000000" stroke-width="2" d="M327,-123C390.877,-122.996 406.874,-123.996 471,-124"/>
</g>
<!-- X1&#45;&#45;W1 -->
<g id="edge9" class="edge"><title>X1:p5r:e&#45;&#45;W1:w5:w</title>
<path fill="none" stroke="#000000" stroke-width="2" d="M327,-94C390.752,-94.0078 406.749,-93.0078 471,-93"/>
<path fill="none" stroke="#ffffff" stroke-width="2" d="M327,-96C390.877,-96.0039 406.874,-95.0039 471,-95"/>
<path fill="none" stroke="#0066ff" stroke-width="2" d="M327,-98C391.002,-98 406.998,-97 471,-97"/>
<path fill="none" stroke="#ffffff" stroke-width="2" d="M327,-100C391.126,-99.9961 407.123,-98.9961 471,-99"/>
<path fill="none" stroke="#000000" stroke-width="2" d="M327,-102C391.251,-101.992 407.248,-100.992 471,-101"/>
</g>
<!-- X1&#45;&#45;W1 -->
<g id="edge11" class="edge"><title>X1:p6r:e&#45;&#45;W1:w6:w</title>
<path fill="none" stroke="#000000" stroke-width="2" d="M327,-73C390.645,-73.0344 406.617,-70.0344 471,-70"/>
<path fill="none" stroke="#ff8000" stroke-width="2" d="M327,-75C391.014,-75 406.986,-72 471,-72"/>
<path fill="none" stroke="#000000" stroke-width="2" d="M327,-77C391.383,-76.9656 407.355,-73.9656 471,-74"/>
</g>
<!-- X1&#45;&#45;W1 -->
<g id="edge13" class="edge"><title>X1:p7r:e&#45;&#45;W1:w7:w</title>
<path fill="none" stroke="#000000" stroke-width="2" d="M327,-48C389.84,-48.1837 405.763,-43.1837 471,-43"/>
<path fill="none" stroke="#ffffff" stroke-width="2" d="M327,-50C390.439,-50.0919 406.362,-45.0919 471,-45"/>
<path fill="none" stroke="#a52a2a" stroke-width="2" d="M327,-52C391.039,-52 406.961,-47 471,-47"/>
<path fill="none" stroke="#ffffff" stroke-width="2" d="M327,-54C391.638,-53.9081 407.561,-48.9081 471,-49"/>
<path fill="none" stroke="#000000" stroke-width="2" d="M327,-56C392.237,-55.8163 408.16,-50.8163 471,-51"/>
</g>
<!-- X1&#45;&#45;W1 -->
<g id="edge15" class="edge"><title>X1:p8r:e&#45;&#45;W1:w8:w</title>
<path fill="none" stroke="#000000" stroke-width="2" d="M327,-27C390.268,-27.1705 406.116,-20.1705 471,-20"/>
<path fill="none" stroke="#a52a2a" stroke-width="2" d="M327,-29C391.076,-29 406.924,-22 471,-22"/>
<path fill="none" stroke="#000000" stroke-width="2" d="M327,-31C391.884,-30.8295 407.732,-23.8295 471,-24"/>
</g>
<!-- X2 -->
<g id="node2" class="node"><title>X2</title>
<polygon fill="white" stroke="black" points="736,-22 736,-252 1063,-252 1063,-22 736,-22"/>
<text text-anchor="middle" x="899.5" y="-236.8" font-family="arial" font-size="14.00">X2</text>
<polyline fill="none" stroke="black" points="736,-229 1063,-229 "/>
<text text-anchor="middle" x="852" y="-213.8" font-family="arial" font-size="14.00">Stewart Connector SS&#45;37000&#45;002</text>
<polyline fill="none" stroke="black" points="968,-206 968,-229 "/>
<text text-anchor="middle" x="991.5" y="-213.8" font-family="arial" font-size="14.00">male</text>
<polyline fill="none" stroke="black" points="1015,-206 1015,-229 "/>
<text text-anchor="middle" x="1039" y="-213.8" font-family="arial" font-size="14.00">8&#45;pin</text>
<polyline fill="none" stroke="black" points="736,-206 1063,-206 "/>
<text text-anchor="middle" x="812.5" y="-190.8" font-family="arial" font-size="14.00">1</text>
<polyline fill="none" stroke="black" points="736,-183 889,-183 "/>
<text text-anchor="middle" x="812.5" y="-167.8" font-family="arial" font-size="14.00">2</text>
<polyline fill="none" stroke="black" points="736,-160 889,-160 "/>
<text text-anchor="middle" x="812.5" y="-144.8" font-family="arial" font-size="14.00">3</text>
<polyline fill="none" stroke="black" points="736,-137 889,-137 "/>
<text text-anchor="middle" x="812.5" y="-121.8" font-family="arial" font-size="14.00">4</text>
<polyline fill="none" stroke="black" points="736,-114 889,-114 "/>
<text text-anchor="middle" x="812.5" y="-98.8" font-family="arial" font-size="14.00">5</text>
<polyline fill="none" stroke="black" points="736,-91 889,-91 "/>
<text text-anchor="middle" x="812.5" y="-75.8" font-family="arial" font-size="14.00">6</text>
<polyline fill="none" stroke="black" points="736,-68 889,-68 "/>
<text text-anchor="middle" x="812.5" y="-52.8" font-family="arial" font-size="14.00">7</text>
<polyline fill="none" stroke="black" points="736,-45 889,-45 "/>
<text text-anchor="middle" x="812.5" y="-29.8" font-family="arial" font-size="14.00">8</text>
<polyline fill="none" stroke="black" points="889,-22 889,-206 "/>
<text text-anchor="middle" x="976" y="-190.8" font-family="arial" font-size="14.00">DB+</text>
<polyline fill="none" stroke="black" points="889,-183 1063,-183 "/>
<text text-anchor="middle" x="976" y="-167.8" font-family="arial" font-size="14.00">DB&#45;</text>
<polyline fill="none" stroke="black" points="889,-160 1063,-160 "/>
<text text-anchor="middle" x="976" y="-144.8" font-family="arial" font-size="14.00">DA+</text>
<polyline fill="none" stroke="black" points="889,-137 1063,-137 "/>
<text text-anchor="middle" x="976" y="-121.8" font-family="arial" font-size="14.00">DD+</text>
<polyline fill="none" stroke="black" points="889,-114 1063,-114 "/>
<text text-anchor="middle" x="976" y="-98.8" font-family="arial" font-size="14.00">DD&#45;</text>
<polyline fill="none" stroke="black" points="889,-91 1063,-91 "/>
<text text-anchor="middle" x="976" y="-75.8" font-family="arial" font-size="14.00">DA&#45;</text>
<polyline fill="none" stroke="black" points="889,-68 1063,-68 "/>
<text text-anchor="middle" x="976" y="-52.8" font-family="arial" font-size="14.00">DC+</text>
<polyline fill="none" stroke="black" points="889,-45 1063,-45 "/>
<text text-anchor="middle" x="976" y="-29.8" font-family="arial" font-size="14.00">DC&#45;</text>
</g>
<!-- W1&#45;&#45;X2 -->
<g id="edge2" class="edge"><title>W1:w1:e&#45;&#45;X2:p3l:w</title>
<path fill="none" stroke="#000000" stroke-width="2" d="M592,-193C655.532,-196.257 664.608,-148.257 736,-145"/>
<path fill="none" stroke="#ffffff" stroke-width="2" d="M592,-195C657.497,-196.628 666.573,-148.628 736,-147"/>
<path fill="none" stroke="#00ff00" stroke-width="2" d="M592,-197C659.462,-197 668.538,-149 736,-149"/>
<path fill="none" stroke="#ffffff" stroke-width="2" d="M592,-199C661.427,-197.372 670.503,-149.372 736,-151"/>
<path fill="none" stroke="#000000" stroke-width="2" d="M592,-201C663.392,-197.743 672.468,-149.743 736,-153"/>
</g>
<!-- W1&#45;&#45;X2 -->
<g id="edge4" class="edge"><title>W1:w2:e&#45;&#45;X2:p6l:w</title>
<path fill="none" stroke="#000000" stroke-width="2" d="M592,-170C666.195,-172.179 657.821,-79.1794 736,-77"/>
<path fill="none" stroke="#00ff00" stroke-width="2" d="M592,-172C668.187,-172 659.813,-79 736,-79"/>
<path fill="none" stroke="#000000" stroke-width="2" d="M592,-174C670.179,-171.821 661.805,-78.8206 736,-81"/>
</g>
<!-- W1&#45;&#45;X2 -->
<g id="edge6" class="edge"><title>W1:w3:e&#45;&#45;X2:p1l:w</title>
<path fill="none" stroke="#000000" stroke-width="2" d="M592,-143C663.392,-146.257 672.468,-194.257 736,-191"/>
<path fill="none" stroke="#ffffff" stroke-width="2" d="M592,-145C661.427,-146.628 670.503,-194.628 736,-193"/>
<path fill="none" stroke="#ff8000" stroke-width="2" d="M592,-147C659.462,-147 668.538,-195 736,-195"/>
<path fill="none" stroke="#ffffff" stroke-width="2" d="M592,-149C657.497,-147.372 666.573,-195.372 736,-197"/>
<path fill="none" stroke="#000000" stroke-width="2" d="M592,-151C655.532,-147.743 664.608,-195.743 736,-199"/>
</g>
<!-- W1&#45;&#45;X2 -->
<g id="edge8" class="edge"><title>W1:w4:e&#45;&#45;X2:p7l:w</title>
<path fill="none" stroke="#000000" stroke-width="2" d="M592,-120C660.404,-121.903 663.6,-55.9033 736,-54"/>
<path fill="none" stroke="#0066ff" stroke-width="2" d="M592,-122C662.402,-122 665.598,-56 736,-56"/>
<path fill="none" stroke="#000000" stroke-width="2" d="M592,-124C664.4,-122.097 667.596,-56.0967 736,-58"/>
</g>
<!-- W1&#45;&#45;X2 -->
<g id="edge10" class="edge"><title>W1:w5:e&#45;&#45;X2:p8l:w</title>
<path fill="none" stroke="#000000" stroke-width="2" d="M592,-93C658.044,-96.755 661.971,-32.755 736,-29"/>
<path fill="none" stroke="#ffffff" stroke-width="2" d="M592,-95C660.04,-96.8775 663.967,-32.8775 736,-31"/>
<path fill="none" stroke="#0066ff" stroke-width="2" d="M592,-97C662.036,-97 665.964,-33 736,-33"/>
<path fill="none" stroke="#ffffff" stroke-width="2" d="M592,-99C664.033,-97.1225 667.96,-33.1225 736,-35"/>
<path fill="none" stroke="#000000" stroke-width="2" d="M592,-101C666.029,-97.245 669.956,-33.245 736,-37"/>
</g>
<!-- W1&#45;&#45;X2 -->
<g id="edge12" class="edge"><title>W1:w6:e&#45;&#45;X2:p2l:w</title>
<path fill="none" stroke="#000000" stroke-width="2" d="M592,-70C671.905,-72.2351 660.068,-172.235 736,-170"/>
<path fill="none" stroke="#ff8000" stroke-width="2" d="M592,-72C669.919,-72 658.081,-172 736,-172"/>
<path fill="none" stroke="#000000" stroke-width="2" d="M592,-74C667.932,-71.7649 656.095,-171.765 736,-174"/>
</g>
<!-- W1&#45;&#45;X2 -->
<g id="edge14" class="edge"><title>W1:w7:e&#45;&#45;X2:p4l:w</title>
<path fill="none" stroke="#000000" stroke-width="2" d="M592,-43C668.785,-47.0806 667.213,-125.081 736,-121"/>
<path fill="none" stroke="#ffffff" stroke-width="2" d="M592,-45C666.785,-47.0403 665.214,-125.04 736,-123"/>
<path fill="none" stroke="#a52a2a" stroke-width="2" d="M592,-47C664.786,-47 663.214,-125 736,-125"/>
<path fill="none" stroke="#ffffff" stroke-width="2" d="M592,-49C662.786,-46.9597 661.215,-124.96 736,-127"/>
<path fill="none" stroke="#000000" stroke-width="2" d="M592,-51C660.787,-46.9194 659.215,-124.919 736,-129"/>
</g>
<!-- W1&#45;&#45;X2 -->
<g id="edge16" class="edge"><title>W1:w8:e&#45;&#45;X2:p5l:w</title>
<path fill="none" stroke="#000000" stroke-width="2" d="M592,-20C667.212,-22.0606 664.786,-102.061 736,-100"/>
<path fill="none" stroke="#a52a2a" stroke-width="2" d="M592,-22C665.213,-22 662.787,-102 736,-102"/>
<path fill="none" stroke="#000000" stroke-width="2" d="M592,-24C663.214,-21.9394 660.788,-101.939 736,-104"/>
</g>
</g>
</svg>
