<?xml version="1.0" encoding="UTF-8" standalone="no"?>
<!DOCTYPE svg PUBLIC "-//W3C//DTD SVG 1.1//EN"
 "http://www.w3.org/Graphics/SVG/1.1/DTD/svg11.dtd">
<!-- Generated by graphviz version 2.44.0 (20200408.0750)
 -->
<!-- Pages: 1 -->
<svg width="483pt" height="207pt"
 viewBox="0.00 0.00 483.00 207.00" xmlns="http://www.w3.org/2000/svg" xmlns:xlink="http://www.w3.org/1999/xlink">
<g id="graph0" class="graph" transform="scale(1 1) rotate(0) translate(4 203)">
<polygon fill="white" stroke="transparent" points="-4,4 -4,-203 479,-203 479,4 -4,4"/>
<!-- Key -->
<g id="node1" class="node">
<title>Key</title>
<polygon fill="white" stroke="transparent" points="175,-149 0,-149 0,-34 175,-34 175,-149"/>
<polygon fill="none" stroke="black" points="0.5,-125.5 0.5,-148.5 175.5,-148.5 175.5,-125.5 0.5,-125.5"/>
<text text-anchor="start" x="76" y="-133.3" font-family="arial" font-size="14.00">Key</text>
<polygon fill="none" stroke="black" points="0.5,-102.5 0.5,-125.5 114.5,-125.5 114.5,-102.5 0.5,-102.5"/>
<text text-anchor="start" x="4.5" y="-110.3" font-family="arial" font-size="14.00">Phone Connector</text>
<polygon fill="none" stroke="black" points="114.5,-102.5 114.5,-125.5 175.5,-125.5 175.5,-102.5 114.5,-102.5"/>
<text text-anchor="start" x="118.5" y="-110.3" font-family="arial" font-size="14.00">male 3.5</text>
<polygon fill="none" stroke="black" points="0.5,-79.5 0.5,-102.5 106.5,-102.5 106.5,-79.5 0.5,-79.5"/>
<text text-anchor="start" x="42.5" y="-87.3" font-family="arial" font-size="14.00">Dot</text>
<polygon fill="none" stroke="black" points="106.5,-79.5 106.5,-102.5 175.5,-102.5 175.5,-79.5 106.5,-79.5"/>
<text text-anchor="start" x="136.5" y="-87.3" font-family="arial" font-size="14.00">T</text>
<polygon fill="none" stroke="black" points="0.5,-56.5 0.5,-79.5 106.5,-79.5 106.5,-56.5 0.5,-56.5"/>
<text text-anchor="start" x="37.5" y="-64.3" font-family="arial" font-size="14.00">Dash</text>
<polygon fill="none" stroke="black" points="106.5,-56.5 106.5,-79.5 175.5,-79.5 175.5,-56.5 106.5,-56.5"/>
<text text-anchor="start" x="136" y="-64.3" font-family="arial" font-size="14.00">R</text>
<polygon fill="none" stroke="black" points="0.5,-33.5 0.5,-56.5 106.5,-56.5 106.5,-33.5 0.5,-33.5"/>
<text text-anchor="start" x="30.5" y="-41.3" font-family="arial" font-size="14.00">Ground</text>
<polygon fill="none" stroke="black" points="106.5,-33.5 106.5,-56.5 175.5,-56.5 175.5,-33.5 106.5,-33.5"/>
<text text-anchor="start" x="136" y="-41.3" font-family="arial" font-size="14.00">S</text>
</g>
<!-- W1 -->
<g id="node2" class="node">
<title>W1</title>
<polygon fill="none" stroke="black" points="475,-199 319,-199 319,0 475,0 475,-199"/>
<polygon fill="none" stroke="black" points="319,-175.5 319,-198.5 475,-198.5 475,-175.5 319,-175.5"/>
<text text-anchor="start" x="386" y="-183.3" font-family="arial" font-size="14.00">W1</text>
<polygon fill="none" stroke="black" points="319,-152.5 319,-175.5 342,-175.5 342,-152.5 319,-152.5"/>
<text text-anchor="start" x="323" y="-160.3" font-family="arial" font-size="14.00">3x</text>
<polygon fill="none" stroke="black" points="342,-152.5 342,-175.5 402,-175.5 402,-152.5 342,-152.5"/>
<text text-anchor="start" x="346" y="-160.3" font-family="arial" font-size="14.00">24 AWG</text>
<polygon fill="none" stroke="black" points="402,-152.5 402,-175.5 432,-175.5 432,-152.5 402,-152.5"/>
<text text-anchor="start" x="406" y="-160.3" font-family="arial" font-size="14.00">+ S</text>
<polygon fill="none" stroke="black" points="432,-152.5 432,-175.5 475,-175.5 475,-152.5 432,-152.5"/>
<text text-anchor="start" x="436" y="-160.3" font-family="arial" font-size="14.00">0.2 m</text>
<text text-anchor="start" x="395" y="-141.3" font-family="arial" font-size="14.00"> </text>
<text text-anchor="start" x="332.5" y="-124.3" font-family="arial" font-size="14.00">Key:S</text>
<text text-anchor="start" x="403.5" y="-124.3" font-family="arial" font-size="14.00">WH</text>
<polygon fill="#000000" stroke="transparent" points="319,-116.5 319,-118.5 475,-118.5 475,-116.5 319,-116.5"/>
<polygon fill="#ffffff" stroke="transparent" points="319,-114.5 319,-116.5 475,-116.5 475,-114.5 319,-114.5"/>
<polygon fill="#000000" stroke="transparent" points="319,-112.5 319,-114.5 475,-114.5 475,-112.5 319,-112.5"/>
<text text-anchor="start" x="332.5" y="-99.3" font-family="arial" font-size="14.00">Key:R</text>
<text text-anchor="start" x="406" y="-99.3" font-family="arial" font-size="14.00">BN</text>
<polygon fill="#000000" stroke="transparent" points="319,-91.5 319,-93.5 475,-93.5 475,-91.5 319,-91.5"/>
<polygon fill="#895956" stroke="transparent" points="319,-89.5 319,-91.5 475,-91.5 475,-89.5 319,-89.5"/>
<polygon fill="#000000" stroke="transparent" points="319,-87.5 319,-89.5 475,-89.5 475,-87.5 319,-87.5"/>
<text text-anchor="start" x="333" y="-74.3" font-family="arial" font-size="14.00">Key:T</text>
<text text-anchor="start" x="404.5" y="-74.3" font-family="arial" font-size="14.00">GN</text>
<polygon fill="#000000" stroke="transparent" points="319,-66.5 319,-68.5 475,-68.5 475,-66.5 319,-66.5"/>
<polygon fill="#00ff00" stroke="transparent" points="319,-64.5 319,-66.5 475,-66.5 475,-64.5 319,-64.5"/>
<polygon fill="#000000" stroke="transparent" points="319,-62.5 319,-64.5 475,-64.5 475,-62.5 319,-62.5"/>
<text text-anchor="start" x="349" y="-49.3" font-family="arial" font-size="14.00"> </text>
<text text-anchor="start" x="332.5" y="-30.3" font-family="arial" font-size="14.00">Key:S</text>
<text text-anchor="start" x="396.5" y="-30.3" font-family="arial" font-size="14.00">Shield</text>
<polyline fill="none" stroke="black" stroke-width="2" points="320,-19.5 474,-19.5 "/>
<text text-anchor="start" x="349" y="-5.3" font-family="arial" font-size="14.00"> </text>
</g>
<!-- Key&#45;&#45;W1 -->
<g id="edge1" class="edge">
<title>Key:e&#45;&#45;W1:w</title>
<path fill="none" stroke="#000000" stroke-width="2" d="M175,-42.5C248.36,-44.46 249.64,-115.46 319,-113.5"/>
<path fill="none" stroke="#ffffff" stroke-width="2" d="M175,-44.5C246.36,-44.5 247.64,-115.5 319,-115.5"/>
<path fill="none" stroke="#000000" stroke-width="2" d="M175,-46.5C244.36,-44.54 245.64,-115.54 319,-117.5"/>
</g>
<!-- Key&#45;&#45;W1 -->
<g id="edge2" class="edge">
<title>Key:e&#45;&#45;W1:w</title>
<path fill="none" stroke="#000000" stroke-width="2" d="M175,-65.5C241.51,-66.44 255.88,-89.44 319,-88.5"/>
<path fill="none" stroke="#895956" stroke-width="2" d="M175,-67.5C239.81,-67.5 254.19,-90.5 319,-90.5"/>
<path fill="none" stroke="#000000" stroke-width="2" d="M175,-69.5C238.12,-68.56 252.49,-91.56 319,-92.5"/>
</g>
<!-- Key&#45;&#45;W1 -->
<g id="edge3" class="edge">
<title>Key:e&#45;&#45;W1:w</title>
<path fill="none" stroke="#000000" stroke-width="2" d="M175,-88.5C238.21,-89.52 252.3,-64.52 319,-63.5"/>
<path fill="none" stroke="#00ff00" stroke-width="2" d="M175,-90.5C239.96,-90.5 254.04,-65.5 319,-65.5"/>
<path fill="none" stroke="#000000" stroke-width="2" d="M175,-92.5C241.7,-91.48 255.79,-66.48 319,-67.5"/>
</g>
<!-- Key&#45;&#45;W1 -->
<g id="edge4" class="edge">
<title>Key:e&#45;&#45;W1:w</title>
<path fill="none" stroke="#000000" stroke-width="2" d="M175,-42.5C238.12,-43.44 252.49,-20.44 319,-19.5"/>
<path fill="none" stroke="#aaaaaa" stroke-width="2" d="M175,-44.5C239.81,-44.5 254.19,-21.5 319,-21.5"/>
<path fill="none" stroke="#000000" stroke-width="2" d="M175,-46.5C241.51,-45.56 255.88,-22.56 319,-23.5"/>
</g>
</g>
</svg>
