<?xml version="1.0" encoding="UTF-8" standalone="no"?>
<!DOCTYPE svg PUBLIC "-//W3C//DTD SVG 1.1//EN"
 "http://www.w3.org/Graphics/SVG/1.1/DTD/svg11.dtd">
<!-- Generated by graphviz version 2.44.0 (20200408.0750)
 -->
<!-- Pages: 1 -->
<svg width="499pt" height="207pt"
 viewBox="0.00 0.00 499.00 207.00" xmlns="http://www.w3.org/2000/svg" xmlns:xlink="http://www.w3.org/1999/xlink">
<g id="graph0" class="graph" transform="scale(1 1) rotate(0) translate(4 203)">
<polygon fill="white" stroke="transparent" points="-4,4 -4,-203 495,-203 495,4 -4,4"/>
<!-- Key -->
<g id="node1" class="node">
<title>Key</title>
<polygon fill="white" stroke="black" points="0,-33 0,-148 191,-148 191,-33 0,-33"/>
<text text-anchor="middle" x="95.5" y="-132.8" font-family="arial" font-size="14.00">Key</text>
<polyline fill="none" stroke="black" points="0,-125 191,-125 "/>
<text text-anchor="middle" x="61" y="-109.8" font-family="arial" font-size="14.00">Phone Connector</text>
<polyline fill="none" stroke="black" points="122,-102 122,-125 "/>
<text text-anchor="middle" x="156.5" y="-109.8" font-family="arial" font-size="14.00">male 3.5</text>
<polyline fill="none" stroke="black" points="0,-102 191,-102 "/>
<text text-anchor="middle" x="56.5" y="-86.8" font-family="arial" font-size="14.00">Dot</text>
<polyline fill="none" stroke="black" points="0,-79 113,-79 "/>
<text text-anchor="middle" x="56.5" y="-63.8" font-family="arial" font-size="14.00">Dash</text>
<polyline fill="none" stroke="black" points="0,-56 113,-56 "/>
<text text-anchor="middle" x="56.5" y="-40.8" font-family="arial" font-size="14.00">Ground</text>
<polyline fill="none" stroke="black" points="113,-33 113,-102 "/>
<text text-anchor="middle" x="152" y="-86.8" font-family="arial" font-size="14.00">T</text>
<polyline fill="none" stroke="black" points="113,-79 191,-79 "/>
<text text-anchor="middle" x="152" y="-63.8" font-family="arial" font-size="14.00">R</text>
<polyline fill="none" stroke="black" points="113,-56 191,-56 "/>
<text text-anchor="middle" x="152" y="-40.8" font-family="arial" font-size="14.00">S</text>
</g>
<!-- W1 -->
<g id="node2" class="node">
<title>W1</title>
<polygon fill="none" stroke="black" points="491,-199 335,-199 335,0 491,0 491,-199"/>
<polygon fill="none" stroke="black" points="335,-175.5 335,-198.5 491,-198.5 491,-175.5 335,-175.5"/>
<text text-anchor="start" x="402" y="-183.3" font-family="arial" font-size="14.00">W1</text>
<polygon fill="none" stroke="black" points="335,-152.5 335,-175.5 358,-175.5 358,-152.5 335,-152.5"/>
<text text-anchor="start" x="339" y="-160.3" font-family="arial" font-size="14.00">3x</text>
<polygon fill="none" stroke="black" points="358,-152.5 358,-175.5 418,-175.5 418,-152.5 358,-152.5"/>
<text text-anchor="start" x="362" y="-160.3" font-family="arial" font-size="14.00">24 AWG</text>
<polygon fill="none" stroke="black" points="418,-152.5 418,-175.5 448,-175.5 448,-152.5 418,-152.5"/>
<text text-anchor="start" x="422" y="-160.3" font-family="arial" font-size="14.00">+ S</text>
<polygon fill="none" stroke="black" points="448,-152.5 448,-175.5 491,-175.5 491,-152.5 448,-152.5"/>
<text text-anchor="start" x="452" y="-160.3" font-family="arial" font-size="14.00">0.2 m</text>
<text text-anchor="start" x="411" y="-141.3" font-family="arial" font-size="14.00"> </text>
<text text-anchor="start" x="348.5" y="-124.3" font-family="arial" font-size="14.00">Key:S</text>
<text text-anchor="start" x="419.5" y="-124.3" font-family="arial" font-size="14.00">WH</text>
<polygon fill="#ffffff" stroke="transparent" points="335,-112.5 335,-118.5 491,-118.5 491,-112.5 335,-112.5"/>
<polyline fill="none" stroke="black" stroke-width="2" points="336,-113.5 490,-113.5 "/>
<polyline fill="none" stroke="black" stroke-width="2" points="490,-117.5 336,-117.5 "/>
<text text-anchor="start" x="348.5" y="-99.3" font-family="arial" font-size="14.00">Key:R</text>
<text text-anchor="start" x="422" y="-99.3" font-family="arial" font-size="14.00">BN</text>
<polygon fill="#666600" stroke="transparent" stroke-width="2" points="335,-87.5 335,-93.5 491,-93.5 491,-87.5 335,-87.5"/>
<polyline fill="none" stroke="black" stroke-width="2" points="336,-88.5 490,-88.5 "/>
<polyline fill="none" stroke="black" stroke-width="2" points="490,-92.5 336,-92.5 "/>
<text text-anchor="start" x="349" y="-74.3" font-family="arial" font-size="14.00">Key:T</text>
<text text-anchor="start" x="420.5" y="-74.3" font-family="arial" font-size="14.00">GN</text>
<polygon fill="#00ff00" stroke="transparent" stroke-width="2" points="335,-62.5 335,-68.5 491,-68.5 491,-62.5 335,-62.5"/>
<polyline fill="none" stroke="black" stroke-width="2" points="336,-63.5 490,-63.5 "/>
<polyline fill="none" stroke="black" stroke-width="2" points="490,-67.5 336,-67.5 "/>
<text text-anchor="start" x="365" y="-49.3" font-family="arial" font-size="14.00"> </text>
<text text-anchor="start" x="348.5" y="-30.3" font-family="arial" font-size="14.00">Key:S</text>
<text text-anchor="start" x="412.5" y="-30.3" font-family="arial" font-size="14.00">Shield</text>
<polyline fill="none" stroke="black" stroke-width="2" points="336,-19.5 490,-19.5 "/>
<text text-anchor="start" x="365" y="-5.3" font-family="arial" font-size="14.00"> </text>
</g>
<!-- Key&#45;&#45;W1 -->
<g id="edge1" class="edge">
<title>Key:e&#45;&#45;W1:w</title>
<path fill="none" stroke="#000000" stroke-width="2" d="M191,-42.5C264.36,-44.46 265.64,-115.46 335,-113.5"/>
<path fill="none" stroke="#ffffff" stroke-width="2" d="M191,-44.5C262.36,-44.5 263.64,-115.5 335,-115.5"/>
<path fill="none" stroke="#000000" stroke-width="2" d="M191,-46.5C260.36,-44.54 261.64,-115.54 335,-117.5"/>
</g>
<!-- Key&#45;&#45;W1 -->
<g id="edge2" class="edge">
<title>Key:e&#45;&#45;W1:w</title>
<path fill="none" stroke="#000000" stroke-width="2" d="M191,-65.5C257.51,-66.44 271.88,-89.44 335,-88.5"/>
<path fill="none" stroke="#666600" stroke-width="2" d="M191,-67.5C255.81,-67.5 270.19,-90.5 335,-90.5"/>
<path fill="none" stroke="#000000" stroke-width="2" d="M191,-69.5C254.12,-68.56 268.49,-91.56 335,-92.5"/>
</g>
<!-- Key&#45;&#45;W1 -->
<g id="edge3" class="edge">
<title>Key:e&#45;&#45;W1:w</title>
<path fill="none" stroke="#000000" stroke-width="2" d="M191,-88.5C254.21,-89.52 268.3,-64.52 335,-63.5"/>
<path fill="none" stroke="#00ff00" stroke-width="2" d="M191,-90.5C255.96,-90.5 270.04,-65.5 335,-65.5"/>
<path fill="none" stroke="#000000" stroke-width="2" d="M191,-92.5C257.7,-91.48 271.79,-66.48 335,-67.5"/>
</g>
<!-- Key&#45;&#45;W1 -->
<g id="edge4" class="edge">
<title>Key:e&#45;&#45;W1:w</title>
<path fill="none" stroke="#000000" stroke-width="2" d="M191,-44.5C255.81,-44.5 270.19,-21.5 335,-21.5"/>
</g>
</g>
</svg>
