<?xml version="1.0" encoding="UTF-8" standalone="no"?>
<!DOCTYPE svg PUBLIC "-//W3C//DTD SVG 1.1//EN"
 "http://www.w3.org/Graphics/SVG/1.1/DTD/svg11.dtd">
<!-- Generated by graphviz version 11.0.0 (20240428.1522)
 -->
<!-- Pages: 1 -->
<svg width="1115pt" height="337pt"
 viewBox="0.00 0.00 1115.00 337.00" xmlns="http://www.w3.org/2000/svg" xmlns:xlink="http://www.w3.org/1999/xlink">
<g id="graph0" class="graph" transform="scale(1 1) rotate(0) translate(4 333)">
<polygon fill="#ffffff" stroke="none" points="-4,4 -4,-333 1111,-333 1111,4 -4,4"/>
<!-- X1 -->
<g id="node1" class="node">
<title>X1</title>
<polygon fill="#ffffff" stroke="black" points="301.5,-275 0,-275 0,-34 301.5,-34 301.5,-275"/>
<polygon fill="#ffffff" stroke="none" points="0,-34 0,-275 301.5,-275 301.5,-34 0,-34"/>
<polygon fill="none" stroke="black" points="0,-250.5 0,-275 301.5,-275 301.5,-250.5 0,-250.5"/>
<text text-anchor="start" x="141.75" y="-257.7" font-family="arial" font-size="14.00">X1</text>
<polygon fill="none" stroke="black" points="0,-226 0,-250.5 223.25,-250.5 223.25,-226 0,-226"/>
<text text-anchor="start" x="4" y="-233.2" font-family="arial" font-size="14.00">Stewart Connector SS&#45;37000&#45;002</text>
<polygon fill="none" stroke="black" points="223.25,-226 223.25,-250.5 262,-250.5 262,-226 223.25,-226"/>
<text text-anchor="start" x="227.25" y="-233.2" font-family="arial" font-size="14.00">male</text>
<polygon fill="none" stroke="black" points="262,-226 262,-250.5 301.5,-250.5 301.5,-226 262,-226"/>
<text text-anchor="start" x="266" y="-233.2" font-family="arial" font-size="14.00">8&#45;pin</text>
<polygon fill="none" stroke="black" points="0,-202 0,-226 161.25,-226 161.25,-202 0,-202"/>
<text text-anchor="start" x="66.38" y="-208.7" font-family="arial" font-size="14.00">DA+</text>
<polygon fill="none" stroke="black" points="161.25,-202 161.25,-226 301.5,-226 301.5,-202 161.25,-202"/>
<text text-anchor="start" x="227.25" y="-208.7" font-family="arial" font-size="14.00">1</text>
<polygon fill="none" stroke="black" points="0,-178 0,-202 161.25,-202 161.25,-178 0,-178"/>
<text text-anchor="start" x="68.25" y="-184.7" font-family="arial" font-size="14.00">DA&#45;</text>
<polygon fill="none" stroke="black" points="161.25,-178 161.25,-202 301.5,-202 301.5,-178 161.25,-178"/>
<text text-anchor="start" x="227.25" y="-184.7" font-family="arial" font-size="14.00">2</text>
<polygon fill="none" stroke="black" points="0,-154 0,-178 161.25,-178 161.25,-154 0,-154"/>
<text text-anchor="start" x="66.38" y="-160.7" font-family="arial" font-size="14.00">DB+</text>
<polygon fill="none" stroke="black" points="161.25,-154 161.25,-178 301.5,-178 301.5,-154 161.25,-154"/>
<text text-anchor="start" x="227.25" y="-160.7" font-family="arial" font-size="14.00">3</text>
<polygon fill="none" stroke="black" points="0,-130 0,-154 161.25,-154 161.25,-130 0,-130"/>
<text text-anchor="start" x="66" y="-136.7" font-family="arial" font-size="14.00">DC+</text>
<polygon fill="none" stroke="black" points="161.25,-130 161.25,-154 301.5,-154 301.5,-130 161.25,-130"/>
<text text-anchor="start" x="227.25" y="-136.7" font-family="arial" font-size="14.00">4</text>
<polygon fill="none" stroke="black" points="0,-106 0,-130 161.25,-130 161.25,-106 0,-106"/>
<text text-anchor="start" x="67.88" y="-112.7" font-family="arial" font-size="14.00">DC&#45;</text>
<polygon fill="none" stroke="black" points="161.25,-106 161.25,-130 301.5,-130 301.5,-106 161.25,-106"/>
<text text-anchor="start" x="227.25" y="-112.7" font-family="arial" font-size="14.00">5</text>
<polygon fill="none" stroke="black" points="0,-82 0,-106 161.25,-106 161.25,-82 0,-82"/>
<text text-anchor="start" x="68.25" y="-88.7" font-family="arial" font-size="14.00">DB&#45;</text>
<polygon fill="none" stroke="black" points="161.25,-82 161.25,-106 301.5,-106 301.5,-82 161.25,-82"/>
<text text-anchor="start" x="227.25" y="-88.7" font-family="arial" font-size="14.00">6</text>
<polygon fill="none" stroke="black" points="0,-58 0,-82 161.25,-82 161.25,-58 0,-58"/>
<text text-anchor="start" x="66" y="-64.7" font-family="arial" font-size="14.00">DD+</text>
<polygon fill="none" stroke="black" points="161.25,-58 161.25,-82 301.5,-82 301.5,-58 161.25,-58"/>
<text text-anchor="start" x="227.25" y="-64.7" font-family="arial" font-size="14.00">7</text>
<polygon fill="none" stroke="black" points="0,-34 0,-58 161.25,-58 161.25,-34 0,-34"/>
<text text-anchor="start" x="67.88" y="-40.7" font-family="arial" font-size="14.00">DD&#45;</text>
<polygon fill="none" stroke="black" points="161.25,-34 161.25,-58 301.5,-58 301.5,-34 161.25,-34"/>
<text text-anchor="start" x="227.25" y="-40.7" font-family="arial" font-size="14.00">8</text>
</g>
<!-- W1 -->
<g id="node2" class="node">
<title>W1</title>
<polygon fill="#ffffff" stroke="black" points="661.5,-329 445.5,-329 445.5,0 661.5,0 661.5,-329"/>
<polygon fill="#ffffff" stroke="none" points="445.5,0 445.5,-329 661.5,-329 661.5,0 445.5,0"/>
<polygon fill="none" stroke="black" points="445.5,-304.5 445.5,-329 661.5,-329 661.5,-304.5 445.5,-304.5"/>
<text text-anchor="start" x="542.25" y="-311.7" font-family="arial" font-size="14.00">W1</text>
<polygon fill="none" stroke="black" points="445.5,-280 445.5,-304.5 510.19,-304.5 510.19,-280 445.5,-280"/>
<text text-anchor="start" x="454.97" y="-287.2" font-family="arial" font-size="14.00">CAT5e</text>
<polygon fill="none" stroke="black" points="510.19,-280 510.19,-304.5 544.12,-304.5 544.12,-280 510.19,-280"/>
<text text-anchor="start" x="519.66" y="-287.2" font-family="arial" font-size="14.00">8x</text>
<polygon fill="none" stroke="black" points="544.12,-280 544.12,-304.5 618.56,-304.5 618.56,-280 544.12,-280"/>
<text text-anchor="start" x="553.59" y="-287.2" font-family="arial" font-size="14.00">24 AWG</text>
<polygon fill="none" stroke="black" points="618.56,-280 618.56,-304.5 661.5,-304.5 661.5,-280 618.56,-280"/>
<text text-anchor="start" x="628.03" y="-287.2" font-family="arial" font-size="14.00">1 m</text>
<text text-anchor="start" x="478.62" y="-264.7" font-family="arial" font-size="14.00"> </text>
<text text-anchor="start" x="447.5" y="-244.7" font-family="arial" font-size="14.00"> X1:1:DA+</text>
<text text-anchor="start" x="517.12" y="-244.7" font-family="arial" font-size="14.00"> </text>
<text text-anchor="start" x="525" y="-244.7" font-family="arial" font-size="14.00">1:WHGN</text>
<text text-anchor="start" x="586.12" y="-244.7" font-family="arial" font-size="14.00"> </text>
<text text-anchor="start" x="593.5" y="-244.7" font-family="arial" font-size="14.00">X2:3:DA+ </text>
<polygon fill="#ffffff" stroke="none" points="445.5,-238 445.5,-240 661.5,-240 661.5,-238 445.5,-238"/>
<polygon fill="#ffffff" stroke="none" points="445.5,-236 445.5,-238 661.5,-238 661.5,-236 445.5,-236"/>
<polygon fill="#ffffff" stroke="none" points="445.5,-234 445.5,-236 661.5,-236 661.5,-234 445.5,-234"/>
<polygon fill="#ffffff" stroke="none" points="445.5,-232 445.5,-234 661.5,-234 661.5,-232 445.5,-232"/>
<polygon fill="#ffffff" stroke="none" points="445.5,-230 445.5,-232 661.5,-232 661.5,-230 445.5,-230"/>
<text text-anchor="start" x="447.5" y="-214.7" font-family="arial" font-size="14.00"> X1:2:DA&#45;</text>
<text text-anchor="start" x="517.12" y="-214.7" font-family="arial" font-size="14.00"> </text>
<text text-anchor="start" x="537" y="-214.7" font-family="arial" font-size="14.00">2:GN</text>
<text text-anchor="start" x="586.12" y="-214.7" font-family="arial" font-size="14.00"> </text>
<text text-anchor="start" x="597.25" y="-214.7" font-family="arial" font-size="14.00">X2:6:DA&#45; </text>
<polygon fill="#ffffff" stroke="none" points="445.5,-208 445.5,-210 661.5,-210 661.5,-208 445.5,-208"/>
<polygon fill="#ffffff" stroke="none" points="445.5,-206 445.5,-208 661.5,-208 661.5,-206 445.5,-206"/>
<polygon fill="#ffffff" stroke="none" points="445.5,-204 445.5,-206 661.5,-206 661.5,-204 445.5,-204"/>
<polygon fill="#ffffff" stroke="none" points="445.5,-202 445.5,-204 661.5,-204 661.5,-202 445.5,-202"/>
<polygon fill="#ffffff" stroke="none" points="445.5,-200 445.5,-202 661.5,-202 661.5,-200 445.5,-200"/>
<text text-anchor="start" x="447.5" y="-184.7" font-family="arial" font-size="14.00"> X1:3:DB+</text>
<text text-anchor="start" x="517.12" y="-184.7" font-family="arial" font-size="14.00"> </text>
<text text-anchor="start" x="524.25" y="-184.7" font-family="arial" font-size="14.00">3:WHOG</text>
<text text-anchor="start" x="586.12" y="-184.7" font-family="arial" font-size="14.00"> </text>
<text text-anchor="start" x="593.5" y="-184.7" font-family="arial" font-size="14.00">X2:1:DB+ </text>
<polygon fill="#ffffff" stroke="none" points="445.5,-178 445.5,-180 661.5,-180 661.5,-178 445.5,-178"/>
<polygon fill="#ffffff" stroke="none" points="445.5,-176 445.5,-178 661.5,-178 661.5,-176 445.5,-176"/>
<polygon fill="#ffffff" stroke="none" points="445.5,-174 445.5,-176 661.5,-176 661.5,-174 445.5,-174"/>
<polygon fill="#ffffff" stroke="none" points="445.5,-172 445.5,-174 661.5,-174 661.5,-172 445.5,-172"/>
<polygon fill="#ffffff" stroke="none" points="445.5,-170 445.5,-172 661.5,-172 661.5,-170 445.5,-170"/>
<text text-anchor="start" x="447.12" y="-154.7" font-family="arial" font-size="14.00"> X1:4:DC+</text>
<text text-anchor="start" x="517.12" y="-154.7" font-family="arial" font-size="14.00"> </text>
<text text-anchor="start" x="537.75" y="-154.7" font-family="arial" font-size="14.00">4:BU</text>
<text text-anchor="start" x="586.12" y="-154.7" font-family="arial" font-size="14.00"> </text>
<text text-anchor="start" x="593.12" y="-154.7" font-family="arial" font-size="14.00">X2:7:DC+ </text>
<polygon fill="#ffffff" stroke="none" points="445.5,-148 445.5,-150 661.5,-150 661.5,-148 445.5,-148"/>
<polygon fill="#ffffff" stroke="none" points="445.5,-146 445.5,-148 661.5,-148 661.5,-146 445.5,-146"/>
<polygon fill="#ffffff" stroke="none" points="445.5,-144 445.5,-146 661.5,-146 661.5,-144 445.5,-144"/>
<polygon fill="#ffffff" stroke="none" points="445.5,-142 445.5,-144 661.5,-144 661.5,-142 445.5,-142"/>
<polygon fill="#ffffff" stroke="none" points="445.5,-140 445.5,-142 661.5,-142 661.5,-140 445.5,-140"/>
<text text-anchor="start" x="447.5" y="-124.7" font-family="arial" font-size="14.00"> X1:5:DC&#45;</text>
<text text-anchor="start" x="517.12" y="-124.7" font-family="arial" font-size="14.00"> </text>
<text text-anchor="start" x="525.75" y="-124.7" font-family="arial" font-size="14.00">5:WHBU</text>
<text text-anchor="start" x="586.12" y="-124.7" font-family="arial" font-size="14.00"> </text>
<text text-anchor="start" x="596.5" y="-124.7" font-family="arial" font-size="14.00">X2:8:DC&#45; </text>
<polygon fill="#ffffff" stroke="none" points="445.5,-118 445.5,-120 661.5,-120 661.5,-118 445.5,-118"/>
<polygon fill="#ffffff" stroke="none" points="445.5,-116 445.5,-118 661.5,-118 661.5,-116 445.5,-116"/>
<polygon fill="#ffffff" stroke="none" points="445.5,-114 445.5,-116 661.5,-116 661.5,-114 445.5,-114"/>
<polygon fill="#ffffff" stroke="none" points="445.5,-112 445.5,-114 661.5,-114 661.5,-112 445.5,-112"/>
<polygon fill="#ffffff" stroke="none" points="445.5,-110 445.5,-112 661.5,-112 661.5,-110 445.5,-110"/>
<text text-anchor="start" x="447.5" y="-94.7" font-family="arial" font-size="14.00"> X1:6:DB&#45;</text>
<text text-anchor="start" x="517.12" y="-94.7" font-family="arial" font-size="14.00"> </text>
<text text-anchor="start" x="536.25" y="-94.7" font-family="arial" font-size="14.00">6:OG</text>
<text text-anchor="start" x="586.12" y="-94.7" font-family="arial" font-size="14.00"> </text>
<text text-anchor="start" x="597.25" y="-94.7" font-family="arial" font-size="14.00">X2:2:DB&#45; </text>
<polygon fill="#ffffff" stroke="none" points="445.5,-88 445.5,-90 661.5,-90 661.5,-88 445.5,-88"/>
<polygon fill="#ffffff" stroke="none" points="445.5,-86 445.5,-88 661.5,-88 661.5,-86 445.5,-86"/>
<polygon fill="#ffffff" stroke="none" points="445.5,-84 445.5,-86 661.5,-86 661.5,-84 445.5,-84"/>
<polygon fill="#ffffff" stroke="none" points="445.5,-82 445.5,-84 661.5,-84 661.5,-82 445.5,-82"/>
<polygon fill="#ffffff" stroke="none" points="445.5,-80 445.5,-82 661.5,-82 661.5,-80 445.5,-80"/>
<text text-anchor="start" x="447.12" y="-64.7" font-family="arial" font-size="14.00"> X1:7:DD+</text>
<text text-anchor="start" x="517.12" y="-64.7" font-family="arial" font-size="14.00"> </text>
<text text-anchor="start" x="525.75" y="-64.7" font-family="arial" font-size="14.00">7:WHBN</text>
<text text-anchor="start" x="586.12" y="-64.7" font-family="arial" font-size="14.00"> </text>
<text text-anchor="start" x="593.12" y="-64.7" font-family="arial" font-size="14.00">X2:4:DD+ </text>
<polygon fill="#ffffff" stroke="none" points="445.5,-58 445.5,-60 661.5,-60 661.5,-58 445.5,-58"/>
<polygon fill="#ffffff" stroke="none" points="445.5,-56 445.5,-58 661.5,-58 661.5,-56 445.5,-56"/>
<polygon fill="#ffffff" stroke="none" points="445.5,-54 445.5,-56 661.5,-56 661.5,-54 445.5,-54"/>
<polygon fill="#ffffff" stroke="none" points="445.5,-52 445.5,-54 661.5,-54 661.5,-52 445.5,-52"/>
<polygon fill="#ffffff" stroke="none" points="445.5,-50 445.5,-52 661.5,-52 661.5,-50 445.5,-50"/>
<text text-anchor="start" x="447.5" y="-34.7" font-family="arial" font-size="14.00"> X1:8:DD&#45;</text>
<text text-anchor="start" x="517.12" y="-34.7" font-family="arial" font-size="14.00"> </text>
<text text-anchor="start" x="537.75" y="-34.7" font-family="arial" font-size="14.00">8:BN</text>
<text text-anchor="start" x="586.12" y="-34.7" font-family="arial" font-size="14.00"> </text>
<text text-anchor="start" x="596.5" y="-34.7" font-family="arial" font-size="14.00">X2:5:DD&#45; </text>
<polygon fill="#ffffff" stroke="none" points="445.5,-28 445.5,-30 661.5,-30 661.5,-28 445.5,-28"/>
<polygon fill="#ffffff" stroke="none" points="445.5,-26 445.5,-28 661.5,-28 661.5,-26 445.5,-26"/>
<polygon fill="#ffffff" stroke="none" points="445.5,-24 445.5,-26 661.5,-26 661.5,-24 445.5,-24"/>
<polygon fill="#ffffff" stroke="none" points="445.5,-22 445.5,-24 661.5,-24 661.5,-22 445.5,-22"/>
<polygon fill="#ffffff" stroke="none" points="445.5,-20 445.5,-22 661.5,-22 661.5,-20 445.5,-20"/>
<text text-anchor="start" x="478.62" y="-4.7" font-family="arial" font-size="14.00"> </text>
</g>
<!-- X1&#45;&#45;W1 -->
<g id="edge1" class="edge">
<title>X1:e&#45;&#45;W1:w</title>
<path fill="none" stroke="#000000" stroke-width="2" d="M301.5,-210C369.46,-211.71 384.1,-232.71 445.5,-231"/>
<path fill="none" stroke="#ffffff" stroke-width="2" d="M301.5,-212C367.82,-212.86 382.46,-233.86 445.5,-233"/>
<path fill="none" stroke="#00aa00" stroke-width="2" d="M301.5,-214C366.18,-214 380.82,-235 445.5,-235"/>
<path fill="none" stroke="#ffffff" stroke-width="2" d="M301.5,-216C364.54,-215.14 379.18,-236.14 445.5,-237"/>
<path fill="none" stroke="#000000" stroke-width="2" d="M301.5,-218C362.9,-216.29 377.54,-237.29 445.5,-239"/>
</g>
<!-- X1&#45;&#45;W1 -->
<g id="edge2" class="edge">
<title>X1:e&#45;&#45;W1:w</title>
<path fill="none" stroke="#000000" stroke-width="2" d="M301.5,-186C368.65,-187.14 383.95,-202.14 445.5,-201"/>
<path fill="none" stroke="#00aa00" stroke-width="2" d="M301.5,-188C367.25,-188.57 382.55,-203.57 445.5,-203"/>
<path fill="none" stroke="#00aa00" stroke-width="2" d="M301.5,-190C365.85,-190 381.15,-205 445.5,-205"/>
<path fill="none" stroke="#00aa00" stroke-width="2" d="M301.5,-192C364.45,-191.43 379.75,-206.43 445.5,-207"/>
<path fill="none" stroke="#000000" stroke-width="2" d="M301.5,-194C363.05,-192.86 378.35,-207.86 445.5,-209"/>
</g>
<!-- X1&#45;&#45;W1 -->
<g id="edge3" class="edge">
<title>X1:e&#45;&#45;W1:w</title>
<path fill="none" stroke="#000000" stroke-width="2" d="M301.5,-162C367.6,-162.53 383.36,-171.53 445.5,-171"/>
<path fill="none" stroke="#ffffff" stroke-width="2" d="M301.5,-164C366.61,-164.26 382.37,-173.26 445.5,-173"/>
<path fill="none" stroke="#ff8000" stroke-width="2" d="M301.5,-166C365.62,-166 381.38,-175 445.5,-175"/>
<path fill="none" stroke="#ffffff" stroke-width="2" d="M301.5,-168C364.63,-167.74 380.39,-176.74 445.5,-177"/>
<path fill="none" stroke="#000000" stroke-width="2" d="M301.5,-170C363.64,-169.47 379.4,-178.47 445.5,-179"/>
</g>
<!-- X1&#45;&#45;W1 -->
<g id="edge4" class="edge">
<title>X1:e&#45;&#45;W1:w</title>
<path fill="none" stroke="#000000" stroke-width="2" d="M301.5,-138C366.25,-138.07 382.23,-141.07 445.5,-141"/>
<path fill="none" stroke="#0066ff" stroke-width="2" d="M301.5,-140C365.88,-140.03 381.86,-143.03 445.5,-143"/>
<path fill="none" stroke="#0066ff" stroke-width="2" d="M301.5,-142C365.51,-142 381.49,-145 445.5,-145"/>
<path fill="none" stroke="#0066ff" stroke-width="2" d="M301.5,-144C365.14,-143.97 381.12,-146.97 445.5,-147"/>
<path fill="none" stroke="#000000" stroke-width="2" d="M301.5,-146C364.77,-145.93 380.75,-148.93 445.5,-149"/>
</g>
<!-- X1&#45;&#45;W1 -->
<g id="edge5" class="edge">
<title>X1:e&#45;&#45;W1:w</title>
<path fill="none" stroke="#000000" stroke-width="2" d="M301.5,-114C364.77,-114.07 380.75,-111.07 445.5,-111"/>
<path fill="none" stroke="#ffffff" stroke-width="2" d="M301.5,-116C365.14,-116.03 381.12,-113.03 445.5,-113"/>
<path fill="none" stroke="#0066ff" stroke-width="2" d="M301.5,-118C365.51,-118 381.49,-115 445.5,-115"/>
<path fill="none" stroke="#ffffff" stroke-width="2" d="M301.5,-120C365.88,-119.97 381.86,-116.97 445.5,-117"/>
<path fill="none" stroke="#000000" stroke-width="2" d="M301.5,-122C366.25,-121.93 382.23,-118.93 445.5,-119"/>
</g>
<!-- X1&#45;&#45;W1 -->
<g id="edge6" class="edge">
<title>X1:e&#45;&#45;W1:w</title>
<path fill="none" stroke="#000000" stroke-width="2" d="M301.5,-90C363.64,-90.53 379.4,-81.53 445.5,-81"/>
<path fill="none" stroke="#ff8000" stroke-width="2" d="M301.5,-92C364.63,-92.26 380.39,-83.26 445.5,-83"/>
<path fill="none" stroke="#ff8000" stroke-width="2" d="M301.5,-94C365.62,-94 381.38,-85 445.5,-85"/>
<path fill="none" stroke="#ff8000" stroke-width="2" d="M301.5,-96C366.61,-95.74 382.37,-86.74 445.5,-87"/>
<path fill="none" stroke="#000000" stroke-width="2" d="M301.5,-98C367.6,-97.47 383.36,-88.47 445.5,-89"/>
</g>
<!-- X1&#45;&#45;W1 -->
<g id="edge7" class="edge">
<title>X1:e&#45;&#45;W1:w</title>
<path fill="none" stroke="#000000" stroke-width="2" d="M301.5,-66C363.05,-67.14 378.35,-52.14 445.5,-51"/>
<path fill="none" stroke="#ffffff" stroke-width="2" d="M301.5,-68C364.45,-68.57 379.75,-53.57 445.5,-53"/>
<path fill="none" stroke="#895956" stroke-width="2" d="M301.5,-70C365.85,-70 381.15,-55 445.5,-55"/>
<path fill="none" stroke="#ffffff" stroke-width="2" d="M301.5,-72C367.25,-71.43 382.55,-56.43 445.5,-57"/>
<path fill="none" stroke="#000000" stroke-width="2" d="M301.5,-74C368.65,-72.86 383.95,-57.86 445.5,-59"/>
</g>
<!-- X1&#45;&#45;W1 -->
<g id="edge8" class="edge">
<title>X1:e&#45;&#45;W1:w</title>
<path fill="none" stroke="#000000" stroke-width="2" d="M301.5,-42C362.9,-43.71 377.54,-22.71 445.5,-21"/>
<path fill="none" stroke="#895956" stroke-width="2" d="M301.5,-44C364.54,-44.86 379.18,-23.86 445.5,-23"/>
<path fill="none" stroke="#895956" stroke-width="2" d="M301.5,-46C366.18,-46 380.82,-25 445.5,-25"/>
<path fill="none" stroke="#895956" stroke-width="2" d="M301.5,-48C367.82,-47.14 382.46,-26.14 445.5,-27"/>
<path fill="none" stroke="#000000" stroke-width="2" d="M301.5,-50C369.46,-48.29 384.1,-27.29 445.5,-29"/>
</g>
<!-- W1&#45;&#45;W1 -->
<g id="edge9" class="edge">
<title>W1:e&#45;&#45;W1:w</title>
<path fill="none" stroke="#000000" stroke-width="2" d="M661.5,-239C589.5,-239 517.5,-239 445.5,-239"/>
<path fill="none" stroke="#ffffff" stroke-width="2" d="M661.5,-237C589.5,-237 517.5,-237 445.5,-237"/>
<path fill="none" stroke="#00aa00" stroke-width="2" d="M661.5,-235C589.5,-235 517.5,-235 445.5,-235"/>
<path fill="none" stroke="#ffffff" stroke-width="2" d="M661.5,-233C589.5,-233 517.5,-233 445.5,-233"/>
<path fill="none" stroke="#000000" stroke-width="2" d="M661.5,-231C589.5,-231 517.5,-231 445.5,-231"/>
</g>
<!-- W1&#45;&#45;W1 -->
<g id="edge10" class="edge">
<title>W1:e&#45;&#45;W1:w</title>
<path fill="none" stroke="#000000" stroke-width="2" d="M661.5,-209C589.5,-209 517.5,-209 445.5,-209"/>
<path fill="none" stroke="#00aa00" stroke-width="2" d="M661.5,-207C589.5,-207 517.5,-207 445.5,-207"/>
<path fill="none" stroke="#00aa00" stroke-width="2" d="M661.5,-205C589.5,-205 517.5,-205 445.5,-205"/>
<path fill="none" stroke="#00aa00" stroke-width="2" d="M661.5,-203C589.5,-203 517.5,-203 445.5,-203"/>
<path fill="none" stroke="#000000" stroke-width="2" d="M661.5,-201C589.5,-201 517.5,-201 445.5,-201"/>
</g>
<!-- W1&#45;&#45;W1 -->
<g id="edge11" class="edge">
<title>W1:e&#45;&#45;W1:w</title>
<path fill="none" stroke="#000000" stroke-width="2" d="M661.5,-179C589.5,-179 517.5,-179 445.5,-179"/>
<path fill="none" stroke="#ffffff" stroke-width="2" d="M661.5,-177C589.5,-177 517.5,-177 445.5,-177"/>
<path fill="none" stroke="#ff8000" stroke-width="2" d="M661.5,-175C589.5,-175 517.5,-175 445.5,-175"/>
<path fill="none" stroke="#ffffff" stroke-width="2" d="M661.5,-173C589.5,-173 517.5,-173 445.5,-173"/>
<path fill="none" stroke="#000000" stroke-width="2" d="M661.5,-171C589.5,-171 517.5,-171 445.5,-171"/>
</g>
<!-- W1&#45;&#45;W1 -->
<g id="edge12" class="edge">
<title>W1:e&#45;&#45;W1:w</title>
<path fill="none" stroke="#000000" stroke-width="2" d="M661.5,-149C589.5,-149 517.5,-149 445.5,-149"/>
<path fill="none" stroke="#0066ff" stroke-width="2" d="M661.5,-147C589.5,-147 517.5,-147 445.5,-147"/>
<path fill="none" stroke="#0066ff" stroke-width="2" d="M661.5,-145C589.5,-145 517.5,-145 445.5,-145"/>
<path fill="none" stroke="#0066ff" stroke-width="2" d="M661.5,-143C589.5,-143 517.5,-143 445.5,-143"/>
<path fill="none" stroke="#000000" stroke-width="2" d="M661.5,-141C589.5,-141 517.5,-141 445.5,-141"/>
</g>
<!-- W1&#45;&#45;W1 -->
<g id="edge13" class="edge">
<title>W1:e&#45;&#45;W1:w</title>
<path fill="none" stroke="#000000" stroke-width="2" d="M661.5,-119C589.5,-119 517.5,-119 445.5,-119"/>
<path fill="none" stroke="#ffffff" stroke-width="2" d="M661.5,-117C589.5,-117 517.5,-117 445.5,-117"/>
<path fill="none" stroke="#0066ff" stroke-width="2" d="M661.5,-115C589.5,-115 517.5,-115 445.5,-115"/>
<path fill="none" stroke="#ffffff" stroke-width="2" d="M661.5,-113C589.5,-113 517.5,-113 445.5,-113"/>
<path fill="none" stroke="#000000" stroke-width="2" d="M661.5,-111C589.5,-111 517.5,-111 445.5,-111"/>
</g>
<!-- W1&#45;&#45;W1 -->
<g id="edge14" class="edge">
<title>W1:e&#45;&#45;W1:w</title>
<path fill="none" stroke="#000000" stroke-width="2" d="M661.5,-89C589.5,-89 517.5,-89 445.5,-89"/>
<path fill="none" stroke="#ff8000" stroke-width="2" d="M661.5,-87C589.5,-87 517.5,-87 445.5,-87"/>
<path fill="none" stroke="#ff8000" stroke-width="2" d="M661.5,-85C589.5,-85 517.5,-85 445.5,-85"/>
<path fill="none" stroke="#ff8000" stroke-width="2" d="M661.5,-83C589.5,-83 517.5,-83 445.5,-83"/>
<path fill="none" stroke="#000000" stroke-width="2" d="M661.5,-81C589.5,-81 517.5,-81 445.5,-81"/>
</g>
<!-- W1&#45;&#45;W1 -->
<g id="edge15" class="edge">
<title>W1:e&#45;&#45;W1:w</title>
<path fill="none" stroke="#000000" stroke-width="2" d="M661.5,-59C589.5,-59 517.5,-59 445.5,-59"/>
<path fill="none" stroke="#ffffff" stroke-width="2" d="M661.5,-57C589.5,-57 517.5,-57 445.5,-57"/>
<path fill="none" stroke="#895956" stroke-width="2" d="M661.5,-55C589.5,-55 517.5,-55 445.5,-55"/>
<path fill="none" stroke="#ffffff" stroke-width="2" d="M661.5,-53C589.5,-53 517.5,-53 445.5,-53"/>
<path fill="none" stroke="#000000" stroke-width="2" d="M661.5,-51C589.5,-51 517.5,-51 445.5,-51"/>
</g>
<!-- W1&#45;&#45;W1 -->
<g id="edge16" class="edge">
<title>W1:e&#45;&#45;W1:w</title>
<path fill="none" stroke="#000000" stroke-width="2" d="M661.5,-29C589.5,-29 517.5,-29 445.5,-29"/>
<path fill="none" stroke="#895956" stroke-width="2" d="M661.5,-27C589.5,-27 517.5,-27 445.5,-27"/>
<path fill="none" stroke="#895956" stroke-width="2" d="M661.5,-25C589.5,-25 517.5,-25 445.5,-25"/>
<path fill="none" stroke="#895956" stroke-width="2" d="M661.5,-23C589.5,-23 517.5,-23 445.5,-23"/>
<path fill="none" stroke="#000000" stroke-width="2" d="M661.5,-21C589.5,-21 517.5,-21 445.5,-21"/>
</g>
<!-- X2 -->
<g id="node3" class="node">
<title>X2</title>
<polygon fill="#ffffff" stroke="black" points="1107,-290 805.5,-290 805.5,-49 1107,-49 1107,-290"/>
<polygon fill="#ffffff" stroke="none" points="805.5,-49 805.5,-290 1107,-290 1107,-49 805.5,-49"/>
<polygon fill="none" stroke="black" points="805.5,-265.5 805.5,-290 1107,-290 1107,-265.5 805.5,-265.5"/>
<text text-anchor="start" x="947.25" y="-272.7" font-family="arial" font-size="14.00">X2</text>
<polygon fill="none" stroke="black" points="805.5,-241 805.5,-265.5 1028.75,-265.5 1028.75,-241 805.5,-241"/>
<text text-anchor="start" x="809.5" y="-248.2" font-family="arial" font-size="14.00">Stewart Connector SS&#45;37000&#45;002</text>
<polygon fill="none" stroke="black" points="1028.75,-241 1028.75,-265.5 1067.5,-265.5 1067.5,-241 1028.75,-241"/>
<text text-anchor="start" x="1032.75" y="-248.2" font-family="arial" font-size="14.00">male</text>
<polygon fill="none" stroke="black" points="1067.5,-241 1067.5,-265.5 1107,-265.5 1107,-241 1067.5,-241"/>
<text text-anchor="start" x="1071.5" y="-248.2" font-family="arial" font-size="14.00">8&#45;pin</text>
<polygon fill="none" stroke="black" points="805.5,-217 805.5,-241 945.75,-241 945.75,-217 805.5,-217"/>
<text text-anchor="start" x="871.5" y="-223.7" font-family="arial" font-size="14.00">1</text>
<polygon fill="none" stroke="black" points="945.75,-217 945.75,-241 1107,-241 1107,-217 945.75,-217"/>
<text text-anchor="start" x="1012.12" y="-223.7" font-family="arial" font-size="14.00">DB+</text>
<polygon fill="none" stroke="black" points="805.5,-193 805.5,-217 945.75,-217 945.75,-193 805.5,-193"/>
<text text-anchor="start" x="871.5" y="-199.7" font-family="arial" font-size="14.00">2</text>
<polygon fill="none" stroke="black" points="945.75,-193 945.75,-217 1107,-217 1107,-193 945.75,-193"/>
<text text-anchor="start" x="1014" y="-199.7" font-family="arial" font-size="14.00">DB&#45;</text>
<polygon fill="none" stroke="black" points="805.5,-169 805.5,-193 945.75,-193 945.75,-169 805.5,-169"/>
<text text-anchor="start" x="871.5" y="-175.7" font-family="arial" font-size="14.00">3</text>
<polygon fill="none" stroke="black" points="945.75,-169 945.75,-193 1107,-193 1107,-169 945.75,-169"/>
<text text-anchor="start" x="1012.12" y="-175.7" font-family="arial" font-size="14.00">DA+</text>
<polygon fill="none" stroke="black" points="805.5,-145 805.5,-169 945.75,-169 945.75,-145 805.5,-145"/>
<text text-anchor="start" x="871.5" y="-151.7" font-family="arial" font-size="14.00">4</text>
<polygon fill="none" stroke="black" points="945.75,-145 945.75,-169 1107,-169 1107,-145 945.75,-145"/>
<text text-anchor="start" x="1011.75" y="-151.7" font-family="arial" font-size="14.00">DD+</text>
<polygon fill="none" stroke="black" points="805.5,-121 805.5,-145 945.75,-145 945.75,-121 805.5,-121"/>
<text text-anchor="start" x="871.5" y="-127.7" font-family="arial" font-size="14.00">5</text>
<polygon fill="none" stroke="black" points="945.75,-121 945.75,-145 1107,-145 1107,-121 945.75,-121"/>
<text text-anchor="start" x="1013.62" y="-127.7" font-family="arial" font-size="14.00">DD&#45;</text>
<polygon fill="none" stroke="black" points="805.5,-97 805.5,-121 945.75,-121 945.75,-97 805.5,-97"/>
<text text-anchor="start" x="871.5" y="-103.7" font-family="arial" font-size="14.00">6</text>
<polygon fill="none" stroke="black" points="945.75,-97 945.75,-121 1107,-121 1107,-97 945.75,-97"/>
<text text-anchor="start" x="1014" y="-103.7" font-family="arial" font-size="14.00">DA&#45;</text>
<polygon fill="none" stroke="black" points="805.5,-73 805.5,-97 945.75,-97 945.75,-73 805.5,-73"/>
<text text-anchor="start" x="871.5" y="-79.7" font-family="arial" font-size="14.00">7</text>
<polygon fill="none" stroke="black" points="945.75,-73 945.75,-97 1107,-97 1107,-73 945.75,-73"/>
<text text-anchor="start" x="1011.75" y="-79.7" font-family="arial" font-size="14.00">DC+</text>
<polygon fill="none" stroke="black" points="805.5,-49 805.5,-73 945.75,-73 945.75,-49 805.5,-49"/>
<text text-anchor="start" x="871.5" y="-55.7" font-family="arial" font-size="14.00">8</text>
<polygon fill="none" stroke="black" points="945.75,-49 945.75,-73 1107,-73 1107,-49 945.75,-49"/>
<text text-anchor="start" x="1013.62" y="-55.7" font-family="arial" font-size="14.00">DC&#45;</text>
</g>
<!-- W1&#45;&#45;X2 -->
<g id="edge17" class="edge">
<title>W1:e&#45;&#45;X2:w</title>
<path fill="none" stroke="#000000" stroke-width="2" d="M661.5,-231C725.89,-234.46 733.19,-180.46 805.5,-177"/>
<path fill="none" stroke="#ffffff" stroke-width="2" d="M661.5,-233C727.87,-234.73 735.17,-180.73 805.5,-179"/>
<path fill="none" stroke="#00aa00" stroke-width="2" d="M661.5,-235C729.85,-235 737.15,-181 805.5,-181"/>
<path fill="none" stroke="#ffffff" stroke-width="2" d="M661.5,-237C731.83,-235.27 739.13,-181.27 805.5,-183"/>
<path fill="none" stroke="#000000" stroke-width="2" d="M661.5,-239C733.81,-235.54 741.11,-181.54 805.5,-185"/>
</g>
<!-- W1&#45;&#45;X2 -->
<g id="edge18" class="edge">
<title>W1:e&#45;&#45;X2:w</title>
<path fill="none" stroke="#000000" stroke-width="2" d="M661.5,-201C734.44,-205.41 724.6,-109.41 805.5,-105"/>
<path fill="none" stroke="#00aa00" stroke-width="2" d="M661.5,-203C736.43,-205.2 726.59,-109.2 805.5,-107"/>
<path fill="none" stroke="#00aa00" stroke-width="2" d="M661.5,-205C738.42,-205 728.58,-109 805.5,-109"/>
<path fill="none" stroke="#00aa00" stroke-width="2" d="M661.5,-207C740.41,-204.8 730.57,-108.8 805.5,-111"/>
<path fill="none" stroke="#000000" stroke-width="2" d="M661.5,-209C742.4,-204.59 732.56,-108.59 805.5,-113"/>
</g>
<!-- W1&#45;&#45;X2 -->
<g id="edge19" class="edge">
<title>W1:e&#45;&#45;X2:w</title>
<path fill="none" stroke="#000000" stroke-width="2" d="M661.5,-171C733.81,-174.46 741.11,-228.46 805.5,-225"/>
<path fill="none" stroke="#ffffff" stroke-width="2" d="M661.5,-173C731.83,-174.73 739.13,-228.73 805.5,-227"/>
<path fill="none" stroke="#ff8000" stroke-width="2" d="M661.5,-175C729.85,-175 737.15,-229 805.5,-229"/>
<path fill="none" stroke="#ffffff" stroke-width="2" d="M661.5,-177C727.87,-175.27 735.17,-229.27 805.5,-231"/>
<path fill="none" stroke="#000000" stroke-width="2" d="M661.5,-179C725.89,-175.54 733.19,-229.54 805.5,-233"/>
</g>
<!-- W1&#45;&#45;X2 -->
<g id="edge20" class="edge">
<title>W1:e&#45;&#45;X2:w</title>
<path fill="none" stroke="#000000" stroke-width="2" d="M661.5,-141C726.85,-144.65 732.19,-84.65 805.5,-81"/>
<path fill="none" stroke="#0066ff" stroke-width="2" d="M661.5,-143C728.84,-144.82 734.18,-84.82 805.5,-83"/>
<path fill="none" stroke="#0066ff" stroke-width="2" d="M661.5,-145C730.83,-145 736.17,-85 805.5,-85"/>
<path fill="none" stroke="#0066ff" stroke-width="2" d="M661.5,-147C732.82,-145.18 738.16,-85.18 805.5,-87"/>
<path fill="none" stroke="#000000" stroke-width="2" d="M661.5,-149C734.81,-145.35 740.15,-85.35 805.5,-89"/>
</g>
<!-- W1&#45;&#45;X2 -->
<g id="edge21" class="edge">
<title>W1:e&#45;&#45;X2:w</title>
<path fill="none" stroke="#000000" stroke-width="2" d="M661.5,-111C725.89,-114.46 733.19,-60.46 805.5,-57"/>
<path fill="none" stroke="#ffffff" stroke-width="2" d="M661.5,-113C727.87,-114.73 735.17,-60.73 805.5,-59"/>
<path fill="none" stroke="#0066ff" stroke-width="2" d="M661.5,-115C729.85,-115 737.15,-61 805.5,-61"/>
<path fill="none" stroke="#ffffff" stroke-width="2" d="M661.5,-117C731.83,-115.27 739.13,-61.27 805.5,-63"/>
<path fill="none" stroke="#000000" stroke-width="2" d="M661.5,-119C733.81,-115.54 741.11,-61.54 805.5,-65"/>
</g>
<!-- W1&#45;&#45;X2 -->
<g id="edge22" class="edge">
<title>W1:e&#45;&#45;X2:w</title>
<path fill="none" stroke="#000000" stroke-width="2" d="M661.5,-81C748.74,-85.74 726.12,-205.74 805.5,-201"/>
<path fill="none" stroke="#ff8000" stroke-width="2" d="M661.5,-83C746.78,-85.37 724.16,-205.37 805.5,-203"/>
<path fill="none" stroke="#ff8000" stroke-width="2" d="M661.5,-85C744.81,-85 722.19,-205 805.5,-205"/>
<path fill="none" stroke="#ff8000" stroke-width="2" d="M661.5,-87C742.84,-84.63 720.22,-204.63 805.5,-207"/>
<path fill="none" stroke="#000000" stroke-width="2" d="M661.5,-89C740.88,-84.26 718.26,-204.26 805.5,-209"/>
</g>
<!-- W1&#45;&#45;X2 -->
<g id="edge23" class="edge">
<title>W1:e&#45;&#45;X2:w</title>
<path fill="none" stroke="#000000" stroke-width="2" d="M661.5,-51C743.9,-55.5 731.04,-157.5 805.5,-153"/>
<path fill="none" stroke="#ffffff" stroke-width="2" d="M661.5,-53C741.91,-55.25 729.05,-157.25 805.5,-155"/>
<path fill="none" stroke="#895956" stroke-width="2" d="M661.5,-55C739.93,-55 727.07,-157 805.5,-157"/>
<path fill="none" stroke="#ffffff" stroke-width="2" d="M661.5,-57C737.95,-54.75 725.09,-156.75 805.5,-159"/>
<path fill="none" stroke="#000000" stroke-width="2" d="M661.5,-59C735.96,-54.5 723.1,-156.5 805.5,-161"/>
</g>
<!-- W1&#45;&#45;X2 -->
<g id="edge24" class="edge">
<title>W1:e&#45;&#45;X2:w</title>
<path fill="none" stroke="#000000" stroke-width="2" d="M661.5,-21C745.46,-25.59 729.46,-133.59 805.5,-129"/>
<path fill="none" stroke="#895956" stroke-width="2" d="M661.5,-23C743.48,-25.29 727.48,-133.29 805.5,-131"/>
<path fill="none" stroke="#895956" stroke-width="2" d="M661.5,-25C741.5,-25 725.5,-133 805.5,-133"/>
<path fill="none" stroke="#895956" stroke-width="2" d="M661.5,-27C739.52,-24.71 723.52,-132.71 805.5,-135"/>
<path fill="none" stroke="#000000" stroke-width="2" d="M661.5,-29C737.54,-24.41 721.54,-132.41 805.5,-137"/>
</g>
</g>
</svg>
