<?xml version="1.0" encoding="UTF-8" standalone="no"?>
<!DOCTYPE svg PUBLIC "-//W3C//DTD SVG 1.1//EN"
 "http://www.w3.org/Graphics/SVG/1.1/DTD/svg11.dtd">
<!-- Generated by graphviz version 2.49.1 (20210923.0004)
 -->
<!-- Pages: 1 -->
<svg width="1120pt" height="324pt"
 viewBox="0.00 0.00 1120.00 324.00" xmlns="http://www.w3.org/2000/svg" xmlns:xlink="http://www.w3.org/1999/xlink">
<g id="graph0" class="graph" transform="scale(1 1) rotate(0) translate(4 320)">
<polygon fill="#ffffff" stroke="transparent" points="-4,4 -4,-320 1116,-320 1116,4 -4,4"/>
<!-- X1 -->
<g id="node1" class="node">
<title>X1</title>
<polygon fill="#ffffff" stroke="black" points="298,-264 0,-264 0,-34 298,-34 298,-264"/>
<polygon fill="none" stroke="black" points="0,-241 0,-264 298,-264 298,-241 0,-241"/>
<text text-anchor="start" x="140" y="-248.8" font-family="arial" font-size="14.00">X1</text>
<polygon fill="none" stroke="black" points="0,-218 0,-241 219,-241 219,-218 0,-218"/>
<text text-anchor="start" x="4" y="-225.8" font-family="arial" font-size="14.00">Stewart Connector SS&#45;37000&#45;002</text>
<polygon fill="none" stroke="black" points="219,-218 219,-241 258,-241 258,-218 219,-218"/>
<text text-anchor="start" x="223" y="-225.8" font-family="arial" font-size="14.00">male</text>
<polygon fill="none" stroke="black" points="258,-218 258,-241 298,-241 298,-218 258,-218"/>
<text text-anchor="start" x="262" y="-225.8" font-family="arial" font-size="14.00">8&#45;pin</text>
<polygon fill="none" stroke="black" points="0,-195 0,-218 160,-218 160,-195 0,-195"/>
<text text-anchor="start" x="66" y="-202.8" font-family="arial" font-size="14.00">DA+</text>
<polygon fill="none" stroke="black" points="160,-195 160,-218 298,-218 298,-195 160,-195"/>
<text text-anchor="start" x="225" y="-202.8" font-family="arial" font-size="14.00">1</text>
<polygon fill="none" stroke="black" points="0,-172 0,-195 160,-195 160,-172 0,-172"/>
<text text-anchor="start" x="67.5" y="-179.8" font-family="arial" font-size="14.00">DA&#45;</text>
<polygon fill="none" stroke="black" points="160,-172 160,-195 298,-195 298,-172 160,-172"/>
<text text-anchor="start" x="225" y="-179.8" font-family="arial" font-size="14.00">2</text>
<polygon fill="none" stroke="black" points="0,-149 0,-172 160,-172 160,-149 0,-149"/>
<text text-anchor="start" x="66" y="-156.8" font-family="arial" font-size="14.00">DB+</text>
<polygon fill="none" stroke="black" points="160,-149 160,-172 298,-172 298,-149 160,-149"/>
<text text-anchor="start" x="225" y="-156.8" font-family="arial" font-size="14.00">3</text>
<polygon fill="none" stroke="black" points="0,-126 0,-149 160,-149 160,-126 0,-126"/>
<text text-anchor="start" x="65.5" y="-133.8" font-family="arial" font-size="14.00">DC+</text>
<polygon fill="none" stroke="black" points="160,-126 160,-149 298,-149 298,-126 160,-126"/>
<text text-anchor="start" x="225" y="-133.8" font-family="arial" font-size="14.00">4</text>
<polygon fill="none" stroke="black" points="0,-103 0,-126 160,-126 160,-103 0,-103"/>
<text text-anchor="start" x="67.5" y="-110.8" font-family="arial" font-size="14.00">DC&#45;</text>
<polygon fill="none" stroke="black" points="160,-103 160,-126 298,-126 298,-103 160,-103"/>
<text text-anchor="start" x="225" y="-110.8" font-family="arial" font-size="14.00">5</text>
<polygon fill="none" stroke="black" points="0,-80 0,-103 160,-103 160,-80 0,-80"/>
<text text-anchor="start" x="67.5" y="-87.8" font-family="arial" font-size="14.00">DB&#45;</text>
<polygon fill="none" stroke="black" points="160,-80 160,-103 298,-103 298,-80 160,-80"/>
<text text-anchor="start" x="225" y="-87.8" font-family="arial" font-size="14.00">6</text>
<polygon fill="none" stroke="black" points="0,-57 0,-80 160,-80 160,-57 0,-57"/>
<text text-anchor="start" x="65.5" y="-64.8" font-family="arial" font-size="14.00">DD+</text>
<polygon fill="none" stroke="black" points="160,-57 160,-80 298,-80 298,-57 160,-57"/>
<text text-anchor="start" x="225" y="-64.8" font-family="arial" font-size="14.00">7</text>
<polygon fill="none" stroke="black" points="0,-34 0,-57 160,-57 160,-34 0,-34"/>
<text text-anchor="start" x="67.5" y="-41.8" font-family="arial" font-size="14.00">DD&#45;</text>
<polygon fill="none" stroke="black" points="160,-34 160,-57 298,-57 298,-34 160,-34"/>
<text text-anchor="start" x="225" y="-41.8" font-family="arial" font-size="14.00">8</text>
</g>
<!-- W1 -->
<g id="node3" class="node">
<title>W1</title>
<polygon fill="#ffffff" stroke="black" points="670,-316 442,-316 442,0 670,0 670,-316"/>
<polygon fill="none" stroke="black" points="442,-293 442,-316 670,-316 670,-293 442,-293"/>
<text text-anchor="start" x="545.5" y="-300.8" font-family="arial" font-size="14.00">W1</text>
<polygon fill="none" stroke="black" points="442,-270 442,-293 509,-293 509,-270 442,-270"/>
<text text-anchor="start" x="454" y="-277.8" font-family="arial" font-size="14.00">CAT5e</text>
<polygon fill="none" stroke="black" points="509,-270 509,-293 548,-293 548,-270 509,-270"/>
<text text-anchor="start" x="521" y="-277.8" font-family="arial" font-size="14.00">8x</text>
<polygon fill="none" stroke="black" points="548,-270 548,-293 623,-293 623,-270 548,-270"/>
<text text-anchor="start" x="559.5" y="-277.8" font-family="arial" font-size="14.00">24 AWG</text>
<polygon fill="none" stroke="black" points="623,-270 623,-293 670,-293 670,-270 623,-270"/>
<text text-anchor="start" x="634.5" y="-277.8" font-family="arial" font-size="14.00">1 m</text>
<text text-anchor="start" x="473" y="-256.8" font-family="arial" font-size="14.00"> </text>
<text text-anchor="start" x="444.5" y="-237.8" font-family="arial" font-size="14.00">X1:1:DA+</text>
<text text-anchor="start" x="510" y="-237.8" font-family="arial" font-size="14.00"> &#160;&#160;&#160;&#160;1:WHGN &#160;&#160;&#160;</text>
<text text-anchor="start" x="606.5" y="-237.8" font-family="arial" font-size="14.00">X2:3:DA+</text>
<polygon fill="#000000" stroke="transparent" points="442,-230 442,-232 670,-232 670,-230 442,-230"/>
<polygon fill="#ffffff" stroke="transparent" points="442,-228 442,-230 670,-230 670,-228 442,-228"/>
<polygon fill="#00ff00" stroke="transparent" points="442,-226 442,-228 670,-228 670,-226 442,-226"/>
<polygon fill="#ffffff" stroke="transparent" points="442,-224 442,-226 670,-226 670,-224 442,-224"/>
<polygon fill="#000000" stroke="transparent" points="442,-222 442,-224 670,-224 670,-222 442,-222"/>
<text text-anchor="start" x="446.5" y="-208.8" font-family="arial" font-size="14.00">X1:2:DA&#45;</text>
<text text-anchor="start" x="522" y="-208.8" font-family="arial" font-size="14.00"> &#160;&#160;&#160;&#160;2:GN &#160;&#160;&#160;</text>
<text text-anchor="start" x="608.5" y="-208.8" font-family="arial" font-size="14.00">X2:6:DA&#45;</text>
<polygon fill="#000000" stroke="transparent" points="442,-201 442,-203 670,-203 670,-201 442,-201"/>
<polygon fill="#00ff00" stroke="transparent" points="442,-199 442,-201 670,-201 670,-199 442,-199"/>
<polygon fill="#00ff00" stroke="transparent" points="442,-197 442,-199 670,-199 670,-197 442,-197"/>
<polygon fill="#00ff00" stroke="transparent" points="442,-195 442,-197 670,-197 670,-195 442,-195"/>
<polygon fill="#000000" stroke="transparent" points="442,-193 442,-195 670,-195 670,-193 442,-193"/>
<text text-anchor="start" x="444.5" y="-179.8" font-family="arial" font-size="14.00">X1:3:DB+</text>
<text text-anchor="start" x="510" y="-179.8" font-family="arial" font-size="14.00"> &#160;&#160;&#160;&#160;3:WHOG &#160;&#160;&#160;</text>
<text text-anchor="start" x="606.5" y="-179.8" font-family="arial" font-size="14.00">X2:1:DB+</text>
<polygon fill="#000000" stroke="transparent" points="442,-172 442,-174 670,-174 670,-172 442,-172"/>
<polygon fill="#ffffff" stroke="transparent" points="442,-170 442,-172 670,-172 670,-170 442,-170"/>
<polygon fill="#ff8000" stroke="transparent" points="442,-168 442,-170 670,-170 670,-168 442,-168"/>
<polygon fill="#ffffff" stroke="transparent" points="442,-166 442,-168 670,-168 670,-166 442,-166"/>
<polygon fill="#000000" stroke="transparent" points="442,-164 442,-166 670,-166 670,-164 442,-164"/>
<text text-anchor="start" x="444" y="-150.8" font-family="arial" font-size="14.00">X1:4:DC+</text>
<text text-anchor="start" x="522.5" y="-150.8" font-family="arial" font-size="14.00"> &#160;&#160;&#160;&#160;4:BU &#160;&#160;&#160;</text>
<text text-anchor="start" x="606" y="-150.8" font-family="arial" font-size="14.00">X2:7:DC+</text>
<polygon fill="#000000" stroke="transparent" points="442,-143 442,-145 670,-145 670,-143 442,-143"/>
<polygon fill="#0066ff" stroke="transparent" points="442,-141 442,-143 670,-143 670,-141 442,-141"/>
<polygon fill="#0066ff" stroke="transparent" points="442,-139 442,-141 670,-141 670,-139 442,-139"/>
<polygon fill="#0066ff" stroke="transparent" points="442,-137 442,-139 670,-139 670,-137 442,-137"/>
<polygon fill="#000000" stroke="transparent" points="442,-135 442,-137 670,-137 670,-135 442,-135"/>
<text text-anchor="start" x="446" y="-121.8" font-family="arial" font-size="14.00">X1:5:DC&#45;</text>
<text text-anchor="start" x="511" y="-121.8" font-family="arial" font-size="14.00"> &#160;&#160;&#160;&#160;5:WHBU &#160;&#160;&#160;</text>
<text text-anchor="start" x="608" y="-121.8" font-family="arial" font-size="14.00">X2:8:DC&#45;</text>
<polygon fill="#000000" stroke="transparent" points="442,-114 442,-116 670,-116 670,-114 442,-114"/>
<polygon fill="#ffffff" stroke="transparent" points="442,-112 442,-114 670,-114 670,-112 442,-112"/>
<polygon fill="#0066ff" stroke="transparent" points="442,-110 442,-112 670,-112 670,-110 442,-110"/>
<polygon fill="#ffffff" stroke="transparent" points="442,-108 442,-110 670,-110 670,-108 442,-108"/>
<polygon fill="#000000" stroke="transparent" points="442,-106 442,-108 670,-108 670,-106 442,-106"/>
<text text-anchor="start" x="446.5" y="-92.8" font-family="arial" font-size="14.00">X1:6:DB&#45;</text>
<text text-anchor="start" x="521.5" y="-92.8" font-family="arial" font-size="14.00"> &#160;&#160;&#160;&#160;6:OG &#160;&#160;&#160;</text>
<text text-anchor="start" x="608.5" y="-92.8" font-family="arial" font-size="14.00">X2:2:DB&#45;</text>
<polygon fill="#000000" stroke="transparent" points="442,-85 442,-87 670,-87 670,-85 442,-85"/>
<polygon fill="#ff8000" stroke="transparent" points="442,-83 442,-85 670,-85 670,-83 442,-83"/>
<polygon fill="#ff8000" stroke="transparent" points="442,-81 442,-83 670,-83 670,-81 442,-81"/>
<polygon fill="#ff8000" stroke="transparent" points="442,-79 442,-81 670,-81 670,-79 442,-79"/>
<polygon fill="#000000" stroke="transparent" points="442,-77 442,-79 670,-79 670,-77 442,-77"/>
<text text-anchor="start" x="444" y="-63.8" font-family="arial" font-size="14.00">X1:7:DD+</text>
<text text-anchor="start" x="511" y="-63.8" font-family="arial" font-size="14.00"> &#160;&#160;&#160;&#160;7:WHBN &#160;&#160;&#160;</text>
<text text-anchor="start" x="606" y="-63.8" font-family="arial" font-size="14.00">X2:4:DD+</text>
<polygon fill="#000000" stroke="transparent" points="442,-56 442,-58 670,-58 670,-56 442,-56"/>
<polygon fill="#ffffff" stroke="transparent" points="442,-54 442,-56 670,-56 670,-54 442,-54"/>
<polygon fill="#895956" stroke="transparent" points="442,-52 442,-54 670,-54 670,-52 442,-52"/>
<polygon fill="#ffffff" stroke="transparent" points="442,-50 442,-52 670,-52 670,-50 442,-50"/>
<polygon fill="#000000" stroke="transparent" points="442,-48 442,-50 670,-50 670,-48 442,-48"/>
<text text-anchor="start" x="446" y="-34.8" font-family="arial" font-size="14.00">X1:8:DD&#45;</text>
<text text-anchor="start" x="522.5" y="-34.8" font-family="arial" font-size="14.00"> &#160;&#160;&#160;&#160;8:BN &#160;&#160;&#160;</text>
<text text-anchor="start" x="608" y="-34.8" font-family="arial" font-size="14.00">X2:5:DD&#45;</text>
<polygon fill="#000000" stroke="transparent" points="442,-27 442,-29 670,-29 670,-27 442,-27"/>
<polygon fill="#895956" stroke="transparent" points="442,-25 442,-27 670,-27 670,-25 442,-25"/>
<polygon fill="#895956" stroke="transparent" points="442,-23 442,-25 670,-25 670,-23 442,-23"/>
<polygon fill="#895956" stroke="transparent" points="442,-21 442,-23 670,-23 670,-21 442,-21"/>
<polygon fill="#000000" stroke="transparent" points="442,-19 442,-21 670,-21 670,-19 442,-19"/>
<text text-anchor="start" x="473" y="-5.8" font-family="arial" font-size="14.00"> </text>
</g>
<!-- X1&#45;&#45;W1 -->
<g id="edge1" class="edge">
<title>X1:e&#45;&#45;W1:w</title>
<path fill="none" stroke="#000000" stroke-width="2" d="M298,-203C365.83,-204.62 380.6,-224.62 442,-223"/>
<path fill="none" stroke="#ffffff" stroke-width="2" d="M298,-205C364.22,-205.81 378.99,-225.81 442,-225"/>
<path fill="none" stroke="#00ff00" stroke-width="2" d="M298,-207C362.61,-207 377.39,-227 442,-227"/>
<path fill="none" stroke="#ffffff" stroke-width="2" d="M298,-209C361.01,-208.19 375.78,-228.19 442,-229"/>
<path fill="none" stroke="#000000" stroke-width="2" d="M298,-211C359.4,-209.38 374.17,-229.38 442,-231"/>
</g>
<!-- X1&#45;&#45;W1 -->
<g id="edge3" class="edge">
<title>X1:e&#45;&#45;W1:w</title>
<path fill="none" stroke="#000000" stroke-width="2" d="M298,-180C364.99,-181.04 380.39,-195.04 442,-194"/>
<path fill="none" stroke="#00ff00" stroke-width="2" d="M298,-182C363.65,-182.52 379.04,-196.52 442,-196"/>
<path fill="none" stroke="#00ff00" stroke-width="2" d="M298,-184C362.3,-184 377.7,-198 442,-198"/>
<path fill="none" stroke="#00ff00" stroke-width="2" d="M298,-186C360.96,-185.48 376.35,-199.48 442,-200"/>
<path fill="none" stroke="#000000" stroke-width="2" d="M298,-188C359.61,-186.96 375.01,-200.96 442,-202"/>
</g>
<!-- X1&#45;&#45;W1 -->
<g id="edge5" class="edge">
<title>X1:e&#45;&#45;W1:w</title>
<path fill="none" stroke="#000000" stroke-width="2" d="M298,-157C363.91,-157.43 379.71,-165.43 442,-165"/>
<path fill="none" stroke="#ffffff" stroke-width="2" d="M298,-159C363,-159.22 378.8,-167.22 442,-167"/>
<path fill="none" stroke="#ff8000" stroke-width="2" d="M298,-161C362.1,-161 377.9,-169 442,-169"/>
<path fill="none" stroke="#ffffff" stroke-width="2" d="M298,-163C361.2,-162.78 377,-170.78 442,-171"/>
<path fill="none" stroke="#000000" stroke-width="2" d="M298,-165C360.29,-164.57 376.09,-172.57 442,-173"/>
</g>
<!-- X1&#45;&#45;W1 -->
<g id="edge7" class="edge">
<title>X1:e&#45;&#45;W1:w</title>
<path fill="none" stroke="#000000" stroke-width="2" d="M298,-133C362.75,-133.07 378.72,-136.07 442,-136"/>
<path fill="none" stroke="#0066ff" stroke-width="2" d="M298,-135C362.38,-135.03 378.36,-138.03 442,-138"/>
<path fill="none" stroke="#0066ff" stroke-width="2" d="M298,-137C362.01,-137 377.99,-140 442,-140"/>
<path fill="none" stroke="#0066ff" stroke-width="2" d="M298,-139C361.64,-138.97 377.62,-141.97 442,-142"/>
<path fill="none" stroke="#000000" stroke-width="2" d="M298,-141C361.28,-140.93 377.25,-143.93 442,-144"/>
</g>
<!-- X1&#45;&#45;W1 -->
<g id="edge9" class="edge">
<title>X1:e&#45;&#45;W1:w</title>
<path fill="none" stroke="#000000" stroke-width="2" d="M298,-110C361.28,-110.07 377.25,-107.07 442,-107"/>
<path fill="none" stroke="#ffffff" stroke-width="2" d="M298,-112C361.64,-112.03 377.62,-109.03 442,-109"/>
<path fill="none" stroke="#0066ff" stroke-width="2" d="M298,-114C362.01,-114 377.99,-111 442,-111"/>
<path fill="none" stroke="#ffffff" stroke-width="2" d="M298,-116C362.38,-115.97 378.36,-112.97 442,-113"/>
<path fill="none" stroke="#000000" stroke-width="2" d="M298,-118C362.75,-117.93 378.72,-114.93 442,-115"/>
</g>
<!-- X1&#45;&#45;W1 -->
<g id="edge11" class="edge">
<title>X1:e&#45;&#45;W1:w</title>
<path fill="none" stroke="#000000" stroke-width="2" d="M298,-87C360.14,-87.53 375.89,-78.53 442,-78"/>
<path fill="none" stroke="#ff8000" stroke-width="2" d="M298,-89C361.13,-89.26 376.88,-80.26 442,-80"/>
<path fill="none" stroke="#ff8000" stroke-width="2" d="M298,-91C362.12,-91 377.88,-82 442,-82"/>
<path fill="none" stroke="#ff8000" stroke-width="2" d="M298,-93C363.12,-92.74 378.87,-83.74 442,-84"/>
<path fill="none" stroke="#000000" stroke-width="2" d="M298,-95C364.11,-94.47 379.86,-85.47 442,-86"/>
</g>
<!-- X1&#45;&#45;W1 -->
<g id="edge13" class="edge">
<title>X1:e&#45;&#45;W1:w</title>
<path fill="none" stroke="#000000" stroke-width="2" d="M298,-64C359.55,-65.14 374.85,-50.14 442,-49"/>
<path fill="none" stroke="#ffffff" stroke-width="2" d="M298,-66C360.95,-66.57 376.25,-51.57 442,-51"/>
<path fill="none" stroke="#895956" stroke-width="2" d="M298,-68C362.35,-68 377.65,-53 442,-53"/>
<path fill="none" stroke="#ffffff" stroke-width="2" d="M298,-70C363.75,-69.43 379.05,-54.43 442,-55"/>
<path fill="none" stroke="#000000" stroke-width="2" d="M298,-72C365.15,-70.86 380.45,-55.86 442,-57"/>
</g>
<!-- X1&#45;&#45;W1 -->
<g id="edge15" class="edge">
<title>X1:e&#45;&#45;W1:w</title>
<path fill="none" stroke="#000000" stroke-width="2" d="M298,-41C359.4,-42.71 374.04,-21.71 442,-20"/>
<path fill="none" stroke="#895956" stroke-width="2" d="M298,-43C361.04,-43.86 375.68,-22.86 442,-22"/>
<path fill="none" stroke="#895956" stroke-width="2" d="M298,-45C362.68,-45 377.32,-24 442,-24"/>
<path fill="none" stroke="#895956" stroke-width="2" d="M298,-47C364.32,-46.14 378.96,-25.14 442,-26"/>
<path fill="none" stroke="#000000" stroke-width="2" d="M298,-49C365.96,-47.29 380.6,-26.29 442,-28"/>
</g>
<!-- X2 -->
<g id="node2" class="node">
<title>X2</title>
<polygon fill="#ffffff" stroke="black" points="1112,-278 814,-278 814,-48 1112,-48 1112,-278"/>
<polygon fill="none" stroke="black" points="814,-255 814,-278 1112,-278 1112,-255 814,-255"/>
<text text-anchor="start" x="954" y="-262.8" font-family="arial" font-size="14.00">X2</text>
<polygon fill="none" stroke="black" points="814,-232 814,-255 1033,-255 1033,-232 814,-232"/>
<text text-anchor="start" x="818" y="-239.8" font-family="arial" font-size="14.00">Stewart Connector SS&#45;37000&#45;002</text>
<polygon fill="none" stroke="black" points="1033,-232 1033,-255 1072,-255 1072,-232 1033,-232"/>
<text text-anchor="start" x="1037" y="-239.8" font-family="arial" font-size="14.00">male</text>
<polygon fill="none" stroke="black" points="1072,-232 1072,-255 1112,-255 1112,-232 1072,-232"/>
<text text-anchor="start" x="1076" y="-239.8" font-family="arial" font-size="14.00">8&#45;pin</text>
<polygon fill="none" stroke="black" points="814,-209 814,-232 953,-232 953,-209 814,-209"/>
<text text-anchor="start" x="879.5" y="-216.8" font-family="arial" font-size="14.00">1</text>
<polygon fill="none" stroke="black" points="953,-209 953,-232 1112,-232 1112,-209 953,-209"/>
<text text-anchor="start" x="1018.5" y="-216.8" font-family="arial" font-size="14.00">DB+</text>
<polygon fill="none" stroke="black" points="814,-186 814,-209 953,-209 953,-186 814,-186"/>
<text text-anchor="start" x="879.5" y="-193.8" font-family="arial" font-size="14.00">2</text>
<polygon fill="none" stroke="black" points="953,-186 953,-209 1112,-209 1112,-186 953,-186"/>
<text text-anchor="start" x="1020" y="-193.8" font-family="arial" font-size="14.00">DB&#45;</text>
<polygon fill="none" stroke="black" points="814,-163 814,-186 953,-186 953,-163 814,-163"/>
<text text-anchor="start" x="879.5" y="-170.8" font-family="arial" font-size="14.00">3</text>
<polygon fill="none" stroke="black" points="953,-163 953,-186 1112,-186 1112,-163 953,-163"/>
<text text-anchor="start" x="1018.5" y="-170.8" font-family="arial" font-size="14.00">DA+</text>
<polygon fill="none" stroke="black" points="814,-140 814,-163 953,-163 953,-140 814,-140"/>
<text text-anchor="start" x="879.5" y="-147.8" font-family="arial" font-size="14.00">4</text>
<polygon fill="none" stroke="black" points="953,-140 953,-163 1112,-163 1112,-140 953,-140"/>
<text text-anchor="start" x="1018" y="-147.8" font-family="arial" font-size="14.00">DD+</text>
<polygon fill="none" stroke="black" points="814,-117 814,-140 953,-140 953,-117 814,-117"/>
<text text-anchor="start" x="879.5" y="-124.8" font-family="arial" font-size="14.00">5</text>
<polygon fill="none" stroke="black" points="953,-117 953,-140 1112,-140 1112,-117 953,-117"/>
<text text-anchor="start" x="1020" y="-124.8" font-family="arial" font-size="14.00">DD&#45;</text>
<polygon fill="none" stroke="black" points="814,-94 814,-117 953,-117 953,-94 814,-94"/>
<text text-anchor="start" x="879.5" y="-101.8" font-family="arial" font-size="14.00">6</text>
<polygon fill="none" stroke="black" points="953,-94 953,-117 1112,-117 1112,-94 953,-94"/>
<text text-anchor="start" x="1020" y="-101.8" font-family="arial" font-size="14.00">DA&#45;</text>
<polygon fill="none" stroke="black" points="814,-71 814,-94 953,-94 953,-71 814,-71"/>
<text text-anchor="start" x="879.5" y="-78.8" font-family="arial" font-size="14.00">7</text>
<polygon fill="none" stroke="black" points="953,-71 953,-94 1112,-94 1112,-71 953,-71"/>
<text text-anchor="start" x="1018" y="-78.8" font-family="arial" font-size="14.00">DC+</text>
<polygon fill="none" stroke="black" points="814,-48 814,-71 953,-71 953,-48 814,-48"/>
<text text-anchor="start" x="879.5" y="-55.8" font-family="arial" font-size="14.00">8</text>
<polygon fill="none" stroke="black" points="953,-48 953,-71 1112,-71 1112,-48 953,-48"/>
<text text-anchor="start" x="1020" y="-55.8" font-family="arial" font-size="14.00">DC&#45;</text>
</g>
<!-- W1&#45;&#45;X2 -->
<g id="edge2" class="edge">
<title>W1:e&#45;&#45;X2:w</title>
<path fill="none" stroke="#000000" stroke-width="2" d="M670,-223C734.09,-226.4 742,-174.4 814,-171"/>
<path fill="none" stroke="#ffffff" stroke-width="2" d="M670,-225C736.07,-226.7 743.98,-174.7 814,-173"/>
<path fill="none" stroke="#00ff00" stroke-width="2" d="M670,-227C738.05,-227 745.95,-175 814,-175"/>
<path fill="none" stroke="#ffffff" stroke-width="2" d="M670,-229C740.02,-227.3 747.93,-175.3 814,-177"/>
<path fill="none" stroke="#000000" stroke-width="2" d="M670,-231C742,-227.6 749.91,-175.6 814,-179"/>
</g>
<!-- W1&#45;&#45;X2 -->
<g id="edge4" class="edge">
<title>W1:e&#45;&#45;X2:w</title>
<path fill="none" stroke="#000000" stroke-width="2" d="M670,-194C742.2,-198.36 733.83,-105.36 814,-101"/>
<path fill="none" stroke="#00ff00" stroke-width="2" d="M670,-196C744.19,-198.18 735.82,-105.18 814,-103"/>
<path fill="none" stroke="#00ff00" stroke-width="2" d="M670,-198C746.19,-198 737.81,-105 814,-105"/>
<path fill="none" stroke="#00ff00" stroke-width="2" d="M670,-200C748.18,-197.82 739.81,-104.82 814,-107"/>
<path fill="none" stroke="#000000" stroke-width="2" d="M670,-202C750.17,-197.64 741.8,-104.64 814,-109"/>
</g>
<!-- W1&#45;&#45;X2 -->
<g id="edge6" class="edge">
<title>W1:e&#45;&#45;X2:w</title>
<path fill="none" stroke="#000000" stroke-width="2" d="M670,-165C742,-168.4 749.91,-220.4 814,-217"/>
<path fill="none" stroke="#ffffff" stroke-width="2" d="M670,-167C740.02,-168.7 747.93,-220.7 814,-219"/>
<path fill="none" stroke="#ff8000" stroke-width="2" d="M670,-169C738.05,-169 745.95,-221 814,-221"/>
<path fill="none" stroke="#ffffff" stroke-width="2" d="M670,-171C736.07,-169.3 743.98,-221.3 814,-223"/>
<path fill="none" stroke="#000000" stroke-width="2" d="M670,-173C734.09,-169.6 742,-221.6 814,-225"/>
</g>
<!-- W1&#45;&#45;X2 -->
<g id="edge8" class="edge">
<title>W1:e&#45;&#45;X2:w</title>
<path fill="none" stroke="#000000" stroke-width="2" d="M670,-136C735.02,-139.59 741.02,-81.59 814,-78"/>
<path fill="none" stroke="#0066ff" stroke-width="2" d="M670,-138C737.01,-139.79 743.01,-81.79 814,-80"/>
<path fill="none" stroke="#0066ff" stroke-width="2" d="M670,-140C739,-140 745,-82 814,-82"/>
<path fill="none" stroke="#0066ff" stroke-width="2" d="M670,-142C740.99,-140.21 746.99,-82.21 814,-84"/>
<path fill="none" stroke="#000000" stroke-width="2" d="M670,-144C742.98,-140.41 748.98,-82.41 814,-86"/>
</g>
<!-- W1&#45;&#45;X2 -->
<g id="edge10" class="edge">
<title>W1:e&#45;&#45;X2:w</title>
<path fill="none" stroke="#000000" stroke-width="2" d="M670,-107C734.09,-110.4 742,-58.4 814,-55"/>
<path fill="none" stroke="#ffffff" stroke-width="2" d="M670,-109C736.07,-110.7 743.98,-58.7 814,-57"/>
<path fill="none" stroke="#0066ff" stroke-width="2" d="M670,-111C738.05,-111 745.95,-59 814,-59"/>
<path fill="none" stroke="#ffffff" stroke-width="2" d="M670,-113C740.02,-111.3 747.93,-59.3 814,-61"/>
<path fill="none" stroke="#000000" stroke-width="2" d="M670,-115C742,-111.6 749.91,-59.6 814,-63"/>
</g>
<!-- W1&#45;&#45;X2 -->
<g id="edge12" class="edge">
<title>W1:e&#45;&#45;X2:w</title>
<path fill="none" stroke="#000000" stroke-width="2" d="M670,-78C756.12,-82.69 735.76,-198.69 814,-194"/>
<path fill="none" stroke="#ff8000" stroke-width="2" d="M670,-80C754.15,-82.35 733.79,-198.35 814,-196"/>
<path fill="none" stroke="#ff8000" stroke-width="2" d="M670,-82C752.18,-82 731.82,-198 814,-198"/>
<path fill="none" stroke="#ff8000" stroke-width="2" d="M670,-84C750.21,-81.65 729.85,-197.65 814,-200"/>
<path fill="none" stroke="#000000" stroke-width="2" d="M670,-86C748.24,-81.31 727.88,-197.31 814,-202"/>
</g>
<!-- W1&#45;&#45;X2 -->
<g id="edge14" class="edge">
<title>W1:e&#45;&#45;X2:w</title>
<path fill="none" stroke="#000000" stroke-width="2" d="M670,-49C751.39,-53.44 740.56,-151.44 814,-147"/>
<path fill="none" stroke="#ffffff" stroke-width="2" d="M670,-51C749.4,-53.22 738.57,-151.22 814,-149"/>
<path fill="none" stroke="#895956" stroke-width="2" d="M670,-53C747.42,-53 736.58,-151 814,-151"/>
<path fill="none" stroke="#ffffff" stroke-width="2" d="M670,-55C745.43,-52.78 734.6,-150.78 814,-153"/>
<path fill="none" stroke="#000000" stroke-width="2" d="M670,-57C743.44,-52.56 732.61,-150.56 814,-155"/>
</g>
<!-- W1&#45;&#45;X2 -->
<g id="edge16" class="edge">
<title>W1:e&#45;&#45;X2:w</title>
<path fill="none" stroke="#000000" stroke-width="2" d="M670,-20C752.91,-24.53 739.02,-128.53 814,-124"/>
<path fill="none" stroke="#895956" stroke-width="2" d="M670,-22C750.93,-24.26 737.04,-128.26 814,-126"/>
<path fill="none" stroke="#895956" stroke-width="2" d="M670,-24C748.95,-24 735.05,-128 814,-128"/>
<path fill="none" stroke="#895956" stroke-width="2" d="M670,-26C746.96,-23.74 733.07,-127.74 814,-130"/>
<path fill="none" stroke="#000000" stroke-width="2" d="M670,-28C744.98,-23.47 731.09,-127.47 814,-132"/>
</g>
</g>
</svg>
