<?xml version="1.0" encoding="UTF-8" standalone="no"?>
<!DOCTYPE svg PUBLIC "-//W3C//DTD SVG 1.1//EN"
 "http://www.w3.org/Graphics/SVG/1.1/DTD/svg11.dtd">
<!-- Generated by graphviz version 2.44.0 (20200408.0750)
 -->
<!-- Pages: 1 -->
<svg width="1039pt" height="320pt"
 viewBox="0.00 0.00 1039.00 320.00" xmlns="http://www.w3.org/2000/svg" xmlns:xlink="http://www.w3.org/1999/xlink">
<g id="graph0" class="graph" transform="scale(1 1) rotate(0) translate(4 316)">
<polygon fill="white" stroke="transparent" points="-4,4 -4,-316 1035,-316 1035,4 -4,4"/>
<!-- X1 -->
<g id="node1" class="node">
<title>X1</title>
<polygon fill="white" stroke="transparent" points="289,-264 0,-264 0,-34 289,-34 289,-264"/>
<polygon fill="none" stroke="black" points="0.5,-241 0.5,-264 289.5,-264 289.5,-241 0.5,-241"/>
<text text-anchor="start" x="136.5" y="-248.8" font-family="arial" font-size="14.00">X1</text>
<polygon fill="none" stroke="black" points="0.5,-218 0.5,-241 211.5,-241 211.5,-218 0.5,-218"/>
<text text-anchor="start" x="4.5" y="-225.8" font-family="arial" font-size="14.00">Stewart Connector SS&#45;37000&#45;002</text>
<polygon fill="none" stroke="black" points="211.5,-218 211.5,-241 250.5,-241 250.5,-218 211.5,-218"/>
<text text-anchor="start" x="215.5" y="-225.8" font-family="arial" font-size="14.00">male</text>
<polygon fill="none" stroke="black" points="250.5,-218 250.5,-241 289.5,-241 289.5,-218 250.5,-218"/>
<text text-anchor="start" x="254.5" y="-225.8" font-family="arial" font-size="14.00">8&#45;pin</text>
<polygon fill="none" stroke="black" points="0.5,-195 0.5,-218 155.5,-218 155.5,-195 0.5,-195"/>
<text text-anchor="start" x="64" y="-202.8" font-family="arial" font-size="14.00">DA+</text>
<polygon fill="none" stroke="black" points="155.5,-195 155.5,-218 289.5,-218 289.5,-195 155.5,-195"/>
<text text-anchor="start" x="218.5" y="-202.8" font-family="arial" font-size="14.00">1</text>
<polygon fill="none" stroke="black" points="0.5,-172 0.5,-195 155.5,-195 155.5,-172 0.5,-172"/>
<text text-anchor="start" x="66" y="-179.8" font-family="arial" font-size="14.00">DA&#45;</text>
<polygon fill="none" stroke="black" points="155.5,-172 155.5,-195 289.5,-195 289.5,-172 155.5,-172"/>
<text text-anchor="start" x="218.5" y="-179.8" font-family="arial" font-size="14.00">2</text>
<polygon fill="none" stroke="black" points="0.5,-149 0.5,-172 155.5,-172 155.5,-149 0.5,-149"/>
<text text-anchor="start" x="64" y="-156.8" font-family="arial" font-size="14.00">DB+</text>
<polygon fill="none" stroke="black" points="155.5,-149 155.5,-172 289.5,-172 289.5,-149 155.5,-149"/>
<text text-anchor="start" x="218.5" y="-156.8" font-family="arial" font-size="14.00">3</text>
<polygon fill="none" stroke="black" points="0.5,-126 0.5,-149 155.5,-149 155.5,-126 0.5,-126"/>
<text text-anchor="start" x="64" y="-133.8" font-family="arial" font-size="14.00">DC+</text>
<polygon fill="none" stroke="black" points="155.5,-126 155.5,-149 289.5,-149 289.5,-126 155.5,-126"/>
<text text-anchor="start" x="218.5" y="-133.8" font-family="arial" font-size="14.00">4</text>
<polygon fill="none" stroke="black" points="0.5,-103 0.5,-126 155.5,-126 155.5,-103 0.5,-103"/>
<text text-anchor="start" x="65.5" y="-110.8" font-family="arial" font-size="14.00">DC&#45;</text>
<polygon fill="none" stroke="black" points="155.5,-103 155.5,-126 289.5,-126 289.5,-103 155.5,-103"/>
<text text-anchor="start" x="218.5" y="-110.8" font-family="arial" font-size="14.00">5</text>
<polygon fill="none" stroke="black" points="0.5,-80 0.5,-103 155.5,-103 155.5,-80 0.5,-80"/>
<text text-anchor="start" x="66" y="-87.8" font-family="arial" font-size="14.00">DB&#45;</text>
<polygon fill="none" stroke="black" points="155.5,-80 155.5,-103 289.5,-103 289.5,-80 155.5,-80"/>
<text text-anchor="start" x="218.5" y="-87.8" font-family="arial" font-size="14.00">6</text>
<polygon fill="none" stroke="black" points="0.5,-57 0.5,-80 155.5,-80 155.5,-57 0.5,-57"/>
<text text-anchor="start" x="64" y="-64.8" font-family="arial" font-size="14.00">DD+</text>
<polygon fill="none" stroke="black" points="155.5,-57 155.5,-80 289.5,-80 289.5,-57 155.5,-57"/>
<text text-anchor="start" x="218.5" y="-64.8" font-family="arial" font-size="14.00">7</text>
<polygon fill="none" stroke="black" points="0.5,-34 0.5,-57 155.5,-57 155.5,-34 0.5,-34"/>
<text text-anchor="start" x="65.5" y="-41.8" font-family="arial" font-size="14.00">DD&#45;</text>
<polygon fill="none" stroke="black" points="155.5,-34 155.5,-57 289.5,-57 289.5,-34 155.5,-34"/>
<text text-anchor="start" x="218.5" y="-41.8" font-family="arial" font-size="14.00">8</text>
</g>
<!-- W1 -->
<g id="node3" class="node">
<title>W1</title>
<polygon fill="none" stroke="black" points="598,-312 433,-312 433,0 598,0 598,-312"/>
<polygon fill="none" stroke="black" points="433.5,-289 433.5,-312 598.5,-312 598.5,-289 433.5,-289"/>
<text text-anchor="start" x="505" y="-296.8" font-family="arial" font-size="14.00">W1</text>
<polygon fill="none" stroke="black" points="433.5,-266 433.5,-289 483.5,-289 483.5,-266 433.5,-266"/>
<text text-anchor="start" x="437.5" y="-273.8" font-family="arial" font-size="14.00">CAT5e</text>
<polygon fill="none" stroke="black" points="483.5,-266 483.5,-289 506.5,-289 506.5,-266 483.5,-266"/>
<text text-anchor="start" x="487.5" y="-273.8" font-family="arial" font-size="14.00">8x</text>
<polygon fill="none" stroke="black" points="506.5,-266 506.5,-289 566.5,-289 566.5,-266 506.5,-266"/>
<text text-anchor="start" x="510.5" y="-273.8" font-family="arial" font-size="14.00">24 AWG</text>
<polygon fill="none" stroke="black" points="566.5,-266 566.5,-289 598.5,-289 598.5,-266 566.5,-266"/>
<text text-anchor="start" x="570.5" y="-273.8" font-family="arial" font-size="14.00">1 m</text>
<text text-anchor="start" x="514" y="-254.8" font-family="arial" font-size="14.00"> </text>
<text text-anchor="start" x="444" y="-237.8" font-family="arial" font-size="14.00">X1:1</text>
<text text-anchor="start" x="493.5" y="-237.8" font-family="arial" font-size="14.00">WHGN</text>
<text text-anchor="start" x="560" y="-237.8" font-family="arial" font-size="14.00">X2:3</text>
<polygon fill="#000000" stroke="transparent" points="433.5,-230 433.5,-232 598.5,-232 598.5,-230 433.5,-230"/>
<polygon fill="#ffffff" stroke="transparent" points="433.5,-228 433.5,-230 598.5,-230 598.5,-228 433.5,-228"/>
<polygon fill="#00ff00" stroke="transparent" points="433.5,-226 433.5,-228 598.5,-228 598.5,-226 433.5,-226"/>
<polygon fill="#ffffff" stroke="transparent" points="433.5,-224 433.5,-226 598.5,-226 598.5,-224 433.5,-224"/>
<polygon fill="#000000" stroke="transparent" points="433.5,-222 433.5,-224 598.5,-224 598.5,-222 433.5,-222"/>
<text text-anchor="start" x="444" y="-208.8" font-family="arial" font-size="14.00">X1:2</text>
<text text-anchor="start" x="505" y="-208.8" font-family="arial" font-size="14.00">GN</text>
<text text-anchor="start" x="560" y="-208.8" font-family="arial" font-size="14.00">X2:6</text>
<polygon fill="#000000" stroke="transparent" points="433.5,-201 433.5,-203 598.5,-203 598.5,-201 433.5,-201"/>
<polygon fill="#00ff00" stroke="transparent" points="433.5,-199 433.5,-201 598.5,-201 598.5,-199 433.5,-199"/>
<polygon fill="#00ff00" stroke="transparent" points="433.5,-197 433.5,-199 598.5,-199 598.5,-197 433.5,-197"/>
<polygon fill="#00ff00" stroke="transparent" points="433.5,-195 433.5,-197 598.5,-197 598.5,-195 433.5,-195"/>
<polygon fill="#000000" stroke="transparent" points="433.5,-193 433.5,-195 598.5,-195 598.5,-193 433.5,-193"/>
<text text-anchor="start" x="444" y="-179.8" font-family="arial" font-size="14.00">X1:3</text>
<text text-anchor="start" x="493" y="-179.8" font-family="arial" font-size="14.00">WHOG</text>
<text text-anchor="start" x="560" y="-179.8" font-family="arial" font-size="14.00">X2:1</text>
<polygon fill="#000000" stroke="transparent" points="433.5,-172 433.5,-174 598.5,-174 598.5,-172 433.5,-172"/>
<polygon fill="#ffffff" stroke="transparent" points="433.5,-170 433.5,-172 598.5,-172 598.5,-170 433.5,-170"/>
<polygon fill="#ff8000" stroke="transparent" points="433.5,-168 433.5,-170 598.5,-170 598.5,-168 433.5,-168"/>
<polygon fill="#ffffff" stroke="transparent" points="433.5,-166 433.5,-168 598.5,-168 598.5,-166 433.5,-166"/>
<polygon fill="#000000" stroke="transparent" points="433.5,-164 433.5,-166 598.5,-166 598.5,-164 433.5,-164"/>
<text text-anchor="start" x="444" y="-150.8" font-family="arial" font-size="14.00">X1:4</text>
<text text-anchor="start" x="506.5" y="-150.8" font-family="arial" font-size="14.00">BU</text>
<text text-anchor="start" x="560" y="-150.8" font-family="arial" font-size="14.00">X2:7</text>
<polygon fill="#000000" stroke="transparent" points="433.5,-143 433.5,-145 598.5,-145 598.5,-143 433.5,-143"/>
<polygon fill="#0066ff" stroke="transparent" points="433.5,-141 433.5,-143 598.5,-143 598.5,-141 433.5,-141"/>
<polygon fill="#0066ff" stroke="transparent" points="433.5,-139 433.5,-141 598.5,-141 598.5,-139 433.5,-139"/>
<polygon fill="#0066ff" stroke="transparent" points="433.5,-137 433.5,-139 598.5,-139 598.5,-137 433.5,-137"/>
<polygon fill="#000000" stroke="transparent" points="433.5,-135 433.5,-137 598.5,-137 598.5,-135 433.5,-135"/>
<text text-anchor="start" x="444" y="-121.8" font-family="arial" font-size="14.00">X1:5</text>
<text text-anchor="start" x="494.5" y="-121.8" font-family="arial" font-size="14.00">WHBU</text>
<text text-anchor="start" x="560" y="-121.8" font-family="arial" font-size="14.00">X2:8</text>
<polygon fill="#000000" stroke="transparent" points="433.5,-114 433.5,-116 598.5,-116 598.5,-114 433.5,-114"/>
<polygon fill="#ffffff" stroke="transparent" points="433.5,-112 433.5,-114 598.5,-114 598.5,-112 433.5,-112"/>
<polygon fill="#0066ff" stroke="transparent" points="433.5,-110 433.5,-112 598.5,-112 598.5,-110 433.5,-110"/>
<polygon fill="#ffffff" stroke="transparent" points="433.5,-108 433.5,-110 598.5,-110 598.5,-108 433.5,-108"/>
<polygon fill="#000000" stroke="transparent" points="433.5,-106 433.5,-108 598.5,-108 598.5,-106 433.5,-106"/>
<text text-anchor="start" x="444" y="-92.8" font-family="arial" font-size="14.00">X1:6</text>
<text text-anchor="start" x="504.5" y="-92.8" font-family="arial" font-size="14.00">OG</text>
<text text-anchor="start" x="560" y="-92.8" font-family="arial" font-size="14.00">X2:2</text>
<polygon fill="#000000" stroke="transparent" points="433.5,-85 433.5,-87 598.5,-87 598.5,-85 433.5,-85"/>
<polygon fill="#ff8000" stroke="transparent" points="433.5,-83 433.5,-85 598.5,-85 598.5,-83 433.5,-83"/>
<polygon fill="#ff8000" stroke="transparent" points="433.5,-81 433.5,-83 598.5,-83 598.5,-81 433.5,-81"/>
<polygon fill="#ff8000" stroke="transparent" points="433.5,-79 433.5,-81 598.5,-81 598.5,-79 433.5,-79"/>
<polygon fill="#000000" stroke="transparent" points="433.5,-77 433.5,-79 598.5,-79 598.5,-77 433.5,-77"/>
<text text-anchor="start" x="444" y="-63.8" font-family="arial" font-size="14.00">X1:7</text>
<text text-anchor="start" x="494.5" y="-63.8" font-family="arial" font-size="14.00">WHBN</text>
<text text-anchor="start" x="560" y="-63.8" font-family="arial" font-size="14.00">X2:4</text>
<polygon fill="#000000" stroke="transparent" points="433.5,-56 433.5,-58 598.5,-58 598.5,-56 433.5,-56"/>
<polygon fill="#ffffff" stroke="transparent" points="433.5,-54 433.5,-56 598.5,-56 598.5,-54 433.5,-54"/>
<polygon fill="#895956" stroke="transparent" points="433.5,-52 433.5,-54 598.5,-54 598.5,-52 433.5,-52"/>
<polygon fill="#ffffff" stroke="transparent" points="433.5,-50 433.5,-52 598.5,-52 598.5,-50 433.5,-50"/>
<polygon fill="#000000" stroke="transparent" points="433.5,-48 433.5,-50 598.5,-50 598.5,-48 433.5,-48"/>
<text text-anchor="start" x="444" y="-34.8" font-family="arial" font-size="14.00">X1:8</text>
<text text-anchor="start" x="506.5" y="-34.8" font-family="arial" font-size="14.00">BN</text>
<text text-anchor="start" x="560" y="-34.8" font-family="arial" font-size="14.00">X2:5</text>
<polygon fill="#000000" stroke="transparent" points="433.5,-27 433.5,-29 598.5,-29 598.5,-27 433.5,-27"/>
<polygon fill="#895956" stroke="transparent" points="433.5,-25 433.5,-27 598.5,-27 598.5,-25 433.5,-25"/>
<polygon fill="#895956" stroke="transparent" points="433.5,-23 433.5,-25 598.5,-25 598.5,-23 433.5,-23"/>
<polygon fill="#895956" stroke="transparent" points="433.5,-21 433.5,-23 598.5,-23 598.5,-21 433.5,-21"/>
<polygon fill="#000000" stroke="transparent" points="433.5,-19 433.5,-21 598.5,-21 598.5,-19 433.5,-19"/>
<text text-anchor="start" x="456" y="-5.8" font-family="arial" font-size="14.00"> </text>
</g>
<!-- X1&#45;&#45;W1 -->
<g id="edge1" class="edge">
<title>X1:e&#45;&#45;W1:w</title>
<path fill="none" stroke="#000000" stroke-width="2" d="M289,-203C356.83,-204.62 371.6,-224.62 433,-223"/>
<path fill="none" stroke="#ffffff" stroke-width="2" d="M289,-205C355.22,-205.81 369.99,-225.81 433,-225"/>
<path fill="none" stroke="#00ff00" stroke-width="2" d="M289,-207C353.61,-207 368.39,-227 433,-227"/>
<path fill="none" stroke="#ffffff" stroke-width="2" d="M289,-209C352.01,-208.19 366.78,-228.19 433,-229"/>
<path fill="none" stroke="#000000" stroke-width="2" d="M289,-211C350.4,-209.38 365.17,-229.38 433,-231"/>
</g>
<!-- X1&#45;&#45;W1 -->
<g id="edge3" class="edge">
<title>X1:e&#45;&#45;W1:w</title>
<path fill="none" stroke="#000000" stroke-width="2" d="M289,-180C355.99,-181.04 371.39,-195.04 433,-194"/>
<path fill="none" stroke="#00ff00" stroke-width="2" d="M289,-182C354.65,-182.52 370.04,-196.52 433,-196"/>
<path fill="none" stroke="#00ff00" stroke-width="2" d="M289,-184C353.3,-184 368.7,-198 433,-198"/>
<path fill="none" stroke="#00ff00" stroke-width="2" d="M289,-186C351.96,-185.48 367.35,-199.48 433,-200"/>
<path fill="none" stroke="#000000" stroke-width="2" d="M289,-188C350.61,-186.96 366.01,-200.96 433,-202"/>
</g>
<!-- X1&#45;&#45;W1 -->
<g id="edge5" class="edge">
<title>X1:e&#45;&#45;W1:w</title>
<path fill="none" stroke="#000000" stroke-width="2" d="M289,-157C354.91,-157.43 370.71,-165.43 433,-165"/>
<path fill="none" stroke="#ffffff" stroke-width="2" d="M289,-159C354,-159.22 369.8,-167.22 433,-167"/>
<path fill="none" stroke="#ff8000" stroke-width="2" d="M289,-161C353.1,-161 368.9,-169 433,-169"/>
<path fill="none" stroke="#ffffff" stroke-width="2" d="M289,-163C352.2,-162.78 368,-170.78 433,-171"/>
<path fill="none" stroke="#000000" stroke-width="2" d="M289,-165C351.29,-164.57 367.09,-172.57 433,-173"/>
</g>
<!-- X1&#45;&#45;W1 -->
<g id="edge7" class="edge">
<title>X1:e&#45;&#45;W1:w</title>
<path fill="none" stroke="#000000" stroke-width="2" d="M289,-133C353.75,-133.07 369.72,-136.07 433,-136"/>
<path fill="none" stroke="#0066ff" stroke-width="2" d="M289,-135C353.38,-135.03 369.36,-138.03 433,-138"/>
<path fill="none" stroke="#0066ff" stroke-width="2" d="M289,-137C353.01,-137 368.99,-140 433,-140"/>
<path fill="none" stroke="#0066ff" stroke-width="2" d="M289,-139C352.64,-138.97 368.62,-141.97 433,-142"/>
<path fill="none" stroke="#000000" stroke-width="2" d="M289,-141C352.28,-140.93 368.25,-143.93 433,-144"/>
</g>
<!-- X1&#45;&#45;W1 -->
<g id="edge9" class="edge">
<title>X1:e&#45;&#45;W1:w</title>
<path fill="none" stroke="#000000" stroke-width="2" d="M289,-110C352.28,-110.07 368.25,-107.07 433,-107"/>
<path fill="none" stroke="#ffffff" stroke-width="2" d="M289,-112C352.64,-112.03 368.62,-109.03 433,-109"/>
<path fill="none" stroke="#0066ff" stroke-width="2" d="M289,-114C353.01,-114 368.99,-111 433,-111"/>
<path fill="none" stroke="#ffffff" stroke-width="2" d="M289,-116C353.38,-115.97 369.36,-112.97 433,-113"/>
<path fill="none" stroke="#000000" stroke-width="2" d="M289,-118C353.75,-117.93 369.72,-114.93 433,-115"/>
</g>
<!-- X1&#45;&#45;W1 -->
<g id="edge11" class="edge">
<title>X1:e&#45;&#45;W1:w</title>
<path fill="none" stroke="#000000" stroke-width="2" d="M289,-87C351.14,-87.53 366.89,-78.53 433,-78"/>
<path fill="none" stroke="#ff8000" stroke-width="2" d="M289,-89C352.13,-89.26 367.88,-80.26 433,-80"/>
<path fill="none" stroke="#ff8000" stroke-width="2" d="M289,-91C353.12,-91 368.88,-82 433,-82"/>
<path fill="none" stroke="#ff8000" stroke-width="2" d="M289,-93C354.12,-92.74 369.87,-83.74 433,-84"/>
<path fill="none" stroke="#000000" stroke-width="2" d="M289,-95C355.11,-94.47 370.86,-85.47 433,-86"/>
</g>
<!-- X1&#45;&#45;W1 -->
<g id="edge13" class="edge">
<title>X1:e&#45;&#45;W1:w</title>
<path fill="none" stroke="#000000" stroke-width="2" d="M289,-64C350.55,-65.14 365.85,-50.14 433,-49"/>
<path fill="none" stroke="#ffffff" stroke-width="2" d="M289,-66C351.95,-66.57 367.25,-51.57 433,-51"/>
<path fill="none" stroke="#895956" stroke-width="2" d="M289,-68C353.35,-68 368.65,-53 433,-53"/>
<path fill="none" stroke="#ffffff" stroke-width="2" d="M289,-70C354.75,-69.43 370.05,-54.43 433,-55"/>
<path fill="none" stroke="#000000" stroke-width="2" d="M289,-72C356.15,-70.86 371.45,-55.86 433,-57"/>
</g>
<!-- X1&#45;&#45;W1 -->
<g id="edge15" class="edge">
<title>X1:e&#45;&#45;W1:w</title>
<path fill="none" stroke="#000000" stroke-width="2" d="M289,-41C350.4,-42.71 365.04,-21.71 433,-20"/>
<path fill="none" stroke="#895956" stroke-width="2" d="M289,-43C352.04,-43.86 366.68,-22.86 433,-22"/>
<path fill="none" stroke="#895956" stroke-width="2" d="M289,-45C353.68,-45 368.32,-24 433,-24"/>
<path fill="none" stroke="#895956" stroke-width="2" d="M289,-47C355.32,-46.14 369.96,-25.14 433,-26"/>
<path fill="none" stroke="#000000" stroke-width="2" d="M289,-49C356.96,-47.29 371.6,-26.29 433,-28"/>
</g>
<!-- X2 -->
<g id="node2" class="node">
<title>X2</title>
<polygon fill="white" stroke="transparent" points="1031,-278 742,-278 742,-48 1031,-48 1031,-278"/>
<polygon fill="none" stroke="black" points="742.5,-255 742.5,-278 1031.5,-278 1031.5,-255 742.5,-255"/>
<text text-anchor="start" x="878.5" y="-262.8" font-family="arial" font-size="14.00">X2</text>
<polygon fill="none" stroke="black" points="742.5,-232 742.5,-255 953.5,-255 953.5,-232 742.5,-232"/>
<text text-anchor="start" x="746.5" y="-239.8" font-family="arial" font-size="14.00">Stewart Connector SS&#45;37000&#45;002</text>
<polygon fill="none" stroke="black" points="953.5,-232 953.5,-255 992.5,-255 992.5,-232 953.5,-232"/>
<text text-anchor="start" x="957.5" y="-239.8" font-family="arial" font-size="14.00">male</text>
<polygon fill="none" stroke="black" points="992.5,-232 992.5,-255 1031.5,-255 1031.5,-232 992.5,-232"/>
<text text-anchor="start" x="996.5" y="-239.8" font-family="arial" font-size="14.00">8&#45;pin</text>
<polygon fill="none" stroke="black" points="742.5,-209 742.5,-232 877.5,-232 877.5,-209 742.5,-209"/>
<text text-anchor="start" x="806" y="-216.8" font-family="arial" font-size="14.00">1</text>
<polygon fill="none" stroke="black" points="877.5,-209 877.5,-232 1031.5,-232 1031.5,-209 877.5,-209"/>
<text text-anchor="start" x="940.5" y="-216.8" font-family="arial" font-size="14.00">DB+</text>
<polygon fill="none" stroke="black" points="742.5,-186 742.5,-209 877.5,-209 877.5,-186 742.5,-186"/>
<text text-anchor="start" x="806" y="-193.8" font-family="arial" font-size="14.00">2</text>
<polygon fill="none" stroke="black" points="877.5,-186 877.5,-209 1031.5,-209 1031.5,-186 877.5,-186"/>
<text text-anchor="start" x="942.5" y="-193.8" font-family="arial" font-size="14.00">DB&#45;</text>
<polygon fill="none" stroke="black" points="742.5,-163 742.5,-186 877.5,-186 877.5,-163 742.5,-163"/>
<text text-anchor="start" x="806" y="-170.8" font-family="arial" font-size="14.00">3</text>
<polygon fill="none" stroke="black" points="877.5,-163 877.5,-186 1031.5,-186 1031.5,-163 877.5,-163"/>
<text text-anchor="start" x="940.5" y="-170.8" font-family="arial" font-size="14.00">DA+</text>
<polygon fill="none" stroke="black" points="742.5,-140 742.5,-163 877.5,-163 877.5,-140 742.5,-140"/>
<text text-anchor="start" x="806" y="-147.8" font-family="arial" font-size="14.00">4</text>
<polygon fill="none" stroke="black" points="877.5,-140 877.5,-163 1031.5,-163 1031.5,-140 877.5,-140"/>
<text text-anchor="start" x="940.5" y="-147.8" font-family="arial" font-size="14.00">DD+</text>
<polygon fill="none" stroke="black" points="742.5,-117 742.5,-140 877.5,-140 877.5,-117 742.5,-117"/>
<text text-anchor="start" x="806" y="-124.8" font-family="arial" font-size="14.00">5</text>
<polygon fill="none" stroke="black" points="877.5,-117 877.5,-140 1031.5,-140 1031.5,-117 877.5,-117"/>
<text text-anchor="start" x="942" y="-124.8" font-family="arial" font-size="14.00">DD&#45;</text>
<polygon fill="none" stroke="black" points="742.5,-94 742.5,-117 877.5,-117 877.5,-94 742.5,-94"/>
<text text-anchor="start" x="806" y="-101.8" font-family="arial" font-size="14.00">6</text>
<polygon fill="none" stroke="black" points="877.5,-94 877.5,-117 1031.5,-117 1031.5,-94 877.5,-94"/>
<text text-anchor="start" x="942.5" y="-101.8" font-family="arial" font-size="14.00">DA&#45;</text>
<polygon fill="none" stroke="black" points="742.5,-71 742.5,-94 877.5,-94 877.5,-71 742.5,-71"/>
<text text-anchor="start" x="806" y="-78.8" font-family="arial" font-size="14.00">7</text>
<polygon fill="none" stroke="black" points="877.5,-71 877.5,-94 1031.5,-94 1031.5,-71 877.5,-71"/>
<text text-anchor="start" x="940.5" y="-78.8" font-family="arial" font-size="14.00">DC+</text>
<polygon fill="none" stroke="black" points="742.5,-48 742.5,-71 877.5,-71 877.5,-48 742.5,-48"/>
<text text-anchor="start" x="806" y="-55.8" font-family="arial" font-size="14.00">8</text>
<polygon fill="none" stroke="black" points="877.5,-48 877.5,-71 1031.5,-71 1031.5,-48 877.5,-48"/>
<text text-anchor="start" x="942" y="-55.8" font-family="arial" font-size="14.00">DC&#45;</text>
</g>
<!-- W1&#45;&#45;X2 -->
<g id="edge2" class="edge">
<title>W1:e&#45;&#45;X2:w</title>
<path fill="none" stroke="#000000" stroke-width="2" d="M598,-223C662.09,-226.4 670,-174.4 742,-171"/>
<path fill="none" stroke="#ffffff" stroke-width="2" d="M598,-225C664.07,-226.7 671.98,-174.7 742,-173"/>
<path fill="none" stroke="#00ff00" stroke-width="2" d="M598,-227C666.05,-227 673.95,-175 742,-175"/>
<path fill="none" stroke="#ffffff" stroke-width="2" d="M598,-229C668.02,-227.3 675.93,-175.3 742,-177"/>
<path fill="none" stroke="#000000" stroke-width="2" d="M598,-231C670,-227.6 677.91,-175.6 742,-179"/>
</g>
<!-- W1&#45;&#45;X2 -->
<g id="edge4" class="edge">
<title>W1:e&#45;&#45;X2:w</title>
<path fill="none" stroke="#000000" stroke-width="2" d="M598,-194C670.2,-198.36 661.83,-105.36 742,-101"/>
<path fill="none" stroke="#00ff00" stroke-width="2" d="M598,-196C672.19,-198.18 663.82,-105.18 742,-103"/>
<path fill="none" stroke="#00ff00" stroke-width="2" d="M598,-198C674.19,-198 665.81,-105 742,-105"/>
<path fill="none" stroke="#00ff00" stroke-width="2" d="M598,-200C676.18,-197.82 667.81,-104.82 742,-107"/>
<path fill="none" stroke="#000000" stroke-width="2" d="M598,-202C678.17,-197.64 669.8,-104.64 742,-109"/>
</g>
<!-- W1&#45;&#45;X2 -->
<g id="edge6" class="edge">
<title>W1:e&#45;&#45;X2:w</title>
<path fill="none" stroke="#000000" stroke-width="2" d="M598,-165C670,-168.4 677.91,-220.4 742,-217"/>
<path fill="none" stroke="#ffffff" stroke-width="2" d="M598,-167C668.02,-168.7 675.93,-220.7 742,-219"/>
<path fill="none" stroke="#ff8000" stroke-width="2" d="M598,-169C666.05,-169 673.95,-221 742,-221"/>
<path fill="none" stroke="#ffffff" stroke-width="2" d="M598,-171C664.07,-169.3 671.98,-221.3 742,-223"/>
<path fill="none" stroke="#000000" stroke-width="2" d="M598,-173C662.09,-169.6 670,-221.6 742,-225"/>
</g>
<!-- W1&#45;&#45;X2 -->
<g id="edge8" class="edge">
<title>W1:e&#45;&#45;X2:w</title>
<path fill="none" stroke="#000000" stroke-width="2" d="M598,-136C663.02,-139.59 669.02,-81.59 742,-78"/>
<path fill="none" stroke="#0066ff" stroke-width="2" d="M598,-138C665.01,-139.79 671.01,-81.79 742,-80"/>
<path fill="none" stroke="#0066ff" stroke-width="2" d="M598,-140C667,-140 673,-82 742,-82"/>
<path fill="none" stroke="#0066ff" stroke-width="2" d="M598,-142C668.99,-140.21 674.99,-82.21 742,-84"/>
<path fill="none" stroke="#000000" stroke-width="2" d="M598,-144C670.98,-140.41 676.98,-82.41 742,-86"/>
</g>
<!-- W1&#45;&#45;X2 -->
<g id="edge10" class="edge">
<title>W1:e&#45;&#45;X2:w</title>
<path fill="none" stroke="#000000" stroke-width="2" d="M598,-107C662.09,-110.4 670,-58.4 742,-55"/>
<path fill="none" stroke="#ffffff" stroke-width="2" d="M598,-109C664.07,-110.7 671.98,-58.7 742,-57"/>
<path fill="none" stroke="#0066ff" stroke-width="2" d="M598,-111C666.05,-111 673.95,-59 742,-59"/>
<path fill="none" stroke="#ffffff" stroke-width="2" d="M598,-113C668.02,-111.3 675.93,-59.3 742,-61"/>
<path fill="none" stroke="#000000" stroke-width="2" d="M598,-115C670,-111.6 677.91,-59.6 742,-63"/>
</g>
<!-- W1&#45;&#45;X2 -->
<g id="edge12" class="edge">
<title>W1:e&#45;&#45;X2:w</title>
<path fill="none" stroke="#000000" stroke-width="2" d="M598,-78C684.12,-82.69 663.76,-198.69 742,-194"/>
<path fill="none" stroke="#ff8000" stroke-width="2" d="M598,-80C682.15,-82.35 661.79,-198.35 742,-196"/>
<path fill="none" stroke="#ff8000" stroke-width="2" d="M598,-82C680.18,-82 659.82,-198 742,-198"/>
<path fill="none" stroke="#ff8000" stroke-width="2" d="M598,-84C678.21,-81.65 657.85,-197.65 742,-200"/>
<path fill="none" stroke="#000000" stroke-width="2" d="M598,-86C676.24,-81.31 655.88,-197.31 742,-202"/>
</g>
<!-- W1&#45;&#45;X2 -->
<g id="edge14" class="edge">
<title>W1:e&#45;&#45;X2:w</title>
<path fill="none" stroke="#000000" stroke-width="2" d="M598,-49C679.39,-53.44 668.56,-151.44 742,-147"/>
<path fill="none" stroke="#ffffff" stroke-width="2" d="M598,-51C677.4,-53.22 666.57,-151.22 742,-149"/>
<path fill="none" stroke="#895956" stroke-width="2" d="M598,-53C675.42,-53 664.58,-151 742,-151"/>
<path fill="none" stroke="#ffffff" stroke-width="2" d="M598,-55C673.43,-52.78 662.6,-150.78 742,-153"/>
<path fill="none" stroke="#000000" stroke-width="2" d="M598,-57C671.44,-52.56 660.61,-150.56 742,-155"/>
</g>
<!-- W1&#45;&#45;X2 -->
<g id="edge16" class="edge">
<title>W1:e&#45;&#45;X2:w</title>
<path fill="none" stroke="#000000" stroke-width="2" d="M598,-20C680.91,-24.53 667.02,-128.53 742,-124"/>
<path fill="none" stroke="#895956" stroke-width="2" d="M598,-22C678.93,-24.26 665.04,-128.26 742,-126"/>
<path fill="none" stroke="#895956" stroke-width="2" d="M598,-24C676.95,-24 663.05,-128 742,-128"/>
<path fill="none" stroke="#895956" stroke-width="2" d="M598,-26C674.96,-23.74 661.07,-127.74 742,-130"/>
<path fill="none" stroke="#000000" stroke-width="2" d="M598,-28C672.98,-23.47 659.09,-127.47 742,-132"/>
</g>
</g>
</svg>
