<?xml version="1.0" encoding="UTF-8" standalone="no"?>
<!DOCTYPE svg PUBLIC "-//W3C//DTD SVG 1.1//EN"
 "http://www.w3.org/Graphics/SVG/1.1/DTD/svg11.dtd">
<!-- Generated by graphviz version 11.0.0 (20240428.1522)
 -->
<!-- Pages: 1 -->
<svg width="1129pt" height="337pt"
 viewBox="0.00 0.00 1129.00 337.00" xmlns="http://www.w3.org/2000/svg" xmlns:xlink="http://www.w3.org/1999/xlink">
<g id="graph0" class="graph" transform="scale(1 1) rotate(0) translate(4 333)">
<polygon fill="#ffffff" stroke="none" points="-4,4 -4,-333 1125,-333 1125,4 -4,4"/>
<!-- X1 -->
<g id="node1" class="node">
<title>X1</title>
<polygon fill="#ffffff" stroke="black" points="301.5,-275 0,-275 0,-34 301.5,-34 301.5,-275"/>
<polygon fill="none" stroke="black" points="0,-250.5 0,-275 301.5,-275 301.5,-250.5 0,-250.5"/>
<text text-anchor="start" x="141.75" y="-257.7" font-family="arial" font-size="14.00">X1</text>
<polygon fill="none" stroke="black" points="0,-226 0,-250.5 223.25,-250.5 223.25,-226 0,-226"/>
<text text-anchor="start" x="4" y="-233.2" font-family="arial" font-size="14.00">Stewart Connector SS&#45;37000&#45;002</text>
<polygon fill="none" stroke="black" points="223.25,-226 223.25,-250.5 262,-250.5 262,-226 223.25,-226"/>
<text text-anchor="start" x="227.25" y="-233.2" font-family="arial" font-size="14.00">male</text>
<polygon fill="none" stroke="black" points="262,-226 262,-250.5 301.5,-250.5 301.5,-226 262,-226"/>
<text text-anchor="start" x="266" y="-233.2" font-family="arial" font-size="14.00">8&#45;pin</text>
<polygon fill="none" stroke="black" points="0,-202 0,-226 161.25,-226 161.25,-202 0,-202"/>
<text text-anchor="start" x="66.38" y="-208.7" font-family="arial" font-size="14.00">DA+</text>
<polygon fill="none" stroke="black" points="161.25,-202 161.25,-226 301.5,-226 301.5,-202 161.25,-202"/>
<text text-anchor="start" x="227.25" y="-208.7" font-family="arial" font-size="14.00">1</text>
<polygon fill="none" stroke="black" points="0,-178 0,-202 161.25,-202 161.25,-178 0,-178"/>
<text text-anchor="start" x="68.25" y="-184.7" font-family="arial" font-size="14.00">DA&#45;</text>
<polygon fill="none" stroke="black" points="161.25,-178 161.25,-202 301.5,-202 301.5,-178 161.25,-178"/>
<text text-anchor="start" x="227.25" y="-184.7" font-family="arial" font-size="14.00">2</text>
<polygon fill="none" stroke="black" points="0,-154 0,-178 161.25,-178 161.25,-154 0,-154"/>
<text text-anchor="start" x="66.38" y="-160.7" font-family="arial" font-size="14.00">DB+</text>
<polygon fill="none" stroke="black" points="161.25,-154 161.25,-178 301.5,-178 301.5,-154 161.25,-154"/>
<text text-anchor="start" x="227.25" y="-160.7" font-family="arial" font-size="14.00">3</text>
<polygon fill="none" stroke="black" points="0,-130 0,-154 161.25,-154 161.25,-130 0,-130"/>
<text text-anchor="start" x="66" y="-136.7" font-family="arial" font-size="14.00">DC+</text>
<polygon fill="none" stroke="black" points="161.25,-130 161.25,-154 301.5,-154 301.5,-130 161.25,-130"/>
<text text-anchor="start" x="227.25" y="-136.7" font-family="arial" font-size="14.00">4</text>
<polygon fill="none" stroke="black" points="0,-106 0,-130 161.25,-130 161.25,-106 0,-106"/>
<text text-anchor="start" x="67.88" y="-112.7" font-family="arial" font-size="14.00">DC&#45;</text>
<polygon fill="none" stroke="black" points="161.25,-106 161.25,-130 301.5,-130 301.5,-106 161.25,-106"/>
<text text-anchor="start" x="227.25" y="-112.7" font-family="arial" font-size="14.00">5</text>
<polygon fill="none" stroke="black" points="0,-82 0,-106 161.25,-106 161.25,-82 0,-82"/>
<text text-anchor="start" x="68.25" y="-88.7" font-family="arial" font-size="14.00">DB&#45;</text>
<polygon fill="none" stroke="black" points="161.25,-82 161.25,-106 301.5,-106 301.5,-82 161.25,-82"/>
<text text-anchor="start" x="227.25" y="-88.7" font-family="arial" font-size="14.00">6</text>
<polygon fill="none" stroke="black" points="0,-58 0,-82 161.25,-82 161.25,-58 0,-58"/>
<text text-anchor="start" x="66" y="-64.7" font-family="arial" font-size="14.00">DD+</text>
<polygon fill="none" stroke="black" points="161.25,-58 161.25,-82 301.5,-82 301.5,-58 161.25,-58"/>
<text text-anchor="start" x="227.25" y="-64.7" font-family="arial" font-size="14.00">7</text>
<polygon fill="none" stroke="black" points="0,-34 0,-58 161.25,-58 161.25,-34 0,-34"/>
<text text-anchor="start" x="67.88" y="-40.7" font-family="arial" font-size="14.00">DD&#45;</text>
<polygon fill="none" stroke="black" points="161.25,-34 161.25,-58 301.5,-58 301.5,-34 161.25,-34"/>
<text text-anchor="start" x="227.25" y="-40.7" font-family="arial" font-size="14.00">8</text>
</g>
<!-- W1 -->
<g id="node2" class="node">
<title>W1</title>
<polygon fill="#ffffff" stroke="black" points="675.5,-329 445.5,-329 445.5,0 675.5,0 675.5,-329"/>
<polygon fill="none" stroke="black" points="445.5,-304.5 445.5,-329 675.5,-329 675.5,-304.5 445.5,-304.5"/>
<text text-anchor="start" x="549.25" y="-311.7" font-family="arial" font-size="14.00">W1</text>
<polygon fill="none" stroke="black" points="445.5,-280 445.5,-304.5 513.69,-304.5 513.69,-280 445.5,-280"/>
<text text-anchor="start" x="456.72" y="-287.2" font-family="arial" font-size="14.00">CAT5e</text>
<polygon fill="none" stroke="black" points="513.69,-280 513.69,-304.5 551.12,-304.5 551.12,-280 513.69,-280"/>
<text text-anchor="start" x="524.91" y="-287.2" font-family="arial" font-size="14.00">8x</text>
<polygon fill="none" stroke="black" points="551.12,-280 551.12,-304.5 629.06,-304.5 629.06,-280 551.12,-280"/>
<text text-anchor="start" x="562.34" y="-287.2" font-family="arial" font-size="14.00">24 AWG</text>
<polygon fill="none" stroke="black" points="629.06,-280 629.06,-304.5 675.5,-304.5 675.5,-280 629.06,-280"/>
<text text-anchor="start" x="640.28" y="-287.2" font-family="arial" font-size="14.00">1 m</text>
<text text-anchor="start" x="477.12" y="-264.7" font-family="arial" font-size="14.00"> </text>
<text text-anchor="start" x="447.88" y="-244.7" font-family="arial" font-size="14.00">X1:1:DA+</text>
<text text-anchor="start" x="515.12" y="-244.7" font-family="arial" font-size="14.00"> &#160;&#160;&#160;&#160;1:WHGN &#160;&#160;&#160;</text>
<text text-anchor="start" x="610.88" y="-244.7" font-family="arial" font-size="14.00">X2:3:DA+</text>
<text text-anchor="start" x="449.75" y="-214.7" font-family="arial" font-size="14.00">X1:2:DA&#45;</text>
<text text-anchor="start" x="527.12" y="-214.7" font-family="arial" font-size="14.00"> &#160;&#160;&#160;&#160;2:GN &#160;&#160;&#160;</text>
<text text-anchor="start" x="612.75" y="-214.7" font-family="arial" font-size="14.00">X2:6:DA&#45;</text>
<text text-anchor="start" x="447.88" y="-184.7" font-family="arial" font-size="14.00">X1:3:DB+</text>
<text text-anchor="start" x="514.38" y="-184.7" font-family="arial" font-size="14.00"> &#160;&#160;&#160;&#160;3:WHOG &#160;&#160;&#160;</text>
<text text-anchor="start" x="610.88" y="-184.7" font-family="arial" font-size="14.00">X2:1:DB+</text>
<text text-anchor="start" x="447.5" y="-154.7" font-family="arial" font-size="14.00">X1:4:DC+</text>
<text text-anchor="start" x="527.88" y="-154.7" font-family="arial" font-size="14.00"> &#160;&#160;&#160;&#160;4:BU &#160;&#160;&#160;</text>
<text text-anchor="start" x="610.5" y="-154.7" font-family="arial" font-size="14.00">X2:7:DC+</text>
<text text-anchor="start" x="449.38" y="-124.7" font-family="arial" font-size="14.00">X1:5:DC&#45;</text>
<text text-anchor="start" x="515.88" y="-124.7" font-family="arial" font-size="14.00"> &#160;&#160;&#160;&#160;5:WHBU &#160;&#160;&#160;</text>
<text text-anchor="start" x="612.38" y="-124.7" font-family="arial" font-size="14.00">X2:8:DC&#45;</text>
<text text-anchor="start" x="449.75" y="-94.7" font-family="arial" font-size="14.00">X1:6:DB&#45;</text>
<text text-anchor="start" x="526.38" y="-94.7" font-family="arial" font-size="14.00"> &#160;&#160;&#160;&#160;6:OG &#160;&#160;&#160;</text>
<text text-anchor="start" x="612.75" y="-94.7" font-family="arial" font-size="14.00">X2:2:DB&#45;</text>
<text text-anchor="start" x="447.5" y="-64.7" font-family="arial" font-size="14.00">X1:7:DD+</text>
<text text-anchor="start" x="515.88" y="-64.7" font-family="arial" font-size="14.00"> &#160;&#160;&#160;&#160;7:WHBN &#160;&#160;&#160;</text>
<text text-anchor="start" x="610.5" y="-64.7" font-family="arial" font-size="14.00">X2:4:DD+</text>
<text text-anchor="start" x="449.38" y="-34.7" font-family="arial" font-size="14.00">X1:8:DD&#45;</text>
<text text-anchor="start" x="527.88" y="-34.7" font-family="arial" font-size="14.00"> &#160;&#160;&#160;&#160;8:BN &#160;&#160;&#160;</text>
<text text-anchor="start" x="612.38" y="-34.7" font-family="arial" font-size="14.00">X2:5:DD&#45;</text>
<text text-anchor="start" x="477.12" y="-4.7" font-family="arial" font-size="14.00"> </text>
</g>
<!-- X1&#45;&#45;W1 -->
<g id="edge1" class="edge">
<title>X1:e&#45;&#45;W1:w</title>
<path fill="none" stroke="#000000" stroke-width="2" d="M301.5,-210C369.46,-211.71 384.1,-232.71 445.5,-231"/>
<path fill="none" stroke="#ffffff" stroke-width="2" d="M301.5,-212C367.82,-212.86 382.46,-233.86 445.5,-233"/>
<path fill="none" stroke="#00ff00" stroke-width="2" d="M301.5,-214C366.18,-214 380.82,-235 445.5,-235"/>
<path fill="none" stroke="#ffffff" stroke-width="2" d="M301.5,-216C364.54,-215.14 379.18,-236.14 445.5,-237"/>
<path fill="none" stroke="#000000" stroke-width="2" d="M301.5,-218C362.9,-216.29 377.54,-237.29 445.5,-239"/>
</g>
<!-- X1&#45;&#45;W1 -->
<g id="edge2" class="edge">
<title>X1:e&#45;&#45;W1:w</title>
<path fill="none" stroke="#000000" stroke-width="2" d="M301.5,-186C368.65,-187.14 383.95,-202.14 445.5,-201"/>
<path fill="none" stroke="#00ff00" stroke-width="2" d="M301.5,-188C367.25,-188.57 382.55,-203.57 445.5,-203"/>
<path fill="none" stroke="#00ff00" stroke-width="2" d="M301.5,-190C365.85,-190 381.15,-205 445.5,-205"/>
<path fill="none" stroke="#00ff00" stroke-width="2" d="M301.5,-192C364.45,-191.43 379.75,-206.43 445.5,-207"/>
<path fill="none" stroke="#000000" stroke-width="2" d="M301.5,-194C363.05,-192.86 378.35,-207.86 445.5,-209"/>
</g>
<!-- X1&#45;&#45;W1 -->
<g id="edge3" class="edge">
<title>X1:e&#45;&#45;W1:w</title>
<path fill="none" stroke="#000000" stroke-width="2" d="M301.5,-162C367.6,-162.53 383.36,-171.53 445.5,-171"/>
<path fill="none" stroke="#ffffff" stroke-width="2" d="M301.5,-164C366.61,-164.26 382.37,-173.26 445.5,-173"/>
<path fill="none" stroke="#ff8000" stroke-width="2" d="M301.5,-166C365.62,-166 381.38,-175 445.5,-175"/>
<path fill="none" stroke="#ffffff" stroke-width="2" d="M301.5,-168C364.63,-167.74 380.39,-176.74 445.5,-177"/>
<path fill="none" stroke="#000000" stroke-width="2" d="M301.5,-170C363.64,-169.47 379.4,-178.47 445.5,-179"/>
</g>
<!-- X1&#45;&#45;W1 -->
<g id="edge4" class="edge">
<title>X1:e&#45;&#45;W1:w</title>
<path fill="none" stroke="#000000" stroke-width="2" d="M301.5,-138C366.25,-138.07 382.23,-141.07 445.5,-141"/>
<path fill="none" stroke="#0066ff" stroke-width="2" d="M301.5,-140C365.88,-140.03 381.86,-143.03 445.5,-143"/>
<path fill="none" stroke="#0066ff" stroke-width="2" d="M301.5,-142C365.51,-142 381.49,-145 445.5,-145"/>
<path fill="none" stroke="#0066ff" stroke-width="2" d="M301.5,-144C365.14,-143.97 381.12,-146.97 445.5,-147"/>
<path fill="none" stroke="#000000" stroke-width="2" d="M301.5,-146C364.77,-145.93 380.75,-148.93 445.5,-149"/>
</g>
<!-- X1&#45;&#45;W1 -->
<g id="edge5" class="edge">
<title>X1:e&#45;&#45;W1:w</title>
<path fill="none" stroke="#000000" stroke-width="2" d="M301.5,-114C364.77,-114.07 380.75,-111.07 445.5,-111"/>
<path fill="none" stroke="#ffffff" stroke-width="2" d="M301.5,-116C365.14,-116.03 381.12,-113.03 445.5,-113"/>
<path fill="none" stroke="#0066ff" stroke-width="2" d="M301.5,-118C365.51,-118 381.49,-115 445.5,-115"/>
<path fill="none" stroke="#ffffff" stroke-width="2" d="M301.5,-120C365.88,-119.97 381.86,-116.97 445.5,-117"/>
<path fill="none" stroke="#000000" stroke-width="2" d="M301.5,-122C366.25,-121.93 382.23,-118.93 445.5,-119"/>
</g>
<!-- X1&#45;&#45;W1 -->
<g id="edge6" class="edge">
<title>X1:e&#45;&#45;W1:w</title>
<path fill="none" stroke="#000000" stroke-width="2" d="M301.5,-90C363.64,-90.53 379.4,-81.53 445.5,-81"/>
<path fill="none" stroke="#ff8000" stroke-width="2" d="M301.5,-92C364.63,-92.26 380.39,-83.26 445.5,-83"/>
<path fill="none" stroke="#ff8000" stroke-width="2" d="M301.5,-94C365.62,-94 381.38,-85 445.5,-85"/>
<path fill="none" stroke="#ff8000" stroke-width="2" d="M301.5,-96C366.61,-95.74 382.37,-86.74 445.5,-87"/>
<path fill="none" stroke="#000000" stroke-width="2" d="M301.5,-98C367.6,-97.47 383.36,-88.47 445.5,-89"/>
</g>
<!-- X1&#45;&#45;W1 -->
<g id="edge7" class="edge">
<title>X1:e&#45;&#45;W1:w</title>
<path fill="none" stroke="#000000" stroke-width="2" d="M301.5,-66C363.05,-67.14 378.35,-52.14 445.5,-51"/>
<path fill="none" stroke="#ffffff" stroke-width="2" d="M301.5,-68C364.45,-68.57 379.75,-53.57 445.5,-53"/>
<path fill="none" stroke="#895956" stroke-width="2" d="M301.5,-70C365.85,-70 381.15,-55 445.5,-55"/>
<path fill="none" stroke="#ffffff" stroke-width="2" d="M301.5,-72C367.25,-71.43 382.55,-56.43 445.5,-57"/>
<path fill="none" stroke="#000000" stroke-width="2" d="M301.5,-74C368.65,-72.86 383.95,-57.86 445.5,-59"/>
</g>
<!-- X1&#45;&#45;W1 -->
<g id="edge8" class="edge">
<title>X1:e&#45;&#45;W1:w</title>
<path fill="none" stroke="#000000" stroke-width="2" d="M301.5,-42C362.9,-43.71 377.54,-22.71 445.5,-21"/>
<path fill="none" stroke="#895956" stroke-width="2" d="M301.5,-44C364.54,-44.86 379.18,-23.86 445.5,-23"/>
<path fill="none" stroke="#895956" stroke-width="2" d="M301.5,-46C366.18,-46 380.82,-25 445.5,-25"/>
<path fill="none" stroke="#895956" stroke-width="2" d="M301.5,-48C367.82,-47.14 382.46,-26.14 445.5,-27"/>
<path fill="none" stroke="#000000" stroke-width="2" d="M301.5,-50C369.46,-48.29 384.1,-27.29 445.5,-29"/>
</g>
<!-- W1&#45;&#45;W1 -->
<g id="edge9" class="edge">
<title>W1:w&#45;&#45;W1:e</title>
<path fill="none" stroke="#000000" stroke-width="2" d="M445.5,-231C522.17,-231 598.83,-231 675.5,-231"/>
<path fill="none" stroke="#ffffff" stroke-width="2" d="M445.5,-233C522.17,-233 598.83,-233 675.5,-233"/>
<path fill="none" stroke="#00ff00" stroke-width="2" d="M445.5,-235C522.17,-235 598.83,-235 675.5,-235"/>
<path fill="none" stroke="#ffffff" stroke-width="2" d="M445.5,-237C522.17,-237 598.83,-237 675.5,-237"/>
<path fill="none" stroke="#000000" stroke-width="2" d="M445.5,-239C522.17,-239 598.83,-239 675.5,-239"/>
</g>
<!-- W1&#45;&#45;W1 -->
<g id="edge10" class="edge">
<title>W1:w&#45;&#45;W1:e</title>
<path fill="none" stroke="#000000" stroke-width="2" d="M445.5,-201C522.17,-201 598.83,-201 675.5,-201"/>
<path fill="none" stroke="#00ff00" stroke-width="2" d="M445.5,-203C522.17,-203 598.83,-203 675.5,-203"/>
<path fill="none" stroke="#00ff00" stroke-width="2" d="M445.5,-205C522.17,-205 598.83,-205 675.5,-205"/>
<path fill="none" stroke="#00ff00" stroke-width="2" d="M445.5,-207C522.17,-207 598.83,-207 675.5,-207"/>
<path fill="none" stroke="#000000" stroke-width="2" d="M445.5,-209C522.17,-209 598.83,-209 675.5,-209"/>
</g>
<!-- W1&#45;&#45;W1 -->
<g id="edge11" class="edge">
<title>W1:w&#45;&#45;W1:e</title>
<path fill="none" stroke="#000000" stroke-width="2" d="M445.5,-171C522.17,-171 598.83,-171 675.5,-171"/>
<path fill="none" stroke="#ffffff" stroke-width="2" d="M445.5,-173C522.17,-173 598.83,-173 675.5,-173"/>
<path fill="none" stroke="#ff8000" stroke-width="2" d="M445.5,-175C522.17,-175 598.83,-175 675.5,-175"/>
<path fill="none" stroke="#ffffff" stroke-width="2" d="M445.5,-177C522.17,-177 598.83,-177 675.5,-177"/>
<path fill="none" stroke="#000000" stroke-width="2" d="M445.5,-179C522.17,-179 598.83,-179 675.5,-179"/>
</g>
<!-- W1&#45;&#45;W1 -->
<g id="edge12" class="edge">
<title>W1:w&#45;&#45;W1:e</title>
<path fill="none" stroke="#000000" stroke-width="2" d="M445.5,-141C522.17,-141 598.83,-141 675.5,-141"/>
<path fill="none" stroke="#0066ff" stroke-width="2" d="M445.5,-143C522.17,-143 598.83,-143 675.5,-143"/>
<path fill="none" stroke="#0066ff" stroke-width="2" d="M445.5,-145C522.17,-145 598.83,-145 675.5,-145"/>
<path fill="none" stroke="#0066ff" stroke-width="2" d="M445.5,-147C522.17,-147 598.83,-147 675.5,-147"/>
<path fill="none" stroke="#000000" stroke-width="2" d="M445.5,-149C522.17,-149 598.83,-149 675.5,-149"/>
</g>
<!-- W1&#45;&#45;W1 -->
<g id="edge13" class="edge">
<title>W1:w&#45;&#45;W1:e</title>
<path fill="none" stroke="#000000" stroke-width="2" d="M445.5,-111C522.17,-111 598.83,-111 675.5,-111"/>
<path fill="none" stroke="#ffffff" stroke-width="2" d="M445.5,-113C522.17,-113 598.83,-113 675.5,-113"/>
<path fill="none" stroke="#0066ff" stroke-width="2" d="M445.5,-115C522.17,-115 598.83,-115 675.5,-115"/>
<path fill="none" stroke="#ffffff" stroke-width="2" d="M445.5,-117C522.17,-117 598.83,-117 675.5,-117"/>
<path fill="none" stroke="#000000" stroke-width="2" d="M445.5,-119C522.17,-119 598.83,-119 675.5,-119"/>
</g>
<!-- W1&#45;&#45;W1 -->
<g id="edge14" class="edge">
<title>W1:w&#45;&#45;W1:e</title>
<path fill="none" stroke="#000000" stroke-width="2" d="M445.5,-81C522.17,-81 598.83,-81 675.5,-81"/>
<path fill="none" stroke="#ff8000" stroke-width="2" d="M445.5,-83C522.17,-83 598.83,-83 675.5,-83"/>
<path fill="none" stroke="#ff8000" stroke-width="2" d="M445.5,-85C522.17,-85 598.83,-85 675.5,-85"/>
<path fill="none" stroke="#ff8000" stroke-width="2" d="M445.5,-87C522.17,-87 598.83,-87 675.5,-87"/>
<path fill="none" stroke="#000000" stroke-width="2" d="M445.5,-89C522.17,-89 598.83,-89 675.5,-89"/>
</g>
<!-- W1&#45;&#45;W1 -->
<g id="edge15" class="edge">
<title>W1:w&#45;&#45;W1:e</title>
<path fill="none" stroke="#000000" stroke-width="2" d="M445.5,-51C522.17,-51 598.83,-51 675.5,-51"/>
<path fill="none" stroke="#ffffff" stroke-width="2" d="M445.5,-53C522.17,-53 598.83,-53 675.5,-53"/>
<path fill="none" stroke="#895956" stroke-width="2" d="M445.5,-55C522.17,-55 598.83,-55 675.5,-55"/>
<path fill="none" stroke="#ffffff" stroke-width="2" d="M445.5,-57C522.17,-57 598.83,-57 675.5,-57"/>
<path fill="none" stroke="#000000" stroke-width="2" d="M445.5,-59C522.17,-59 598.83,-59 675.5,-59"/>
</g>
<!-- W1&#45;&#45;W1 -->
<g id="edge16" class="edge">
<title>W1:w&#45;&#45;W1:e</title>
<path fill="none" stroke="#000000" stroke-width="2" d="M445.5,-21C522.17,-21 598.83,-21 675.5,-21"/>
<path fill="none" stroke="#895956" stroke-width="2" d="M445.5,-23C522.17,-23 598.83,-23 675.5,-23"/>
<path fill="none" stroke="#895956" stroke-width="2" d="M445.5,-25C522.17,-25 598.83,-25 675.5,-25"/>
<path fill="none" stroke="#895956" stroke-width="2" d="M445.5,-27C522.17,-27 598.83,-27 675.5,-27"/>
<path fill="none" stroke="#000000" stroke-width="2" d="M445.5,-29C522.17,-29 598.83,-29 675.5,-29"/>
</g>
<!-- X2 -->
<g id="node3" class="node">
<title>X2</title>
<polygon fill="#ffffff" stroke="black" points="1121,-290 819.5,-290 819.5,-49 1121,-49 1121,-290"/>
<polygon fill="none" stroke="black" points="819.5,-265.5 819.5,-290 1121,-290 1121,-265.5 819.5,-265.5"/>
<text text-anchor="start" x="961.25" y="-272.7" font-family="arial" font-size="14.00">X2</text>
<polygon fill="none" stroke="black" points="819.5,-241 819.5,-265.5 1042.75,-265.5 1042.75,-241 819.5,-241"/>
<text text-anchor="start" x="823.5" y="-248.2" font-family="arial" font-size="14.00">Stewart Connector SS&#45;37000&#45;002</text>
<polygon fill="none" stroke="black" points="1042.75,-241 1042.75,-265.5 1081.5,-265.5 1081.5,-241 1042.75,-241"/>
<text text-anchor="start" x="1046.75" y="-248.2" font-family="arial" font-size="14.00">male</text>
<polygon fill="none" stroke="black" points="1081.5,-241 1081.5,-265.5 1121,-265.5 1121,-241 1081.5,-241"/>
<text text-anchor="start" x="1085.5" y="-248.2" font-family="arial" font-size="14.00">8&#45;pin</text>
<polygon fill="none" stroke="black" points="819.5,-217 819.5,-241 959.75,-241 959.75,-217 819.5,-217"/>
<text text-anchor="start" x="885.5" y="-223.7" font-family="arial" font-size="14.00">1</text>
<polygon fill="none" stroke="black" points="959.75,-217 959.75,-241 1121,-241 1121,-217 959.75,-217"/>
<text text-anchor="start" x="1026.12" y="-223.7" font-family="arial" font-size="14.00">DB+</text>
<polygon fill="none" stroke="black" points="819.5,-193 819.5,-217 959.75,-217 959.75,-193 819.5,-193"/>
<text text-anchor="start" x="885.5" y="-199.7" font-family="arial" font-size="14.00">2</text>
<polygon fill="none" stroke="black" points="959.75,-193 959.75,-217 1121,-217 1121,-193 959.75,-193"/>
<text text-anchor="start" x="1028" y="-199.7" font-family="arial" font-size="14.00">DB&#45;</text>
<polygon fill="none" stroke="black" points="819.5,-169 819.5,-193 959.75,-193 959.75,-169 819.5,-169"/>
<text text-anchor="start" x="885.5" y="-175.7" font-family="arial" font-size="14.00">3</text>
<polygon fill="none" stroke="black" points="959.75,-169 959.75,-193 1121,-193 1121,-169 959.75,-169"/>
<text text-anchor="start" x="1026.12" y="-175.7" font-family="arial" font-size="14.00">DA+</text>
<polygon fill="none" stroke="black" points="819.5,-145 819.5,-169 959.75,-169 959.75,-145 819.5,-145"/>
<text text-anchor="start" x="885.5" y="-151.7" font-family="arial" font-size="14.00">4</text>
<polygon fill="none" stroke="black" points="959.75,-145 959.75,-169 1121,-169 1121,-145 959.75,-145"/>
<text text-anchor="start" x="1025.75" y="-151.7" font-family="arial" font-size="14.00">DD+</text>
<polygon fill="none" stroke="black" points="819.5,-121 819.5,-145 959.75,-145 959.75,-121 819.5,-121"/>
<text text-anchor="start" x="885.5" y="-127.7" font-family="arial" font-size="14.00">5</text>
<polygon fill="none" stroke="black" points="959.75,-121 959.75,-145 1121,-145 1121,-121 959.75,-121"/>
<text text-anchor="start" x="1027.62" y="-127.7" font-family="arial" font-size="14.00">DD&#45;</text>
<polygon fill="none" stroke="black" points="819.5,-97 819.5,-121 959.75,-121 959.75,-97 819.5,-97"/>
<text text-anchor="start" x="885.5" y="-103.7" font-family="arial" font-size="14.00">6</text>
<polygon fill="none" stroke="black" points="959.75,-97 959.75,-121 1121,-121 1121,-97 959.75,-97"/>
<text text-anchor="start" x="1028" y="-103.7" font-family="arial" font-size="14.00">DA&#45;</text>
<polygon fill="none" stroke="black" points="819.5,-73 819.5,-97 959.75,-97 959.75,-73 819.5,-73"/>
<text text-anchor="start" x="885.5" y="-79.7" font-family="arial" font-size="14.00">7</text>
<polygon fill="none" stroke="black" points="959.75,-73 959.75,-97 1121,-97 1121,-73 959.75,-73"/>
<text text-anchor="start" x="1025.75" y="-79.7" font-family="arial" font-size="14.00">DC+</text>
<polygon fill="none" stroke="black" points="819.5,-49 819.5,-73 959.75,-73 959.75,-49 819.5,-49"/>
<text text-anchor="start" x="885.5" y="-55.7" font-family="arial" font-size="14.00">8</text>
<polygon fill="none" stroke="black" points="959.75,-49 959.75,-73 1121,-73 1121,-49 959.75,-49"/>
<text text-anchor="start" x="1027.62" y="-55.7" font-family="arial" font-size="14.00">DC&#45;</text>
</g>
<!-- W1&#45;&#45;X2 -->
<g id="edge17" class="edge">
<title>W1:e&#45;&#45;X2:w</title>
<path fill="none" stroke="#000000" stroke-width="2" d="M675.5,-231C739.89,-234.46 747.19,-180.46 819.5,-177"/>
<path fill="none" stroke="#ffffff" stroke-width="2" d="M675.5,-233C741.87,-234.73 749.17,-180.73 819.5,-179"/>
<path fill="none" stroke="#00ff00" stroke-width="2" d="M675.5,-235C743.85,-235 751.15,-181 819.5,-181"/>
<path fill="none" stroke="#ffffff" stroke-width="2" d="M675.5,-237C745.83,-235.27 753.13,-181.27 819.5,-183"/>
<path fill="none" stroke="#000000" stroke-width="2" d="M675.5,-239C747.81,-235.54 755.11,-181.54 819.5,-185"/>
</g>
<!-- W1&#45;&#45;X2 -->
<g id="edge18" class="edge">
<title>W1:e&#45;&#45;X2:w</title>
<path fill="none" stroke="#000000" stroke-width="2" d="M675.5,-201C748.44,-205.41 738.6,-109.41 819.5,-105"/>
<path fill="none" stroke="#00ff00" stroke-width="2" d="M675.5,-203C750.43,-205.2 740.59,-109.2 819.5,-107"/>
<path fill="none" stroke="#00ff00" stroke-width="2" d="M675.5,-205C752.42,-205 742.58,-109 819.5,-109"/>
<path fill="none" stroke="#00ff00" stroke-width="2" d="M675.5,-207C754.41,-204.8 744.57,-108.8 819.5,-111"/>
<path fill="none" stroke="#000000" stroke-width="2" d="M675.5,-209C756.4,-204.59 746.56,-108.59 819.5,-113"/>
</g>
<!-- W1&#45;&#45;X2 -->
<g id="edge19" class="edge">
<title>W1:e&#45;&#45;X2:w</title>
<path fill="none" stroke="#000000" stroke-width="2" d="M675.5,-171C747.81,-174.46 755.11,-228.46 819.5,-225"/>
<path fill="none" stroke="#ffffff" stroke-width="2" d="M675.5,-173C745.83,-174.73 753.13,-228.73 819.5,-227"/>
<path fill="none" stroke="#ff8000" stroke-width="2" d="M675.5,-175C743.85,-175 751.15,-229 819.5,-229"/>
<path fill="none" stroke="#ffffff" stroke-width="2" d="M675.5,-177C741.87,-175.27 749.17,-229.27 819.5,-231"/>
<path fill="none" stroke="#000000" stroke-width="2" d="M675.5,-179C739.89,-175.54 747.19,-229.54 819.5,-233"/>
</g>
<!-- W1&#45;&#45;X2 -->
<g id="edge20" class="edge">
<title>W1:e&#45;&#45;X2:w</title>
<path fill="none" stroke="#000000" stroke-width="2" d="M675.5,-141C740.85,-144.65 746.19,-84.65 819.5,-81"/>
<path fill="none" stroke="#0066ff" stroke-width="2" d="M675.5,-143C742.84,-144.82 748.18,-84.82 819.5,-83"/>
<path fill="none" stroke="#0066ff" stroke-width="2" d="M675.5,-145C744.83,-145 750.17,-85 819.5,-85"/>
<path fill="none" stroke="#0066ff" stroke-width="2" d="M675.5,-147C746.82,-145.18 752.16,-85.18 819.5,-87"/>
<path fill="none" stroke="#000000" stroke-width="2" d="M675.5,-149C748.81,-145.35 754.15,-85.35 819.5,-89"/>
</g>
<!-- W1&#45;&#45;X2 -->
<g id="edge21" class="edge">
<title>W1:e&#45;&#45;X2:w</title>
<path fill="none" stroke="#000000" stroke-width="2" d="M675.5,-111C739.89,-114.46 747.19,-60.46 819.5,-57"/>
<path fill="none" stroke="#ffffff" stroke-width="2" d="M675.5,-113C741.87,-114.73 749.17,-60.73 819.5,-59"/>
<path fill="none" stroke="#0066ff" stroke-width="2" d="M675.5,-115C743.85,-115 751.15,-61 819.5,-61"/>
<path fill="none" stroke="#ffffff" stroke-width="2" d="M675.5,-117C745.83,-115.27 753.13,-61.27 819.5,-63"/>
<path fill="none" stroke="#000000" stroke-width="2" d="M675.5,-119C747.81,-115.54 755.11,-61.54 819.5,-65"/>
</g>
<!-- W1&#45;&#45;X2 -->
<g id="edge22" class="edge">
<title>W1:e&#45;&#45;X2:w</title>
<path fill="none" stroke="#000000" stroke-width="2" d="M675.5,-81C762.74,-85.74 740.12,-205.74 819.5,-201"/>
<path fill="none" stroke="#ff8000" stroke-width="2" d="M675.5,-83C760.78,-85.37 738.16,-205.37 819.5,-203"/>
<path fill="none" stroke="#ff8000" stroke-width="2" d="M675.5,-85C758.81,-85 736.19,-205 819.5,-205"/>
<path fill="none" stroke="#ff8000" stroke-width="2" d="M675.5,-87C756.84,-84.63 734.22,-204.63 819.5,-207"/>
<path fill="none" stroke="#000000" stroke-width="2" d="M675.5,-89C754.88,-84.26 732.26,-204.26 819.5,-209"/>
</g>
<!-- W1&#45;&#45;X2 -->
<g id="edge23" class="edge">
<title>W1:e&#45;&#45;X2:w</title>
<path fill="none" stroke="#000000" stroke-width="2" d="M675.5,-51C757.9,-55.5 745.04,-157.5 819.5,-153"/>
<path fill="none" stroke="#ffffff" stroke-width="2" d="M675.5,-53C755.91,-55.25 743.05,-157.25 819.5,-155"/>
<path fill="none" stroke="#895956" stroke-width="2" d="M675.5,-55C753.93,-55 741.07,-157 819.5,-157"/>
<path fill="none" stroke="#ffffff" stroke-width="2" d="M675.5,-57C751.95,-54.75 739.09,-156.75 819.5,-159"/>
<path fill="none" stroke="#000000" stroke-width="2" d="M675.5,-59C749.96,-54.5 737.1,-156.5 819.5,-161"/>
</g>
<!-- W1&#45;&#45;X2 -->
<g id="edge24" class="edge">
<title>W1:e&#45;&#45;X2:w</title>
<path fill="none" stroke="#000000" stroke-width="2" d="M675.5,-21C759.46,-25.59 743.46,-133.59 819.5,-129"/>
<path fill="none" stroke="#895956" stroke-width="2" d="M675.5,-23C757.48,-25.29 741.48,-133.29 819.5,-131"/>
<path fill="none" stroke="#895956" stroke-width="2" d="M675.5,-25C755.5,-25 739.5,-133 819.5,-133"/>
<path fill="none" stroke="#895956" stroke-width="2" d="M675.5,-27C753.52,-24.71 737.52,-132.71 819.5,-135"/>
<path fill="none" stroke="#000000" stroke-width="2" d="M675.5,-29C751.54,-24.41 735.54,-132.41 819.5,-137"/>
</g>
</g>
</svg>
