<?xml version="1.0" encoding="UTF-8" standalone="no"?>
<!DOCTYPE svg PUBLIC "-//W3C//DTD SVG 1.1//EN"
 "http://www.w3.org/Graphics/SVG/1.1/DTD/svg11.dtd">
<!-- Generated by graphviz version 7.1.0 (20230121.1956)
 -->
<!-- Pages: 1 -->
<svg width="1097pt" height="324pt"
 viewBox="0.00 0.00 1097.00 324.00" xmlns="http://www.w3.org/2000/svg" xmlns:xlink="http://www.w3.org/1999/xlink">
<g id="graph0" class="graph" transform="scale(1 1) rotate(0) translate(4 320)">
<polygon fill="#ffffff" stroke="none" points="-4,4 -4,-320 1093,-320 1093,4 -4,4"/>
<!-- X1 -->
<g id="node1" class="node">
<title>X1</title>
<polygon fill="#ffffff" stroke="black" points="289,-264 0,-264 0,-34 289,-34 289,-264"/>
<polygon fill="none" stroke="black" points="0.5,-241 0.5,-264 289.5,-264 289.5,-241 0.5,-241"/>
<text text-anchor="start" x="136.5" y="-248.8" font-family="arial" font-size="14.00">X1</text>
<polygon fill="none" stroke="black" points="0.5,-218 0.5,-241 211.5,-241 211.5,-218 0.5,-218"/>
<text text-anchor="start" x="4.5" y="-225.8" font-family="arial" font-size="14.00">Stewart Connector SS&#45;37000&#45;002</text>
<polygon fill="none" stroke="black" points="211.5,-218 211.5,-241 250.5,-241 250.5,-218 211.5,-218"/>
<text text-anchor="start" x="215.5" y="-225.8" font-family="arial" font-size="14.00">male</text>
<polygon fill="none" stroke="black" points="250.5,-218 250.5,-241 289.5,-241 289.5,-218 250.5,-218"/>
<text text-anchor="start" x="254.5" y="-225.8" font-family="arial" font-size="14.00">8&#45;pin</text>
<polygon fill="none" stroke="black" points="0.5,-195 0.5,-218 155.5,-218 155.5,-195 0.5,-195"/>
<text text-anchor="start" x="64" y="-202.8" font-family="arial" font-size="14.00">DA+</text>
<polygon fill="none" stroke="black" points="155.5,-195 155.5,-218 289.5,-218 289.5,-195 155.5,-195"/>
<text text-anchor="start" x="218.5" y="-202.8" font-family="arial" font-size="14.00">1</text>
<polygon fill="none" stroke="black" points="0.5,-172 0.5,-195 155.5,-195 155.5,-172 0.5,-172"/>
<text text-anchor="start" x="66" y="-179.8" font-family="arial" font-size="14.00">DA&#45;</text>
<polygon fill="none" stroke="black" points="155.5,-172 155.5,-195 289.5,-195 289.5,-172 155.5,-172"/>
<text text-anchor="start" x="218.5" y="-179.8" font-family="arial" font-size="14.00">2</text>
<polygon fill="none" stroke="black" points="0.5,-149 0.5,-172 155.5,-172 155.5,-149 0.5,-149"/>
<text text-anchor="start" x="64" y="-156.8" font-family="arial" font-size="14.00">DB+</text>
<polygon fill="none" stroke="black" points="155.5,-149 155.5,-172 289.5,-172 289.5,-149 155.5,-149"/>
<text text-anchor="start" x="218.5" y="-156.8" font-family="arial" font-size="14.00">3</text>
<polygon fill="none" stroke="black" points="0.5,-126 0.5,-149 155.5,-149 155.5,-126 0.5,-126"/>
<text text-anchor="start" x="64" y="-133.8" font-family="arial" font-size="14.00">DC+</text>
<polygon fill="none" stroke="black" points="155.5,-126 155.5,-149 289.5,-149 289.5,-126 155.5,-126"/>
<text text-anchor="start" x="218.5" y="-133.8" font-family="arial" font-size="14.00">4</text>
<polygon fill="none" stroke="black" points="0.5,-103 0.5,-126 155.5,-126 155.5,-103 0.5,-103"/>
<text text-anchor="start" x="65.5" y="-110.8" font-family="arial" font-size="14.00">DC&#45;</text>
<polygon fill="none" stroke="black" points="155.5,-103 155.5,-126 289.5,-126 289.5,-103 155.5,-103"/>
<text text-anchor="start" x="218.5" y="-110.8" font-family="arial" font-size="14.00">5</text>
<polygon fill="none" stroke="black" points="0.5,-80 0.5,-103 155.5,-103 155.5,-80 0.5,-80"/>
<text text-anchor="start" x="66" y="-87.8" font-family="arial" font-size="14.00">DB&#45;</text>
<polygon fill="none" stroke="black" points="155.5,-80 155.5,-103 289.5,-103 289.5,-80 155.5,-80"/>
<text text-anchor="start" x="218.5" y="-87.8" font-family="arial" font-size="14.00">6</text>
<polygon fill="none" stroke="black" points="0.5,-57 0.5,-80 155.5,-80 155.5,-57 0.5,-57"/>
<text text-anchor="start" x="64" y="-64.8" font-family="arial" font-size="14.00">DD+</text>
<polygon fill="none" stroke="black" points="155.5,-57 155.5,-80 289.5,-80 289.5,-57 155.5,-57"/>
<text text-anchor="start" x="218.5" y="-64.8" font-family="arial" font-size="14.00">7</text>
<polygon fill="none" stroke="black" points="0.5,-34 0.5,-57 155.5,-57 155.5,-34 0.5,-34"/>
<text text-anchor="start" x="65.5" y="-41.8" font-family="arial" font-size="14.00">DD&#45;</text>
<polygon fill="none" stroke="black" points="155.5,-34 155.5,-57 289.5,-57 289.5,-34 155.5,-34"/>
<text text-anchor="start" x="218.5" y="-41.8" font-family="arial" font-size="14.00">8</text>
</g>
<!-- W1 -->
<g id="node3" class="node">
<title>W1</title>
<polygon fill="#ffffff" stroke="black" points="656,-316 433,-316 433,0 656,0 656,-316"/>
<polygon fill="none" stroke="black" points="433.5,-293 433.5,-316 656.5,-316 656.5,-293 433.5,-293"/>
<text text-anchor="start" x="534" y="-300.8" font-family="arial" font-size="14.00">W1</text>
<polygon fill="none" stroke="black" points="433.5,-270 433.5,-293 498.5,-293 498.5,-270 433.5,-270"/>
<text text-anchor="start" x="445" y="-277.8" font-family="arial" font-size="14.00">CAT5e</text>
<polygon fill="none" stroke="black" points="498.5,-270 498.5,-293 536.5,-293 536.5,-270 498.5,-270"/>
<text text-anchor="start" x="510" y="-277.8" font-family="arial" font-size="14.00">8x</text>
<polygon fill="none" stroke="black" points="536.5,-270 536.5,-293 610.5,-293 610.5,-270 536.5,-270"/>
<text text-anchor="start" x="547.5" y="-277.8" font-family="arial" font-size="14.00">24 AWG</text>
<polygon fill="none" stroke="black" points="610.5,-270 610.5,-293 656.5,-293 656.5,-270 610.5,-270"/>
<text text-anchor="start" x="621.5" y="-277.8" font-family="arial" font-size="14.00">1 m</text>
<text text-anchor="start" x="463.5" y="-256.8" font-family="arial" font-size="14.00"> </text>
<text text-anchor="start" x="436" y="-237.8" font-family="arial" font-size="14.00">X1:1:DA+</text>
<text text-anchor="start" x="500" y="-237.8" font-family="arial" font-size="14.00"> &#160;&#160;&#160;&#160;1:WHGN &#160;&#160;&#160;</text>
<text text-anchor="start" x="595" y="-237.8" font-family="arial" font-size="14.00">X2:3:DA+</text>
<polygon fill="#000000" stroke="none" points="433.5,-230 433.5,-232 656.5,-232 656.5,-230 433.5,-230"/>
<polygon fill="#ffffff" stroke="none" points="433.5,-228 433.5,-230 656.5,-230 656.5,-228 433.5,-228"/>
<polygon fill="#00ff00" stroke="none" points="433.5,-226 433.5,-228 656.5,-228 656.5,-226 433.5,-226"/>
<polygon fill="#ffffff" stroke="none" points="433.5,-224 433.5,-226 656.5,-226 656.5,-224 433.5,-224"/>
<polygon fill="#000000" stroke="none" points="433.5,-222 433.5,-224 656.5,-224 656.5,-222 433.5,-222"/>
<text text-anchor="start" x="438" y="-208.8" font-family="arial" font-size="14.00">X1:2:DA&#45;</text>
<text text-anchor="start" x="511.5" y="-208.8" font-family="arial" font-size="14.00"> &#160;&#160;&#160;&#160;2:GN &#160;&#160;&#160;</text>
<text text-anchor="start" x="597" y="-208.8" font-family="arial" font-size="14.00">X2:6:DA&#45;</text>
<polygon fill="#000000" stroke="none" points="433.5,-201 433.5,-203 656.5,-203 656.5,-201 433.5,-201"/>
<polygon fill="#00ff00" stroke="none" points="433.5,-199 433.5,-201 656.5,-201 656.5,-199 433.5,-199"/>
<polygon fill="#00ff00" stroke="none" points="433.5,-197 433.5,-199 656.5,-199 656.5,-197 433.5,-197"/>
<polygon fill="#00ff00" stroke="none" points="433.5,-195 433.5,-197 656.5,-197 656.5,-195 433.5,-195"/>
<polygon fill="#000000" stroke="none" points="433.5,-193 433.5,-195 656.5,-195 656.5,-193 433.5,-193"/>
<text text-anchor="start" x="436" y="-179.8" font-family="arial" font-size="14.00">X1:3:DB+</text>
<text text-anchor="start" x="499.5" y="-179.8" font-family="arial" font-size="14.00"> &#160;&#160;&#160;&#160;3:WHOG &#160;&#160;&#160;</text>
<text text-anchor="start" x="595" y="-179.8" font-family="arial" font-size="14.00">X2:1:DB+</text>
<polygon fill="#000000" stroke="none" points="433.5,-172 433.5,-174 656.5,-174 656.5,-172 433.5,-172"/>
<polygon fill="#ffffff" stroke="none" points="433.5,-170 433.5,-172 656.5,-172 656.5,-170 433.5,-170"/>
<polygon fill="#ff8000" stroke="none" points="433.5,-168 433.5,-170 656.5,-170 656.5,-168 433.5,-168"/>
<polygon fill="#ffffff" stroke="none" points="433.5,-166 433.5,-168 656.5,-168 656.5,-166 433.5,-166"/>
<polygon fill="#000000" stroke="none" points="433.5,-164 433.5,-166 656.5,-166 656.5,-164 433.5,-164"/>
<text text-anchor="start" x="435.5" y="-150.8" font-family="arial" font-size="14.00">X1:4:DC+</text>
<text text-anchor="start" x="513" y="-150.8" font-family="arial" font-size="14.00"> &#160;&#160;&#160;&#160;4:BU &#160;&#160;&#160;</text>
<text text-anchor="start" x="594.5" y="-150.8" font-family="arial" font-size="14.00">X2:7:DC+</text>
<polygon fill="#000000" stroke="none" points="433.5,-143 433.5,-145 656.5,-145 656.5,-143 433.5,-143"/>
<polygon fill="#0066ff" stroke="none" points="433.5,-141 433.5,-143 656.5,-143 656.5,-141 433.5,-141"/>
<polygon fill="#0066ff" stroke="none" points="433.5,-139 433.5,-141 656.5,-141 656.5,-139 433.5,-139"/>
<polygon fill="#0066ff" stroke="none" points="433.5,-137 433.5,-139 656.5,-139 656.5,-137 433.5,-137"/>
<polygon fill="#000000" stroke="none" points="433.5,-135 433.5,-137 656.5,-137 656.5,-135 433.5,-135"/>
<text text-anchor="start" x="437.5" y="-121.8" font-family="arial" font-size="14.00">X1:5:DC&#45;</text>
<text text-anchor="start" x="501" y="-121.8" font-family="arial" font-size="14.00"> &#160;&#160;&#160;&#160;5:WHBU &#160;&#160;&#160;</text>
<text text-anchor="start" x="596.5" y="-121.8" font-family="arial" font-size="14.00">X2:8:DC&#45;</text>
<polygon fill="#000000" stroke="none" points="433.5,-114 433.5,-116 656.5,-116 656.5,-114 433.5,-114"/>
<polygon fill="#ffffff" stroke="none" points="433.5,-112 433.5,-114 656.5,-114 656.5,-112 433.5,-112"/>
<polygon fill="#0066ff" stroke="none" points="433.5,-110 433.5,-112 656.5,-112 656.5,-110 433.5,-110"/>
<polygon fill="#ffffff" stroke="none" points="433.5,-108 433.5,-110 656.5,-110 656.5,-108 433.5,-108"/>
<polygon fill="#000000" stroke="none" points="433.5,-106 433.5,-108 656.5,-108 656.5,-106 433.5,-106"/>
<text text-anchor="start" x="438" y="-92.8" font-family="arial" font-size="14.00">X1:6:DB&#45;</text>
<text text-anchor="start" x="511" y="-92.8" font-family="arial" font-size="14.00"> &#160;&#160;&#160;&#160;6:OG &#160;&#160;&#160;</text>
<text text-anchor="start" x="597" y="-92.8" font-family="arial" font-size="14.00">X2:2:DB&#45;</text>
<polygon fill="#000000" stroke="none" points="433.5,-85 433.5,-87 656.5,-87 656.5,-85 433.5,-85"/>
<polygon fill="#ff8000" stroke="none" points="433.5,-83 433.5,-85 656.5,-85 656.5,-83 433.5,-83"/>
<polygon fill="#ff8000" stroke="none" points="433.5,-81 433.5,-83 656.5,-83 656.5,-81 433.5,-81"/>
<polygon fill="#ff8000" stroke="none" points="433.5,-79 433.5,-81 656.5,-81 656.5,-79 433.5,-79"/>
<polygon fill="#000000" stroke="none" points="433.5,-77 433.5,-79 656.5,-79 656.5,-77 433.5,-77"/>
<text text-anchor="start" x="435.5" y="-63.8" font-family="arial" font-size="14.00">X1:7:DD+</text>
<text text-anchor="start" x="501" y="-63.8" font-family="arial" font-size="14.00"> &#160;&#160;&#160;&#160;7:WHBN &#160;&#160;&#160;</text>
<text text-anchor="start" x="594.5" y="-63.8" font-family="arial" font-size="14.00">X2:4:DD+</text>
<polygon fill="#000000" stroke="none" points="433.5,-56 433.5,-58 656.5,-58 656.5,-56 433.5,-56"/>
<polygon fill="#ffffff" stroke="none" points="433.5,-54 433.5,-56 656.5,-56 656.5,-54 433.5,-54"/>
<polygon fill="#895956" stroke="none" points="433.5,-52 433.5,-54 656.5,-54 656.5,-52 433.5,-52"/>
<polygon fill="#ffffff" stroke="none" points="433.5,-50 433.5,-52 656.5,-52 656.5,-50 433.5,-50"/>
<polygon fill="#000000" stroke="none" points="433.5,-48 433.5,-50 656.5,-50 656.5,-48 433.5,-48"/>
<text text-anchor="start" x="437.5" y="-34.8" font-family="arial" font-size="14.00">X1:8:DD&#45;</text>
<text text-anchor="start" x="513" y="-34.8" font-family="arial" font-size="14.00"> &#160;&#160;&#160;&#160;8:BN &#160;&#160;&#160;</text>
<text text-anchor="start" x="596.5" y="-34.8" font-family="arial" font-size="14.00">X2:5:DD&#45;</text>
<polygon fill="#000000" stroke="none" points="433.5,-27 433.5,-29 656.5,-29 656.5,-27 433.5,-27"/>
<polygon fill="#895956" stroke="none" points="433.5,-25 433.5,-27 656.5,-27 656.5,-25 433.5,-25"/>
<polygon fill="#895956" stroke="none" points="433.5,-23 433.5,-25 656.5,-25 656.5,-23 433.5,-23"/>
<polygon fill="#895956" stroke="none" points="433.5,-21 433.5,-23 656.5,-23 656.5,-21 433.5,-21"/>
<polygon fill="#000000" stroke="none" points="433.5,-19 433.5,-21 656.5,-21 656.5,-19 433.5,-19"/>
<text text-anchor="start" x="463.5" y="-5.8" font-family="arial" font-size="14.00"> </text>
</g>
<!-- X1&#45;&#45;W1 -->
<g id="edge1" class="edge">
<title>X1:e&#45;&#45;W1:w</title>
<path fill="none" stroke="#000000" stroke-width="2" d="M289,-203C356.83,-204.62 371.6,-224.62 433,-223"/>
<path fill="none" stroke="#ffffff" stroke-width="2" d="M289,-205C355.22,-205.81 369.99,-225.81 433,-225"/>
<path fill="none" stroke="#00ff00" stroke-width="2" d="M289,-207C353.61,-207 368.39,-227 433,-227"/>
<path fill="none" stroke="#ffffff" stroke-width="2" d="M289,-209C352.01,-208.19 366.78,-228.19 433,-229"/>
<path fill="none" stroke="#000000" stroke-width="2" d="M289,-211C350.4,-209.38 365.17,-229.38 433,-231"/>
</g>
<!-- X1&#45;&#45;W1 -->
<g id="edge3" class="edge">
<title>X1:e&#45;&#45;W1:w</title>
<path fill="none" stroke="#000000" stroke-width="2" d="M289,-180C355.99,-181.04 371.39,-195.04 433,-194"/>
<path fill="none" stroke="#00ff00" stroke-width="2" d="M289,-182C354.65,-182.52 370.04,-196.52 433,-196"/>
<path fill="none" stroke="#00ff00" stroke-width="2" d="M289,-184C353.3,-184 368.7,-198 433,-198"/>
<path fill="none" stroke="#00ff00" stroke-width="2" d="M289,-186C351.96,-185.48 367.35,-199.48 433,-200"/>
<path fill="none" stroke="#000000" stroke-width="2" d="M289,-188C350.61,-186.96 366.01,-200.96 433,-202"/>
</g>
<!-- X1&#45;&#45;W1 -->
<g id="edge5" class="edge">
<title>X1:e&#45;&#45;W1:w</title>
<path fill="none" stroke="#000000" stroke-width="2" d="M289,-157C354.91,-157.43 370.71,-165.43 433,-165"/>
<path fill="none" stroke="#ffffff" stroke-width="2" d="M289,-159C354,-159.22 369.8,-167.22 433,-167"/>
<path fill="none" stroke="#ff8000" stroke-width="2" d="M289,-161C353.1,-161 368.9,-169 433,-169"/>
<path fill="none" stroke="#ffffff" stroke-width="2" d="M289,-163C352.2,-162.78 368,-170.78 433,-171"/>
<path fill="none" stroke="#000000" stroke-width="2" d="M289,-165C351.29,-164.57 367.09,-172.57 433,-173"/>
</g>
<!-- X1&#45;&#45;W1 -->
<g id="edge7" class="edge">
<title>X1:e&#45;&#45;W1:w</title>
<path fill="none" stroke="#000000" stroke-width="2" d="M289,-133C353.75,-133.07 369.72,-136.07 433,-136"/>
<path fill="none" stroke="#0066ff" stroke-width="2" d="M289,-135C353.38,-135.03 369.36,-138.03 433,-138"/>
<path fill="none" stroke="#0066ff" stroke-width="2" d="M289,-137C353.01,-137 368.99,-140 433,-140"/>
<path fill="none" stroke="#0066ff" stroke-width="2" d="M289,-139C352.64,-138.97 368.62,-141.97 433,-142"/>
<path fill="none" stroke="#000000" stroke-width="2" d="M289,-141C352.28,-140.93 368.25,-143.93 433,-144"/>
</g>
<!-- X1&#45;&#45;W1 -->
<g id="edge9" class="edge">
<title>X1:e&#45;&#45;W1:w</title>
<path fill="none" stroke="#000000" stroke-width="2" d="M289,-110C352.28,-110.07 368.25,-107.07 433,-107"/>
<path fill="none" stroke="#ffffff" stroke-width="2" d="M289,-112C352.64,-112.03 368.62,-109.03 433,-109"/>
<path fill="none" stroke="#0066ff" stroke-width="2" d="M289,-114C353.01,-114 368.99,-111 433,-111"/>
<path fill="none" stroke="#ffffff" stroke-width="2" d="M289,-116C353.38,-115.97 369.36,-112.97 433,-113"/>
<path fill="none" stroke="#000000" stroke-width="2" d="M289,-118C353.75,-117.93 369.72,-114.93 433,-115"/>
</g>
<!-- X1&#45;&#45;W1 -->
<g id="edge11" class="edge">
<title>X1:e&#45;&#45;W1:w</title>
<path fill="none" stroke="#000000" stroke-width="2" d="M289,-87C351.14,-87.53 366.89,-78.53 433,-78"/>
<path fill="none" stroke="#ff8000" stroke-width="2" d="M289,-89C352.13,-89.26 367.88,-80.26 433,-80"/>
<path fill="none" stroke="#ff8000" stroke-width="2" d="M289,-91C353.12,-91 368.88,-82 433,-82"/>
<path fill="none" stroke="#ff8000" stroke-width="2" d="M289,-93C354.12,-92.74 369.87,-83.74 433,-84"/>
<path fill="none" stroke="#000000" stroke-width="2" d="M289,-95C355.11,-94.47 370.86,-85.47 433,-86"/>
</g>
<!-- X1&#45;&#45;W1 -->
<g id="edge13" class="edge">
<title>X1:e&#45;&#45;W1:w</title>
<path fill="none" stroke="#000000" stroke-width="2" d="M289,-64C350.55,-65.14 365.85,-50.14 433,-49"/>
<path fill="none" stroke="#ffffff" stroke-width="2" d="M289,-66C351.95,-66.57 367.25,-51.57 433,-51"/>
<path fill="none" stroke="#895956" stroke-width="2" d="M289,-68C353.35,-68 368.65,-53 433,-53"/>
<path fill="none" stroke="#ffffff" stroke-width="2" d="M289,-70C354.75,-69.43 370.05,-54.43 433,-55"/>
<path fill="none" stroke="#000000" stroke-width="2" d="M289,-72C356.15,-70.86 371.45,-55.86 433,-57"/>
</g>
<!-- X1&#45;&#45;W1 -->
<g id="edge15" class="edge">
<title>X1:e&#45;&#45;W1:w</title>
<path fill="none" stroke="#000000" stroke-width="2" d="M289,-41C350.4,-42.71 365.04,-21.71 433,-20"/>
<path fill="none" stroke="#895956" stroke-width="2" d="M289,-43C352.04,-43.86 366.68,-22.86 433,-22"/>
<path fill="none" stroke="#895956" stroke-width="2" d="M289,-45C353.68,-45 368.32,-24 433,-24"/>
<path fill="none" stroke="#895956" stroke-width="2" d="M289,-47C355.32,-46.14 369.96,-25.14 433,-26"/>
<path fill="none" stroke="#000000" stroke-width="2" d="M289,-49C356.96,-47.29 371.6,-26.29 433,-28"/>
</g>
<!-- X2 -->
<g id="node2" class="node">
<title>X2</title>
<polygon fill="#ffffff" stroke="black" points="1089,-278 800,-278 800,-48 1089,-48 1089,-278"/>
<polygon fill="none" stroke="black" points="800.5,-255 800.5,-278 1089.5,-278 1089.5,-255 800.5,-255"/>
<text text-anchor="start" x="936.5" y="-262.8" font-family="arial" font-size="14.00">X2</text>
<polygon fill="none" stroke="black" points="800.5,-232 800.5,-255 1011.5,-255 1011.5,-232 800.5,-232"/>
<text text-anchor="start" x="804.5" y="-239.8" font-family="arial" font-size="14.00">Stewart Connector SS&#45;37000&#45;002</text>
<polygon fill="none" stroke="black" points="1011.5,-232 1011.5,-255 1050.5,-255 1050.5,-232 1011.5,-232"/>
<text text-anchor="start" x="1015.5" y="-239.8" font-family="arial" font-size="14.00">male</text>
<polygon fill="none" stroke="black" points="1050.5,-232 1050.5,-255 1089.5,-255 1089.5,-232 1050.5,-232"/>
<text text-anchor="start" x="1054.5" y="-239.8" font-family="arial" font-size="14.00">8&#45;pin</text>
<polygon fill="none" stroke="black" points="800.5,-209 800.5,-232 935.5,-232 935.5,-209 800.5,-209"/>
<text text-anchor="start" x="864" y="-216.8" font-family="arial" font-size="14.00">1</text>
<polygon fill="none" stroke="black" points="935.5,-209 935.5,-232 1089.5,-232 1089.5,-209 935.5,-209"/>
<text text-anchor="start" x="998.5" y="-216.8" font-family="arial" font-size="14.00">DB+</text>
<polygon fill="none" stroke="black" points="800.5,-186 800.5,-209 935.5,-209 935.5,-186 800.5,-186"/>
<text text-anchor="start" x="864" y="-193.8" font-family="arial" font-size="14.00">2</text>
<polygon fill="none" stroke="black" points="935.5,-186 935.5,-209 1089.5,-209 1089.5,-186 935.5,-186"/>
<text text-anchor="start" x="1000.5" y="-193.8" font-family="arial" font-size="14.00">DB&#45;</text>
<polygon fill="none" stroke="black" points="800.5,-163 800.5,-186 935.5,-186 935.5,-163 800.5,-163"/>
<text text-anchor="start" x="864" y="-170.8" font-family="arial" font-size="14.00">3</text>
<polygon fill="none" stroke="black" points="935.5,-163 935.5,-186 1089.5,-186 1089.5,-163 935.5,-163"/>
<text text-anchor="start" x="998.5" y="-170.8" font-family="arial" font-size="14.00">DA+</text>
<polygon fill="none" stroke="black" points="800.5,-140 800.5,-163 935.5,-163 935.5,-140 800.5,-140"/>
<text text-anchor="start" x="864" y="-147.8" font-family="arial" font-size="14.00">4</text>
<polygon fill="none" stroke="black" points="935.5,-140 935.5,-163 1089.5,-163 1089.5,-140 935.5,-140"/>
<text text-anchor="start" x="998.5" y="-147.8" font-family="arial" font-size="14.00">DD+</text>
<polygon fill="none" stroke="black" points="800.5,-117 800.5,-140 935.5,-140 935.5,-117 800.5,-117"/>
<text text-anchor="start" x="864" y="-124.8" font-family="arial" font-size="14.00">5</text>
<polygon fill="none" stroke="black" points="935.5,-117 935.5,-140 1089.5,-140 1089.5,-117 935.5,-117"/>
<text text-anchor="start" x="1000" y="-124.8" font-family="arial" font-size="14.00">DD&#45;</text>
<polygon fill="none" stroke="black" points="800.5,-94 800.5,-117 935.5,-117 935.5,-94 800.5,-94"/>
<text text-anchor="start" x="864" y="-101.8" font-family="arial" font-size="14.00">6</text>
<polygon fill="none" stroke="black" points="935.5,-94 935.5,-117 1089.5,-117 1089.5,-94 935.5,-94"/>
<text text-anchor="start" x="1000.5" y="-101.8" font-family="arial" font-size="14.00">DA&#45;</text>
<polygon fill="none" stroke="black" points="800.5,-71 800.5,-94 935.5,-94 935.5,-71 800.5,-71"/>
<text text-anchor="start" x="864" y="-78.8" font-family="arial" font-size="14.00">7</text>
<polygon fill="none" stroke="black" points="935.5,-71 935.5,-94 1089.5,-94 1089.5,-71 935.5,-71"/>
<text text-anchor="start" x="998.5" y="-78.8" font-family="arial" font-size="14.00">DC+</text>
<polygon fill="none" stroke="black" points="800.5,-48 800.5,-71 935.5,-71 935.5,-48 800.5,-48"/>
<text text-anchor="start" x="864" y="-55.8" font-family="arial" font-size="14.00">8</text>
<polygon fill="none" stroke="black" points="935.5,-48 935.5,-71 1089.5,-71 1089.5,-48 935.5,-48"/>
<text text-anchor="start" x="1000" y="-55.8" font-family="arial" font-size="14.00">DC&#45;</text>
</g>
<!-- W1&#45;&#45;X2 -->
<g id="edge2" class="edge">
<title>W1:e&#45;&#45;X2:w</title>
<path fill="none" stroke="#000000" stroke-width="2" d="M656,-223C720.09,-226.4 728,-174.4 800,-171"/>
<path fill="none" stroke="#ffffff" stroke-width="2" d="M656,-225C722.07,-226.7 729.98,-174.7 800,-173"/>
<path fill="none" stroke="#00ff00" stroke-width="2" d="M656,-227C724.05,-227 731.95,-175 800,-175"/>
<path fill="none" stroke="#ffffff" stroke-width="2" d="M656,-229C726.02,-227.3 733.93,-175.3 800,-177"/>
<path fill="none" stroke="#000000" stroke-width="2" d="M656,-231C728,-227.6 735.91,-175.6 800,-179"/>
</g>
<!-- W1&#45;&#45;X2 -->
<g id="edge4" class="edge">
<title>W1:e&#45;&#45;X2:w</title>
<path fill="none" stroke="#000000" stroke-width="2" d="M656,-194C728.2,-198.36 719.83,-105.36 800,-101"/>
<path fill="none" stroke="#00ff00" stroke-width="2" d="M656,-196C730.19,-198.18 721.82,-105.18 800,-103"/>
<path fill="none" stroke="#00ff00" stroke-width="2" d="M656,-198C732.19,-198 723.81,-105 800,-105"/>
<path fill="none" stroke="#00ff00" stroke-width="2" d="M656,-200C734.18,-197.82 725.81,-104.82 800,-107"/>
<path fill="none" stroke="#000000" stroke-width="2" d="M656,-202C736.17,-197.64 727.8,-104.64 800,-109"/>
</g>
<!-- W1&#45;&#45;X2 -->
<g id="edge6" class="edge">
<title>W1:e&#45;&#45;X2:w</title>
<path fill="none" stroke="#000000" stroke-width="2" d="M656,-165C728,-168.4 735.91,-220.4 800,-217"/>
<path fill="none" stroke="#ffffff" stroke-width="2" d="M656,-167C726.02,-168.7 733.93,-220.7 800,-219"/>
<path fill="none" stroke="#ff8000" stroke-width="2" d="M656,-169C724.05,-169 731.95,-221 800,-221"/>
<path fill="none" stroke="#ffffff" stroke-width="2" d="M656,-171C722.07,-169.3 729.98,-221.3 800,-223"/>
<path fill="none" stroke="#000000" stroke-width="2" d="M656,-173C720.09,-169.6 728,-221.6 800,-225"/>
</g>
<!-- W1&#45;&#45;X2 -->
<g id="edge8" class="edge">
<title>W1:e&#45;&#45;X2:w</title>
<path fill="none" stroke="#000000" stroke-width="2" d="M656,-136C721.02,-139.59 727.02,-81.59 800,-78"/>
<path fill="none" stroke="#0066ff" stroke-width="2" d="M656,-138C723.01,-139.79 729.01,-81.79 800,-80"/>
<path fill="none" stroke="#0066ff" stroke-width="2" d="M656,-140C725,-140 731,-82 800,-82"/>
<path fill="none" stroke="#0066ff" stroke-width="2" d="M656,-142C726.99,-140.21 732.99,-82.21 800,-84"/>
<path fill="none" stroke="#000000" stroke-width="2" d="M656,-144C728.98,-140.41 734.98,-82.41 800,-86"/>
</g>
<!-- W1&#45;&#45;X2 -->
<g id="edge10" class="edge">
<title>W1:e&#45;&#45;X2:w</title>
<path fill="none" stroke="#000000" stroke-width="2" d="M656,-107C720.09,-110.4 728,-58.4 800,-55"/>
<path fill="none" stroke="#ffffff" stroke-width="2" d="M656,-109C722.07,-110.7 729.98,-58.7 800,-57"/>
<path fill="none" stroke="#0066ff" stroke-width="2" d="M656,-111C724.05,-111 731.95,-59 800,-59"/>
<path fill="none" stroke="#ffffff" stroke-width="2" d="M656,-113C726.02,-111.3 733.93,-59.3 800,-61"/>
<path fill="none" stroke="#000000" stroke-width="2" d="M656,-115C728,-111.6 735.91,-59.6 800,-63"/>
</g>
<!-- W1&#45;&#45;X2 -->
<g id="edge12" class="edge">
<title>W1:e&#45;&#45;X2:w</title>
<path fill="none" stroke="#000000" stroke-width="2" d="M656,-78C742.12,-82.69 721.76,-198.69 800,-194"/>
<path fill="none" stroke="#ff8000" stroke-width="2" d="M656,-80C740.15,-82.35 719.79,-198.35 800,-196"/>
<path fill="none" stroke="#ff8000" stroke-width="2" d="M656,-82C738.18,-82 717.82,-198 800,-198"/>
<path fill="none" stroke="#ff8000" stroke-width="2" d="M656,-84C736.21,-81.65 715.85,-197.65 800,-200"/>
<path fill="none" stroke="#000000" stroke-width="2" d="M656,-86C734.24,-81.31 713.88,-197.31 800,-202"/>
</g>
<!-- W1&#45;&#45;X2 -->
<g id="edge14" class="edge">
<title>W1:e&#45;&#45;X2:w</title>
<path fill="none" stroke="#000000" stroke-width="2" d="M656,-49C737.39,-53.44 726.56,-151.44 800,-147"/>
<path fill="none" stroke="#ffffff" stroke-width="2" d="M656,-51C735.4,-53.22 724.57,-151.22 800,-149"/>
<path fill="none" stroke="#895956" stroke-width="2" d="M656,-53C733.42,-53 722.58,-151 800,-151"/>
<path fill="none" stroke="#ffffff" stroke-width="2" d="M656,-55C731.43,-52.78 720.6,-150.78 800,-153"/>
<path fill="none" stroke="#000000" stroke-width="2" d="M656,-57C729.44,-52.56 718.61,-150.56 800,-155"/>
</g>
<!-- W1&#45;&#45;X2 -->
<g id="edge16" class="edge">
<title>W1:e&#45;&#45;X2:w</title>
<path fill="none" stroke="#000000" stroke-width="2" d="M656,-20C738.91,-24.53 725.02,-128.53 800,-124"/>
<path fill="none" stroke="#895956" stroke-width="2" d="M656,-22C736.93,-24.26 723.04,-128.26 800,-126"/>
<path fill="none" stroke="#895956" stroke-width="2" d="M656,-24C734.95,-24 721.05,-128 800,-128"/>
<path fill="none" stroke="#895956" stroke-width="2" d="M656,-26C732.96,-23.74 719.07,-127.74 800,-130"/>
<path fill="none" stroke="#000000" stroke-width="2" d="M656,-28C730.98,-23.47 717.09,-127.47 800,-132"/>
</g>
</g>
</svg>
