<?xml version="1.0" encoding="UTF-8" standalone="no"?>
<!DOCTYPE svg PUBLIC "-//W3C//DTD SVG 1.1//EN"
 "http://www.w3.org/Graphics/SVG/1.1/DTD/svg11.dtd">
<!-- Generated by graphviz version 12.1.2 (0)
 -->
<!-- Pages: 1 -->
<svg width="1078pt" height="294pt"
 viewBox="0.00 0.00 1078.00 293.50" xmlns="http://www.w3.org/2000/svg" xmlns:xlink="http://www.w3.org/1999/xlink">
<g id="graph0" class="graph" transform="scale(1 1) rotate(0) translate(4 289.5)">
<polygon fill="#ffffff" stroke="none" points="-4,4 -4,-289.5 1074,-289.5 1074,4 -4,4"/>
<!-- X1 -->
<g id="node1" class="node">
<title>X1</title>
<polygon fill="#ffffff" stroke="black" points="286.5,-249.5 0,-249.5 0,-18 286.5,-18 286.5,-249.5"/>
<polygon fill="#ffffff" stroke="none" points="0,-18 0,-249.5 286.5,-249.5 286.5,-18 0,-18"/>
<polygon fill="none" stroke="black" points="0,-225.75 0,-249.5 286.5,-249.5 286.5,-225.75 0,-225.75"/>
<text text-anchor="start" x="135" y="-232.2" font-family="arial" font-size="14.00">X1</text>
<polygon fill="none" stroke="black" points="0,-202 0,-225.75 210.5,-225.75 210.5,-202 0,-202"/>
<text text-anchor="start" x="4" y="-208.45" font-family="arial" font-size="14.00">Stewart Connector SS&#45;37000&#45;002</text>
<polygon fill="none" stroke="black" points="210.5,-202 210.5,-225.75 248.5,-225.75 248.5,-202 210.5,-202"/>
<text text-anchor="start" x="214.5" y="-208.45" font-family="arial" font-size="14.00">male</text>
<polygon fill="none" stroke="black" points="248.5,-202 248.5,-225.75 286.5,-225.75 286.5,-202 248.5,-202"/>
<text text-anchor="start" x="252.5" y="-208.45" font-family="arial" font-size="14.00">8&#45;pin</text>
<polygon fill="none" stroke="black" points="0,-179 0,-202 153.25,-202 153.25,-179 0,-179"/>
<text text-anchor="start" x="63.13" y="-184.7" font-family="arial" font-size="14.00">DA+</text>
<polygon fill="none" stroke="black" points="153.25,-179 153.25,-202 286.5,-202 286.5,-179 153.25,-179"/>
<text text-anchor="start" x="216.13" y="-184.7" font-family="arial" font-size="14.00">1</text>
<polygon fill="none" stroke="black" points="0,-156 0,-179 153.25,-179 153.25,-156 0,-156"/>
<text text-anchor="start" x="65" y="-161.7" font-family="arial" font-size="14.00">DA&#45;</text>
<polygon fill="none" stroke="black" points="153.25,-156 153.25,-179 286.5,-179 286.5,-156 153.25,-156"/>
<text text-anchor="start" x="216.13" y="-161.7" font-family="arial" font-size="14.00">2</text>
<polygon fill="none" stroke="black" points="0,-133 0,-156 153.25,-156 153.25,-133 0,-133"/>
<text text-anchor="start" x="63.13" y="-138.7" font-family="arial" font-size="14.00">DB+</text>
<polygon fill="none" stroke="black" points="153.25,-133 153.25,-156 286.5,-156 286.5,-133 153.25,-133"/>
<text text-anchor="start" x="216.13" y="-138.7" font-family="arial" font-size="14.00">3</text>
<polygon fill="none" stroke="black" points="0,-110 0,-133 153.25,-133 153.25,-110 0,-110"/>
<text text-anchor="start" x="62.75" y="-115.7" font-family="arial" font-size="14.00">DC+</text>
<polygon fill="none" stroke="black" points="153.25,-110 153.25,-133 286.5,-133 286.5,-110 153.25,-110"/>
<text text-anchor="start" x="216.13" y="-115.7" font-family="arial" font-size="14.00">4</text>
<polygon fill="none" stroke="black" points="0,-87 0,-110 153.25,-110 153.25,-87 0,-87"/>
<text text-anchor="start" x="64.63" y="-92.7" font-family="arial" font-size="14.00">DC&#45;</text>
<polygon fill="none" stroke="black" points="153.25,-87 153.25,-110 286.5,-110 286.5,-87 153.25,-87"/>
<text text-anchor="start" x="216.13" y="-92.7" font-family="arial" font-size="14.00">5</text>
<polygon fill="none" stroke="black" points="0,-64 0,-87 153.25,-87 153.25,-64 0,-64"/>
<text text-anchor="start" x="65" y="-69.7" font-family="arial" font-size="14.00">DB&#45;</text>
<polygon fill="none" stroke="black" points="153.25,-64 153.25,-87 286.5,-87 286.5,-64 153.25,-64"/>
<text text-anchor="start" x="216.13" y="-69.7" font-family="arial" font-size="14.00">6</text>
<polygon fill="none" stroke="black" points="0,-41 0,-64 153.25,-64 153.25,-41 0,-41"/>
<text text-anchor="start" x="62.75" y="-46.7" font-family="arial" font-size="14.00">DD+</text>
<polygon fill="none" stroke="black" points="153.25,-41 153.25,-64 286.5,-64 286.5,-41 153.25,-41"/>
<text text-anchor="start" x="216.13" y="-46.7" font-family="arial" font-size="14.00">7</text>
<polygon fill="none" stroke="black" points="0,-18 0,-41 153.25,-41 153.25,-18 0,-18"/>
<text text-anchor="start" x="64.63" y="-23.7" font-family="arial" font-size="14.00">DD&#45;</text>
<polygon fill="none" stroke="black" points="153.25,-18 153.25,-41 286.5,-41 286.5,-18 153.25,-18"/>
<text text-anchor="start" x="216.13" y="-23.7" font-family="arial" font-size="14.00">8</text>
</g>
<!-- W1 -->
<g id="node2" class="node">
<title>W1</title>
<polygon fill="#ffffff" stroke="black" points="639.5,-285.5 430.5,-285.5 430.5,0 639.5,0 639.5,-285.5"/>
<polygon fill="#ffffff" stroke="none" points="430.5,0 430.5,-285.5 639.5,-285.5 639.5,0 430.5,0"/>
<polygon fill="none" stroke="black" points="430.5,-261.75 430.5,-285.5 639.5,-285.5 639.5,-261.75 430.5,-261.75"/>
<text text-anchor="start" x="524.5" y="-268.2" font-family="arial" font-size="14.00">W1</text>
<polygon fill="none" stroke="black" points="430.5,-238 430.5,-261.75 491.38,-261.75 491.38,-238 430.5,-238"/>
<text text-anchor="start" x="440.31" y="-244.45" font-family="arial" font-size="14.00">CAT5e</text>
<polygon fill="none" stroke="black" points="491.38,-238 491.38,-261.75 525.25,-261.75 525.25,-238 491.38,-238"/>
<text text-anchor="start" x="501.19" y="-244.45" font-family="arial" font-size="14.00">8x</text>
<polygon fill="none" stroke="black" points="525.25,-238 525.25,-261.75 596.63,-261.75 596.63,-238 525.25,-238"/>
<text text-anchor="start" x="535.06" y="-244.45" font-family="arial" font-size="14.00">24 AWG</text>
<polygon fill="none" stroke="black" points="596.63,-238 596.63,-261.75 639.5,-261.75 639.5,-238 596.63,-238"/>
<text text-anchor="start" x="606.44" y="-244.45" font-family="arial" font-size="14.00">1 m</text>
<text text-anchor="start" x="462.13" y="-222.7" font-family="arial" font-size="14.00"> </text>
<text text-anchor="start" x="432.5" y="-203.7" font-family="arial" font-size="14.00"> X1:1:DA+</text>
<text text-anchor="start" x="499.13" y="-203.7" font-family="arial" font-size="14.00"> </text>
<text text-anchor="start" x="507.25" y="-203.7" font-family="arial" font-size="14.00">1:WHGN</text>
<text text-anchor="start" x="567.13" y="-203.7" font-family="arial" font-size="14.00"> </text>
<text text-anchor="start" x="575.25" y="-203.7" font-family="arial" font-size="14.00">X2:3:DA+ </text>
<text text-anchor="start" x="432.5" y="-178.7" font-family="arial" font-size="14.00"> X1:2:DA&#45;</text>
<text text-anchor="start" x="499.13" y="-178.7" font-family="arial" font-size="14.00"> </text>
<text text-anchor="start" x="518.88" y="-178.7" font-family="arial" font-size="14.00">2:GN</text>
<text text-anchor="start" x="567.13" y="-178.7" font-family="arial" font-size="14.00"> </text>
<text text-anchor="start" x="579" y="-178.7" font-family="arial" font-size="14.00">X2:6:DA&#45; </text>
<text text-anchor="start" x="432.5" y="-153.7" font-family="arial" font-size="14.00"> X1:3:DB+</text>
<text text-anchor="start" x="499.13" y="-153.7" font-family="arial" font-size="14.00"> </text>
<text text-anchor="start" x="506.5" y="-153.7" font-family="arial" font-size="14.00">3:WHOG</text>
<text text-anchor="start" x="567.13" y="-153.7" font-family="arial" font-size="14.00"> </text>
<text text-anchor="start" x="575.25" y="-153.7" font-family="arial" font-size="14.00">X2:1:DB+ </text>
<text text-anchor="start" x="432.5" y="-128.7" font-family="arial" font-size="14.00"> X1:4:DC+</text>
<text text-anchor="start" x="499.13" y="-128.7" font-family="arial" font-size="14.00"> </text>
<text text-anchor="start" x="520" y="-128.7" font-family="arial" font-size="14.00">4:BU</text>
<text text-anchor="start" x="567.13" y="-128.7" font-family="arial" font-size="14.00"> </text>
<text text-anchor="start" x="574.5" y="-128.7" font-family="arial" font-size="14.00">X2:7:DC+ </text>
<text text-anchor="start" x="432.5" y="-103.7" font-family="arial" font-size="14.00"> X1:5:DC&#45;</text>
<text text-anchor="start" x="499.13" y="-103.7" font-family="arial" font-size="14.00"> </text>
<text text-anchor="start" x="508.38" y="-103.7" font-family="arial" font-size="14.00">5:WHBU</text>
<text text-anchor="start" x="567.13" y="-103.7" font-family="arial" font-size="14.00"> </text>
<text text-anchor="start" x="578.25" y="-103.7" font-family="arial" font-size="14.00">X2:8:DC&#45; </text>
<text text-anchor="start" x="432.5" y="-78.7" font-family="arial" font-size="14.00"> X1:6:DB&#45;</text>
<text text-anchor="start" x="499.13" y="-78.7" font-family="arial" font-size="14.00"> </text>
<text text-anchor="start" x="518.13" y="-78.7" font-family="arial" font-size="14.00">6:OG</text>
<text text-anchor="start" x="567.13" y="-78.7" font-family="arial" font-size="14.00"> </text>
<text text-anchor="start" x="579" y="-78.7" font-family="arial" font-size="14.00">X2:2:DB&#45; </text>
<text text-anchor="start" x="432.5" y="-53.7" font-family="arial" font-size="14.00"> X1:7:DD+</text>
<text text-anchor="start" x="499.13" y="-53.7" font-family="arial" font-size="14.00"> </text>
<text text-anchor="start" x="508.38" y="-53.7" font-family="arial" font-size="14.00">7:WHBN</text>
<text text-anchor="start" x="567.13" y="-53.7" font-family="arial" font-size="14.00"> </text>
<text text-anchor="start" x="574.5" y="-53.7" font-family="arial" font-size="14.00">X2:4:DD+ </text>
<text text-anchor="start" x="432.5" y="-28.7" font-family="arial" font-size="14.00"> X1:8:DD&#45;</text>
<text text-anchor="start" x="499.13" y="-28.7" font-family="arial" font-size="14.00"> </text>
<text text-anchor="start" x="520" y="-28.7" font-family="arial" font-size="14.00">8:BN</text>
<text text-anchor="start" x="567.13" y="-28.7" font-family="arial" font-size="14.00"> </text>
<text text-anchor="start" x="578.25" y="-28.7" font-family="arial" font-size="14.00">X2:5:DD&#45; </text>
<text text-anchor="start" x="462.13" y="-3.7" font-family="arial" font-size="14.00"> </text>
</g>
<!-- X1&#45;&#45;W1 -->
<g id="edge1" class="edge">
<title>X1:e&#45;&#45;W1:w</title>
<path fill="none" stroke="#000000" stroke-width="2" d="M286.5,-186.5C352.09,-186.8 367.95,-193.3 430.5,-193"/>
<path fill="none" stroke="#ffffff" stroke-width="2" d="M286.5,-188.5C351.33,-188.65 367.19,-195.15 430.5,-195"/>
<path fill="none" stroke="#00aa00" stroke-width="2" d="M286.5,-190.5C350.57,-190.5 366.43,-197 430.5,-197"/>
<path fill="none" stroke="#ffffff" stroke-width="2" d="M286.5,-192.5C349.81,-192.35 365.67,-198.85 430.5,-199"/>
<path fill="none" stroke="#000000" stroke-width="2" d="M286.5,-194.5C349.05,-194.2 364.91,-200.7 430.5,-201"/>
</g>
<!-- X1&#45;&#45;W1 -->
<g id="edge2" class="edge">
<title>X1:e&#45;&#45;W1:w</title>
<path fill="none" stroke="#000000" stroke-width="2" d="M286.5,-163.5C351.62,-163.65 367.56,-168.15 430.5,-168"/>
<path fill="none" stroke="#00aa00" stroke-width="2" d="M286.5,-165.5C351.07,-165.58 367.01,-170.08 430.5,-170"/>
<path fill="none" stroke="#00aa00" stroke-width="2" d="M286.5,-167.5C350.53,-167.5 366.47,-172 430.5,-172"/>
<path fill="none" stroke="#00aa00" stroke-width="2" d="M286.5,-169.5C349.99,-169.43 365.93,-173.93 430.5,-174"/>
<path fill="none" stroke="#000000" stroke-width="2" d="M286.5,-171.5C349.44,-171.35 365.38,-175.85 430.5,-176"/>
</g>
<!-- X1&#45;&#45;W1 -->
<g id="edge3" class="edge">
<title>X1:e&#45;&#45;W1:w</title>
<path fill="none" stroke="#000000" stroke-width="2" d="M286.5,-140.5C351.13,-140.55 367.11,-143.05 430.5,-143"/>
<path fill="none" stroke="#ffffff" stroke-width="2" d="M286.5,-142.5C350.82,-142.52 366.8,-145.02 430.5,-145"/>
<path fill="none" stroke="#ff8000" stroke-width="2" d="M286.5,-144.5C350.51,-144.5 366.49,-147 430.5,-147"/>
<path fill="none" stroke="#ffffff" stroke-width="2" d="M286.5,-146.5C350.2,-146.48 366.18,-148.98 430.5,-149"/>
<path fill="none" stroke="#000000" stroke-width="2" d="M286.5,-148.5C349.89,-148.45 365.87,-150.95 430.5,-151"/>
</g>
<!-- X1&#45;&#45;W1 -->
<g id="edge4" class="edge">
<title>X1:e&#45;&#45;W1:w</title>
<path fill="none" stroke="#000000" stroke-width="2" d="M286.5,-117.5C350.63,-117.5 366.63,-118 430.5,-118"/>
<path fill="none" stroke="#0066ff" stroke-width="2" d="M286.5,-119.5C350.56,-119.5 366.56,-120 430.5,-120"/>
<path fill="none" stroke="#0066ff" stroke-width="2" d="M286.5,-121.5C350.5,-121.5 366.5,-122 430.5,-122"/>
<path fill="none" stroke="#0066ff" stroke-width="2" d="M286.5,-123.5C350.44,-123.5 366.44,-124 430.5,-124"/>
<path fill="none" stroke="#000000" stroke-width="2" d="M286.5,-125.5C350.38,-125.5 366.38,-126 430.5,-126"/>
</g>
<!-- X1&#45;&#45;W1 -->
<g id="edge5" class="edge">
<title>X1:e&#45;&#45;W1:w</title>
<path fill="none" stroke="#000000" stroke-width="2" d="M286.5,-94.5C350.13,-94.52 366.13,-93.02 430.5,-93"/>
<path fill="none" stroke="#ffffff" stroke-width="2" d="M286.5,-96.5C350.31,-96.51 366.31,-95.01 430.5,-95"/>
<path fill="none" stroke="#0066ff" stroke-width="2" d="M286.5,-98.5C350.5,-98.5 366.5,-97 430.5,-97"/>
<path fill="none" stroke="#ffffff" stroke-width="2" d="M286.5,-100.5C350.69,-100.49 366.69,-98.99 430.5,-99"/>
<path fill="none" stroke="#000000" stroke-width="2" d="M286.5,-102.5C350.87,-102.48 366.87,-100.98 430.5,-101"/>
</g>
<!-- X1&#45;&#45;W1 -->
<g id="edge6" class="edge">
<title>X1:e&#45;&#45;W1:w</title>
<path fill="none" stroke="#000000" stroke-width="2" d="M286.5,-71.5C349.66,-71.59 365.62,-68.09 430.5,-68"/>
<path fill="none" stroke="#ff8000" stroke-width="2" d="M286.5,-73.5C350.09,-73.55 366.05,-70.05 430.5,-70"/>
<path fill="none" stroke="#ff8000" stroke-width="2" d="M286.5,-75.5C350.52,-75.5 366.48,-72 430.5,-72"/>
<path fill="none" stroke="#ff8000" stroke-width="2" d="M286.5,-77.5C350.95,-77.45 366.91,-73.95 430.5,-74"/>
<path fill="none" stroke="#000000" stroke-width="2" d="M286.5,-79.5C351.38,-79.41 367.34,-75.91 430.5,-76"/>
</g>
<!-- X1&#45;&#45;W1 -->
<g id="edge7" class="edge">
<title>X1:e&#45;&#45;W1:w</title>
<path fill="none" stroke="#000000" stroke-width="2" d="M286.5,-48.5C349.24,-48.72 365.14,-43.22 430.5,-43"/>
<path fill="none" stroke="#ffffff" stroke-width="2" d="M286.5,-50.5C349.9,-50.61 365.8,-45.11 430.5,-45"/>
<path fill="none" stroke="#895956" stroke-width="2" d="M286.5,-52.5C350.55,-52.5 366.45,-47 430.5,-47"/>
<path fill="none" stroke="#ffffff" stroke-width="2" d="M286.5,-54.5C351.21,-54.39 367.11,-48.89 430.5,-49"/>
<path fill="none" stroke="#000000" stroke-width="2" d="M286.5,-56.5C351.86,-56.28 367.76,-50.78 430.5,-51"/>
</g>
<!-- X1&#45;&#45;W1 -->
<g id="edge8" class="edge">
<title>X1:e&#45;&#45;W1:w</title>
<path fill="none" stroke="#000000" stroke-width="2" d="M286.5,-25.5C348.88,-25.89 364.7,-18.39 430.5,-18"/>
<path fill="none" stroke="#895956" stroke-width="2" d="M286.5,-27.5C349.73,-27.69 365.55,-20.19 430.5,-20"/>
<path fill="none" stroke="#895956" stroke-width="2" d="M286.5,-29.5C350.59,-29.5 366.41,-22 430.5,-22"/>
<path fill="none" stroke="#895956" stroke-width="2" d="M286.5,-31.5C351.45,-31.31 367.27,-23.81 430.5,-24"/>
<path fill="none" stroke="#000000" stroke-width="2" d="M286.5,-33.5C352.3,-33.12 368.12,-25.62 430.5,-26"/>
</g>
<!-- W1&#45;&#45;W1 -->
<g id="edge9" class="edge">
<title>W1:e&#45;&#45;W1:w</title>
<path fill="none" stroke="#000000" stroke-width="2" d="M639.5,-201C569.83,-201 500.17,-201 430.5,-201"/>
<path fill="none" stroke="#ffffff" stroke-width="2" d="M639.5,-199C569.83,-199 500.17,-199 430.5,-199"/>
<path fill="none" stroke="#00aa00" stroke-width="2" d="M639.5,-197C569.83,-197 500.17,-197 430.5,-197"/>
<path fill="none" stroke="#ffffff" stroke-width="2" d="M639.5,-195C569.83,-195 500.17,-195 430.5,-195"/>
<path fill="none" stroke="#000000" stroke-width="2" d="M639.5,-193C569.83,-193 500.17,-193 430.5,-193"/>
</g>
<!-- W1&#45;&#45;W1 -->
<g id="edge10" class="edge">
<title>W1:e&#45;&#45;W1:w</title>
<path fill="none" stroke="#000000" stroke-width="2" d="M639.5,-176C569.83,-176 500.17,-176 430.5,-176"/>
<path fill="none" stroke="#00aa00" stroke-width="2" d="M639.5,-174C569.83,-174 500.17,-174 430.5,-174"/>
<path fill="none" stroke="#00aa00" stroke-width="2" d="M639.5,-172C569.83,-172 500.17,-172 430.5,-172"/>
<path fill="none" stroke="#00aa00" stroke-width="2" d="M639.5,-170C569.83,-170 500.17,-170 430.5,-170"/>
<path fill="none" stroke="#000000" stroke-width="2" d="M639.5,-168C569.83,-168 500.17,-168 430.5,-168"/>
</g>
<!-- W1&#45;&#45;W1 -->
<g id="edge11" class="edge">
<title>W1:e&#45;&#45;W1:w</title>
<path fill="none" stroke="#000000" stroke-width="2" d="M639.5,-151C569.83,-151 500.17,-151 430.5,-151"/>
<path fill="none" stroke="#ffffff" stroke-width="2" d="M639.5,-149C569.83,-149 500.17,-149 430.5,-149"/>
<path fill="none" stroke="#ff8000" stroke-width="2" d="M639.5,-147C569.83,-147 500.17,-147 430.5,-147"/>
<path fill="none" stroke="#ffffff" stroke-width="2" d="M639.5,-145C569.83,-145 500.17,-145 430.5,-145"/>
<path fill="none" stroke="#000000" stroke-width="2" d="M639.5,-143C569.83,-143 500.17,-143 430.5,-143"/>
</g>
<!-- W1&#45;&#45;W1 -->
<g id="edge12" class="edge">
<title>W1:e&#45;&#45;W1:w</title>
<path fill="none" stroke="#000000" stroke-width="2" d="M639.5,-126C569.83,-126 500.17,-126 430.5,-126"/>
<path fill="none" stroke="#0066ff" stroke-width="2" d="M639.5,-124C569.83,-124 500.17,-124 430.5,-124"/>
<path fill="none" stroke="#0066ff" stroke-width="2" d="M639.5,-122C569.83,-122 500.17,-122 430.5,-122"/>
<path fill="none" stroke="#0066ff" stroke-width="2" d="M639.5,-120C569.83,-120 500.17,-120 430.5,-120"/>
<path fill="none" stroke="#000000" stroke-width="2" d="M639.5,-118C569.83,-118 500.17,-118 430.5,-118"/>
</g>
<!-- W1&#45;&#45;W1 -->
<g id="edge13" class="edge">
<title>W1:e&#45;&#45;W1:w</title>
<path fill="none" stroke="#000000" stroke-width="2" d="M639.5,-101C569.83,-101 500.17,-101 430.5,-101"/>
<path fill="none" stroke="#ffffff" stroke-width="2" d="M639.5,-99C569.83,-99 500.17,-99 430.5,-99"/>
<path fill="none" stroke="#0066ff" stroke-width="2" d="M639.5,-97C569.83,-97 500.17,-97 430.5,-97"/>
<path fill="none" stroke="#ffffff" stroke-width="2" d="M639.5,-95C569.83,-95 500.17,-95 430.5,-95"/>
<path fill="none" stroke="#000000" stroke-width="2" d="M639.5,-93C569.83,-93 500.17,-93 430.5,-93"/>
</g>
<!-- W1&#45;&#45;W1 -->
<g id="edge14" class="edge">
<title>W1:e&#45;&#45;W1:w</title>
<path fill="none" stroke="#000000" stroke-width="2" d="M639.5,-76C569.83,-76 500.17,-76 430.5,-76"/>
<path fill="none" stroke="#ff8000" stroke-width="2" d="M639.5,-74C569.83,-74 500.17,-74 430.5,-74"/>
<path fill="none" stroke="#ff8000" stroke-width="2" d="M639.5,-72C569.83,-72 500.17,-72 430.5,-72"/>
<path fill="none" stroke="#ff8000" stroke-width="2" d="M639.5,-70C569.83,-70 500.17,-70 430.5,-70"/>
<path fill="none" stroke="#000000" stroke-width="2" d="M639.5,-68C569.83,-68 500.17,-68 430.5,-68"/>
</g>
<!-- W1&#45;&#45;W1 -->
<g id="edge15" class="edge">
<title>W1:e&#45;&#45;W1:w</title>
<path fill="none" stroke="#000000" stroke-width="2" d="M639.5,-51C569.83,-51 500.17,-51 430.5,-51"/>
<path fill="none" stroke="#ffffff" stroke-width="2" d="M639.5,-49C569.83,-49 500.17,-49 430.5,-49"/>
<path fill="none" stroke="#895956" stroke-width="2" d="M639.5,-47C569.83,-47 500.17,-47 430.5,-47"/>
<path fill="none" stroke="#ffffff" stroke-width="2" d="M639.5,-45C569.83,-45 500.17,-45 430.5,-45"/>
<path fill="none" stroke="#000000" stroke-width="2" d="M639.5,-43C569.83,-43 500.17,-43 430.5,-43"/>
</g>
<!-- W1&#45;&#45;W1 -->
<g id="edge16" class="edge">
<title>W1:e&#45;&#45;W1:w</title>
<path fill="none" stroke="#000000" stroke-width="2" d="M639.5,-26C569.83,-26 500.17,-26 430.5,-26"/>
<path fill="none" stroke="#895956" stroke-width="2" d="M639.5,-24C569.83,-24 500.17,-24 430.5,-24"/>
<path fill="none" stroke="#895956" stroke-width="2" d="M639.5,-22C569.83,-22 500.17,-22 430.5,-22"/>
<path fill="none" stroke="#895956" stroke-width="2" d="M639.5,-20C569.83,-20 500.17,-20 430.5,-20"/>
<path fill="none" stroke="#000000" stroke-width="2" d="M639.5,-18C569.83,-18 500.17,-18 430.5,-18"/>
</g>
<!-- X2 -->
<g id="node3" class="node">
<title>X2</title>
<polygon fill="#ffffff" stroke="black" points="1070,-254.5 783.5,-254.5 783.5,-23 1070,-23 1070,-254.5"/>
<polygon fill="#ffffff" stroke="none" points="783.5,-23 783.5,-254.5 1070,-254.5 1070,-23 783.5,-23"/>
<polygon fill="none" stroke="black" points="783.5,-230.75 783.5,-254.5 1070,-254.5 1070,-230.75 783.5,-230.75"/>
<text text-anchor="start" x="918.5" y="-237.2" font-family="arial" font-size="14.00">X2</text>
<polygon fill="none" stroke="black" points="783.5,-207 783.5,-230.75 994,-230.75 994,-207 783.5,-207"/>
<text text-anchor="start" x="787.5" y="-213.45" font-family="arial" font-size="14.00">Stewart Connector SS&#45;37000&#45;002</text>
<polygon fill="none" stroke="black" points="994,-207 994,-230.75 1032,-230.75 1032,-207 994,-207"/>
<text text-anchor="start" x="998" y="-213.45" font-family="arial" font-size="14.00">male</text>
<polygon fill="none" stroke="black" points="1032,-207 1032,-230.75 1070,-230.75 1070,-207 1032,-207"/>
<text text-anchor="start" x="1036" y="-213.45" font-family="arial" font-size="14.00">8&#45;pin</text>
<polygon fill="none" stroke="black" points="783.5,-184 783.5,-207 916.75,-207 916.75,-184 783.5,-184"/>
<text text-anchor="start" x="846.38" y="-189.7" font-family="arial" font-size="14.00">1</text>
<polygon fill="none" stroke="black" points="916.75,-184 916.75,-207 1070,-207 1070,-184 916.75,-184"/>
<text text-anchor="start" x="979.88" y="-189.7" font-family="arial" font-size="14.00">DB+</text>
<polygon fill="none" stroke="black" points="783.5,-161 783.5,-184 916.75,-184 916.75,-161 783.5,-161"/>
<text text-anchor="start" x="846.38" y="-166.7" font-family="arial" font-size="14.00">2</text>
<polygon fill="none" stroke="black" points="916.75,-161 916.75,-184 1070,-184 1070,-161 916.75,-161"/>
<text text-anchor="start" x="981.75" y="-166.7" font-family="arial" font-size="14.00">DB&#45;</text>
<polygon fill="none" stroke="black" points="783.5,-138 783.5,-161 916.75,-161 916.75,-138 783.5,-138"/>
<text text-anchor="start" x="846.38" y="-143.7" font-family="arial" font-size="14.00">3</text>
<polygon fill="none" stroke="black" points="916.75,-138 916.75,-161 1070,-161 1070,-138 916.75,-138"/>
<text text-anchor="start" x="979.88" y="-143.7" font-family="arial" font-size="14.00">DA+</text>
<polygon fill="none" stroke="black" points="783.5,-115 783.5,-138 916.75,-138 916.75,-115 783.5,-115"/>
<text text-anchor="start" x="846.38" y="-120.7" font-family="arial" font-size="14.00">4</text>
<polygon fill="none" stroke="black" points="916.75,-115 916.75,-138 1070,-138 1070,-115 916.75,-115"/>
<text text-anchor="start" x="979.5" y="-120.7" font-family="arial" font-size="14.00">DD+</text>
<polygon fill="none" stroke="black" points="783.5,-92 783.5,-115 916.75,-115 916.75,-92 783.5,-92"/>
<text text-anchor="start" x="846.38" y="-97.7" font-family="arial" font-size="14.00">5</text>
<polygon fill="none" stroke="black" points="916.75,-92 916.75,-115 1070,-115 1070,-92 916.75,-92"/>
<text text-anchor="start" x="981.38" y="-97.7" font-family="arial" font-size="14.00">DD&#45;</text>
<polygon fill="none" stroke="black" points="783.5,-69 783.5,-92 916.75,-92 916.75,-69 783.5,-69"/>
<text text-anchor="start" x="846.38" y="-74.7" font-family="arial" font-size="14.00">6</text>
<polygon fill="none" stroke="black" points="916.75,-69 916.75,-92 1070,-92 1070,-69 916.75,-69"/>
<text text-anchor="start" x="981.75" y="-74.7" font-family="arial" font-size="14.00">DA&#45;</text>
<polygon fill="none" stroke="black" points="783.5,-46 783.5,-69 916.75,-69 916.75,-46 783.5,-46"/>
<text text-anchor="start" x="846.38" y="-51.7" font-family="arial" font-size="14.00">7</text>
<polygon fill="none" stroke="black" points="916.75,-46 916.75,-69 1070,-69 1070,-46 916.75,-46"/>
<text text-anchor="start" x="979.5" y="-51.7" font-family="arial" font-size="14.00">DC+</text>
<polygon fill="none" stroke="black" points="783.5,-23 783.5,-46 916.75,-46 916.75,-23 783.5,-23"/>
<text text-anchor="start" x="846.38" y="-28.7" font-family="arial" font-size="14.00">8</text>
<polygon fill="none" stroke="black" points="916.75,-23 916.75,-46 1070,-46 1070,-23 916.75,-23"/>
<text text-anchor="start" x="981.38" y="-28.7" font-family="arial" font-size="14.00">DC&#45;</text>
</g>
<!-- W1&#45;&#45;X2 -->
<g id="edge17" class="edge">
<title>W1:e&#45;&#45;X2:w</title>
<path fill="none" stroke="#000000" stroke-width="2" d="M639.5,-193C702.96,-196.24 712.18,-148.74 783.5,-145.5"/>
<path fill="none" stroke="#ffffff" stroke-width="2" d="M639.5,-195C704.93,-196.62 714.15,-149.12 783.5,-147.5"/>
<path fill="none" stroke="#00aa00" stroke-width="2" d="M639.5,-197C706.89,-197 716.11,-149.5 783.5,-149.5"/>
<path fill="none" stroke="#ffffff" stroke-width="2" d="M639.5,-199C708.85,-197.38 718.07,-149.88 783.5,-151.5"/>
<path fill="none" stroke="#000000" stroke-width="2" d="M639.5,-201C710.82,-197.76 720.04,-150.26 783.5,-153.5"/>
</g>
<!-- W1&#45;&#45;X2 -->
<g id="edge18" class="edge">
<title>W1:e&#45;&#45;X2:w</title>
<path fill="none" stroke="#000000" stroke-width="2" d="M639.5,-168C711.35,-172.33 703.69,-80.83 783.5,-76.5"/>
<path fill="none" stroke="#00aa00" stroke-width="2" d="M639.5,-170C713.34,-172.17 705.68,-80.67 783.5,-78.5"/>
<path fill="none" stroke="#00aa00" stroke-width="2" d="M639.5,-172C715.33,-172 707.67,-80.5 783.5,-80.5"/>
<path fill="none" stroke="#00aa00" stroke-width="2" d="M639.5,-174C717.32,-171.83 709.66,-80.33 783.5,-82.5"/>
<path fill="none" stroke="#000000" stroke-width="2" d="M639.5,-176C719.32,-171.67 711.66,-80.17 783.5,-84.5"/>
</g>
<!-- W1&#45;&#45;X2 -->
<g id="edge19" class="edge">
<title>W1:e&#45;&#45;X2:w</title>
<path fill="none" stroke="#000000" stroke-width="2" d="M639.5,-143C710.96,-146.28 719.9,-194.78 783.5,-191.5"/>
<path fill="none" stroke="#ffffff" stroke-width="2" d="M639.5,-145C709,-146.64 717.94,-195.14 783.5,-193.5"/>
<path fill="none" stroke="#ff8000" stroke-width="2" d="M639.5,-147C707.03,-147 715.97,-195.5 783.5,-195.5"/>
<path fill="none" stroke="#ffffff" stroke-width="2" d="M639.5,-149C705.06,-147.36 714,-195.86 783.5,-197.5"/>
<path fill="none" stroke="#000000" stroke-width="2" d="M639.5,-151C703.1,-147.73 712.04,-196.23 783.5,-199.5"/>
</g>
<!-- W1&#45;&#45;X2 -->
<g id="edge20" class="edge">
<title>W1:e&#45;&#45;X2:w</title>
<path fill="none" stroke="#000000" stroke-width="2" d="M639.5,-118C705.64,-121.77 709.38,-57.27 783.5,-53.5"/>
<path fill="none" stroke="#0066ff" stroke-width="2" d="M639.5,-120C707.63,-121.89 711.37,-57.39 783.5,-55.5"/>
<path fill="none" stroke="#0066ff" stroke-width="2" d="M639.5,-122C709.63,-122 713.37,-57.5 783.5,-57.5"/>
<path fill="none" stroke="#0066ff" stroke-width="2" d="M639.5,-124C711.63,-122.12 715.37,-57.62 783.5,-59.5"/>
<path fill="none" stroke="#000000" stroke-width="2" d="M639.5,-126C713.62,-122.23 717.36,-57.73 783.5,-61.5"/>
</g>
<!-- W1&#45;&#45;X2 -->
<g id="edge21" class="edge">
<title>W1:e&#45;&#45;X2:w</title>
<path fill="none" stroke="#000000" stroke-width="2" d="M639.5,-93C705.28,-96.72 709.74,-34.22 783.5,-30.5"/>
<path fill="none" stroke="#ffffff" stroke-width="2" d="M639.5,-95C707.28,-96.86 711.74,-34.36 783.5,-32.5"/>
<path fill="none" stroke="#0066ff" stroke-width="2" d="M639.5,-97C709.27,-97 713.73,-34.5 783.5,-34.5"/>
<path fill="none" stroke="#ffffff" stroke-width="2" d="M639.5,-99C711.27,-97.14 715.73,-34.64 783.5,-36.5"/>
<path fill="none" stroke="#000000" stroke-width="2" d="M639.5,-101C713.26,-97.29 717.72,-34.79 783.5,-38.5"/>
</g>
<!-- W1&#45;&#45;X2 -->
<g id="edge22" class="edge">
<title>W1:e&#45;&#45;X2:w</title>
<path fill="none" stroke="#000000" stroke-width="2" d="M639.5,-68C721.52,-72.48 709.42,-172.98 783.5,-168.5"/>
<path fill="none" stroke="#ff8000" stroke-width="2" d="M639.5,-70C719.54,-72.24 707.44,-172.74 783.5,-170.5"/>
<path fill="none" stroke="#ff8000" stroke-width="2" d="M639.5,-72C717.55,-72 705.45,-172.5 783.5,-172.5"/>
<path fill="none" stroke="#ff8000" stroke-width="2" d="M639.5,-74C715.57,-71.76 703.47,-172.26 783.5,-174.5"/>
<path fill="none" stroke="#000000" stroke-width="2" d="M639.5,-76C713.58,-71.52 701.48,-172.02 783.5,-176.5"/>
</g>
<!-- W1&#45;&#45;X2 -->
<g id="edge23" class="edge">
<title>W1:e&#45;&#45;X2:w</title>
<path fill="none" stroke="#000000" stroke-width="2" d="M639.5,-43C716.61,-47.11 714.39,-126.61 783.5,-122.5"/>
<path fill="none" stroke="#ffffff" stroke-width="2" d="M639.5,-45C714.61,-47.06 712.39,-126.56 783.5,-124.5"/>
<path fill="none" stroke="#895956" stroke-width="2" d="M639.5,-47C712.61,-47 710.39,-126.5 783.5,-126.5"/>
<path fill="none" stroke="#ffffff" stroke-width="2" d="M639.5,-49C710.61,-46.94 708.39,-126.44 783.5,-128.5"/>
<path fill="none" stroke="#000000" stroke-width="2" d="M639.5,-51C708.61,-46.89 706.39,-126.39 783.5,-130.5"/>
</g>
<!-- W1&#45;&#45;X2 -->
<g id="edge24" class="edge">
<title>W1:e&#45;&#45;X2:w</title>
<path fill="none" stroke="#000000" stroke-width="2" d="M639.5,-18C717.04,-22.15 713.96,-103.65 783.5,-99.5"/>
<path fill="none" stroke="#895956" stroke-width="2" d="M639.5,-20C715.04,-22.08 711.96,-103.58 783.5,-101.5"/>
<path fill="none" stroke="#895956" stroke-width="2" d="M639.5,-22C713.04,-22 709.96,-103.5 783.5,-103.5"/>
<path fill="none" stroke="#895956" stroke-width="2" d="M639.5,-24C711.04,-21.93 707.96,-103.43 783.5,-105.5"/>
<path fill="none" stroke="#000000" stroke-width="2" d="M639.5,-26C709.04,-21.85 705.96,-103.35 783.5,-107.5"/>
</g>
</g>
</svg>
