<?xml version="1.0" encoding="UTF-8" standalone="no"?>
<!DOCTYPE svg PUBLIC "-//W3C//DTD SVG 1.1//EN"
 "http://www.w3.org/Graphics/SVG/1.1/DTD/svg11.dtd">
<!-- Generated by graphviz version 2.38.0 (20140413.2041)
 -->
<!-- Title: %3 Pages: 1 -->
<svg width="1071pt" height="290pt"
 viewBox="0.00 0.00 1071.00 290.00" xmlns="http://www.w3.org/2000/svg" xmlns:xlink="http://www.w3.org/1999/xlink">
<g id="graph0" class="graph" transform="scale(1 1) rotate(0) translate(4 286)">
<title>%3</title>
<polygon fill="#fffbf8" stroke="none" points="-4,4 -4,-286 1067,-286 1067,4 -4,4"/>
<!-- X1 -->
<g id="node1" class="node"><title>X1</title>
<polygon fill="white" stroke="black" points="0,-19 0,-249 327,-249 327,-19 0,-19"/>
<text text-anchor="middle" x="163.5" y="-233.8" font-family="arial" font-size="14.00">X1</text>
<polyline fill="none" stroke="black" points="0,-226 327,-226 "/>
<text text-anchor="middle" x="116" y="-210.8" font-family="arial" font-size="14.00">Stewart Connector SS&#45;37000&#45;002</text>
<polyline fill="none" stroke="black" points="232,-203 232,-226 "/>
<text text-anchor="middle" x="255.5" y="-210.8" font-family="arial" font-size="14.00">male</text>
<polyline fill="none" stroke="black" points="279,-203 279,-226 "/>
<text text-anchor="middle" x="303" y="-210.8" font-family="arial" font-size="14.00">8&#45;pin</text>
<polyline fill="none" stroke="black" points="0,-203 327,-203 "/>
<text text-anchor="middle" x="87" y="-187.8" font-family="arial" font-size="14.00">DA+</text>
<polyline fill="none" stroke="black" points="0,-180 174,-180 "/>
<text text-anchor="middle" x="87" y="-164.8" font-family="arial" font-size="14.00">DA&#45;</text>
<polyline fill="none" stroke="black" points="0,-157 174,-157 "/>
<text text-anchor="middle" x="87" y="-141.8" font-family="arial" font-size="14.00">DB+</text>
<polyline fill="none" stroke="black" points="0,-134 174,-134 "/>
<text text-anchor="middle" x="87" y="-118.8" font-family="arial" font-size="14.00">DC+</text>
<polyline fill="none" stroke="black" points="0,-111 174,-111 "/>
<text text-anchor="middle" x="87" y="-95.8" font-family="arial" font-size="14.00">DC&#45;</text>
<polyline fill="none" stroke="black" points="0,-88 174,-88 "/>
<text text-anchor="middle" x="87" y="-72.8" font-family="arial" font-size="14.00">DB&#45;</text>
<polyline fill="none" stroke="black" points="0,-65 174,-65 "/>
<text text-anchor="middle" x="87" y="-49.8" font-family="arial" font-size="14.00">DD+</text>
<polyline fill="none" stroke="black" points="0,-42 174,-42 "/>
<text text-anchor="middle" x="87" y="-26.8" font-family="arial" font-size="14.00">DD&#45;</text>
<polyline fill="none" stroke="black" points="174,-19 174,-203 "/>
<text text-anchor="middle" x="250.5" y="-187.8" font-family="arial" font-size="14.00">1</text>
<polyline fill="none" stroke="black" points="174,-180 327,-180 "/>
<text text-anchor="middle" x="250.5" y="-164.8" font-family="arial" font-size="14.00">2</text>
<polyline fill="none" stroke="black" points="174,-157 327,-157 "/>
<text text-anchor="middle" x="250.5" y="-141.8" font-family="arial" font-size="14.00">3</text>
<polyline fill="none" stroke="black" points="174,-134 327,-134 "/>
<text text-anchor="middle" x="250.5" y="-118.8" font-family="arial" font-size="14.00">4</text>
<polyline fill="none" stroke="black" points="174,-111 327,-111 "/>
<text text-anchor="middle" x="250.5" y="-95.8" font-family="arial" font-size="14.00">5</text>
<polyline fill="none" stroke="black" points="174,-88 327,-88 "/>
<text text-anchor="middle" x="250.5" y="-72.8" font-family="arial" font-size="14.00">6</text>
<polyline fill="none" stroke="black" points="174,-65 327,-65 "/>
<text text-anchor="middle" x="250.5" y="-49.8" font-family="arial" font-size="14.00">7</text>
<polyline fill="none" stroke="black" points="174,-42 327,-42 "/>
<text text-anchor="middle" x="250.5" y="-26.8" font-family="arial" font-size="14.00">8</text>
</g>
<!-- W1 -->
<g id="node3" class="node"><title>W1</title>
<polygon fill="none" stroke="black" points="592,-282 471,-282 471,-0 592,-0 592,-282"/>
<polygon fill="none" stroke="black" points="471.5,-259 471.5,-282 592.5,-282 592.5,-259 471.5,-259"/>
<text text-anchor="start" x="520.5" y="-266.8" font-family="arial" font-size="14.00">W1</text>
<polygon fill="none" stroke="black" points="471.5,-236 471.5,-259 495.5,-259 495.5,-236 471.5,-236"/>
<text text-anchor="start" x="475.5" y="-243.8" font-family="arial" font-size="14.00">8x</text>
<polygon fill="none" stroke="black" points="495.5,-236 495.5,-259 559.5,-259 559.5,-236 495.5,-236"/>
<text text-anchor="start" x="499.5" y="-243.8" font-family="arial" font-size="14.00">24 AWG</text>
<polygon fill="none" stroke="black" points="559.5,-236 559.5,-259 592.5,-259 592.5,-236 559.5,-236"/>
<text text-anchor="start" x="563.5" y="-243.8" font-family="arial" font-size="14.00">1 m</text>
<text text-anchor="start" x="473.5" y="-222.8" font-family="arial" font-size="14.00">X1:1</text>
<text text-anchor="start" x="509" y="-222.8" font-family="arial" font-size="14.00">WHGN</text>
<text text-anchor="start" x="559.5" y="-222.8" font-family="arial" font-size="14.00">X2:3</text>
<polyline fill="none" stroke="black" stroke-width="2" points="472.5,-208 591.5,-208 "/>
<polyline fill="none" stroke="black" stroke-width="2" points="591.5,-216 472.5,-216 "/>
<polygon fill="#ffffff" stroke="none" stroke-width="2" points="473.5,-209 473.5,-215 512.5,-215 512.5,-209 473.5,-209"/>
<polygon fill="#00ff00" stroke="none" stroke-width="2" points="512.5,-209 512.5,-215 551.5,-215 551.5,-209 512.5,-209"/>
<polygon fill="#ffffff" stroke="none" stroke-width="2" points="551.5,-209 551.5,-215 590.5,-215 590.5,-209 551.5,-209"/>
<text text-anchor="start" x="473.5" y="-193.8" font-family="arial" font-size="14.00">X1:2</text>
<text text-anchor="start" x="521" y="-193.8" font-family="arial" font-size="14.00">GN</text>
<text text-anchor="start" x="559.5" y="-193.8" font-family="arial" font-size="14.00">X2:6</text>
<polyline fill="none" stroke="black" stroke-width="2" points="472.5,-179 591.5,-179 "/>
<polyline fill="none" stroke="black" stroke-width="2" points="591.5,-187 472.5,-187 "/>
<polygon fill="#00ff00" stroke="none" stroke-width="2" points="473.5,-180 473.5,-186 590.5,-186 590.5,-180 473.5,-180"/>
<text text-anchor="start" x="473.5" y="-164.8" font-family="arial" font-size="14.00">X1:3</text>
<text text-anchor="start" x="508.5" y="-164.8" font-family="arial" font-size="14.00">WHOG</text>
<text text-anchor="start" x="559.5" y="-164.8" font-family="arial" font-size="14.00">X2:1</text>
<polyline fill="none" stroke="black" stroke-width="2" points="472.5,-150 591.5,-150 "/>
<polyline fill="none" stroke="black" stroke-width="2" points="591.5,-158 472.5,-158 "/>
<polygon fill="#ffffff" stroke="none" stroke-width="2" points="473.5,-151 473.5,-157 512.5,-157 512.5,-151 473.5,-151"/>
<polygon fill="#ff8000" stroke="none" stroke-width="2" points="512.5,-151 512.5,-157 551.5,-157 551.5,-151 512.5,-151"/>
<polygon fill="#ffffff" stroke="none" stroke-width="2" points="551.5,-151 551.5,-157 590.5,-157 590.5,-151 551.5,-151"/>
<text text-anchor="start" x="473.5" y="-135.8" font-family="arial" font-size="14.00">X1:4</text>
<text text-anchor="start" x="522" y="-135.8" font-family="arial" font-size="14.00">BU</text>
<text text-anchor="start" x="559.5" y="-135.8" font-family="arial" font-size="14.00">X2:7</text>
<polyline fill="none" stroke="black" stroke-width="2" points="472.5,-121 591.5,-121 "/>
<polyline fill="none" stroke="black" stroke-width="2" points="591.5,-129 472.5,-129 "/>
<polygon fill="#0066ff" stroke="none" stroke-width="2" points="473.5,-122 473.5,-128 590.5,-128 590.5,-122 473.5,-122"/>
<text text-anchor="start" x="473.5" y="-106.8" font-family="arial" font-size="14.00">X1:5</text>
<text text-anchor="start" x="510" y="-106.8" font-family="arial" font-size="14.00">WHBU</text>
<text text-anchor="start" x="559.5" y="-106.8" font-family="arial" font-size="14.00">X2:8</text>
<polyline fill="none" stroke="black" stroke-width="2" points="472.5,-92 591.5,-92 "/>
<polyline fill="none" stroke="black" stroke-width="2" points="591.5,-100 472.5,-100 "/>
<polygon fill="#ffffff" stroke="none" stroke-width="2" points="473.5,-93 473.5,-99 512.5,-99 512.5,-93 473.5,-93"/>
<polygon fill="#0066ff" stroke="none" stroke-width="2" points="512.5,-93 512.5,-99 551.5,-99 551.5,-93 512.5,-93"/>
<polygon fill="#ffffff" stroke="none" stroke-width="2" points="551.5,-93 551.5,-99 590.5,-99 590.5,-93 551.5,-93"/>
<text text-anchor="start" x="473.5" y="-77.8" font-family="arial" font-size="14.00">X1:6</text>
<text text-anchor="start" x="520.5" y="-77.8" font-family="arial" font-size="14.00">OG</text>
<text text-anchor="start" x="559.5" y="-77.8" font-family="arial" font-size="14.00">X2:2</text>
<polyline fill="none" stroke="black" stroke-width="2" points="472.5,-63 591.5,-63 "/>
<polyline fill="none" stroke="black" stroke-width="2" points="591.5,-71 472.5,-71 "/>
<polygon fill="#ff8000" stroke="none" stroke-width="2" points="473.5,-64 473.5,-70 590.5,-70 590.5,-64 473.5,-64"/>
<text text-anchor="start" x="473.5" y="-48.8" font-family="arial" font-size="14.00">X1:7</text>
<text text-anchor="start" x="510" y="-48.8" font-family="arial" font-size="14.00">WHBN</text>
<text text-anchor="start" x="559.5" y="-48.8" font-family="arial" font-size="14.00">X2:4</text>
<polyline fill="none" stroke="black" stroke-width="2" points="472.5,-34 591.5,-34 "/>
<polyline fill="none" stroke="black" stroke-width="2" points="591.5,-42 472.5,-42 "/>
<polygon fill="#ffffff" stroke="none" stroke-width="2" points="473.5,-35 473.5,-41 512.5,-41 512.5,-35 473.5,-35"/>
<polygon fill="#a52a2a" stroke="none" stroke-width="2" points="512.5,-35 512.5,-41 551.5,-41 551.5,-35 512.5,-35"/>
<polygon fill="#ffffff" stroke="none" stroke-width="2" points="551.5,-35 551.5,-41 590.5,-41 590.5,-35 551.5,-35"/>
<text text-anchor="start" x="473.5" y="-19.8" font-family="arial" font-size="14.00">X1:8</text>
<text text-anchor="start" x="522" y="-19.8" font-family="arial" font-size="14.00">BN</text>
<text text-anchor="start" x="559.5" y="-19.8" font-family="arial" font-size="14.00">X2:5</text>
<polyline fill="none" stroke="black" stroke-width="2" points="472.5,-5 591.5,-5 "/>
<polyline fill="none" stroke="black" stroke-width="2" points="591.5,-13 472.5,-13 "/>
<polygon fill="#a52a2a" stroke="none" stroke-width="2" points="473.5,-6 473.5,-12 590.5,-12 590.5,-6 473.5,-6"/>
</g>
<!-- X1&#45;&#45;W1 -->
<g id="edge1" class="edge"><title>X1:p1r:e&#45;&#45;W1:w1:w</title>
<path fill="none" stroke="#000000" stroke-width="2" d="M327,-188C394.832,-189.624 409.603,-209.624 471,-208"/>
<path fill="none" stroke="#ffffff" stroke-width="2" d="M327,-190C393.223,-190.812 407.994,-210.812 471,-210"/>
<path fill="none" stroke="#00ff00" stroke-width="2" d="M327,-192C391.614,-192 406.386,-212 471,-212"/>
<path fill="none" stroke="#ffffff" stroke-width="2" d="M327,-194C390.006,-193.188 404.777,-213.188 471,-214"/>
<path fill="none" stroke="#000000" stroke-width="2" d="M327,-196C388.397,-194.376 403.168,-214.376 471,-216"/>
</g>
<!-- X1&#45;&#45;W1 -->
<g id="edge3" class="edge"><title>X1:p2r:e&#45;&#45;W1:w2:w</title>
<path fill="none" stroke="#000000" stroke-width="2" d="M327,-167C392.647,-167.52 408.044,-181.52 471,-181"/>
<path fill="none" stroke="#00ff00" stroke-width="2" d="M327,-169C391.302,-169 406.698,-183 471,-183"/>
<path fill="none" stroke="#000000" stroke-width="2" d="M327,-171C389.956,-170.48 405.353,-184.48 471,-185"/>
</g>
<!-- X1&#45;&#45;W1 -->
<g id="edge5" class="edge"><title>X1:p3r:e&#45;&#45;W1:w3:w</title>
<path fill="none" stroke="#000000" stroke-width="2" d="M327,-142C392.905,-142.431 408.708,-150.431 471,-150"/>
<path fill="none" stroke="#ffffff" stroke-width="2" d="M327,-144C392.002,-144.216 407.805,-152.216 471,-152"/>
<path fill="none" stroke="#ff8000" stroke-width="2" d="M327,-146C391.099,-146 406.901,-154 471,-154"/>
<path fill="none" stroke="#ffffff" stroke-width="2" d="M327,-148C390.195,-147.784 405.998,-155.784 471,-156"/>
<path fill="none" stroke="#000000" stroke-width="2" d="M327,-150C389.292,-149.569 405.095,-157.569 471,-158"/>
</g>
<!-- X1&#45;&#45;W1 -->
<g id="edge7" class="edge"><title>X1:p4r:e&#45;&#45;W1:w4:w</title>
<path fill="none" stroke="#000000" stroke-width="2" d="M327,-120C391.383,-120.034 407.355,-123.034 471,-123"/>
<path fill="none" stroke="#0066ff" stroke-width="2" d="M327,-122C391.014,-122 406.986,-125 471,-125"/>
<path fill="none" stroke="#000000" stroke-width="2" d="M327,-124C390.645,-123.966 406.617,-126.966 471,-127"/>
</g>
<!-- X1&#45;&#45;W1 -->
<g id="edge9" class="edge"><title>X1:p5r:e&#45;&#45;W1:w5:w</title>
<path fill="none" stroke="#000000" stroke-width="2" d="M327,-95C390.275,-95.0687 406.248,-92.0687 471,-92"/>
<path fill="none" stroke="#ffffff" stroke-width="2" d="M327,-97C390.645,-97.0344 406.617,-94.0344 471,-94"/>
<path fill="none" stroke="#0066ff" stroke-width="2" d="M327,-99C391.014,-99 406.986,-96 471,-96"/>
<path fill="none" stroke="#ffffff" stroke-width="2" d="M327,-101C391.383,-100.966 407.355,-97.9656 471,-98"/>
<path fill="none" stroke="#000000" stroke-width="2" d="M327,-103C391.752,-102.931 407.725,-99.9313 471,-100"/>
</g>
<!-- X1&#45;&#45;W1 -->
<g id="edge11" class="edge"><title>X1:p6r:e&#45;&#45;W1:w6:w</title>
<path fill="none" stroke="#000000" stroke-width="2" d="M327,-74C390.133,-74.2635 405.883,-65.2635 471,-65"/>
<path fill="none" stroke="#ff8000" stroke-width="2" d="M327,-76C391.125,-76 406.875,-67 471,-67"/>
<path fill="none" stroke="#000000" stroke-width="2" d="M327,-78C392.117,-77.7365 407.867,-68.7365 471,-69"/>
</g>
<!-- X1&#45;&#45;W1 -->
<g id="edge13" class="edge"><title>X1:p7r:e&#45;&#45;W1:w7:w</title>
<path fill="none" stroke="#000000" stroke-width="2" d="M327,-49C388.547,-50.143 403.854,-35.143 471,-34"/>
<path fill="none" stroke="#ffffff" stroke-width="2" d="M327,-51C389.946,-51.5715 405.254,-36.5715 471,-36"/>
<path fill="none" stroke="#a52a2a" stroke-width="2" d="M327,-53C391.346,-53 406.654,-38 471,-38"/>
<path fill="none" stroke="#ffffff" stroke-width="2" d="M327,-55C392.746,-54.4285 408.054,-39.4285 471,-40"/>
<path fill="none" stroke="#000000" stroke-width="2" d="M327,-57C394.146,-55.857 409.453,-40.857 471,-42"/>
</g>
<!-- X1&#45;&#45;W1 -->
<g id="edge15" class="edge"><title>X1:p8r:e&#45;&#45;W1:w8:w</title>
<path fill="none" stroke="#000000" stroke-width="2" d="M327,-28C390.037,-28.8559 404.683,-7.85591 471,-7"/>
<path fill="none" stroke="#a52a2a" stroke-width="2" d="M327,-30C391.677,-30 406.323,-9 471,-9"/>
<path fill="none" stroke="#000000" stroke-width="2" d="M327,-32C393.317,-31.1441 407.963,-10.1441 471,-11"/>
</g>
<!-- X2 -->
<g id="node2" class="node"><title>X2</title>
<polygon fill="white" stroke="black" points="736,-33 736,-263 1063,-263 1063,-33 736,-33"/>
<text text-anchor="middle" x="899.5" y="-247.8" font-family="arial" font-size="14.00">X2</text>
<polyline fill="none" stroke="black" points="736,-240 1063,-240 "/>
<text text-anchor="middle" x="852" y="-224.8" font-family="arial" font-size="14.00">Stewart Connector SS&#45;37000&#45;002</text>
<polyline fill="none" stroke="black" points="968,-217 968,-240 "/>
<text text-anchor="middle" x="991.5" y="-224.8" font-family="arial" font-size="14.00">male</text>
<polyline fill="none" stroke="black" points="1015,-217 1015,-240 "/>
<text text-anchor="middle" x="1039" y="-224.8" font-family="arial" font-size="14.00">8&#45;pin</text>
<polyline fill="none" stroke="black" points="736,-217 1063,-217 "/>
<text text-anchor="middle" x="812.5" y="-201.8" font-family="arial" font-size="14.00">1</text>
<polyline fill="none" stroke="black" points="736,-194 889,-194 "/>
<text text-anchor="middle" x="812.5" y="-178.8" font-family="arial" font-size="14.00">2</text>
<polyline fill="none" stroke="black" points="736,-171 889,-171 "/>
<text text-anchor="middle" x="812.5" y="-155.8" font-family="arial" font-size="14.00">3</text>
<polyline fill="none" stroke="black" points="736,-148 889,-148 "/>
<text text-anchor="middle" x="812.5" y="-132.8" font-family="arial" font-size="14.00">4</text>
<polyline fill="none" stroke="black" points="736,-125 889,-125 "/>
<text text-anchor="middle" x="812.5" y="-109.8" font-family="arial" font-size="14.00">5</text>
<polyline fill="none" stroke="black" points="736,-102 889,-102 "/>
<text text-anchor="middle" x="812.5" y="-86.8" font-family="arial" font-size="14.00">6</text>
<polyline fill="none" stroke="black" points="736,-79 889,-79 "/>
<text text-anchor="middle" x="812.5" y="-63.8" font-family="arial" font-size="14.00">7</text>
<polyline fill="none" stroke="black" points="736,-56 889,-56 "/>
<text text-anchor="middle" x="812.5" y="-40.8" font-family="arial" font-size="14.00">8</text>
<polyline fill="none" stroke="black" points="889,-33 889,-217 "/>
<text text-anchor="middle" x="976" y="-201.8" font-family="arial" font-size="14.00">DB+</text>
<polyline fill="none" stroke="black" points="889,-194 1063,-194 "/>
<text text-anchor="middle" x="976" y="-178.8" font-family="arial" font-size="14.00">DB&#45;</text>
<polyline fill="none" stroke="black" points="889,-171 1063,-171 "/>
<text text-anchor="middle" x="976" y="-155.8" font-family="arial" font-size="14.00">DA+</text>
<polyline fill="none" stroke="black" points="889,-148 1063,-148 "/>
<text text-anchor="middle" x="976" y="-132.8" font-family="arial" font-size="14.00">DD+</text>
<polyline fill="none" stroke="black" points="889,-125 1063,-125 "/>
<text text-anchor="middle" x="976" y="-109.8" font-family="arial" font-size="14.00">DD&#45;</text>
<polyline fill="none" stroke="black" points="889,-102 1063,-102 "/>
<text text-anchor="middle" x="976" y="-86.8" font-family="arial" font-size="14.00">DA&#45;</text>
<polyline fill="none" stroke="black" points="889,-79 1063,-79 "/>
<text text-anchor="middle" x="976" y="-63.8" font-family="arial" font-size="14.00">DC+</text>
<polyline fill="none" stroke="black" points="889,-56 1063,-56 "/>
<text text-anchor="middle" x="976" y="-40.8" font-family="arial" font-size="14.00">DC&#45;</text>
</g>
<!-- W1&#45;&#45;X2 -->
<g id="edge2" class="edge"><title>W1:w1:e&#45;&#45;X2:p3l:w</title>
<path fill="none" stroke="#000000" stroke-width="2" d="M592,-208C656.091,-211.398 664,-159.398 736,-156"/>
<path fill="none" stroke="#ffffff" stroke-width="2" d="M592,-210C658.068,-211.699 665.978,-159.699 736,-158"/>
<path fill="none" stroke="#00ff00" stroke-width="2" d="M592,-212C660.045,-212 667.955,-160 736,-160"/>
<path fill="none" stroke="#ffffff" stroke-width="2" d="M592,-214C662.022,-212.301 669.932,-160.301 736,-162"/>
<path fill="none" stroke="#000000" stroke-width="2" d="M592,-216C664,-212.602 671.909,-160.602 736,-164"/>
</g>
<!-- W1&#45;&#45;X2 -->
<g id="edge4" class="edge"><title>W1:w2:e&#45;&#45;X2:p6l:w</title>
<path fill="none" stroke="#000000" stroke-width="2" d="M592,-181C666.195,-183.179 657.821,-90.1794 736,-88"/>
<path fill="none" stroke="#00ff00" stroke-width="2" d="M592,-183C668.187,-183 659.813,-90 736,-90"/>
<path fill="none" stroke="#000000" stroke-width="2" d="M592,-185C670.179,-182.821 661.805,-89.8206 736,-92"/>
</g>
<!-- W1&#45;&#45;X2 -->
<g id="edge6" class="edge"><title>W1:w3:e&#45;&#45;X2:p1l:w</title>
<path fill="none" stroke="#000000" stroke-width="2" d="M592,-150C664,-153.398 671.909,-205.398 736,-202"/>
<path fill="none" stroke="#ffffff" stroke-width="2" d="M592,-152C662.022,-153.699 669.932,-205.699 736,-204"/>
<path fill="none" stroke="#ff8000" stroke-width="2" d="M592,-154C660.045,-154 667.955,-206 736,-206"/>
<path fill="none" stroke="#ffffff" stroke-width="2" d="M592,-156C658.068,-154.301 665.978,-206.301 736,-208"/>
<path fill="none" stroke="#000000" stroke-width="2" d="M592,-158C656.091,-154.602 664,-206.602 736,-210"/>
</g>
<!-- W1&#45;&#45;X2 -->
<g id="edge8" class="edge"><title>W1:w4:e&#45;&#45;X2:p7l:w</title>
<path fill="none" stroke="#000000" stroke-width="2" d="M592,-123C659.007,-124.794 665.014,-66.794 736,-65"/>
<path fill="none" stroke="#0066ff" stroke-width="2" d="M592,-125C660.996,-125 667.004,-67 736,-67"/>
<path fill="none" stroke="#000000" stroke-width="2" d="M592,-127C662.986,-125.206 668.993,-67.206 736,-69"/>
</g>
<!-- W1&#45;&#45;X2 -->
<g id="edge10" class="edge"><title>W1:w5:e&#45;&#45;X2:p8l:w</title>
<path fill="none" stroke="#000000" stroke-width="2" d="M592,-92C656.091,-95.3985 664,-43.3985 736,-40"/>
<path fill="none" stroke="#ffffff" stroke-width="2" d="M592,-94C658.068,-95.6992 665.978,-43.6992 736,-42"/>
<path fill="none" stroke="#0066ff" stroke-width="2" d="M592,-96C660.045,-96 667.955,-44 736,-44"/>
<path fill="none" stroke="#ffffff" stroke-width="2" d="M592,-98C662.022,-96.3008 669.932,-44.3008 736,-46"/>
<path fill="none" stroke="#000000" stroke-width="2" d="M592,-100C664,-96.6015 671.909,-44.6015 736,-48"/>
</g>
<!-- W1&#45;&#45;X2 -->
<g id="edge12" class="edge"><title>W1:w6:e&#45;&#45;X2:p2l:w</title>
<path fill="none" stroke="#000000" stroke-width="2" d="M592,-65C676.152,-67.3458 655.787,-183.346 736,-181"/>
<path fill="none" stroke="#ff8000" stroke-width="2" d="M592,-67C674.183,-67 653.817,-183 736,-183"/>
<path fill="none" stroke="#000000" stroke-width="2" d="M592,-69C672.213,-66.6542 651.848,-182.654 736,-185"/>
</g>
<!-- W1&#45;&#45;X2 -->
<g id="edge14" class="edge"><title>W1:w7:e&#45;&#45;X2:p4l:w</title>
<path fill="none" stroke="#000000" stroke-width="2" d="M592,-34C673.391,-38.4394 662.561,-136.439 736,-132"/>
<path fill="none" stroke="#ffffff" stroke-width="2" d="M592,-36C671.403,-38.2197 660.573,-136.22 736,-134"/>
<path fill="none" stroke="#a52a2a" stroke-width="2" d="M592,-38C669.415,-38 658.585,-136 736,-136"/>
<path fill="none" stroke="#ffffff" stroke-width="2" d="M592,-40C667.427,-37.7803 656.597,-135.78 736,-138"/>
<path fill="none" stroke="#000000" stroke-width="2" d="M592,-42C665.439,-37.5606 654.609,-135.561 736,-140"/>
</g>
<!-- W1&#45;&#45;X2 -->
<g id="edge16" class="edge"><title>W1:w8:e&#45;&#45;X2:p5l:w</title>
<path fill="none" stroke="#000000" stroke-width="2" d="M592,-7C672.929,-9.26481 659.036,-113.265 736,-111"/>
<path fill="none" stroke="#a52a2a" stroke-width="2" d="M592,-9C670.946,-9 657.054,-113 736,-113"/>
<path fill="none" stroke="#000000" stroke-width="2" d="M592,-11C668.964,-8.73519 655.071,-112.735 736,-115"/>
</g>
</g>
</svg>
