<?xml version="1.0" encoding="UTF-8" standalone="no"?>
<!DOCTYPE svg PUBLIC "-//W3C//DTD SVG 1.1//EN"
 "http://www.w3.org/Graphics/SVG/1.1/DTD/svg11.dtd">
<!-- Generated by graphviz version 11.0.0 (20240428.1522)
 -->
<!-- Pages: 1 -->
<svg width="683pt" height="224pt"
 viewBox="0.00 0.00 683.00 223.75" xmlns="http://www.w3.org/2000/svg" xmlns:xlink="http://www.w3.org/1999/xlink">
<g id="graph0" class="graph" transform="scale(1 1) rotate(0) translate(4 219.75)">
<polygon fill="#ffffff" stroke="none" points="-4,4 -4,-219.75 679,-219.75 679,4 -4,4"/>
<!-- AUTOGENERATED_F_1 -->
<g id="node1" class="node">
<title>AUTOGENERATED_F_1</title>
<polygon fill="#ffffff" stroke="black" points="301.25,-171.5 212,-171.5 212,-147 301.25,-147 301.25,-171.5"/>
<polygon fill="#ffffff" stroke="none" points="212,-147 212,-171.5 301.25,-171.5 301.25,-147 212,-147"/>
<polygon fill="none" stroke="black" points="212,-147 212,-171.5 265,-171.5 265,-147 212,-147"/>
<text text-anchor="start" x="216" y="-154.2" font-family="arial" font-size="14.00">Ferrule</text>
<polygon fill="none" stroke="black" points="265,-147 265,-171.5 293.25,-171.5 293.25,-147 265,-147"/>
<text text-anchor="start" x="269" y="-154.2" font-family="arial" font-size="14.00">GY</text>
<polygon fill="#999999" stroke="none" points="293.25,-147 293.25,-171.5 301.25,-171.5 301.25,-147 293.25,-147"/>
<polygon fill="none" stroke="black" points="293.25,-147 293.25,-171.5 301.25,-171.5 301.25,-147 293.25,-147"/>
</g>
<!-- X1 -->
<g id="node2" class="node">
<title>X1</title>
<polygon fill="#ffffff" stroke="black" points="675,-181.75 445.25,-181.75 445.25,-36.75 675,-36.75 675,-181.75"/>
<polygon fill="#ffffff" stroke="none" points="445.25,-36.75 445.25,-181.75 675,-181.75 675,-36.75 445.25,-36.75"/>
<polygon fill="none" stroke="black" points="445.25,-157.25 445.25,-181.75 675,-181.75 675,-157.25 445.25,-157.25"/>
<text text-anchor="start" x="551.12" y="-164.45" font-family="arial" font-size="14.00">X1</text>
<polygon fill="none" stroke="black" points="445.25,-132.75 445.25,-157.25 559.75,-157.25 559.75,-132.75 445.25,-132.75"/>
<text text-anchor="start" x="449.25" y="-139.95" font-family="arial" font-size="14.00">Screw connector</text>
<polygon fill="none" stroke="black" points="559.75,-132.75 559.75,-157.25 598.5,-157.25 598.5,-132.75 559.75,-132.75"/>
<text text-anchor="start" x="563.75" y="-139.95" font-family="arial" font-size="14.00">male</text>
<polygon fill="none" stroke="black" points="598.5,-132.75 598.5,-157.25 638,-157.25 638,-132.75 598.5,-132.75"/>
<text text-anchor="start" x="602.5" y="-139.95" font-family="arial" font-size="14.00">4&#45;pin</text>
<polygon fill="none" stroke="black" points="638,-132.75 638,-157.25 667,-157.25 667,-132.75 638,-132.75"/>
<text text-anchor="start" x="642" y="-139.95" font-family="arial" font-size="14.00">GN</text>
<polygon fill="#00aa00" stroke="none" points="667,-132.75 667,-157.25 675,-157.25 675,-132.75 667,-132.75"/>
<polygon fill="none" stroke="black" points="667,-132.75 667,-157.25 675,-157.25 675,-132.75 667,-132.75"/>
<polygon fill="none" stroke="black" points="445.25,-108.75 445.25,-132.75 559.12,-132.75 559.12,-108.75 445.25,-108.75"/>
<text text-anchor="start" x="498.06" y="-115.45" font-family="arial" font-size="14.00">1</text>
<polygon fill="none" stroke="black" points="559.12,-108.75 559.12,-132.75 675,-132.75 675,-108.75 559.12,-108.75"/>
<text text-anchor="start" x="612.19" y="-115.45" font-family="arial" font-size="14.00">A</text>
<polygon fill="none" stroke="black" points="445.25,-84.75 445.25,-108.75 559.12,-108.75 559.12,-84.75 445.25,-84.75"/>
<text text-anchor="start" x="498.06" y="-91.45" font-family="arial" font-size="14.00">2</text>
<polygon fill="none" stroke="black" points="559.12,-84.75 559.12,-108.75 675,-108.75 675,-84.75 559.12,-84.75"/>
<text text-anchor="start" x="612.19" y="-91.45" font-family="arial" font-size="14.00">B</text>
<polygon fill="none" stroke="black" points="445.25,-60.75 445.25,-84.75 559.12,-84.75 559.12,-60.75 445.25,-60.75"/>
<text text-anchor="start" x="498.06" y="-67.45" font-family="arial" font-size="14.00">3</text>
<polygon fill="none" stroke="black" points="559.12,-60.75 559.12,-84.75 675,-84.75 675,-60.75 559.12,-60.75"/>
<text text-anchor="start" x="611.81" y="-67.45" font-family="arial" font-size="14.00">C</text>
<polygon fill="none" stroke="black" points="445.25,-36.75 445.25,-60.75 559.12,-60.75 559.12,-36.75 445.25,-36.75"/>
<text text-anchor="start" x="498.06" y="-43.45" font-family="arial" font-size="14.00">4</text>
<polygon fill="none" stroke="black" points="559.12,-36.75 559.12,-60.75 675,-60.75 675,-36.75 559.12,-36.75"/>
<text text-anchor="start" x="611.81" y="-43.45" font-family="arial" font-size="14.00">D</text>
</g>
<!-- AUTOGENERATED_F_1&#45;&#45;X1 -->
<g id="edge1" class="edge">
<title>AUTOGENERATED_F_1:e&#45;&#45;X1:w</title>
<path fill="none" stroke="#000000" stroke-dasharray="5,2" d="M301.25,-159.25C363.49,-159.25 377.4,-125.27 433.8,-121.16"/>
<polygon fill="#000000" stroke="#000000" points="433.86,-124.66 443.73,-120.8 433.61,-117.66 433.86,-124.66"/>
</g>
<!-- AUTOGENERATED_F_2 -->
<g id="node3" class="node">
<title>AUTOGENERATED_F_2</title>
<polygon fill="#ffffff" stroke="black" points="301.25,-122.5 212,-122.5 212,-98 301.25,-98 301.25,-122.5"/>
<polygon fill="#ffffff" stroke="none" points="212,-98 212,-122.5 301.25,-122.5 301.25,-98 212,-98"/>
<polygon fill="none" stroke="black" points="212,-98 212,-122.5 265,-122.5 265,-98 212,-98"/>
<text text-anchor="start" x="216" y="-105.2" font-family="arial" font-size="14.00">Ferrule</text>
<polygon fill="none" stroke="black" points="265,-98 265,-122.5 293.25,-122.5 293.25,-98 265,-98"/>
<text text-anchor="start" x="269" y="-105.2" font-family="arial" font-size="14.00">GY</text>
<polygon fill="#999999" stroke="none" points="293.25,-98 293.25,-122.5 301.25,-122.5 301.25,-98 293.25,-98"/>
<polygon fill="none" stroke="black" points="293.25,-98 293.25,-122.5 301.25,-122.5 301.25,-98 293.25,-98"/>
</g>
<!-- AUTOGENERATED_F_2&#45;&#45;X1 -->
<g id="edge2" class="edge">
<title>AUTOGENERATED_F_2:e&#45;&#45;X1:w</title>
<path fill="none" stroke="#000000" stroke-dasharray="5,2" d="M301.25,-110.25C361.51,-110.25 378.84,-98.39 433.75,-96.9"/>
<polygon fill="#000000" stroke="#000000" points="433.78,-100.4 443.73,-96.77 433.69,-93.4 433.78,-100.4"/>
</g>
<!-- AUTOGENERATED_F_3 -->
<g id="node4" class="node">
<title>AUTOGENERATED_F_3</title>
<polygon fill="#ffffff" stroke="black" points="301.25,-73.5 212,-73.5 212,-49 301.25,-49 301.25,-73.5"/>
<polygon fill="#ffffff" stroke="none" points="212,-49 212,-73.5 301.25,-73.5 301.25,-49 212,-49"/>
<polygon fill="none" stroke="black" points="212,-49 212,-73.5 265,-73.5 265,-49 212,-49"/>
<text text-anchor="start" x="216" y="-56.2" font-family="arial" font-size="14.00">Ferrule</text>
<polygon fill="none" stroke="black" points="265,-49 265,-73.5 293.25,-73.5 293.25,-49 265,-49"/>
<text text-anchor="start" x="269" y="-56.2" font-family="arial" font-size="14.00">GY</text>
<polygon fill="#999999" stroke="none" points="293.25,-49 293.25,-73.5 301.25,-73.5 301.25,-49 293.25,-49"/>
<polygon fill="none" stroke="black" points="293.25,-49 293.25,-73.5 301.25,-73.5 301.25,-49 293.25,-49"/>
</g>
<!-- AUTOGENERATED_F_3&#45;&#45;X1 -->
<g id="edge3" class="edge">
<title>AUTOGENERATED_F_3:e&#45;&#45;X1:w</title>
<path fill="none" stroke="#000000" stroke-dasharray="5,2" d="M301.25,-61.25C361.44,-61.25 378.9,-71.36 433.75,-72.62"/>
<polygon fill="#000000" stroke="#000000" points="433.69,-76.12 443.73,-72.73 433.77,-69.12 433.69,-76.12"/>
</g>
<!-- AUTOGENERATED_F_4 -->
<g id="node5" class="node">
<title>AUTOGENERATED_F_4</title>
<polygon fill="#ffffff" stroke="black" points="301.25,-24.5 212,-24.5 212,0 301.25,0 301.25,-24.5"/>
<polygon fill="#ffffff" stroke="none" points="212,0 212,-24.5 301.25,-24.5 301.25,0 212,0"/>
<polygon fill="none" stroke="black" points="212,0 212,-24.5 265,-24.5 265,0 212,0"/>
<text text-anchor="start" x="216" y="-7.2" font-family="arial" font-size="14.00">Ferrule</text>
<polygon fill="none" stroke="black" points="265,0 265,-24.5 293.25,-24.5 293.25,0 265,0"/>
<text text-anchor="start" x="269" y="-7.2" font-family="arial" font-size="14.00">GY</text>
<polygon fill="#999999" stroke="none" points="293.25,0 293.25,-24.5 301.25,-24.5 301.25,0 293.25,0"/>
<polygon fill="none" stroke="black" points="293.25,0 293.25,-24.5 301.25,-24.5 301.25,0 293.25,0"/>
</g>
<!-- AUTOGENERATED_F_4&#45;&#45;X1 -->
<g id="edge4" class="edge">
<title>AUTOGENERATED_F_4:e&#45;&#45;X1:w</title>
<path fill="none" stroke="#000000" stroke-dasharray="5,2" d="M301.25,-12.25C363.27,-12.25 377.58,-44.46 433.82,-48.37"/>
<polygon fill="#000000" stroke="#000000" points="433.62,-51.86 443.73,-48.7 433.86,-44.86 433.62,-51.86"/>
</g>
<!-- W1 -->
<g id="node6" class="node">
<title>W1</title>
<polygon fill="#ffffff" stroke="black" points="68,-215.75 0,-215.75 0,-22.75 68,-22.75 68,-215.75"/>
<polygon fill="#ffffff" stroke="none" points="0,-22.75 0,-215.75 68,-215.75 68,-22.75 0,-22.75"/>
<polygon fill="none" stroke="black" points="0,-191.25 0,-215.75 68,-215.75 68,-191.25 0,-191.25"/>
<text text-anchor="start" x="22.75" y="-198.45" font-family="arial" font-size="14.00">W1</text>
<polygon fill="none" stroke="black" points="0,-166.75 0,-191.25 26.17,-191.25 26.17,-166.75 0,-166.75"/>
<text text-anchor="start" x="5.58" y="-173.95" font-family="arial" font-size="14.00">4x</text>
<polygon fill="none" stroke="black" points="26.17,-166.75 26.17,-191.25 56.83,-191.25 56.83,-166.75 26.17,-166.75"/>
<text text-anchor="start" x="31.75" y="-173.95" font-family="arial" font-size="14.00">BK</text>
<polygon fill="#000000" stroke="none" points="56.83,-166.75 56.83,-191.25 68,-191.25 68,-166.75 56.83,-166.75"/>
<polygon fill="none" stroke="black" points="56.83,-166.75 56.83,-191.25 68,-191.25 68,-166.75 56.83,-166.75"/>
<text text-anchor="start" x="1.63" y="-151.45" font-family="arial" font-size="14.00"> </text>
<text text-anchor="start" x="1.63" y="-131.45" font-family="arial" font-size="14.00"> </text>
<text text-anchor="start" x="8.63" y="-131.45" font-family="arial" font-size="14.00"> </text>
<text text-anchor="start" x="18.25" y="-131.45" font-family="arial" font-size="14.00">1:BK</text>
<text text-anchor="start" x="55.63" y="-131.45" font-family="arial" font-size="14.00"> </text>
<text text-anchor="start" x="62.62" y="-131.45" font-family="arial" font-size="14.00"> </text>
<polygon fill="#ffffff" stroke="none" points="0,-124.75 0,-126.75 68,-126.75 68,-124.75 0,-124.75"/>
<polygon fill="#ffffff" stroke="none" points="0,-122.75 0,-124.75 68,-124.75 68,-122.75 0,-122.75"/>
<polygon fill="#ffffff" stroke="none" points="0,-120.75 0,-122.75 68,-122.75 68,-120.75 0,-120.75"/>
<text text-anchor="start" x="1.63" y="-105.45" font-family="arial" font-size="14.00"> </text>
<text text-anchor="start" x="8.63" y="-105.45" font-family="arial" font-size="14.00"> </text>
<text text-anchor="start" x="16" y="-105.45" font-family="arial" font-size="14.00">2:WH</text>
<text text-anchor="start" x="55.63" y="-105.45" font-family="arial" font-size="14.00"> </text>
<text text-anchor="start" x="62.62" y="-105.45" font-family="arial" font-size="14.00"> </text>
<polygon fill="#ffffff" stroke="none" points="0,-98.75 0,-100.75 68,-100.75 68,-98.75 0,-98.75"/>
<polygon fill="#ffffff" stroke="none" points="0,-96.75 0,-98.75 68,-98.75 68,-96.75 0,-96.75"/>
<polygon fill="#ffffff" stroke="none" points="0,-94.75 0,-96.75 68,-96.75 68,-94.75 0,-94.75"/>
<text text-anchor="start" x="1.63" y="-79.45" font-family="arial" font-size="14.00"> </text>
<text text-anchor="start" x="8.63" y="-79.45" font-family="arial" font-size="14.00"> </text>
<text text-anchor="start" x="18.25" y="-79.45" font-family="arial" font-size="14.00">3:BU</text>
<text text-anchor="start" x="55.63" y="-79.45" font-family="arial" font-size="14.00"> </text>
<text text-anchor="start" x="62.62" y="-79.45" font-family="arial" font-size="14.00"> </text>
<polygon fill="#ffffff" stroke="none" points="0,-72.75 0,-74.75 68,-74.75 68,-72.75 0,-72.75"/>
<polygon fill="#ffffff" stroke="none" points="0,-70.75 0,-72.75 68,-72.75 68,-70.75 0,-70.75"/>
<polygon fill="#ffffff" stroke="none" points="0,-68.75 0,-70.75 68,-70.75 68,-68.75 0,-68.75"/>
<text text-anchor="start" x="1.63" y="-53.45" font-family="arial" font-size="14.00"> </text>
<text text-anchor="start" x="8.63" y="-53.45" font-family="arial" font-size="14.00"> </text>
<text text-anchor="start" x="18.25" y="-53.45" font-family="arial" font-size="14.00">4:BN</text>
<text text-anchor="start" x="55.63" y="-53.45" font-family="arial" font-size="14.00"> </text>
<text text-anchor="start" x="62.62" y="-53.45" font-family="arial" font-size="14.00"> </text>
<polygon fill="#ffffff" stroke="none" points="0,-46.75 0,-48.75 68,-48.75 68,-46.75 0,-46.75"/>
<polygon fill="#ffffff" stroke="none" points="0,-44.75 0,-46.75 68,-46.75 68,-44.75 0,-44.75"/>
<polygon fill="#ffffff" stroke="none" points="0,-42.75 0,-44.75 68,-44.75 68,-42.75 0,-42.75"/>
<text text-anchor="start" x="1.63" y="-27.45" font-family="arial" font-size="14.00"> </text>
</g>
<!-- W1&#45;&#45;AUTOGENERATED_F_1 -->
<g id="edge5" class="edge">
<title>W1:e&#45;&#45;AUTOGENERATED_F_1:w</title>
<path fill="none" stroke="#000000" stroke-width="2" d="M68,-121.75C135.81,-123.1 147.98,-158.6 212,-157.25"/>
<path fill="none" stroke="#000000" stroke-width="2" d="M68,-123.75C133.92,-123.75 146.09,-159.25 212,-159.25"/>
<path fill="none" stroke="#000000" stroke-width="2" d="M68,-125.75C132.02,-124.4 144.19,-159.9 212,-161.25"/>
</g>
<!-- W1&#45;&#45;AUTOGENERATED_F_2 -->
<g id="edge6" class="edge">
<title>W1:e&#45;&#45;AUTOGENERATED_F_2:w</title>
<path fill="none" stroke="#000000" stroke-width="2" d="M68,-95.75C133.5,-96.19 149.01,-108.69 212,-108.25"/>
<path fill="none" stroke="#ffffff" stroke-width="2" d="M68,-97.75C132.25,-97.75 147.76,-110.25 212,-110.25"/>
<path fill="none" stroke="#000000" stroke-width="2" d="M68,-99.75C130.99,-99.31 146.5,-111.81 212,-112.25"/>
</g>
<!-- W1&#45;&#45;AUTOGENERATED_F_3 -->
<g id="edge7" class="edge">
<title>W1:e&#45;&#45;AUTOGENERATED_F_3:w</title>
<path fill="none" stroke="#000000" stroke-width="2" d="M68,-69.75C131.05,-70.09 146.71,-59.59 212,-59.25"/>
<path fill="none" stroke="#0066ff" stroke-width="2" d="M68,-71.75C132.17,-71.75 147.83,-61.25 212,-61.25"/>
<path fill="none" stroke="#000000" stroke-width="2" d="M68,-73.75C133.28,-73.41 148.94,-62.91 212,-63.25"/>
</g>
<!-- W1&#45;&#45;AUTOGENERATED_F_4 -->
<g id="edge8" class="edge">
<title>W1:e&#45;&#45;AUTOGENERATED_F_4:w</title>
<path fill="none" stroke="#000000" stroke-width="2" d="M68,-43.75C131.83,-45.05 144.42,-11.55 212,-10.25"/>
<path fill="none" stroke="#895956" stroke-width="2" d="M68,-45.75C133.7,-45.75 146.29,-12.25 212,-12.25"/>
<path fill="none" stroke="#000000" stroke-width="2" d="M68,-47.75C135.58,-46.45 148.17,-12.95 212,-14.25"/>
</g>
<!-- W1&#45;&#45;W1 -->
<g id="edge9" class="edge">
<title>W1:e&#45;&#45;W1:w</title>
<path fill="none" stroke="#000000" stroke-width="2" d="M68,-125.75C45.33,-125.75 22.66,-125.75 0,-125.75"/>
<path fill="none" stroke="#000000" stroke-width="2" d="M68,-123.75C45.33,-123.75 22.66,-123.75 0,-123.75"/>
<path fill="none" stroke="#000000" stroke-width="2" d="M68,-121.75C45.33,-121.75 22.66,-121.75 0,-121.75"/>
</g>
<!-- W1&#45;&#45;W1 -->
<g id="edge10" class="edge">
<title>W1:e&#45;&#45;W1:w</title>
<path fill="none" stroke="#000000" stroke-width="2" d="M68,-99.75C45.33,-99.75 22.66,-99.75 0,-99.75"/>
<path fill="none" stroke="#ffffff" stroke-width="2" d="M68,-97.75C45.33,-97.75 22.66,-97.75 0,-97.75"/>
<path fill="none" stroke="#000000" stroke-width="2" d="M68,-95.75C45.33,-95.75 22.66,-95.75 0,-95.75"/>
</g>
<!-- W1&#45;&#45;W1 -->
<g id="edge11" class="edge">
<title>W1:e&#45;&#45;W1:w</title>
<path fill="none" stroke="#000000" stroke-width="2" d="M68,-73.75C45.33,-73.75 22.66,-73.75 0,-73.75"/>
<path fill="none" stroke="#0066ff" stroke-width="2" d="M68,-71.75C45.33,-71.75 22.66,-71.75 0,-71.75"/>
<path fill="none" stroke="#000000" stroke-width="2" d="M68,-69.75C45.33,-69.75 22.66,-69.75 0,-69.75"/>
</g>
<!-- W1&#45;&#45;W1 -->
<g id="edge12" class="edge">
<title>W1:e&#45;&#45;W1:w</title>
<path fill="none" stroke="#000000" stroke-width="2" d="M68,-47.75C45.33,-47.75 22.66,-47.75 0,-47.75"/>
<path fill="none" stroke="#895956" stroke-width="2" d="M68,-45.75C45.33,-45.75 22.66,-45.75 0,-45.75"/>
<path fill="none" stroke="#000000" stroke-width="2" d="M68,-43.75C45.33,-43.75 22.66,-43.75 0,-43.75"/>
</g>
</g>
</svg>
