<?xml version="1.0" encoding="UTF-8" standalone="no"?>
<!DOCTYPE svg PUBLIC "-//W3C//DTD SVG 1.1//EN"
 "http://www.w3.org/Graphics/SVG/1.1/DTD/svg11.dtd">
<!-- Generated by graphviz version 11.0.0 (20240428.1522)
 -->
<!-- Pages: 1 -->
<svg width="1095pt" height="212pt"
 viewBox="0.00 0.00 1095.28 212.25" xmlns="http://www.w3.org/2000/svg" xmlns:xlink="http://www.w3.org/1999/xlink">
<g id="graph0" class="graph" transform="scale(1 1) rotate(0) translate(4 208.25)">
<polygon fill="#ffffff" stroke="none" points="-4,4 -4,-208.25 1091.28,-208.25 1091.28,4 -4,4"/>
<!-- X1 -->
<g id="node1" class="node">
<title>X1</title>
<polygon fill="#ffffff" stroke="black" points="466.75,-171.5 243,-171.5 243,0 466.75,0 466.75,-171.5"/>
<polygon fill="none" stroke="black" points="243,-147 243,-171.5 466.75,-171.5 466.75,-147 243,-147"/>
<text text-anchor="start" x="345.87" y="-154.2" font-family="arial" font-size="14.00">X1</text>
<polygon fill="none" stroke="black" points="243,-122.5 243,-147 353,-147 353,-122.5 243,-122.5"/>
<text text-anchor="start" x="247" y="-129.7" font-family="arial" font-size="14.00">Dupont 2.54mm</text>
<polygon fill="none" stroke="black" points="353,-122.5 353,-147 391.75,-147 391.75,-122.5 353,-122.5"/>
<text text-anchor="start" x="357" y="-129.7" font-family="arial" font-size="14.00">male</text>
<polygon fill="none" stroke="black" points="391.75,-122.5 391.75,-147 431.25,-147 431.25,-122.5 391.75,-122.5"/>
<text text-anchor="start" x="395.75" y="-129.7" font-family="arial" font-size="14.00">5&#45;pin</text>
<polygon fill="none" stroke="black" points="431.25,-122.5 431.25,-147 458.75,-147 458.75,-122.5 431.25,-122.5"/>
<text text-anchor="start" x="435.25" y="-129.7" font-family="arial" font-size="14.00">BK</text>
<polygon fill="#000000" stroke="none" points="458.75,-122.5 458.75,-147 466.75,-147 466.75,-122.5 458.75,-122.5"/>
<polygon fill="none" stroke="black" points="458.75,-122.5 458.75,-147 466.75,-147 466.75,-122.5 458.75,-122.5"/>
<polygon fill="none" stroke="black" points="243,-98 243,-122.5 466.75,-122.5 466.75,-98 243,-98"/>
<text text-anchor="start" x="350.75" y="-105.2" font-family="arial" font-size="14.00">1</text>
<polygon fill="none" stroke="black" points="243,-73.5 243,-98 466.75,-98 466.75,-73.5 243,-73.5"/>
<text text-anchor="start" x="350.75" y="-80.7" font-family="arial" font-size="14.00">2</text>
<polygon fill="none" stroke="black" points="243,-49 243,-73.5 466.75,-73.5 466.75,-49 243,-49"/>
<text text-anchor="start" x="350.75" y="-56.2" font-family="arial" font-size="14.00">3</text>
<polygon fill="none" stroke="black" points="243,-24.5 243,-49 466.75,-49 466.75,-24.5 243,-24.5"/>
<text text-anchor="start" x="350.75" y="-31.7" font-family="arial" font-size="14.00">4</text>
<polygon fill="none" stroke="black" points="243,0 243,-24.5 466.75,-24.5 466.75,0 243,0"/>
<text text-anchor="start" x="350.75" y="-7.2" font-family="arial" font-size="14.00">5</text>
</g>
<!-- X2 -->
<g id="node2" class="node">
<title>X2</title>
<polygon fill="#ffffff" stroke="black" points="847.25,-171.5 610.75,-171.5 610.75,0 847.25,0 847.25,-171.5"/>
<polygon fill="none" stroke="black" points="610.75,-147 610.75,-171.5 847.25,-171.5 847.25,-147 610.75,-147"/>
<text text-anchor="start" x="720" y="-154.2" font-family="arial" font-size="14.00">X2</text>
<polygon fill="none" stroke="black" points="610.75,-122.5 610.75,-147 720.75,-147 720.75,-122.5 610.75,-122.5"/>
<text text-anchor="start" x="614.75" y="-129.7" font-family="arial" font-size="14.00">Dupont 2.54mm</text>
<polygon fill="none" stroke="black" points="720.75,-122.5 720.75,-147 772.25,-147 772.25,-122.5 720.75,-122.5"/>
<text text-anchor="start" x="724.75" y="-129.7" font-family="arial" font-size="14.00">female</text>
<polygon fill="none" stroke="black" points="772.25,-122.5 772.25,-147 811.75,-147 811.75,-122.5 772.25,-122.5"/>
<text text-anchor="start" x="776.25" y="-129.7" font-family="arial" font-size="14.00">5&#45;pin</text>
<polygon fill="none" stroke="black" points="811.75,-122.5 811.75,-147 839.25,-147 839.25,-122.5 811.75,-122.5"/>
<text text-anchor="start" x="815.75" y="-129.7" font-family="arial" font-size="14.00">BK</text>
<polygon fill="#000000" stroke="none" points="839.25,-122.5 839.25,-147 847.25,-147 847.25,-122.5 839.25,-122.5"/>
<polygon fill="none" stroke="black" points="839.25,-122.5 839.25,-147 847.25,-147 847.25,-122.5 839.25,-122.5"/>
<polygon fill="none" stroke="black" points="610.75,-98 610.75,-122.5 847.25,-122.5 847.25,-98 610.75,-98"/>
<text text-anchor="start" x="724.88" y="-105.2" font-family="arial" font-size="14.00">1</text>
<polygon fill="none" stroke="black" points="610.75,-73.5 610.75,-98 847.25,-98 847.25,-73.5 610.75,-73.5"/>
<text text-anchor="start" x="724.88" y="-80.7" font-family="arial" font-size="14.00">2</text>
<polygon fill="none" stroke="black" points="610.75,-49 610.75,-73.5 847.25,-73.5 847.25,-49 610.75,-49"/>
<text text-anchor="start" x="724.88" y="-56.2" font-family="arial" font-size="14.00">3</text>
<polygon fill="none" stroke="black" points="610.75,-24.5 610.75,-49 847.25,-49 847.25,-24.5 610.75,-24.5"/>
<text text-anchor="start" x="724.88" y="-31.7" font-family="arial" font-size="14.00">4</text>
<polygon fill="none" stroke="black" points="610.75,0 610.75,-24.5 847.25,-24.5 847.25,0 610.75,0"/>
<text text-anchor="start" x="724.88" y="-7.2" font-family="arial" font-size="14.00">5</text>
</g>
<!-- X1&#45;&#45;X2 -->
<g id="edge1" class="edge">
<title>X1:e&#45;&#45;X2:w</title>
<path fill="none" stroke="#000000" stroke-dasharray="5,2" d="M466.75,-84.75C526.75,-84.75 544.56,-84.75 599.29,-84.75"/>
<path fill="none" stroke="#000000" stroke-dasharray="5,2" d="M466.75,-86.75C526.75,-86.75 544.56,-86.75 599.29,-86.75"/>
<polygon fill="#000000" stroke="#000000" points="599.24,-89.25 609.24,-85.75 599.24,-82.25 599.24,-89.25"/>
</g>
<!-- W2 -->
<g id="node3" class="node">
<title>W2</title>
<polygon fill="#ffffff" stroke="black" stroke-dasharray="5,2" points="1087.28,-204.25 991.28,-204.25 991.28,-11.25 1087.28,-11.25 1087.28,-204.25"/>
<polygon fill="none" stroke="black" points="991.28,-179.75 991.28,-204.25 1087.28,-204.25 1087.28,-179.75 991.28,-179.75"/>
<text text-anchor="start" x="1028.03" y="-186.95" font-family="arial" font-size="14.00">W2</text>
<polygon fill="none" stroke="black" points="991.28,-155.25 991.28,-179.75 1028.78,-179.75 1028.78,-155.25 991.28,-155.25"/>
<text text-anchor="start" x="1002.53" y="-162.45" font-family="arial" font-size="14.00">4x</text>
<polygon fill="none" stroke="black" points="1028.78,-155.25 1028.78,-179.75 1087.28,-179.75 1087.28,-155.25 1028.78,-155.25"/>
<text text-anchor="start" x="1040.03" y="-162.45" font-family="arial" font-size="14.00">0.2 m</text>
<text text-anchor="start" x="1006.41" y="-139.95" font-family="arial" font-size="14.00"> </text>
<text text-anchor="start" x="993.28" y="-119.95" font-family="arial" font-size="14.00">X2:1</text>
<text text-anchor="start" x="1026.91" y="-119.95" font-family="arial" font-size="14.00"> &#160;&#160;&#160;&#160;RD &#160;&#160;&#160;</text>
<text text-anchor="start" x="993.28" y="-93.95" font-family="arial" font-size="14.00">X2:2</text>
<text text-anchor="start" x="1027.66" y="-93.95" font-family="arial" font-size="14.00"> &#160;&#160;&#160;&#160;BK &#160;&#160;&#160;</text>
<text text-anchor="start" x="993.28" y="-67.95" font-family="arial" font-size="14.00">X2:3</text>
<text text-anchor="start" x="1027.66" y="-67.95" font-family="arial" font-size="14.00"> &#160;&#160;&#160;&#160;BU &#160;&#160;&#160;</text>
<text text-anchor="start" x="993.28" y="-41.95" font-family="arial" font-size="14.00">X2:4</text>
<text text-anchor="start" x="1026.91" y="-41.95" font-family="arial" font-size="14.00"> &#160;&#160;&#160;&#160;GN &#160;&#160;&#160;</text>
<text text-anchor="start" x="1006.41" y="-15.95" font-family="arial" font-size="14.00"> </text>
</g>
<!-- X2&#45;&#45;W2 -->
<g id="edge2" class="edge">
<title>X2:e&#45;&#45;W2:w</title>
<path fill="none" stroke="#000000" stroke-width="2" d="M847.25,-108.25C911.5,-108.27 927.49,-110.27 991.28,-110.25"/>
<path fill="none" stroke="#ff0000" stroke-width="2" d="M847.25,-110.25C911.25,-110.25 927.24,-112.25 991.28,-112.25"/>
<path fill="none" stroke="#000000" stroke-width="2" d="M847.25,-112.25C911,-112.23 926.99,-114.23 991.28,-114.25"/>
</g>
<!-- X2&#45;&#45;W2 -->
<g id="edge3" class="edge">
<title>X2:e&#45;&#45;W2:w</title>
<path fill="none" stroke="#000000" stroke-width="2" d="M847.25,-83.75C911.32,-83.75 927.32,-84.25 991.28,-84.25"/>
<path fill="none" stroke="#000000" stroke-width="2" d="M847.25,-85.75C911.25,-85.75 927.25,-86.25 991.28,-86.25"/>
<path fill="none" stroke="#000000" stroke-width="2" d="M847.25,-87.75C911.19,-87.75 927.19,-88.25 991.28,-88.25"/>
</g>
<!-- X2&#45;&#45;W2 -->
<g id="edge4" class="edge">
<title>X2:e&#45;&#45;W2:w</title>
<path fill="none" stroke="#000000" stroke-width="2" d="M847.25,-59.25C911.13,-59.25 927.13,-58.25 991.28,-58.25"/>
<path fill="none" stroke="#0066ff" stroke-width="2" d="M847.25,-61.25C911.25,-61.25 927.25,-60.25 991.28,-60.25"/>
<path fill="none" stroke="#000000" stroke-width="2" d="M847.25,-63.25C911.38,-63.25 927.38,-62.25 991.28,-62.25"/>
</g>
<!-- X2&#45;&#45;W2 -->
<g id="edge5" class="edge">
<title>X2:e&#45;&#45;W2:w</title>
<path fill="none" stroke="#000000" stroke-width="2" d="M847.25,-34.75C910.95,-34.77 926.93,-32.27 991.28,-32.25"/>
<path fill="none" stroke="#00ff00" stroke-width="2" d="M847.25,-36.75C911.26,-36.75 927.24,-34.25 991.28,-34.25"/>
<path fill="none" stroke="#000000" stroke-width="2" d="M847.25,-38.75C911.57,-38.73 927.55,-36.23 991.28,-36.25"/>
</g>
<!-- W2&#45;&#45;W2 -->
<g id="edge6" class="edge">
<title>W2:w&#45;&#45;W2:e</title>
<path fill="none" stroke="#000000" stroke-width="2" d="M991.28,-110.25C1023.28,-110.25 1055.28,-110.25 1087.28,-110.25"/>
<path fill="none" stroke="#ff0000" stroke-width="2" d="M991.28,-112.25C1023.28,-112.25 1055.28,-112.25 1087.28,-112.25"/>
<path fill="none" stroke="#000000" stroke-width="2" d="M991.28,-114.25C1023.28,-114.25 1055.28,-114.25 1087.28,-114.25"/>
</g>
<!-- W2&#45;&#45;W2 -->
<g id="edge7" class="edge">
<title>W2:w&#45;&#45;W2:e</title>
<path fill="none" stroke="#000000" stroke-width="2" d="M991.28,-84.25C1023.28,-84.25 1055.28,-84.25 1087.28,-84.25"/>
<path fill="none" stroke="#000000" stroke-width="2" d="M991.28,-86.25C1023.28,-86.25 1055.28,-86.25 1087.28,-86.25"/>
<path fill="none" stroke="#000000" stroke-width="2" d="M991.28,-88.25C1023.28,-88.25 1055.28,-88.25 1087.28,-88.25"/>
</g>
<!-- W2&#45;&#45;W2 -->
<g id="edge8" class="edge">
<title>W2:w&#45;&#45;W2:e</title>
<path fill="none" stroke="#000000" stroke-width="2" d="M991.28,-58.25C1023.28,-58.25 1055.28,-58.25 1087.28,-58.25"/>
<path fill="none" stroke="#0066ff" stroke-width="2" d="M991.28,-60.25C1023.28,-60.25 1055.28,-60.25 1087.28,-60.25"/>
<path fill="none" stroke="#000000" stroke-width="2" d="M991.28,-62.25C1023.28,-62.25 1055.28,-62.25 1087.28,-62.25"/>
</g>
<!-- W2&#45;&#45;W2 -->
<g id="edge9" class="edge">
<title>W2:w&#45;&#45;W2:e</title>
<path fill="none" stroke="#000000" stroke-width="2" d="M991.28,-32.25C1023.28,-32.25 1055.28,-32.25 1087.28,-32.25"/>
<path fill="none" stroke="#00ff00" stroke-width="2" d="M991.28,-34.25C1023.28,-34.25 1055.28,-34.25 1087.28,-34.25"/>
<path fill="none" stroke="#000000" stroke-width="2" d="M991.28,-36.25C1023.28,-36.25 1055.28,-36.25 1087.28,-36.25"/>
</g>
<!-- W1 -->
<g id="node4" class="node">
<title>W1</title>
<polygon fill="#ffffff" stroke="black" stroke-dasharray="5,2" points="99,-204.25 0,-204.25 0,-11.25 99,-11.25 99,-204.25"/>
<polygon fill="none" stroke="black" points="0,-179.75 0,-204.25 99,-204.25 99,-179.75 0,-179.75"/>
<text text-anchor="start" x="38.25" y="-186.95" font-family="arial" font-size="14.00">W1</text>
<polygon fill="none" stroke="black" points="0,-155.25 0,-179.75 39,-179.75 39,-155.25 0,-155.25"/>
<text text-anchor="start" x="12" y="-162.45" font-family="arial" font-size="14.00">4x</text>
<polygon fill="none" stroke="black" points="39,-155.25 39,-179.75 99,-179.75 99,-155.25 39,-155.25"/>
<text text-anchor="start" x="51" y="-162.45" font-family="arial" font-size="14.00">0.2 m</text>
<text text-anchor="start" x="1.63" y="-139.95" font-family="arial" font-size="14.00"> </text>
<text text-anchor="start" x="8.63" y="-119.95" font-family="arial" font-size="14.00"> &#160;&#160;&#160;&#160;RD &#160;&#160;&#160;</text>
<text text-anchor="start" x="67" y="-119.95" font-family="arial" font-size="14.00">X1:1</text>
<text text-anchor="start" x="9.38" y="-93.95" font-family="arial" font-size="14.00"> &#160;&#160;&#160;&#160;BK &#160;&#160;&#160;</text>
<text text-anchor="start" x="67" y="-93.95" font-family="arial" font-size="14.00">X1:2</text>
<text text-anchor="start" x="9.38" y="-67.95" font-family="arial" font-size="14.00"> &#160;&#160;&#160;&#160;BU &#160;&#160;&#160;</text>
<text text-anchor="start" x="67" y="-67.95" font-family="arial" font-size="14.00">X1:3</text>
<text text-anchor="start" x="8.63" y="-41.95" font-family="arial" font-size="14.00"> &#160;&#160;&#160;&#160;GN &#160;&#160;&#160;</text>
<text text-anchor="start" x="67" y="-41.95" font-family="arial" font-size="14.00">X1:4</text>
<text text-anchor="start" x="1.63" y="-15.95" font-family="arial" font-size="14.00"> </text>
</g>
<!-- W1&#45;&#45;X1 -->
<g id="edge10" class="edge">
<title>W1:e&#45;&#45;X1:w</title>
<path fill="none" stroke="#000000" stroke-width="2" d="M99,-110.25C162.75,-110.27 178.74,-108.27 243,-108.25"/>
<path fill="none" stroke="#ff0000" stroke-width="2" d="M99,-112.25C163,-112.25 178.99,-110.25 243,-110.25"/>
<path fill="none" stroke="#000000" stroke-width="2" d="M99,-114.25C163.25,-114.23 179.24,-112.23 243,-112.25"/>
</g>
<!-- W1&#45;&#45;X1 -->
<g id="edge11" class="edge">
<title>W1:e&#45;&#45;X1:w</title>
<path fill="none" stroke="#000000" stroke-width="2" d="M99,-84.25C162.94,-84.25 178.94,-83.75 243,-83.75"/>
<path fill="none" stroke="#000000" stroke-width="2" d="M99,-86.25C163,-86.25 179,-85.75 243,-85.75"/>
<path fill="none" stroke="#000000" stroke-width="2" d="M99,-88.25C163.07,-88.25 179.07,-87.75 243,-87.75"/>
</g>
<!-- W1&#45;&#45;X1 -->
<g id="edge12" class="edge">
<title>W1:e&#45;&#45;X1:w</title>
<path fill="none" stroke="#000000" stroke-width="2" d="M99,-58.25C163.13,-58.25 179.13,-59.25 243,-59.25"/>
<path fill="none" stroke="#0066ff" stroke-width="2" d="M99,-60.25C163,-60.25 179,-61.25 243,-61.25"/>
<path fill="none" stroke="#000000" stroke-width="2" d="M99,-62.25C162.88,-62.25 178.88,-63.25 243,-63.25"/>
</g>
<!-- W1&#45;&#45;X1 -->
<g id="edge13" class="edge">
<title>W1:e&#45;&#45;X1:w</title>
<path fill="none" stroke="#000000" stroke-width="2" d="M99,-32.25C163.32,-32.27 179.3,-34.77 243,-34.75"/>
<path fill="none" stroke="#00ff00" stroke-width="2" d="M99,-34.25C163.01,-34.25 178.99,-36.75 243,-36.75"/>
<path fill="none" stroke="#000000" stroke-width="2" d="M99,-36.25C162.7,-36.23 178.68,-38.73 243,-38.75"/>
</g>
<!-- W1&#45;&#45;W1 -->
<g id="edge14" class="edge">
<title>W1:w&#45;&#45;W1:e</title>
<path fill="none" stroke="#000000" stroke-width="2" d="M0,-110.25C33,-110.25 66,-110.25 99,-110.25"/>
<path fill="none" stroke="#ff0000" stroke-width="2" d="M0,-112.25C33,-112.25 66,-112.25 99,-112.25"/>
<path fill="none" stroke="#000000" stroke-width="2" d="M0,-114.25C33,-114.25 66,-114.25 99,-114.25"/>
</g>
<!-- W1&#45;&#45;W1 -->
<g id="edge15" class="edge">
<title>W1:w&#45;&#45;W1:e</title>
<path fill="none" stroke="#000000" stroke-width="2" d="M0,-84.25C33,-84.25 66,-84.25 99,-84.25"/>
<path fill="none" stroke="#000000" stroke-width="2" d="M0,-86.25C33,-86.25 66,-86.25 99,-86.25"/>
<path fill="none" stroke="#000000" stroke-width="2" d="M0,-88.25C33,-88.25 66,-88.25 99,-88.25"/>
</g>
<!-- W1&#45;&#45;W1 -->
<g id="edge16" class="edge">
<title>W1:w&#45;&#45;W1:e</title>
<path fill="none" stroke="#000000" stroke-width="2" d="M0,-58.25C33,-58.25 66,-58.25 99,-58.25"/>
<path fill="none" stroke="#0066ff" stroke-width="2" d="M0,-60.25C33,-60.25 66,-60.25 99,-60.25"/>
<path fill="none" stroke="#000000" stroke-width="2" d="M0,-62.25C33,-62.25 66,-62.25 99,-62.25"/>
</g>
<!-- W1&#45;&#45;W1 -->
<g id="edge17" class="edge">
<title>W1:w&#45;&#45;W1:e</title>
<path fill="none" stroke="#000000" stroke-width="2" d="M0,-32.25C33,-32.25 66,-32.25 99,-32.25"/>
<path fill="none" stroke="#00ff00" stroke-width="2" d="M0,-34.25C33,-34.25 66,-34.25 99,-34.25"/>
<path fill="none" stroke="#000000" stroke-width="2" d="M0,-36.25C33,-36.25 66,-36.25 99,-36.25"/>
</g>
</g>
</svg>
