<?xml version="1.0" encoding="UTF-8" standalone="no"?>
<!DOCTYPE svg PUBLIC "-//W3C//DTD SVG 1.1//EN"
 "http://www.w3.org/Graphics/SVG/1.1/DTD/svg11.dtd">
<!-- Generated by graphviz version 7.1.0 (20230121.1956)
 -->
<!-- Pages: 1 -->
<svg width="1083pt" height="201pt"
 viewBox="0.00 0.00 1083.00 200.50" xmlns="http://www.w3.org/2000/svg" xmlns:xlink="http://www.w3.org/1999/xlink">
<g id="graph0" class="graph" transform="scale(1 1) rotate(0) translate(4 196.5)">
<polygon fill="#ffffff" stroke="none" points="-4,4 -4,-196.5 1079,-196.5 1079,4 -4,4"/>
<!-- X1 -->
<g id="node1" class="node">
<title>X1</title>
<polygon fill="#ffffff" stroke="black" points="462,-161 243,-161 243,0 462,0 462,-161"/>
<polygon fill="none" stroke="black" points="243.5,-137.5 243.5,-160.5 462.5,-160.5 462.5,-137.5 243.5,-137.5"/>
<text text-anchor="start" x="344.5" y="-145.3" font-family="arial" font-size="14.00">X1</text>
<polygon fill="none" stroke="black" points="243.5,-114.5 243.5,-137.5 349.5,-137.5 349.5,-114.5 243.5,-114.5"/>
<text text-anchor="start" x="247.5" y="-122.3" font-family="arial" font-size="14.00">Dupont 2.54mm</text>
<polygon fill="none" stroke="black" points="349.5,-114.5 349.5,-137.5 388.5,-137.5 388.5,-114.5 349.5,-114.5"/>
<text text-anchor="start" x="353.5" y="-122.3" font-family="arial" font-size="14.00">male</text>
<polygon fill="none" stroke="black" points="388.5,-114.5 388.5,-137.5 427.5,-137.5 427.5,-114.5 388.5,-114.5"/>
<text text-anchor="start" x="392.5" y="-122.3" font-family="arial" font-size="14.00">5&#45;pin</text>
<polygon fill="none" stroke="black" points="427.5,-114.5 427.5,-137.5 454.5,-137.5 454.5,-114.5 427.5,-114.5"/>
<text text-anchor="start" x="431.5" y="-122.3" font-family="arial" font-size="14.00">BK</text>
<polygon fill="#000000" stroke="none" points="454.5,-114.5 454.5,-137.5 462.5,-137.5 462.5,-114.5 454.5,-114.5"/>
<polygon fill="none" stroke="black" points="454.5,-114.5 454.5,-137.5 462.5,-137.5 462.5,-114.5 454.5,-114.5"/>
<polygon fill="none" stroke="black" points="243.5,-91.5 243.5,-114.5 462.5,-114.5 462.5,-91.5 243.5,-91.5"/>
<text text-anchor="start" x="349" y="-99.3" font-family="arial" font-size="14.00">1</text>
<polygon fill="none" stroke="black" points="243.5,-68.5 243.5,-91.5 462.5,-91.5 462.5,-68.5 243.5,-68.5"/>
<text text-anchor="start" x="349" y="-76.3" font-family="arial" font-size="14.00">2</text>
<polygon fill="none" stroke="black" points="243.5,-45.5 243.5,-68.5 462.5,-68.5 462.5,-45.5 243.5,-45.5"/>
<text text-anchor="start" x="349" y="-53.3" font-family="arial" font-size="14.00">3</text>
<polygon fill="none" stroke="black" points="243.5,-22.5 243.5,-45.5 462.5,-45.5 462.5,-22.5 243.5,-22.5"/>
<text text-anchor="start" x="349" y="-30.3" font-family="arial" font-size="14.00">4</text>
<polygon fill="none" stroke="black" points="243.5,0.5 243.5,-22.5 462.5,-22.5 462.5,0.5 243.5,0.5"/>
<text text-anchor="start" x="349" y="-7.3" font-family="arial" font-size="14.00">5</text>
</g>
<!-- X2 -->
<g id="node2" class="node">
<title>X2</title>
<polygon fill="#ffffff" stroke="black" points="836,-161 606,-161 606,0 836,0 836,-161"/>
<polygon fill="none" stroke="black" points="606,-137.5 606,-160.5 836,-160.5 836,-137.5 606,-137.5"/>
<text text-anchor="start" x="712.5" y="-145.3" font-family="arial" font-size="14.00">X2</text>
<polygon fill="none" stroke="black" points="606,-114.5 606,-137.5 712,-137.5 712,-114.5 606,-114.5"/>
<text text-anchor="start" x="610" y="-122.3" font-family="arial" font-size="14.00">Dupont 2.54mm</text>
<polygon fill="none" stroke="black" points="712,-114.5 712,-137.5 762,-137.5 762,-114.5 712,-114.5"/>
<text text-anchor="start" x="716" y="-122.3" font-family="arial" font-size="14.00">female</text>
<polygon fill="none" stroke="black" points="762,-114.5 762,-137.5 801,-137.5 801,-114.5 762,-114.5"/>
<text text-anchor="start" x="766" y="-122.3" font-family="arial" font-size="14.00">5&#45;pin</text>
<polygon fill="none" stroke="black" points="801,-114.5 801,-137.5 828,-137.5 828,-114.5 801,-114.5"/>
<text text-anchor="start" x="805" y="-122.3" font-family="arial" font-size="14.00">BK</text>
<polygon fill="#000000" stroke="none" points="828,-114.5 828,-137.5 836,-137.5 836,-114.5 828,-114.5"/>
<polygon fill="none" stroke="black" points="828,-114.5 828,-137.5 836,-137.5 836,-114.5 828,-114.5"/>
<polygon fill="none" stroke="black" points="606,-91.5 606,-114.5 836,-114.5 836,-91.5 606,-91.5"/>
<text text-anchor="start" x="717" y="-99.3" font-family="arial" font-size="14.00">1</text>
<polygon fill="none" stroke="black" points="606,-68.5 606,-91.5 836,-91.5 836,-68.5 606,-68.5"/>
<text text-anchor="start" x="717" y="-76.3" font-family="arial" font-size="14.00">2</text>
<polygon fill="none" stroke="black" points="606,-45.5 606,-68.5 836,-68.5 836,-45.5 606,-45.5"/>
<text text-anchor="start" x="717" y="-53.3" font-family="arial" font-size="14.00">3</text>
<polygon fill="none" stroke="black" points="606,-22.5 606,-45.5 836,-45.5 836,-22.5 606,-22.5"/>
<text text-anchor="start" x="717" y="-30.3" font-family="arial" font-size="14.00">4</text>
<polygon fill="none" stroke="black" points="606,0.5 606,-22.5 836,-22.5 836,0.5 606,0.5"/>
<text text-anchor="start" x="717" y="-7.3" font-family="arial" font-size="14.00">5</text>
</g>
<!-- X1&#45;&#45;X2 -->
<g id="edge9" class="edge">
<title>X1:e&#45;&#45;X2:w</title>
<path fill="none" stroke="#000000" stroke-dasharray="5,2" d="M462,-79.5C522,-79.5 539.81,-79.5 594.54,-79.5"/>
<path fill="none" stroke="#000000" stroke-dasharray="5,2" d="M462,-81.5C522,-81.5 539.81,-81.5 594.54,-81.5"/>
<polygon fill="#000000" stroke="#000000" points="594.49,-84 604.49,-80.5 594.49,-77 594.49,-84"/>
</g>
<!-- W2 -->
<g id="node4" class="node">
<title>W2</title>
<polygon fill="#ffffff" stroke="black" stroke-dasharray="5,2" points="1075,-192.5 980,-192.5 980,-8.5 1075,-8.5 1075,-192.5"/>
<polygon fill="none" stroke="black" points="980.5,-169.5 980.5,-192.5 1075.5,-192.5 1075.5,-169.5 980.5,-169.5"/>
<text text-anchor="start" x="1017" y="-177.3" font-family="arial" font-size="14.00">W2</text>
<polygon fill="none" stroke="black" points="980.5,-146.5 980.5,-169.5 1018.5,-169.5 1018.5,-146.5 980.5,-146.5"/>
<text text-anchor="start" x="992" y="-154.3" font-family="arial" font-size="14.00">4x</text>
<polygon fill="none" stroke="black" points="1018.5,-146.5 1018.5,-169.5 1075.5,-169.5 1075.5,-146.5 1018.5,-146.5"/>
<text text-anchor="start" x="1029.5" y="-154.3" font-family="arial" font-size="14.00">0.2 m</text>
<text text-anchor="start" x="994.5" y="-133.3" font-family="arial" font-size="14.00"> </text>
<text text-anchor="start" x="982.5" y="-114.3" font-family="arial" font-size="14.00">X2:1</text>
<text text-anchor="start" x="1015" y="-114.3" font-family="arial" font-size="14.00"> &#160;&#160;&#160;&#160;RD &#160;&#160;&#160;</text>
<polygon fill="#000000" stroke="none" points="980.5,-106.5 980.5,-108.5 1075.5,-108.5 1075.5,-106.5 980.5,-106.5"/>
<polygon fill="#ff0000" stroke="none" points="980.5,-104.5 980.5,-106.5 1075.5,-106.5 1075.5,-104.5 980.5,-104.5"/>
<polygon fill="#000000" stroke="none" points="980.5,-102.5 980.5,-104.5 1075.5,-104.5 1075.5,-102.5 980.5,-102.5"/>
<text text-anchor="start" x="982.5" y="-89.3" font-family="arial" font-size="14.00">X2:2</text>
<text text-anchor="start" x="1016" y="-89.3" font-family="arial" font-size="14.00"> &#160;&#160;&#160;&#160;BK &#160;&#160;&#160;</text>
<polygon fill="#000000" stroke="none" points="980.5,-81.5 980.5,-83.5 1075.5,-83.5 1075.5,-81.5 980.5,-81.5"/>
<polygon fill="#000000" stroke="none" points="980.5,-79.5 980.5,-81.5 1075.5,-81.5 1075.5,-79.5 980.5,-79.5"/>
<polygon fill="#000000" stroke="none" points="980.5,-77.5 980.5,-79.5 1075.5,-79.5 1075.5,-77.5 980.5,-77.5"/>
<text text-anchor="start" x="982.5" y="-64.3" font-family="arial" font-size="14.00">X2:3</text>
<text text-anchor="start" x="1015.5" y="-64.3" font-family="arial" font-size="14.00"> &#160;&#160;&#160;&#160;BU &#160;&#160;&#160;</text>
<polygon fill="#000000" stroke="none" points="980.5,-56.5 980.5,-58.5 1075.5,-58.5 1075.5,-56.5 980.5,-56.5"/>
<polygon fill="#0066ff" stroke="none" points="980.5,-54.5 980.5,-56.5 1075.5,-56.5 1075.5,-54.5 980.5,-54.5"/>
<polygon fill="#000000" stroke="none" points="980.5,-52.5 980.5,-54.5 1075.5,-54.5 1075.5,-52.5 980.5,-52.5"/>
<text text-anchor="start" x="982.5" y="-39.3" font-family="arial" font-size="14.00">X2:4</text>
<text text-anchor="start" x="1014.5" y="-39.3" font-family="arial" font-size="14.00"> &#160;&#160;&#160;&#160;GN &#160;&#160;&#160;</text>
<polygon fill="#000000" stroke="none" points="980.5,-31.5 980.5,-33.5 1075.5,-33.5 1075.5,-31.5 980.5,-31.5"/>
<polygon fill="#00ff00" stroke="none" points="980.5,-29.5 980.5,-31.5 1075.5,-31.5 1075.5,-29.5 980.5,-29.5"/>
<polygon fill="#000000" stroke="none" points="980.5,-27.5 980.5,-29.5 1075.5,-29.5 1075.5,-27.5 980.5,-27.5"/>
<text text-anchor="start" x="994.5" y="-14.3" font-family="arial" font-size="14.00"> </text>
</g>
<!-- X2&#45;&#45;W2 -->
<g id="edge5" class="edge">
<title>X2:e&#45;&#45;W2:w</title>
<path fill="none" stroke="#000000" stroke-width="2" d="M836,-101.5C900.25,-101.52 916.24,-103.52 980,-103.5"/>
<path fill="none" stroke="#ff0000" stroke-width="2" d="M836,-103.5C900.01,-103.5 915.99,-105.5 980,-105.5"/>
<path fill="none" stroke="#000000" stroke-width="2" d="M836,-105.5C899.76,-105.48 915.75,-107.48 980,-107.5"/>
</g>
<!-- X2&#45;&#45;W2 -->
<g id="edge6" class="edge">
<title>X2:e&#45;&#45;W2:w</title>
<path fill="none" stroke="#000000" stroke-width="2" d="M836,-77.5C900.13,-77.5 916.12,-78.5 980,-78.5"/>
<path fill="none" stroke="#000000" stroke-width="2" d="M836,-79.5C900,-79.5 916,-80.5 980,-80.5"/>
<path fill="none" stroke="#000000" stroke-width="2" d="M836,-81.5C899.88,-81.5 915.87,-82.5 980,-82.5"/>
</g>
<!-- X2&#45;&#45;W2 -->
<g id="edge7" class="edge">
<title>X2:e&#45;&#45;W2:w</title>
<path fill="none" stroke="#000000" stroke-width="2" d="M836,-54.5C899.88,-54.5 915.87,-53.5 980,-53.5"/>
<path fill="none" stroke="#0066ff" stroke-width="2" d="M836,-56.5C900,-56.5 916,-55.5 980,-55.5"/>
<path fill="none" stroke="#000000" stroke-width="2" d="M836,-58.5C900.13,-58.5 916.12,-57.5 980,-57.5"/>
</g>
<!-- X2&#45;&#45;W2 -->
<g id="edge8" class="edge">
<title>X2:e&#45;&#45;W2:w</title>
<path fill="none" stroke="#000000" stroke-width="2" d="M836,-31.5C899.64,-31.53 915.62,-28.53 980,-28.5"/>
<path fill="none" stroke="#00ff00" stroke-width="2" d="M836,-33.5C900.01,-33.5 915.99,-30.5 980,-30.5"/>
<path fill="none" stroke="#000000" stroke-width="2" d="M836,-35.5C900.38,-35.47 916.36,-32.47 980,-32.5"/>
</g>
<!-- W1 -->
<g id="node3" class="node">
<title>W1</title>
<polygon fill="#ffffff" stroke="black" stroke-dasharray="5,2" points="99,-192.5 0,-192.5 0,-8.5 99,-8.5 99,-192.5"/>
<polygon fill="none" stroke="black" points="0.5,-169.5 0.5,-192.5 99.5,-192.5 99.5,-169.5 0.5,-169.5"/>
<text text-anchor="start" x="39" y="-177.3" font-family="arial" font-size="14.00">W1</text>
<polygon fill="none" stroke="black" points="0.5,-146.5 0.5,-169.5 40.5,-169.5 40.5,-146.5 0.5,-146.5"/>
<text text-anchor="start" x="13" y="-154.3" font-family="arial" font-size="14.00">4x</text>
<polygon fill="none" stroke="black" points="40.5,-146.5 40.5,-169.5 99.5,-169.5 99.5,-146.5 40.5,-146.5"/>
<text text-anchor="start" x="52.5" y="-154.3" font-family="arial" font-size="14.00">0.2 m</text>
<text text-anchor="start" x="2.5" y="-133.3" font-family="arial" font-size="14.00"> </text>
<text text-anchor="start" x="11" y="-114.3" font-family="arial" font-size="14.00"> &#160;&#160;&#160;&#160;RD &#160;&#160;&#160;</text>
<text text-anchor="start" x="69.5" y="-114.3" font-family="arial" font-size="14.00">X1:1</text>
<polygon fill="#000000" stroke="none" points="0.5,-106.5 0.5,-108.5 99.5,-108.5 99.5,-106.5 0.5,-106.5"/>
<polygon fill="#ff0000" stroke="none" points="0.5,-104.5 0.5,-106.5 99.5,-106.5 99.5,-104.5 0.5,-104.5"/>
<polygon fill="#000000" stroke="none" points="0.5,-102.5 0.5,-104.5 99.5,-104.5 99.5,-102.5 0.5,-102.5"/>
<text text-anchor="start" x="12" y="-89.3" font-family="arial" font-size="14.00"> &#160;&#160;&#160;&#160;BK &#160;&#160;&#160;</text>
<text text-anchor="start" x="69.5" y="-89.3" font-family="arial" font-size="14.00">X1:2</text>
<polygon fill="#000000" stroke="none" points="0.5,-81.5 0.5,-83.5 99.5,-83.5 99.5,-81.5 0.5,-81.5"/>
<polygon fill="#000000" stroke="none" points="0.5,-79.5 0.5,-81.5 99.5,-81.5 99.5,-79.5 0.5,-79.5"/>
<polygon fill="#000000" stroke="none" points="0.5,-77.5 0.5,-79.5 99.5,-79.5 99.5,-77.5 0.5,-77.5"/>
<text text-anchor="start" x="11.5" y="-64.3" font-family="arial" font-size="14.00"> &#160;&#160;&#160;&#160;BU &#160;&#160;&#160;</text>
<text text-anchor="start" x="69.5" y="-64.3" font-family="arial" font-size="14.00">X1:3</text>
<polygon fill="#000000" stroke="none" points="0.5,-56.5 0.5,-58.5 99.5,-58.5 99.5,-56.5 0.5,-56.5"/>
<polygon fill="#0066ff" stroke="none" points="0.5,-54.5 0.5,-56.5 99.5,-56.5 99.5,-54.5 0.5,-54.5"/>
<polygon fill="#000000" stroke="none" points="0.5,-52.5 0.5,-54.5 99.5,-54.5 99.5,-52.5 0.5,-52.5"/>
<text text-anchor="start" x="10.5" y="-39.3" font-family="arial" font-size="14.00"> &#160;&#160;&#160;&#160;GN &#160;&#160;&#160;</text>
<text text-anchor="start" x="69.5" y="-39.3" font-family="arial" font-size="14.00">X1:4</text>
<polygon fill="#000000" stroke="none" points="0.5,-31.5 0.5,-33.5 99.5,-33.5 99.5,-31.5 0.5,-31.5"/>
<polygon fill="#00ff00" stroke="none" points="0.5,-29.5 0.5,-31.5 99.5,-31.5 99.5,-29.5 0.5,-29.5"/>
<polygon fill="#000000" stroke="none" points="0.5,-27.5 0.5,-29.5 99.5,-29.5 99.5,-27.5 0.5,-27.5"/>
<text text-anchor="start" x="2.5" y="-14.3" font-family="arial" font-size="14.00"> </text>
</g>
<!-- W1&#45;&#45;X1 -->
<g id="edge1" class="edge">
<title>W1:e&#45;&#45;X1:w</title>
<path fill="none" stroke="#000000" stroke-width="2" d="M99,-103.5C162.76,-103.52 178.75,-101.52 243,-101.5"/>
<path fill="none" stroke="#ff0000" stroke-width="2" d="M99,-105.5C163.01,-105.5 178.99,-103.5 243,-103.5"/>
<path fill="none" stroke="#000000" stroke-width="2" d="M99,-107.5C163.25,-107.48 179.24,-105.48 243,-105.5"/>
</g>
<!-- W1&#45;&#45;X1 -->
<g id="edge2" class="edge">
<title>W1:e&#45;&#45;X1:w</title>
<path fill="none" stroke="#000000" stroke-width="2" d="M99,-78.5C162.88,-78.5 178.87,-77.5 243,-77.5"/>
<path fill="none" stroke="#000000" stroke-width="2" d="M99,-80.5C163,-80.5 179,-79.5 243,-79.5"/>
<path fill="none" stroke="#000000" stroke-width="2" d="M99,-82.5C163.13,-82.5 179.12,-81.5 243,-81.5"/>
</g>
<!-- W1&#45;&#45;X1 -->
<g id="edge3" class="edge">
<title>W1:e&#45;&#45;X1:w</title>
<path fill="none" stroke="#000000" stroke-width="2" d="M99,-53.5C163.13,-53.5 179.12,-54.5 243,-54.5"/>
<path fill="none" stroke="#0066ff" stroke-width="2" d="M99,-55.5C163,-55.5 179,-56.5 243,-56.5"/>
<path fill="none" stroke="#000000" stroke-width="2" d="M99,-57.5C162.88,-57.5 178.87,-58.5 243,-58.5"/>
</g>
<!-- W1&#45;&#45;X1 -->
<g id="edge4" class="edge">
<title>W1:e&#45;&#45;X1:w</title>
<path fill="none" stroke="#000000" stroke-width="2" d="M99,-28.5C163.38,-28.53 179.36,-31.53 243,-31.5"/>
<path fill="none" stroke="#00ff00" stroke-width="2" d="M99,-30.5C163.01,-30.5 178.99,-33.5 243,-33.5"/>
<path fill="none" stroke="#000000" stroke-width="2" d="M99,-32.5C162.64,-32.47 178.62,-35.47 243,-35.5"/>
</g>
</g>
</svg>
