<?xml version="1.0" encoding="UTF-8" standalone="no"?>
<!DOCTYPE svg PUBLIC "-//W3C//DTD SVG 1.1//EN"
 "http://www.w3.org/Graphics/SVG/1.1/DTD/svg11.dtd">
<!-- Generated by graphviz version 11.0.0 (20240428.1522)
 -->
<!-- Pages: 1 -->
<svg width="965pt" height="490pt"
 viewBox="0.00 0.00 964.50 490.00" xmlns="http://www.w3.org/2000/svg" xmlns:xlink="http://www.w3.org/1999/xlink">
<g id="graph0" class="graph" transform="scale(1 1) rotate(0) translate(4 486)">
<polygon fill="#ffffff" stroke="none" points="-4,4 -4,-486 960.5,-486 960.5,4 -4,4"/>
<!-- X1 -->
<g id="node1" class="node">
<title>X1</title>
<polygon fill="#ffffff" stroke="black" points="39.5,-302 0,-302 0,-157 39.5,-157 39.5,-302"/>
<polygon fill="none" stroke="black" points="0,-277.5 0,-302 39.5,-302 39.5,-277.5 0,-277.5"/>
<text text-anchor="start" x="10.75" y="-284.7" font-family="arial" font-size="14.00">X1</text>
<polygon fill="none" stroke="black" points="0,-253 0,-277.5 39.5,-277.5 39.5,-253 0,-253"/>
<text text-anchor="start" x="4" y="-260.2" font-family="arial" font-size="14.00">4&#45;pin</text>
<polygon fill="none" stroke="black" points="0,-229 0,-253 20.75,-253 20.75,-229 0,-229"/>
<text text-anchor="start" x="5.5" y="-235.7" font-family="arial" font-size="14.00">A</text>
<polygon fill="none" stroke="black" points="20.75,-229 20.75,-253 39.5,-253 39.5,-229 20.75,-229"/>
<text text-anchor="start" x="26" y="-235.7" font-family="arial" font-size="14.00">1</text>
<polygon fill="none" stroke="black" points="0,-205 0,-229 20.75,-229 20.75,-205 0,-205"/>
<text text-anchor="start" x="5.5" y="-211.7" font-family="arial" font-size="14.00">B</text>
<polygon fill="none" stroke="black" points="20.75,-205 20.75,-229 39.5,-229 39.5,-205 20.75,-205"/>
<text text-anchor="start" x="26" y="-211.7" font-family="arial" font-size="14.00">2</text>
<polygon fill="none" stroke="black" points="0,-181 0,-205 20.75,-205 20.75,-181 0,-181"/>
<text text-anchor="start" x="5.12" y="-187.7" font-family="arial" font-size="14.00">C</text>
<polygon fill="none" stroke="black" points="20.75,-181 20.75,-205 39.5,-205 39.5,-181 20.75,-181"/>
<text text-anchor="start" x="26" y="-187.7" font-family="arial" font-size="14.00">3</text>
<polygon fill="none" stroke="black" points="0,-157 0,-181 20.75,-181 20.75,-157 0,-157"/>
<text text-anchor="start" x="5.12" y="-163.7" font-family="arial" font-size="14.00">D</text>
<polygon fill="none" stroke="black" points="20.75,-157 20.75,-181 39.5,-181 39.5,-157 20.75,-157"/>
<text text-anchor="start" x="26" y="-163.7" font-family="arial" font-size="14.00">4</text>
</g>
<!-- C1 -->
<g id="node2" class="node">
<title>C1</title>
<polygon fill="#ffffff" stroke="black" points="308.5,-336 183.5,-336 183.5,-143 308.5,-143 308.5,-336"/>
<polygon fill="none" stroke="black" points="183.5,-311.5 183.5,-336 308.5,-336 308.5,-311.5 183.5,-311.5"/>
<text text-anchor="start" x="236.62" y="-318.7" font-family="arial" font-size="14.00">C1</text>
<polygon fill="none" stroke="black" points="183.5,-287 183.5,-311.5 308.5,-311.5 308.5,-287 183.5,-287"/>
<text text-anchor="start" x="238.5" y="-294.2" font-family="arial" font-size="14.00">4x</text>
<text text-anchor="start" x="205.62" y="-271.7" font-family="arial" font-size="14.00"> </text>
<text text-anchor="start" x="185.75" y="-251.7" font-family="arial" font-size="14.00">X1:1:A</text>
<text text-anchor="start" x="233.12" y="-251.7" font-family="arial" font-size="14.00"> &#160;&#160;&#160;&#160;1:WH &#160;&#160;&#160;</text>
<text text-anchor="start" x="185.75" y="-225.7" font-family="arial" font-size="14.00">X1:2:B</text>
<text text-anchor="start" x="235.38" y="-225.7" font-family="arial" font-size="14.00"> &#160;&#160;&#160;&#160;2:BN &#160;&#160;&#160;</text>
<text text-anchor="start" x="185.38" y="-199.7" font-family="arial" font-size="14.00">X1:3:C</text>
<text text-anchor="start" x="234.62" y="-199.7" font-family="arial" font-size="14.00"> &#160;&#160;&#160;&#160;3:GN &#160;&#160;&#160;</text>
<text text-anchor="start" x="185.38" y="-173.7" font-family="arial" font-size="14.00">X1:4:D</text>
<text text-anchor="start" x="235.75" y="-173.7" font-family="arial" font-size="14.00"> &#160;&#160;&#160;&#160;4:YE &#160;&#160;&#160;</text>
<text text-anchor="start" x="205.62" y="-147.7" font-family="arial" font-size="14.00"> </text>
</g>
<!-- X1&#45;&#45;C1 -->
<g id="edge1" class="edge">
<title>X1:e&#45;&#45;C1:w</title>
<path fill="none" stroke="#000000" stroke-width="2" d="M39.5,-239C103.88,-239.04 119.86,-242.04 183.5,-242"/>
<path fill="none" stroke="#ffffff" stroke-width="2" d="M39.5,-241C103.51,-241 119.49,-244 183.5,-244"/>
<path fill="none" stroke="#000000" stroke-width="2" d="M39.5,-243C103.14,-242.97 119.12,-245.97 183.5,-246"/>
</g>
<!-- X1&#45;&#45;C1 -->
<g id="edge2" class="edge">
<title>X1:e&#45;&#45;C1:w</title>
<path fill="none" stroke="#000000" stroke-width="2" d="M39.5,-215C103.62,-215.01 119.62,-216.01 183.5,-216"/>
<path fill="none" stroke="#895956" stroke-width="2" d="M39.5,-217C103.5,-217 119.5,-218 183.5,-218"/>
<path fill="none" stroke="#000000" stroke-width="2" d="M39.5,-219C103.38,-219 119.38,-220 183.5,-220"/>
</g>
<!-- X1&#45;&#45;C1 -->
<g id="edge3" class="edge">
<title>X1:e&#45;&#45;C1:w</title>
<path fill="none" stroke="#000000" stroke-width="2" d="M39.5,-191C103.38,-191.01 119.38,-190.01 183.5,-190"/>
<path fill="none" stroke="#00ff00" stroke-width="2" d="M39.5,-193C103.5,-193 119.5,-192 183.5,-192"/>
<path fill="none" stroke="#000000" stroke-width="2" d="M39.5,-195C103.62,-195 119.62,-194 183.5,-194"/>
</g>
<!-- X1&#45;&#45;C1 -->
<g id="edge4" class="edge">
<title>X1:e&#45;&#45;C1:w</title>
<path fill="none" stroke="#000000" stroke-width="2" d="M39.5,-167C103.14,-167.04 119.12,-164.04 183.5,-164"/>
<path fill="none" stroke="#ffff00" stroke-width="2" d="M39.5,-169C103.51,-169 119.49,-166 183.5,-166"/>
<path fill="none" stroke="#000000" stroke-width="2" d="M39.5,-171C103.88,-170.97 119.86,-167.97 183.5,-168"/>
</g>
<!-- C1&#45;&#45;C1 -->
<g id="edge5" class="edge">
<title>C1:w&#45;&#45;C1:e</title>
<path fill="none" stroke="#000000" stroke-width="2" d="M183.5,-242C225.17,-242 266.83,-242 308.5,-242"/>
<path fill="none" stroke="#ffffff" stroke-width="2" d="M183.5,-244C225.17,-244 266.83,-244 308.5,-244"/>
<path fill="none" stroke="#000000" stroke-width="2" d="M183.5,-246C225.17,-246 266.83,-246 308.5,-246"/>
</g>
<!-- C1&#45;&#45;C1 -->
<g id="edge6" class="edge">
<title>C1:w&#45;&#45;C1:e</title>
<path fill="none" stroke="#000000" stroke-width="2" d="M183.5,-216C225.17,-216 266.83,-216 308.5,-216"/>
<path fill="none" stroke="#895956" stroke-width="2" d="M183.5,-218C225.17,-218 266.83,-218 308.5,-218"/>
<path fill="none" stroke="#000000" stroke-width="2" d="M183.5,-220C225.17,-220 266.83,-220 308.5,-220"/>
</g>
<!-- C1&#45;&#45;C1 -->
<g id="edge7" class="edge">
<title>C1:w&#45;&#45;C1:e</title>
<path fill="none" stroke="#000000" stroke-width="2" d="M183.5,-190C225.17,-190 266.83,-190 308.5,-190"/>
<path fill="none" stroke="#00ff00" stroke-width="2" d="M183.5,-192C225.17,-192 266.83,-192 308.5,-192"/>
<path fill="none" stroke="#000000" stroke-width="2" d="M183.5,-194C225.17,-194 266.83,-194 308.5,-194"/>
</g>
<!-- C1&#45;&#45;C1 -->
<g id="edge8" class="edge">
<title>C1:w&#45;&#45;C1:e</title>
<path fill="none" stroke="#000000" stroke-width="2" d="M183.5,-164C225.17,-164 266.83,-164 308.5,-164"/>
<path fill="none" stroke="#ffff00" stroke-width="2" d="M183.5,-166C225.17,-166 266.83,-166 308.5,-166"/>
<path fill="none" stroke="#000000" stroke-width="2" d="M183.5,-168C225.17,-168 266.83,-168 308.5,-168"/>
</g>
<!-- F1 -->
<g id="node3" class="node">
<title>F1</title>
<polygon fill="#ffffff" stroke="black" points="501,-291.75 452.5,-291.75 452.5,-267.25 501,-267.25 501,-291.75"/>
<polygon fill="none" stroke="black" points="452.5,-267.25 452.5,-291.75 501,-291.75 501,-267.25 452.5,-267.25"/>
<text text-anchor="start" x="456.5" y="-274.45" font-family="arial" font-size="14.00">ferrule</text>
</g>
<!-- C1&#45;&#45;F1 -->
<g id="edge9" class="edge">
<title>C1:e&#45;&#45;F1:w</title>
<path fill="none" stroke="#000000" stroke-width="2" d="M308.5,-242C376.31,-243.35 388.47,-278.85 452.5,-277.5"/>
<path fill="none" stroke="#ffffff" stroke-width="2" d="M308.5,-244C374.42,-244 386.58,-279.5 452.5,-279.5"/>
<path fill="none" stroke="#000000" stroke-width="2" d="M308.5,-246C372.53,-244.65 384.69,-280.15 452.5,-281.5"/>
</g>
<!-- F2 -->
<g id="node4" class="node">
<title>F2</title>
<polygon fill="#ffffff" stroke="black" points="501,-242.75 452.5,-242.75 452.5,-218.25 501,-218.25 501,-242.75"/>
<polygon fill="none" stroke="black" points="452.5,-218.25 452.5,-242.75 501,-242.75 501,-218.25 452.5,-218.25"/>
<text text-anchor="start" x="456.5" y="-225.45" font-family="arial" font-size="14.00">ferrule</text>
</g>
<!-- C1&#45;&#45;F2 -->
<g id="edge10" class="edge">
<title>C1:e&#45;&#45;F2:w</title>
<path fill="none" stroke="#000000" stroke-width="2" d="M308.5,-216C373.99,-216.44 389.51,-228.94 452.5,-228.5"/>
<path fill="none" stroke="#895956" stroke-width="2" d="M308.5,-218C372.74,-218 388.26,-230.5 452.5,-230.5"/>
<path fill="none" stroke="#000000" stroke-width="2" d="M308.5,-220C371.49,-219.56 387.01,-232.06 452.5,-232.5"/>
</g>
<!-- F3 -->
<g id="node5" class="node">
<title>F3</title>
<polygon fill="#ffffff" stroke="black" points="501,-193.75 452.5,-193.75 452.5,-169.25 501,-169.25 501,-193.75"/>
<polygon fill="none" stroke="black" points="452.5,-169.25 452.5,-193.75 501,-193.75 501,-169.25 452.5,-169.25"/>
<text text-anchor="start" x="456.5" y="-176.45" font-family="arial" font-size="14.00">ferrule</text>
</g>
<!-- C1&#45;&#45;F3 -->
<g id="edge11" class="edge">
<title>C1:e&#45;&#45;F3:w</title>
<path fill="none" stroke="#000000" stroke-width="2" d="M308.5,-190C371.56,-190.34 387.22,-179.84 452.5,-179.5"/>
<path fill="none" stroke="#00ff00" stroke-width="2" d="M308.5,-192C372.67,-192 388.33,-181.5 452.5,-181.5"/>
<path fill="none" stroke="#000000" stroke-width="2" d="M308.5,-194C373.78,-193.66 389.44,-183.16 452.5,-183.5"/>
</g>
<!-- F4 -->
<g id="node6" class="node">
<title>F4</title>
<polygon fill="#ffffff" stroke="black" points="501,-144.75 452.5,-144.75 452.5,-120.25 501,-120.25 501,-144.75"/>
<polygon fill="none" stroke="black" points="452.5,-120.25 452.5,-144.75 501,-144.75 501,-120.25 452.5,-120.25"/>
<text text-anchor="start" x="456.5" y="-127.45" font-family="arial" font-size="14.00">ferrule</text>
</g>
<!-- C1&#45;&#45;F4 -->
<g id="edge12" class="edge">
<title>C1:e&#45;&#45;F4:w</title>
<path fill="none" stroke="#000000" stroke-width="2" d="M308.5,-164C372.34,-165.3 384.92,-131.8 452.5,-130.5"/>
<path fill="none" stroke="#ffff00" stroke-width="2" d="M308.5,-166C374.21,-166 386.79,-132.5 452.5,-132.5"/>
<path fill="none" stroke="#000000" stroke-width="2" d="M308.5,-168C376.08,-166.7 388.66,-133.2 452.5,-134.5"/>
</g>
<!-- C2 -->
<g id="node7" class="node">
<title>C2</title>
<polygon fill="#ffffff" stroke="black" points="773,-482 645,-482 645,-289 773,-289 773,-482"/>
<polygon fill="none" stroke="black" points="645,-457.5 645,-482 773,-482 773,-457.5 645,-457.5"/>
<text text-anchor="start" x="699.62" y="-464.7" font-family="arial" font-size="14.00">C2</text>
<polygon fill="none" stroke="black" points="645,-433 645,-457.5 773,-457.5 773,-433 645,-433"/>
<text text-anchor="start" x="701.5" y="-440.2" font-family="arial" font-size="14.00">4x</text>
<text text-anchor="start" x="646.62" y="-417.7" font-family="arial" font-size="14.00"> </text>
<text text-anchor="start" x="653.62" y="-397.7" font-family="arial" font-size="14.00"> &#160;&#160;&#160;&#160;1:WH &#160;&#160;&#160;</text>
<text text-anchor="start" x="727.25" y="-397.7" font-family="arial" font-size="14.00">X2:1:A</text>
<text text-anchor="start" x="655.88" y="-371.7" font-family="arial" font-size="14.00"> &#160;&#160;&#160;&#160;2:BN &#160;&#160;&#160;</text>
<text text-anchor="start" x="727.25" y="-371.7" font-family="arial" font-size="14.00">X2:2:B</text>
<text text-anchor="start" x="655.12" y="-345.7" font-family="arial" font-size="14.00"> &#160;&#160;&#160;&#160;3:GN &#160;&#160;&#160;</text>
<text text-anchor="start" x="726.88" y="-345.7" font-family="arial" font-size="14.00">X2:3:C</text>
<text text-anchor="start" x="656.25" y="-319.7" font-family="arial" font-size="14.00"> &#160;&#160;&#160;&#160;4:YE &#160;&#160;&#160;</text>
<text text-anchor="start" x="726.88" y="-319.7" font-family="arial" font-size="14.00">X2:4:D</text>
<text text-anchor="start" x="646.62" y="-293.7" font-family="arial" font-size="14.00"> </text>
</g>
<!-- F1&#45;&#45;C2 -->
<g id="edge13" class="edge">
<title>F1:e&#45;&#45;C2:w</title>
<path fill="none" stroke="#000000" stroke-width="2" d="M501,-277.5C583.65,-279.81 566.31,-390.31 645,-388"/>
<path fill="none" stroke="#ffffff" stroke-width="2" d="M501,-279.5C581.67,-279.5 564.33,-390 645,-390"/>
<path fill="none" stroke="#000000" stroke-width="2" d="M501,-281.5C579.69,-279.19 562.35,-389.69 645,-392"/>
</g>
<!-- C3 -->
<g id="node8" class="node">
<title>C3</title>
<polygon fill="#ffffff" stroke="black" points="773,-193 645,-193 645,0 773,0 773,-193"/>
<polygon fill="none" stroke="black" points="645,-168.5 645,-193 773,-193 773,-168.5 645,-168.5"/>
<text text-anchor="start" x="699.62" y="-175.7" font-family="arial" font-size="14.00">C3</text>
<polygon fill="none" stroke="black" points="645,-144 645,-168.5 773,-168.5 773,-144 645,-144"/>
<text text-anchor="start" x="701.5" y="-151.2" font-family="arial" font-size="14.00">4x</text>
<text text-anchor="start" x="646.62" y="-128.7" font-family="arial" font-size="14.00"> </text>
<text text-anchor="start" x="653.62" y="-108.7" font-family="arial" font-size="14.00"> &#160;&#160;&#160;&#160;1:WH &#160;&#160;&#160;</text>
<text text-anchor="start" x="727.25" y="-108.7" font-family="arial" font-size="14.00">X3:1:A</text>
<text text-anchor="start" x="655.88" y="-82.7" font-family="arial" font-size="14.00"> &#160;&#160;&#160;&#160;2:BN &#160;&#160;&#160;</text>
<text text-anchor="start" x="727.25" y="-82.7" font-family="arial" font-size="14.00">X3:2:B</text>
<text text-anchor="start" x="655.12" y="-56.7" font-family="arial" font-size="14.00"> &#160;&#160;&#160;&#160;3:GN &#160;&#160;&#160;</text>
<text text-anchor="start" x="726.88" y="-56.7" font-family="arial" font-size="14.00">X3:3:C</text>
<text text-anchor="start" x="656.25" y="-30.7" font-family="arial" font-size="14.00"> &#160;&#160;&#160;&#160;4:YE &#160;&#160;&#160;</text>
<text text-anchor="start" x="726.88" y="-30.7" font-family="arial" font-size="14.00">X3:4:D</text>
<text text-anchor="start" x="646.62" y="-4.7" font-family="arial" font-size="14.00"> </text>
</g>
<!-- F1&#45;&#45;C3 -->
<g id="edge14" class="edge">
<title>F1:e&#45;&#45;C3:w</title>
<path fill="none" stroke="#000000" stroke-width="2" d="M501,-277.5C601.03,-280.14 541.17,-101.64 645,-99"/>
<path fill="none" stroke="#ffffff" stroke-width="2" d="M501,-279.5C602.93,-279.5 543.07,-101 645,-101"/>
<path fill="none" stroke="#000000" stroke-width="2" d="M501,-281.5C604.83,-278.87 544.97,-100.37 645,-103"/>
</g>
<!-- F2&#45;&#45;C2 -->
<g id="edge31" class="edge">
<title>F2:e&#45;&#45;C2:w</title>
<path fill="none" stroke="#000000" stroke-width="2" d="M501,-228.5C590.22,-230.95 559.68,-364.45 645,-362"/>
<path fill="none" stroke="#895956" stroke-width="2" d="M501,-230.5C588.27,-230.5 557.73,-364 645,-364"/>
<path fill="none" stroke="#000000" stroke-width="2" d="M501,-232.5C586.32,-230.06 555.78,-363.56 645,-366"/>
</g>
<!-- F2&#45;&#45;C3 -->
<g id="edge32" class="edge">
<title>F2:e&#45;&#45;C3:w</title>
<path fill="none" stroke="#000000" stroke-width="2" d="M501,-228.5C593.27,-231.05 548.89,-75.55 645,-73"/>
<path fill="none" stroke="#895956" stroke-width="2" d="M501,-230.5C595.19,-230.5 550.81,-75 645,-75"/>
<path fill="none" stroke="#000000" stroke-width="2" d="M501,-232.5C597.11,-229.95 552.73,-74.45 645,-77"/>
</g>
<!-- F3&#45;&#45;C2 -->
<g id="edge33" class="edge">
<title>F3:e&#45;&#45;C2:w</title>
<path fill="none" stroke="#000000" stroke-width="2" d="M501,-179.5C597.44,-182.05 552.4,-338.55 645,-336"/>
<path fill="none" stroke="#00ff00" stroke-width="2" d="M501,-181.5C595.52,-181.5 550.48,-338 645,-338"/>
<path fill="none" stroke="#000000" stroke-width="2" d="M501,-183.5C593.6,-180.95 548.56,-337.45 645,-340"/>
</g>
<!-- F3&#45;&#45;C3 -->
<g id="edge34" class="edge">
<title>F3:e&#45;&#45;C3:w</title>
<path fill="none" stroke="#000000" stroke-width="2" d="M501,-179.5C586.02,-181.94 556.08,-49.44 645,-47"/>
<path fill="none" stroke="#00ff00" stroke-width="2" d="M501,-181.5C587.97,-181.5 558.03,-49 645,-49"/>
<path fill="none" stroke="#000000" stroke-width="2" d="M501,-183.5C589.92,-181.06 559.98,-48.56 645,-51"/>
</g>
<!-- F4&#45;&#45;C2 -->
<g id="edge35" class="edge">
<title>F4:e&#45;&#45;C2:w</title>
<path fill="none" stroke="#000000" stroke-width="2" d="M501,-130.5C605.18,-133.14 544.62,-312.64 645,-310"/>
<path fill="none" stroke="#ffff00" stroke-width="2" d="M501,-132.5C603.28,-132.5 542.72,-312 645,-312"/>
<path fill="none" stroke="#000000" stroke-width="2" d="M501,-134.5C601.38,-131.86 540.82,-311.36 645,-314"/>
</g>
<!-- F4&#45;&#45;C3 -->
<g id="edge36" class="edge">
<title>F4:e&#45;&#45;C3:w</title>
<path fill="none" stroke="#000000" stroke-width="2" d="M501,-130.5C579.42,-132.8 562.62,-23.3 645,-21"/>
<path fill="none" stroke="#ffff00" stroke-width="2" d="M501,-132.5C581.4,-132.5 564.6,-23 645,-23"/>
<path fill="none" stroke="#000000" stroke-width="2" d="M501,-134.5C583.38,-132.2 566.58,-22.7 645,-25"/>
</g>
<!-- C2&#45;&#45;C2 -->
<g id="edge15" class="edge">
<title>C2:w&#45;&#45;C2:e</title>
<path fill="none" stroke="#000000" stroke-width="2" d="M645,-388C687.67,-388 730.33,-388 773,-388"/>
<path fill="none" stroke="#ffffff" stroke-width="2" d="M645,-390C687.67,-390 730.33,-390 773,-390"/>
<path fill="none" stroke="#000000" stroke-width="2" d="M645,-392C687.67,-392 730.33,-392 773,-392"/>
</g>
<!-- C2&#45;&#45;C2 -->
<g id="edge16" class="edge">
<title>C2:w&#45;&#45;C2:e</title>
<path fill="none" stroke="#000000" stroke-width="2" d="M645,-362C687.67,-362 730.33,-362 773,-362"/>
<path fill="none" stroke="#895956" stroke-width="2" d="M645,-364C687.67,-364 730.33,-364 773,-364"/>
<path fill="none" stroke="#000000" stroke-width="2" d="M645,-366C687.67,-366 730.33,-366 773,-366"/>
</g>
<!-- C2&#45;&#45;C2 -->
<g id="edge17" class="edge">
<title>C2:w&#45;&#45;C2:e</title>
<path fill="none" stroke="#000000" stroke-width="2" d="M645,-336C687.67,-336 730.33,-336 773,-336"/>
<path fill="none" stroke="#00ff00" stroke-width="2" d="M645,-338C687.67,-338 730.33,-338 773,-338"/>
<path fill="none" stroke="#000000" stroke-width="2" d="M645,-340C687.67,-340 730.33,-340 773,-340"/>
</g>
<!-- C2&#45;&#45;C2 -->
<g id="edge18" class="edge">
<title>C2:w&#45;&#45;C2:e</title>
<path fill="none" stroke="#000000" stroke-width="2" d="M645,-310C687.67,-310 730.33,-310 773,-310"/>
<path fill="none" stroke="#ffff00" stroke-width="2" d="M645,-312C687.67,-312 730.33,-312 773,-312"/>
<path fill="none" stroke="#000000" stroke-width="2" d="M645,-314C687.67,-314 730.33,-314 773,-314"/>
</g>
<!-- X2 -->
<g id="node9" class="node">
<title>X2</title>
<polygon fill="#ffffff" stroke="black" points="956.5,-448 917,-448 917,-303 956.5,-303 956.5,-448"/>
<polygon fill="none" stroke="black" points="917,-423.5 917,-448 956.5,-448 956.5,-423.5 917,-423.5"/>
<text text-anchor="start" x="927.75" y="-430.7" font-family="arial" font-size="14.00">X2</text>
<polygon fill="none" stroke="black" points="917,-399 917,-423.5 956.5,-423.5 956.5,-399 917,-399"/>
<text text-anchor="start" x="921" y="-406.2" font-family="arial" font-size="14.00">4&#45;pin</text>
<polygon fill="none" stroke="black" points="917,-375 917,-399 935.75,-399 935.75,-375 917,-375"/>
<text text-anchor="start" x="922.25" y="-381.7" font-family="arial" font-size="14.00">1</text>
<polygon fill="none" stroke="black" points="935.75,-375 935.75,-399 956.5,-399 956.5,-375 935.75,-375"/>
<text text-anchor="start" x="941.25" y="-381.7" font-family="arial" font-size="14.00">A</text>
<polygon fill="none" stroke="black" points="917,-351 917,-375 935.75,-375 935.75,-351 917,-351"/>
<text text-anchor="start" x="922.25" y="-357.7" font-family="arial" font-size="14.00">2</text>
<polygon fill="none" stroke="black" points="935.75,-351 935.75,-375 956.5,-375 956.5,-351 935.75,-351"/>
<text text-anchor="start" x="941.25" y="-357.7" font-family="arial" font-size="14.00">B</text>
<polygon fill="none" stroke="black" points="917,-327 917,-351 935.75,-351 935.75,-327 917,-327"/>
<text text-anchor="start" x="922.25" y="-333.7" font-family="arial" font-size="14.00">3</text>
<polygon fill="none" stroke="black" points="935.75,-327 935.75,-351 956.5,-351 956.5,-327 935.75,-327"/>
<text text-anchor="start" x="940.88" y="-333.7" font-family="arial" font-size="14.00">C</text>
<polygon fill="none" stroke="black" points="917,-303 917,-327 935.75,-327 935.75,-303 917,-303"/>
<text text-anchor="start" x="922.25" y="-309.7" font-family="arial" font-size="14.00">4</text>
<polygon fill="none" stroke="black" points="935.75,-303 935.75,-327 956.5,-327 956.5,-303 935.75,-303"/>
<text text-anchor="start" x="940.88" y="-309.7" font-family="arial" font-size="14.00">D</text>
</g>
<!-- C2&#45;&#45;X2 -->
<g id="edge19" class="edge">
<title>C2:e&#45;&#45;X2:w</title>
<path fill="none" stroke="#000000" stroke-width="2" d="M773,-388C836.64,-388.04 852.62,-385.04 917,-385"/>
<path fill="none" stroke="#ffffff" stroke-width="2" d="M773,-390C837.01,-390 852.99,-387 917,-387"/>
<path fill="none" stroke="#000000" stroke-width="2" d="M773,-392C837.38,-391.97 853.36,-388.97 917,-389"/>
</g>
<!-- C2&#45;&#45;X2 -->
<g id="edge20" class="edge">
<title>C2:e&#45;&#45;X2:w</title>
<path fill="none" stroke="#000000" stroke-width="2" d="M773,-362C836.88,-362.01 852.88,-361.01 917,-361"/>
<path fill="none" stroke="#895956" stroke-width="2" d="M773,-364C837,-364 853,-363 917,-363"/>
<path fill="none" stroke="#000000" stroke-width="2" d="M773,-366C837.12,-366 853.12,-365 917,-365"/>
</g>
<!-- C2&#45;&#45;X2 -->
<g id="edge21" class="edge">
<title>C2:e&#45;&#45;X2:w</title>
<path fill="none" stroke="#000000" stroke-width="2" d="M773,-336C837.12,-336.01 853.12,-337.01 917,-337"/>
<path fill="none" stroke="#00ff00" stroke-width="2" d="M773,-338C837,-338 853,-339 917,-339"/>
<path fill="none" stroke="#000000" stroke-width="2" d="M773,-340C836.88,-340 852.88,-341 917,-341"/>
</g>
<!-- C2&#45;&#45;X2 -->
<g id="edge22" class="edge">
<title>C2:e&#45;&#45;X2:w</title>
<path fill="none" stroke="#000000" stroke-width="2" d="M773,-310C837.38,-310.04 853.36,-313.04 917,-313"/>
<path fill="none" stroke="#ffff00" stroke-width="2" d="M773,-312C837.01,-312 852.99,-315 917,-315"/>
<path fill="none" stroke="#000000" stroke-width="2" d="M773,-314C836.64,-313.97 852.62,-316.97 917,-317"/>
</g>
<!-- C3&#45;&#45;C3 -->
<g id="edge23" class="edge">
<title>C3:w&#45;&#45;C3:e</title>
<path fill="none" stroke="#000000" stroke-width="2" d="M645,-99C687.67,-99 730.33,-99 773,-99"/>
<path fill="none" stroke="#ffffff" stroke-width="2" d="M645,-101C687.67,-101 730.33,-101 773,-101"/>
<path fill="none" stroke="#000000" stroke-width="2" d="M645,-103C687.67,-103 730.33,-103 773,-103"/>
</g>
<!-- C3&#45;&#45;C3 -->
<g id="edge24" class="edge">
<title>C3:w&#45;&#45;C3:e</title>
<path fill="none" stroke="#000000" stroke-width="2" d="M645,-73C687.67,-73 730.33,-73 773,-73"/>
<path fill="none" stroke="#895956" stroke-width="2" d="M645,-75C687.67,-75 730.33,-75 773,-75"/>
<path fill="none" stroke="#000000" stroke-width="2" d="M645,-77C687.67,-77 730.33,-77 773,-77"/>
</g>
<!-- C3&#45;&#45;C3 -->
<g id="edge25" class="edge">
<title>C3:w&#45;&#45;C3:e</title>
<path fill="none" stroke="#000000" stroke-width="2" d="M645,-47C687.67,-47 730.33,-47 773,-47"/>
<path fill="none" stroke="#00ff00" stroke-width="2" d="M645,-49C687.67,-49 730.33,-49 773,-49"/>
<path fill="none" stroke="#000000" stroke-width="2" d="M645,-51C687.67,-51 730.33,-51 773,-51"/>
</g>
<!-- C3&#45;&#45;C3 -->
<g id="edge26" class="edge">
<title>C3:w&#45;&#45;C3:e</title>
<path fill="none" stroke="#000000" stroke-width="2" d="M645,-21C687.67,-21 730.33,-21 773,-21"/>
<path fill="none" stroke="#ffff00" stroke-width="2" d="M645,-23C687.67,-23 730.33,-23 773,-23"/>
<path fill="none" stroke="#000000" stroke-width="2" d="M645,-25C687.67,-25 730.33,-25 773,-25"/>
</g>
<!-- X3 -->
<g id="node10" class="node">
<title>X3</title>
<polygon fill="#ffffff" stroke="black" points="956.5,-159 917,-159 917,-14 956.5,-14 956.5,-159"/>
<polygon fill="none" stroke="black" points="917,-134.5 917,-159 956.5,-159 956.5,-134.5 917,-134.5"/>
<text text-anchor="start" x="927.75" y="-141.7" font-family="arial" font-size="14.00">X3</text>
<polygon fill="none" stroke="black" points="917,-110 917,-134.5 956.5,-134.5 956.5,-110 917,-110"/>
<text text-anchor="start" x="921" y="-117.2" font-family="arial" font-size="14.00">4&#45;pin</text>
<polygon fill="none" stroke="black" points="917,-86 917,-110 935.75,-110 935.75,-86 917,-86"/>
<text text-anchor="start" x="922.25" y="-92.7" font-family="arial" font-size="14.00">1</text>
<polygon fill="none" stroke="black" points="935.75,-86 935.75,-110 956.5,-110 956.5,-86 935.75,-86"/>
<text text-anchor="start" x="941.25" y="-92.7" font-family="arial" font-size="14.00">A</text>
<polygon fill="none" stroke="black" points="917,-62 917,-86 935.75,-86 935.75,-62 917,-62"/>
<text text-anchor="start" x="922.25" y="-68.7" font-family="arial" font-size="14.00">2</text>
<polygon fill="none" stroke="black" points="935.75,-62 935.75,-86 956.5,-86 956.5,-62 935.75,-62"/>
<text text-anchor="start" x="941.25" y="-68.7" font-family="arial" font-size="14.00">B</text>
<polygon fill="none" stroke="black" points="917,-38 917,-62 935.75,-62 935.75,-38 917,-38"/>
<text text-anchor="start" x="922.25" y="-44.7" font-family="arial" font-size="14.00">3</text>
<polygon fill="none" stroke="black" points="935.75,-38 935.75,-62 956.5,-62 956.5,-38 935.75,-38"/>
<text text-anchor="start" x="940.88" y="-44.7" font-family="arial" font-size="14.00">C</text>
<polygon fill="none" stroke="black" points="917,-14 917,-38 935.75,-38 935.75,-14 917,-14"/>
<text text-anchor="start" x="922.25" y="-20.7" font-family="arial" font-size="14.00">4</text>
<polygon fill="none" stroke="black" points="935.75,-14 935.75,-38 956.5,-38 956.5,-14 935.75,-14"/>
<text text-anchor="start" x="940.88" y="-20.7" font-family="arial" font-size="14.00">D</text>
</g>
<!-- C3&#45;&#45;X3 -->
<g id="edge27" class="edge">
<title>C3:e&#45;&#45;X3:w</title>
<path fill="none" stroke="#000000" stroke-width="2" d="M773,-99C836.64,-99.04 852.62,-96.04 917,-96"/>
<path fill="none" stroke="#ffffff" stroke-width="2" d="M773,-101C837.01,-101 852.99,-98 917,-98"/>
<path fill="none" stroke="#000000" stroke-width="2" d="M773,-103C837.38,-102.97 853.36,-99.97 917,-100"/>
</g>
<!-- C3&#45;&#45;X3 -->
<g id="edge28" class="edge">
<title>C3:e&#45;&#45;X3:w</title>
<path fill="none" stroke="#000000" stroke-width="2" d="M773,-73C836.88,-73.01 852.88,-72.01 917,-72"/>
<path fill="none" stroke="#895956" stroke-width="2" d="M773,-75C837,-75 853,-74 917,-74"/>
<path fill="none" stroke="#000000" stroke-width="2" d="M773,-77C837.12,-77 853.12,-76 917,-76"/>
</g>
<!-- C3&#45;&#45;X3 -->
<g id="edge29" class="edge">
<title>C3:e&#45;&#45;X3:w</title>
<path fill="none" stroke="#000000" stroke-width="2" d="M773,-47C837.12,-47.01 853.12,-48.01 917,-48"/>
<path fill="none" stroke="#00ff00" stroke-width="2" d="M773,-49C837,-49 853,-50 917,-50"/>
<path fill="none" stroke="#000000" stroke-width="2" d="M773,-51C836.88,-51 852.88,-52 917,-52"/>
</g>
<!-- C3&#45;&#45;X3 -->
<g id="edge30" class="edge">
<title>C3:e&#45;&#45;X3:w</title>
<path fill="none" stroke="#000000" stroke-width="2" d="M773,-21C837.38,-21.04 853.36,-24.04 917,-24"/>
<path fill="none" stroke="#ffff00" stroke-width="2" d="M773,-23C837.01,-23 852.99,-26 917,-26"/>
<path fill="none" stroke="#000000" stroke-width="2" d="M773,-25C836.64,-24.97 852.62,-27.97 917,-28"/>
</g>
</g>
</svg>
