<?xml version="1.0" encoding="UTF-8" standalone="no"?>
<!DOCTYPE svg PUBLIC "-//W3C//DTD SVG 1.1//EN"
 "http://www.w3.org/Graphics/SVG/1.1/DTD/svg11.dtd">
<!-- Generated by graphviz version 2.49.1 (20210923.0004)
 -->
<!-- Pages: 1 -->
<svg width="968pt" height="400pt"
 viewBox="0.00 0.00 968.00 400.00" xmlns="http://www.w3.org/2000/svg" xmlns:xlink="http://www.w3.org/1999/xlink">
<g id="graph0" class="graph" transform="scale(1 1) rotate(0) translate(4 396)">
<polygon fill="#ffffff" stroke="transparent" points="-4,4 -4,-396 964,-396 964,4 -4,4"/>
<!-- X1 -->
<g id="node1" class="node">
<title>X1</title>
<polygon fill="#ffffff" stroke="black" points="40,-256 0,-256 0,-118 40,-118 40,-256"/>
<polygon fill="none" stroke="black" points="0,-233 0,-256 40,-256 40,-233 0,-233"/>
<text text-anchor="start" x="11" y="-240.8" font-family="arial" font-size="14.00">X1</text>
<polygon fill="none" stroke="black" points="0,-210 0,-233 40,-233 40,-210 0,-210"/>
<text text-anchor="start" x="4" y="-217.8" font-family="arial" font-size="14.00">4&#45;pin</text>
<polygon fill="none" stroke="black" points="0,-187 0,-210 22,-210 22,-187 0,-187"/>
<text text-anchor="start" x="6" y="-194.8" font-family="arial" font-size="14.00">A</text>
<polygon fill="none" stroke="black" points="22,-187 22,-210 40,-210 40,-187 22,-187"/>
<text text-anchor="start" x="27" y="-194.8" font-family="arial" font-size="14.00">1</text>
<polygon fill="none" stroke="black" points="0,-164 0,-187 22,-187 22,-164 0,-164"/>
<text text-anchor="start" x="6" y="-171.8" font-family="arial" font-size="14.00">B</text>
<polygon fill="none" stroke="black" points="22,-164 22,-187 40,-187 40,-164 22,-164"/>
<text text-anchor="start" x="27" y="-171.8" font-family="arial" font-size="14.00">2</text>
<polygon fill="none" stroke="black" points="0,-141 0,-164 22,-164 22,-141 0,-141"/>
<text text-anchor="start" x="5.5" y="-148.8" font-family="arial" font-size="14.00">C</text>
<polygon fill="none" stroke="black" points="22,-141 22,-164 40,-164 40,-141 22,-141"/>
<text text-anchor="start" x="27" y="-148.8" font-family="arial" font-size="14.00">3</text>
<polygon fill="none" stroke="black" points="0,-118 0,-141 22,-141 22,-118 0,-118"/>
<text text-anchor="start" x="5.5" y="-125.8" font-family="arial" font-size="14.00">D</text>
<polygon fill="none" stroke="black" points="22,-118 22,-141 40,-141 40,-118 22,-118"/>
<text text-anchor="start" x="27" y="-125.8" font-family="arial" font-size="14.00">4</text>
</g>
<!-- C1 -->
<g id="node8" class="node">
<title>C1</title>
<polygon fill="#ffffff" stroke="black" points="310,-288 184,-288 184,-104 310,-104 310,-288"/>
<polygon fill="none" stroke="black" points="184,-265 184,-288 310,-288 310,-265 184,-265"/>
<text text-anchor="start" x="238" y="-272.8" font-family="arial" font-size="14.00">C1</text>
<polygon fill="none" stroke="black" points="184,-242 184,-265 310,-265 310,-242 184,-242"/>
<text text-anchor="start" x="239.5" y="-249.8" font-family="arial" font-size="14.00">4x</text>
<text text-anchor="start" x="205.5" y="-228.8" font-family="arial" font-size="14.00"> </text>
<text text-anchor="start" x="186" y="-209.8" font-family="arial" font-size="14.00">X1:1:A</text>
<text text-anchor="start" x="233" y="-209.8" font-family="arial" font-size="14.00"> &#160;&#160;&#160;&#160;1:WH &#160;&#160;&#160;</text>
<polygon fill="#000000" stroke="transparent" points="184,-202 184,-204 310,-204 310,-202 184,-202"/>
<polygon fill="#ffffff" stroke="transparent" points="184,-200 184,-202 310,-202 310,-200 184,-200"/>
<polygon fill="#000000" stroke="transparent" points="184,-198 184,-200 310,-200 310,-198 184,-198"/>
<text text-anchor="start" x="186" y="-184.8" font-family="arial" font-size="14.00">X1:2:B</text>
<text text-anchor="start" x="235" y="-184.8" font-family="arial" font-size="14.00"> &#160;&#160;&#160;&#160;2:BN &#160;&#160;&#160;</text>
<polygon fill="#000000" stroke="transparent" points="184,-177 184,-179 310,-179 310,-177 184,-177"/>
<polygon fill="#895956" stroke="transparent" points="184,-175 184,-177 310,-177 310,-175 184,-175"/>
<polygon fill="#000000" stroke="transparent" points="184,-173 184,-175 310,-175 310,-173 184,-173"/>
<text text-anchor="start" x="186" y="-159.8" font-family="arial" font-size="14.00">X1:3:C</text>
<text text-anchor="start" x="234.5" y="-159.8" font-family="arial" font-size="14.00"> &#160;&#160;&#160;&#160;3:GN &#160;&#160;&#160;</text>
<polygon fill="#000000" stroke="transparent" points="184,-152 184,-154 310,-154 310,-152 184,-152"/>
<polygon fill="#00ff00" stroke="transparent" points="184,-150 184,-152 310,-152 310,-150 184,-150"/>
<polygon fill="#000000" stroke="transparent" points="184,-148 184,-150 310,-150 310,-148 184,-148"/>
<text text-anchor="start" x="186" y="-134.8" font-family="arial" font-size="14.00">X1:4:D</text>
<text text-anchor="start" x="235.5" y="-134.8" font-family="arial" font-size="14.00"> &#160;&#160;&#160;&#160;4:YE &#160;&#160;&#160;</text>
<polygon fill="#000000" stroke="transparent" points="184,-127 184,-129 310,-129 310,-127 184,-127"/>
<polygon fill="#ffff00" stroke="transparent" points="184,-125 184,-127 310,-127 310,-125 184,-125"/>
<polygon fill="#000000" stroke="transparent" points="184,-123 184,-125 310,-125 310,-123 184,-123"/>
<text text-anchor="start" x="205.5" y="-109.8" font-family="arial" font-size="14.00"> </text>
</g>
<!-- X1&#45;&#45;C1 -->
<g id="edge1" class="edge">
<title>X1:e&#45;&#45;C1:w</title>
<path fill="none" stroke="#000000" stroke-width="2" d="M40,-197C104.25,-197.02 120.24,-199.02 184,-199"/>
<path fill="none" stroke="#ffffff" stroke-width="2" d="M40,-199C104.01,-199 119.99,-201 184,-201"/>
<path fill="none" stroke="#000000" stroke-width="2" d="M40,-201C103.76,-200.98 119.75,-202.98 184,-203"/>
</g>
<!-- X1&#45;&#45;C1 -->
<g id="edge3" class="edge">
<title>X1:e&#45;&#45;C1:w</title>
<path fill="none" stroke="#000000" stroke-width="2" d="M40,-173C104.13,-173 120.12,-174 184,-174"/>
<path fill="none" stroke="#895956" stroke-width="2" d="M40,-175C104,-175 120,-176 184,-176"/>
<path fill="none" stroke="#000000" stroke-width="2" d="M40,-177C103.88,-177 119.87,-178 184,-178"/>
</g>
<!-- X1&#45;&#45;C1 -->
<g id="edge5" class="edge">
<title>X1:e&#45;&#45;C1:w</title>
<path fill="none" stroke="#000000" stroke-width="2" d="M40,-150C103.88,-150 119.87,-149 184,-149"/>
<path fill="none" stroke="#00ff00" stroke-width="2" d="M40,-152C104,-152 120,-151 184,-151"/>
<path fill="none" stroke="#000000" stroke-width="2" d="M40,-154C104.13,-154 120.12,-153 184,-153"/>
</g>
<!-- X1&#45;&#45;C1 -->
<g id="edge7" class="edge">
<title>X1:e&#45;&#45;C1:w</title>
<path fill="none" stroke="#000000" stroke-width="2" d="M40,-127C103.64,-127.03 119.62,-124.03 184,-124"/>
<path fill="none" stroke="#ffff00" stroke-width="2" d="M40,-129C104.01,-129 119.99,-126 184,-126"/>
<path fill="none" stroke="#000000" stroke-width="2" d="M40,-131C104.38,-130.97 120.36,-127.97 184,-128"/>
</g>
<!-- F1 -->
<g id="node2" class="node">
<title>F1</title>
<polygon fill="#ffffff" stroke="black" points="502,-245.5 454,-245.5 454,-222.5 502,-222.5 502,-245.5"/>
<polygon fill="none" stroke="black" points="454,-222 454,-245 502,-245 502,-222 454,-222"/>
<text text-anchor="start" x="458" y="-229.8" font-family="arial" font-size="14.00">ferrule</text>
</g>
<!-- C2 -->
<g id="node9" class="node">
<title>C2</title>
<polygon fill="#ffffff" stroke="black" points="776,-392 646,-392 646,-208 776,-208 776,-392"/>
<polygon fill="none" stroke="black" points="646,-369 646,-392 776,-392 776,-369 646,-369"/>
<text text-anchor="start" x="702" y="-376.8" font-family="arial" font-size="14.00">C2</text>
<polygon fill="none" stroke="black" points="646,-346 646,-369 776,-369 776,-346 646,-346"/>
<text text-anchor="start" x="703.5" y="-353.8" font-family="arial" font-size="14.00">4x</text>
<text text-anchor="start" x="648" y="-332.8" font-family="arial" font-size="14.00"> </text>
<text text-anchor="start" x="656" y="-313.8" font-family="arial" font-size="14.00"> &#160;&#160;&#160;&#160;1:WH &#160;&#160;&#160;</text>
<text text-anchor="start" x="731" y="-313.8" font-family="arial" font-size="14.00">X2:1:A</text>
<polygon fill="#000000" stroke="transparent" points="646,-306 646,-308 776,-308 776,-306 646,-306"/>
<polygon fill="#ffffff" stroke="transparent" points="646,-304 646,-306 776,-306 776,-304 646,-304"/>
<polygon fill="#000000" stroke="transparent" points="646,-302 646,-304 776,-304 776,-302 646,-302"/>
<text text-anchor="start" x="658" y="-288.8" font-family="arial" font-size="14.00"> &#160;&#160;&#160;&#160;2:BN &#160;&#160;&#160;</text>
<text text-anchor="start" x="731" y="-288.8" font-family="arial" font-size="14.00">X2:2:B</text>
<polygon fill="#000000" stroke="transparent" points="646,-281 646,-283 776,-283 776,-281 646,-281"/>
<polygon fill="#895956" stroke="transparent" points="646,-279 646,-281 776,-281 776,-279 646,-279"/>
<polygon fill="#000000" stroke="transparent" points="646,-277 646,-279 776,-279 776,-277 646,-277"/>
<text text-anchor="start" x="657.5" y="-263.8" font-family="arial" font-size="14.00"> &#160;&#160;&#160;&#160;3:GN &#160;&#160;&#160;</text>
<text text-anchor="start" x="731" y="-263.8" font-family="arial" font-size="14.00">X2:3:C</text>
<polygon fill="#000000" stroke="transparent" points="646,-256 646,-258 776,-258 776,-256 646,-256"/>
<polygon fill="#00ff00" stroke="transparent" points="646,-254 646,-256 776,-256 776,-254 646,-254"/>
<polygon fill="#000000" stroke="transparent" points="646,-252 646,-254 776,-254 776,-252 646,-252"/>
<text text-anchor="start" x="658.5" y="-238.8" font-family="arial" font-size="14.00"> &#160;&#160;&#160;&#160;4:YE &#160;&#160;&#160;</text>
<text text-anchor="start" x="731" y="-238.8" font-family="arial" font-size="14.00">X2:4:D</text>
<polygon fill="#000000" stroke="transparent" points="646,-231 646,-233 776,-233 776,-231 646,-231"/>
<polygon fill="#ffff00" stroke="transparent" points="646,-229 646,-231 776,-231 776,-229 646,-229"/>
<polygon fill="#000000" stroke="transparent" points="646,-227 646,-229 776,-229 776,-227 646,-227"/>
<text text-anchor="start" x="648" y="-213.8" font-family="arial" font-size="14.00"> </text>
</g>
<!-- F1&#45;&#45;C2 -->
<g id="edge9" class="edge">
<title>F1:e&#45;&#45;C2:w</title>
<path fill="none" stroke="#000000" stroke-width="2" d="M502,-232C575.36,-233.96 576.64,-304.96 646,-303"/>
<path fill="none" stroke="#ffffff" stroke-width="2" d="M502,-234C573.36,-234 574.64,-305 646,-305"/>
<path fill="none" stroke="#000000" stroke-width="2" d="M502,-236C571.36,-234.04 572.64,-305.04 646,-307"/>
</g>
<!-- C3 -->
<g id="node10" class="node">
<title>C3</title>
<polygon fill="#ffffff" stroke="black" points="776,-184 646,-184 646,0 776,0 776,-184"/>
<polygon fill="none" stroke="black" points="646,-161 646,-184 776,-184 776,-161 646,-161"/>
<text text-anchor="start" x="702" y="-168.8" font-family="arial" font-size="14.00">C3</text>
<polygon fill="none" stroke="black" points="646,-138 646,-161 776,-161 776,-138 646,-138"/>
<text text-anchor="start" x="703.5" y="-145.8" font-family="arial" font-size="14.00">4x</text>
<text text-anchor="start" x="648" y="-124.8" font-family="arial" font-size="14.00"> </text>
<text text-anchor="start" x="656" y="-105.8" font-family="arial" font-size="14.00"> &#160;&#160;&#160;&#160;1:WH &#160;&#160;&#160;</text>
<text text-anchor="start" x="731" y="-105.8" font-family="arial" font-size="14.00">X3:1:A</text>
<polygon fill="#000000" stroke="transparent" points="646,-98 646,-100 776,-100 776,-98 646,-98"/>
<polygon fill="#ffffff" stroke="transparent" points="646,-96 646,-98 776,-98 776,-96 646,-96"/>
<polygon fill="#000000" stroke="transparent" points="646,-94 646,-96 776,-96 776,-94 646,-94"/>
<text text-anchor="start" x="658" y="-80.8" font-family="arial" font-size="14.00"> &#160;&#160;&#160;&#160;2:BN &#160;&#160;&#160;</text>
<text text-anchor="start" x="731" y="-80.8" font-family="arial" font-size="14.00">X3:2:B</text>
<polygon fill="#000000" stroke="transparent" points="646,-73 646,-75 776,-75 776,-73 646,-73"/>
<polygon fill="#895956" stroke="transparent" points="646,-71 646,-73 776,-73 776,-71 646,-71"/>
<polygon fill="#000000" stroke="transparent" points="646,-69 646,-71 776,-71 776,-69 646,-69"/>
<text text-anchor="start" x="657.5" y="-55.8" font-family="arial" font-size="14.00"> &#160;&#160;&#160;&#160;3:GN &#160;&#160;&#160;</text>
<text text-anchor="start" x="731" y="-55.8" font-family="arial" font-size="14.00">X3:3:C</text>
<polygon fill="#000000" stroke="transparent" points="646,-48 646,-50 776,-50 776,-48 646,-48"/>
<polygon fill="#00ff00" stroke="transparent" points="646,-46 646,-48 776,-48 776,-46 646,-46"/>
<polygon fill="#000000" stroke="transparent" points="646,-44 646,-46 776,-46 776,-44 646,-44"/>
<text text-anchor="start" x="658.5" y="-30.8" font-family="arial" font-size="14.00"> &#160;&#160;&#160;&#160;4:YE &#160;&#160;&#160;</text>
<text text-anchor="start" x="731" y="-30.8" font-family="arial" font-size="14.00">X3:4:D</text>
<polygon fill="#000000" stroke="transparent" points="646,-23 646,-25 776,-25 776,-23 646,-23"/>
<polygon fill="#ffff00" stroke="transparent" points="646,-21 646,-23 776,-23 776,-21 646,-21"/>
<polygon fill="#000000" stroke="transparent" points="646,-19 646,-21 776,-21 776,-19 646,-19"/>
<text text-anchor="start" x="648" y="-5.8" font-family="arial" font-size="14.00"> </text>
</g>
<!-- F1&#45;&#45;C3 -->
<g id="edge17" class="edge">
<title>F1:e&#45;&#45;C3:w</title>
<path fill="none" stroke="#000000" stroke-width="2" d="M502,-232C588.39,-234.46 555.72,-97.46 646,-95"/>
<path fill="none" stroke="#ffffff" stroke-width="2" d="M502,-234C590.34,-234 557.66,-97 646,-97"/>
<path fill="none" stroke="#000000" stroke-width="2" d="M502,-236C592.28,-233.54 559.61,-96.54 646,-99"/>
</g>
<!-- F2 -->
<g id="node3" class="node">
<title>F2</title>
<polygon fill="#ffffff" stroke="black" points="502,-198.5 454,-198.5 454,-175.5 502,-175.5 502,-198.5"/>
<polygon fill="none" stroke="black" points="454,-175 454,-198 502,-198 502,-175 454,-175"/>
<text text-anchor="start" x="458" y="-182.8" font-family="arial" font-size="14.00">ferrule</text>
</g>
<!-- F2&#45;&#45;C2 -->
<g id="edge11" class="edge">
<title>F2:e&#45;&#45;C2:w</title>
<path fill="none" stroke="#000000" stroke-width="2" d="M502,-185C580.18,-187.18 571.81,-280.18 646,-278"/>
<path fill="none" stroke="#895956" stroke-width="2" d="M502,-187C578.19,-187 569.81,-280 646,-280"/>
<path fill="none" stroke="#000000" stroke-width="2" d="M502,-189C576.19,-186.82 567.82,-279.82 646,-282"/>
</g>
<!-- F2&#45;&#45;C3 -->
<g id="edge19" class="edge">
<title>F2:e&#45;&#45;C3:w</title>
<path fill="none" stroke="#000000" stroke-width="2" d="M502,-185C581.93,-187.34 562.12,-72.34 646,-70"/>
<path fill="none" stroke="#895956" stroke-width="2" d="M502,-187C583.9,-187 564.1,-72 646,-72"/>
<path fill="none" stroke="#000000" stroke-width="2" d="M502,-189C585.88,-186.66 566.07,-71.66 646,-74"/>
</g>
<!-- F3 -->
<g id="node4" class="node">
<title>F3</title>
<polygon fill="#ffffff" stroke="black" points="502,-151.5 454,-151.5 454,-128.5 502,-128.5 502,-151.5"/>
<polygon fill="none" stroke="black" points="454,-128 454,-151 502,-151 502,-128 454,-128"/>
<text text-anchor="start" x="458" y="-135.8" font-family="arial" font-size="14.00">ferrule</text>
</g>
<!-- F3&#45;&#45;C2 -->
<g id="edge13" class="edge">
<title>F3:e&#45;&#45;C2:w</title>
<path fill="none" stroke="#000000" stroke-width="2" d="M502,-138C585.88,-140.34 566.07,-255.34 646,-253"/>
<path fill="none" stroke="#00ff00" stroke-width="2" d="M502,-140C583.9,-140 564.1,-255 646,-255"/>
<path fill="none" stroke="#000000" stroke-width="2" d="M502,-142C581.93,-139.66 562.12,-254.66 646,-257"/>
</g>
<!-- F3&#45;&#45;C3 -->
<g id="edge21" class="edge">
<title>F3:e&#45;&#45;C3:w</title>
<path fill="none" stroke="#000000" stroke-width="2" d="M502,-138C576.19,-140.18 567.82,-47.18 646,-45"/>
<path fill="none" stroke="#00ff00" stroke-width="2" d="M502,-140C578.19,-140 569.81,-47 646,-47"/>
<path fill="none" stroke="#000000" stroke-width="2" d="M502,-142C580.18,-139.82 571.81,-46.82 646,-49"/>
</g>
<!-- F4 -->
<g id="node5" class="node">
<title>F4</title>
<polygon fill="#ffffff" stroke="black" points="502,-104.5 454,-104.5 454,-81.5 502,-81.5 502,-104.5"/>
<polygon fill="none" stroke="black" points="454,-81 454,-104 502,-104 502,-81 454,-81"/>
<text text-anchor="start" x="458" y="-88.8" font-family="arial" font-size="14.00">ferrule</text>
</g>
<!-- F4&#45;&#45;C2 -->
<g id="edge15" class="edge">
<title>F4:e&#45;&#45;C2:w</title>
<path fill="none" stroke="#000000" stroke-width="2" d="M502,-91C592.28,-93.46 559.61,-230.46 646,-228"/>
<path fill="none" stroke="#ffff00" stroke-width="2" d="M502,-93C590.34,-93 557.66,-230 646,-230"/>
<path fill="none" stroke="#000000" stroke-width="2" d="M502,-95C588.39,-92.54 555.72,-229.54 646,-232"/>
</g>
<!-- F4&#45;&#45;C3 -->
<g id="edge23" class="edge">
<title>F4:e&#45;&#45;C3:w</title>
<path fill="none" stroke="#000000" stroke-width="2" d="M502,-91C571.36,-92.96 572.64,-21.96 646,-20"/>
<path fill="none" stroke="#ffff00" stroke-width="2" d="M502,-93C573.36,-93 574.64,-22 646,-22"/>
<path fill="none" stroke="#000000" stroke-width="2" d="M502,-95C575.36,-93.04 576.64,-22.04 646,-24"/>
</g>
<!-- X2 -->
<g id="node6" class="node">
<title>X2</title>
<polygon fill="#ffffff" stroke="black" points="960,-360 920,-360 920,-222 960,-222 960,-360"/>
<polygon fill="none" stroke="black" points="920,-337 920,-360 960,-360 960,-337 920,-337"/>
<text text-anchor="start" x="931" y="-344.8" font-family="arial" font-size="14.00">X2</text>
<polygon fill="none" stroke="black" points="920,-314 920,-337 960,-337 960,-314 920,-314"/>
<text text-anchor="start" x="924" y="-321.8" font-family="arial" font-size="14.00">4&#45;pin</text>
<polygon fill="none" stroke="black" points="920,-291 920,-314 939,-314 939,-291 920,-291"/>
<text text-anchor="start" x="925.5" y="-298.8" font-family="arial" font-size="14.00">1</text>
<polygon fill="none" stroke="black" points="939,-291 939,-314 960,-314 960,-291 939,-291"/>
<text text-anchor="start" x="944.5" y="-298.8" font-family="arial" font-size="14.00">A</text>
<polygon fill="none" stroke="black" points="920,-268 920,-291 939,-291 939,-268 920,-268"/>
<text text-anchor="start" x="925.5" y="-275.8" font-family="arial" font-size="14.00">2</text>
<polygon fill="none" stroke="black" points="939,-268 939,-291 960,-291 960,-268 939,-268"/>
<text text-anchor="start" x="944.5" y="-275.8" font-family="arial" font-size="14.00">B</text>
<polygon fill="none" stroke="black" points="920,-245 920,-268 939,-268 939,-245 920,-245"/>
<text text-anchor="start" x="925.5" y="-252.8" font-family="arial" font-size="14.00">3</text>
<polygon fill="none" stroke="black" points="939,-245 939,-268 960,-268 960,-245 939,-245"/>
<text text-anchor="start" x="944" y="-252.8" font-family="arial" font-size="14.00">C</text>
<polygon fill="none" stroke="black" points="920,-222 920,-245 939,-245 939,-222 920,-222"/>
<text text-anchor="start" x="925.5" y="-229.8" font-family="arial" font-size="14.00">4</text>
<polygon fill="none" stroke="black" points="939,-222 939,-245 960,-245 960,-222 939,-222"/>
<text text-anchor="start" x="944" y="-229.8" font-family="arial" font-size="14.00">D</text>
</g>
<!-- X3 -->
<g id="node7" class="node">
<title>X3</title>
<polygon fill="#ffffff" stroke="black" points="960,-152 920,-152 920,-14 960,-14 960,-152"/>
<polygon fill="none" stroke="black" points="920,-129 920,-152 960,-152 960,-129 920,-129"/>
<text text-anchor="start" x="931" y="-136.8" font-family="arial" font-size="14.00">X3</text>
<polygon fill="none" stroke="black" points="920,-106 920,-129 960,-129 960,-106 920,-106"/>
<text text-anchor="start" x="924" y="-113.8" font-family="arial" font-size="14.00">4&#45;pin</text>
<polygon fill="none" stroke="black" points="920,-83 920,-106 939,-106 939,-83 920,-83"/>
<text text-anchor="start" x="925.5" y="-90.8" font-family="arial" font-size="14.00">1</text>
<polygon fill="none" stroke="black" points="939,-83 939,-106 960,-106 960,-83 939,-83"/>
<text text-anchor="start" x="944.5" y="-90.8" font-family="arial" font-size="14.00">A</text>
<polygon fill="none" stroke="black" points="920,-60 920,-83 939,-83 939,-60 920,-60"/>
<text text-anchor="start" x="925.5" y="-67.8" font-family="arial" font-size="14.00">2</text>
<polygon fill="none" stroke="black" points="939,-60 939,-83 960,-83 960,-60 939,-60"/>
<text text-anchor="start" x="944.5" y="-67.8" font-family="arial" font-size="14.00">B</text>
<polygon fill="none" stroke="black" points="920,-37 920,-60 939,-60 939,-37 920,-37"/>
<text text-anchor="start" x="925.5" y="-44.8" font-family="arial" font-size="14.00">3</text>
<polygon fill="none" stroke="black" points="939,-37 939,-60 960,-60 960,-37 939,-37"/>
<text text-anchor="start" x="944" y="-44.8" font-family="arial" font-size="14.00">C</text>
<polygon fill="none" stroke="black" points="920,-14 920,-37 939,-37 939,-14 920,-14"/>
<text text-anchor="start" x="925.5" y="-21.8" font-family="arial" font-size="14.00">4</text>
<polygon fill="none" stroke="black" points="939,-14 939,-37 960,-37 960,-14 939,-14"/>
<text text-anchor="start" x="944" y="-21.8" font-family="arial" font-size="14.00">D</text>
</g>
<!-- C1&#45;&#45;F1 -->
<g id="edge2" class="edge">
<title>C1:e&#45;&#45;F1:w</title>
<path fill="none" stroke="#000000" stroke-width="2" d="M310,-199C377.53,-200.28 390.21,-233.28 454,-232"/>
<path fill="none" stroke="#ffffff" stroke-width="2" d="M310,-201C375.66,-201 388.34,-234 454,-234"/>
<path fill="none" stroke="#000000" stroke-width="2" d="M310,-203C373.79,-201.72 386.47,-234.72 454,-236"/>
</g>
<!-- C1&#45;&#45;F2 -->
<g id="edge4" class="edge">
<title>C1:e&#45;&#45;F2:w</title>
<path fill="none" stroke="#000000" stroke-width="2" d="M310,-174C375.34,-174.36 390.96,-185.36 454,-185"/>
<path fill="none" stroke="#895956" stroke-width="2" d="M310,-176C374.19,-176 389.81,-187 454,-187"/>
<path fill="none" stroke="#000000" stroke-width="2" d="M310,-178C373.04,-177.64 388.66,-188.64 454,-189"/>
</g>
<!-- C1&#45;&#45;F3 -->
<g id="edge6" class="edge">
<title>C1:e&#45;&#45;F3:w</title>
<path fill="none" stroke="#000000" stroke-width="2" d="M310,-149C373.04,-149.36 388.66,-138.36 454,-138"/>
<path fill="none" stroke="#00ff00" stroke-width="2" d="M310,-151C374.19,-151 389.81,-140 454,-140"/>
<path fill="none" stroke="#000000" stroke-width="2" d="M310,-153C375.34,-152.64 390.96,-141.64 454,-142"/>
</g>
<!-- C1&#45;&#45;F4 -->
<g id="edge8" class="edge">
<title>C1:e&#45;&#45;F4:w</title>
<path fill="none" stroke="#000000" stroke-width="2" d="M310,-124C373.79,-125.28 386.47,-92.28 454,-91"/>
<path fill="none" stroke="#ffff00" stroke-width="2" d="M310,-126C375.66,-126 388.34,-93 454,-93"/>
<path fill="none" stroke="#000000" stroke-width="2" d="M310,-128C377.53,-126.72 390.21,-93.72 454,-95"/>
</g>
<!-- C2&#45;&#45;X2 -->
<g id="edge10" class="edge">
<title>C2:e&#45;&#45;X2:w</title>
<path fill="none" stroke="#000000" stroke-width="2" d="M776,-303C839.76,-303.02 855.75,-301.02 920,-301"/>
<path fill="none" stroke="#ffffff" stroke-width="2" d="M776,-305C840.01,-305 855.99,-303 920,-303"/>
<path fill="none" stroke="#000000" stroke-width="2" d="M776,-307C840.25,-306.98 856.24,-304.98 920,-305"/>
</g>
<!-- C2&#45;&#45;X2 -->
<g id="edge12" class="edge">
<title>C2:e&#45;&#45;X2:w</title>
<path fill="none" stroke="#000000" stroke-width="2" d="M776,-278C839.88,-278 855.87,-277 920,-277"/>
<path fill="none" stroke="#895956" stroke-width="2" d="M776,-280C840,-280 856,-279 920,-279"/>
<path fill="none" stroke="#000000" stroke-width="2" d="M776,-282C840.13,-282 856.12,-281 920,-281"/>
</g>
<!-- C2&#45;&#45;X2 -->
<g id="edge14" class="edge">
<title>C2:e&#45;&#45;X2:w</title>
<path fill="none" stroke="#000000" stroke-width="2" d="M776,-253C840.13,-253 856.12,-254 920,-254"/>
<path fill="none" stroke="#00ff00" stroke-width="2" d="M776,-255C840,-255 856,-256 920,-256"/>
<path fill="none" stroke="#000000" stroke-width="2" d="M776,-257C839.88,-257 855.87,-258 920,-258"/>
</g>
<!-- C2&#45;&#45;X2 -->
<g id="edge16" class="edge">
<title>C2:e&#45;&#45;X2:w</title>
<path fill="none" stroke="#000000" stroke-width="2" d="M776,-228C840.38,-228.03 856.36,-231.03 920,-231"/>
<path fill="none" stroke="#ffff00" stroke-width="2" d="M776,-230C840.01,-230 855.99,-233 920,-233"/>
<path fill="none" stroke="#000000" stroke-width="2" d="M776,-232C839.64,-231.97 855.62,-234.97 920,-235"/>
</g>
<!-- C3&#45;&#45;X3 -->
<g id="edge18" class="edge">
<title>C3:e&#45;&#45;X3:w</title>
<path fill="none" stroke="#000000" stroke-width="2" d="M776,-95C839.76,-95.02 855.75,-93.02 920,-93"/>
<path fill="none" stroke="#ffffff" stroke-width="2" d="M776,-97C840.01,-97 855.99,-95 920,-95"/>
<path fill="none" stroke="#000000" stroke-width="2" d="M776,-99C840.25,-98.98 856.24,-96.98 920,-97"/>
</g>
<!-- C3&#45;&#45;X3 -->
<g id="edge20" class="edge">
<title>C3:e&#45;&#45;X3:w</title>
<path fill="none" stroke="#000000" stroke-width="2" d="M776,-70C839.88,-70 855.87,-69 920,-69"/>
<path fill="none" stroke="#895956" stroke-width="2" d="M776,-72C840,-72 856,-71 920,-71"/>
<path fill="none" stroke="#000000" stroke-width="2" d="M776,-74C840.13,-74 856.12,-73 920,-73"/>
</g>
<!-- C3&#45;&#45;X3 -->
<g id="edge22" class="edge">
<title>C3:e&#45;&#45;X3:w</title>
<path fill="none" stroke="#000000" stroke-width="2" d="M776,-45C840.13,-45 856.12,-46 920,-46"/>
<path fill="none" stroke="#00ff00" stroke-width="2" d="M776,-47C840,-47 856,-48 920,-48"/>
<path fill="none" stroke="#000000" stroke-width="2" d="M776,-49C839.88,-49 855.87,-50 920,-50"/>
</g>
<!-- C3&#45;&#45;X3 -->
<g id="edge24" class="edge">
<title>C3:e&#45;&#45;X3:w</title>
<path fill="none" stroke="#000000" stroke-width="2" d="M776,-20C840.38,-20.03 856.36,-23.03 920,-23"/>
<path fill="none" stroke="#ffff00" stroke-width="2" d="M776,-22C840.01,-22 855.99,-25 920,-25"/>
<path fill="none" stroke="#000000" stroke-width="2" d="M776,-24C839.64,-23.97 855.62,-26.97 920,-27"/>
</g>
</g>
</svg>
