<?xml version="1.0" encoding="UTF-8" standalone="no"?>
<!DOCTYPE svg PUBLIC "-//W3C//DTD SVG 1.1//EN"
 "http://www.w3.org/Graphics/SVG/1.1/DTD/svg11.dtd">
<!-- Generated by graphviz version 11.0.0 (20240428.1522)
 -->
<!-- Pages: 1 -->
<svg width="967pt" height="343pt"
 viewBox="0.00 0.00 966.51 342.75" xmlns="http://www.w3.org/2000/svg" xmlns:xlink="http://www.w3.org/1999/xlink">
<g id="graph0" class="graph" transform="scale(1 1) rotate(0) translate(4 338.75)">
<polygon fill="#ffffff" stroke="none" points="-4,4 -4,-338.75 962.51,-338.75 962.51,4 -4,4"/>
<!-- X1 -->
<g id="node1" class="node">
<title>X1</title>
<polygon fill="#ffffff" stroke="black" points="204.5,-314.5 0,-314.5 0,0 204.5,0 204.5,-314.5"/>
<polygon fill="none" stroke="black" points="0,-290 0,-314.5 204.5,-314.5 204.5,-290 0,-290"/>
<text text-anchor="start" x="93.25" y="-297.2" font-family="arial" font-size="14.00">X1</text>
<polygon fill="none" stroke="black" points="0,-265.5 0,-290 102.67,-290 102.67,-265.5 0,-265.5"/>
<text text-anchor="start" x="6.71" y="-272.7" font-family="arial" font-size="14.00">Molex KK 254</text>
<polygon fill="none" stroke="black" points="102.67,-265.5 102.67,-290 159.58,-290 159.58,-265.5 102.67,-265.5"/>
<text text-anchor="start" x="109.38" y="-272.7" font-family="arial" font-size="14.00">female</text>
<polygon fill="none" stroke="black" points="159.58,-265.5 159.58,-290 204.5,-290 204.5,-265.5 159.58,-265.5"/>
<text text-anchor="start" x="166.29" y="-272.7" font-family="arial" font-size="14.00">7&#45;pin</text>
<polygon fill="none" stroke="black" points="0,-241.5 0,-265.5 58.88,-265.5 58.88,-241.5 0,-241.5"/>
<polygon fill="none" stroke="black" points="58.88,-241.5 58.88,-265.5 113.75,-265.5 113.75,-241.5 58.88,-241.5"/>
<text text-anchor="start" x="72.44" y="-248.2" font-family="arial" font-size="14.00">SH1</text>
<polygon fill="none" stroke="black" points="113.75,-241.5 113.75,-265.5 168.63,-265.5 168.63,-241.5 113.75,-241.5"/>
<text text-anchor="start" x="127.31" y="-248.2" font-family="arial" font-size="14.00">SH2</text>
<polygon fill="none" stroke="black" points="168.63,-241.5 168.63,-265.5 204.5,-265.5 204.5,-241.5 168.63,-241.5"/>
<polygon fill="none" stroke="black" points="0,-217.5 0,-241.5 58.88,-241.5 58.88,-217.5 0,-217.5"/>
<text text-anchor="start" x="13.69" y="-224.2" font-family="arial" font-size="14.00">GND</text>
<polygon fill="none" stroke="black" points="58.88,-217.5 58.88,-241.5 113.75,-241.5 113.75,-217.5 58.88,-217.5"/>
<polygon fill="none" stroke="black" points="113.75,-217.5 113.75,-241.5 168.63,-241.5 168.63,-217.5 113.75,-217.5"/>
<polygon fill="none" stroke="black" points="168.63,-217.5 168.63,-241.5 204.5,-241.5 204.5,-217.5 168.63,-217.5"/>
<text text-anchor="start" x="182.44" y="-224.2" font-family="arial" font-size="14.00">1</text>
<polygon fill="none" stroke="black" points="0,-193.5 0,-217.5 58.88,-217.5 58.88,-193.5 0,-193.5"/>
<text text-anchor="start" x="14.06" y="-200.2" font-family="arial" font-size="14.00">VCC</text>
<polygon fill="none" stroke="black" points="58.88,-193.5 58.88,-217.5 113.75,-217.5 113.75,-193.5 58.88,-193.5"/>
<polygon fill="none" stroke="black" points="113.75,-193.5 113.75,-217.5 168.63,-217.5 168.63,-193.5 113.75,-193.5"/>
<polygon fill="none" stroke="black" points="168.63,-193.5 168.63,-217.5 204.5,-217.5 204.5,-193.5 168.63,-193.5"/>
<text text-anchor="start" x="182.44" y="-200.2" font-family="arial" font-size="14.00">2</text>
<polygon fill="none" stroke="black" points="0,-169.5 0,-193.5 58.88,-193.5 58.88,-169.5 0,-169.5"/>
<text text-anchor="start" x="19.31" y="-176.2" font-family="arial" font-size="14.00">RX</text>
<polygon fill="none" stroke="black" points="58.88,-169.5 58.88,-193.5 113.75,-193.5 113.75,-169.5 58.88,-169.5"/>
<polygon fill="none" stroke="black" points="113.75,-169.5 113.75,-193.5 168.63,-193.5 168.63,-169.5 113.75,-169.5"/>
<polygon fill="none" stroke="black" points="168.63,-169.5 168.63,-193.5 204.5,-193.5 204.5,-169.5 168.63,-169.5"/>
<text text-anchor="start" x="182.44" y="-176.2" font-family="arial" font-size="14.00">3</text>
<polygon fill="none" stroke="black" points="0,-145.5 0,-169.5 58.88,-169.5 58.88,-145.5 0,-145.5"/>
<text text-anchor="start" x="20.06" y="-152.2" font-family="arial" font-size="14.00">TX</text>
<polygon fill="none" stroke="black" points="58.88,-145.5 58.88,-169.5 113.75,-169.5 113.75,-145.5 58.88,-145.5"/>
<polygon fill="none" stroke="black" points="113.75,-145.5 113.75,-169.5 168.63,-169.5 168.63,-145.5 113.75,-145.5"/>
<polygon fill="none" stroke="black" points="168.63,-145.5 168.63,-169.5 204.5,-169.5 204.5,-145.5 168.63,-145.5"/>
<text text-anchor="start" x="182.44" y="-152.2" font-family="arial" font-size="14.00">4</text>
<polygon fill="none" stroke="black" points="0,-121.5 0,-145.5 58.88,-145.5 58.88,-121.5 0,-121.5"/>
<text text-anchor="start" x="13.69" y="-128.2" font-family="arial" font-size="14.00">GND</text>
<polygon fill="none" stroke="black" points="58.88,-121.5 58.88,-145.5 113.75,-145.5 113.75,-121.5 58.88,-121.5"/>
<polygon fill="none" stroke="black" points="113.75,-121.5 113.75,-145.5 168.63,-145.5 168.63,-121.5 113.75,-121.5"/>
<polygon fill="none" stroke="black" points="168.63,-121.5 168.63,-145.5 204.5,-145.5 204.5,-121.5 168.63,-121.5"/>
<text text-anchor="start" x="182.44" y="-128.2" font-family="arial" font-size="14.00">5</text>
<polygon fill="none" stroke="black" points="0,-97.5 0,-121.5 58.88,-121.5 58.88,-97.5 0,-97.5"/>
<text text-anchor="start" x="14.06" y="-104.2" font-family="arial" font-size="14.00">VCC</text>
<polygon fill="none" stroke="black" points="58.88,-97.5 58.88,-121.5 113.75,-121.5 113.75,-97.5 58.88,-97.5"/>
<polygon fill="none" stroke="black" points="113.75,-97.5 113.75,-121.5 168.63,-121.5 168.63,-97.5 113.75,-97.5"/>
<polygon fill="none" stroke="black" points="168.63,-97.5 168.63,-121.5 204.5,-121.5 204.5,-97.5 168.63,-97.5"/>
<text text-anchor="start" x="182.44" y="-104.2" font-family="arial" font-size="14.00">6</text>
<polygon fill="none" stroke="black" points="0,-73.5 0,-97.5 58.88,-97.5 58.88,-73.5 0,-73.5"/>
<text text-anchor="start" x="13.69" y="-80.2" font-family="arial" font-size="14.00">GND</text>
<polygon fill="none" stroke="black" points="58.88,-73.5 58.88,-97.5 113.75,-97.5 113.75,-73.5 58.88,-73.5"/>
<polygon fill="none" stroke="black" points="113.75,-73.5 113.75,-97.5 168.63,-97.5 168.63,-73.5 113.75,-73.5"/>
<polygon fill="none" stroke="black" points="168.63,-73.5 168.63,-97.5 204.5,-97.5 204.5,-73.5 168.63,-73.5"/>
<text text-anchor="start" x="182.44" y="-80.2" font-family="arial" font-size="14.00">7</text>
<polygon fill="none" stroke="black" points="0,-49 0,-73.5 204.5,-73.5 204.5,-49 0,-49"/>
<text text-anchor="start" x="29.88" y="-56.2" font-family="arial" font-size="14.00">Additional components</text>
<polygon fill="none" stroke="black" points="0,-24.5 0,-49 204.5,-49 204.5,-24.5 0,-24.5"/>
<text text-anchor="start" x="4" y="-31.7" font-family="arial" font-size="14.00">42 mm x SH1 x #3 (shortPartA)</text>
<polygon fill="none" stroke="black" points="0,0 0,-24.5 204.5,-24.5 204.5,0 0,0"/>
<text text-anchor="start" x="4" y="-7.2" font-family="arial" font-size="14.00">1 x SH2 x #4 (shortPartB)</text>
</g>
<!-- X1&#45;&#45;X1 -->
<g id="edge1" class="edge">
<title>X1:c&#45;&#45;X1:c</title>
<path fill="none" stroke="#ff66cc" stroke-width="2" d="M86.31,-229.5C86.31,-197.5 86.31,-165.5 86.31,-133.5"/>
</g>
<!-- X1&#45;&#45;X1 -->
<g id="edge2" class="edge">
<title>X1:c&#45;&#45;X1:c</title>
<path fill="none" stroke="#ff66cc" stroke-width="2" d="M86.31,-133.5C86.31,-117.5 86.31,-101.5 86.31,-85.5"/>
</g>
<!-- X1&#45;&#45;X1 -->
<g id="edge3" class="edge">
<title>X1:c&#45;&#45;X1:c</title>
<path fill="none" stroke="#ff0000" stroke-width="2" d="M141.19,-205.5C141.19,-173.5 141.19,-141.5 141.19,-109.5"/>
</g>
<!-- W1 -->
<g id="node2" class="node">
<title>W1</title>
<polygon fill="#ffffff" stroke="black" points="626.26,-334.75 348.51,-334.75 348.51,-83.75 626.26,-83.75 626.26,-334.75"/>
<polygon fill="none" stroke="black" points="348.51,-310.25 348.51,-334.75 626.26,-334.75 626.26,-310.25 348.51,-310.25"/>
<text text-anchor="start" x="476.13" y="-317.45" font-family="arial" font-size="14.00">W1</text>
<polygon fill="none" stroke="black" points="348.51,-285.75 348.51,-310.25 392.51,-310.25 392.51,-285.75 348.51,-285.75"/>
<text text-anchor="start" x="352.51" y="-292.95" font-family="arial" font-size="14.00">Serial</text>
<polygon fill="none" stroke="black" points="392.51,-285.75 392.51,-310.25 415.51,-310.25 415.51,-285.75 392.51,-285.75"/>
<text text-anchor="start" x="396.51" y="-292.95" font-family="arial" font-size="14.00">4x</text>
<polygon fill="none" stroke="black" points="415.51,-285.75 415.51,-310.25 552.51,-310.25 552.51,-285.75 415.51,-285.75"/>
<text text-anchor="start" x="419.51" y="-292.95" font-family="arial" font-size="14.00">0.25 mm² (24 AWG)</text>
<polygon fill="none" stroke="black" points="552.51,-285.75 552.51,-310.25 582.26,-310.25 582.26,-285.75 552.51,-285.75"/>
<text text-anchor="start" x="556.51" y="-292.95" font-family="arial" font-size="14.00">+ S</text>
<polygon fill="none" stroke="black" points="582.26,-285.75 582.26,-310.25 626.26,-310.25 626.26,-285.75 582.26,-285.75"/>
<text text-anchor="start" x="586.26" y="-292.95" font-family="arial" font-size="14.00">0.2 m</text>
<text text-anchor="start" x="388.42" y="-270.45" font-family="arial" font-size="14.00"> </text>
<text text-anchor="start" x="357.67" y="-250.45" font-family="arial" font-size="14.00">X1:1:GND</text>
<text text-anchor="start" x="442.76" y="-250.45" font-family="arial" font-size="14.00"> &#160;&#160;&#160;&#160;1:BUWH &#160;&#160;&#160;</text>
<text text-anchor="start" x="551.84" y="-250.45" font-family="arial" font-size="14.00">X2:1:GND</text>
<text text-anchor="start" x="358.05" y="-220.45" font-family="arial" font-size="14.00">X1:2:VCC</text>
<text text-anchor="start" x="442.76" y="-220.45" font-family="arial" font-size="14.00"> &#160;&#160;&#160;&#160;2:WHBU &#160;&#160;&#160;</text>
<text text-anchor="start" x="552.21" y="-220.45" font-family="arial" font-size="14.00">X2:2:VCC</text>
<text text-anchor="start" x="363.3" y="-190.45" font-family="arial" font-size="14.00">X1:3:RX</text>
<text text-anchor="start" x="441.26" y="-190.45" font-family="arial" font-size="14.00"> &#160;&#160;&#160;&#160;3:OGWH &#160;&#160;&#160;</text>
<text text-anchor="start" x="558.21" y="-190.45" font-family="arial" font-size="14.00">X2:4:TX</text>
<text text-anchor="start" x="364.05" y="-160.45" font-family="arial" font-size="14.00">X1:4:TX</text>
<text text-anchor="start" x="441.26" y="-160.45" font-family="arial" font-size="14.00"> &#160;&#160;&#160;&#160;4:WHOG &#160;&#160;&#160;</text>
<text text-anchor="start" x="557.46" y="-160.45" font-family="arial" font-size="14.00">X2:3:RX</text>
<text text-anchor="start" x="388.42" y="-130.45" font-family="arial" font-size="14.00"> </text>
<text text-anchor="start" x="357.67" y="-110.45" font-family="arial" font-size="14.00">X1:1:GND</text>
<text text-anchor="start" x="467.51" y="-110.45" font-family="arial" font-size="14.00">Shield</text>
<text text-anchor="start" x="388.42" y="-88.45" font-family="arial" font-size="14.00"> </text>
</g>
<!-- X1&#45;&#45;W1 -->
<g id="edge4" class="edge">
<title>X1:e&#45;&#45;W1:w</title>
<path fill="none" stroke="#000000" stroke-width="2" d="M204.5,-225.5C271.04,-226.26 286.64,-237.51 348.5,-236.75"/>
<path fill="none" stroke="#0066ff" stroke-width="2" d="M204.5,-227.5C269.87,-227.88 285.47,-239.13 348.5,-238.75"/>
<path fill="none" stroke="#ffffff" stroke-width="2" d="M204.5,-229.5C268.7,-229.5 284.3,-240.75 348.5,-240.75"/>
<path fill="none" stroke="#0066ff" stroke-width="2" d="M204.5,-231.5C267.53,-231.12 283.13,-242.37 348.5,-242.75"/>
<path fill="none" stroke="#000000" stroke-width="2" d="M204.5,-233.5C266.36,-232.75 281.96,-244 348.5,-244.75"/>
</g>
<!-- X1&#45;&#45;W1 -->
<g id="edge5" class="edge">
<title>X1:e&#45;&#45;W1:w</title>
<path fill="none" stroke="#000000" stroke-width="2" d="M204.5,-201.5C269.79,-201.7 285.71,-206.95 348.5,-206.75"/>
<path fill="none" stroke="#ffffff" stroke-width="2" d="M204.5,-203.5C269.17,-203.6 285.09,-208.85 348.5,-208.75"/>
<path fill="none" stroke="#0066ff" stroke-width="2" d="M204.5,-205.5C268.54,-205.5 284.46,-210.75 348.5,-210.75"/>
<path fill="none" stroke="#ffffff" stroke-width="2" d="M204.5,-207.5C267.91,-207.4 283.83,-212.65 348.5,-212.75"/>
<path fill="none" stroke="#000000" stroke-width="2" d="M204.5,-209.5C267.29,-209.3 283.21,-214.55 348.5,-214.75"/>
</g>
<!-- X1&#45;&#45;W1 -->
<g id="edge6" class="edge">
<title>X1:e&#45;&#45;W1:w</title>
<path fill="none" stroke="#000000" stroke-width="2" d="M204.5,-177.5C268.31,-177.51 284.31,-176.76 348.5,-176.75"/>
<path fill="none" stroke="#ff8000" stroke-width="2" d="M204.5,-179.5C268.41,-179.5 284.41,-178.75 348.5,-178.75"/>
<path fill="none" stroke="#ffffff" stroke-width="2" d="M204.5,-181.5C268.5,-181.5 284.5,-180.75 348.5,-180.75"/>
<path fill="none" stroke="#ff8000" stroke-width="2" d="M204.5,-183.5C268.59,-183.5 284.59,-182.75 348.5,-182.75"/>
<path fill="none" stroke="#000000" stroke-width="2" d="M204.5,-185.5C268.69,-185.5 284.69,-184.75 348.5,-184.75"/>
</g>
<!-- X1&#45;&#45;W1 -->
<g id="edge7" class="edge">
<title>X1:e&#45;&#45;W1:w</title>
<path fill="none" stroke="#000000" stroke-width="2" d="M204.5,-153.5C267,-153.82 282.86,-147.07 348.5,-146.75"/>
<path fill="none" stroke="#ffffff" stroke-width="2" d="M204.5,-155.5C267.79,-155.66 283.65,-148.91 348.5,-148.75"/>
<path fill="none" stroke="#ff8000" stroke-width="2" d="M204.5,-157.5C268.57,-157.5 284.43,-150.75 348.5,-150.75"/>
<path fill="none" stroke="#ffffff" stroke-width="2" d="M204.5,-159.5C269.35,-159.34 285.21,-152.59 348.5,-152.75"/>
<path fill="none" stroke="#000000" stroke-width="2" d="M204.5,-161.5C270.14,-161.18 286,-154.43 348.5,-154.75"/>
</g>
<!-- X1&#45;&#45;W1 -->
<g id="edge8" class="edge">
<title>X1:e&#45;&#45;W1:w</title>
<path fill="none" stroke="#000000" stroke-width="2" d="M204.5,-229.5C289.18,-229.5 263.82,-104.75 348.5,-104.75"/>
</g>
<!-- W1&#45;&#45;W1 -->
<g id="edge9" class="edge">
<title>W1:w&#45;&#45;W1:e</title>
<path fill="none" stroke="#000000" stroke-width="2" d="M348.5,-236.75C441.08,-236.75 533.67,-236.75 626.25,-236.75"/>
<path fill="none" stroke="#0066ff" stroke-width="2" d="M348.5,-238.75C441.08,-238.75 533.67,-238.75 626.25,-238.75"/>
<path fill="none" stroke="#ffffff" stroke-width="2" d="M348.5,-240.75C441.08,-240.75 533.67,-240.75 626.25,-240.75"/>
<path fill="none" stroke="#0066ff" stroke-width="2" d="M348.5,-242.75C441.08,-242.75 533.67,-242.75 626.25,-242.75"/>
<path fill="none" stroke="#000000" stroke-width="2" d="M348.5,-244.75C441.08,-244.75 533.67,-244.75 626.25,-244.75"/>
</g>
<!-- W1&#45;&#45;W1 -->
<g id="edge10" class="edge">
<title>W1:w&#45;&#45;W1:e</title>
<path fill="none" stroke="#000000" stroke-width="2" d="M348.5,-206.75C441.08,-206.75 533.67,-206.75 626.25,-206.75"/>
<path fill="none" stroke="#ffffff" stroke-width="2" d="M348.5,-208.75C441.08,-208.75 533.67,-208.75 626.25,-208.75"/>
<path fill="none" stroke="#0066ff" stroke-width="2" d="M348.5,-210.75C441.08,-210.75 533.67,-210.75 626.25,-210.75"/>
<path fill="none" stroke="#ffffff" stroke-width="2" d="M348.5,-212.75C441.08,-212.75 533.67,-212.75 626.25,-212.75"/>
<path fill="none" stroke="#000000" stroke-width="2" d="M348.5,-214.75C441.08,-214.75 533.67,-214.75 626.25,-214.75"/>
</g>
<!-- W1&#45;&#45;W1 -->
<g id="edge11" class="edge">
<title>W1:w&#45;&#45;W1:e</title>
<path fill="none" stroke="#000000" stroke-width="2" d="M348.5,-176.75C441.08,-176.75 533.67,-176.75 626.25,-176.75"/>
<path fill="none" stroke="#ff8000" stroke-width="2" d="M348.5,-178.75C441.08,-178.75 533.67,-178.75 626.25,-178.75"/>
<path fill="none" stroke="#ffffff" stroke-width="2" d="M348.5,-180.75C441.08,-180.75 533.67,-180.75 626.25,-180.75"/>
<path fill="none" stroke="#ff8000" stroke-width="2" d="M348.5,-182.75C441.08,-182.75 533.67,-182.75 626.25,-182.75"/>
<path fill="none" stroke="#000000" stroke-width="2" d="M348.5,-184.75C441.08,-184.75 533.67,-184.75 626.25,-184.75"/>
</g>
<!-- W1&#45;&#45;W1 -->
<g id="edge12" class="edge">
<title>W1:w&#45;&#45;W1:e</title>
<path fill="none" stroke="#000000" stroke-width="2" d="M348.5,-146.75C441.08,-146.75 533.67,-146.75 626.25,-146.75"/>
<path fill="none" stroke="#ffffff" stroke-width="2" d="M348.5,-148.75C441.08,-148.75 533.67,-148.75 626.25,-148.75"/>
<path fill="none" stroke="#ff8000" stroke-width="2" d="M348.5,-150.75C441.08,-150.75 533.67,-150.75 626.25,-150.75"/>
<path fill="none" stroke="#ffffff" stroke-width="2" d="M348.5,-152.75C441.08,-152.75 533.67,-152.75 626.25,-152.75"/>
<path fill="none" stroke="#000000" stroke-width="2" d="M348.5,-154.75C441.08,-154.75 533.67,-154.75 626.25,-154.75"/>
</g>
<!-- W1&#45;&#45;W1 -->
<g id="edge13" class="edge">
<title>W1:w&#45;&#45;W1:e</title>
<path fill="none" stroke="#000000" stroke-width="2" d="M348.5,-104.75C441.08,-104.75 533.67,-104.75 626.25,-104.75"/>
</g>
<!-- X2 -->
<g id="node3" class="node">
<title>X2</title>
<polygon fill="#ffffff" stroke="black" points="958.51,-322.75 770.26,-322.75 770.26,-81.75 958.51,-81.75 958.51,-322.75"/>
<polygon fill="none" stroke="black" points="770.26,-298.25 770.26,-322.75 958.51,-322.75 958.51,-298.25 770.26,-298.25"/>
<text text-anchor="start" x="855.38" y="-305.45" font-family="arial" font-size="14.00">X2</text>
<polygon fill="none" stroke="black" points="770.26,-273.75 770.26,-298.25 867.51,-298.25 867.51,-273.75 770.26,-273.75"/>
<text text-anchor="start" x="774.26" y="-280.95" font-family="arial" font-size="14.00">Molex KK 254</text>
<polygon fill="none" stroke="black" points="867.51,-273.75 867.51,-298.25 919.01,-298.25 919.01,-273.75 867.51,-273.75"/>
<text text-anchor="start" x="871.51" y="-280.95" font-family="arial" font-size="14.00">female</text>
<polygon fill="none" stroke="black" points="919.01,-273.75 919.01,-298.25 958.51,-298.25 958.51,-273.75 919.01,-273.75"/>
<text text-anchor="start" x="923.01" y="-280.95" font-family="arial" font-size="14.00">7&#45;pin</text>
<polygon fill="none" stroke="black" points="770.26,-249.75 770.26,-273.75 802.07,-273.75 802.07,-249.75 770.26,-249.75"/>
<polygon fill="none" stroke="black" points="802.07,-249.75 802.07,-273.75 856.88,-273.75 856.88,-249.75 802.07,-249.75"/>
<polygon fill="none" stroke="black" points="856.88,-249.75 856.88,-273.75 907.69,-273.75 907.69,-249.75 856.88,-249.75"/>
<text text-anchor="start" x="868.41" y="-256.45" font-family="arial" font-size="14.00">SH1</text>
<polygon fill="none" stroke="black" points="907.69,-249.75 907.69,-273.75 958.51,-273.75 958.51,-249.75 907.69,-249.75"/>
<text text-anchor="start" x="919.22" y="-256.45" font-family="arial" font-size="14.00">SH2</text>
<polygon fill="none" stroke="black" points="770.26,-225.75 770.26,-249.75 802.07,-249.75 802.07,-225.75 770.26,-225.75"/>
<text text-anchor="start" x="782.04" y="-232.45" font-family="arial" font-size="14.00">1</text>
<polygon fill="none" stroke="black" points="802.07,-225.75 802.07,-249.75 856.88,-249.75 856.88,-225.75 802.07,-225.75"/>
<text text-anchor="start" x="813.72" y="-232.45" font-family="arial" font-size="14.00">GND</text>
<polygon fill="none" stroke="black" points="856.88,-225.75 856.88,-249.75 907.69,-249.75 907.69,-225.75 856.88,-225.75"/>
<polygon fill="none" stroke="black" points="907.69,-225.75 907.69,-249.75 958.51,-249.75 958.51,-225.75 907.69,-225.75"/>
<polygon fill="none" stroke="black" points="770.26,-201.75 770.26,-225.75 802.07,-225.75 802.07,-201.75 770.26,-201.75"/>
<text text-anchor="start" x="782.04" y="-208.45" font-family="arial" font-size="14.00">2</text>
<polygon fill="none" stroke="black" points="802.07,-201.75 802.07,-225.75 856.88,-225.75 856.88,-201.75 802.07,-201.75"/>
<text text-anchor="start" x="814.1" y="-208.45" font-family="arial" font-size="14.00">VCC</text>
<polygon fill="none" stroke="black" points="856.88,-201.75 856.88,-225.75 907.69,-225.75 907.69,-201.75 856.88,-201.75"/>
<polygon fill="none" stroke="black" points="907.69,-201.75 907.69,-225.75 958.51,-225.75 958.51,-201.75 907.69,-201.75"/>
<polygon fill="none" stroke="black" points="770.26,-177.75 770.26,-201.75 802.07,-201.75 802.07,-177.75 770.26,-177.75"/>
<text text-anchor="start" x="782.04" y="-184.45" font-family="arial" font-size="14.00">3</text>
<polygon fill="none" stroke="black" points="802.07,-177.75 802.07,-201.75 856.88,-201.75 856.88,-177.75 802.07,-177.75"/>
<text text-anchor="start" x="819.35" y="-184.45" font-family="arial" font-size="14.00">RX</text>
<polygon fill="none" stroke="black" points="856.88,-177.75 856.88,-201.75 907.69,-201.75 907.69,-177.75 856.88,-177.75"/>
<polygon fill="none" stroke="black" points="907.69,-177.75 907.69,-201.75 958.51,-201.75 958.51,-177.75 907.69,-177.75"/>
<polygon fill="none" stroke="black" points="770.26,-153.75 770.26,-177.75 802.07,-177.75 802.07,-153.75 770.26,-153.75"/>
<text text-anchor="start" x="782.04" y="-160.45" font-family="arial" font-size="14.00">4</text>
<polygon fill="none" stroke="black" points="802.07,-153.75 802.07,-177.75 856.88,-177.75 856.88,-153.75 802.07,-153.75"/>
<text text-anchor="start" x="820.1" y="-160.45" font-family="arial" font-size="14.00">TX</text>
<polygon fill="none" stroke="black" points="856.88,-153.75 856.88,-177.75 907.69,-177.75 907.69,-153.75 856.88,-153.75"/>
<polygon fill="none" stroke="black" points="907.69,-153.75 907.69,-177.75 958.51,-177.75 958.51,-153.75 907.69,-153.75"/>
<polygon fill="none" stroke="black" points="770.26,-129.75 770.26,-153.75 802.07,-153.75 802.07,-129.75 770.26,-129.75"/>
<text text-anchor="start" x="782.04" y="-136.45" font-family="arial" font-size="14.00">5</text>
<polygon fill="none" stroke="black" points="802.07,-129.75 802.07,-153.75 856.88,-153.75 856.88,-129.75 802.07,-129.75"/>
<text text-anchor="start" x="813.72" y="-136.45" font-family="arial" font-size="14.00">GND</text>
<polygon fill="none" stroke="black" points="856.88,-129.75 856.88,-153.75 907.69,-153.75 907.69,-129.75 856.88,-129.75"/>
<polygon fill="none" stroke="black" points="907.69,-129.75 907.69,-153.75 958.51,-153.75 958.51,-129.75 907.69,-129.75"/>
<polygon fill="none" stroke="black" points="770.26,-105.75 770.26,-129.75 802.07,-129.75 802.07,-105.75 770.26,-105.75"/>
<text text-anchor="start" x="782.04" y="-112.45" font-family="arial" font-size="14.00">6</text>
<polygon fill="none" stroke="black" points="802.07,-105.75 802.07,-129.75 856.88,-129.75 856.88,-105.75 802.07,-105.75"/>
<text text-anchor="start" x="814.1" y="-112.45" font-family="arial" font-size="14.00">VCC</text>
<polygon fill="none" stroke="black" points="856.88,-105.75 856.88,-129.75 907.69,-129.75 907.69,-105.75 856.88,-105.75"/>
<polygon fill="none" stroke="black" points="907.69,-105.75 907.69,-129.75 958.51,-129.75 958.51,-105.75 907.69,-105.75"/>
<polygon fill="none" stroke="black" points="770.26,-81.75 770.26,-105.75 802.07,-105.75 802.07,-81.75 770.26,-81.75"/>
<text text-anchor="start" x="782.04" y="-88.45" font-family="arial" font-size="14.00">7</text>
<polygon fill="none" stroke="black" points="802.07,-81.75 802.07,-105.75 856.88,-105.75 856.88,-81.75 802.07,-81.75"/>
<text text-anchor="start" x="813.72" y="-88.45" font-family="arial" font-size="14.00">GND</text>
<polygon fill="none" stroke="black" points="856.88,-81.75 856.88,-105.75 907.69,-105.75 907.69,-81.75 856.88,-81.75"/>
<polygon fill="none" stroke="black" points="907.69,-81.75 907.69,-105.75 958.51,-105.75 958.51,-81.75 907.69,-81.75"/>
</g>
<!-- W1&#45;&#45;X2 -->
<g id="edge14" class="edge">
<title>W1:e&#45;&#45;X2:w</title>
<path fill="none" stroke="#000000" stroke-width="2" d="M626.25,-236.75C689.52,-236.82 705.5,-233.82 770.25,-233.75"/>
<path fill="none" stroke="#0066ff" stroke-width="2" d="M626.25,-238.75C689.89,-238.79 705.87,-235.79 770.25,-235.75"/>
<path fill="none" stroke="#ffffff" stroke-width="2" d="M626.25,-240.75C690.26,-240.75 706.24,-237.75 770.25,-237.75"/>
<path fill="none" stroke="#0066ff" stroke-width="2" d="M626.25,-242.75C690.63,-242.72 706.61,-239.72 770.25,-239.75"/>
<path fill="none" stroke="#000000" stroke-width="2" d="M626.25,-244.75C691,-244.68 706.98,-241.68 770.25,-241.75"/>
</g>
<!-- W1&#45;&#45;X2 -->
<g id="edge15" class="edge">
<title>W1:e&#45;&#45;X2:w</title>
<path fill="none" stroke="#000000" stroke-width="2" d="M626.25,-206.75C691,-206.82 706.98,-209.82 770.25,-209.75"/>
<path fill="none" stroke="#ffffff" stroke-width="2" d="M626.25,-208.75C690.63,-208.79 706.61,-211.79 770.25,-211.75"/>
<path fill="none" stroke="#0066ff" stroke-width="2" d="M626.25,-210.75C690.26,-210.75 706.24,-213.75 770.25,-213.75"/>
<path fill="none" stroke="#ffffff" stroke-width="2" d="M626.25,-212.75C689.89,-212.72 705.87,-215.72 770.25,-215.75"/>
<path fill="none" stroke="#000000" stroke-width="2" d="M626.25,-214.75C689.52,-214.68 705.5,-217.68 770.25,-217.75"/>
</g>
<!-- W1&#45;&#45;X2 -->
<g id="edge16" class="edge">
<title>W1:e&#45;&#45;X2:w</title>
<path fill="none" stroke="#000000" stroke-width="2" d="M626.25,-176.75C687.8,-177.9 703.1,-162.9 770.25,-161.75"/>
<path fill="none" stroke="#ff8000" stroke-width="2" d="M626.25,-178.75C689.2,-179.32 704.5,-164.32 770.25,-163.75"/>
<path fill="none" stroke="#ffffff" stroke-width="2" d="M626.25,-180.75C690.6,-180.75 705.9,-165.75 770.25,-165.75"/>
<path fill="none" stroke="#ff8000" stroke-width="2" d="M626.25,-182.75C692,-182.18 707.3,-167.18 770.25,-167.75"/>
<path fill="none" stroke="#000000" stroke-width="2" d="M626.25,-184.75C693.4,-183.61 708.7,-168.61 770.25,-169.75"/>
</g>
<!-- W1&#45;&#45;X2 -->
<g id="edge17" class="edge">
<title>W1:e&#45;&#45;X2:w</title>
<path fill="none" stroke="#000000" stroke-width="2" d="M626.25,-146.75C696.4,-149.63 707.78,-188.63 770.25,-185.75"/>
<path fill="none" stroke="#ffffff" stroke-width="2" d="M626.25,-148.75C694.48,-150.19 705.86,-189.19 770.25,-187.75"/>
<path fill="none" stroke="#ff8000" stroke-width="2" d="M626.25,-150.75C692.56,-150.75 703.94,-189.75 770.25,-189.75"/>
<path fill="none" stroke="#ffffff" stroke-width="2" d="M626.25,-152.75C690.64,-151.31 702.02,-190.31 770.25,-191.75"/>
<path fill="none" stroke="#000000" stroke-width="2" d="M626.25,-154.75C688.72,-151.87 700.1,-190.87 770.25,-193.75"/>
</g>
<!-- X2&#45;&#45;X2 -->
<g id="edge18" class="edge">
<title>X2:c&#45;&#45;X2:c</title>
<path fill="none" stroke="#000000" stroke-width="2" d="M882.28,-237.75C882.28,-205.75 882.28,-173.75 882.28,-141.75"/>
</g>
<!-- X2&#45;&#45;X2 -->
<g id="edge19" class="edge">
<title>X2:c&#45;&#45;X2:c</title>
<path fill="none" stroke="#000000" stroke-width="2" d="M882.28,-141.75C882.28,-125.75 882.28,-109.75 882.28,-93.75"/>
</g>
<!-- X2&#45;&#45;X2 -->
<g id="edge20" class="edge">
<title>X2:c&#45;&#45;X2:c</title>
<path fill="none" stroke="#000000" stroke-width="2" d="M933.09,-213.75C933.09,-181.75 933.09,-149.75 933.09,-117.75"/>
</g>
<!-- __CIRCLE__1 -->
<g id="node4" class="node">
<title>__CIRCLE__1</title>
<ellipse fill="#ff66cc" stroke="#ff66cc" cx="86.31" cy="-229.5" rx="6.48" ry="6.48"/>
</g>
<!-- __CIRCLE__2 -->
<g id="node5" class="node">
<title>__CIRCLE__2</title>
<ellipse fill="#ff66cc" stroke="#ff66cc" cx="86.31" cy="-133.5" rx="6.48" ry="6.48"/>
</g>
<!-- __CIRCLE__3 -->
<g id="node6" class="node">
<title>__CIRCLE__3</title>
<ellipse fill="#ff66cc" stroke="#ff66cc" cx="86.31" cy="-133.5" rx="6.48" ry="6.48"/>
</g>
<!-- __CIRCLE__4 -->
<g id="node7" class="node">
<title>__CIRCLE__4</title>
<ellipse fill="#ff66cc" stroke="#ff66cc" cx="86.31" cy="-85.5" rx="6.48" ry="6.48"/>
</g>
<!-- __CIRCLE__5 -->
<g id="node8" class="node">
<title>__CIRCLE__5</title>
<ellipse fill="#ff0000" stroke="#ff0000" cx="141.19" cy="-205.5" rx="6.48" ry="6.48"/>
</g>
<!-- __CIRCLE__6 -->
<g id="node9" class="node">
<title>__CIRCLE__6</title>
<ellipse fill="#ff0000" stroke="#ff0000" cx="141.19" cy="-109.5" rx="6.48" ry="6.48"/>
</g>
<!-- __CIRCLE__7 -->
<g id="node10" class="node">
<title>__CIRCLE__7</title>
<ellipse fill="#000000" stroke="#000000" cx="882.28" cy="-237.75" rx="6.48" ry="6.48"/>
</g>
<!-- __CIRCLE__8 -->
<g id="node11" class="node">
<title>__CIRCLE__8</title>
<ellipse fill="#000000" stroke="#000000" cx="882.28" cy="-141.75" rx="6.48" ry="6.48"/>
</g>
<!-- __CIRCLE__9 -->
<g id="node12" class="node">
<title>__CIRCLE__9</title>
<ellipse fill="#000000" stroke="#000000" cx="882.28" cy="-141.75" rx="6.48" ry="6.48"/>
</g>
<!-- __CIRCLE__10 -->
<g id="node13" class="node">
<title>__CIRCLE__10</title>
<ellipse fill="#000000" stroke="#000000" cx="882.28" cy="-93.75" rx="6.48" ry="6.48"/>
</g>
<!-- __CIRCLE__11 -->
<g id="node14" class="node">
<title>__CIRCLE__11</title>
<ellipse fill="#000000" stroke="#000000" cx="933.09" cy="-213.75" rx="6.48" ry="6.48"/>
</g>
<!-- __CIRCLE__12 -->
<g id="node15" class="node">
<title>__CIRCLE__12</title>
<ellipse fill="#000000" stroke="#000000" cx="933.09" cy="-117.75" rx="6.48" ry="6.48"/>
</g>
</g>
</svg>
