<?xml version="1.0" encoding="UTF-8" standalone="no"?>
<!DOCTYPE svg PUBLIC "-//W3C//DTD SVG 1.1//EN"
 "http://www.w3.org/Graphics/SVG/1.1/DTD/svg11.dtd">
<!-- Generated by graphviz version 11.0.0 (20240428.1522)
 -->
<!-- Pages: 1 -->
<svg width="972pt" height="360pt"
 viewBox="0.00 0.00 972.01 360.00" xmlns="http://www.w3.org/2000/svg" xmlns:xlink="http://www.w3.org/1999/xlink">
<g id="graph0" class="graph" transform="scale(1 1) rotate(0) translate(4 356)">
<polygon fill="#ffffff" stroke="none" points="-4,4 -4,-356 968.01,-356 968.01,4 -4,4"/>
<!-- X1 -->
<g id="node1" class="node">
<title>X1</title>
<polygon fill="#ffffff" stroke="black" points="210,-331 0,-331 0,0 210,0 210,-331"/>
<polygon fill="#ffffff" stroke="none" points="0,0 0,-331 210,-331 210,0 0,0"/>
<polygon fill="none" stroke="black" points="0,-306.5 0,-331 210,-331 210,-306.5 0,-306.5"/>
<text text-anchor="start" x="96" y="-313.7" font-family="arial" font-size="14.00">X1</text>
<polygon fill="none" stroke="black" points="0,-282 0,-306.5 104.5,-306.5 104.5,-282 0,-282"/>
<text text-anchor="start" x="7.63" y="-289.2" font-family="arial" font-size="14.00">Molex KK 254</text>
<polygon fill="none" stroke="black" points="104.5,-282 104.5,-306.5 163.25,-306.5 163.25,-282 104.5,-282"/>
<text text-anchor="start" x="112.13" y="-289.2" font-family="arial" font-size="14.00">female</text>
<polygon fill="none" stroke="black" points="163.25,-282 163.25,-306.5 210,-306.5 210,-282 163.25,-282"/>
<text text-anchor="start" x="170.88" y="-289.2" font-family="arial" font-size="14.00">7&#45;pin</text>
<polygon fill="none" stroke="black" points="0,-258 0,-282 60.25,-282 60.25,-258 0,-258"/>
<polygon fill="none" stroke="black" points="60.25,-258 60.25,-282 116.5,-282 116.5,-258 60.25,-258"/>
<text text-anchor="start" x="74.5" y="-264.7" font-family="arial" font-size="14.00">SH1</text>
<polygon fill="none" stroke="black" points="116.5,-258 116.5,-282 172.75,-282 172.75,-258 116.5,-258"/>
<text text-anchor="start" x="130.75" y="-264.7" font-family="arial" font-size="14.00">SH2</text>
<polygon fill="none" stroke="black" points="172.75,-258 172.75,-282 210,-282 210,-258 172.75,-258"/>
<polygon fill="none" stroke="black" points="0,-234 0,-258 60.25,-258 60.25,-234 0,-234"/>
<text text-anchor="start" x="14.38" y="-240.7" font-family="arial" font-size="14.00">GND</text>
<polygon fill="none" stroke="black" points="60.25,-234 60.25,-258 116.5,-258 116.5,-234 60.25,-234"/>
<polygon fill="none" stroke="black" points="116.5,-234 116.5,-258 172.75,-258 172.75,-234 116.5,-234"/>
<polygon fill="none" stroke="black" points="172.75,-234 172.75,-258 210,-258 210,-234 172.75,-234"/>
<text text-anchor="start" x="187.25" y="-240.7" font-family="arial" font-size="14.00">1</text>
<polygon fill="none" stroke="black" points="0,-210 0,-234 60.25,-234 60.25,-210 0,-210"/>
<text text-anchor="start" x="14.75" y="-216.7" font-family="arial" font-size="14.00">VCC</text>
<polygon fill="none" stroke="black" points="60.25,-210 60.25,-234 116.5,-234 116.5,-210 60.25,-210"/>
<polygon fill="none" stroke="black" points="116.5,-210 116.5,-234 172.75,-234 172.75,-210 116.5,-210"/>
<polygon fill="none" stroke="black" points="172.75,-210 172.75,-234 210,-234 210,-210 172.75,-210"/>
<text text-anchor="start" x="187.25" y="-216.7" font-family="arial" font-size="14.00">2</text>
<polygon fill="none" stroke="black" points="0,-186 0,-210 60.25,-210 60.25,-186 0,-186"/>
<text text-anchor="start" x="20" y="-192.7" font-family="arial" font-size="14.00">RX</text>
<polygon fill="none" stroke="black" points="60.25,-186 60.25,-210 116.5,-210 116.5,-186 60.25,-186"/>
<polygon fill="none" stroke="black" points="116.5,-186 116.5,-210 172.75,-210 172.75,-186 116.5,-186"/>
<polygon fill="none" stroke="black" points="172.75,-186 172.75,-210 210,-210 210,-186 172.75,-186"/>
<text text-anchor="start" x="187.25" y="-192.7" font-family="arial" font-size="14.00">3</text>
<polygon fill="none" stroke="black" points="0,-162 0,-186 60.25,-186 60.25,-162 0,-162"/>
<text text-anchor="start" x="20.75" y="-168.7" font-family="arial" font-size="14.00">TX</text>
<polygon fill="none" stroke="black" points="60.25,-162 60.25,-186 116.5,-186 116.5,-162 60.25,-162"/>
<polygon fill="none" stroke="black" points="116.5,-162 116.5,-186 172.75,-186 172.75,-162 116.5,-162"/>
<polygon fill="none" stroke="black" points="172.75,-162 172.75,-186 210,-186 210,-162 172.75,-162"/>
<text text-anchor="start" x="187.25" y="-168.7" font-family="arial" font-size="14.00">4</text>
<polygon fill="none" stroke="black" points="0,-138 0,-162 60.25,-162 60.25,-138 0,-138"/>
<text text-anchor="start" x="14.38" y="-144.7" font-family="arial" font-size="14.00">GND</text>
<polygon fill="none" stroke="black" points="60.25,-138 60.25,-162 116.5,-162 116.5,-138 60.25,-138"/>
<polygon fill="none" stroke="black" points="116.5,-138 116.5,-162 172.75,-162 172.75,-138 116.5,-138"/>
<polygon fill="none" stroke="black" points="172.75,-138 172.75,-162 210,-162 210,-138 172.75,-138"/>
<text text-anchor="start" x="187.25" y="-144.7" font-family="arial" font-size="14.00">5</text>
<polygon fill="none" stroke="black" points="0,-114 0,-138 60.25,-138 60.25,-114 0,-114"/>
<text text-anchor="start" x="14.75" y="-120.7" font-family="arial" font-size="14.00">VCC</text>
<polygon fill="none" stroke="black" points="60.25,-114 60.25,-138 116.5,-138 116.5,-114 60.25,-114"/>
<polygon fill="none" stroke="black" points="116.5,-114 116.5,-138 172.75,-138 172.75,-114 116.5,-114"/>
<polygon fill="none" stroke="black" points="172.75,-114 172.75,-138 210,-138 210,-114 172.75,-114"/>
<text text-anchor="start" x="187.25" y="-120.7" font-family="arial" font-size="14.00">6</text>
<polygon fill="none" stroke="black" points="0,-90 0,-114 60.25,-114 60.25,-90 0,-90"/>
<text text-anchor="start" x="14.38" y="-96.7" font-family="arial" font-size="14.00">GND</text>
<polygon fill="none" stroke="black" points="60.25,-90 60.25,-114 116.5,-114 116.5,-90 60.25,-90"/>
<polygon fill="none" stroke="black" points="116.5,-90 116.5,-114 172.75,-114 172.75,-90 116.5,-90"/>
<polygon fill="none" stroke="black" points="172.75,-90 172.75,-114 210,-114 210,-90 172.75,-90"/>
<text text-anchor="start" x="187.25" y="-96.7" font-family="arial" font-size="14.00">7</text>
<text text-anchor="start" x="9.75" y="-72.7" font-family="arial" font-size="14.00">42</text>
<text text-anchor="start" x="32" y="-72.7" font-family="arial" font-size="14.00">mm</text>
<text text-anchor="start" x="62" y="-72.7" font-family="arial" font-size="14.00">shortPartA</text>
<text text-anchor="start" x="61.63" y="-50.7" font-family="arial" font-size="14.00">WireViz: 42XCD42A5</text>
<text text-anchor="start" x="17.75" y="-28.7" font-family="arial" font-size="14.00">1</text>
<text text-anchor="start" x="32" y="-28.7" font-family="arial" font-size="14.00">x</text>
<text text-anchor="start" x="62" y="-28.7" font-family="arial" font-size="14.00">shortPartB</text>
<text text-anchor="start" x="61.63" y="-6.7" font-family="arial" font-size="14.00">WireViz: 42XCD42A5</text>
<polygon fill="none" stroke="black" points="0,0 0,-90 210,-90 210,0 0,0"/>
</g>
<!-- X1&#45;&#45;X1 -->
<g id="edge1" class="edge">
<title>X1:c&#45;&#45;X1:c</title>
<path fill="none" stroke="#ff66cc" stroke-width="2" d="M88.38,-246C88.38,-214 88.38,-182 88.38,-150"/>
</g>
<!-- X1&#45;&#45;X1 -->
<g id="edge2" class="edge">
<title>X1:c&#45;&#45;X1:c</title>
<path fill="none" stroke="#ff66cc" stroke-width="2" d="M88.38,-150C88.38,-134 88.38,-118 88.38,-102"/>
</g>
<!-- X1&#45;&#45;X1 -->
<g id="edge3" class="edge">
<title>X1:c&#45;&#45;X1:c</title>
<path fill="none" stroke="#ff0000" stroke-width="2" d="M144.62,-222C144.62,-190 144.62,-158 144.62,-126"/>
</g>
<!-- W1 -->
<g id="node2" class="node">
<title>W1</title>
<polygon fill="#ffffff" stroke="black" points="631.76,-352 354.01,-352 354.01,-101 631.76,-101 631.76,-352"/>
<polygon fill="#ffffff" stroke="none" points="354.01,-101 354.01,-352 631.76,-352 631.76,-101 354.01,-101"/>
<polygon fill="none" stroke="black" points="354.01,-327.5 354.01,-352 631.76,-352 631.76,-327.5 354.01,-327.5"/>
<text text-anchor="start" x="481.63" y="-334.7" font-family="arial" font-size="14.00">W1</text>
<polygon fill="none" stroke="black" points="354.01,-303 354.01,-327.5 398.01,-327.5 398.01,-303 354.01,-303"/>
<text text-anchor="start" x="358.01" y="-310.2" font-family="arial" font-size="14.00">Serial</text>
<polygon fill="none" stroke="black" points="398.01,-303 398.01,-327.5 421.01,-327.5 421.01,-303 398.01,-303"/>
<text text-anchor="start" x="402.01" y="-310.2" font-family="arial" font-size="14.00">4x</text>
<polygon fill="none" stroke="black" points="421.01,-303 421.01,-327.5 558.01,-327.5 558.01,-303 421.01,-303"/>
<text text-anchor="start" x="425.01" y="-310.2" font-family="arial" font-size="14.00">0.25 mm² (24 AWG)</text>
<polygon fill="none" stroke="black" points="558.01,-303 558.01,-327.5 587.76,-327.5 587.76,-303 558.01,-303"/>
<text text-anchor="start" x="562.01" y="-310.2" font-family="arial" font-size="14.00">+ S</text>
<polygon fill="none" stroke="black" points="587.76,-303 587.76,-327.5 631.76,-327.5 631.76,-303 587.76,-303"/>
<text text-anchor="start" x="591.76" y="-310.2" font-family="arial" font-size="14.00">0.2 m</text>
<text text-anchor="start" x="394.21" y="-287.7" font-family="arial" font-size="14.00"> </text>
<text text-anchor="start" x="356.01" y="-267.7" font-family="arial" font-size="14.00"> X1:1:GND</text>
<text text-anchor="start" x="445.36" y="-267.7" font-family="arial" font-size="14.00"> </text>
<text text-anchor="start" x="465.13" y="-267.7" font-family="arial" font-size="14.00">1:BUWH</text>
<text text-anchor="start" x="536.66" y="-267.7" font-family="arial" font-size="14.00"> </text>
<text text-anchor="start" x="560.76" y="-267.7" font-family="arial" font-size="14.00">X2:1:GND </text>
<polygon fill="#ffffff" stroke="none" points="354.01,-261 354.01,-263 631.76,-263 631.76,-261 354.01,-261"/>
<polygon fill="#ffffff" stroke="none" points="354.01,-259 354.01,-261 631.76,-261 631.76,-259 354.01,-259"/>
<polygon fill="#ffffff" stroke="none" points="354.01,-257 354.01,-259 631.76,-259 631.76,-257 354.01,-257"/>
<polygon fill="#ffffff" stroke="none" points="354.01,-255 354.01,-257 631.76,-257 631.76,-255 354.01,-255"/>
<polygon fill="#ffffff" stroke="none" points="354.01,-253 354.01,-255 631.76,-255 631.76,-253 354.01,-253"/>
<text text-anchor="start" x="356.01" y="-237.7" font-family="arial" font-size="14.00"> X1:2:VCC</text>
<text text-anchor="start" x="445.36" y="-237.7" font-family="arial" font-size="14.00"> </text>
<text text-anchor="start" x="465.13" y="-237.7" font-family="arial" font-size="14.00">2:WHBU</text>
<text text-anchor="start" x="536.66" y="-237.7" font-family="arial" font-size="14.00"> </text>
<text text-anchor="start" x="561.51" y="-237.7" font-family="arial" font-size="14.00">X2:2:VCC </text>
<polygon fill="#ffffff" stroke="none" points="354.01,-231 354.01,-233 631.76,-233 631.76,-231 354.01,-231"/>
<polygon fill="#ffffff" stroke="none" points="354.01,-229 354.01,-231 631.76,-231 631.76,-229 354.01,-229"/>
<polygon fill="#ffffff" stroke="none" points="354.01,-227 354.01,-229 631.76,-229 631.76,-227 354.01,-227"/>
<polygon fill="#ffffff" stroke="none" points="354.01,-225 354.01,-227 631.76,-227 631.76,-225 354.01,-225"/>
<polygon fill="#ffffff" stroke="none" points="354.01,-223 354.01,-225 631.76,-225 631.76,-223 354.01,-223"/>
<text text-anchor="start" x="356.01" y="-207.7" font-family="arial" font-size="14.00"> X1:3:RX</text>
<text text-anchor="start" x="445.36" y="-207.7" font-family="arial" font-size="14.00"> </text>
<text text-anchor="start" x="463.63" y="-207.7" font-family="arial" font-size="14.00">3:OGWH</text>
<text text-anchor="start" x="536.66" y="-207.7" font-family="arial" font-size="14.00"> </text>
<text text-anchor="start" x="573.51" y="-207.7" font-family="arial" font-size="14.00">X2:4:TX </text>
<polygon fill="#ffffff" stroke="none" points="354.01,-201 354.01,-203 631.76,-203 631.76,-201 354.01,-201"/>
<polygon fill="#ffffff" stroke="none" points="354.01,-199 354.01,-201 631.76,-201 631.76,-199 354.01,-199"/>
<polygon fill="#ffffff" stroke="none" points="354.01,-197 354.01,-199 631.76,-199 631.76,-197 354.01,-197"/>
<polygon fill="#ffffff" stroke="none" points="354.01,-195 354.01,-197 631.76,-197 631.76,-195 354.01,-195"/>
<polygon fill="#ffffff" stroke="none" points="354.01,-193 354.01,-195 631.76,-195 631.76,-193 354.01,-193"/>
<text text-anchor="start" x="356.01" y="-177.7" font-family="arial" font-size="14.00"> X1:4:TX</text>
<text text-anchor="start" x="445.36" y="-177.7" font-family="arial" font-size="14.00"> </text>
<text text-anchor="start" x="463.63" y="-177.7" font-family="arial" font-size="14.00">4:WHOG</text>
<text text-anchor="start" x="536.66" y="-177.7" font-family="arial" font-size="14.00"> </text>
<text text-anchor="start" x="572.01" y="-177.7" font-family="arial" font-size="14.00">X2:3:RX </text>
<polygon fill="#ffffff" stroke="none" points="354.01,-171 354.01,-173 631.76,-173 631.76,-171 354.01,-171"/>
<polygon fill="#ffffff" stroke="none" points="354.01,-169 354.01,-171 631.76,-171 631.76,-169 354.01,-169"/>
<polygon fill="#ffffff" stroke="none" points="354.01,-167 354.01,-169 631.76,-169 631.76,-167 354.01,-167"/>
<polygon fill="#ffffff" stroke="none" points="354.01,-165 354.01,-167 631.76,-167 631.76,-165 354.01,-165"/>
<polygon fill="#ffffff" stroke="none" points="354.01,-163 354.01,-165 631.76,-165 631.76,-163 354.01,-163"/>
<text text-anchor="start" x="394.21" y="-147.7" font-family="arial" font-size="14.00"> </text>
<text text-anchor="start" x="356.01" y="-127.7" font-family="arial" font-size="14.00"> X1:1:GND</text>
<text text-anchor="start" x="445.36" y="-127.7" font-family="arial" font-size="14.00"> </text>
<text text-anchor="start" x="473.01" y="-127.7" font-family="arial" font-size="14.00">Shield</text>
<text text-anchor="start" x="536.66" y="-127.7" font-family="arial" font-size="14.00"> </text>
<text text-anchor="start" x="626.01" y="-127.7" font-family="arial" font-size="14.00"> </text>
<polygon fill="#ffffff" stroke="none" points="354.01,-121 354.01,-123 631.76,-123 631.76,-121 354.01,-121"/>
<text text-anchor="start" x="394.21" y="-105.7" font-family="arial" font-size="14.00"> </text>
</g>
<!-- X1&#45;&#45;W1 -->
<g id="edge4" class="edge">
<title>X1:e&#45;&#45;W1:w</title>
<path fill="none" stroke="#000000" stroke-width="2" d="M210,-242C276.66,-242.83 292.22,-254.83 354,-254"/>
<path fill="none" stroke="#0066ff" stroke-width="2" d="M210,-244C275.44,-244.42 291,-256.42 354,-256"/>
<path fill="none" stroke="#ffffff" stroke-width="2" d="M210,-246C274.22,-246 289.78,-258 354,-258"/>
<path fill="none" stroke="#0066ff" stroke-width="2" d="M210,-248C273,-247.58 288.56,-259.58 354,-260"/>
<path fill="none" stroke="#000000" stroke-width="2" d="M210,-250C271.78,-249.17 287.34,-261.17 354,-262"/>
</g>
<!-- X1&#45;&#45;W1 -->
<g id="edge5" class="edge">
<title>X1:e&#45;&#45;W1:w</title>
<path fill="none" stroke="#000000" stroke-width="2" d="M210,-218C275.47,-218.26 291.35,-224.26 354,-224"/>
<path fill="none" stroke="#ffffff" stroke-width="2" d="M210,-220C274.77,-220.13 290.65,-226.13 354,-226"/>
<path fill="none" stroke="#0066ff" stroke-width="2" d="M210,-222C274.06,-222 289.94,-228 354,-228"/>
<path fill="none" stroke="#ffffff" stroke-width="2" d="M210,-224C273.35,-223.87 289.23,-229.87 354,-230"/>
<path fill="none" stroke="#000000" stroke-width="2" d="M210,-226C272.65,-225.74 288.53,-231.74 354,-232"/>
</g>
<!-- X1&#45;&#45;W1 -->
<g id="edge6" class="edge">
<title>X1:e&#45;&#45;W1:w</title>
<path fill="none" stroke="#000000" stroke-width="2" d="M210,-194C274,-194 290,-194 354,-194"/>
<path fill="none" stroke="#ff8000" stroke-width="2" d="M210,-196C274,-196 290,-196 354,-196"/>
<path fill="none" stroke="#ffffff" stroke-width="2" d="M210,-198C274,-198 290,-198 354,-198"/>
<path fill="none" stroke="#ff8000" stroke-width="2" d="M210,-200C274,-200 290,-200 354,-200"/>
<path fill="none" stroke="#000000" stroke-width="2" d="M210,-202C274,-202 290,-202 354,-202"/>
</g>
<!-- X1&#45;&#45;W1 -->
<g id="edge7" class="edge">
<title>X1:e&#45;&#45;W1:w</title>
<path fill="none" stroke="#000000" stroke-width="2" d="M210,-170C272.65,-170.26 288.53,-164.26 354,-164"/>
<path fill="none" stroke="#ffffff" stroke-width="2" d="M210,-172C273.35,-172.13 289.23,-166.13 354,-166"/>
<path fill="none" stroke="#ff8000" stroke-width="2" d="M210,-174C274.06,-174 289.94,-168 354,-168"/>
<path fill="none" stroke="#ffffff" stroke-width="2" d="M210,-176C274.77,-175.87 290.65,-169.87 354,-170"/>
<path fill="none" stroke="#000000" stroke-width="2" d="M210,-178C275.47,-177.74 291.35,-171.74 354,-172"/>
</g>
<!-- X1&#45;&#45;W1 -->
<g id="edge8" class="edge">
<title>X1:e&#45;&#45;W1:w</title>
<path fill="none" stroke="#000000" stroke-width="2" d="M210,-246C294.46,-246 269.54,-122 354,-122"/>
</g>
<!-- W1&#45;&#45;W1 -->
<g id="edge9" class="edge">
<title>W1:e&#45;&#45;W1:w</title>
<path fill="none" stroke="#000000" stroke-width="2" d="M631.75,-262C539.17,-262 446.58,-262 354,-262"/>
<path fill="none" stroke="#0066ff" stroke-width="2" d="M631.75,-260C539.17,-260 446.58,-260 354,-260"/>
<path fill="none" stroke="#ffffff" stroke-width="2" d="M631.75,-258C539.17,-258 446.58,-258 354,-258"/>
<path fill="none" stroke="#0066ff" stroke-width="2" d="M631.75,-256C539.17,-256 446.58,-256 354,-256"/>
<path fill="none" stroke="#000000" stroke-width="2" d="M631.75,-254C539.17,-254 446.58,-254 354,-254"/>
</g>
<!-- W1&#45;&#45;W1 -->
<g id="edge10" class="edge">
<title>W1:e&#45;&#45;W1:w</title>
<path fill="none" stroke="#000000" stroke-width="2" d="M631.75,-232C539.17,-232 446.58,-232 354,-232"/>
<path fill="none" stroke="#ffffff" stroke-width="2" d="M631.75,-230C539.17,-230 446.58,-230 354,-230"/>
<path fill="none" stroke="#0066ff" stroke-width="2" d="M631.75,-228C539.17,-228 446.58,-228 354,-228"/>
<path fill="none" stroke="#ffffff" stroke-width="2" d="M631.75,-226C539.17,-226 446.58,-226 354,-226"/>
<path fill="none" stroke="#000000" stroke-width="2" d="M631.75,-224C539.17,-224 446.58,-224 354,-224"/>
</g>
<!-- W1&#45;&#45;W1 -->
<g id="edge11" class="edge">
<title>W1:e&#45;&#45;W1:w</title>
<path fill="none" stroke="#000000" stroke-width="2" d="M631.75,-202C539.17,-202 446.58,-202 354,-202"/>
<path fill="none" stroke="#ff8000" stroke-width="2" d="M631.75,-200C539.17,-200 446.58,-200 354,-200"/>
<path fill="none" stroke="#ffffff" stroke-width="2" d="M631.75,-198C539.17,-198 446.58,-198 354,-198"/>
<path fill="none" stroke="#ff8000" stroke-width="2" d="M631.75,-196C539.17,-196 446.58,-196 354,-196"/>
<path fill="none" stroke="#000000" stroke-width="2" d="M631.75,-194C539.17,-194 446.58,-194 354,-194"/>
</g>
<!-- W1&#45;&#45;W1 -->
<g id="edge12" class="edge">
<title>W1:e&#45;&#45;W1:w</title>
<path fill="none" stroke="#000000" stroke-width="2" d="M631.75,-172C539.17,-172 446.58,-172 354,-172"/>
<path fill="none" stroke="#ffffff" stroke-width="2" d="M631.75,-170C539.17,-170 446.58,-170 354,-170"/>
<path fill="none" stroke="#ff8000" stroke-width="2" d="M631.75,-168C539.17,-168 446.58,-168 354,-168"/>
<path fill="none" stroke="#ffffff" stroke-width="2" d="M631.75,-166C539.17,-166 446.58,-166 354,-166"/>
<path fill="none" stroke="#000000" stroke-width="2" d="M631.75,-164C539.17,-164 446.58,-164 354,-164"/>
</g>
<!-- W1&#45;&#45;W1 -->
<g id="edge13" class="edge">
<title>W1:e&#45;&#45;W1:w</title>
<path fill="none" stroke="#000000" stroke-width="2" d="M631.75,-122C539.17,-122 446.58,-122 354,-122"/>
</g>
<!-- X2 -->
<g id="node3" class="node">
<title>X2</title>
<polygon fill="#ffffff" stroke="black" points="964.01,-340 775.76,-340 775.76,-99 964.01,-99 964.01,-340"/>
<polygon fill="#ffffff" stroke="none" points="775.76,-99 775.76,-340 964.01,-340 964.01,-99 775.76,-99"/>
<polygon fill="none" stroke="black" points="775.76,-315.5 775.76,-340 964.01,-340 964.01,-315.5 775.76,-315.5"/>
<text text-anchor="start" x="860.88" y="-322.7" font-family="arial" font-size="14.00">X2</text>
<polygon fill="none" stroke="black" points="775.76,-291 775.76,-315.5 873.01,-315.5 873.01,-291 775.76,-291"/>
<text text-anchor="start" x="779.76" y="-298.2" font-family="arial" font-size="14.00">Molex KK 254</text>
<polygon fill="none" stroke="black" points="873.01,-291 873.01,-315.5 924.51,-315.5 924.51,-291 873.01,-291"/>
<text text-anchor="start" x="877.01" y="-298.2" font-family="arial" font-size="14.00">female</text>
<polygon fill="none" stroke="black" points="924.51,-291 924.51,-315.5 964.01,-315.5 964.01,-291 924.51,-291"/>
<text text-anchor="start" x="928.51" y="-298.2" font-family="arial" font-size="14.00">7&#45;pin</text>
<polygon fill="none" stroke="black" points="775.76,-267 775.76,-291 807.57,-291 807.57,-267 775.76,-267"/>
<polygon fill="none" stroke="black" points="807.57,-267 807.57,-291 862.38,-291 862.38,-267 807.57,-267"/>
<polygon fill="none" stroke="black" points="862.38,-267 862.38,-291 913.19,-291 913.19,-267 862.38,-267"/>
<text text-anchor="start" x="873.91" y="-273.7" font-family="arial" font-size="14.00">SH1</text>
<polygon fill="none" stroke="black" points="913.19,-267 913.19,-291 964.01,-291 964.01,-267 913.19,-267"/>
<text text-anchor="start" x="924.72" y="-273.7" font-family="arial" font-size="14.00">SH2</text>
<polygon fill="none" stroke="black" points="775.76,-243 775.76,-267 807.57,-267 807.57,-243 775.76,-243"/>
<text text-anchor="start" x="787.54" y="-249.7" font-family="arial" font-size="14.00">1</text>
<polygon fill="none" stroke="black" points="807.57,-243 807.57,-267 862.38,-267 862.38,-243 807.57,-243"/>
<text text-anchor="start" x="819.22" y="-249.7" font-family="arial" font-size="14.00">GND</text>
<polygon fill="none" stroke="black" points="862.38,-243 862.38,-267 913.19,-267 913.19,-243 862.38,-243"/>
<polygon fill="none" stroke="black" points="913.19,-243 913.19,-267 964.01,-267 964.01,-243 913.19,-243"/>
<polygon fill="none" stroke="black" points="775.76,-219 775.76,-243 807.57,-243 807.57,-219 775.76,-219"/>
<text text-anchor="start" x="787.54" y="-225.7" font-family="arial" font-size="14.00">2</text>
<polygon fill="none" stroke="black" points="807.57,-219 807.57,-243 862.38,-243 862.38,-219 807.57,-219"/>
<text text-anchor="start" x="819.6" y="-225.7" font-family="arial" font-size="14.00">VCC</text>
<polygon fill="none" stroke="black" points="862.38,-219 862.38,-243 913.19,-243 913.19,-219 862.38,-219"/>
<polygon fill="none" stroke="black" points="913.19,-219 913.19,-243 964.01,-243 964.01,-219 913.19,-219"/>
<polygon fill="none" stroke="black" points="775.76,-195 775.76,-219 807.57,-219 807.57,-195 775.76,-195"/>
<text text-anchor="start" x="787.54" y="-201.7" font-family="arial" font-size="14.00">3</text>
<polygon fill="none" stroke="black" points="807.57,-195 807.57,-219 862.38,-219 862.38,-195 807.57,-195"/>
<text text-anchor="start" x="824.85" y="-201.7" font-family="arial" font-size="14.00">RX</text>
<polygon fill="none" stroke="black" points="862.38,-195 862.38,-219 913.19,-219 913.19,-195 862.38,-195"/>
<polygon fill="none" stroke="black" points="913.19,-195 913.19,-219 964.01,-219 964.01,-195 913.19,-195"/>
<polygon fill="none" stroke="black" points="775.76,-171 775.76,-195 807.57,-195 807.57,-171 775.76,-171"/>
<text text-anchor="start" x="787.54" y="-177.7" font-family="arial" font-size="14.00">4</text>
<polygon fill="none" stroke="black" points="807.57,-171 807.57,-195 862.38,-195 862.38,-171 807.57,-171"/>
<text text-anchor="start" x="825.6" y="-177.7" font-family="arial" font-size="14.00">TX</text>
<polygon fill="none" stroke="black" points="862.38,-171 862.38,-195 913.19,-195 913.19,-171 862.38,-171"/>
<polygon fill="none" stroke="black" points="913.19,-171 913.19,-195 964.01,-195 964.01,-171 913.19,-171"/>
<polygon fill="none" stroke="black" points="775.76,-147 775.76,-171 807.57,-171 807.57,-147 775.76,-147"/>
<text text-anchor="start" x="787.54" y="-153.7" font-family="arial" font-size="14.00">5</text>
<polygon fill="none" stroke="black" points="807.57,-147 807.57,-171 862.38,-171 862.38,-147 807.57,-147"/>
<text text-anchor="start" x="819.22" y="-153.7" font-family="arial" font-size="14.00">GND</text>
<polygon fill="none" stroke="black" points="862.38,-147 862.38,-171 913.19,-171 913.19,-147 862.38,-147"/>
<polygon fill="none" stroke="black" points="913.19,-147 913.19,-171 964.01,-171 964.01,-147 913.19,-147"/>
<polygon fill="none" stroke="black" points="775.76,-123 775.76,-147 807.57,-147 807.57,-123 775.76,-123"/>
<text text-anchor="start" x="787.54" y="-129.7" font-family="arial" font-size="14.00">6</text>
<polygon fill="none" stroke="black" points="807.57,-123 807.57,-147 862.38,-147 862.38,-123 807.57,-123"/>
<text text-anchor="start" x="819.6" y="-129.7" font-family="arial" font-size="14.00">VCC</text>
<polygon fill="none" stroke="black" points="862.38,-123 862.38,-147 913.19,-147 913.19,-123 862.38,-123"/>
<polygon fill="none" stroke="black" points="913.19,-123 913.19,-147 964.01,-147 964.01,-123 913.19,-123"/>
<polygon fill="none" stroke="black" points="775.76,-99 775.76,-123 807.57,-123 807.57,-99 775.76,-99"/>
<text text-anchor="start" x="787.54" y="-105.7" font-family="arial" font-size="14.00">7</text>
<polygon fill="none" stroke="black" points="807.57,-99 807.57,-123 862.38,-123 862.38,-99 807.57,-99"/>
<text text-anchor="start" x="819.22" y="-105.7" font-family="arial" font-size="14.00">GND</text>
<polygon fill="none" stroke="black" points="862.38,-99 862.38,-123 913.19,-123 913.19,-99 862.38,-99"/>
<polygon fill="none" stroke="black" points="913.19,-99 913.19,-123 964.01,-123 964.01,-99 913.19,-99"/>
</g>
<!-- W1&#45;&#45;X2 -->
<g id="edge14" class="edge">
<title>W1:e&#45;&#45;X2:w</title>
<path fill="none" stroke="#000000" stroke-width="2" d="M631.75,-254C695.02,-254.07 711,-251.07 775.75,-251"/>
<path fill="none" stroke="#0066ff" stroke-width="2" d="M631.75,-256C695.39,-256.03 711.37,-253.03 775.75,-253"/>
<path fill="none" stroke="#ffffff" stroke-width="2" d="M631.75,-258C695.76,-258 711.74,-255 775.75,-255"/>
<path fill="none" stroke="#0066ff" stroke-width="2" d="M631.75,-260C696.13,-259.97 712.11,-256.97 775.75,-257"/>
<path fill="none" stroke="#000000" stroke-width="2" d="M631.75,-262C696.5,-261.93 712.48,-258.93 775.75,-259"/>
</g>
<!-- W1&#45;&#45;X2 -->
<g id="edge15" class="edge">
<title>W1:e&#45;&#45;X2:w</title>
<path fill="none" stroke="#000000" stroke-width="2" d="M631.75,-224C696.5,-224.07 712.48,-227.07 775.75,-227"/>
<path fill="none" stroke="#ffffff" stroke-width="2" d="M631.75,-226C696.13,-226.03 712.11,-229.03 775.75,-229"/>
<path fill="none" stroke="#0066ff" stroke-width="2" d="M631.75,-228C695.76,-228 711.74,-231 775.75,-231"/>
<path fill="none" stroke="#ffffff" stroke-width="2" d="M631.75,-230C695.39,-229.97 711.37,-232.97 775.75,-233"/>
<path fill="none" stroke="#000000" stroke-width="2" d="M631.75,-232C695.02,-231.93 711,-234.93 775.75,-235"/>
</g>
<!-- W1&#45;&#45;X2 -->
<g id="edge16" class="edge">
<title>W1:e&#45;&#45;X2:w</title>
<path fill="none" stroke="#000000" stroke-width="2" d="M631.75,-194C693.3,-195.14 708.6,-180.14 775.75,-179"/>
<path fill="none" stroke="#ff8000" stroke-width="2" d="M631.75,-196C694.7,-196.57 710,-181.57 775.75,-181"/>
<path fill="none" stroke="#ffffff" stroke-width="2" d="M631.75,-198C696.1,-198 711.4,-183 775.75,-183"/>
<path fill="none" stroke="#ff8000" stroke-width="2" d="M631.75,-200C697.5,-199.43 712.8,-184.43 775.75,-185"/>
<path fill="none" stroke="#000000" stroke-width="2" d="M631.75,-202C698.9,-200.86 714.2,-185.86 775.75,-187"/>
</g>
<!-- W1&#45;&#45;X2 -->
<g id="edge17" class="edge">
<title>W1:e&#45;&#45;X2:w</title>
<path fill="none" stroke="#000000" stroke-width="2" d="M631.75,-164C701.9,-166.88 713.28,-205.88 775.75,-203"/>
<path fill="none" stroke="#ffffff" stroke-width="2" d="M631.75,-166C699.98,-167.44 711.36,-206.44 775.75,-205"/>
<path fill="none" stroke="#ff8000" stroke-width="2" d="M631.75,-168C698.06,-168 709.44,-207 775.75,-207"/>
<path fill="none" stroke="#ffffff" stroke-width="2" d="M631.75,-170C696.14,-168.56 707.52,-207.56 775.75,-209"/>
<path fill="none" stroke="#000000" stroke-width="2" d="M631.75,-172C694.22,-169.12 705.6,-208.12 775.75,-211"/>
</g>
<!-- X2&#45;&#45;X2 -->
<g id="edge18" class="edge">
<title>X2:c&#45;&#45;X2:c</title>
<path fill="none" stroke="#000000" stroke-width="2" d="M887.78,-255C887.78,-223 887.78,-191 887.78,-159"/>
</g>
<!-- X2&#45;&#45;X2 -->
<g id="edge19" class="edge">
<title>X2:c&#45;&#45;X2:c</title>
<path fill="none" stroke="#000000" stroke-width="2" d="M887.78,-159C887.78,-143 887.78,-127 887.78,-111"/>
</g>
<!-- X2&#45;&#45;X2 -->
<g id="edge20" class="edge">
<title>X2:c&#45;&#45;X2:c</title>
<path fill="none" stroke="#000000" stroke-width="2" d="M938.59,-231C938.59,-199 938.59,-167 938.59,-135"/>
</g>
<!-- __CIRCLE__1 -->
<g id="node4" class="node">
<title>__CIRCLE__1</title>
<ellipse fill="#ff66cc" stroke="#ff66cc" cx="88.38" cy="-246" rx="6.48" ry="6.48"/>
</g>
<!-- __CIRCLE__2 -->
<g id="node5" class="node">
<title>__CIRCLE__2</title>
<ellipse fill="#ff66cc" stroke="#ff66cc" cx="88.38" cy="-150" rx="6.48" ry="6.48"/>
</g>
<!-- __CIRCLE__3 -->
<g id="node6" class="node">
<title>__CIRCLE__3</title>
<ellipse fill="#ff66cc" stroke="#ff66cc" cx="88.38" cy="-150" rx="6.48" ry="6.48"/>
</g>
<!-- __CIRCLE__4 -->
<g id="node7" class="node">
<title>__CIRCLE__4</title>
<ellipse fill="#ff66cc" stroke="#ff66cc" cx="88.38" cy="-102" rx="6.48" ry="6.48"/>
</g>
<!-- __CIRCLE__5 -->
<g id="node8" class="node">
<title>__CIRCLE__5</title>
<ellipse fill="#ff0000" stroke="#ff0000" cx="144.62" cy="-222" rx="6.48" ry="6.48"/>
</g>
<!-- __CIRCLE__6 -->
<g id="node9" class="node">
<title>__CIRCLE__6</title>
<ellipse fill="#ff0000" stroke="#ff0000" cx="144.62" cy="-126" rx="6.48" ry="6.48"/>
</g>
<!-- __CIRCLE__7 -->
<g id="node10" class="node">
<title>__CIRCLE__7</title>
<ellipse fill="#000000" stroke="#000000" cx="887.78" cy="-255" rx="6.48" ry="6.48"/>
</g>
<!-- __CIRCLE__8 -->
<g id="node11" class="node">
<title>__CIRCLE__8</title>
<ellipse fill="#000000" stroke="#000000" cx="887.78" cy="-159" rx="6.48" ry="6.48"/>
</g>
<!-- __CIRCLE__9 -->
<g id="node12" class="node">
<title>__CIRCLE__9</title>
<ellipse fill="#000000" stroke="#000000" cx="887.78" cy="-159" rx="6.48" ry="6.48"/>
</g>
<!-- __CIRCLE__10 -->
<g id="node13" class="node">
<title>__CIRCLE__10</title>
<ellipse fill="#000000" stroke="#000000" cx="887.78" cy="-111" rx="6.48" ry="6.48"/>
</g>
<!-- __CIRCLE__11 -->
<g id="node14" class="node">
<title>__CIRCLE__11</title>
<ellipse fill="#000000" stroke="#000000" cx="938.59" cy="-231" rx="6.48" ry="6.48"/>
</g>
<!-- __CIRCLE__12 -->
<g id="node15" class="node">
<title>__CIRCLE__12</title>
<ellipse fill="#000000" stroke="#000000" cx="938.59" cy="-135" rx="6.48" ry="6.48"/>
</g>
</g>
</svg>
