<?xml version="1.0" encoding="UTF-8" standalone="no"?>
<!DOCTYPE svg PUBLIC "-//W3C//DTD SVG 1.1//EN"
 "http://www.w3.org/Graphics/SVG/1.1/DTD/svg11.dtd">
<!-- Generated by graphviz version 11.0.0 (20240428.1522)
 -->
<!-- Pages: 1 -->
<svg width="950pt" height="260pt"
 viewBox="0.00 0.00 950.25 260.00" xmlns="http://www.w3.org/2000/svg" xmlns:xlink="http://www.w3.org/1999/xlink">
<g id="graph0" class="graph" transform="scale(1 1) rotate(0) translate(4 256)">
<polygon fill="#ffffff" stroke="none" points="-4,4 -4,-256 946.25,-256 946.25,4 -4,4"/>
<!-- X1 -->
<g id="node1" class="node">
<title>X1</title>
<polygon fill="#ffffff" stroke="black" points="188.25,-241 0,-241 0,0 188.25,0 188.25,-241"/>
<polygon fill="none" stroke="black" points="0,-216.5 0,-241 188.25,-241 188.25,-216.5 0,-216.5"/>
<text text-anchor="start" x="85.13" y="-223.7" font-family="arial" font-size="14.00">X1</text>
<polygon fill="none" stroke="black" points="0,-192 0,-216.5 97.25,-216.5 97.25,-192 0,-192"/>
<text text-anchor="start" x="4" y="-199.2" font-family="arial" font-size="14.00">Molex KK 254</text>
<polygon fill="none" stroke="black" points="97.25,-192 97.25,-216.5 148.75,-216.5 148.75,-192 97.25,-192"/>
<text text-anchor="start" x="101.25" y="-199.2" font-family="arial" font-size="14.00">female</text>
<polygon fill="none" stroke="black" points="148.75,-192 148.75,-216.5 188.25,-216.5 188.25,-192 148.75,-192"/>
<text text-anchor="start" x="152.75" y="-199.2" font-family="arial" font-size="14.00">7&#45;pin</text>
<polygon fill="none" stroke="black" points="0,-168 0,-192 54.81,-192 54.81,-168 0,-168"/>
<polygon fill="none" stroke="black" points="54.81,-168 54.81,-192 105.63,-192 105.63,-168 54.81,-168"/>
<text text-anchor="start" x="66.34" y="-174.7" font-family="arial" font-size="14.00">SH1</text>
<polygon fill="none" stroke="black" points="105.63,-168 105.63,-192 156.44,-192 156.44,-168 105.63,-168"/>
<text text-anchor="start" x="117.16" y="-174.7" font-family="arial" font-size="14.00">SH2</text>
<polygon fill="none" stroke="black" points="156.44,-168 156.44,-192 188.25,-192 188.25,-168 156.44,-168"/>
<polygon fill="none" stroke="black" points="0,-144 0,-168 54.81,-168 54.81,-144 0,-144"/>
<text text-anchor="start" x="11.66" y="-150.7" font-family="arial" font-size="14.00">GND</text>
<polygon fill="none" stroke="black" points="54.81,-144 54.81,-168 105.63,-168 105.63,-144 54.81,-144"/>
<text text-anchor="start" x="73.47" y="-151.72" font-family="Sans" font-size="12.00" fill="#ff66cc">⬤</text>
<polygon fill="none" stroke="black" points="105.63,-144 105.63,-168 156.44,-168 156.44,-144 105.63,-144"/>
<polygon fill="none" stroke="black" points="156.44,-144 156.44,-168 188.25,-168 188.25,-144 156.44,-144"/>
<text text-anchor="start" x="168.22" y="-150.7" font-family="arial" font-size="14.00">1</text>
<polygon fill="none" stroke="black" points="0,-120 0,-144 54.81,-144 54.81,-120 0,-120"/>
<text text-anchor="start" x="12.03" y="-126.7" font-family="arial" font-size="14.00">VCC</text>
<polygon fill="none" stroke="black" points="54.81,-120 54.81,-144 105.63,-144 105.63,-120 54.81,-120"/>
<polygon fill="none" stroke="black" points="105.63,-120 105.63,-144 156.44,-144 156.44,-120 105.63,-120"/>
<text text-anchor="start" x="124.28" y="-127.72" font-family="Sans" font-size="12.00" fill="#ff0000">⬤</text>
<polygon fill="none" stroke="black" points="156.44,-120 156.44,-144 188.25,-144 188.25,-120 156.44,-120"/>
<text text-anchor="start" x="168.22" y="-126.7" font-family="arial" font-size="14.00">2</text>
<polygon fill="none" stroke="black" points="0,-96 0,-120 54.81,-120 54.81,-96 0,-96"/>
<text text-anchor="start" x="17.28" y="-102.7" font-family="arial" font-size="14.00">RX</text>
<polygon fill="none" stroke="black" points="54.81,-96 54.81,-120 105.63,-120 105.63,-96 54.81,-96"/>
<polygon fill="none" stroke="black" points="105.63,-96 105.63,-120 156.44,-120 156.44,-96 105.63,-96"/>
<polygon fill="none" stroke="black" points="156.44,-96 156.44,-120 188.25,-120 188.25,-96 156.44,-96"/>
<text text-anchor="start" x="168.22" y="-102.7" font-family="arial" font-size="14.00">3</text>
<polygon fill="none" stroke="black" points="0,-72 0,-96 54.81,-96 54.81,-72 0,-72"/>
<text text-anchor="start" x="18.03" y="-78.7" font-family="arial" font-size="14.00">TX</text>
<polygon fill="none" stroke="black" points="54.81,-72 54.81,-96 105.63,-96 105.63,-72 54.81,-72"/>
<polygon fill="none" stroke="black" points="105.63,-72 105.63,-96 156.44,-96 156.44,-72 105.63,-72"/>
<polygon fill="none" stroke="black" points="156.44,-72 156.44,-96 188.25,-96 188.25,-72 156.44,-72"/>
<text text-anchor="start" x="168.22" y="-78.7" font-family="arial" font-size="14.00">4</text>
<polygon fill="none" stroke="black" points="0,-48 0,-72 54.81,-72 54.81,-48 0,-48"/>
<text text-anchor="start" x="11.66" y="-54.7" font-family="arial" font-size="14.00">GND</text>
<polygon fill="none" stroke="black" points="54.81,-48 54.81,-72 105.63,-72 105.63,-48 54.81,-48"/>
<text text-anchor="start" x="73.47" y="-55.73" font-family="Sans" font-size="12.00" fill="#ff66cc">⬤</text>
<polygon fill="none" stroke="black" points="105.63,-48 105.63,-72 156.44,-72 156.44,-48 105.63,-48"/>
<polygon fill="none" stroke="black" points="156.44,-48 156.44,-72 188.25,-72 188.25,-48 156.44,-48"/>
<text text-anchor="start" x="168.22" y="-54.7" font-family="arial" font-size="14.00">5</text>
<polygon fill="none" stroke="black" points="0,-24 0,-48 54.81,-48 54.81,-24 0,-24"/>
<text text-anchor="start" x="12.03" y="-30.7" font-family="arial" font-size="14.00">VCC</text>
<polygon fill="none" stroke="black" points="54.81,-24 54.81,-48 105.63,-48 105.63,-24 54.81,-24"/>
<polygon fill="none" stroke="black" points="105.63,-24 105.63,-48 156.44,-48 156.44,-24 105.63,-24"/>
<text text-anchor="start" x="124.28" y="-31.73" font-family="Sans" font-size="12.00" fill="#ff0000">⬤</text>
<polygon fill="none" stroke="black" points="156.44,-24 156.44,-48 188.25,-48 188.25,-24 156.44,-24"/>
<text text-anchor="start" x="168.22" y="-30.7" font-family="arial" font-size="14.00">6</text>
<polygon fill="none" stroke="black" points="0,0 0,-24 54.81,-24 54.81,0 0,0"/>
<text text-anchor="start" x="11.66" y="-6.7" font-family="arial" font-size="14.00">GND</text>
<polygon fill="none" stroke="black" points="54.81,0 54.81,-24 105.63,-24 105.63,0 54.81,0"/>
<text text-anchor="start" x="73.47" y="-7.72" font-family="Sans" font-size="12.00" fill="#ff66cc">⬤</text>
<polygon fill="none" stroke="black" points="105.63,0 105.63,-24 156.44,-24 156.44,0 105.63,0"/>
<polygon fill="none" stroke="black" points="156.44,0 156.44,-24 188.25,-24 188.25,0 156.44,0"/>
<text text-anchor="start" x="168.22" y="-6.7" font-family="arial" font-size="14.00">7</text>
</g>
<!-- X1&#45;&#45;X1 -->
<g id="edge1" class="edge">
<title>X1:c&#45;&#45;X1:c</title>
<path fill="none" stroke="#ff66cc" stroke-width="2" d="M80.22,-156C80.22,-156 80.22,-60 80.22,-60"/>
</g>
<!-- X1&#45;&#45;X1 -->
<g id="edge2" class="edge">
<title>X1:c&#45;&#45;X1:c</title>
<path fill="none" stroke="#ff66cc" stroke-width="2" d="M80.22,-60C80.22,-60 80.22,-12 80.22,-12"/>
</g>
<!-- X1&#45;&#45;X1 -->
<g id="edge3" class="edge">
<title>X1:c&#45;&#45;X1:c</title>
<path fill="none" stroke="#ff0000" stroke-width="2" d="M131.03,-132C131.03,-132 131.03,-36 131.03,-36"/>
</g>
<!-- W1 -->
<g id="node2" class="node">
<title>W1</title>
<polygon fill="#ffffff" stroke="black" points="610,-252 332.25,-252 332.25,-17 610,-17 610,-252"/>
<polygon fill="none" stroke="black" points="332.25,-227.5 332.25,-252 610,-252 610,-227.5 332.25,-227.5"/>
<text text-anchor="start" x="459.87" y="-234.7" font-family="arial" font-size="14.00">W1</text>
<polygon fill="none" stroke="black" points="332.25,-203 332.25,-227.5 376.25,-227.5 376.25,-203 332.25,-203"/>
<text text-anchor="start" x="336.25" y="-210.2" font-family="arial" font-size="14.00">Serial</text>
<polygon fill="none" stroke="black" points="376.25,-203 376.25,-227.5 399.25,-227.5 399.25,-203 376.25,-203"/>
<text text-anchor="start" x="380.25" y="-210.2" font-family="arial" font-size="14.00">4x</text>
<polygon fill="none" stroke="black" points="399.25,-203 399.25,-227.5 536.25,-227.5 536.25,-203 399.25,-203"/>
<text text-anchor="start" x="403.25" y="-210.2" font-family="arial" font-size="14.00">0.25 mm² (24 AWG)</text>
<polygon fill="none" stroke="black" points="536.25,-203 536.25,-227.5 566,-227.5 566,-203 536.25,-203"/>
<text text-anchor="start" x="540.25" y="-210.2" font-family="arial" font-size="14.00">+ S</text>
<polygon fill="none" stroke="black" points="566,-203 566,-227.5 610,-227.5 610,-203 566,-203"/>
<text text-anchor="start" x="570" y="-210.2" font-family="arial" font-size="14.00">0.2 m</text>
<text text-anchor="start" x="376.16" y="-187.7" font-family="arial" font-size="14.00"> </text>
<text text-anchor="start" x="345.41" y="-167.7" font-family="arial" font-size="14.00">X1:1:GND</text>
<text text-anchor="start" x="438.5" y="-167.7" font-family="arial" font-size="14.00"> &#160;&#160;&#160;&#160;1:BN &#160;&#160;&#160;</text>
<text text-anchor="start" x="531.58" y="-167.7" font-family="arial" font-size="14.00">X2:1:GND</text>
<polygon fill="#000000" stroke="none" points="332.25,-161 332.25,-163 610,-163 610,-161 332.25,-161"/>
<polygon fill="#895956" stroke="none" points="332.25,-159 332.25,-161 610,-161 610,-159 332.25,-159"/>
<polygon fill="#000000" stroke="none" points="332.25,-157 332.25,-159 610,-159 610,-157 332.25,-157"/>
<text text-anchor="start" x="345.79" y="-141.7" font-family="arial" font-size="14.00">X1:2:VCC</text>
<text text-anchor="start" x="437.75" y="-141.7" font-family="arial" font-size="14.00"> &#160;&#160;&#160;&#160;2:RD &#160;&#160;&#160;</text>
<text text-anchor="start" x="531.95" y="-141.7" font-family="arial" font-size="14.00">X2:2:VCC</text>
<polygon fill="#000000" stroke="none" points="332.25,-135 332.25,-137 610,-137 610,-135 332.25,-135"/>
<polygon fill="#ff0000" stroke="none" points="332.25,-133 332.25,-135 610,-135 610,-133 332.25,-133"/>
<polygon fill="#000000" stroke="none" points="332.25,-131 332.25,-133 610,-133 610,-131 332.25,-131"/>
<text text-anchor="start" x="351.04" y="-115.7" font-family="arial" font-size="14.00">X1:3:RX</text>
<text text-anchor="start" x="437" y="-115.7" font-family="arial" font-size="14.00"> &#160;&#160;&#160;&#160;3:OG &#160;&#160;&#160;</text>
<text text-anchor="start" x="537.95" y="-115.7" font-family="arial" font-size="14.00">X2:4:TX</text>
<polygon fill="#000000" stroke="none" points="332.25,-109 332.25,-111 610,-111 610,-109 332.25,-109"/>
<polygon fill="#ff8000" stroke="none" points="332.25,-107 332.25,-109 610,-109 610,-107 332.25,-107"/>
<polygon fill="#000000" stroke="none" points="332.25,-105 332.25,-107 610,-107 610,-105 332.25,-105"/>
<text text-anchor="start" x="351.79" y="-89.7" font-family="arial" font-size="14.00">X1:4:TX</text>
<text text-anchor="start" x="438.87" y="-89.7" font-family="arial" font-size="14.00"> &#160;&#160;&#160;&#160;4:YE &#160;&#160;&#160;</text>
<text text-anchor="start" x="537.2" y="-89.7" font-family="arial" font-size="14.00">X2:3:RX</text>
<polygon fill="#000000" stroke="none" points="332.25,-83 332.25,-85 610,-85 610,-83 332.25,-83"/>
<polygon fill="#ffff00" stroke="none" points="332.25,-81 332.25,-83 610,-83 610,-81 332.25,-81"/>
<polygon fill="#000000" stroke="none" points="332.25,-79 332.25,-81 610,-81 610,-79 332.25,-79"/>
<text text-anchor="start" x="376.16" y="-63.7" font-family="arial" font-size="14.00"> </text>
<text text-anchor="start" x="345.41" y="-43.7" font-family="arial" font-size="14.00">X1:1:GND</text>
<text text-anchor="start" x="451.25" y="-43.7" font-family="arial" font-size="14.00">Shield</text>
<polygon fill="#000000" stroke="none" points="332.25,-37 332.25,-39 610,-39 610,-37 332.25,-37"/>
<text text-anchor="start" x="376.16" y="-21.7" font-family="arial" font-size="14.00"> </text>
</g>
<!-- X1&#45;&#45;W1 -->
<g id="edge4" class="edge">
<title>X1:e&#45;&#45;W1:w</title>
<path fill="none" stroke="#000000" stroke-width="2" d="M188.25,-154C252.76,-154.06 268.72,-158.06 332.25,-158"/>
<path fill="none" stroke="#895956" stroke-width="2" d="M188.25,-156C252.27,-156 268.23,-160 332.25,-160"/>
<path fill="none" stroke="#000000" stroke-width="2" d="M188.25,-158C251.78,-157.94 267.74,-161.94 332.25,-162"/>
</g>
<!-- X1&#45;&#45;W1 -->
<g id="edge5" class="edge">
<title>X1:e&#45;&#45;W1:w</title>
<path fill="none" stroke="#000000" stroke-width="2" d="M188.25,-130C252.51,-130.02 268.49,-132.02 332.25,-132"/>
<path fill="none" stroke="#ff0000" stroke-width="2" d="M188.25,-132C252.26,-132 268.24,-134 332.25,-134"/>
<path fill="none" stroke="#000000" stroke-width="2" d="M188.25,-134C252.01,-133.98 267.99,-135.98 332.25,-136"/>
</g>
<!-- X1&#45;&#45;W1 -->
<g id="edge6" class="edge">
<title>X1:e&#45;&#45;W1:w</title>
<path fill="none" stroke="#000000" stroke-width="2" d="M188.25,-106C252.25,-106 268.25,-106 332.25,-106"/>
<path fill="none" stroke="#ff8000" stroke-width="2" d="M188.25,-108C252.25,-108 268.25,-108 332.25,-108"/>
<path fill="none" stroke="#000000" stroke-width="2" d="M188.25,-110C252.25,-110 268.25,-110 332.25,-110"/>
</g>
<!-- X1&#45;&#45;W1 -->
<g id="edge7" class="edge">
<title>X1:e&#45;&#45;W1:w</title>
<path fill="none" stroke="#000000" stroke-width="2" d="M188.25,-82C252.01,-82.02 267.99,-80.02 332.25,-80"/>
<path fill="none" stroke="#ffff00" stroke-width="2" d="M188.25,-84C252.26,-84 268.24,-82 332.25,-82"/>
<path fill="none" stroke="#000000" stroke-width="2" d="M188.25,-86C252.51,-85.98 268.49,-83.98 332.25,-84"/>
</g>
<!-- X1&#45;&#45;W1 -->
<g id="edge8" class="edge">
<title>X1:e&#45;&#45;W1:w</title>
<path fill="none" stroke="#000000" stroke-width="2" d="M188.25,-156C270.99,-156 249.51,-38 332.25,-38"/>
</g>
<!-- X2 -->
<g id="node3" class="node">
<title>X2</title>
<polygon fill="#ffffff" stroke="black" points="942.25,-244 754,-244 754,-3 942.25,-3 942.25,-244"/>
<polygon fill="none" stroke="black" points="754,-219.5 754,-244 942.25,-244 942.25,-219.5 754,-219.5"/>
<text text-anchor="start" x="839.12" y="-226.7" font-family="arial" font-size="14.00">X2</text>
<polygon fill="none" stroke="black" points="754,-195 754,-219.5 851.25,-219.5 851.25,-195 754,-195"/>
<text text-anchor="start" x="758" y="-202.2" font-family="arial" font-size="14.00">Molex KK 254</text>
<polygon fill="none" stroke="black" points="851.25,-195 851.25,-219.5 902.75,-219.5 902.75,-195 851.25,-195"/>
<text text-anchor="start" x="855.25" y="-202.2" font-family="arial" font-size="14.00">female</text>
<polygon fill="none" stroke="black" points="902.75,-195 902.75,-219.5 942.25,-219.5 942.25,-195 902.75,-195"/>
<text text-anchor="start" x="906.75" y="-202.2" font-family="arial" font-size="14.00">7&#45;pin</text>
<polygon fill="none" stroke="black" points="754,-171 754,-195 785.81,-195 785.81,-171 754,-171"/>
<polygon fill="none" stroke="black" points="785.81,-171 785.81,-195 840.62,-195 840.62,-171 785.81,-171"/>
<polygon fill="none" stroke="black" points="840.62,-171 840.62,-195 891.43,-195 891.43,-171 840.62,-171"/>
<text text-anchor="start" x="852.15" y="-177.7" font-family="arial" font-size="14.00">SH1</text>
<polygon fill="none" stroke="black" points="891.43,-171 891.43,-195 942.25,-195 942.25,-171 891.43,-171"/>
<text text-anchor="start" x="902.96" y="-177.7" font-family="arial" font-size="14.00">SH2</text>
<polygon fill="none" stroke="black" points="754,-147 754,-171 785.81,-171 785.81,-147 754,-147"/>
<text text-anchor="start" x="765.78" y="-153.7" font-family="arial" font-size="14.00">1</text>
<polygon fill="none" stroke="black" points="785.81,-147 785.81,-171 840.62,-171 840.62,-147 785.81,-147"/>
<text text-anchor="start" x="797.46" y="-153.7" font-family="arial" font-size="14.00">GND</text>
<polygon fill="none" stroke="black" points="840.62,-147 840.62,-171 891.43,-171 891.43,-147 840.62,-147"/>
<text text-anchor="start" x="859.28" y="-154.72" font-family="Sans" font-size="12.00" fill="#000000">⬤</text>
<polygon fill="none" stroke="black" points="891.43,-147 891.43,-171 942.25,-171 942.25,-147 891.43,-147"/>
<polygon fill="none" stroke="black" points="754,-123 754,-147 785.81,-147 785.81,-123 754,-123"/>
<text text-anchor="start" x="765.78" y="-129.7" font-family="arial" font-size="14.00">2</text>
<polygon fill="none" stroke="black" points="785.81,-123 785.81,-147 840.62,-147 840.62,-123 785.81,-123"/>
<text text-anchor="start" x="797.84" y="-129.7" font-family="arial" font-size="14.00">VCC</text>
<polygon fill="none" stroke="black" points="840.62,-123 840.62,-147 891.43,-147 891.43,-123 840.62,-123"/>
<polygon fill="none" stroke="black" points="891.43,-123 891.43,-147 942.25,-147 942.25,-123 891.43,-123"/>
<text text-anchor="start" x="910.09" y="-130.72" font-family="Sans" font-size="12.00" fill="#000000">⬤</text>
<polygon fill="none" stroke="black" points="754,-99 754,-123 785.81,-123 785.81,-99 754,-99"/>
<text text-anchor="start" x="765.78" y="-105.7" font-family="arial" font-size="14.00">3</text>
<polygon fill="none" stroke="black" points="785.81,-99 785.81,-123 840.62,-123 840.62,-99 785.81,-99"/>
<text text-anchor="start" x="803.09" y="-105.7" font-family="arial" font-size="14.00">RX</text>
<polygon fill="none" stroke="black" points="840.62,-99 840.62,-123 891.43,-123 891.43,-99 840.62,-99"/>
<polygon fill="none" stroke="black" points="891.43,-99 891.43,-123 942.25,-123 942.25,-99 891.43,-99"/>
<polygon fill="none" stroke="black" points="754,-75 754,-99 785.81,-99 785.81,-75 754,-75"/>
<text text-anchor="start" x="765.78" y="-81.7" font-family="arial" font-size="14.00">4</text>
<polygon fill="none" stroke="black" points="785.81,-75 785.81,-99 840.62,-99 840.62,-75 785.81,-75"/>
<text text-anchor="start" x="803.84" y="-81.7" font-family="arial" font-size="14.00">TX</text>
<polygon fill="none" stroke="black" points="840.62,-75 840.62,-99 891.43,-99 891.43,-75 840.62,-75"/>
<polygon fill="none" stroke="black" points="891.43,-75 891.43,-99 942.25,-99 942.25,-75 891.43,-75"/>
<polygon fill="none" stroke="black" points="754,-51 754,-75 785.81,-75 785.81,-51 754,-51"/>
<text text-anchor="start" x="765.78" y="-57.7" font-family="arial" font-size="14.00">5</text>
<polygon fill="none" stroke="black" points="785.81,-51 785.81,-75 840.62,-75 840.62,-51 785.81,-51"/>
<text text-anchor="start" x="797.46" y="-57.7" font-family="arial" font-size="14.00">GND</text>
<polygon fill="none" stroke="black" points="840.62,-51 840.62,-75 891.43,-75 891.43,-51 840.62,-51"/>
<text text-anchor="start" x="859.28" y="-58.73" font-family="Sans" font-size="12.00" fill="#000000">⬤</text>
<polygon fill="none" stroke="black" points="891.43,-51 891.43,-75 942.25,-75 942.25,-51 891.43,-51"/>
<polygon fill="none" stroke="black" points="754,-27 754,-51 785.81,-51 785.81,-27 754,-27"/>
<text text-anchor="start" x="765.78" y="-33.7" font-family="arial" font-size="14.00">6</text>
<polygon fill="none" stroke="black" points="785.81,-27 785.81,-51 840.62,-51 840.62,-27 785.81,-27"/>
<text text-anchor="start" x="797.84" y="-33.7" font-family="arial" font-size="14.00">VCC</text>
<polygon fill="none" stroke="black" points="840.62,-27 840.62,-51 891.43,-51 891.43,-27 840.62,-27"/>
<polygon fill="none" stroke="black" points="891.43,-27 891.43,-51 942.25,-51 942.25,-27 891.43,-27"/>
<text text-anchor="start" x="910.09" y="-34.73" font-family="Sans" font-size="12.00" fill="#000000">⬤</text>
<polygon fill="none" stroke="black" points="754,-3 754,-27 785.81,-27 785.81,-3 754,-3"/>
<text text-anchor="start" x="765.78" y="-9.7" font-family="arial" font-size="14.00">7</text>
<polygon fill="none" stroke="black" points="785.81,-3 785.81,-27 840.62,-27 840.62,-3 785.81,-3"/>
<text text-anchor="start" x="797.46" y="-9.7" font-family="arial" font-size="14.00">GND</text>
<polygon fill="none" stroke="black" points="840.62,-3 840.62,-27 891.43,-27 891.43,-3 840.62,-3"/>
<text text-anchor="start" x="859.28" y="-10.72" font-family="Sans" font-size="12.00" fill="#000000">⬤</text>
<polygon fill="none" stroke="black" points="891.43,-3 891.43,-27 942.25,-27 942.25,-3 891.43,-3"/>
</g>
<!-- W1&#45;&#45;X2 -->
<g id="edge9" class="edge">
<title>W1:e&#45;&#45;X2:w</title>
<path fill="none" stroke="#000000" stroke-width="2" d="M610,-158C673.88,-158 689.88,-157 754,-157"/>
<path fill="none" stroke="#895956" stroke-width="2" d="M610,-160C674,-160 690,-159 754,-159"/>
<path fill="none" stroke="#000000" stroke-width="2" d="M610,-162C674.13,-162 690.13,-161 754,-161"/>
</g>
<!-- W1&#45;&#45;X2 -->
<g id="edge10" class="edge">
<title>W1:e&#45;&#45;X2:w</title>
<path fill="none" stroke="#000000" stroke-width="2" d="M610,-132C674.13,-132 690.13,-133 754,-133"/>
<path fill="none" stroke="#ff0000" stroke-width="2" d="M610,-134C674,-134 690,-135 754,-135"/>
<path fill="none" stroke="#000000" stroke-width="2" d="M610,-136C673.88,-136 689.88,-137 754,-137"/>
</g>
<!-- W1&#45;&#45;X2 -->
<g id="edge11" class="edge">
<title>W1:e&#45;&#45;X2:w</title>
<path fill="none" stroke="#000000" stroke-width="2" d="M610,-106C673.04,-106.86 687.68,-85.86 754,-85"/>
<path fill="none" stroke="#ff8000" stroke-width="2" d="M610,-108C674.68,-108 689.32,-87 754,-87"/>
<path fill="none" stroke="#000000" stroke-width="2" d="M610,-110C676.32,-109.14 690.96,-88.14 754,-89"/>
</g>
<!-- W1&#45;&#45;X2 -->
<g id="edge12" class="edge">
<title>W1:e&#45;&#45;X2:w</title>
<path fill="none" stroke="#000000" stroke-width="2" d="M610,-80C677.1,-81.16 690.54,-110.16 754,-109"/>
<path fill="none" stroke="#ffff00" stroke-width="2" d="M610,-82C675.28,-82 688.72,-111 754,-111"/>
<path fill="none" stroke="#000000" stroke-width="2" d="M610,-84C673.47,-82.84 686.91,-111.84 754,-113"/>
</g>
<!-- X2&#45;&#45;X2 -->
<g id="edge13" class="edge">
<title>X2:c&#45;&#45;X2:c</title>
<path fill="none" stroke="#000000" stroke-width="2" d="M866.03,-159C866.03,-159 866.03,-63 866.03,-63"/>
</g>
<!-- X2&#45;&#45;X2 -->
<g id="edge14" class="edge">
<title>X2:c&#45;&#45;X2:c</title>
<path fill="none" stroke="#000000" stroke-width="2" d="M866.03,-63C866.03,-63 866.03,-15 866.03,-15"/>
</g>
<!-- X2&#45;&#45;X2 -->
<g id="edge15" class="edge">
<title>X2:c&#45;&#45;X2:c</title>
<path fill="none" stroke="#000000" stroke-width="2" d="M916.84,-135C916.84,-135 916.84,-39 916.84,-39"/>
</g>
</g>
</svg>
