<?xml version="1.0" encoding="UTF-8" standalone="no"?>
<!DOCTYPE svg PUBLIC "-//W3C//DTD SVG 1.1//EN"
 "http://www.w3.org/Graphics/SVG/1.1/DTD/svg11.dtd">
<!-- Generated by graphviz version 12.1.2 (0)
 -->
<!-- Pages: 1 -->
<svg width="943pt" height="336pt"
 viewBox="0.00 0.00 943.25 335.50" xmlns="http://www.w3.org/2000/svg" xmlns:xlink="http://www.w3.org/1999/xlink">
<g id="graph0" class="graph" transform="scale(1 1) rotate(0) translate(4 331.5)">
<polygon fill="#ffffff" stroke="none" points="-4,4 -4,-331.5 939.25,-331.5 939.25,4 -4,4"/>
<!-- X1 -->
<g id="node1" class="node">
<title>X1</title>
<polygon fill="#ffffff" stroke="black" points="200,-317.5 0,-317.5 0,0 200,0 200,-317.5"/>
<polygon fill="#ffffff" stroke="none" points="0,0 0,-317.5 200,-317.5 200,0 0,0"/>
<polygon fill="none" stroke="black" points="0,-293.75 0,-317.5 200,-317.5 200,-293.75 0,-293.75"/>
<text text-anchor="start" x="91.75" y="-300.2" font-family="arial" font-size="14.00">X1</text>
<polygon fill="none" stroke="black" points="0,-270 0,-293.75 99.42,-293.75 99.42,-270 0,-270"/>
<text text-anchor="start" x="7.33" y="-276.45" font-family="arial" font-size="14.00">Molex KK 254</text>
<polygon fill="none" stroke="black" points="99.42,-270 99.42,-293.75 155.33,-293.75 155.33,-270 99.42,-270"/>
<text text-anchor="start" x="106.75" y="-276.45" font-family="arial" font-size="14.00">female</text>
<polygon fill="none" stroke="black" points="155.33,-270 155.33,-293.75 200,-293.75 200,-270 155.33,-270"/>
<text text-anchor="start" x="162.67" y="-276.45" font-family="arial" font-size="14.00">7&#45;pin</text>
<polygon fill="none" stroke="black" points="0,-247 0,-270 57.75,-270 57.75,-247 0,-247"/>
<polygon fill="none" stroke="black" points="57.75,-247 57.75,-270 111.5,-270 111.5,-247 57.75,-247"/>
<text text-anchor="start" x="71.5" y="-252.7" font-family="arial" font-size="14.00">SH1</text>
<polygon fill="none" stroke="black" points="111.5,-247 111.5,-270 165.25,-270 165.25,-247 111.5,-247"/>
<text text-anchor="start" x="125.25" y="-252.7" font-family="arial" font-size="14.00">SH2</text>
<polygon fill="none" stroke="black" points="165.25,-247 165.25,-270 200,-270 200,-247 165.25,-247"/>
<polygon fill="none" stroke="black" points="0,-224 0,-247 57.75,-247 57.75,-224 0,-224"/>
<text text-anchor="start" x="13.5" y="-229.7" font-family="arial" font-size="14.00">GND</text>
<polygon fill="none" stroke="black" points="57.75,-224 57.75,-247 111.5,-247 111.5,-224 57.75,-224"/>
<polygon fill="none" stroke="black" points="111.5,-224 111.5,-247 165.25,-247 165.25,-224 111.5,-224"/>
<polygon fill="none" stroke="black" points="165.25,-224 165.25,-247 200,-247 200,-224 165.25,-224"/>
<text text-anchor="start" x="178.88" y="-229.7" font-family="arial" font-size="14.00">1</text>
<polygon fill="none" stroke="black" points="0,-201 0,-224 57.75,-224 57.75,-201 0,-201"/>
<text text-anchor="start" x="14.63" y="-206.7" font-family="arial" font-size="14.00">VCC</text>
<polygon fill="none" stroke="black" points="57.75,-201 57.75,-224 111.5,-224 111.5,-201 57.75,-201"/>
<polygon fill="none" stroke="black" points="111.5,-201 111.5,-224 165.25,-224 165.25,-201 111.5,-201"/>
<polygon fill="none" stroke="black" points="165.25,-201 165.25,-224 200,-224 200,-201 165.25,-201"/>
<text text-anchor="start" x="178.88" y="-206.7" font-family="arial" font-size="14.00">2</text>
<polygon fill="none" stroke="black" points="0,-178 0,-201 57.75,-201 57.75,-178 0,-178"/>
<text text-anchor="start" x="19.5" y="-183.7" font-family="arial" font-size="14.00">RX</text>
<polygon fill="none" stroke="black" points="57.75,-178 57.75,-201 111.5,-201 111.5,-178 57.75,-178"/>
<polygon fill="none" stroke="black" points="111.5,-178 111.5,-201 165.25,-201 165.25,-178 111.5,-178"/>
<polygon fill="none" stroke="black" points="165.25,-178 165.25,-201 200,-201 200,-178 165.25,-178"/>
<text text-anchor="start" x="178.88" y="-183.7" font-family="arial" font-size="14.00">3</text>
<polygon fill="none" stroke="black" points="0,-155 0,-178 57.75,-178 57.75,-155 0,-155"/>
<text text-anchor="start" x="20.25" y="-160.7" font-family="arial" font-size="14.00">TX</text>
<polygon fill="none" stroke="black" points="57.75,-155 57.75,-178 111.5,-178 111.5,-155 57.75,-155"/>
<polygon fill="none" stroke="black" points="111.5,-155 111.5,-178 165.25,-178 165.25,-155 111.5,-155"/>
<polygon fill="none" stroke="black" points="165.25,-155 165.25,-178 200,-178 200,-155 165.25,-155"/>
<text text-anchor="start" x="178.88" y="-160.7" font-family="arial" font-size="14.00">4</text>
<polygon fill="none" stroke="black" points="0,-132 0,-155 57.75,-155 57.75,-132 0,-132"/>
<text text-anchor="start" x="13.5" y="-137.7" font-family="arial" font-size="14.00">GND</text>
<polygon fill="none" stroke="black" points="57.75,-132 57.75,-155 111.5,-155 111.5,-132 57.75,-132"/>
<polygon fill="none" stroke="black" points="111.5,-132 111.5,-155 165.25,-155 165.25,-132 111.5,-132"/>
<polygon fill="none" stroke="black" points="165.25,-132 165.25,-155 200,-155 200,-132 165.25,-132"/>
<text text-anchor="start" x="178.88" y="-137.7" font-family="arial" font-size="14.00">5</text>
<polygon fill="none" stroke="black" points="0,-109 0,-132 57.75,-132 57.75,-109 0,-109"/>
<text text-anchor="start" x="14.63" y="-114.7" font-family="arial" font-size="14.00">VCC</text>
<polygon fill="none" stroke="black" points="57.75,-109 57.75,-132 111.5,-132 111.5,-109 57.75,-109"/>
<polygon fill="none" stroke="black" points="111.5,-109 111.5,-132 165.25,-132 165.25,-109 111.5,-109"/>
<polygon fill="none" stroke="black" points="165.25,-109 165.25,-132 200,-132 200,-109 165.25,-109"/>
<text text-anchor="start" x="178.88" y="-114.7" font-family="arial" font-size="14.00">6</text>
<polygon fill="none" stroke="black" points="0,-86 0,-109 57.75,-109 57.75,-86 0,-86"/>
<text text-anchor="start" x="13.5" y="-91.7" font-family="arial" font-size="14.00">GND</text>
<polygon fill="none" stroke="black" points="57.75,-86 57.75,-109 111.5,-109 111.5,-86 57.75,-86"/>
<polygon fill="none" stroke="black" points="111.5,-86 111.5,-109 165.25,-109 165.25,-86 111.5,-86"/>
<polygon fill="none" stroke="black" points="165.25,-86 165.25,-109 200,-109 200,-86 165.25,-86"/>
<text text-anchor="start" x="178.88" y="-91.7" font-family="arial" font-size="14.00">7</text>
<text text-anchor="start" x="10" y="-68.7" font-family="arial" font-size="14.00">42</text>
<text text-anchor="start" x="31" y="-68.7" font-family="arial" font-size="14.00">mm</text>
<text text-anchor="start" x="61" y="-68.7" font-family="arial" font-size="14.00">shortPartA</text>
<text text-anchor="start" x="60.63" y="-47.7" font-family="arial" font-size="14.00">WireViz: 42XCD42A5</text>
<text text-anchor="start" x="17.5" y="-26.7" font-family="arial" font-size="14.00">1</text>
<text text-anchor="start" x="31" y="-26.7" font-family="arial" font-size="14.00">x</text>
<text text-anchor="start" x="61" y="-26.7" font-family="arial" font-size="14.00">shortPartB</text>
<text text-anchor="start" x="60.63" y="-5.7" font-family="arial" font-size="14.00">WireViz: 42XCD42A5</text>
<polygon fill="none" stroke="black" points="0,0 0,-86 200,-86 200,0 0,0"/>
</g>
<!-- X1&#45;&#45;X1 -->
<g id="edge1" class="edge">
<title>X1:c&#45;&#45;X1:c</title>
<path fill="none" stroke="#ffffff" stroke-width="2" d="M82.63,-235.5C82.63,-204.83 82.63,-174.17 82.63,-143.5"/>
<path fill="none" stroke="#ff66cc" stroke-width="2" d="M84.63,-235.5C84.63,-204.83 84.63,-174.17 84.63,-143.5"/>
<path fill="none" stroke="#ffffff" stroke-width="2" d="M86.63,-235.5C86.63,-204.83 86.63,-174.17 86.63,-143.5"/>
</g>
<!-- X1&#45;&#45;X1 -->
<g id="edge2" class="edge">
<title>X1:c&#45;&#45;X1:c</title>
<path fill="none" stroke="#ffffff" stroke-width="2" d="M82.63,-143.5C82.63,-128.17 82.63,-112.83 82.63,-97.5"/>
<path fill="none" stroke="#ff66cc" stroke-width="2" d="M84.63,-143.5C84.63,-128.17 84.63,-112.83 84.63,-97.5"/>
<path fill="none" stroke="#ffffff" stroke-width="2" d="M86.63,-143.5C86.63,-128.17 86.63,-112.83 86.63,-97.5"/>
</g>
<!-- X1&#45;&#45;X1 -->
<g id="edge3" class="edge">
<title>X1:c&#45;&#45;X1:c</title>
<path fill="none" stroke="#ffffff" stroke-width="2" d="M136.38,-212.5C136.38,-181.83 136.38,-151.17 136.38,-120.5"/>
<path fill="none" stroke="#ff0000" stroke-width="2" d="M138.38,-212.5C138.38,-181.83 138.38,-151.17 138.38,-120.5"/>
<path fill="none" stroke="#ffffff" stroke-width="2" d="M140.38,-212.5C140.38,-181.83 140.38,-151.17 140.38,-120.5"/>
</g>
<!-- W1 -->
<g id="node2" class="node">
<title>W1</title>
<polygon fill="#ffffff" stroke="black" points="611.25,-327.5 344,-327.5 344,-98 611.25,-98 611.25,-327.5"/>
<polygon fill="#ffffff" stroke="none" points="344,-98 344,-327.5 611.25,-327.5 611.25,-98 344,-98"/>
<polygon fill="none" stroke="black" points="344,-303.75 344,-327.5 611.25,-327.5 611.25,-303.75 344,-303.75"/>
<text text-anchor="start" x="467.12" y="-310.2" font-family="arial" font-size="14.00">W1</text>
<polygon fill="none" stroke="black" points="344,-280 344,-303.75 386.5,-303.75 386.5,-280 344,-280"/>
<text text-anchor="start" x="348" y="-286.45" font-family="arial" font-size="14.00">Serial</text>
<polygon fill="none" stroke="black" points="386.5,-280 386.5,-303.75 408.75,-303.75 408.75,-280 386.5,-280"/>
<text text-anchor="start" x="390.5" y="-286.45" font-family="arial" font-size="14.00">4x</text>
<polygon fill="none" stroke="black" points="408.75,-280 408.75,-303.75 539.75,-303.75 539.75,-280 408.75,-280"/>
<text text-anchor="start" x="412.75" y="-286.45" font-family="arial" font-size="14.00">0.25 mm² (24 AWG)</text>
<polygon fill="none" stroke="black" points="539.75,-280 539.75,-303.75 568.75,-303.75 568.75,-280 539.75,-280"/>
<text text-anchor="start" x="543.75" y="-286.45" font-family="arial" font-size="14.00">+ S</text>
<polygon fill="none" stroke="black" points="568.75,-280 568.75,-303.75 611.25,-303.75 611.25,-280 568.75,-280"/>
<text text-anchor="start" x="572.75" y="-286.45" font-family="arial" font-size="14.00">0.2 m</text>
<text text-anchor="start" x="382.35" y="-264.7" font-family="arial" font-size="14.00"> </text>
<text text-anchor="start" x="346" y="-245.7" font-family="arial" font-size="14.00"> X1:1:GND</text>
<text text-anchor="start" x="431.3" y="-245.7" font-family="arial" font-size="14.00"> </text>
<text text-anchor="start" x="451" y="-245.7" font-family="arial" font-size="14.00">1:BUWH</text>
<text text-anchor="start" x="520.2" y="-245.7" font-family="arial" font-size="14.00"> </text>
<text text-anchor="start" x="543.25" y="-245.7" font-family="arial" font-size="14.00">X2:1:GND </text>
<text text-anchor="start" x="346" y="-220.7" font-family="arial" font-size="14.00"> X1:2:VCC</text>
<text text-anchor="start" x="431.3" y="-220.7" font-family="arial" font-size="14.00"> </text>
<text text-anchor="start" x="451" y="-220.7" font-family="arial" font-size="14.00">2:WHBU</text>
<text text-anchor="start" x="520.2" y="-220.7" font-family="arial" font-size="14.00"> </text>
<text text-anchor="start" x="545.5" y="-220.7" font-family="arial" font-size="14.00">X2:2:VCC </text>
<text text-anchor="start" x="346" y="-195.7" font-family="arial" font-size="14.00"> X1:3:RX</text>
<text text-anchor="start" x="431.3" y="-195.7" font-family="arial" font-size="14.00"> </text>
<text text-anchor="start" x="449.12" y="-195.7" font-family="arial" font-size="14.00">3:OGWH</text>
<text text-anchor="start" x="520.2" y="-195.7" font-family="arial" font-size="14.00"> </text>
<text text-anchor="start" x="556.75" y="-195.7" font-family="arial" font-size="14.00">X2:4:TX </text>
<text text-anchor="start" x="346" y="-170.7" font-family="arial" font-size="14.00"> X1:4:TX</text>
<text text-anchor="start" x="431.3" y="-170.7" font-family="arial" font-size="14.00"> </text>
<text text-anchor="start" x="449.12" y="-170.7" font-family="arial" font-size="14.00">4:WHOG</text>
<text text-anchor="start" x="520.2" y="-170.7" font-family="arial" font-size="14.00"> </text>
<text text-anchor="start" x="555.25" y="-170.7" font-family="arial" font-size="14.00">X2:3:RX </text>
<text text-anchor="start" x="382.35" y="-145.7" font-family="arial" font-size="14.00"> </text>
<text text-anchor="start" x="346" y="-126.7" font-family="arial" font-size="14.00"> X1:1:GND</text>
<text text-anchor="start" x="431.3" y="-126.7" font-family="arial" font-size="14.00"> </text>
<text text-anchor="start" x="458.87" y="-126.7" font-family="arial" font-size="14.00">Shield</text>
<text text-anchor="start" x="520.2" y="-126.7" font-family="arial" font-size="14.00"> </text>
<text text-anchor="start" x="605.5" y="-126.7" font-family="arial" font-size="14.00"> </text>
<text text-anchor="start" x="382.35" y="-101.7" font-family="arial" font-size="14.00"> </text>
</g>
<!-- X1&#45;&#45;W1 -->
<g id="edge4" class="edge">
<title>X1:e&#45;&#45;W1:w</title>
<path fill="none" stroke="#000000" stroke-width="2" d="M200,-231.5C264.88,-231.59 280.84,-235.09 344,-235"/>
<path fill="none" stroke="#0066ff" stroke-width="2" d="M200,-233.5C264.45,-233.55 280.41,-237.05 344,-237"/>
<path fill="none" stroke="#ffffff" stroke-width="2" d="M200,-235.5C264.02,-235.5 279.98,-239 344,-239"/>
<path fill="none" stroke="#0066ff" stroke-width="2" d="M200,-237.5C263.59,-237.45 279.55,-240.95 344,-241"/>
<path fill="none" stroke="#000000" stroke-width="2" d="M200,-239.5C263.16,-239.41 279.12,-242.91 344,-243"/>
</g>
<!-- X1&#45;&#45;W1 -->
<g id="edge5" class="edge">
<title>X1:e&#45;&#45;W1:w</title>
<path fill="none" stroke="#000000" stroke-width="2" d="M200,-208.5C264.37,-208.52 280.37,-210.02 344,-210"/>
<path fill="none" stroke="#ffffff" stroke-width="2" d="M200,-210.5C264.19,-210.51 280.19,-212.01 344,-212"/>
<path fill="none" stroke="#0066ff" stroke-width="2" d="M200,-212.5C264,-212.5 280,-214 344,-214"/>
<path fill="none" stroke="#ffffff" stroke-width="2" d="M200,-214.5C263.81,-214.49 279.81,-215.99 344,-216"/>
<path fill="none" stroke="#000000" stroke-width="2" d="M200,-216.5C263.63,-216.48 279.63,-217.98 344,-218"/>
</g>
<!-- X1&#45;&#45;W1 -->
<g id="edge6" class="edge">
<title>X1:e&#45;&#45;W1:w</title>
<path fill="none" stroke="#000000" stroke-width="2" d="M200,-185.5C263.88,-185.5 279.88,-185 344,-185"/>
<path fill="none" stroke="#ff8000" stroke-width="2" d="M200,-187.5C263.94,-187.5 279.94,-187 344,-187"/>
<path fill="none" stroke="#ffffff" stroke-width="2" d="M200,-189.5C264,-189.5 280,-189 344,-189"/>
<path fill="none" stroke="#ff8000" stroke-width="2" d="M200,-191.5C264.06,-191.5 280.06,-191 344,-191"/>
<path fill="none" stroke="#000000" stroke-width="2" d="M200,-193.5C264.13,-193.5 280.13,-193 344,-193"/>
</g>
<!-- X1&#45;&#45;W1 -->
<g id="edge7" class="edge">
<title>X1:e&#45;&#45;W1:w</title>
<path fill="none" stroke="#000000" stroke-width="2" d="M200,-162.5C263.39,-162.55 279.37,-160.05 344,-160"/>
<path fill="none" stroke="#ffffff" stroke-width="2" d="M200,-164.5C263.7,-164.52 279.68,-162.02 344,-162"/>
<path fill="none" stroke="#ff8000" stroke-width="2" d="M200,-166.5C264.01,-166.5 279.99,-164 344,-164"/>
<path fill="none" stroke="#ffffff" stroke-width="2" d="M200,-168.5C264.32,-168.48 280.3,-165.98 344,-166"/>
<path fill="none" stroke="#000000" stroke-width="2" d="M200,-170.5C264.63,-170.45 280.61,-167.95 344,-168"/>
</g>
<!-- X1&#45;&#45;W1 -->
<g id="edge8" class="edge">
<title>X1:e&#45;&#45;W1:w</title>
<path fill="none" stroke="#000000" stroke-width="2" d="M200,-235.5C282.04,-235.5 261.96,-120 344,-120"/>
</g>
<!-- W1&#45;&#45;W1 -->
<g id="edge9" class="edge">
<title>W1:e&#45;&#45;W1:w</title>
<path fill="none" stroke="#000000" stroke-width="2" d="M611.25,-243C522.17,-243 433.08,-243 344,-243"/>
<path fill="none" stroke="#0066ff" stroke-width="2" d="M611.25,-241C522.17,-241 433.08,-241 344,-241"/>
<path fill="none" stroke="#ffffff" stroke-width="2" d="M611.25,-239C522.17,-239 433.08,-239 344,-239"/>
<path fill="none" stroke="#0066ff" stroke-width="2" d="M611.25,-237C522.17,-237 433.08,-237 344,-237"/>
<path fill="none" stroke="#000000" stroke-width="2" d="M611.25,-235C522.17,-235 433.08,-235 344,-235"/>
</g>
<!-- W1&#45;&#45;W1 -->
<g id="edge10" class="edge">
<title>W1:e&#45;&#45;W1:w</title>
<path fill="none" stroke="#000000" stroke-width="2" d="M611.25,-218C522.17,-218 433.08,-218 344,-218"/>
<path fill="none" stroke="#ffffff" stroke-width="2" d="M611.25,-216C522.17,-216 433.08,-216 344,-216"/>
<path fill="none" stroke="#0066ff" stroke-width="2" d="M611.25,-214C522.17,-214 433.08,-214 344,-214"/>
<path fill="none" stroke="#ffffff" stroke-width="2" d="M611.25,-212C522.17,-212 433.08,-212 344,-212"/>
<path fill="none" stroke="#000000" stroke-width="2" d="M611.25,-210C522.17,-210 433.08,-210 344,-210"/>
</g>
<!-- W1&#45;&#45;W1 -->
<g id="edge11" class="edge">
<title>W1:e&#45;&#45;W1:w</title>
<path fill="none" stroke="#000000" stroke-width="2" d="M611.25,-193C522.17,-193 433.08,-193 344,-193"/>
<path fill="none" stroke="#ff8000" stroke-width="2" d="M611.25,-191C522.17,-191 433.08,-191 344,-191"/>
<path fill="none" stroke="#ffffff" stroke-width="2" d="M611.25,-189C522.17,-189 433.08,-189 344,-189"/>
<path fill="none" stroke="#ff8000" stroke-width="2" d="M611.25,-187C522.17,-187 433.08,-187 344,-187"/>
<path fill="none" stroke="#000000" stroke-width="2" d="M611.25,-185C522.17,-185 433.08,-185 344,-185"/>
</g>
<!-- W1&#45;&#45;W1 -->
<g id="edge12" class="edge">
<title>W1:e&#45;&#45;W1:w</title>
<path fill="none" stroke="#000000" stroke-width="2" d="M611.25,-168C522.17,-168 433.08,-168 344,-168"/>
<path fill="none" stroke="#ffffff" stroke-width="2" d="M611.25,-166C522.17,-166 433.08,-166 344,-166"/>
<path fill="none" stroke="#ff8000" stroke-width="2" d="M611.25,-164C522.17,-164 433.08,-164 344,-164"/>
<path fill="none" stroke="#ffffff" stroke-width="2" d="M611.25,-162C522.17,-162 433.08,-162 344,-162"/>
<path fill="none" stroke="#000000" stroke-width="2" d="M611.25,-160C522.17,-160 433.08,-160 344,-160"/>
</g>
<!-- W1&#45;&#45;W1 -->
<g id="edge13" class="edge">
<title>W1:e&#45;&#45;W1:w</title>
<path fill="none" stroke="#000000" stroke-width="2" d="M611.25,-120C522.17,-120 433.08,-120 344,-120"/>
</g>
<!-- X2 -->
<g id="node3" class="node">
<title>X2</title>
<polygon fill="#ffffff" stroke="black" points="935.25,-320.5 755.25,-320.5 755.25,-89 935.25,-89 935.25,-320.5"/>
<polygon fill="#ffffff" stroke="none" points="755.25,-89 755.25,-320.5 935.25,-320.5 935.25,-89 755.25,-89"/>
<polygon fill="none" stroke="black" points="755.25,-296.75 755.25,-320.5 935.25,-320.5 935.25,-296.75 755.25,-296.75"/>
<text text-anchor="start" x="837" y="-303.2" font-family="arial" font-size="14.00">X2</text>
<polygon fill="none" stroke="black" points="755.25,-273 755.25,-296.75 848,-296.75 848,-273 755.25,-273"/>
<text text-anchor="start" x="759.25" y="-279.45" font-family="arial" font-size="14.00">Molex KK 254</text>
<polygon fill="none" stroke="black" points="848,-273 848,-296.75 897.25,-296.75 897.25,-273 848,-273"/>
<text text-anchor="start" x="852" y="-279.45" font-family="arial" font-size="14.00">female</text>
<polygon fill="none" stroke="black" points="897.25,-273 897.25,-296.75 935.25,-296.75 935.25,-273 897.25,-273"/>
<text text-anchor="start" x="901.25" y="-279.45" font-family="arial" font-size="14.00">7&#45;pin</text>
<polygon fill="none" stroke="black" points="755.25,-250 755.25,-273 785,-273 785,-250 755.25,-250"/>
<polygon fill="none" stroke="black" points="785,-250 785,-273 837.75,-273 837.75,-250 785,-250"/>
<polygon fill="none" stroke="black" points="837.75,-250 837.75,-273 886.5,-273 886.5,-250 837.75,-250"/>
<text text-anchor="start" x="849" y="-255.7" font-family="arial" font-size="14.00">SH1</text>
<polygon fill="none" stroke="black" points="886.5,-250 886.5,-273 935.25,-273 935.25,-250 886.5,-250"/>
<text text-anchor="start" x="897.75" y="-255.7" font-family="arial" font-size="14.00">SH2</text>
<polygon fill="none" stroke="black" points="755.25,-227 755.25,-250 785,-250 785,-227 755.25,-227"/>
<text text-anchor="start" x="766.38" y="-232.7" font-family="arial" font-size="14.00">1</text>
<polygon fill="none" stroke="black" points="785,-227 785,-250 837.75,-250 837.75,-227 785,-227"/>
<text text-anchor="start" x="796" y="-232.7" font-family="arial" font-size="14.00">GND</text>
<polygon fill="none" stroke="black" points="837.75,-227 837.75,-250 886.5,-250 886.5,-227 837.75,-227"/>
<polygon fill="none" stroke="black" points="886.5,-227 886.5,-250 935.25,-250 935.25,-227 886.5,-227"/>
<polygon fill="none" stroke="black" points="755.25,-204 755.25,-227 785,-227 785,-204 755.25,-204"/>
<text text-anchor="start" x="766.38" y="-209.7" font-family="arial" font-size="14.00">2</text>
<polygon fill="none" stroke="black" points="785,-204 785,-227 837.75,-227 837.75,-204 785,-204"/>
<text text-anchor="start" x="797.13" y="-209.7" font-family="arial" font-size="14.00">VCC</text>
<polygon fill="none" stroke="black" points="837.75,-204 837.75,-227 886.5,-227 886.5,-204 837.75,-204"/>
<polygon fill="none" stroke="black" points="886.5,-204 886.5,-227 935.25,-227 935.25,-204 886.5,-204"/>
<polygon fill="none" stroke="black" points="755.25,-181 755.25,-204 785,-204 785,-181 755.25,-181"/>
<text text-anchor="start" x="766.38" y="-186.7" font-family="arial" font-size="14.00">3</text>
<polygon fill="none" stroke="black" points="785,-181 785,-204 837.75,-204 837.75,-181 785,-181"/>
<text text-anchor="start" x="802" y="-186.7" font-family="arial" font-size="14.00">RX</text>
<polygon fill="none" stroke="black" points="837.75,-181 837.75,-204 886.5,-204 886.5,-181 837.75,-181"/>
<polygon fill="none" stroke="black" points="886.5,-181 886.5,-204 935.25,-204 935.25,-181 886.5,-181"/>
<polygon fill="none" stroke="black" points="755.25,-158 755.25,-181 785,-181 785,-158 755.25,-158"/>
<text text-anchor="start" x="766.38" y="-163.7" font-family="arial" font-size="14.00">4</text>
<polygon fill="none" stroke="black" points="785,-158 785,-181 837.75,-181 837.75,-158 785,-158"/>
<text text-anchor="start" x="802.75" y="-163.7" font-family="arial" font-size="14.00">TX</text>
<polygon fill="none" stroke="black" points="837.75,-158 837.75,-181 886.5,-181 886.5,-158 837.75,-158"/>
<polygon fill="none" stroke="black" points="886.5,-158 886.5,-181 935.25,-181 935.25,-158 886.5,-158"/>
<polygon fill="none" stroke="black" points="755.25,-135 755.25,-158 785,-158 785,-135 755.25,-135"/>
<text text-anchor="start" x="766.38" y="-140.7" font-family="arial" font-size="14.00">5</text>
<polygon fill="none" stroke="black" points="785,-135 785,-158 837.75,-158 837.75,-135 785,-135"/>
<text text-anchor="start" x="796" y="-140.7" font-family="arial" font-size="14.00">GND</text>
<polygon fill="none" stroke="black" points="837.75,-135 837.75,-158 886.5,-158 886.5,-135 837.75,-135"/>
<polygon fill="none" stroke="black" points="886.5,-135 886.5,-158 935.25,-158 935.25,-135 886.5,-135"/>
<polygon fill="none" stroke="black" points="755.25,-112 755.25,-135 785,-135 785,-112 755.25,-112"/>
<text text-anchor="start" x="766.38" y="-117.7" font-family="arial" font-size="14.00">6</text>
<polygon fill="none" stroke="black" points="785,-112 785,-135 837.75,-135 837.75,-112 785,-112"/>
<text text-anchor="start" x="797.13" y="-117.7" font-family="arial" font-size="14.00">VCC</text>
<polygon fill="none" stroke="black" points="837.75,-112 837.75,-135 886.5,-135 886.5,-112 837.75,-112"/>
<polygon fill="none" stroke="black" points="886.5,-112 886.5,-135 935.25,-135 935.25,-112 886.5,-112"/>
<polygon fill="none" stroke="black" points="755.25,-89 755.25,-112 785,-112 785,-89 755.25,-89"/>
<text text-anchor="start" x="766.38" y="-94.7" font-family="arial" font-size="14.00">7</text>
<polygon fill="none" stroke="black" points="785,-89 785,-112 837.75,-112 837.75,-89 785,-89"/>
<text text-anchor="start" x="796" y="-94.7" font-family="arial" font-size="14.00">GND</text>
<polygon fill="none" stroke="black" points="837.75,-89 837.75,-112 886.5,-112 886.5,-89 837.75,-89"/>
<polygon fill="none" stroke="black" points="886.5,-89 886.5,-112 935.25,-112 935.25,-89 886.5,-89"/>
</g>
<!-- W1&#45;&#45;X2 -->
<g id="edge14" class="edge">
<title>W1:e&#45;&#45;X2:w</title>
<path fill="none" stroke="#000000" stroke-width="2" d="M611.25,-235C675.13,-235 691.13,-234.5 755.25,-234.5"/>
<path fill="none" stroke="#0066ff" stroke-width="2" d="M611.25,-237C675.19,-237 691.19,-236.5 755.25,-236.5"/>
<path fill="none" stroke="#ffffff" stroke-width="2" d="M611.25,-239C675.25,-239 691.25,-238.5 755.25,-238.5"/>
<path fill="none" stroke="#0066ff" stroke-width="2" d="M611.25,-241C675.31,-241 691.31,-240.5 755.25,-240.5"/>
<path fill="none" stroke="#000000" stroke-width="2" d="M611.25,-243C675.38,-243 691.38,-242.5 755.25,-242.5"/>
</g>
<!-- W1&#45;&#45;X2 -->
<g id="edge15" class="edge">
<title>W1:e&#45;&#45;X2:w</title>
<path fill="none" stroke="#000000" stroke-width="2" d="M611.25,-210C675.62,-210.02 691.62,-211.52 755.25,-211.5"/>
<path fill="none" stroke="#ffffff" stroke-width="2" d="M611.25,-212C675.44,-212.01 691.44,-213.51 755.25,-213.5"/>
<path fill="none" stroke="#0066ff" stroke-width="2" d="M611.25,-214C675.25,-214 691.25,-215.5 755.25,-215.5"/>
<path fill="none" stroke="#ffffff" stroke-width="2" d="M611.25,-216C675.06,-215.99 691.06,-217.49 755.25,-217.5"/>
<path fill="none" stroke="#000000" stroke-width="2" d="M611.25,-218C674.88,-217.98 690.88,-219.48 755.25,-219.5"/>
</g>
<!-- W1&#45;&#45;X2 -->
<g id="edge16" class="edge">
<title>W1:e&#45;&#45;X2:w</title>
<path fill="none" stroke="#000000" stroke-width="2" d="M611.25,-185C672.65,-186.58 687.49,-167.08 755.25,-165.5"/>
<path fill="none" stroke="#ff8000" stroke-width="2" d="M611.25,-187C674.24,-187.79 689.08,-168.29 755.25,-167.5"/>
<path fill="none" stroke="#ffffff" stroke-width="2" d="M611.25,-189C675.83,-189 690.67,-169.5 755.25,-169.5"/>
<path fill="none" stroke="#ff8000" stroke-width="2" d="M611.25,-191C677.42,-190.21 692.26,-170.71 755.25,-171.5"/>
<path fill="none" stroke="#000000" stroke-width="2" d="M611.25,-193C679.01,-191.42 693.85,-171.92 755.25,-173.5"/>
</g>
<!-- W1&#45;&#45;X2 -->
<g id="edge17" class="edge">
<title>W1:e&#45;&#45;X2:w</title>
<path fill="none" stroke="#000000" stroke-width="2" d="M611.25,-160C680.1,-162.29 693.62,-190.79 755.25,-188.5"/>
<path fill="none" stroke="#ffffff" stroke-width="2" d="M611.25,-162C678.3,-163.14 691.82,-191.64 755.25,-190.5"/>
<path fill="none" stroke="#ff8000" stroke-width="2" d="M611.25,-164C676.49,-164 690.01,-192.5 755.25,-192.5"/>
<path fill="none" stroke="#ffffff" stroke-width="2" d="M611.25,-166C674.68,-164.86 688.2,-193.36 755.25,-194.5"/>
<path fill="none" stroke="#000000" stroke-width="2" d="M611.25,-168C672.88,-165.71 686.4,-194.21 755.25,-196.5"/>
</g>
<!-- X2&#45;&#45;X2 -->
<g id="edge18" class="edge">
<title>X2:c&#45;&#45;X2:c</title>
<path fill="none" stroke="#ffffff" stroke-width="2" d="M860.12,-238.5C860.12,-207.83 860.12,-177.17 860.12,-146.5"/>
<path fill="none" stroke="#000000" stroke-width="2" d="M862.12,-238.5C862.12,-207.83 862.12,-177.17 862.12,-146.5"/>
<path fill="none" stroke="#ffffff" stroke-width="2" d="M864.12,-238.5C864.12,-207.83 864.12,-177.17 864.12,-146.5"/>
</g>
<!-- X2&#45;&#45;X2 -->
<g id="edge19" class="edge">
<title>X2:c&#45;&#45;X2:c</title>
<path fill="none" stroke="#ffffff" stroke-width="2" d="M860.12,-146.5C860.12,-131.17 860.12,-115.83 860.12,-100.5"/>
<path fill="none" stroke="#000000" stroke-width="2" d="M862.12,-146.5C862.12,-131.17 862.12,-115.83 862.12,-100.5"/>
<path fill="none" stroke="#ffffff" stroke-width="2" d="M864.12,-146.5C864.12,-131.17 864.12,-115.83 864.12,-100.5"/>
</g>
<!-- X2&#45;&#45;X2 -->
<g id="edge20" class="edge">
<title>X2:c&#45;&#45;X2:c</title>
<path fill="none" stroke="#ffffff" stroke-width="2" d="M908.88,-215.5C908.88,-184.83 908.88,-154.17 908.88,-123.5"/>
<path fill="none" stroke="#000000" stroke-width="2" d="M910.88,-215.5C910.88,-184.83 910.88,-154.17 910.88,-123.5"/>
<path fill="none" stroke="#ffffff" stroke-width="2" d="M912.88,-215.5C912.88,-184.83 912.88,-154.17 912.88,-123.5"/>
</g>
<!-- __CIRCLE__1 -->
<g id="node4" class="node">
<title>__CIRCLE__1</title>
<ellipse fill="#ff66cc" stroke="#ff66cc" cx="84.63" cy="-235.5" rx="6.48" ry="6.48"/>
</g>
<!-- __CIRCLE__2 -->
<g id="node5" class="node">
<title>__CIRCLE__2</title>
<ellipse fill="#ff66cc" stroke="#ff66cc" cx="84.63" cy="-143.5" rx="6.48" ry="6.48"/>
</g>
<!-- __CIRCLE__3 -->
<g id="node6" class="node">
<title>__CIRCLE__3</title>
<ellipse fill="#ff66cc" stroke="#ff66cc" cx="84.63" cy="-143.5" rx="6.48" ry="6.48"/>
</g>
<!-- __CIRCLE__4 -->
<g id="node7" class="node">
<title>__CIRCLE__4</title>
<ellipse fill="#ff66cc" stroke="#ff66cc" cx="84.63" cy="-97.5" rx="6.48" ry="6.48"/>
</g>
<!-- __CIRCLE__5 -->
<g id="node8" class="node">
<title>__CIRCLE__5</title>
<ellipse fill="#ff0000" stroke="#ff0000" cx="138.38" cy="-212.5" rx="6.48" ry="6.48"/>
</g>
<!-- __CIRCLE__6 -->
<g id="node9" class="node">
<title>__CIRCLE__6</title>
<ellipse fill="#ff0000" stroke="#ff0000" cx="138.38" cy="-120.5" rx="6.48" ry="6.48"/>
</g>
<!-- __CIRCLE__7 -->
<g id="node10" class="node">
<title>__CIRCLE__7</title>
<ellipse fill="#000000" stroke="#000000" cx="862.12" cy="-238.5" rx="6.48" ry="6.48"/>
</g>
<!-- __CIRCLE__8 -->
<g id="node11" class="node">
<title>__CIRCLE__8</title>
<ellipse fill="#000000" stroke="#000000" cx="862.12" cy="-146.5" rx="6.48" ry="6.48"/>
</g>
<!-- __CIRCLE__9 -->
<g id="node12" class="node">
<title>__CIRCLE__9</title>
<ellipse fill="#000000" stroke="#000000" cx="862.12" cy="-146.5" rx="6.48" ry="6.48"/>
</g>
<!-- __CIRCLE__10 -->
<g id="node13" class="node">
<title>__CIRCLE__10</title>
<ellipse fill="#000000" stroke="#000000" cx="862.12" cy="-100.5" rx="6.48" ry="6.48"/>
</g>
<!-- __CIRCLE__11 -->
<g id="node14" class="node">
<title>__CIRCLE__11</title>
<ellipse fill="#000000" stroke="#000000" cx="910.88" cy="-215.5" rx="6.48" ry="6.48"/>
</g>
<!-- __CIRCLE__12 -->
<g id="node15" class="node">
<title>__CIRCLE__12</title>
<ellipse fill="#000000" stroke="#000000" cx="910.88" cy="-123.5" rx="6.48" ry="6.48"/>
</g>
</g>
</svg>
