<?xml version="1.0" encoding="UTF-8" standalone="no"?>
<!DOCTYPE svg PUBLIC "-//W3C//DTD SVG 1.1//EN"
 "http://www.w3.org/Graphics/SVG/1.1/DTD/svg11.dtd">
<!-- Generated by graphviz version 11.0.0 (20240428.1522)
 -->
<!-- Pages: 1 -->
<svg width="973pt" height="366pt"
 viewBox="0.00 0.00 973.25 366.25" xmlns="http://www.w3.org/2000/svg" xmlns:xlink="http://www.w3.org/1999/xlink">
<g id="graph0" class="graph" transform="scale(1 1) rotate(0) translate(4 362.25)">
<polygon fill="#ffffff" stroke="none" points="-4,4 -4,-362.25 969.25,-362.25 969.25,4 -4,4"/>
<!-- X1 -->
<g id="node1" class="node">
<title>X1</title>
<polygon fill="#ffffff" stroke="black" points="188.25,-323.5 0,-323.5 0,0 188.25,0 188.25,-323.5"/>
<polygon fill="none" stroke="black" points="0,-299 0,-323.5 188.25,-323.5 188.25,-299 0,-299"/>
<text text-anchor="start" x="85.13" y="-306.2" font-family="arial" font-size="14.00">X1</text>
<polygon fill="none" stroke="black" points="0,-274.5 0,-299 97.25,-299 97.25,-274.5 0,-274.5"/>
<text text-anchor="start" x="4" y="-281.7" font-family="arial" font-size="14.00">Molex KK 254</text>
<polygon fill="none" stroke="black" points="97.25,-274.5 97.25,-299 148.75,-299 148.75,-274.5 97.25,-274.5"/>
<text text-anchor="start" x="101.25" y="-281.7" font-family="arial" font-size="14.00">female</text>
<polygon fill="none" stroke="black" points="148.75,-274.5 148.75,-299 188.25,-299 188.25,-274.5 148.75,-274.5"/>
<text text-anchor="start" x="152.75" y="-281.7" font-family="arial" font-size="14.00">7&#45;pin</text>
<polygon fill="none" stroke="black" points="0,-250.5 0,-274.5 105.63,-274.5 105.63,-250.5 0,-250.5"/>
<text text-anchor="start" x="37.06" y="-257.2" font-family="arial" font-size="14.00">GND</text>
<polygon fill="none" stroke="black" points="105.63,-250.5 105.63,-274.5 188.25,-274.5 188.25,-250.5 105.63,-250.5"/>
<text text-anchor="start" x="142.81" y="-257.2" font-family="arial" font-size="14.00">1</text>
<polygon fill="none" stroke="black" points="0,-226.5 0,-250.5 105.63,-250.5 105.63,-226.5 0,-226.5"/>
<text text-anchor="start" x="37.44" y="-233.2" font-family="arial" font-size="14.00">VCC</text>
<polygon fill="none" stroke="black" points="105.63,-226.5 105.63,-250.5 188.25,-250.5 188.25,-226.5 105.63,-226.5"/>
<text text-anchor="start" x="142.81" y="-233.2" font-family="arial" font-size="14.00">2</text>
<polygon fill="none" stroke="black" points="0,-202.5 0,-226.5 105.63,-226.5 105.63,-202.5 0,-202.5"/>
<text text-anchor="start" x="42.69" y="-209.2" font-family="arial" font-size="14.00">RX</text>
<polygon fill="none" stroke="black" points="105.63,-202.5 105.63,-226.5 188.25,-226.5 188.25,-202.5 105.63,-202.5"/>
<text text-anchor="start" x="142.81" y="-209.2" font-family="arial" font-size="14.00">3</text>
<polygon fill="none" stroke="black" points="0,-178.5 0,-202.5 105.63,-202.5 105.63,-178.5 0,-178.5"/>
<text text-anchor="start" x="43.44" y="-185.2" font-family="arial" font-size="14.00">TX</text>
<polygon fill="none" stroke="black" points="105.63,-178.5 105.63,-202.5 188.25,-202.5 188.25,-178.5 105.63,-178.5"/>
<text text-anchor="start" x="142.81" y="-185.2" font-family="arial" font-size="14.00">4</text>
<polygon fill="none" stroke="black" points="0,-154.5 0,-178.5 105.63,-178.5 105.63,-154.5 0,-154.5"/>
<text text-anchor="start" x="37.06" y="-161.2" font-family="arial" font-size="14.00">GND</text>
<polygon fill="none" stroke="black" points="105.63,-154.5 105.63,-178.5 188.25,-178.5 188.25,-154.5 105.63,-154.5"/>
<text text-anchor="start" x="142.81" y="-161.2" font-family="arial" font-size="14.00">5</text>
<polygon fill="none" stroke="black" points="0,-130.5 0,-154.5 105.63,-154.5 105.63,-130.5 0,-130.5"/>
<text text-anchor="start" x="37.44" y="-137.2" font-family="arial" font-size="14.00">VCC</text>
<polygon fill="none" stroke="black" points="105.63,-130.5 105.63,-154.5 188.25,-154.5 188.25,-130.5 105.63,-130.5"/>
<text text-anchor="start" x="142.81" y="-137.2" font-family="arial" font-size="14.00">6</text>
<polygon fill="none" stroke="black" points="0,-106.5 0,-130.5 105.63,-130.5 105.63,-106.5 0,-106.5"/>
<text text-anchor="start" x="37.06" y="-113.2" font-family="arial" font-size="14.00">GND</text>
<polygon fill="none" stroke="black" points="105.63,-106.5 105.63,-130.5 188.25,-130.5 188.25,-106.5 105.63,-106.5"/>
<text text-anchor="start" x="142.81" y="-113.2" font-family="arial" font-size="14.00">7</text>
<polygon fill="none" stroke="black" points="0,-82 0,-106.5 188.25,-106.5 188.25,-82 0,-82"/>
<text text-anchor="start" x="21.75" y="-89.2" font-family="arial" font-size="14.00">Additional components</text>
<polygon fill="none" stroke="black" points="0,-41 0,-82 188.25,-82 188.25,-41 0,-41"/>
<text text-anchor="start" x="4" y="-64.7" font-family="arial" font-size="14.00">42 mm x LO1 x shortPartA</text>
<text text-anchor="start" x="4" y="-48.2" font-family="arial" font-size="14.00">WireViz: 42XCD42A5</text>
<polygon fill="none" stroke="black" points="0,0 0,-41 188.25,-41 188.25,0 0,0"/>
<text text-anchor="start" x="4" y="-23.7" font-family="arial" font-size="14.00">74 mm x LO2 x shortPartB</text>
<text text-anchor="start" x="4" y="-7.2" font-family="arial" font-size="14.00">WireViz: 42XCD42A5</text>
</g>
<!-- X1&#45;&#45;X1 -->
<g id="edge1" class="edge">
<title>X1:e&#45;&#45;X1:e</title>
<path fill="none" stroke="#000000" stroke-width="2" d="M188.63,-260.54C251.08,-272.5 376.75,-272.5 374.75,-214.5 376.75,-156.5 251.08,-156.5 188.63,-168.47"/>
<path fill="none" stroke="#ff66cc" stroke-width="2" d="M188.25,-262.5C251.08,-274.5 376.75,-274.5 376.75,-214.5 376.75,-154.5 251.08,-154.5 188.25,-166.5"/>
<path fill="none" stroke="#000000" stroke-width="2" d="M187.88,-264.47C251.08,-276.5 376.75,-276.5 378.75,-214.5 376.75,-152.5 251.08,-152.5 187.88,-164.54"/>
</g>
<!-- X1&#45;&#45;X1 -->
<g id="edge2" class="edge">
<title>X1:e&#45;&#45;X1:e</title>
<path fill="none" stroke="#000000" stroke-width="2" d="M188.63,-164.54C251.08,-176.5 376.75,-176.5 374.75,-142.5 376.75,-108.5 251.08,-108.5 188.63,-120.47"/>
<path fill="none" stroke="#ff66cc" stroke-width="2" d="M188.25,-166.5C251.08,-178.5 376.75,-178.5 376.75,-142.5 376.75,-106.5 251.08,-106.5 188.25,-118.5"/>
<path fill="none" stroke="#000000" stroke-width="2" d="M187.88,-168.47C251.08,-180.5 376.75,-180.5 378.75,-142.5 376.75,-104.5 251.08,-104.5 187.88,-116.54"/>
</g>
<!-- X1&#45;&#45;X1 -->
<g id="edge3" class="edge">
<title>X1:e&#45;&#45;X1:e</title>
<path fill="none" stroke="#000000" stroke-width="2" d="M188.63,-236.54C251.08,-248.5 376.75,-248.5 374.75,-190.5 376.75,-132.5 251.08,-132.5 188.63,-144.47"/>
<path fill="none" stroke="#ff0000" stroke-width="2" d="M188.25,-238.5C251.08,-250.5 376.75,-250.5 376.75,-190.5 376.75,-130.5 251.08,-130.5 188.25,-142.5"/>
<path fill="none" stroke="#000000" stroke-width="2" d="M187.88,-240.47C251.08,-252.5 376.75,-252.5 378.75,-190.5 376.75,-128.5 251.08,-128.5 187.88,-140.54"/>
</g>
<!-- W1 -->
<g id="node2" class="node">
<title>W1</title>
<polygon fill="#ffffff" stroke="black" points="610,-358.25 332.25,-358.25 332.25,-123.25 610,-123.25 610,-358.25"/>
<polygon fill="none" stroke="black" points="332.25,-333.75 332.25,-358.25 610,-358.25 610,-333.75 332.25,-333.75"/>
<text text-anchor="start" x="459.87" y="-340.95" font-family="arial" font-size="14.00">W1</text>
<polygon fill="none" stroke="black" points="332.25,-309.25 332.25,-333.75 376.25,-333.75 376.25,-309.25 332.25,-309.25"/>
<text text-anchor="start" x="336.25" y="-316.45" font-family="arial" font-size="14.00">Serial</text>
<polygon fill="none" stroke="black" points="376.25,-309.25 376.25,-333.75 399.25,-333.75 399.25,-309.25 376.25,-309.25"/>
<text text-anchor="start" x="380.25" y="-316.45" font-family="arial" font-size="14.00">4x</text>
<polygon fill="none" stroke="black" points="399.25,-309.25 399.25,-333.75 536.25,-333.75 536.25,-309.25 399.25,-309.25"/>
<text text-anchor="start" x="403.25" y="-316.45" font-family="arial" font-size="14.00">0.25 mm² (24 AWG)</text>
<polygon fill="none" stroke="black" points="536.25,-309.25 536.25,-333.75 566,-333.75 566,-309.25 536.25,-309.25"/>
<text text-anchor="start" x="540.25" y="-316.45" font-family="arial" font-size="14.00">+ S</text>
<polygon fill="none" stroke="black" points="566,-309.25 566,-333.75 610,-333.75 610,-309.25 566,-309.25"/>
<text text-anchor="start" x="570" y="-316.45" font-family="arial" font-size="14.00">0.2 m</text>
<text text-anchor="start" x="376.16" y="-293.95" font-family="arial" font-size="14.00"> </text>
<text text-anchor="start" x="345.41" y="-273.95" font-family="arial" font-size="14.00">X1:1:GND</text>
<text text-anchor="start" x="438.5" y="-273.95" font-family="arial" font-size="14.00"> &#160;&#160;&#160;&#160;1:BN &#160;&#160;&#160;</text>
<text text-anchor="start" x="531.58" y="-273.95" font-family="arial" font-size="14.00">X2:1:GND</text>
<text text-anchor="start" x="345.79" y="-247.95" font-family="arial" font-size="14.00">X1:2:VCC</text>
<text text-anchor="start" x="437.75" y="-247.95" font-family="arial" font-size="14.00"> &#160;&#160;&#160;&#160;2:RD &#160;&#160;&#160;</text>
<text text-anchor="start" x="531.95" y="-247.95" font-family="arial" font-size="14.00">X2:2:VCC</text>
<text text-anchor="start" x="351.04" y="-221.95" font-family="arial" font-size="14.00">X1:3:RX</text>
<text text-anchor="start" x="437" y="-221.95" font-family="arial" font-size="14.00"> &#160;&#160;&#160;&#160;3:OG &#160;&#160;&#160;</text>
<text text-anchor="start" x="537.95" y="-221.95" font-family="arial" font-size="14.00">X2:4:TX</text>
<text text-anchor="start" x="351.79" y="-195.95" font-family="arial" font-size="14.00">X1:4:TX</text>
<text text-anchor="start" x="438.87" y="-195.95" font-family="arial" font-size="14.00"> &#160;&#160;&#160;&#160;4:YE &#160;&#160;&#160;</text>
<text text-anchor="start" x="537.2" y="-195.95" font-family="arial" font-size="14.00">X2:3:RX</text>
<text text-anchor="start" x="376.16" y="-169.95" font-family="arial" font-size="14.00"> </text>
<text text-anchor="start" x="345.41" y="-149.95" font-family="arial" font-size="14.00">X1:1:GND</text>
<text text-anchor="start" x="451.25" y="-149.95" font-family="arial" font-size="14.00">Shield</text>
<text text-anchor="start" x="376.16" y="-127.95" font-family="arial" font-size="14.00"> </text>
</g>
<!-- X1&#45;&#45;W1 -->
<g id="edge4" class="edge">
<title>X1:e&#45;&#45;W1:w</title>
<path fill="none" stroke="#000000" stroke-width="2" d="M188.25,-260.5C252.73,-260.55 268.69,-264.3 332.25,-264.25"/>
<path fill="none" stroke="#895956" stroke-width="2" d="M188.25,-262.5C252.27,-262.5 268.23,-266.25 332.25,-266.25"/>
<path fill="none" stroke="#000000" stroke-width="2" d="M188.25,-264.5C251.81,-264.45 267.77,-268.2 332.25,-268.25"/>
</g>
<!-- X1&#45;&#45;W1 -->
<g id="edge5" class="edge">
<title>X1:e&#45;&#45;W1:w</title>
<path fill="none" stroke="#000000" stroke-width="2" d="M188.25,-236.5C252.47,-236.51 268.47,-238.26 332.25,-238.25"/>
<path fill="none" stroke="#ff0000" stroke-width="2" d="M188.25,-238.5C252.25,-238.5 268.25,-240.25 332.25,-240.25"/>
<path fill="none" stroke="#000000" stroke-width="2" d="M188.25,-240.5C252.03,-240.49 268.03,-242.24 332.25,-242.25"/>
</g>
<!-- X1&#45;&#45;W1 -->
<g id="edge6" class="edge">
<title>X1:e&#45;&#45;W1:w</title>
<path fill="none" stroke="#000000" stroke-width="2" d="M188.25,-212.5C252.22,-212.5 268.22,-212.25 332.25,-212.25"/>
<path fill="none" stroke="#ff8000" stroke-width="2" d="M188.25,-214.5C252.25,-214.5 268.25,-214.25 332.25,-214.25"/>
<path fill="none" stroke="#000000" stroke-width="2" d="M188.25,-216.5C252.28,-216.5 268.28,-216.25 332.25,-216.25"/>
</g>
<!-- X1&#45;&#45;W1 -->
<g id="edge7" class="edge">
<title>X1:e&#45;&#45;W1:w</title>
<path fill="none" stroke="#000000" stroke-width="2" d="M188.25,-188.5C251.98,-188.52 267.96,-186.27 332.25,-186.25"/>
<path fill="none" stroke="#ffff00" stroke-width="2" d="M188.25,-190.5C252.26,-190.5 268.24,-188.25 332.25,-188.25"/>
<path fill="none" stroke="#000000" stroke-width="2" d="M188.25,-192.5C252.54,-192.48 268.52,-190.23 332.25,-190.25"/>
</g>
<!-- X1&#45;&#45;W1 -->
<g id="edge8" class="edge">
<title>X1:e&#45;&#45;W1:w</title>
<path fill="none" stroke="#000000" stroke-width="2" d="M188.25,-262.5C271.06,-262.5 249.44,-144.25 332.25,-144.25"/>
</g>
<!-- W1&#45;&#45;W1 -->
<g id="edge9" class="edge">
<title>W1:w&#45;&#45;W1:e</title>
<path fill="none" stroke="#000000" stroke-width="2" d="M332.25,-264.25C424.83,-264.25 517.42,-264.25 610,-264.25"/>
<path fill="none" stroke="#895956" stroke-width="2" d="M332.25,-266.25C424.83,-266.25 517.42,-266.25 610,-266.25"/>
<path fill="none" stroke="#000000" stroke-width="2" d="M332.25,-268.25C424.83,-268.25 517.42,-268.25 610,-268.25"/>
</g>
<!-- W1&#45;&#45;W1 -->
<g id="edge10" class="edge">
<title>W1:w&#45;&#45;W1:e</title>
<path fill="none" stroke="#000000" stroke-width="2" d="M332.25,-238.25C424.83,-238.25 517.42,-238.25 610,-238.25"/>
<path fill="none" stroke="#ff0000" stroke-width="2" d="M332.25,-240.25C424.83,-240.25 517.42,-240.25 610,-240.25"/>
<path fill="none" stroke="#000000" stroke-width="2" d="M332.25,-242.25C424.83,-242.25 517.42,-242.25 610,-242.25"/>
</g>
<!-- W1&#45;&#45;W1 -->
<g id="edge11" class="edge">
<title>W1:w&#45;&#45;W1:e</title>
<path fill="none" stroke="#000000" stroke-width="2" d="M332.25,-212.25C424.83,-212.25 517.42,-212.25 610,-212.25"/>
<path fill="none" stroke="#ff8000" stroke-width="2" d="M332.25,-214.25C424.83,-214.25 517.42,-214.25 610,-214.25"/>
<path fill="none" stroke="#000000" stroke-width="2" d="M332.25,-216.25C424.83,-216.25 517.42,-216.25 610,-216.25"/>
</g>
<!-- W1&#45;&#45;W1 -->
<g id="edge12" class="edge">
<title>W1:w&#45;&#45;W1:e</title>
<path fill="none" stroke="#000000" stroke-width="2" d="M332.25,-186.25C424.83,-186.25 517.42,-186.25 610,-186.25"/>
<path fill="none" stroke="#ffff00" stroke-width="2" d="M332.25,-188.25C424.83,-188.25 517.42,-188.25 610,-188.25"/>
<path fill="none" stroke="#000000" stroke-width="2" d="M332.25,-190.25C424.83,-190.25 517.42,-190.25 610,-190.25"/>
</g>
<!-- W1&#45;&#45;W1 -->
<g id="edge13" class="edge">
<title>W1:w&#45;&#45;W1:e</title>
<path fill="none" stroke="#000000" stroke-width="2" d="M332.25,-144.25C424.83,-144.25 517.42,-144.25 610,-144.25"/>
</g>
<!-- X2 -->
<g id="node3" class="node">
<title>X2</title>
<polygon fill="#ffffff" stroke="black" points="965.25,-327 754,-327 754,-44.5 965.25,-44.5 965.25,-327"/>
<polygon fill="none" stroke="black" points="754,-302.5 754,-327 965.25,-327 965.25,-302.5 754,-302.5"/>
<text text-anchor="start" x="850.62" y="-309.7" font-family="arial" font-size="14.00">X2</text>
<polygon fill="none" stroke="black" points="754,-278 754,-302.5 858.91,-302.5 858.91,-278 754,-278"/>
<text text-anchor="start" x="761.83" y="-285.2" font-family="arial" font-size="14.00">Molex KK 254</text>
<polygon fill="none" stroke="black" points="858.91,-278 858.91,-302.5 918.08,-302.5 918.08,-278 858.91,-278"/>
<text text-anchor="start" x="866.75" y="-285.2" font-family="arial" font-size="14.00">female</text>
<polygon fill="none" stroke="black" points="918.08,-278 918.08,-302.5 965.25,-302.5 965.25,-278 918.08,-278"/>
<text text-anchor="start" x="925.91" y="-285.2" font-family="arial" font-size="14.00">7&#45;pin</text>
<polygon fill="none" stroke="black" points="754,-254 754,-278 848.12,-278 848.12,-254 754,-254"/>
<text text-anchor="start" x="796.93" y="-260.7" font-family="arial" font-size="14.00">1</text>
<polygon fill="none" stroke="black" points="848.12,-254 848.12,-278 965.25,-278 965.25,-254 848.12,-254"/>
<text text-anchor="start" x="890.93" y="-260.7" font-family="arial" font-size="14.00">GND</text>
<polygon fill="none" stroke="black" points="754,-230 754,-254 848.12,-254 848.12,-230 754,-230"/>
<text text-anchor="start" x="796.93" y="-236.7" font-family="arial" font-size="14.00">2</text>
<polygon fill="none" stroke="black" points="848.12,-230 848.12,-254 965.25,-254 965.25,-230 848.12,-230"/>
<text text-anchor="start" x="891.31" y="-236.7" font-family="arial" font-size="14.00">VCC</text>
<polygon fill="none" stroke="black" points="754,-206 754,-230 848.12,-230 848.12,-206 754,-206"/>
<text text-anchor="start" x="796.93" y="-212.7" font-family="arial" font-size="14.00">3</text>
<polygon fill="none" stroke="black" points="848.12,-206 848.12,-230 965.25,-230 965.25,-206 848.12,-206"/>
<text text-anchor="start" x="896.56" y="-212.7" font-family="arial" font-size="14.00">RX</text>
<polygon fill="none" stroke="black" points="754,-182 754,-206 848.12,-206 848.12,-182 754,-182"/>
<text text-anchor="start" x="796.93" y="-188.7" font-family="arial" font-size="14.00">4</text>
<polygon fill="none" stroke="black" points="848.12,-182 848.12,-206 965.25,-206 965.25,-182 848.12,-182"/>
<text text-anchor="start" x="897.31" y="-188.7" font-family="arial" font-size="14.00">TX</text>
<polygon fill="none" stroke="black" points="754,-158 754,-182 848.12,-182 848.12,-158 754,-158"/>
<text text-anchor="start" x="796.93" y="-164.7" font-family="arial" font-size="14.00">5</text>
<polygon fill="none" stroke="black" points="848.12,-158 848.12,-182 965.25,-182 965.25,-158 848.12,-158"/>
<text text-anchor="start" x="890.93" y="-164.7" font-family="arial" font-size="14.00">GND</text>
<polygon fill="none" stroke="black" points="754,-134 754,-158 848.12,-158 848.12,-134 754,-134"/>
<text text-anchor="start" x="796.93" y="-140.7" font-family="arial" font-size="14.00">6</text>
<polygon fill="none" stroke="black" points="848.12,-134 848.12,-158 965.25,-158 965.25,-134 848.12,-134"/>
<text text-anchor="start" x="891.31" y="-140.7" font-family="arial" font-size="14.00">VCC</text>
<polygon fill="none" stroke="black" points="754,-110 754,-134 848.12,-134 848.12,-110 754,-110"/>
<text text-anchor="start" x="796.93" y="-116.7" font-family="arial" font-size="14.00">7</text>
<polygon fill="none" stroke="black" points="848.12,-110 848.12,-134 965.25,-134 965.25,-110 848.12,-110"/>
<text text-anchor="start" x="890.93" y="-116.7" font-family="arial" font-size="14.00">GND</text>
<polygon fill="none" stroke="black" points="754,-85.5 754,-110 965.25,-110 965.25,-85.5 754,-85.5"/>
<text text-anchor="start" x="787.25" y="-92.7" font-family="arial" font-size="14.00">Additional components</text>
<polygon fill="none" stroke="black" points="754,-44.5 754,-85.5 965.25,-85.5 965.25,-44.5 754,-44.5"/>
<text text-anchor="start" x="758" y="-68.2" font-family="arial" font-size="14.00">42 mm x LO1; LO2 x shortPartC</text>
<text text-anchor="start" x="758" y="-51.7" font-family="arial" font-size="14.00">WireViz: 42XCD42A5</text>
</g>
<!-- W1&#45;&#45;X2 -->
<g id="edge14" class="edge">
<title>W1:e&#45;&#45;X2:w</title>
<path fill="none" stroke="#000000" stroke-width="2" d="M610,-264.25C673.97,-264.25 689.97,-264 754,-264"/>
<path fill="none" stroke="#895956" stroke-width="2" d="M610,-266.25C674,-266.25 690,-266 754,-266"/>
<path fill="none" stroke="#000000" stroke-width="2" d="M610,-268.25C674.03,-268.25 690.03,-268 754,-268"/>
</g>
<!-- W1&#45;&#45;X2 -->
<g id="edge15" class="edge">
<title>W1:e&#45;&#45;X2:w</title>
<path fill="none" stroke="#000000" stroke-width="2" d="M610,-238.25C674.22,-238.26 690.22,-240.01 754,-240"/>
<path fill="none" stroke="#ff0000" stroke-width="2" d="M610,-240.25C674,-240.25 690,-242 754,-242"/>
<path fill="none" stroke="#000000" stroke-width="2" d="M610,-242.25C673.78,-242.24 689.78,-243.99 754,-244"/>
</g>
<!-- W1&#45;&#45;X2 -->
<g id="edge16" class="edge">
<title>W1:e&#45;&#45;X2:w</title>
<path fill="none" stroke="#000000" stroke-width="2" d="M610,-212.25C673.01,-213.07 687.75,-192.82 754,-192"/>
<path fill="none" stroke="#ff8000" stroke-width="2" d="M610,-214.25C674.63,-214.25 689.37,-194 754,-194"/>
<path fill="none" stroke="#000000" stroke-width="2" d="M610,-216.25C676.25,-215.43 690.99,-195.18 754,-196"/>
</g>
<!-- W1&#45;&#45;X2 -->
<g id="edge17" class="edge">
<title>W1:e&#45;&#45;X2:w</title>
<path fill="none" stroke="#000000" stroke-width="2" d="M610,-186.25C677.18,-187.44 690.48,-217.19 754,-216"/>
<path fill="none" stroke="#ffff00" stroke-width="2" d="M610,-188.25C675.35,-188.25 688.65,-218 754,-218"/>
<path fill="none" stroke="#000000" stroke-width="2" d="M610,-190.25C673.52,-189.07 686.82,-218.82 754,-220"/>
</g>
<!-- X2&#45;&#45;X2 -->
<g id="edge18" class="edge">
<title>X2:w&#45;&#45;X2:w</title>
<path fill="none" stroke="#000000" stroke-width="2" d="M754.37,-267.97C689.25,-280 559.75,-280 557.75,-218 559.75,-156 689.25,-156 754.37,-168.04"/>
<path fill="none" stroke="#ff66cc" stroke-width="2" d="M754,-266C689.25,-278 559.75,-278 559.75,-218 559.75,-158 689.25,-158 754,-170"/>
<path fill="none" stroke="#000000" stroke-width="2" d="M753.64,-264.04C689.25,-276 559.75,-276 561.75,-218 559.75,-160 689.25,-160 753.64,-171.97"/>
</g>
<!-- X2&#45;&#45;X2 -->
<g id="edge19" class="edge">
<title>X2:w&#45;&#45;X2:w</title>
<path fill="none" stroke="#000000" stroke-width="2" d="M754.37,-171.97C689.25,-184 559.75,-184 557.75,-146 559.75,-108 689.25,-108 754.37,-120.04"/>
<path fill="none" stroke="#ff66cc" stroke-width="2" d="M754,-170C689.25,-182 559.75,-182 559.75,-146 559.75,-110 689.25,-110 754,-122"/>
<path fill="none" stroke="#000000" stroke-width="2" d="M753.64,-168.04C689.25,-180 559.75,-180 561.75,-146 559.75,-112 689.25,-112 753.64,-123.97"/>
</g>
<!-- X2&#45;&#45;X2 -->
<g id="edge20" class="edge">
<title>X2:w&#45;&#45;X2:w</title>
<path fill="none" stroke="#000000" stroke-width="2" d="M754.37,-243.97C689.25,-256 559.75,-256 557.75,-194 559.75,-132 689.25,-132 754.37,-144.04"/>
<path fill="none" stroke="#ff66cc" stroke-width="2" d="M754,-242C689.25,-254 559.75,-254 559.75,-194 559.75,-134 689.25,-134 754,-146"/>
<path fill="none" stroke="#000000" stroke-width="2" d="M753.64,-240.04C689.25,-252 559.75,-252 561.75,-194 559.75,-136 689.25,-136 753.64,-147.97"/>
</g>
</g>
</svg>
