<?xml version="1.0" encoding="UTF-8" standalone="no"?>
<!DOCTYPE svg PUBLIC "-//W3C//DTD SVG 1.1//EN"
 "http://www.w3.org/Graphics/SVG/1.1/DTD/svg11.dtd">
<!-- Generated by graphviz version 11.0.0 (20240428.1522)
 -->
<!-- Pages: 1 -->
<svg width="994pt" height="352pt"
 viewBox="0.00 0.00 993.75 352.00" xmlns="http://www.w3.org/2000/svg" xmlns:xlink="http://www.w3.org/1999/xlink">
<g id="graph0" class="graph" transform="scale(1 1) rotate(0) translate(4 348)">
<polygon fill="#ffffff" stroke="none" points="-4,4 -4,-348 989.75,-348 989.75,4 -4,4"/>
<!-- X1 -->
<g id="node1" class="node">
<title>X1</title>
<polygon fill="#ffffff" stroke="black" points="210,-307 0,-307 0,0 210,0 210,-307"/>
<polygon fill="#ffffff" stroke="none" points="0,0 0,-307 210,-307 210,0 0,0"/>
<polygon fill="none" stroke="black" points="0,-282.5 0,-307 210,-307 210,-282.5 0,-282.5"/>
<text text-anchor="start" x="96" y="-289.7" font-family="arial" font-size="14.00">X1</text>
<polygon fill="none" stroke="black" points="0,-258 0,-282.5 104.5,-282.5 104.5,-258 0,-258"/>
<text text-anchor="start" x="7.63" y="-265.2" font-family="arial" font-size="14.00">Molex KK 254</text>
<polygon fill="none" stroke="black" points="104.5,-258 104.5,-282.5 163.25,-282.5 163.25,-258 104.5,-258"/>
<text text-anchor="start" x="112.13" y="-265.2" font-family="arial" font-size="14.00">female</text>
<polygon fill="none" stroke="black" points="163.25,-258 163.25,-282.5 210,-282.5 210,-258 163.25,-258"/>
<text text-anchor="start" x="170.88" y="-265.2" font-family="arial" font-size="14.00">7&#45;pin</text>
<polygon fill="none" stroke="black" points="0,-234 0,-258 116.5,-258 116.5,-234 0,-234"/>
<text text-anchor="start" x="42.5" y="-240.7" font-family="arial" font-size="14.00">GND</text>
<polygon fill="none" stroke="black" points="116.5,-234 116.5,-258 210,-258 210,-234 116.5,-234"/>
<text text-anchor="start" x="159.13" y="-240.7" font-family="arial" font-size="14.00">1</text>
<polygon fill="none" stroke="black" points="0,-210 0,-234 116.5,-234 116.5,-210 0,-210"/>
<text text-anchor="start" x="42.88" y="-216.7" font-family="arial" font-size="14.00">VCC</text>
<polygon fill="none" stroke="black" points="116.5,-210 116.5,-234 210,-234 210,-210 116.5,-210"/>
<text text-anchor="start" x="159.13" y="-216.7" font-family="arial" font-size="14.00">2</text>
<polygon fill="none" stroke="black" points="0,-186 0,-210 116.5,-210 116.5,-186 0,-186"/>
<text text-anchor="start" x="48.13" y="-192.7" font-family="arial" font-size="14.00">RX</text>
<polygon fill="none" stroke="black" points="116.5,-186 116.5,-210 210,-210 210,-186 116.5,-186"/>
<text text-anchor="start" x="159.13" y="-192.7" font-family="arial" font-size="14.00">3</text>
<polygon fill="none" stroke="black" points="0,-162 0,-186 116.5,-186 116.5,-162 0,-162"/>
<text text-anchor="start" x="48.88" y="-168.7" font-family="arial" font-size="14.00">TX</text>
<polygon fill="none" stroke="black" points="116.5,-162 116.5,-186 210,-186 210,-162 116.5,-162"/>
<text text-anchor="start" x="159.13" y="-168.7" font-family="arial" font-size="14.00">4</text>
<polygon fill="none" stroke="black" points="0,-138 0,-162 116.5,-162 116.5,-138 0,-138"/>
<text text-anchor="start" x="42.5" y="-144.7" font-family="arial" font-size="14.00">GND</text>
<polygon fill="none" stroke="black" points="116.5,-138 116.5,-162 210,-162 210,-138 116.5,-138"/>
<text text-anchor="start" x="159.13" y="-144.7" font-family="arial" font-size="14.00">5</text>
<polygon fill="none" stroke="black" points="0,-114 0,-138 116.5,-138 116.5,-114 0,-114"/>
<text text-anchor="start" x="42.88" y="-120.7" font-family="arial" font-size="14.00">VCC</text>
<polygon fill="none" stroke="black" points="116.5,-114 116.5,-138 210,-138 210,-114 116.5,-114"/>
<text text-anchor="start" x="159.13" y="-120.7" font-family="arial" font-size="14.00">6</text>
<polygon fill="none" stroke="black" points="0,-90 0,-114 116.5,-114 116.5,-90 0,-90"/>
<text text-anchor="start" x="42.5" y="-96.7" font-family="arial" font-size="14.00">GND</text>
<polygon fill="none" stroke="black" points="116.5,-90 116.5,-114 210,-114 210,-90 116.5,-90"/>
<text text-anchor="start" x="159.13" y="-96.7" font-family="arial" font-size="14.00">7</text>
<text text-anchor="start" x="9.75" y="-72.7" font-family="arial" font-size="14.00">42</text>
<text text-anchor="start" x="32" y="-72.7" font-family="arial" font-size="14.00">mm</text>
<text text-anchor="start" x="62" y="-72.7" font-family="arial" font-size="14.00">loopPartA</text>
<text text-anchor="start" x="61.63" y="-50.7" font-family="arial" font-size="14.00">WireViz: 42XCD42A5</text>
<text text-anchor="start" x="9.75" y="-28.7" font-family="arial" font-size="14.00">74</text>
<text text-anchor="start" x="32" y="-28.7" font-family="arial" font-size="14.00">mm</text>
<text text-anchor="start" x="62" y="-28.7" font-family="arial" font-size="14.00">loopPartB</text>
<text text-anchor="start" x="61.63" y="-6.7" font-family="arial" font-size="14.00">WireViz: 42XCD42A5</text>
<polygon fill="none" stroke="black" points="0,0 0,-90 210,-90 210,0 0,0"/>
</g>
<!-- X1&#45;&#45;X1 -->
<g id="edge1" class="edge">
<title>X1:e&#45;&#45;X1:e</title>
<path fill="none" stroke="#ff66cc" stroke-width="2" d="M210,-246C239.5,-258 298.5,-258 298.5,-198 298.5,-138 239.5,-138 210,-150"/>
</g>
<!-- X1&#45;&#45;X1 -->
<g id="edge2" class="edge">
<title>X1:e&#45;&#45;X1:e</title>
<path fill="none" stroke="#ff66cc" stroke-width="2" d="M210,-150C239.5,-162 298.5,-162 298.5,-126 298.5,-90 239.5,-90 210,-102"/>
</g>
<!-- X1&#45;&#45;X1 -->
<g id="edge3" class="edge">
<title>X1:e&#45;&#45;X1:e</title>
<path fill="none" stroke="#ff0000" stroke-width="2" d="M211.13,-219.22C239.5,-231 298.5,-231 295.5,-174 298.5,-117 239.5,-117 211.13,-128.78"/>
<path fill="none" stroke="#0066ff" stroke-width="2" d="M210.38,-221.07C239.5,-233 298.5,-233 297.5,-174 298.5,-115 239.5,-115 210.38,-126.93"/>
<path fill="none" stroke="#ff8000" stroke-width="2" d="M209.62,-222.93C239.5,-235 298.5,-235 299.5,-174 298.5,-113 239.5,-113 209.62,-125.07"/>
<path fill="none" stroke="#a0dfff" stroke-width="2" d="M208.87,-224.78C239.5,-237 298.5,-237 301.5,-174 298.5,-111 239.5,-111 208.87,-123.22"/>
</g>
<!-- W1 -->
<g id="node2" class="node">
<title>W1</title>
<polygon fill="#ffffff" stroke="black" points="631.76,-344 354.01,-344 354.01,-109 631.76,-109 631.76,-344"/>
<polygon fill="#ffffff" stroke="none" points="354.01,-109 354.01,-344 631.76,-344 631.76,-109 354.01,-109"/>
<polygon fill="none" stroke="black" points="354.01,-319.5 354.01,-344 631.76,-344 631.76,-319.5 354.01,-319.5"/>
<text text-anchor="start" x="481.63" y="-326.7" font-family="arial" font-size="14.00">W1</text>
<polygon fill="none" stroke="black" points="354.01,-295 354.01,-319.5 398.01,-319.5 398.01,-295 354.01,-295"/>
<text text-anchor="start" x="358.01" y="-302.2" font-family="arial" font-size="14.00">Serial</text>
<polygon fill="none" stroke="black" points="398.01,-295 398.01,-319.5 421.01,-319.5 421.01,-295 398.01,-295"/>
<text text-anchor="start" x="402.01" y="-302.2" font-family="arial" font-size="14.00">4x</text>
<polygon fill="none" stroke="black" points="421.01,-295 421.01,-319.5 558.01,-319.5 558.01,-295 421.01,-295"/>
<text text-anchor="start" x="425.01" y="-302.2" font-family="arial" font-size="14.00">0.25 mm² (24 AWG)</text>
<polygon fill="none" stroke="black" points="558.01,-295 558.01,-319.5 587.76,-319.5 587.76,-295 558.01,-295"/>
<text text-anchor="start" x="562.01" y="-302.2" font-family="arial" font-size="14.00">+ S</text>
<polygon fill="none" stroke="black" points="587.76,-295 587.76,-319.5 631.76,-319.5 631.76,-295 587.76,-295"/>
<text text-anchor="start" x="591.76" y="-302.2" font-family="arial" font-size="14.00">0.2 m</text>
<text text-anchor="start" x="396.11" y="-279.7" font-family="arial" font-size="14.00"> </text>
<text text-anchor="start" x="356.01" y="-259.7" font-family="arial" font-size="14.00"> X1:1:GND</text>
<text text-anchor="start" x="451.06" y="-259.7" font-family="arial" font-size="14.00"> </text>
<text text-anchor="start" x="477.13" y="-259.7" font-family="arial" font-size="14.00">1:BN</text>
<text text-anchor="start" x="530.96" y="-259.7" font-family="arial" font-size="14.00"> </text>
<text text-anchor="start" x="560.76" y="-259.7" font-family="arial" font-size="14.00">X2:1:GND </text>
<polygon fill="#ffffff" stroke="none" points="354.01,-253 354.01,-255 631.76,-255 631.76,-253 354.01,-253"/>
<polygon fill="#ffffff" stroke="none" points="354.01,-251 354.01,-253 631.76,-253 631.76,-251 354.01,-251"/>
<polygon fill="#ffffff" stroke="none" points="354.01,-249 354.01,-251 631.76,-251 631.76,-249 354.01,-249"/>
<text text-anchor="start" x="356.01" y="-233.7" font-family="arial" font-size="14.00"> X1:2:VCC</text>
<text text-anchor="start" x="451.06" y="-233.7" font-family="arial" font-size="14.00"> </text>
<text text-anchor="start" x="476.38" y="-233.7" font-family="arial" font-size="14.00">2:RD</text>
<text text-anchor="start" x="530.96" y="-233.7" font-family="arial" font-size="14.00"> </text>
<text text-anchor="start" x="561.51" y="-233.7" font-family="arial" font-size="14.00">X2:2:VCC </text>
<polygon fill="#ffffff" stroke="none" points="354.01,-227 354.01,-229 631.76,-229 631.76,-227 354.01,-227"/>
<polygon fill="#ffffff" stroke="none" points="354.01,-225 354.01,-227 631.76,-227 631.76,-225 354.01,-225"/>
<polygon fill="#ffffff" stroke="none" points="354.01,-223 354.01,-225 631.76,-225 631.76,-223 354.01,-223"/>
<text text-anchor="start" x="356.01" y="-207.7" font-family="arial" font-size="14.00"> X1:3:RX</text>
<text text-anchor="start" x="451.06" y="-207.7" font-family="arial" font-size="14.00"> </text>
<text text-anchor="start" x="475.63" y="-207.7" font-family="arial" font-size="14.00">3:OG</text>
<text text-anchor="start" x="530.96" y="-207.7" font-family="arial" font-size="14.00"> </text>
<text text-anchor="start" x="573.51" y="-207.7" font-family="arial" font-size="14.00">X2:4:TX </text>
<polygon fill="#ffffff" stroke="none" points="354.01,-201 354.01,-203 631.76,-203 631.76,-201 354.01,-201"/>
<polygon fill="#ffffff" stroke="none" points="354.01,-199 354.01,-201 631.76,-201 631.76,-199 354.01,-199"/>
<polygon fill="#ffffff" stroke="none" points="354.01,-197 354.01,-199 631.76,-199 631.76,-197 354.01,-197"/>
<text text-anchor="start" x="356.01" y="-181.7" font-family="arial" font-size="14.00"> X1:4:TX</text>
<text text-anchor="start" x="451.06" y="-181.7" font-family="arial" font-size="14.00"> </text>
<text text-anchor="start" x="477.51" y="-181.7" font-family="arial" font-size="14.00">4:YE</text>
<text text-anchor="start" x="530.96" y="-181.7" font-family="arial" font-size="14.00"> </text>
<text text-anchor="start" x="572.01" y="-181.7" font-family="arial" font-size="14.00">X2:3:RX </text>
<polygon fill="#ffffff" stroke="none" points="354.01,-175 354.01,-177 631.76,-177 631.76,-175 354.01,-175"/>
<polygon fill="#ffffff" stroke="none" points="354.01,-173 354.01,-175 631.76,-175 631.76,-173 354.01,-173"/>
<polygon fill="#ffffff" stroke="none" points="354.01,-171 354.01,-173 631.76,-173 631.76,-171 354.01,-171"/>
<text text-anchor="start" x="396.11" y="-155.7" font-family="arial" font-size="14.00"> </text>
<text text-anchor="start" x="356.01" y="-135.7" font-family="arial" font-size="14.00"> X1:1:GND</text>
<text text-anchor="start" x="451.06" y="-135.7" font-family="arial" font-size="14.00"> </text>
<text text-anchor="start" x="473.01" y="-135.7" font-family="arial" font-size="14.00">Shield</text>
<text text-anchor="start" x="530.96" y="-135.7" font-family="arial" font-size="14.00"> </text>
<text text-anchor="start" x="626.01" y="-135.7" font-family="arial" font-size="14.00"> </text>
<polygon fill="#ffffff" stroke="none" points="354.01,-129 354.01,-131 631.76,-131 631.76,-129 354.01,-129"/>
<text text-anchor="start" x="396.11" y="-113.7" font-family="arial" font-size="14.00"> </text>
</g>
<!-- X1&#45;&#45;W1 -->
<g id="edge4" class="edge">
<title>X1:e&#45;&#45;W1:w</title>
<path fill="none" stroke="#000000" stroke-width="2" d="M210,-244C274.77,-244.13 290.65,-250.13 354,-250"/>
<path fill="none" stroke="#895956" stroke-width="2" d="M210,-246C274.06,-246 289.94,-252 354,-252"/>
<path fill="none" stroke="#000000" stroke-width="2" d="M210,-248C273.35,-247.87 289.23,-253.87 354,-254"/>
</g>
<!-- X1&#45;&#45;W1 -->
<g id="edge5" class="edge">
<title>X1:e&#45;&#45;W1:w</title>
<path fill="none" stroke="#000000" stroke-width="2" d="M210,-220C274.51,-220.06 290.47,-224.06 354,-224"/>
<path fill="none" stroke="#ff0000" stroke-width="2" d="M210,-222C274.02,-222 289.98,-226 354,-226"/>
<path fill="none" stroke="#000000" stroke-width="2" d="M210,-224C273.53,-223.94 289.49,-227.94 354,-228"/>
</g>
<!-- X1&#45;&#45;W1 -->
<g id="edge6" class="edge">
<title>X1:e&#45;&#45;W1:w</title>
<path fill="none" stroke="#000000" stroke-width="2" d="M210,-196C274.26,-196.02 290.24,-198.02 354,-198"/>
<path fill="none" stroke="#ff8000" stroke-width="2" d="M210,-198C274.01,-198 289.99,-200 354,-200"/>
<path fill="none" stroke="#000000" stroke-width="2" d="M210,-200C273.76,-199.98 289.74,-201.98 354,-202"/>
</g>
<!-- X1&#45;&#45;W1 -->
<g id="edge7" class="edge">
<title>X1:e&#45;&#45;W1:w</title>
<path fill="none" stroke="#000000" stroke-width="2" d="M210,-172C274,-172 290,-172 354,-172"/>
<path fill="none" stroke="#ffff00" stroke-width="2" d="M210,-174C274,-174 290,-174 354,-174"/>
<path fill="none" stroke="#000000" stroke-width="2" d="M210,-176C274,-176 290,-176 354,-176"/>
</g>
<!-- X1&#45;&#45;W1 -->
<g id="edge8" class="edge">
<title>X1:e&#45;&#45;W1:w</title>
<path fill="none" stroke="#000000" stroke-width="2" d="M210,-246C292.18,-246 271.82,-130 354,-130"/>
</g>
<!-- W1&#45;&#45;W1 -->
<g id="edge9" class="edge">
<title>W1:e&#45;&#45;W1:w</title>
<path fill="none" stroke="#000000" stroke-width="2" d="M631.75,-254C539.17,-254 446.58,-254 354,-254"/>
<path fill="none" stroke="#895956" stroke-width="2" d="M631.75,-252C539.17,-252 446.58,-252 354,-252"/>
<path fill="none" stroke="#000000" stroke-width="2" d="M631.75,-250C539.17,-250 446.58,-250 354,-250"/>
</g>
<!-- W1&#45;&#45;W1 -->
<g id="edge10" class="edge">
<title>W1:e&#45;&#45;W1:w</title>
<path fill="none" stroke="#000000" stroke-width="2" d="M631.75,-228C539.17,-228 446.58,-228 354,-228"/>
<path fill="none" stroke="#ff0000" stroke-width="2" d="M631.75,-226C539.17,-226 446.58,-226 354,-226"/>
<path fill="none" stroke="#000000" stroke-width="2" d="M631.75,-224C539.17,-224 446.58,-224 354,-224"/>
</g>
<!-- W1&#45;&#45;W1 -->
<g id="edge11" class="edge">
<title>W1:e&#45;&#45;W1:w</title>
<path fill="none" stroke="#000000" stroke-width="2" d="M631.75,-202C539.17,-202 446.58,-202 354,-202"/>
<path fill="none" stroke="#ff8000" stroke-width="2" d="M631.75,-200C539.17,-200 446.58,-200 354,-200"/>
<path fill="none" stroke="#000000" stroke-width="2" d="M631.75,-198C539.17,-198 446.58,-198 354,-198"/>
</g>
<!-- W1&#45;&#45;W1 -->
<g id="edge12" class="edge">
<title>W1:e&#45;&#45;W1:w</title>
<path fill="none" stroke="#000000" stroke-width="2" d="M631.75,-176C539.17,-176 446.58,-176 354,-176"/>
<path fill="none" stroke="#ffff00" stroke-width="2" d="M631.75,-174C539.17,-174 446.58,-174 354,-174"/>
<path fill="none" stroke="#000000" stroke-width="2" d="M631.75,-172C539.17,-172 446.58,-172 354,-172"/>
</g>
<!-- W1&#45;&#45;W1 -->
<g id="edge13" class="edge">
<title>W1:e&#45;&#45;W1:w</title>
<path fill="none" stroke="#000000" stroke-width="2" d="M631.75,-130C539.17,-130 446.58,-130 354,-130"/>
</g>
<!-- X2 -->
<g id="node3" class="node">
<title>X2</title>
<polygon fill="#ffffff" stroke="black" points="985.75,-316 775.75,-316 775.75,-53 985.75,-53 985.75,-316"/>
<polygon fill="#ffffff" stroke="none" points="775.75,-53 775.75,-316 985.75,-316 985.75,-53 775.75,-53"/>
<polygon fill="none" stroke="black" points="775.75,-291.5 775.75,-316 985.75,-316 985.75,-291.5 775.75,-291.5"/>
<text text-anchor="start" x="871.75" y="-298.7" font-family="arial" font-size="14.00">X2</text>
<polygon fill="none" stroke="black" points="775.75,-267 775.75,-291.5 880.25,-291.5 880.25,-267 775.75,-267"/>
<text text-anchor="start" x="783.38" y="-274.2" font-family="arial" font-size="14.00">Molex KK 254</text>
<polygon fill="none" stroke="black" points="880.25,-267 880.25,-291.5 939,-291.5 939,-267 880.25,-267"/>
<text text-anchor="start" x="887.88" y="-274.2" font-family="arial" font-size="14.00">female</text>
<polygon fill="none" stroke="black" points="939,-267 939,-291.5 985.75,-291.5 985.75,-267 939,-267"/>
<text text-anchor="start" x="946.63" y="-274.2" font-family="arial" font-size="14.00">7&#45;pin</text>
<polygon fill="none" stroke="black" points="775.75,-243 775.75,-267 869.25,-267 869.25,-243 775.75,-243"/>
<text text-anchor="start" x="818.38" y="-249.7" font-family="arial" font-size="14.00">1</text>
<polygon fill="none" stroke="black" points="869.25,-243 869.25,-267 985.75,-267 985.75,-243 869.25,-243"/>
<text text-anchor="start" x="911.75" y="-249.7" font-family="arial" font-size="14.00">GND</text>
<polygon fill="none" stroke="black" points="775.75,-219 775.75,-243 869.25,-243 869.25,-219 775.75,-219"/>
<text text-anchor="start" x="818.38" y="-225.7" font-family="arial" font-size="14.00">2</text>
<polygon fill="none" stroke="black" points="869.25,-219 869.25,-243 985.75,-243 985.75,-219 869.25,-219"/>
<text text-anchor="start" x="912.13" y="-225.7" font-family="arial" font-size="14.00">VCC</text>
<polygon fill="none" stroke="black" points="775.75,-195 775.75,-219 869.25,-219 869.25,-195 775.75,-195"/>
<text text-anchor="start" x="818.38" y="-201.7" font-family="arial" font-size="14.00">3</text>
<polygon fill="none" stroke="black" points="869.25,-195 869.25,-219 985.75,-219 985.75,-195 869.25,-195"/>
<text text-anchor="start" x="917.38" y="-201.7" font-family="arial" font-size="14.00">RX</text>
<polygon fill="none" stroke="black" points="775.75,-171 775.75,-195 869.25,-195 869.25,-171 775.75,-171"/>
<text text-anchor="start" x="818.38" y="-177.7" font-family="arial" font-size="14.00">4</text>
<polygon fill="none" stroke="black" points="869.25,-171 869.25,-195 985.75,-195 985.75,-171 869.25,-171"/>
<text text-anchor="start" x="918.13" y="-177.7" font-family="arial" font-size="14.00">TX</text>
<polygon fill="none" stroke="black" points="775.75,-147 775.75,-171 869.25,-171 869.25,-147 775.75,-147"/>
<text text-anchor="start" x="818.38" y="-153.7" font-family="arial" font-size="14.00">5</text>
<polygon fill="none" stroke="black" points="869.25,-147 869.25,-171 985.75,-171 985.75,-147 869.25,-147"/>
<text text-anchor="start" x="911.75" y="-153.7" font-family="arial" font-size="14.00">GND</text>
<polygon fill="none" stroke="black" points="775.75,-123 775.75,-147 869.25,-147 869.25,-123 775.75,-123"/>
<text text-anchor="start" x="818.38" y="-129.7" font-family="arial" font-size="14.00">6</text>
<polygon fill="none" stroke="black" points="869.25,-123 869.25,-147 985.75,-147 985.75,-123 869.25,-123"/>
<text text-anchor="start" x="912.13" y="-129.7" font-family="arial" font-size="14.00">VCC</text>
<polygon fill="none" stroke="black" points="775.75,-99 775.75,-123 869.25,-123 869.25,-99 775.75,-99"/>
<text text-anchor="start" x="818.38" y="-105.7" font-family="arial" font-size="14.00">7</text>
<polygon fill="none" stroke="black" points="869.25,-99 869.25,-123 985.75,-123 985.75,-99 869.25,-99"/>
<text text-anchor="start" x="911.75" y="-105.7" font-family="arial" font-size="14.00">GND</text>
<text text-anchor="start" x="785.5" y="-81.7" font-family="arial" font-size="14.00">21</text>
<text text-anchor="start" x="807.75" y="-81.7" font-family="arial" font-size="14.00">mm</text>
<text text-anchor="start" x="837.75" y="-81.7" font-family="arial" font-size="14.00">loopPartC</text>
<text text-anchor="start" x="837.38" y="-59.7" font-family="arial" font-size="14.00">WireViz: 42XCD42A5</text>
<polygon fill="none" stroke="black" points="775.75,-53 775.75,-99 985.75,-99 985.75,-53 775.75,-53"/>
</g>
<!-- W1&#45;&#45;X2 -->
<g id="edge14" class="edge">
<title>W1:e&#45;&#45;X2:w</title>
<path fill="none" stroke="#000000" stroke-width="2" d="M631.75,-250C696.13,-250.03 712.11,-253.03 775.75,-253"/>
<path fill="none" stroke="#895956" stroke-width="2" d="M631.75,-252C695.76,-252 711.74,-255 775.75,-255"/>
<path fill="none" stroke="#000000" stroke-width="2" d="M631.75,-254C695.39,-253.97 711.37,-256.97 775.75,-257"/>
</g>
<!-- W1&#45;&#45;X2 -->
<g id="edge15" class="edge">
<title>W1:e&#45;&#45;X2:w</title>
<path fill="none" stroke="#000000" stroke-width="2" d="M631.75,-224C696.39,-224.09 712.31,-229.09 775.75,-229"/>
<path fill="none" stroke="#ff0000" stroke-width="2" d="M631.75,-226C695.79,-226 711.71,-231 775.75,-231"/>
<path fill="none" stroke="#000000" stroke-width="2" d="M631.75,-228C695.19,-227.91 711.11,-232.91 775.75,-233"/>
</g>
<!-- W1&#45;&#45;X2 -->
<g id="edge16" class="edge">
<title>W1:e&#45;&#45;X2:w</title>
<path fill="none" stroke="#000000" stroke-width="2" d="M631.75,-198C694.7,-198.67 709.82,-181.67 775.75,-181"/>
<path fill="none" stroke="#ff8000" stroke-width="2" d="M631.75,-200C696.19,-200 711.31,-183 775.75,-183"/>
<path fill="none" stroke="#000000" stroke-width="2" d="M631.75,-202C697.69,-201.33 712.81,-184.33 775.75,-185"/>
</g>
<!-- W1&#45;&#45;X2 -->
<g id="edge17" class="edge">
<title>W1:e&#45;&#45;X2:w</title>
<path fill="none" stroke="#000000" stroke-width="2" d="M631.75,-172C699.28,-173.28 711.96,-206.28 775.75,-205"/>
<path fill="none" stroke="#ffff00" stroke-width="2" d="M631.75,-174C697.41,-174 710.09,-207 775.75,-207"/>
<path fill="none" stroke="#000000" stroke-width="2" d="M631.75,-176C695.54,-174.72 708.22,-207.72 775.75,-209"/>
</g>
<!-- X2&#45;&#45;X2 -->
<g id="edge18" class="edge">
<title>X2:w&#45;&#45;X2:w</title>
<path fill="none" stroke="#ff66cc" stroke-width="2" d="M775.75,-255C746.25,-267 687.25,-267 687.25,-207 687.25,-147 746.25,-147 775.75,-159"/>
</g>
<!-- X2&#45;&#45;X2 -->
<g id="edge19" class="edge">
<title>X2:w&#45;&#45;X2:w</title>
<path fill="none" stroke="#ff66cc" stroke-width="2" d="M775.75,-159C746.25,-171 687.25,-171 687.25,-135 687.25,-99 746.25,-99 775.75,-111"/>
</g>
<!-- X2&#45;&#45;X2 -->
<g id="edge20" class="edge">
<title>X2:w&#45;&#45;X2:w</title>
<path fill="none" stroke="#ff66cc" stroke-width="2" d="M775.75,-231C746.25,-243 687.25,-243 687.25,-183 687.25,-123 746.25,-123 775.75,-135"/>
</g>
</g>
</svg>
