<?xml version="1.0" encoding="UTF-8" standalone="no"?>
<!DOCTYPE svg PUBLIC "-//W3C//DTD SVG 1.1//EN"
 "http://www.w3.org/Graphics/SVG/1.1/DTD/svg11.dtd">
<!-- Generated by graphviz version 11.0.0 (20240428.1522)
 -->
<!-- Pages: 1 -->
<svg width="970pt" height="368pt"
 viewBox="0.00 0.00 969.50 368.25" xmlns="http://www.w3.org/2000/svg" xmlns:xlink="http://www.w3.org/1999/xlink">
<g id="graph0" class="graph" transform="scale(1 1) rotate(0) translate(4 364.25)">
<polygon fill="#ffffff" stroke="none" points="-4,4 -4,-364.25 965.5,-364.25 965.5,4 -4,4"/>
<!-- X1 -->
<g id="node1" class="node">
<title>X1</title>
<polygon fill="#ffffff" stroke="black" points="188.25,-323.5 0,-323.5 0,0 188.25,0 188.25,-323.5"/>
<polygon fill="none" stroke="black" points="0,-299 0,-323.5 188.25,-323.5 188.25,-299 0,-299"/>
<text text-anchor="start" x="85.13" y="-306.2" font-family="arial" font-size="14.00">X1</text>
<polygon fill="none" stroke="black" points="0,-274.5 0,-299 97.25,-299 97.25,-274.5 0,-274.5"/>
<text text-anchor="start" x="4" y="-281.7" font-family="arial" font-size="14.00">Molex KK 254</text>
<polygon fill="none" stroke="black" points="97.25,-274.5 97.25,-299 148.75,-299 148.75,-274.5 97.25,-274.5"/>
<text text-anchor="start" x="101.25" y="-281.7" font-family="arial" font-size="14.00">female</text>
<polygon fill="none" stroke="black" points="148.75,-274.5 148.75,-299 188.25,-299 188.25,-274.5 148.75,-274.5"/>
<text text-anchor="start" x="152.75" y="-281.7" font-family="arial" font-size="14.00">7&#45;pin</text>
<polygon fill="none" stroke="black" points="0,-250.5 0,-274.5 105.63,-274.5 105.63,-250.5 0,-250.5"/>
<text text-anchor="start" x="37.06" y="-257.2" font-family="arial" font-size="14.00">GND</text>
<polygon fill="none" stroke="black" points="105.63,-250.5 105.63,-274.5 188.25,-274.5 188.25,-250.5 105.63,-250.5"/>
<text text-anchor="start" x="142.81" y="-257.2" font-family="arial" font-size="14.00">1</text>
<polygon fill="none" stroke="black" points="0,-226.5 0,-250.5 105.63,-250.5 105.63,-226.5 0,-226.5"/>
<text text-anchor="start" x="37.44" y="-233.2" font-family="arial" font-size="14.00">VCC</text>
<polygon fill="none" stroke="black" points="105.63,-226.5 105.63,-250.5 188.25,-250.5 188.25,-226.5 105.63,-226.5"/>
<text text-anchor="start" x="142.81" y="-233.2" font-family="arial" font-size="14.00">2</text>
<polygon fill="none" stroke="black" points="0,-202.5 0,-226.5 105.63,-226.5 105.63,-202.5 0,-202.5"/>
<text text-anchor="start" x="42.69" y="-209.2" font-family="arial" font-size="14.00">RX</text>
<polygon fill="none" stroke="black" points="105.63,-202.5 105.63,-226.5 188.25,-226.5 188.25,-202.5 105.63,-202.5"/>
<text text-anchor="start" x="142.81" y="-209.2" font-family="arial" font-size="14.00">3</text>
<polygon fill="none" stroke="black" points="0,-178.5 0,-202.5 105.63,-202.5 105.63,-178.5 0,-178.5"/>
<text text-anchor="start" x="43.44" y="-185.2" font-family="arial" font-size="14.00">TX</text>
<polygon fill="none" stroke="black" points="105.63,-178.5 105.63,-202.5 188.25,-202.5 188.25,-178.5 105.63,-178.5"/>
<text text-anchor="start" x="142.81" y="-185.2" font-family="arial" font-size="14.00">4</text>
<polygon fill="none" stroke="black" points="0,-154.5 0,-178.5 105.63,-178.5 105.63,-154.5 0,-154.5"/>
<text text-anchor="start" x="37.06" y="-161.2" font-family="arial" font-size="14.00">GND</text>
<polygon fill="none" stroke="black" points="105.63,-154.5 105.63,-178.5 188.25,-178.5 188.25,-154.5 105.63,-154.5"/>
<text text-anchor="start" x="142.81" y="-161.2" font-family="arial" font-size="14.00">5</text>
<polygon fill="none" stroke="black" points="0,-130.5 0,-154.5 105.63,-154.5 105.63,-130.5 0,-130.5"/>
<text text-anchor="start" x="37.44" y="-137.2" font-family="arial" font-size="14.00">VCC</text>
<polygon fill="none" stroke="black" points="105.63,-130.5 105.63,-154.5 188.25,-154.5 188.25,-130.5 105.63,-130.5"/>
<text text-anchor="start" x="142.81" y="-137.2" font-family="arial" font-size="14.00">6</text>
<polygon fill="none" stroke="black" points="0,-106.5 0,-130.5 105.63,-130.5 105.63,-106.5 0,-106.5"/>
<text text-anchor="start" x="37.06" y="-113.2" font-family="arial" font-size="14.00">GND</text>
<polygon fill="none" stroke="black" points="105.63,-106.5 105.63,-130.5 188.25,-130.5 188.25,-106.5 105.63,-106.5"/>
<text text-anchor="start" x="142.81" y="-113.2" font-family="arial" font-size="14.00">7</text>
<polygon fill="none" stroke="black" points="0,-82 0,-106.5 188.25,-106.5 188.25,-82 0,-82"/>
<text text-anchor="start" x="21.75" y="-89.2" font-family="arial" font-size="14.00">Additional components</text>
<polygon fill="none" stroke="black" points="0,-41 0,-82 188.25,-82 188.25,-41 0,-41"/>
<text text-anchor="start" x="4" y="-64.7" font-family="arial" font-size="14.00">42 mm x LO1 x loopPartA</text>
<text text-anchor="start" x="4" y="-48.2" font-family="arial" font-size="14.00">WireViz: 42XCD42A5</text>
<polygon fill="none" stroke="black" points="0,0 0,-41 188.25,-41 188.25,0 0,0"/>
<text text-anchor="start" x="4" y="-23.7" font-family="arial" font-size="14.00">74 mm x LO2 x loopPartB</text>
<text text-anchor="start" x="4" y="-7.2" font-family="arial" font-size="14.00">WireViz: 42XCD42A5</text>
</g>
<!-- X1&#45;&#45;X1 -->
<g id="edge1" class="edge">
<title>X1:e&#45;&#45;X1:e</title>
<path fill="none" stroke="#000000" stroke-width="2" d="M189.05,-260.67C215.94,-272.5 271.31,-272.5 269.31,-214.5 271.31,-156.5 215.94,-156.5 189.05,-168.34"/>
<path fill="none" stroke="#ff66cc" stroke-width="2" d="M188.25,-262.5C215.94,-274.5 271.31,-274.5 271.31,-214.5 271.31,-154.5 215.94,-154.5 188.25,-166.5"/>
<path fill="none" stroke="#000000" stroke-width="2" d="M187.46,-264.34C215.94,-276.5 271.31,-276.5 273.31,-214.5 271.31,-152.5 215.94,-152.5 187.46,-164.67"/>
<text text-anchor="middle" x="273.19" y="-156.7" font-family="arial" font-size="14.00"> </text>
</g>
<!-- X1&#45;&#45;X1 -->
<g id="edge2" class="edge">
<title>X1:e&#45;&#45;X1:e</title>
<path fill="none" stroke="#000000" stroke-width="2" d="M189.05,-164.67C215.94,-176.5 271.31,-176.5 269.31,-142.5 271.31,-108.5 215.94,-108.5 189.05,-120.34"/>
<path fill="none" stroke="#ff66cc" stroke-width="2" d="M188.25,-166.5C215.94,-178.5 271.31,-178.5 271.31,-142.5 271.31,-106.5 215.94,-106.5 188.25,-118.5"/>
<path fill="none" stroke="#000000" stroke-width="2" d="M187.46,-168.34C215.94,-180.5 271.31,-180.5 273.31,-142.5 271.31,-104.5 215.94,-104.5 187.46,-116.67"/>
<text text-anchor="middle" x="273.19" y="-156.7" font-family="arial" font-size="14.00"> </text>
</g>
<!-- X1&#45;&#45;X1 -->
<g id="edge3" class="edge">
<title>X1:e&#45;&#45;X1:e</title>
<path fill="none" stroke="#000000" stroke-width="2" d="M190.24,-233.91C215.94,-245.5 271.31,-245.5 266.31,-190.5 271.31,-135.5 215.94,-135.5 190.24,-147.09"/>
<path fill="none" stroke="#ff0000" stroke-width="2" d="M189.44,-235.75C215.94,-247.5 271.31,-247.5 268.31,-190.5 271.31,-133.5 215.94,-133.5 189.44,-145.25"/>
<path fill="none" stroke="#0066ff" stroke-width="2" d="M188.65,-237.58C215.94,-249.5 271.31,-249.5 270.31,-190.5 271.31,-131.5 215.94,-131.5 188.65,-143.42"/>
<path fill="none" stroke="#ff8000" stroke-width="2" d="M187.85,-239.42C215.94,-251.5 271.31,-251.5 272.31,-190.5 271.31,-129.5 215.94,-129.5 187.85,-141.58"/>
<path fill="none" stroke="#a0dfff" stroke-width="2" d="M187.06,-241.25C215.94,-253.5 271.31,-253.5 274.31,-190.5 271.31,-127.5 215.94,-127.5 187.06,-139.75"/>
<path fill="none" stroke="#000000" stroke-width="2" d="M186.26,-243.09C215.94,-255.5 271.31,-255.5 276.31,-190.5 271.31,-125.5 215.94,-125.5 186.26,-137.91"/>
<text text-anchor="middle" x="273.19" y="-156.7" font-family="arial" font-size="14.00"> </text>
</g>
<!-- W1 -->
<g id="node2" class="node">
<title>W1</title>
<polygon fill="#ffffff" stroke="black" points="610,-360.25 332.25,-360.25 332.25,-125.25 610,-125.25 610,-360.25"/>
<polygon fill="none" stroke="black" points="332.25,-335.75 332.25,-360.25 610,-360.25 610,-335.75 332.25,-335.75"/>
<text text-anchor="start" x="459.87" y="-342.95" font-family="arial" font-size="14.00">W1</text>
<polygon fill="none" stroke="black" points="332.25,-311.25 332.25,-335.75 376.25,-335.75 376.25,-311.25 332.25,-311.25"/>
<text text-anchor="start" x="336.25" y="-318.45" font-family="arial" font-size="14.00">Serial</text>
<polygon fill="none" stroke="black" points="376.25,-311.25 376.25,-335.75 399.25,-335.75 399.25,-311.25 376.25,-311.25"/>
<text text-anchor="start" x="380.25" y="-318.45" font-family="arial" font-size="14.00">4x</text>
<polygon fill="none" stroke="black" points="399.25,-311.25 399.25,-335.75 536.25,-335.75 536.25,-311.25 399.25,-311.25"/>
<text text-anchor="start" x="403.25" y="-318.45" font-family="arial" font-size="14.00">0.25 mm² (24 AWG)</text>
<polygon fill="none" stroke="black" points="536.25,-311.25 536.25,-335.75 566,-335.75 566,-311.25 536.25,-311.25"/>
<text text-anchor="start" x="540.25" y="-318.45" font-family="arial" font-size="14.00">+ S</text>
<polygon fill="none" stroke="black" points="566,-311.25 566,-335.75 610,-335.75 610,-311.25 566,-311.25"/>
<text text-anchor="start" x="570" y="-318.45" font-family="arial" font-size="14.00">0.2 m</text>
<text text-anchor="start" x="376.16" y="-295.95" font-family="arial" font-size="14.00"> </text>
<text text-anchor="start" x="345.41" y="-275.95" font-family="arial" font-size="14.00">X1:1:GND</text>
<text text-anchor="start" x="438.5" y="-275.95" font-family="arial" font-size="14.00"> &#160;&#160;&#160;&#160;1:BN &#160;&#160;&#160;</text>
<text text-anchor="start" x="531.58" y="-275.95" font-family="arial" font-size="14.00">X2:1:GND</text>
<text text-anchor="start" x="345.79" y="-249.95" font-family="arial" font-size="14.00">X1:2:VCC</text>
<text text-anchor="start" x="437.75" y="-249.95" font-family="arial" font-size="14.00"> &#160;&#160;&#160;&#160;2:RD &#160;&#160;&#160;</text>
<text text-anchor="start" x="531.95" y="-249.95" font-family="arial" font-size="14.00">X2:2:VCC</text>
<text text-anchor="start" x="351.04" y="-223.95" font-family="arial" font-size="14.00">X1:3:RX</text>
<text text-anchor="start" x="437" y="-223.95" font-family="arial" font-size="14.00"> &#160;&#160;&#160;&#160;3:OG &#160;&#160;&#160;</text>
<text text-anchor="start" x="537.95" y="-223.95" font-family="arial" font-size="14.00">X2:4:TX</text>
<text text-anchor="start" x="351.79" y="-197.95" font-family="arial" font-size="14.00">X1:4:TX</text>
<text text-anchor="start" x="438.87" y="-197.95" font-family="arial" font-size="14.00"> &#160;&#160;&#160;&#160;4:YE &#160;&#160;&#160;</text>
<text text-anchor="start" x="537.2" y="-197.95" font-family="arial" font-size="14.00">X2:3:RX</text>
<text text-anchor="start" x="376.16" y="-171.95" font-family="arial" font-size="14.00"> </text>
<text text-anchor="start" x="345.41" y="-151.95" font-family="arial" font-size="14.00">X1:1:GND</text>
<text text-anchor="start" x="451.25" y="-151.95" font-family="arial" font-size="14.00">Shield</text>
<text text-anchor="start" x="376.16" y="-129.95" font-family="arial" font-size="14.00"> </text>
</g>
<!-- X1&#45;&#45;W1 -->
<g id="edge4" class="edge">
<title>X1:e&#45;&#45;W1:w</title>
<path fill="none" stroke="#000000" stroke-width="2" d="M188.25,-260.5C252.98,-260.62 268.88,-266.37 332.25,-266.25"/>
<path fill="none" stroke="#895956" stroke-width="2" d="M188.25,-262.5C252.3,-262.5 268.2,-268.25 332.25,-268.25"/>
<path fill="none" stroke="#000000" stroke-width="2" d="M188.25,-264.5C251.62,-264.38 267.52,-270.13 332.25,-270.25"/>
</g>
<!-- X1&#45;&#45;W1 -->
<g id="edge5" class="edge">
<title>X1:e&#45;&#45;W1:w</title>
<path fill="none" stroke="#000000" stroke-width="2" d="M188.25,-236.5C252.73,-236.55 268.69,-240.3 332.25,-240.25"/>
<path fill="none" stroke="#ff0000" stroke-width="2" d="M188.25,-238.5C252.27,-238.5 268.23,-242.25 332.25,-242.25"/>
<path fill="none" stroke="#000000" stroke-width="2" d="M188.25,-240.5C251.81,-240.45 267.77,-244.2 332.25,-244.25"/>
</g>
<!-- X1&#45;&#45;W1 -->
<g id="edge6" class="edge">
<title>X1:e&#45;&#45;W1:w</title>
<path fill="none" stroke="#000000" stroke-width="2" d="M188.25,-212.5C252.47,-212.51 268.47,-214.26 332.25,-214.25"/>
<path fill="none" stroke="#ff8000" stroke-width="2" d="M188.25,-214.5C252.25,-214.5 268.25,-216.25 332.25,-216.25"/>
<path fill="none" stroke="#000000" stroke-width="2" d="M188.25,-216.5C252.03,-216.49 268.03,-218.24 332.25,-218.25"/>
</g>
<!-- X1&#45;&#45;W1 -->
<g id="edge7" class="edge">
<title>X1:e&#45;&#45;W1:w</title>
<path fill="none" stroke="#000000" stroke-width="2" d="M188.25,-188.5C252.22,-188.5 268.22,-188.25 332.25,-188.25"/>
<path fill="none" stroke="#ffff00" stroke-width="2" d="M188.25,-190.5C252.25,-190.5 268.25,-190.25 332.25,-190.25"/>
<path fill="none" stroke="#000000" stroke-width="2" d="M188.25,-192.5C252.28,-192.5 268.28,-192.25 332.25,-192.25"/>
</g>
<!-- X1&#45;&#45;W1 -->
<g id="edge8" class="edge">
<title>X1:e&#45;&#45;W1:w</title>
<path fill="none" stroke="#000000" stroke-width="2" d="M188.25,-262.5C270.5,-262.5 250,-146.25 332.25,-146.25"/>
</g>
<!-- W1&#45;&#45;W1 -->
<g id="edge9" class="edge">
<title>W1:w&#45;&#45;W1:e</title>
<path fill="none" stroke="#000000" stroke-width="2" d="M332.25,-266.25C424.83,-266.25 517.42,-266.25 610,-266.25"/>
<path fill="none" stroke="#895956" stroke-width="2" d="M332.25,-268.25C424.83,-268.25 517.42,-268.25 610,-268.25"/>
<path fill="none" stroke="#000000" stroke-width="2" d="M332.25,-270.25C424.83,-270.25 517.42,-270.25 610,-270.25"/>
</g>
<!-- W1&#45;&#45;W1 -->
<g id="edge10" class="edge">
<title>W1:w&#45;&#45;W1:e</title>
<path fill="none" stroke="#000000" stroke-width="2" d="M332.25,-240.25C424.83,-240.25 517.42,-240.25 610,-240.25"/>
<path fill="none" stroke="#ff0000" stroke-width="2" d="M332.25,-242.25C424.83,-242.25 517.42,-242.25 610,-242.25"/>
<path fill="none" stroke="#000000" stroke-width="2" d="M332.25,-244.25C424.83,-244.25 517.42,-244.25 610,-244.25"/>
</g>
<!-- W1&#45;&#45;W1 -->
<g id="edge11" class="edge">
<title>W1:w&#45;&#45;W1:e</title>
<path fill="none" stroke="#000000" stroke-width="2" d="M332.25,-214.25C424.83,-214.25 517.42,-214.25 610,-214.25"/>
<path fill="none" stroke="#ff8000" stroke-width="2" d="M332.25,-216.25C424.83,-216.25 517.42,-216.25 610,-216.25"/>
<path fill="none" stroke="#000000" stroke-width="2" d="M332.25,-218.25C424.83,-218.25 517.42,-218.25 610,-218.25"/>
</g>
<!-- W1&#45;&#45;W1 -->
<g id="edge12" class="edge">
<title>W1:w&#45;&#45;W1:e</title>
<path fill="none" stroke="#000000" stroke-width="2" d="M332.25,-188.25C424.83,-188.25 517.42,-188.25 610,-188.25"/>
<path fill="none" stroke="#ffff00" stroke-width="2" d="M332.25,-190.25C424.83,-190.25 517.42,-190.25 610,-190.25"/>
<path fill="none" stroke="#000000" stroke-width="2" d="M332.25,-192.25C424.83,-192.25 517.42,-192.25 610,-192.25"/>
</g>
<!-- W1&#45;&#45;W1 -->
<g id="edge13" class="edge">
<title>W1:w&#45;&#45;W1:e</title>
<path fill="none" stroke="#000000" stroke-width="2" d="M332.25,-146.25C424.83,-146.25 517.42,-146.25 610,-146.25"/>
</g>
<!-- X2 -->
<g id="node3" class="node">
<title>X2</title>
<polygon fill="#ffffff" stroke="black" points="961.5,-324 754,-324 754,-41.5 961.5,-41.5 961.5,-324"/>
<polygon fill="none" stroke="black" points="754,-299.5 754,-324 961.5,-324 961.5,-299.5 754,-299.5"/>
<text text-anchor="start" x="848.75" y="-306.7" font-family="arial" font-size="14.00">X2</text>
<polygon fill="none" stroke="black" points="754,-275 754,-299.5 857.67,-299.5 857.67,-275 754,-275"/>
<text text-anchor="start" x="761.21" y="-282.2" font-family="arial" font-size="14.00">Molex KK 254</text>
<polygon fill="none" stroke="black" points="857.67,-275 857.67,-299.5 915.58,-299.5 915.58,-275 857.67,-275"/>
<text text-anchor="start" x="864.88" y="-282.2" font-family="arial" font-size="14.00">female</text>
<polygon fill="none" stroke="black" points="915.58,-275 915.58,-299.5 961.5,-299.5 961.5,-275 915.58,-275"/>
<text text-anchor="start" x="922.79" y="-282.2" font-family="arial" font-size="14.00">7&#45;pin</text>
<polygon fill="none" stroke="black" points="754,-251 754,-275 846.25,-275 846.25,-251 754,-251"/>
<text text-anchor="start" x="796" y="-257.7" font-family="arial" font-size="14.00">1</text>
<polygon fill="none" stroke="black" points="846.25,-251 846.25,-275 961.5,-275 961.5,-251 846.25,-251"/>
<text text-anchor="start" x="888.13" y="-257.7" font-family="arial" font-size="14.00">GND</text>
<polygon fill="none" stroke="black" points="754,-227 754,-251 846.25,-251 846.25,-227 754,-227"/>
<text text-anchor="start" x="796" y="-233.7" font-family="arial" font-size="14.00">2</text>
<polygon fill="none" stroke="black" points="846.25,-227 846.25,-251 961.5,-251 961.5,-227 846.25,-227"/>
<text text-anchor="start" x="888.5" y="-233.7" font-family="arial" font-size="14.00">VCC</text>
<polygon fill="none" stroke="black" points="754,-203 754,-227 846.25,-227 846.25,-203 754,-203"/>
<text text-anchor="start" x="796" y="-209.7" font-family="arial" font-size="14.00">3</text>
<polygon fill="none" stroke="black" points="846.25,-203 846.25,-227 961.5,-227 961.5,-203 846.25,-203"/>
<text text-anchor="start" x="893.75" y="-209.7" font-family="arial" font-size="14.00">RX</text>
<polygon fill="none" stroke="black" points="754,-179 754,-203 846.25,-203 846.25,-179 754,-179"/>
<text text-anchor="start" x="796" y="-185.7" font-family="arial" font-size="14.00">4</text>
<polygon fill="none" stroke="black" points="846.25,-179 846.25,-203 961.5,-203 961.5,-179 846.25,-179"/>
<text text-anchor="start" x="894.5" y="-185.7" font-family="arial" font-size="14.00">TX</text>
<polygon fill="none" stroke="black" points="754,-155 754,-179 846.25,-179 846.25,-155 754,-155"/>
<text text-anchor="start" x="796" y="-161.7" font-family="arial" font-size="14.00">5</text>
<polygon fill="none" stroke="black" points="846.25,-155 846.25,-179 961.5,-179 961.5,-155 846.25,-155"/>
<text text-anchor="start" x="888.13" y="-161.7" font-family="arial" font-size="14.00">GND</text>
<polygon fill="none" stroke="black" points="754,-131 754,-155 846.25,-155 846.25,-131 754,-131"/>
<text text-anchor="start" x="796" y="-137.7" font-family="arial" font-size="14.00">6</text>
<polygon fill="none" stroke="black" points="846.25,-131 846.25,-155 961.5,-155 961.5,-131 846.25,-131"/>
<text text-anchor="start" x="888.5" y="-137.7" font-family="arial" font-size="14.00">VCC</text>
<polygon fill="none" stroke="black" points="754,-107 754,-131 846.25,-131 846.25,-107 754,-107"/>
<text text-anchor="start" x="796" y="-113.7" font-family="arial" font-size="14.00">7</text>
<polygon fill="none" stroke="black" points="846.25,-107 846.25,-131 961.5,-131 961.5,-107 846.25,-107"/>
<text text-anchor="start" x="888.13" y="-113.7" font-family="arial" font-size="14.00">GND</text>
<polygon fill="none" stroke="black" points="754,-82.5 754,-107 961.5,-107 961.5,-82.5 754,-82.5"/>
<text text-anchor="start" x="785.38" y="-89.7" font-family="arial" font-size="14.00">Additional components</text>
<polygon fill="none" stroke="black" points="754,-41.5 754,-82.5 961.5,-82.5 961.5,-41.5 754,-41.5"/>
<text text-anchor="start" x="758" y="-65.2" font-family="arial" font-size="14.00">42 mm x LO1; LO2 x loopPartC</text>
<text text-anchor="start" x="758" y="-48.7" font-family="arial" font-size="14.00">WireViz: 42XCD42A5</text>
</g>
<!-- W1&#45;&#45;X2 -->
<g id="edge14" class="edge">
<title>W1:e&#45;&#45;X2:w</title>
<path fill="none" stroke="#000000" stroke-width="2" d="M610,-266.25C673.41,-266.35 689.33,-261.1 754,-261"/>
<path fill="none" stroke="#895956" stroke-width="2" d="M610,-268.25C674.04,-268.25 689.96,-263 754,-263"/>
<path fill="none" stroke="#000000" stroke-width="2" d="M610,-270.25C674.67,-270.15 690.59,-264.9 754,-265"/>
</g>
<!-- W1&#45;&#45;X2 -->
<g id="edge15" class="edge">
<title>W1:e&#45;&#45;X2:w</title>
<path fill="none" stroke="#000000" stroke-width="2" d="M610,-240.25C673.62,-240.29 689.58,-237.04 754,-237"/>
<path fill="none" stroke="#ff0000" stroke-width="2" d="M610,-242.25C674.02,-242.25 689.98,-239 754,-239"/>
<path fill="none" stroke="#000000" stroke-width="2" d="M610,-244.25C674.42,-244.21 690.38,-240.96 754,-241"/>
</g>
<!-- W1&#45;&#45;X2 -->
<g id="edge16" class="edge">
<title>W1:e&#45;&#45;X2:w</title>
<path fill="none" stroke="#000000" stroke-width="2" d="M610,-214.25C673.23,-215.28 687.27,-190.03 754,-189"/>
<path fill="none" stroke="#ff8000" stroke-width="2" d="M610,-216.25C674.98,-216.25 689.02,-191 754,-191"/>
<path fill="none" stroke="#000000" stroke-width="2" d="M610,-218.25C676.73,-217.22 690.77,-191.97 754,-193"/>
</g>
<!-- W1&#45;&#45;X2 -->
<g id="edge17" class="edge">
<title>W1:e&#45;&#45;X2:w</title>
<path fill="none" stroke="#000000" stroke-width="2" d="M610,-188.25C676.68,-189.26 690.8,-214.01 754,-213"/>
<path fill="none" stroke="#ffff00" stroke-width="2" d="M610,-190.25C674.94,-190.25 689.06,-215 754,-215"/>
<path fill="none" stroke="#000000" stroke-width="2" d="M610,-192.25C673.2,-191.24 687.32,-215.99 754,-217"/>
</g>
<!-- X2&#45;&#45;X2 -->
<g id="edge18" class="edge">
<title>X2:w&#45;&#45;X2:w</title>
<path fill="none" stroke="#000000" stroke-width="2" d="M754.76,-264.85C724.71,-277 666.12,-277 664.12,-215 666.12,-153 724.71,-153 754.76,-165.15"/>
<path fill="none" stroke="#ff66cc" stroke-width="2" d="M754,-263C724.71,-275 666.12,-275 666.12,-215 666.12,-155 724.71,-155 754,-167"/>
<path fill="none" stroke="#000000" stroke-width="2" d="M753.24,-261.15C724.71,-273 666.12,-273 668.12,-215 666.12,-157 724.71,-157 753.24,-168.85"/>
<text text-anchor="middle" x="664.25" y="-177.7" font-family="arial" font-size="14.00"> </text>
</g>
<!-- X2&#45;&#45;X2 -->
<g id="edge19" class="edge">
<title>X2:w&#45;&#45;X2:w</title>
<path fill="none" stroke="#000000" stroke-width="2" d="M754.76,-168.85C724.71,-181 666.12,-181 664.12,-143 666.12,-105 724.71,-105 754.76,-117.15"/>
<path fill="none" stroke="#ff66cc" stroke-width="2" d="M754,-167C724.71,-179 666.12,-179 666.12,-143 666.12,-107 724.71,-107 754,-119"/>
<path fill="none" stroke="#000000" stroke-width="2" d="M753.24,-165.15C724.71,-177 666.12,-177 668.12,-143 666.12,-109 724.71,-109 753.24,-120.85"/>
<text text-anchor="middle" x="664.25" y="-177.7" font-family="arial" font-size="14.00"> </text>
</g>
<!-- X2&#45;&#45;X2 -->
<g id="edge20" class="edge">
<title>X2:w&#45;&#45;X2:w</title>
<path fill="none" stroke="#000000" stroke-width="2" d="M754.76,-240.85C724.71,-253 666.12,-253 664.12,-191 666.12,-129 724.71,-129 754.76,-141.15"/>
<path fill="none" stroke="#ff66cc" stroke-width="2" d="M754,-239C724.71,-251 666.12,-251 666.12,-191 666.12,-131 724.71,-131 754,-143"/>
<path fill="none" stroke="#000000" stroke-width="2" d="M753.24,-237.15C724.71,-249 666.12,-249 668.12,-191 666.12,-133 724.71,-133 753.24,-144.85"/>
<text text-anchor="middle" x="664.25" y="-177.7" font-family="arial" font-size="14.00"> </text>
</g>
</g>
</svg>
