<?xml version="1.0" encoding="UTF-8" standalone="no"?>
<!DOCTYPE svg PUBLIC "-//W3C//DTD SVG 1.1//EN"
 "http://www.w3.org/Graphics/SVG/1.1/DTD/svg11.dtd">
<!-- Generated by graphviz version 11.0.0 (20240428.1522)
 -->
<!-- Pages: 1 -->
<svg width="950pt" height="366pt"
 viewBox="0.00 0.00 950.25 366.25" xmlns="http://www.w3.org/2000/svg" xmlns:xlink="http://www.w3.org/1999/xlink">
<g id="graph0" class="graph" transform="scale(1 1) rotate(0) translate(4 362.25)">
<polygon fill="#ffffff" stroke="none" points="-4,4 -4,-362.25 946.25,-362.25 946.25,4 -4,4"/>
<!-- X1 -->
<g id="node1" class="node">
<title>X1</title>
<polygon fill="#ffffff" stroke="black" points="188.25,-323.5 0,-323.5 0,0 188.25,0 188.25,-323.5"/>
<polygon fill="none" stroke="black" points="0,-299 0,-323.5 188.25,-323.5 188.25,-299 0,-299"/>
<text text-anchor="start" x="85.13" y="-306.2" font-family="arial" font-size="14.00">X1</text>
<polygon fill="none" stroke="black" points="0,-274.5 0,-299 97.25,-299 97.25,-274.5 0,-274.5"/>
<text text-anchor="start" x="4" y="-281.7" font-family="arial" font-size="14.00">Molex KK 254</text>
<polygon fill="none" stroke="black" points="97.25,-274.5 97.25,-299 148.75,-299 148.75,-274.5 97.25,-274.5"/>
<text text-anchor="start" x="101.25" y="-281.7" font-family="arial" font-size="14.00">female</text>
<polygon fill="none" stroke="black" points="148.75,-274.5 148.75,-299 188.25,-299 188.25,-274.5 148.75,-274.5"/>
<text text-anchor="start" x="152.75" y="-281.7" font-family="arial" font-size="14.00">7&#45;pin</text>
<polygon fill="none" stroke="black" points="0,-250.5 0,-274.5 105.63,-274.5 105.63,-250.5 0,-250.5"/>
<text text-anchor="start" x="37.06" y="-257.2" font-family="arial" font-size="14.00">GND</text>
<polygon fill="none" stroke="black" points="105.63,-250.5 105.63,-274.5 188.25,-274.5 188.25,-250.5 105.63,-250.5"/>
<text text-anchor="start" x="142.81" y="-257.2" font-family="arial" font-size="14.00">1</text>
<polygon fill="none" stroke="black" points="0,-226.5 0,-250.5 105.63,-250.5 105.63,-226.5 0,-226.5"/>
<text text-anchor="start" x="37.44" y="-233.2" font-family="arial" font-size="14.00">VCC</text>
<polygon fill="none" stroke="black" points="105.63,-226.5 105.63,-250.5 188.25,-250.5 188.25,-226.5 105.63,-226.5"/>
<text text-anchor="start" x="142.81" y="-233.2" font-family="arial" font-size="14.00">2</text>
<polygon fill="none" stroke="black" points="0,-202.5 0,-226.5 105.63,-226.5 105.63,-202.5 0,-202.5"/>
<text text-anchor="start" x="42.69" y="-209.2" font-family="arial" font-size="14.00">RX</text>
<polygon fill="none" stroke="black" points="105.63,-202.5 105.63,-226.5 188.25,-226.5 188.25,-202.5 105.63,-202.5"/>
<text text-anchor="start" x="142.81" y="-209.2" font-family="arial" font-size="14.00">3</text>
<polygon fill="none" stroke="black" points="0,-178.5 0,-202.5 105.63,-202.5 105.63,-178.5 0,-178.5"/>
<text text-anchor="start" x="43.44" y="-185.2" font-family="arial" font-size="14.00">TX</text>
<polygon fill="none" stroke="black" points="105.63,-178.5 105.63,-202.5 188.25,-202.5 188.25,-178.5 105.63,-178.5"/>
<text text-anchor="start" x="142.81" y="-185.2" font-family="arial" font-size="14.00">4</text>
<polygon fill="none" stroke="black" points="0,-154.5 0,-178.5 105.63,-178.5 105.63,-154.5 0,-154.5"/>
<text text-anchor="start" x="37.06" y="-161.2" font-family="arial" font-size="14.00">GND</text>
<polygon fill="none" stroke="black" points="105.63,-154.5 105.63,-178.5 188.25,-178.5 188.25,-154.5 105.63,-154.5"/>
<text text-anchor="start" x="142.81" y="-161.2" font-family="arial" font-size="14.00">5</text>
<polygon fill="none" stroke="black" points="0,-130.5 0,-154.5 105.63,-154.5 105.63,-130.5 0,-130.5"/>
<text text-anchor="start" x="37.44" y="-137.2" font-family="arial" font-size="14.00">VCC</text>
<polygon fill="none" stroke="black" points="105.63,-130.5 105.63,-154.5 188.25,-154.5 188.25,-130.5 105.63,-130.5"/>
<text text-anchor="start" x="142.81" y="-137.2" font-family="arial" font-size="14.00">6</text>
<polygon fill="none" stroke="black" points="0,-106.5 0,-130.5 105.63,-130.5 105.63,-106.5 0,-106.5"/>
<text text-anchor="start" x="37.06" y="-113.2" font-family="arial" font-size="14.00">GND</text>
<polygon fill="none" stroke="black" points="105.63,-106.5 105.63,-130.5 188.25,-130.5 188.25,-106.5 105.63,-106.5"/>
<text text-anchor="start" x="142.81" y="-113.2" font-family="arial" font-size="14.00">7</text>
<polygon fill="none" stroke="black" points="0,-82 0,-106.5 188.25,-106.5 188.25,-82 0,-82"/>
<text text-anchor="start" x="21.75" y="-89.2" font-family="arial" font-size="14.00">Additional components</text>
<polygon fill="none" stroke="black" points="0,-41 0,-82 188.25,-82 188.25,-41 0,-41"/>
<text text-anchor="start" x="4" y="-64.7" font-family="arial" font-size="14.00">42 mm x shortPartA</text>
<text text-anchor="start" x="4" y="-48.2" font-family="arial" font-size="14.00">WireViz: 42XCD42A5</text>
<polygon fill="none" stroke="black" points="0,0 0,-41 188.25,-41 188.25,0 0,0"/>
<text text-anchor="start" x="4" y="-23.7" font-family="arial" font-size="14.00">74 mm x shortPartB</text>
<text text-anchor="start" x="4" y="-7.2" font-family="arial" font-size="14.00">WireViz: 42XCD42A5</text>
</g>
<!-- X1&#45;&#45;X1 -->
<g id="edge1" class="edge">
<title>X1:e&#45;&#45;X1:e</title>
<path fill="none" stroke="#000000" stroke-width="2" d="M188.63,-260.54C251.08,-272.5 376.75,-272.5 374.75,-214.5 376.75,-156.5 251.08,-156.5 188.63,-168.47"/>
<path fill="none" stroke="#ff66cc" stroke-width="2" d="M188.25,-262.5C251.08,-274.5 376.75,-274.5 376.75,-214.5 376.75,-154.5 251.08,-154.5 188.25,-166.5"/>
<path fill="none" stroke="#000000" stroke-width="2" d="M187.88,-264.47C251.08,-276.5 376.75,-276.5 378.75,-214.5 376.75,-152.5 251.08,-152.5 187.88,-164.54"/>
</g>
<!-- X1&#45;&#45;X1 -->
<g id="edge2" class="edge">
<title>X1:e&#45;&#45;X1:e</title>
<path fill="none" stroke="#000000" stroke-width="2" d="M188.63,-164.54C251.08,-176.5 376.75,-176.5 374.75,-142.5 376.75,-108.5 251.08,-108.5 188.63,-120.47"/>
<path fill="none" stroke="#ff66cc" stroke-width="2" d="M188.25,-166.5C251.08,-178.5 376.75,-178.5 376.75,-142.5 376.75,-106.5 251.08,-106.5 188.25,-118.5"/>
<path fill="none" stroke="#000000" stroke-width="2" d="M187.88,-168.47C251.08,-180.5 376.75,-180.5 378.75,-142.5 376.75,-104.5 251.08,-104.5 187.88,-116.54"/>
</g>
<!-- X1&#45;&#45;X1 -->
<g id="edge3" class="edge">
<title>X1:e&#45;&#45;X1:e</title>
<path fill="none" stroke="#000000" stroke-width="2" d="M188.63,-236.54C251.08,-248.5 376.75,-248.5 374.75,-190.5 376.75,-132.5 251.08,-132.5 188.63,-144.47"/>
<path fill="none" stroke="#ff0000" stroke-width="2" d="M188.25,-238.5C251.08,-250.5 376.75,-250.5 376.75,-190.5 376.75,-130.5 251.08,-130.5 188.25,-142.5"/>
<path fill="none" stroke="#000000" stroke-width="2" d="M187.88,-240.47C251.08,-252.5 376.75,-252.5 378.75,-190.5 376.75,-128.5 251.08,-128.5 187.88,-140.54"/>
</g>
<!-- W1 -->
<g id="node2" class="node">
<title>W1</title>
<polygon fill="#ffffff" stroke="black" points="610,-358.25 332.25,-358.25 332.25,-123.25 610,-123.25 610,-358.25"/>
<polygon fill="none" stroke="black" points="332.25,-333.75 332.25,-358.25 610,-358.25 610,-333.75 332.25,-333.75"/>
<text text-anchor="start" x="459.87" y="-340.95" font-family="arial" font-size="14.00">W1</text>
<polygon fill="none" stroke="black" points="332.25,-309.25 332.25,-333.75 376.25,-333.75 376.25,-309.25 332.25,-309.25"/>
<text text-anchor="start" x="336.25" y="-316.45" font-family="arial" font-size="14.00">Serial</text>
<polygon fill="none" stroke="black" points="376.25,-309.25 376.25,-333.75 399.25,-333.75 399.25,-309.25 376.25,-309.25"/>
<text text-anchor="start" x="380.25" y="-316.45" font-family="arial" font-size="14.00">4x</text>
<polygon fill="none" stroke="black" points="399.25,-309.25 399.25,-333.75 536.25,-333.75 536.25,-309.25 399.25,-309.25"/>
<text text-anchor="start" x="403.25" y="-316.45" font-family="arial" font-size="14.00">0.25 mm² (24 AWG)</text>
<polygon fill="none" stroke="black" points="536.25,-309.25 536.25,-333.75 566,-333.75 566,-309.25 536.25,-309.25"/>
<text text-anchor="start" x="540.25" y="-316.45" font-family="arial" font-size="14.00">+ S</text>
<polygon fill="none" stroke="black" points="566,-309.25 566,-333.75 610,-333.75 610,-309.25 566,-309.25"/>
<text text-anchor="start" x="570" y="-316.45" font-family="arial" font-size="14.00">0.2 m</text>
<text text-anchor="start" x="376.16" y="-293.95" font-family="arial" font-size="14.00"> </text>
<text text-anchor="start" x="345.41" y="-273.95" font-family="arial" font-size="14.00">X1:1:GND</text>
<text text-anchor="start" x="438.5" y="-273.95" font-family="arial" font-size="14.00"> &#160;&#160;&#160;&#160;1:BN &#160;&#160;&#160;</text>
<text text-anchor="start" x="531.58" y="-273.95" font-family="arial" font-size="14.00">X2:1:GND</text>
<polygon fill="#000000" stroke="none" points="332.25,-267.25 332.25,-269.25 610,-269.25 610,-267.25 332.25,-267.25"/>
<polygon fill="#895956" stroke="none" points="332.25,-265.25 332.25,-267.25 610,-267.25 610,-265.25 332.25,-265.25"/>
<polygon fill="#000000" stroke="none" points="332.25,-263.25 332.25,-265.25 610,-265.25 610,-263.25 332.25,-263.25"/>
<text text-anchor="start" x="345.79" y="-247.95" font-family="arial" font-size="14.00">X1:2:VCC</text>
<text text-anchor="start" x="437.75" y="-247.95" font-family="arial" font-size="14.00"> &#160;&#160;&#160;&#160;2:RD &#160;&#160;&#160;</text>
<text text-anchor="start" x="531.95" y="-247.95" font-family="arial" font-size="14.00">X2:2:VCC</text>
<polygon fill="#000000" stroke="none" points="332.25,-241.25 332.25,-243.25 610,-243.25 610,-241.25 332.25,-241.25"/>
<polygon fill="#ff0000" stroke="none" points="332.25,-239.25 332.25,-241.25 610,-241.25 610,-239.25 332.25,-239.25"/>
<polygon fill="#000000" stroke="none" points="332.25,-237.25 332.25,-239.25 610,-239.25 610,-237.25 332.25,-237.25"/>
<text text-anchor="start" x="351.04" y="-221.95" font-family="arial" font-size="14.00">X1:3:RX</text>
<text text-anchor="start" x="437" y="-221.95" font-family="arial" font-size="14.00"> &#160;&#160;&#160;&#160;3:OG &#160;&#160;&#160;</text>
<text text-anchor="start" x="537.95" y="-221.95" font-family="arial" font-size="14.00">X2:4:TX</text>
<polygon fill="#000000" stroke="none" points="332.25,-215.25 332.25,-217.25 610,-217.25 610,-215.25 332.25,-215.25"/>
<polygon fill="#ff8000" stroke="none" points="332.25,-213.25 332.25,-215.25 610,-215.25 610,-213.25 332.25,-213.25"/>
<polygon fill="#000000" stroke="none" points="332.25,-211.25 332.25,-213.25 610,-213.25 610,-211.25 332.25,-211.25"/>
<text text-anchor="start" x="351.79" y="-195.95" font-family="arial" font-size="14.00">X1:4:TX</text>
<text text-anchor="start" x="438.87" y="-195.95" font-family="arial" font-size="14.00"> &#160;&#160;&#160;&#160;4:YE &#160;&#160;&#160;</text>
<text text-anchor="start" x="537.2" y="-195.95" font-family="arial" font-size="14.00">X2:3:RX</text>
<polygon fill="#000000" stroke="none" points="332.25,-189.25 332.25,-191.25 610,-191.25 610,-189.25 332.25,-189.25"/>
<polygon fill="#ffff00" stroke="none" points="332.25,-187.25 332.25,-189.25 610,-189.25 610,-187.25 332.25,-187.25"/>
<polygon fill="#000000" stroke="none" points="332.25,-185.25 332.25,-187.25 610,-187.25 610,-185.25 332.25,-185.25"/>
<text text-anchor="start" x="376.16" y="-169.95" font-family="arial" font-size="14.00"> </text>
<text text-anchor="start" x="345.41" y="-149.95" font-family="arial" font-size="14.00">X1:1:GND</text>
<text text-anchor="start" x="451.25" y="-149.95" font-family="arial" font-size="14.00">Shield</text>
<polygon fill="#000000" stroke="none" points="332.25,-143.25 332.25,-145.25 610,-145.25 610,-143.25 332.25,-143.25"/>
<text text-anchor="start" x="376.16" y="-127.95" font-family="arial" font-size="14.00"> </text>
</g>
<!-- X1&#45;&#45;W1 -->
<g id="edge4" class="edge">
<title>X1:e&#45;&#45;W1:w</title>
<path fill="none" stroke="#000000" stroke-width="2" d="M188.25,-260.5C252.73,-260.55 268.69,-264.3 332.25,-264.25"/>
<path fill="none" stroke="#895956" stroke-width="2" d="M188.25,-262.5C252.27,-262.5 268.23,-266.25 332.25,-266.25"/>
<path fill="none" stroke="#000000" stroke-width="2" d="M188.25,-264.5C251.81,-264.45 267.77,-268.2 332.25,-268.25"/>
</g>
<!-- X1&#45;&#45;W1 -->
<g id="edge5" class="edge">
<title>X1:e&#45;&#45;W1:w</title>
<path fill="none" stroke="#000000" stroke-width="2" d="M188.25,-236.5C252.47,-236.51 268.47,-238.26 332.25,-238.25"/>
<path fill="none" stroke="#ff0000" stroke-width="2" d="M188.25,-238.5C252.25,-238.5 268.25,-240.25 332.25,-240.25"/>
<path fill="none" stroke="#000000" stroke-width="2" d="M188.25,-240.5C252.03,-240.49 268.03,-242.24 332.25,-242.25"/>
</g>
<!-- X1&#45;&#45;W1 -->
<g id="edge6" class="edge">
<title>X1:e&#45;&#45;W1:w</title>
<path fill="none" stroke="#000000" stroke-width="2" d="M188.25,-212.5C252.22,-212.5 268.22,-212.25 332.25,-212.25"/>
<path fill="none" stroke="#ff8000" stroke-width="2" d="M188.25,-214.5C252.25,-214.5 268.25,-214.25 332.25,-214.25"/>
<path fill="none" stroke="#000000" stroke-width="2" d="M188.25,-216.5C252.28,-216.5 268.28,-216.25 332.25,-216.25"/>
</g>
<!-- X1&#45;&#45;W1 -->
<g id="edge7" class="edge">
<title>X1:e&#45;&#45;W1:w</title>
<path fill="none" stroke="#000000" stroke-width="2" d="M188.25,-188.5C251.98,-188.52 267.96,-186.27 332.25,-186.25"/>
<path fill="none" stroke="#ffff00" stroke-width="2" d="M188.25,-190.5C252.26,-190.5 268.24,-188.25 332.25,-188.25"/>
<path fill="none" stroke="#000000" stroke-width="2" d="M188.25,-192.5C252.54,-192.48 268.52,-190.23 332.25,-190.25"/>
</g>
<!-- X1&#45;&#45;W1 -->
<g id="edge8" class="edge">
<title>X1:e&#45;&#45;W1:w</title>
<path fill="none" stroke="#000000" stroke-width="2" d="M188.25,-262.5C271.06,-262.5 249.44,-144.25 332.25,-144.25"/>
</g>
<!-- X2 -->
<g id="node3" class="node">
<title>X2</title>
<polygon fill="#ffffff" stroke="black" points="942.25,-327 754,-327 754,-44.5 942.25,-44.5 942.25,-327"/>
<polygon fill="none" stroke="black" points="754,-302.5 754,-327 942.25,-327 942.25,-302.5 754,-302.5"/>
<text text-anchor="start" x="839.12" y="-309.7" font-family="arial" font-size="14.00">X2</text>
<polygon fill="none" stroke="black" points="754,-278 754,-302.5 851.25,-302.5 851.25,-278 754,-278"/>
<text text-anchor="start" x="758" y="-285.2" font-family="arial" font-size="14.00">Molex KK 254</text>
<polygon fill="none" stroke="black" points="851.25,-278 851.25,-302.5 902.75,-302.5 902.75,-278 851.25,-278"/>
<text text-anchor="start" x="855.25" y="-285.2" font-family="arial" font-size="14.00">female</text>
<polygon fill="none" stroke="black" points="902.75,-278 902.75,-302.5 942.25,-302.5 942.25,-278 902.75,-278"/>
<text text-anchor="start" x="906.75" y="-285.2" font-family="arial" font-size="14.00">7&#45;pin</text>
<polygon fill="none" stroke="black" points="754,-254 754,-278 836.62,-278 836.62,-254 754,-254"/>
<text text-anchor="start" x="791.18" y="-260.7" font-family="arial" font-size="14.00">1</text>
<polygon fill="none" stroke="black" points="836.62,-254 836.62,-278 942.25,-278 942.25,-254 836.62,-254"/>
<text text-anchor="start" x="873.68" y="-260.7" font-family="arial" font-size="14.00">GND</text>
<polygon fill="none" stroke="black" points="754,-230 754,-254 836.62,-254 836.62,-230 754,-230"/>
<text text-anchor="start" x="791.18" y="-236.7" font-family="arial" font-size="14.00">2</text>
<polygon fill="none" stroke="black" points="836.62,-230 836.62,-254 942.25,-254 942.25,-230 836.62,-230"/>
<text text-anchor="start" x="874.06" y="-236.7" font-family="arial" font-size="14.00">VCC</text>
<polygon fill="none" stroke="black" points="754,-206 754,-230 836.62,-230 836.62,-206 754,-206"/>
<text text-anchor="start" x="791.18" y="-212.7" font-family="arial" font-size="14.00">3</text>
<polygon fill="none" stroke="black" points="836.62,-206 836.62,-230 942.25,-230 942.25,-206 836.62,-206"/>
<text text-anchor="start" x="879.31" y="-212.7" font-family="arial" font-size="14.00">RX</text>
<polygon fill="none" stroke="black" points="754,-182 754,-206 836.62,-206 836.62,-182 754,-182"/>
<text text-anchor="start" x="791.18" y="-188.7" font-family="arial" font-size="14.00">4</text>
<polygon fill="none" stroke="black" points="836.62,-182 836.62,-206 942.25,-206 942.25,-182 836.62,-182"/>
<text text-anchor="start" x="880.06" y="-188.7" font-family="arial" font-size="14.00">TX</text>
<polygon fill="none" stroke="black" points="754,-158 754,-182 836.62,-182 836.62,-158 754,-158"/>
<text text-anchor="start" x="791.18" y="-164.7" font-family="arial" font-size="14.00">5</text>
<polygon fill="none" stroke="black" points="836.62,-158 836.62,-182 942.25,-182 942.25,-158 836.62,-158"/>
<text text-anchor="start" x="873.68" y="-164.7" font-family="arial" font-size="14.00">GND</text>
<polygon fill="none" stroke="black" points="754,-134 754,-158 836.62,-158 836.62,-134 754,-134"/>
<text text-anchor="start" x="791.18" y="-140.7" font-family="arial" font-size="14.00">6</text>
<polygon fill="none" stroke="black" points="836.62,-134 836.62,-158 942.25,-158 942.25,-134 836.62,-134"/>
<text text-anchor="start" x="874.06" y="-140.7" font-family="arial" font-size="14.00">VCC</text>
<polygon fill="none" stroke="black" points="754,-110 754,-134 836.62,-134 836.62,-110 754,-110"/>
<text text-anchor="start" x="791.18" y="-116.7" font-family="arial" font-size="14.00">7</text>
<polygon fill="none" stroke="black" points="836.62,-110 836.62,-134 942.25,-134 942.25,-110 836.62,-110"/>
<text text-anchor="start" x="873.68" y="-116.7" font-family="arial" font-size="14.00">GND</text>
<polygon fill="none" stroke="black" points="754,-85.5 754,-110 942.25,-110 942.25,-85.5 754,-85.5"/>
<text text-anchor="start" x="775.75" y="-92.7" font-family="arial" font-size="14.00">Additional components</text>
<polygon fill="none" stroke="black" points="754,-44.5 754,-85.5 942.25,-85.5 942.25,-44.5 754,-44.5"/>
<text text-anchor="start" x="758" y="-68.2" font-family="arial" font-size="14.00">42 mm x shortPartC</text>
<text text-anchor="start" x="758" y="-51.7" font-family="arial" font-size="14.00">WireViz: 42XCD42A5</text>
</g>
<!-- W1&#45;&#45;X2 -->
<g id="edge9" class="edge">
<title>W1:e&#45;&#45;X2:w</title>
<path fill="none" stroke="#000000" stroke-width="2" d="M610,-264.25C673.97,-264.25 689.97,-264 754,-264"/>
<path fill="none" stroke="#895956" stroke-width="2" d="M610,-266.25C674,-266.25 690,-266 754,-266"/>
<path fill="none" stroke="#000000" stroke-width="2" d="M610,-268.25C674.03,-268.25 690.03,-268 754,-268"/>
</g>
<!-- W1&#45;&#45;X2 -->
<g id="edge10" class="edge">
<title>W1:e&#45;&#45;X2:w</title>
<path fill="none" stroke="#000000" stroke-width="2" d="M610,-238.25C674.22,-238.26 690.22,-240.01 754,-240"/>
<path fill="none" stroke="#ff0000" stroke-width="2" d="M610,-240.25C674,-240.25 690,-242 754,-242"/>
<path fill="none" stroke="#000000" stroke-width="2" d="M610,-242.25C673.78,-242.24 689.78,-243.99 754,-244"/>
</g>
<!-- W1&#45;&#45;X2 -->
<g id="edge11" class="edge">
<title>W1:e&#45;&#45;X2:w</title>
<path fill="none" stroke="#000000" stroke-width="2" d="M610,-212.25C673.01,-213.07 687.75,-192.82 754,-192"/>
<path fill="none" stroke="#ff8000" stroke-width="2" d="M610,-214.25C674.63,-214.25 689.37,-194 754,-194"/>
<path fill="none" stroke="#000000" stroke-width="2" d="M610,-216.25C676.25,-215.43 690.99,-195.18 754,-196"/>
</g>
<!-- W1&#45;&#45;X2 -->
<g id="edge12" class="edge">
<title>W1:e&#45;&#45;X2:w</title>
<path fill="none" stroke="#000000" stroke-width="2" d="M610,-186.25C677.18,-187.44 690.48,-217.19 754,-216"/>
<path fill="none" stroke="#ffff00" stroke-width="2" d="M610,-188.25C675.35,-188.25 688.65,-218 754,-218"/>
<path fill="none" stroke="#000000" stroke-width="2" d="M610,-190.25C673.52,-189.07 686.82,-218.82 754,-220"/>
</g>
<!-- X2&#45;&#45;X2 -->
<g id="edge13" class="edge">
<title>X2:w&#45;&#45;X2:w</title>
<path fill="none" stroke="#000000" stroke-width="2" d="M754.38,-267.97C691.17,-280 565.5,-280 563.5,-218 565.5,-156 691.17,-156 754.38,-168.04"/>
<path fill="none" stroke="#ff66cc" stroke-width="2" d="M754,-266C691.17,-278 565.5,-278 565.5,-218 565.5,-158 691.17,-158 754,-170"/>
<path fill="none" stroke="#000000" stroke-width="2" d="M753.63,-264.04C691.17,-276 565.5,-276 567.5,-218 565.5,-160 691.17,-160 753.63,-171.97"/>
</g>
<!-- X2&#45;&#45;X2 -->
<g id="edge14" class="edge">
<title>X2:w&#45;&#45;X2:w</title>
<path fill="none" stroke="#000000" stroke-width="2" d="M754.38,-171.97C691.17,-184 565.5,-184 563.5,-146 565.5,-108 691.17,-108 754.38,-120.04"/>
<path fill="none" stroke="#ff66cc" stroke-width="2" d="M754,-170C691.17,-182 565.5,-182 565.5,-146 565.5,-110 691.17,-110 754,-122"/>
<path fill="none" stroke="#000000" stroke-width="2" d="M753.63,-168.04C691.17,-180 565.5,-180 567.5,-146 565.5,-112 691.17,-112 753.63,-123.97"/>
</g>
<!-- X2&#45;&#45;X2 -->
<g id="edge15" class="edge">
<title>X2:w&#45;&#45;X2:w</title>
<path fill="none" stroke="#000000" stroke-width="2" d="M754.38,-243.97C691.17,-256 565.5,-256 563.5,-194 565.5,-132 691.17,-132 754.38,-144.04"/>
<path fill="none" stroke="#ff66cc" stroke-width="2" d="M754,-242C691.17,-254 565.5,-254 565.5,-194 565.5,-134 691.17,-134 754,-146"/>
<path fill="none" stroke="#000000" stroke-width="2" d="M753.63,-240.04C691.17,-252 565.5,-252 567.5,-194 565.5,-136 691.17,-136 753.63,-147.97"/>
</g>
</g>
</svg>
