<?xml version="1.0" encoding="UTF-8" standalone="no"?>
<!DOCTYPE svg PUBLIC "-//W3C//DTD SVG 1.1//EN"
 "http://www.w3.org/Graphics/SVG/1.1/DTD/svg11.dtd">
<!-- Generated by graphviz version 2.44.0 (20200408.0750)
 -->
<!-- Pages: 1 -->
<svg width="930pt" height="526pt"
 viewBox="0.00 0.00 930.00 525.50" xmlns="http://www.w3.org/2000/svg" xmlns:xlink="http://www.w3.org/1999/xlink">
<g id="graph0" class="graph" transform="scale(1 1) rotate(0) translate(4 521.5)">
<!-- X1 -->
<g id="node1" class="node">
<title>X1</title>
<path fill="white" stroke="black" d="M12,-130C12,-130 194,-130 194,-130 200,-130 206,-136 206,-142 206,-142 206,-348 206,-348 206,-354 200,-360 194,-360 194,-360 12,-360 12,-360 6,-360 0,-354 0,-348 0,-348 0,-142 0,-142 0,-136 6,-130 12,-130"/>
<text text-anchor="middle" x="103" y="-344.8" font-family="arial" font-size="14.00">X1</text>
<polyline fill="none" stroke="black" points="0,-337 206,-337 "/>
<text text-anchor="middle" x="50.5" y="-321.8" font-family="arial" font-size="14.00">Molex KK 254</text>
<polyline fill="none" stroke="black" points="101,-314 101,-337 "/>
<text text-anchor="middle" x="130" y="-321.8" font-family="arial" font-size="14.00">female</text>
<polyline fill="none" stroke="black" points="159,-314 159,-337 "/>
<text text-anchor="middle" x="182.5" y="-321.8" font-family="arial" font-size="14.00">8&#45;pin</text>
<polyline fill="none" stroke="black" points="0,-314 206,-314 "/>
<text text-anchor="middle" x="58.5" y="-298.8" font-family="arial" font-size="14.00">GND</text>
<polyline fill="none" stroke="black" points="0,-291 117,-291 "/>
<text text-anchor="middle" x="58.5" y="-275.8" font-family="arial" font-size="14.00">+5V</text>
<polyline fill="none" stroke="black" points="0,-268 117,-268 "/>
<text text-anchor="middle" x="58.5" y="-252.8" font-family="arial" font-size="14.00">SCL</text>
<polyline fill="none" stroke="black" points="0,-245 117,-245 "/>
<text text-anchor="middle" x="58.5" y="-229.8" font-family="arial" font-size="14.00">SDA</text>
<polyline fill="none" stroke="black" points="0,-222 117,-222 "/>
<text text-anchor="middle" x="58.5" y="-206.8" font-family="arial" font-size="14.00">MISO</text>
<polyline fill="none" stroke="black" points="0,-199 117,-199 "/>
<text text-anchor="middle" x="58.5" y="-183.8" font-family="arial" font-size="14.00">MOSI</text>
<polyline fill="none" stroke="black" points="0,-176 117,-176 "/>
<text text-anchor="middle" x="58.5" y="-160.8" font-family="arial" font-size="14.00">SCK</text>
<polyline fill="none" stroke="black" points="0,-153 117,-153 "/>
<text text-anchor="middle" x="58.5" y="-137.8" font-family="arial" font-size="14.00">N/C</text>
<polyline fill="none" stroke="black" points="117,-130 117,-314 "/>
<text text-anchor="middle" x="161.5" y="-298.8" font-family="arial" font-size="14.00">1</text>
<polyline fill="none" stroke="black" points="117,-291 206,-291 "/>
<text text-anchor="middle" x="161.5" y="-275.8" font-family="arial" font-size="14.00">2</text>
<polyline fill="none" stroke="black" points="117,-268 206,-268 "/>
<text text-anchor="middle" x="161.5" y="-252.8" font-family="arial" font-size="14.00">3</text>
<polyline fill="none" stroke="black" points="117,-245 206,-245 "/>
<text text-anchor="middle" x="161.5" y="-229.8" font-family="arial" font-size="14.00">4</text>
<polyline fill="none" stroke="black" points="117,-222 206,-222 "/>
<text text-anchor="middle" x="161.5" y="-206.8" font-family="arial" font-size="14.00">5</text>
<polyline fill="none" stroke="black" points="117,-199 206,-199 "/>
<text text-anchor="middle" x="161.5" y="-183.8" font-family="arial" font-size="14.00">6</text>
<polyline fill="none" stroke="black" points="117,-176 206,-176 "/>
<text text-anchor="middle" x="161.5" y="-160.8" font-family="arial" font-size="14.00">7</text>
<polyline fill="none" stroke="black" points="117,-153 206,-153 "/>
<text text-anchor="middle" x="161.5" y="-137.8" font-family="arial" font-size="14.00">8</text>
</g>
<!-- W1 -->
<g id="node6" class="node">
<title>W1</title>
<path fill="white" stroke="black" d="M362,-367.5C362,-367.5 560,-367.5 560,-367.5 566,-367.5 572,-373.5 572,-379.5 572,-379.5 572,-470.5 572,-470.5 572,-476.5 566,-482.5 560,-482.5 560,-482.5 362,-482.5 362,-482.5 356,-482.5 350,-476.5 350,-470.5 350,-470.5 350,-379.5 350,-379.5 350,-373.5 356,-367.5 362,-367.5"/>
<text text-anchor="middle" x="365.5" y="-467.3" font-family="arial" font-size="14.00">4x</text>
<polyline fill="none" stroke="black" points="381,-459.5 381,-482.5 "/>
<text text-anchor="middle" x="451" y="-467.3" font-family="arial" font-size="14.00">0.14 mm² (26 AWG)</text>
<polyline fill="none" stroke="black" points="521,-459.5 521,-482.5 "/>
<text text-anchor="middle" x="546.5" y="-467.3" font-family="arial" font-size="14.00">0.2 m</text>
<polyline fill="none" stroke="black" points="350,-459.5 572,-459.5 "/>
<text text-anchor="middle" x="461" y="-444.3" font-family="arial" font-size="14.00">BK</text>
<polyline fill="none" stroke="black" points="350,-436.5 572,-436.5 "/>
<text text-anchor="middle" x="461" y="-421.3" font-family="arial" font-size="14.00">RD</text>
<polyline fill="none" stroke="black" points="350,-413.5 572,-413.5 "/>
<text text-anchor="middle" x="461" y="-398.3" font-family="arial" font-size="14.00">YE</text>
<polyline fill="none" stroke="black" points="350,-390.5 572,-390.5 "/>
<text text-anchor="middle" x="461" y="-375.3" font-family="arial" font-size="14.00">GN</text>
</g>
<!-- X1&#45;&#45;W1 -->
<g id="edge1" class="edge">
<title>X1:p1&#45;&#45;W1:w1</title>
<path fill="none" stroke="#000000" stroke-width="2" d="M206,-301C298.76,-303.5 261.11,-448.5 350,-446"/>
<path fill="none" stroke="#000000" stroke-width="2" d="M206,-303C296.82,-303 259.18,-448 350,-448"/>
<path fill="none" stroke="#000000" stroke-width="2" d="M206,-305C294.89,-302.5 257.24,-447.5 350,-450"/>
</g>
<!-- X1&#45;&#45;W1 -->
<g id="edge3" class="edge">
<title>X1:p2&#45;&#45;W1:w2</title>
<path fill="none" stroke="#000000" stroke-width="2" d="M206,-278C298.76,-280.5 261.11,-425.5 350,-423"/>
<path fill="none" stroke="#ff0000" stroke-width="2" d="M206,-280C296.82,-280 259.18,-425 350,-425"/>
<path fill="none" stroke="#000000" stroke-width="2" d="M206,-282C294.89,-279.5 257.24,-424.5 350,-427"/>
</g>
<!-- X1&#45;&#45;W1 -->
<g id="edge5" class="edge">
<title>X1:p3&#45;&#45;W1:w3</title>
<path fill="none" stroke="#000000" stroke-width="2" d="M206,-255C298.76,-257.5 261.11,-402.5 350,-400"/>
<path fill="none" stroke="#ffff00" stroke-width="2" d="M206,-257C296.82,-257 259.18,-402 350,-402"/>
<path fill="none" stroke="#000000" stroke-width="2" d="M206,-259C294.89,-256.5 257.24,-401.5 350,-404"/>
</g>
<!-- X1&#45;&#45;W1 -->
<g id="edge7" class="edge">
<title>X1:p4&#45;&#45;W1:w4</title>
<path fill="none" stroke="#000000" stroke-width="2" d="M206,-231C299.07,-233.51 260.79,-379.51 350,-377"/>
<path fill="none" stroke="#00ff00" stroke-width="2" d="M206,-233C297.14,-233 258.86,-379 350,-379"/>
<path fill="none" stroke="#000000" stroke-width="2" d="M206,-235C295.21,-232.49 256.93,-378.49 350,-381"/>
</g>
<!-- W2 -->
<g id="node7" class="node">
<title>W2</title>
<path fill="white" stroke="black" d="M362,-222.5C362,-222.5 560,-222.5 560,-222.5 566,-222.5 572,-228.5 572,-234.5 572,-234.5 572,-325.5 572,-325.5 572,-331.5 566,-337.5 560,-337.5 560,-337.5 362,-337.5 362,-337.5 356,-337.5 350,-331.5 350,-325.5 350,-325.5 350,-234.5 350,-234.5 350,-228.5 356,-222.5 362,-222.5"/>
<text text-anchor="middle" x="365.5" y="-322.3" font-family="arial" font-size="14.00">4x</text>
<polyline fill="none" stroke="black" points="381,-314.5 381,-337.5 "/>
<text text-anchor="middle" x="451" y="-322.3" font-family="arial" font-size="14.00">0.14 mm² (26 AWG)</text>
<polyline fill="none" stroke="black" points="521,-314.5 521,-337.5 "/>
<text text-anchor="middle" x="546.5" y="-322.3" font-family="arial" font-size="14.00">0.2 m</text>
<polyline fill="none" stroke="black" points="350,-314.5 572,-314.5 "/>
<text text-anchor="middle" x="461" y="-299.3" font-family="arial" font-size="14.00">BK</text>
<polyline fill="none" stroke="black" points="350,-291.5 572,-291.5 "/>
<text text-anchor="middle" x="461" y="-276.3" font-family="arial" font-size="14.00">RD</text>
<polyline fill="none" stroke="black" points="350,-268.5 572,-268.5 "/>
<text text-anchor="middle" x="461" y="-253.3" font-family="arial" font-size="14.00">YE</text>
<polyline fill="none" stroke="black" points="350,-245.5 572,-245.5 "/>
<text text-anchor="middle" x="461" y="-230.3" font-family="arial" font-size="14.00">GN</text>
</g>
<!-- X1&#45;&#45;W2 -->
<g id="edge9" class="edge">
<title>X1:p1&#45;&#45;W2:w1</title>
<path fill="none" stroke="#000000" stroke-width="2" d="M206,-301C270,-301 286,-301 350,-301"/>
<path fill="none" stroke="#000000" stroke-width="2" d="M206,-303C270,-303 286,-303 350,-303"/>
<path fill="none" stroke="#000000" stroke-width="2" d="M206,-305C270,-305 286,-305 350,-305"/>
</g>
<!-- X1&#45;&#45;W2 -->
<g id="edge11" class="edge">
<title>X1:p2&#45;&#45;W2:w2</title>
<path fill="none" stroke="#000000" stroke-width="2" d="M206,-278C270,-278 286,-278 350,-278"/>
<path fill="none" stroke="#ff0000" stroke-width="2" d="M206,-280C270,-280 286,-280 350,-280"/>
<path fill="none" stroke="#000000" stroke-width="2" d="M206,-282C270,-282 286,-282 350,-282"/>
</g>
<!-- X1&#45;&#45;W2 -->
<g id="edge13" class="edge">
<title>X1:p3&#45;&#45;W2:w3</title>
<path fill="none" stroke="#000000" stroke-width="2" d="M206,-255C270,-255 286,-255 350,-255"/>
<path fill="none" stroke="#ffff00" stroke-width="2" d="M206,-257C270,-257 286,-257 350,-257"/>
<path fill="none" stroke="#000000" stroke-width="2" d="M206,-259C270,-259 286,-259 350,-259"/>
</g>
<!-- X1&#45;&#45;W2 -->
<g id="edge15" class="edge">
<title>X1:p4&#45;&#45;W2:w4</title>
<path fill="none" stroke="#000000" stroke-width="2" d="M206,-231C270.13,-231 286.12,-232 350,-232"/>
<path fill="none" stroke="#00ff00" stroke-width="2" d="M206,-233C270,-233 286,-234 350,-234"/>
<path fill="none" stroke="#000000" stroke-width="2" d="M206,-235C269.88,-235 285.87,-236 350,-236"/>
</g>
<!-- W3 -->
<g id="node8" class="node">
<title>W3</title>
<path fill="white" stroke="black" d="M362,-88.5C362,-88.5 560,-88.5 560,-88.5 566,-88.5 572,-94.5 572,-100.5 572,-100.5 572,-191.5 572,-191.5 572,-197.5 566,-203.5 560,-203.5 560,-203.5 362,-203.5 362,-203.5 356,-203.5 350,-197.5 350,-191.5 350,-191.5 350,-100.5 350,-100.5 350,-94.5 356,-88.5 362,-88.5"/>
<text text-anchor="middle" x="365.5" y="-188.3" font-family="arial" font-size="14.00">4x</text>
<polyline fill="none" stroke="black" points="381,-180.5 381,-203.5 "/>
<text text-anchor="middle" x="451" y="-188.3" font-family="arial" font-size="14.00">0.14 mm² (26 AWG)</text>
<polyline fill="none" stroke="black" points="521,-180.5 521,-203.5 "/>
<text text-anchor="middle" x="546.5" y="-188.3" font-family="arial" font-size="14.00">0.2 m</text>
<polyline fill="none" stroke="black" points="350,-180.5 572,-180.5 "/>
<text text-anchor="middle" x="461" y="-165.3" font-family="arial" font-size="14.00">BK</text>
<polyline fill="none" stroke="black" points="350,-157.5 572,-157.5 "/>
<text text-anchor="middle" x="461" y="-142.3" font-family="arial" font-size="14.00">BU</text>
<polyline fill="none" stroke="black" points="350,-134.5 572,-134.5 "/>
<text text-anchor="middle" x="461" y="-119.3" font-family="arial" font-size="14.00">OG</text>
<polyline fill="none" stroke="black" points="350,-111.5 572,-111.5 "/>
<text text-anchor="middle" x="461" y="-96.3" font-family="arial" font-size="14.00">VT</text>
</g>
<!-- X1&#45;&#45;W3 -->
<g id="edge17" class="edge">
<title>X1:p1&#45;&#45;W3:w1</title>
<path fill="none" stroke="#000000" stroke-width="2" d="M206,-301C291.47,-303.45 260.63,-169.45 350,-167"/>
<path fill="none" stroke="#000000" stroke-width="2" d="M206,-303C293.42,-303 262.58,-169 350,-169"/>
<path fill="none" stroke="#000000" stroke-width="2" d="M206,-305C295.37,-302.55 264.53,-168.55 350,-171"/>
</g>
<!-- X1&#45;&#45;W3 -->
<g id="edge19" class="edge">
<title>X1:p5&#45;&#45;W3:w2</title>
<path fill="none" stroke="#000000" stroke-width="2" d="M206,-208C274.04,-209.88 277.97,-145.88 350,-144"/>
<path fill="none" stroke="#0000ff" stroke-width="2" d="M206,-210C276.04,-210 279.96,-146 350,-146"/>
<path fill="none" stroke="#000000" stroke-width="2" d="M206,-212C278.03,-210.12 281.96,-146.12 350,-148"/>
</g>
<!-- X1&#45;&#45;W3 -->
<g id="edge21" class="edge">
<title>X1:p6&#45;&#45;W3:w3</title>
<path fill="none" stroke="#000000" stroke-width="2" d="M206,-185C274.04,-186.88 277.97,-122.88 350,-121"/>
<path fill="none" stroke="#ff8000" stroke-width="2" d="M206,-187C276.04,-187 279.96,-123 350,-123"/>
<path fill="none" stroke="#000000" stroke-width="2" d="M206,-189C278.03,-187.12 281.96,-123.12 350,-125"/>
</g>
<!-- X1&#45;&#45;W3 -->
<g id="edge23" class="edge">
<title>X1:p7&#45;&#45;W3:w4</title>
<path fill="none" stroke="#000000" stroke-width="2" d="M206,-162C274.04,-163.88 277.97,-99.88 350,-98"/>
<path fill="none" stroke="#8000ff" stroke-width="2" d="M206,-164C276.04,-164 279.96,-100 350,-100"/>
<path fill="none" stroke="#000000" stroke-width="2" d="M206,-166C278.03,-164.12 281.96,-100.12 350,-102"/>
</g>
<!-- X2 -->
<g id="node2" class="node">
<title>X2</title>
<path fill="white" stroke="black" d="M728,-379C728,-379 910,-379 910,-379 916,-379 922,-385 922,-391 922,-391 922,-505 922,-505 922,-511 916,-517 910,-517 910,-517 728,-517 728,-517 722,-517 716,-511 716,-505 716,-505 716,-391 716,-391 716,-385 722,-379 728,-379"/>
<text text-anchor="middle" x="819" y="-501.8" font-family="arial" font-size="14.00">X2</text>
<polyline fill="none" stroke="black" points="716,-494 922,-494 "/>
<text text-anchor="middle" x="766.5" y="-478.8" font-family="arial" font-size="14.00">Molex KK 254</text>
<polyline fill="none" stroke="black" points="817,-471 817,-494 "/>
<text text-anchor="middle" x="846" y="-478.8" font-family="arial" font-size="14.00">female</text>
<polyline fill="none" stroke="black" points="875,-471 875,-494 "/>
<text text-anchor="middle" x="898.5" y="-478.8" font-family="arial" font-size="14.00">4&#45;pin</text>
<polyline fill="none" stroke="black" points="716,-471 922,-471 "/>
<text text-anchor="middle" x="761.5" y="-455.8" font-family="arial" font-size="14.00">1</text>
<polyline fill="none" stroke="black" points="716,-448 807,-448 "/>
<text text-anchor="middle" x="761.5" y="-432.8" font-family="arial" font-size="14.00">2</text>
<polyline fill="none" stroke="black" points="716,-425 807,-425 "/>
<text text-anchor="middle" x="761.5" y="-409.8" font-family="arial" font-size="14.00">3</text>
<polyline fill="none" stroke="black" points="716,-402 807,-402 "/>
<text text-anchor="middle" x="761.5" y="-386.8" font-family="arial" font-size="14.00">4</text>
<polyline fill="none" stroke="black" points="807,-379 807,-471 "/>
<text text-anchor="middle" x="864.5" y="-455.8" font-family="arial" font-size="14.00">GND</text>
<polyline fill="none" stroke="black" points="807,-448 922,-448 "/>
<text text-anchor="middle" x="864.5" y="-432.8" font-family="arial" font-size="14.00">+5V</text>
<polyline fill="none" stroke="black" points="807,-425 922,-425 "/>
<text text-anchor="middle" x="864.5" y="-409.8" font-family="arial" font-size="14.00">SCL</text>
<polyline fill="none" stroke="black" points="807,-402 922,-402 "/>
<text text-anchor="middle" x="864.5" y="-386.8" font-family="arial" font-size="14.00">SDA</text>
</g>
<!-- X3 -->
<g id="node3" class="node">
<title>X3</title>
<path fill="white" stroke="black" d="M728,-222C728,-222 910,-222 910,-222 916,-222 922,-228 922,-234 922,-234 922,-348 922,-348 922,-354 916,-360 910,-360 910,-360 728,-360 728,-360 722,-360 716,-354 716,-348 716,-348 716,-234 716,-234 716,-228 722,-222 728,-222"/>
<text text-anchor="middle" x="819" y="-344.8" font-family="arial" font-size="14.00">X3</text>
<polyline fill="none" stroke="black" points="716,-337 922,-337 "/>
<text text-anchor="middle" x="766.5" y="-321.8" font-family="arial" font-size="14.00">Molex KK 254</text>
<polyline fill="none" stroke="black" points="817,-314 817,-337 "/>
<text text-anchor="middle" x="846" y="-321.8" font-family="arial" font-size="14.00">female</text>
<polyline fill="none" stroke="black" points="875,-314 875,-337 "/>
<text text-anchor="middle" x="898.5" y="-321.8" font-family="arial" font-size="14.00">4&#45;pin</text>
<polyline fill="none" stroke="black" points="716,-314 922,-314 "/>
<text text-anchor="middle" x="761.5" y="-298.8" font-family="arial" font-size="14.00">1</text>
<polyline fill="none" stroke="black" points="716,-291 807,-291 "/>
<text text-anchor="middle" x="761.5" y="-275.8" font-family="arial" font-size="14.00">2</text>
<polyline fill="none" stroke="black" points="716,-268 807,-268 "/>
<text text-anchor="middle" x="761.5" y="-252.8" font-family="arial" font-size="14.00">3</text>
<polyline fill="none" stroke="black" points="716,-245 807,-245 "/>
<text text-anchor="middle" x="761.5" y="-229.8" font-family="arial" font-size="14.00">4</text>
<polyline fill="none" stroke="black" points="807,-222 807,-314 "/>
<text text-anchor="middle" x="864.5" y="-298.8" font-family="arial" font-size="14.00">GND</text>
<polyline fill="none" stroke="black" points="807,-291 922,-291 "/>
<text text-anchor="middle" x="864.5" y="-275.8" font-family="arial" font-size="14.00">+5V</text>
<polyline fill="none" stroke="black" points="807,-268 922,-268 "/>
<text text-anchor="middle" x="864.5" y="-252.8" font-family="arial" font-size="14.00">SCL</text>
<polyline fill="none" stroke="black" points="807,-245 922,-245 "/>
<text text-anchor="middle" x="864.5" y="-229.8" font-family="arial" font-size="14.00">SDA</text>
</g>
<!-- X4 -->
<g id="node4" class="node">
<title>X4</title>
<path fill="white" stroke="black" d="M728,-41.5C728,-41.5 910,-41.5 910,-41.5 916,-41.5 922,-47.5 922,-53.5 922,-53.5 922,-190.5 922,-190.5 922,-196.5 916,-202.5 910,-202.5 910,-202.5 728,-202.5 728,-202.5 722,-202.5 716,-196.5 716,-190.5 716,-190.5 716,-53.5 716,-53.5 716,-47.5 722,-41.5 728,-41.5"/>
<text text-anchor="middle" x="819" y="-187.3" font-family="arial" font-size="14.00">X4</text>
<polyline fill="none" stroke="black" points="716,-179.5 922,-179.5 "/>
<text text-anchor="middle" x="766.5" y="-164.3" font-family="arial" font-size="14.00">Molex KK 254</text>
<polyline fill="none" stroke="black" points="817,-156.5 817,-179.5 "/>
<text text-anchor="middle" x="846" y="-164.3" font-family="arial" font-size="14.00">female</text>
<polyline fill="none" stroke="black" points="875,-156.5 875,-179.5 "/>
<text text-anchor="middle" x="898.5" y="-164.3" font-family="arial" font-size="14.00">5&#45;pin</text>
<polyline fill="none" stroke="black" points="716,-156.5 922,-156.5 "/>
<text text-anchor="middle" x="760" y="-141.3" font-family="arial" font-size="14.00">1</text>
<polyline fill="none" stroke="black" points="716,-133.5 804,-133.5 "/>
<text text-anchor="middle" x="760" y="-118.3" font-family="arial" font-size="14.00">2</text>
<polyline fill="none" stroke="black" points="716,-110.5 804,-110.5 "/>
<text text-anchor="middle" x="760" y="-95.3" font-family="arial" font-size="14.00">3</text>
<polyline fill="none" stroke="black" points="716,-87.5 804,-87.5 "/>
<text text-anchor="middle" x="760" y="-72.3" font-family="arial" font-size="14.00">4</text>
<polyline fill="none" stroke="black" points="716,-64.5 804,-64.5 "/>
<text text-anchor="middle" x="760" y="-49.3" font-family="arial" font-size="14.00">5</text>
<polyline fill="none" stroke="black" points="804,-41.5 804,-156.5 "/>
<text text-anchor="middle" x="863" y="-141.3" font-family="arial" font-size="14.00">GND</text>
<polyline fill="none" stroke="black" points="804,-133.5 922,-133.5 "/>
<text text-anchor="middle" x="863" y="-118.3" font-family="arial" font-size="14.00">+12V</text>
<polyline fill="none" stroke="black" points="804,-110.5 922,-110.5 "/>
<text text-anchor="middle" x="863" y="-95.3" font-family="arial" font-size="14.00">MISO</text>
<polyline fill="none" stroke="black" points="804,-87.5 922,-87.5 "/>
<text text-anchor="middle" x="863" y="-72.3" font-family="arial" font-size="14.00">MOSI</text>
<polyline fill="none" stroke="black" points="804,-64.5 922,-64.5 "/>
<text text-anchor="middle" x="863" y="-49.3" font-family="arial" font-size="14.00">SCK</text>
</g>
<!-- X5 -->
<g id="node5" class="node">
<title>X5</title>
<path fill="white" stroke="black" d="M13,-1C13,-1 193,-1 193,-1 199,-1 205,-7 205,-13 205,-13 205,-81 205,-81 205,-87 199,-93 193,-93 193,-93 13,-93 13,-93 7,-93 1,-87 1,-81 1,-81 1,-13 1,-13 1,-7 7,-1 13,-1"/>
<text text-anchor="middle" x="103" y="-77.8" font-family="arial" font-size="14.00">X5</text>
<polyline fill="none" stroke="black" points="1,-70 205,-70 "/>
<text text-anchor="middle" x="56" y="-54.8" font-family="arial" font-size="14.00">Molex Micro&#45;Fit</text>
<polyline fill="none" stroke="black" points="111,-47 111,-70 "/>
<text text-anchor="middle" x="134.5" y="-54.8" font-family="arial" font-size="14.00">male</text>
<polyline fill="none" stroke="black" points="158,-47 158,-70 "/>
<text text-anchor="middle" x="181.5" y="-54.8" font-family="arial" font-size="14.00">2&#45;pin</text>
<polyline fill="none" stroke="black" points="1,-47 205,-47 "/>
<text text-anchor="middle" x="58" y="-31.8" font-family="arial" font-size="14.00">GND</text>
<polyline fill="none" stroke="black" points="1,-24 115,-24 "/>
<text text-anchor="middle" x="58" y="-8.8" font-family="arial" font-size="14.00">+12V</text>
<polyline fill="none" stroke="black" points="115,-1 115,-47 "/>
<text text-anchor="middle" x="160" y="-31.8" font-family="arial" font-size="14.00">1</text>
<polyline fill="none" stroke="black" points="115,-24 205,-24 "/>
<text text-anchor="middle" x="160" y="-8.8" font-family="arial" font-size="14.00">2</text>
</g>
<!-- W4 -->
<g id="node9" class="node">
<title>W4</title>
<path fill="white" stroke="black" d="M362,-0.5C362,-0.5 560,-0.5 560,-0.5 566,-0.5 572,-6.5 572,-12.5 572,-12.5 572,-57.5 572,-57.5 572,-63.5 566,-69.5 560,-69.5 560,-69.5 362,-69.5 362,-69.5 356,-69.5 350,-63.5 350,-57.5 350,-57.5 350,-12.5 350,-12.5 350,-6.5 356,-0.5 362,-0.5"/>
<text text-anchor="middle" x="365.5" y="-54.3" font-family="arial" font-size="14.00">2x</text>
<polyline fill="none" stroke="black" points="381,-46.5 381,-69.5 "/>
<text text-anchor="middle" x="447" y="-54.3" font-family="arial" font-size="14.00">0.5 mm² (21 AWG)</text>
<polyline fill="none" stroke="black" points="513,-46.5 513,-69.5 "/>
<text text-anchor="middle" x="542.5" y="-54.3" font-family="arial" font-size="14.00">0.35 m</text>
<polyline fill="none" stroke="black" points="350,-46.5 572,-46.5 "/>
<text text-anchor="middle" x="461" y="-31.3" font-family="arial" font-size="14.00">BK</text>
<polyline fill="none" stroke="black" points="350,-23.5 572,-23.5 "/>
<text text-anchor="middle" x="461" y="-8.3" font-family="arial" font-size="14.00">RD</text>
</g>
<!-- X5&#45;&#45;W4 -->
<g id="edge25" class="edge">
<title>X5:p1&#45;&#45;W4:w1</title>
<path fill="none" stroke="#000000" stroke-width="2" d="M206,-33C270,-33 286,-33 350,-33"/>
<path fill="none" stroke="#000000" stroke-width="2" d="M206,-35C270,-35 286,-35 350,-35"/>
<path fill="none" stroke="#000000" stroke-width="2" d="M206,-37C270,-37 286,-37 350,-37"/>
</g>
<!-- X5&#45;&#45;W4 -->
<g id="edge27" class="edge">
<title>X5:p2&#45;&#45;W4:w2</title>
<path fill="none" stroke="#000000" stroke-width="2" d="M206,-10C270,-10 286,-10 350,-10"/>
<path fill="none" stroke="#ff0000" stroke-width="2" d="M206,-12C270,-12 286,-12 350,-12"/>
<path fill="none" stroke="#000000" stroke-width="2" d="M206,-14C270,-14 286,-14 350,-14"/>
</g>
<!-- W1&#45;&#45;X2 -->
<g id="edge2" class="edge">
<title>W1:w1&#45;&#45;X2:p1</title>
<path fill="none" stroke="#000000" stroke-width="2" d="M572,-446C637.44,-446.42 653,-458.42 716,-458"/>
<path fill="none" stroke="#000000" stroke-width="2" d="M572,-448C636.22,-448 651.78,-460 716,-460"/>
<path fill="none" stroke="#000000" stroke-width="2" d="M572,-450C635,-449.58 650.56,-461.58 716,-462"/>
</g>
<!-- W1&#45;&#45;X2 -->
<g id="edge4" class="edge">
<title>W1:w2&#45;&#45;X2:p2</title>
<path fill="none" stroke="#000000" stroke-width="2" d="M572,-423C637.34,-423.36 652.96,-434.36 716,-434"/>
<path fill="none" stroke="#ff0000" stroke-width="2" d="M572,-425C636.19,-425 651.81,-436 716,-436"/>
<path fill="none" stroke="#000000" stroke-width="2" d="M572,-427C635.04,-426.64 650.66,-437.64 716,-438"/>
</g>
<!-- W1&#45;&#45;X2 -->
<g id="edge6" class="edge">
<title>W1:w3&#45;&#45;X2:p3</title>
<path fill="none" stroke="#000000" stroke-width="2" d="M572,-400C637.34,-400.36 652.96,-411.36 716,-411"/>
<path fill="none" stroke="#ffff00" stroke-width="2" d="M572,-402C636.19,-402 651.81,-413 716,-413"/>
<path fill="none" stroke="#000000" stroke-width="2" d="M572,-404C635.04,-403.64 650.66,-414.64 716,-415"/>
</g>
<!-- W1&#45;&#45;X2 -->
<g id="edge8" class="edge">
<title>W1:w4&#45;&#45;X2:p4</title>
<path fill="none" stroke="#000000" stroke-width="2" d="M572,-377C637.34,-377.36 652.96,-388.36 716,-388"/>
<path fill="none" stroke="#00ff00" stroke-width="2" d="M572,-379C636.19,-379 651.81,-390 716,-390"/>
<path fill="none" stroke="#000000" stroke-width="2" d="M572,-381C635.04,-380.64 650.66,-391.64 716,-392"/>
</g>
<!-- W2&#45;&#45;X3 -->
<g id="edge10" class="edge">
<title>W2:w1&#45;&#45;X3:p1</title>
<path fill="none" stroke="#000000" stroke-width="2" d="M572,-301C636,-301 652,-301 716,-301"/>
<path fill="none" stroke="#000000" stroke-width="2" d="M572,-303C636,-303 652,-303 716,-303"/>
<path fill="none" stroke="#000000" stroke-width="2" d="M572,-305C636,-305 652,-305 716,-305"/>
</g>
<!-- W2&#45;&#45;X3 -->
<g id="edge12" class="edge">
<title>W2:w2&#45;&#45;X3:p2</title>
<path fill="none" stroke="#000000" stroke-width="2" d="M572,-278C635.88,-278 651.87,-277 716,-277"/>
<path fill="none" stroke="#ff0000" stroke-width="2" d="M572,-280C636,-280 652,-279 716,-279"/>
<path fill="none" stroke="#000000" stroke-width="2" d="M572,-282C636.13,-282 652.12,-281 716,-281"/>
</g>
<!-- W2&#45;&#45;X3 -->
<g id="edge14" class="edge">
<title>W2:w3&#45;&#45;X3:p3</title>
<path fill="none" stroke="#000000" stroke-width="2" d="M572,-255C635.88,-255 651.87,-254 716,-254"/>
<path fill="none" stroke="#ffff00" stroke-width="2" d="M572,-257C636,-257 652,-256 716,-256"/>
<path fill="none" stroke="#000000" stroke-width="2" d="M572,-259C636.13,-259 652.12,-258 716,-258"/>
</g>
<!-- W2&#45;&#45;X3 -->
<g id="edge16" class="edge">
<title>W2:w4&#45;&#45;X3:p4</title>
<path fill="none" stroke="#000000" stroke-width="2" d="M572,-232C635.88,-232 651.87,-231 716,-231"/>
<path fill="none" stroke="#00ff00" stroke-width="2" d="M572,-234C636,-234 652,-233 716,-233"/>
<path fill="none" stroke="#000000" stroke-width="2" d="M572,-236C636.13,-236 652.12,-235 716,-235"/>
</g>
<!-- W3&#45;&#45;X4 -->
<g id="edge18" class="edge">
<title>W3:w1&#45;&#45;X4:p1</title>
<path fill="none" stroke="#000000" stroke-width="2" d="M572,-167C635.16,-167.98 649.4,-143.98 716,-143"/>
<path fill="none" stroke="#000000" stroke-width="2" d="M572,-169C636.88,-169 651.12,-145 716,-145"/>
<path fill="none" stroke="#000000" stroke-width="2" d="M572,-171C638.6,-170.02 652.84,-146.02 716,-147"/>
</g>
<!-- W3&#45;&#45;X4 -->
<g id="edge20" class="edge">
<title>W3:w2&#45;&#45;X4:p3</title>
<path fill="none" stroke="#000000" stroke-width="2" d="M572,-144C637.36,-145.61 646.72,-98.61 716,-97"/>
<path fill="none" stroke="#0000ff" stroke-width="2" d="M572,-146C639.32,-146 648.68,-99 716,-99"/>
<path fill="none" stroke="#000000" stroke-width="2" d="M572,-148C641.28,-146.39 650.64,-99.39 716,-101"/>
</g>
<!-- W3&#45;&#45;X4 -->
<g id="edge22" class="edge">
<title>W3:w3&#45;&#45;X4:p4</title>
<path fill="none" stroke="#000000" stroke-width="2" d="M572,-121C637.36,-122.61 646.72,-75.61 716,-74"/>
<path fill="none" stroke="#ff8000" stroke-width="2" d="M572,-123C639.32,-123 648.68,-76 716,-76"/>
<path fill="none" stroke="#000000" stroke-width="2" d="M572,-125C641.28,-123.39 650.64,-76.39 716,-78"/>
</g>
<!-- W3&#45;&#45;X4 -->
<g id="edge24" class="edge">
<title>W3:w4&#45;&#45;X4:p5</title>
<path fill="none" stroke="#000000" stroke-width="2" d="M572,-98C637.36,-99.61 646.72,-52.61 716,-51"/>
<path fill="none" stroke="#8000ff" stroke-width="2" d="M572,-100C639.32,-100 648.68,-53 716,-53"/>
<path fill="none" stroke="#000000" stroke-width="2" d="M572,-102C641.28,-100.39 650.64,-53.39 716,-55"/>
</g>
<!-- W4&#45;&#45;X4 -->
<g id="edge26" class="edge">
<title>W4:w1&#45;&#45;X4:p1</title>
<path fill="none" stroke="#000000" stroke-width="2" d="M572,-33C654.51,-35.31 637.44,-145.31 716,-143"/>
<path fill="none" stroke="#000000" stroke-width="2" d="M572,-35C652.54,-35 635.46,-145 716,-145"/>
<path fill="none" stroke="#000000" stroke-width="2" d="M572,-37C650.56,-34.69 633.49,-144.69 716,-147"/>
</g>
<!-- W4&#45;&#45;X4 -->
<g id="edge28" class="edge">
<title>W4:w2&#45;&#45;X4:p2</title>
<path fill="none" stroke="#000000" stroke-width="2" d="M572,-10C654.51,-12.31 637.44,-122.31 716,-120"/>
<path fill="none" stroke="#ff0000" stroke-width="2" d="M572,-12C652.54,-12 635.46,-122 716,-122"/>
<path fill="none" stroke="#000000" stroke-width="2" d="M572,-14C650.56,-11.69 633.49,-121.69 716,-124"/>
</g>
</g>
</svg>
